<svg width="394" height="394" viewBox="0 0 394 394" fill="none" xmlns="http://www.w3.org/2000/svg">
<rect width="394" height="394" fill="#3F2E42"/>
<g clip-path="url(#clip0_3211_18925)">
<path d="M232.726 174.129C217.348 180.652 203.72 178.933 191.56 176.157L167.343 212.261C176.251 216.244 186.126 218.434 196.496 218.44C235.11 219.237 269.133 185.27 268.334 146.72C268.418 124.833 258.257 104.006 241.062 90.459L232.726 174.129ZM193.414 180.787C208.529 184.086 222.767 183.404 236.583 176.963C238.984 152.913 241.455 128.088 243.975 102.77C243.99 102.784 244.004 102.802 244.019 102.816C255.146 114.798 261.242 130.292 261.242 146.72C261.992 181.368 231.328 212.053 196.672 211.334C189.355 211.334 182.182 210.124 175.337 207.729L193.411 180.787H193.414Z" fill="#FFD655"/>
<path d="M162.676 183.24L163.431 171.129C159.374 171.334 155.52 172.356 151.86 174.664C152.725 155.683 153.617 136.22 154.531 116.246C174.104 97.1726 199.386 111.361 231.919 92.5856C234.141 91.3233 236.212 89.9859 238.414 88.4578C226.282 79.717 211.749 75 196.496 75C156.88 75 124.654 107.17 124.654 146.72C124.654 175.126 141.279 199.705 165.311 211.332C165.899 203.18 166.755 191.811 167.296 184.514L162.676 183.237V183.24ZM151.652 113.299L150.486 114.435C149.421 137.679 148.4 159.97 147.381 182.356C150.359 180.45 155.801 176.923 159.021 175.594L158.353 186.32L162.933 187.582L161.915 201.216C143.47 189.627 131.737 168.474 131.894 146.665C131.804 110.789 161.507 81.8719 196.49 82.077C207.644 82.077 218.369 84.8731 227.856 90.139C213.587 97.8572 201.024 99.0098 188.849 100.131C175.403 101.364 162.699 102.534 151.646 113.299H151.652Z" fill="#FFD655"/>
<path d="M179.905 147.616C184.092 148.407 188.42 149.392 192.972 150.259C193.406 144.262 193.837 138.216 194.279 132.127C189.65 131.645 185.241 131.012 180.985 130.57C180.623 136.295 180.258 141.977 179.905 147.616Z" fill="white"/>
<path d="M178.557 167.39H178.56C183.733 168.525 189.173 170.013 194.925 171.142C204.507 173.014 215.019 173.883 226.713 170.368C228.91 147.398 231.172 123.718 233.501 99.2949C201.608 117.805 177.394 103.619 157.606 118.036C156.799 134.995 156.006 151.578 155.228 167.815C159.053 166.139 162.956 165.573 167.253 165.752L166.535 179.288L171.312 180.481L169.837 199.603L169.776 200.38C169.909 200.178 170.039 199.973 170.181 199.762C174.706 192.801 181.332 182.59 186.323 174.906C183.536 174.21 180.825 173.514 178.187 172.91V172.835L178.557 167.387V167.39ZM223.855 167.693C218.204 169.291 212.079 169.857 206.509 169.591C206.993 163.635 207.49 157.641 207.985 151.587C213.905 151.538 219.489 149.851 225.718 147.727L223.855 167.693ZM168.254 146.667C167.962 152.075 167.623 157.869 167.325 163.19C163.665 163.144 160.251 163.43 156.967 164.548C157.207 159.646 157.45 154.712 157.687 149.744C161.073 148.172 164.388 146.8 168.251 146.662C168.549 141.344 168.844 136 169.145 130.607C165.23 131.081 161.877 132.756 158.448 134.628L159.183 119.599C162.383 117.467 166.203 115.898 170.016 115.014C169.724 120.249 169.431 125.448 169.145 130.607C172.883 130.023 176.98 130.101 180.979 130.567C181.338 124.928 181.696 119.255 182.058 113.521C186.473 113.304 190.94 113.278 195.761 113.044C195.312 119.188 194.71 126.13 194.276 132.123C199.004 132.678 204.296 132.831 209.568 132.184C210.091 125.85 210.887 117.785 211.431 111.202C217.339 109.951 223.372 108.143 229.74 105.095C229.057 112.363 228.389 119.561 227.72 126.699C221.341 129.405 215.618 131.621 209.568 132.184C209.032 138.707 208.503 145.171 207.976 151.587C202.806 151.78 197.612 151.188 192.969 150.252C192.552 156.07 192.132 161.841 191.719 167.569C187.176 166.636 182.914 165.564 178.739 164.712C179.101 159.129 179.544 153.193 179.897 147.609C175.965 146.818 171.928 146.399 168.248 146.662L168.254 146.667Z" fill="white"/>
<path d="M89 243.176V235.117C96.4908 235.117 103.982 235.117 111.472 235.117C111.47 236.622 111.467 237.376 111.461 238.881C110.816 240.426 110.492 241.203 109.846 242.76C107.922 242.795 106.959 242.812 105.035 242.847C105.017 250.519 105.003 258.194 104.986 265.866C101.65 266.12 98.3136 266.383 94.9776 266.657C94.9834 258.786 94.9921 250.918 94.9979 243.046C92.5964 243.095 91.3957 243.121 88.9971 243.176H89Z" fill="#FFD655"/>
<path d="M133.786 235.115C136.124 235.115 137.77 236.594 137.764 238.688C137.75 242.452 137.735 246.216 137.721 249.983C137.715 251.337 136.563 252.889 135.047 253.31C136.303 256.109 136.931 257.502 138.187 260.272C138.181 261.699 138.178 262.412 138.172 263.842C134.9 264.001 131.63 264.171 128.358 264.348C127.464 261.349 126.573 258.351 125.687 255.35C124.88 255.381 124.478 255.399 123.671 255.431C123.659 258.492 123.65 261.554 123.639 264.616C120.294 264.818 116.952 265.032 113.611 265.255C113.64 255.208 113.669 245.165 113.697 235.118H133.786V235.115ZM123.717 242.53C123.708 244.737 123.705 245.843 123.697 248.05C125.291 248.01 126.09 247.99 127.687 247.949C127.695 245.76 127.698 244.662 127.707 242.472C126.11 242.496 125.314 242.507 123.717 242.53Z" fill="#FFD655"/>
<path d="M161.515 235.115C162.985 243.209 164.464 251.3 165.948 259.391C165.945 260.769 165.942 261.459 165.939 262.837C162.586 262.923 159.233 263.022 155.876 263.129C155.645 260.878 155.529 259.755 155.298 257.502C153.536 257.548 152.653 257.574 150.891 257.626C150.625 259.905 150.495 261.046 150.229 263.328C146.893 263.458 143.557 263.596 140.221 263.744C140.226 262.32 140.229 261.609 140.235 260.185C141.757 251.828 143.285 243.472 144.821 235.115C150.385 235.115 155.952 235.115 161.515 235.115ZM154.586 250.506C154.288 247.73 153.993 244.954 153.695 242.178C153.255 242.181 153.035 242.184 152.592 242.186C152.277 244.977 151.962 247.77 151.646 250.563C152.821 250.54 153.408 250.529 154.583 250.506H154.586Z" fill="#FFD655"/>
<path d="M189.934 235.116C189.934 236.477 189.934 237.156 189.934 238.516C189.309 239.908 188.996 240.604 188.371 241.997C185.082 242.003 181.795 242.011 178.505 242.023C178.496 246.59 178.491 251.153 178.482 255.72C182.295 255.677 186.109 255.651 189.922 255.634C189.922 258.369 189.922 259.738 189.919 262.474C184.095 262.506 178.271 262.575 172.449 262.69C170.059 262.737 168.407 261.353 168.413 259.337C168.43 252.407 168.448 245.48 168.465 238.551C168.471 236.534 170.126 235.113 172.51 235.113C178.32 235.113 184.13 235.113 189.939 235.113L189.934 235.116Z" fill="#FFD655"/>
<path d="M206.582 235.116C209.762 235.116 212.941 235.116 216.121 235.116C216.121 236.482 216.124 237.167 216.127 238.533C214.894 241.708 213.662 244.88 212.423 248.054C213.934 251.772 215.441 255.489 216.943 259.207C216.943 260.573 216.946 261.258 216.949 262.627C213.607 262.575 210.268 262.534 206.926 262.503C206.02 258.964 205.112 255.426 204.206 251.887C203.471 251.887 203.104 251.884 202.369 251.881C202.369 255.411 202.372 258.941 202.375 262.471C199.033 262.459 195.691 262.456 192.35 262.465C192.352 253.349 192.355 244.232 192.361 235.116H202.36C202.36 238.424 202.363 241.734 202.366 245.041C203.101 245.041 203.469 245.041 204.203 245.044C204.996 241.734 205.789 238.424 206.582 235.113V235.116Z" fill="#FFD655"/>
<path d="M218.965 244.324C218.959 242.01 218.959 240.852 218.954 238.538C218.951 236.531 220.597 235.115 222.984 235.115H240.413C240.419 236.499 240.419 237.189 240.425 238.57C239.806 240.014 239.496 240.733 238.877 242.172C235.587 242.146 232.301 242.12 229.011 242.097C229.011 242.605 229.011 242.859 229.014 243.365C231.93 245.078 234.844 246.797 237.749 248.53C239.956 249.847 240.466 251.106 240.474 253.357C240.483 255.913 240.486 257.19 240.494 259.746C240.5 261.794 238.854 263.181 236.51 263.105C230.675 262.915 224.839 262.765 219.003 262.661C218.997 259.905 218.994 258.53 218.988 255.774C222.802 255.826 226.615 255.893 230.426 255.971C230.426 255.24 230.423 254.873 230.42 254.142C227.512 252.429 224.601 250.725 221.682 249.032C219.474 247.709 218.968 246.528 218.962 244.324H218.965Z" fill="#FFD655"/>
<path d="M242.942 263.331C242.91 253.926 242.876 244.52 242.844 235.115C246.177 235.115 249.51 235.115 252.843 235.115C252.878 244.659 252.915 254.206 252.95 263.75C249.614 263.602 246.278 263.461 242.942 263.331Z" fill="#FFD655"/>
<path d="M255.751 263.882C255.716 254.292 255.679 244.705 255.644 235.115H275.686C278.024 235.115 279.682 236.666 279.687 238.865C279.711 246.418 279.731 253.975 279.754 261.528C279.76 263.726 278.116 265.165 275.781 265.012C269.107 264.59 262.432 264.215 255.751 263.882ZM265.721 257.083C267.336 257.152 268.143 257.187 269.755 257.259C269.737 252.351 269.72 247.447 269.703 242.539C268.088 242.516 267.281 242.504 265.666 242.481C265.684 247.348 265.701 252.216 265.718 257.083H265.721Z" fill="#FFD655"/>
<path d="M302.397 243.138C303.037 241.529 303.358 240.72 304 239.099C304 237.505 304 236.708 304 235.113C296.845 235.113 289.69 235.113 282.534 235.113C282.561 245.232 282.589 255.353 282.615 265.472C289.748 265.983 296.877 266.55 304 267.165C304 263.958 304 262.355 304 259.152C300.192 258.901 296.382 258.664 292.571 258.438C292.571 256.734 292.569 255.879 292.566 254.175C295.844 254.337 299.125 254.501 302.403 254.672C302.403 251.48 302.403 249.885 302.403 246.694C299.122 246.592 295.838 246.494 292.557 246.399C292.557 245.012 292.554 244.319 292.551 242.933C295.835 242.999 299.119 243.066 302.403 243.138H302.397Z" fill="#FFD655"/>
<path d="M134.865 280.096C134.879 275.945 134.897 271.795 134.911 267.644C138.872 267.421 142.836 267.219 146.8 267.037C146.759 278.265 146.719 289.493 146.678 300.721C142.709 301.09 138.742 301.506 134.781 301.966C134.798 297.537 134.813 293.106 134.83 288.678C132.912 288.857 131.951 288.95 130.036 289.14C130.019 293.609 130.004 298.075 129.987 302.543C126.029 303.04 122.076 303.577 118.13 304.164C118.168 292.347 118.205 280.53 118.243 268.712C122.198 268.429 126.156 268.167 130.111 267.924C130.097 272.112 130.079 276.298 130.065 280.486C131.983 280.325 132.941 280.247 134.859 280.096H134.865Z" fill="#FFD655"/>
<path d="M178.881 266.051C178.864 276.932 178.846 287.81 178.829 298.692C170.841 298.983 162.872 299.425 154.901 300.017C152.057 300.24 150.095 298.689 150.104 296.248C150.139 286.461 150.174 276.675 150.205 266.888C154.19 266.721 158.177 266.574 162.164 266.447C162.14 274.711 162.117 282.975 162.091 291.242C163.995 291.135 164.947 291.086 166.851 290.994C166.871 282.764 166.894 274.537 166.914 266.308C170.901 266.201 174.891 266.114 178.881 266.051Z" fill="#FFD655"/>
<path d="M201.579 280.963C201.05 277.292 200.517 273.624 199.988 269.952C199.988 268.337 199.988 267.529 199.988 265.914C203.668 265.926 207.349 265.957 211.029 266.004C211.043 276.867 211.058 287.731 211.072 298.595C206.831 298.494 202.595 298.428 198.353 298.402C196.473 293.407 194.592 288.413 192.711 283.416C192.338 283.416 192.153 283.419 191.78 283.422C192.289 287.07 192.798 290.721 193.31 294.369C193.31 295.984 193.31 296.793 193.31 298.407C189.636 298.431 185.964 298.488 182.289 298.587C182.304 287.723 182.318 276.862 182.333 265.998C186.56 265.949 190.787 265.92 195.014 265.908C196.875 270.926 198.735 275.94 200.596 280.958C200.989 280.958 201.186 280.961 201.582 280.963H201.579Z" fill="#FFD655"/>
<path d="M214.533 298.701C214.515 287.82 214.498 276.936 214.478 266.055C222.437 266.199 230.394 266.416 238.348 266.708C241.131 266.814 243.104 268.626 243.11 271.069C243.139 279.469 243.168 287.869 243.197 296.272C243.205 298.716 241.244 300.264 238.455 300.044C230.484 299.447 222.515 299.002 214.527 298.704L214.533 298.701ZM226.453 291.006C228.38 291.101 229.344 291.151 231.268 291.26C231.25 285.763 231.236 280.269 231.221 274.772C229.297 274.694 228.337 274.66 226.413 274.593C226.427 280.064 226.442 285.535 226.456 291.006H226.453Z" fill="#FFD655"/>
<path d="M246.62 300.747C246.579 289.513 246.539 278.282 246.498 267.049C255.004 267.453 263.508 267.941 272.006 268.516C272.011 270.27 272.014 271.145 272.02 272.898C271.265 274.631 270.886 275.495 270.131 277.214C266.231 276.879 262.325 276.572 258.422 276.292C258.427 277.823 258.43 278.589 258.436 280.12C262.342 280.426 266.245 280.761 270.145 281.125C270.154 284.051 270.165 286.977 270.174 289.903C266.274 289.47 262.374 289.068 258.465 288.704C258.471 290.588 258.476 291.529 258.482 293.413C263.025 293.889 267.559 294.401 272.092 294.949C272.101 297.887 272.113 300.825 272.121 303.76C263.638 302.578 255.143 301.573 246.617 300.744L246.62 300.747Z" fill="#FFD655"/>
<path d="M302.993 301.854C301.905 298.933 301.361 297.483 300.271 294.606C300.878 294.537 301.437 294.286 301.908 293.91C302.814 293.188 303.404 292.004 303.404 290.825C303.404 285.845 303.404 280.865 303.404 275.885C303.404 273.112 301.454 270.963 298.691 270.703C290.763 269.97 282.832 269.311 274.893 268.725C274.931 280.545 274.968 292.365 275.006 304.185C278.973 304.774 282.931 305.407 286.883 306.082C286.874 302.298 286.866 298.517 286.857 294.733C287.812 294.869 288.286 294.941 289.241 295.08C290.323 299.072 291.391 303.07 292.453 307.067C296.31 307.772 300.161 308.517 304 309.306C304 307.411 304 306.464 304 304.572C303.598 303.48 303.395 302.937 302.993 301.851V301.854ZM291.553 286.215C289.667 285.972 288.723 285.854 286.834 285.626C286.828 282.899 286.825 281.535 286.819 278.809C288.709 279.008 289.652 279.109 291.541 279.32C291.547 282.078 291.547 283.456 291.553 286.215Z" fill="#FFD655"/>
<path d="M303.997 316.481C303.997 315.23 303.997 314.606 303.997 313.356C239.308 299.612 172.898 298.37 107.737 309.664C106.655 312.466 105.582 315.274 104.52 318.084C170.285 303.413 237.96 303.557 303.997 316.484V316.481Z" fill="#FFD655"/>
<path d="M89 271.257V280.836C91.8355 280.477 93.2532 280.307 96.0944 279.972C96.0886 285.867 96.0829 291.763 96.0742 297.659C98.5364 294.49 101.033 291.353 103.565 288.239C102.046 292.136 100.55 296.044 99.063 299.952C98.0532 302.612 97.0521 305.279 96.0626 307.945C97.6915 307.633 98.5046 307.48 100.136 307.182C100.136 307.526 100.136 307.696 100.136 308.04C100.131 311.691 100.125 315.342 100.119 318.996C101.702 314.768 103.299 310.547 104.913 306.33C106.12 303.193 106.722 301.636 107.928 298.548C106.155 298.817 105.266 298.953 103.496 299.233C104.965 295.414 106.453 291.604 107.957 287.8C107.966 284.752 107.972 281.705 107.98 278.658C110.26 278.424 111.4 278.308 113.68 278.089C114.447 276.194 114.829 275.252 115.595 273.374C115.601 271.601 115.604 270.714 115.61 268.943C106.733 269.619 97.8651 270.391 89.0058 271.254L89 271.257Z" fill="#FFD655"/>
</g>
<defs>
<clipPath id="clip0_3211_18925">
<rect width="215" height="244" fill="white" transform="translate(89 75)"/>
</clipPath>
</defs>
</svg>
