<svg width="700" height="554" viewBox="0 0 700 554" fill="none" xmlns="http://www.w3.org/2000/svg">
<path d="M127.608 89.496H110.132V25.293H204.874V89.496H152.691L127.608 110.692V89.496Z" fill="#FAFAFA"/>
<path d="M195.044 35.123H180.025V49.9697H195.044V35.123Z" fill="black"/>
<path d="M195.044 64.8223H180.025V79.669H195.044V64.8223Z" fill="black"/>
<path d="M180.025 49.9688H165.006V64.8154H180.025V49.9688Z" fill="black"/>
<path d="M165.011 35.123H149.993V49.9697H165.011V35.123Z" fill="black"/>
<path d="M165.011 64.8223H149.993V79.669H165.011V64.8223Z" fill="black"/>
<path d="M149.993 49.9688H134.975V64.8154H149.993V49.9688Z" fill="black"/>
<path d="M134.979 35.123H119.96V49.9697H134.979V35.123Z" fill="black"/>
<path d="M134.979 64.8223H119.96V79.669H134.979V64.8223Z" fill="black"/>
<path d="M112.588 27.75V87.0385H130.064V105.399L151.791 87.0385H202.416V27.75H112.588ZM197.501 82.124H149.993L144.179 87.0385L134.979 94.8132V82.124H117.503V32.6645H197.501V82.124Z" fill="black"/>
<path d="M317.349 94.7175C311.515 94.1032 305.888 92.0342 300.944 88.6628L299.873 87.9306V23.2165L303.5 25.1823C309.078 28.2047 314.965 29.6741 321.502 29.6741C329.802 29.6741 337.946 27.3889 346.561 24.9709C355.122 22.5678 363.978 20.0859 372.961 20.0859C380.343 20.0859 387.002 21.752 393.327 25.1774L394.615 25.8752V90.781L390.973 88.7808C384.982 85.4881 378.888 83.8859 372.357 83.8859C363.245 83.8859 353.937 86.9821 344.079 90.265L342.944 90.6434L342.786 90.8252C336.196 98.4181 329.38 106.271 321.34 112.705L317.349 115.899V94.7126V94.7175Z" fill="#FAFAFA"/>
<path d="M384.785 30.9026C380.323 29.1432 374.529 28.4994 369.767 29.0302C369.767 33.9791 369.767 38.928 369.767 43.8769C374.524 43.3461 380.323 43.9899 384.785 45.7493V30.9026Z" fill="black"/>
<path d="M384.785 75.4463V60.5996C380.323 58.8402 374.529 58.1964 369.767 58.732V73.5787C374.524 73.0431 380.323 73.6918 384.785 75.4463Z" fill="black"/>
<path d="M369.767 58.7276V43.8809C364.769 44.274 359.5 45.542 354.748 47.1048V61.9515C359.5 60.3887 364.769 59.1207 369.767 58.7276Z" fill="black"/>
<path d="M354.747 32.2539C349.725 33.8413 344.756 35.5909 339.729 37.1733C339.729 42.1222 339.729 47.0711 339.729 52.02C344.751 50.4375 349.72 48.6831 354.747 47.1006V32.2539Z" fill="black"/>
<path d="M339.734 81.7231C344.757 80.1358 349.725 78.3862 354.753 76.8037V61.957C349.73 63.5444 344.761 65.294 339.734 66.8764C339.734 71.8253 339.734 76.7742 339.734 81.7231Z" fill="black"/>
<path d="M339.734 52.0254C334.982 53.5882 329.713 54.8561 324.715 55.2493V70.096C329.713 69.7028 334.982 68.4349 339.734 66.8721V52.0254Z" fill="black"/>
<path d="M309.701 38.5312C309.701 43.4801 309.701 48.429 309.701 53.3779C314.164 55.1373 319.958 55.7811 324.72 55.2504C324.72 50.3015 324.72 45.3526 324.72 40.4037C319.963 40.9344 314.164 40.2906 309.701 38.5362V38.5312Z" fill="black"/>
<path d="M324.715 70.0931C319.958 70.6239 314.164 69.9801 309.696 68.2207V83.0674C314.159 84.8268 319.953 85.4706 324.715 84.9398C324.715 79.9909 324.715 75.042 324.715 70.0882V70.0931Z" fill="black"/>
<path d="M302.325 27.3456V86.6341C307.495 90.1578 313.545 92.2022 319.801 92.4332V110.794C327.905 104.307 334.751 96.3353 341.528 88.5262C359.324 82.6239 374.622 76.9967 392.152 86.6341V27.3456C361.501 10.7346 332.957 43.9418 302.325 27.3456ZM387.238 78.9281C373.099 73.876 361.166 77.0999 347.347 81.6803C344.3 82.7074 342.776 83.2382 339.729 84.1768C337.405 86.8601 336.24 88.1821 333.916 90.7279C330.235 94.7528 328.397 96.6744 324.716 100.09V87.4007C322.75 87.5629 321.767 87.5924 319.801 87.5138C314.779 87.3123 312.262 86.8405 307.24 84.5061C307.24 68.018 307.24 51.5347 307.24 35.0466C335.115 44.7232 359.363 19.7871 387.238 29.4686V78.9281Z" fill="black"/>
<path d="M506.364 94.5972C500.663 93.9484 495.311 91.8696 490.75 88.5228L489.615 87.6874L496.387 23.2436L499.66 25.1258C504.889 28.1286 510.595 29.5882 517.102 29.5882C525.412 29.5882 534.195 27.1948 542.682 24.8801C551.489 22.4818 560.59 20 569.569 20C576.97 20 583.487 21.6758 589.483 25.1209L590.869 25.9171L584.072 90.5771L580.789 88.6605C575.177 85.3874 569.284 83.7951 562.772 83.7951C553.651 83.7951 544.004 86.8961 533.792 90.179L532.538 90.582L532.293 90.8376C524.916 98.4206 517.284 106.259 508.595 112.673L504.108 115.985L506.354 94.5923L506.364 94.5972Z" fill="#FAFAFA"/>
<path d="M580.519 30.8128C576.238 29.0534 570.513 28.4096 565.697 28.9403C565.176 33.8892 564.655 38.8381 564.134 43.787C568.95 43.2563 574.675 43.9001 578.956 45.6545C579.477 40.7056 579.998 35.7567 580.519 30.8078V30.8128Z" fill="black"/>
<path d="M575.84 75.3584C576.361 70.4095 576.882 65.4606 577.403 60.5117C573.122 58.7523 567.397 58.1085 562.58 58.6442C562.059 63.5931 561.539 68.542 561.018 73.4909C565.834 72.9601 571.559 73.6039 575.84 75.3584Z" fill="black"/>
<path d="M562.58 58.6377C563.101 53.6888 563.622 48.7399 564.143 43.791C559.106 44.1842 553.7 45.4521 548.785 47.0149C548.265 51.9638 547.744 56.9127 547.223 61.8616C552.137 60.2988 557.538 59.0309 562.58 58.6377Z" fill="black"/>
<path d="M550.344 32.1699C545.154 33.7573 539.999 35.5069 534.809 37.0893C534.288 42.0382 533.767 46.9871 533.246 51.936C538.436 50.3536 543.591 48.5991 548.781 47.0166C549.302 42.0677 549.823 37.1188 550.344 32.1699Z" fill="black"/>
<path d="M530.13 81.6313C535.32 80.044 540.475 78.2944 545.665 76.7119C546.186 71.763 546.707 66.8141 547.228 61.8652C542.038 63.4526 536.883 65.2022 531.693 66.7846C531.172 71.7335 530.651 76.6824 530.13 81.6313Z" fill="black"/>
<path d="M533.251 51.9355C528.337 53.4984 522.936 54.7663 517.893 55.1595C517.372 60.1084 516.852 65.0573 516.331 70.0062C521.368 69.613 526.774 68.3451 531.688 66.7822C532.209 61.8333 532.73 56.8844 533.251 51.9355Z" fill="black"/>
<path d="M504.634 38.4395C504.113 43.3884 503.592 48.3373 503.071 53.2862C507.351 55.0455 513.077 55.6893 517.893 55.1537C518.414 50.2048 518.935 45.2559 519.456 40.307C514.64 40.8377 508.914 40.1939 504.634 38.4395Z" fill="black"/>
<path d="M516.336 70.0052C511.519 70.536 505.794 69.8922 501.513 68.1328C500.993 73.0817 500.472 78.0306 499.951 82.9844C504.231 84.7438 509.957 85.3876 514.773 84.8568C515.294 79.9079 515.815 74.959 516.336 70.0052Z" fill="black"/>
<path d="M498.436 27.2557C496.357 47.0169 494.283 66.783 492.204 86.5442C497.001 90.0679 502.839 92.1124 509.071 92.3433C508.427 98.4619 507.783 104.585 507.139 110.704C515.926 104.217 523.608 96.2455 531.206 88.4363C549.62 82.534 565.509 76.9069 582.026 86.5442C584.105 66.783 586.179 47.0169 588.258 27.2557C559.356 10.6447 527.318 43.852 498.431 27.2557H498.436ZM577.928 78.8383C564.319 73.7862 552.048 77.0101 537.747 81.5904C534.592 82.6175 533.014 83.1483 529.869 84.087C527.259 86.7703 525.957 88.0923 523.367 90.638C519.263 94.663 517.224 96.5846 513.184 100C513.513 96.8893 513.676 95.3363 514 92.2254C514.206 90.2596 514.309 89.2767 514.516 87.3109C512.535 87.4731 511.548 87.5026 509.592 87.4239C504.589 87.2224 502.126 86.7506 497.345 84.4163C499.079 67.9281 500.809 51.4449 502.544 34.9567C529.402 44.6334 556.274 19.6972 583.127 29.3788C581.392 45.8669 579.662 62.3502 577.928 78.8383Z" fill="black"/>
<path d="M136.23 211.838L127.079 202.688L67.2895 213.381L60.6304 281.58L70.9164 291.866L89.2475 270.729L140.727 273.864L136.23 211.838Z" fill="#FAFAFA"/>
<path d="M120.655 212.527L109.219 214.272L109.47 226.765L121.363 225.61L120.655 212.527Z" fill="black"/>
<path d="M122.13 239.756L109.741 240.218L110.031 254.75L122.961 255.099L122.13 239.756Z" fill="black"/>
<path d="M98.7128 227.804L98.5752 240.635L109.741 240.218L109.471 226.762L98.7128 227.804Z" fill="black"/>
<path d="M98.8398 215.855L89.3744 217.3L88.9321 228.756L98.712 227.803L98.8398 215.855Z" fill="black"/>
<path d="M87.9546 254.155L98.4225 254.435L98.5748 240.635L88.4608 241.008L87.9546 254.155Z" fill="black"/>
<path d="M80.0078 229.623L79.2607 241.354L88.4607 241.01L88.9325 228.758L80.0078 229.623Z" fill="black"/>
<path d="M72.7491 219.839L71.8301 230.415L80.0078 229.624L80.7106 218.625L72.7491 219.839Z" fill="black"/>
<path d="M69.8062 253.664L78.4557 253.895L79.2616 241.354L70.848 241.668L69.8062 253.664Z" fill="black"/>
<path d="M130.475 263.643L126.249 205.332L69.5503 215.471L63.1909 280.666L80.5932 260.605L130.48 263.643H130.475ZM66.8915 270.97L71.6586 218.346L122.514 210.133L125.389 257.848L79.6938 256.104L66.8965 270.965L66.8915 270.97Z" fill="black"/>
<path d="M133.847 212.923L128.303 207.385L132.525 265.671L81.409 262.555L64.5376 282.011L70.7888 288.263L88.1862 268.202L138.073 271.239L133.847 212.923Z" fill="black"/>
<path d="M330.1 308.567C310.058 308.567 291.383 298.821 279.888 282.431L254.461 281.124C251.129 280.957 248.514 278.205 248.514 274.863C248.514 271.521 251.129 268.774 254.461 268.607L272.286 267.688C272.192 267.418 272.099 267.147 272.005 266.882C269.71 265.933 268.123 263.673 268.123 261.088C268.123 259.604 268.649 258.188 269.583 257.073C269.47 256.365 269.366 255.652 269.278 254.935L241.683 253.564C238.346 253.401 235.727 250.654 235.727 247.307C235.727 243.961 238.341 241.209 241.683 241.046L263.577 239.96L261.046 239.779C257.783 239.548 255.222 236.8 255.222 233.522C255.222 230.244 257.783 227.502 261.046 227.271L272.428 226.46C281.181 202.183 304.146 185.984 330.09 185.984C363.887 185.984 391.379 213.481 391.379 247.273C391.379 281.065 363.882 308.567 330.09 308.567H330.1Z" fill="#FAFAFA"/>
<path d="M302.848 254.779C302.445 258.617 302.042 262.456 301.639 266.294C304.956 267.655 309.394 268.157 313.129 267.744L314.343 256.234C310.608 256.647 306.17 256.145 302.848 254.784V254.779ZM305.266 231.755C304.863 235.593 304.46 239.431 304.057 243.27C307.374 244.631 311.812 245.132 315.547 244.719L316.761 233.21C313.026 233.622 308.588 233.121 305.266 231.76V231.755ZM315.547 244.719C315.144 248.558 314.741 252.396 314.338 256.234C318.245 255.924 322.432 254.941 326.241 253.732C326.644 249.889 327.047 246.056 327.455 242.218C323.646 243.432 319.454 244.415 315.547 244.719ZM326.246 253.732C325.843 257.571 325.44 261.409 325.037 265.242C329.062 264.014 333.053 262.657 337.082 261.429C337.481 257.59 337.888 253.752 338.291 249.914C334.266 251.143 330.276 252.499 326.246 253.732ZM328.664 230.703C328.266 234.541 327.858 238.38 327.455 242.213C331.48 240.984 335.475 239.628 339.5 238.399C339.903 234.561 340.306 230.723 340.709 226.889C336.684 228.118 332.694 229.474 328.664 230.703ZM339.5 238.404L338.287 249.914C342.095 248.705 346.287 247.722 350.194 247.412C350.597 243.574 351 239.736 351.403 235.903C347.496 236.207 343.309 237.19 339.5 238.404ZM350.199 247.412C349.796 251.256 349.393 255.089 348.985 258.927C352.72 258.509 357.158 259.016 360.48 260.377C360.883 256.539 361.286 252.7 361.689 248.867C358.372 247.501 353.934 247.005 350.199 247.417V247.412ZM352.617 224.393L351.403 235.903C355.138 235.485 359.576 235.991 362.898 237.352C363.301 233.514 363.704 229.676 364.107 225.843C360.79 224.481 356.352 223.98 352.617 224.393ZM362.898 237.352C363.301 233.514 363.704 229.676 364.107 225.843C360.79 224.481 356.352 223.98 352.617 224.393L351.403 235.903C355.138 235.485 359.576 235.991 362.898 237.352ZM360.48 260.377C360.883 256.539 361.286 252.7 361.689 248.867C358.372 247.501 353.934 247.005 350.199 247.417C349.796 251.26 349.393 255.094 348.985 258.932C352.72 258.514 357.158 259.02 360.48 260.382V260.377ZM339.5 238.404L338.287 249.914C342.095 248.705 346.287 247.722 350.194 247.412C350.597 243.574 351 239.736 351.403 235.903C347.496 236.207 343.309 237.19 339.5 238.404ZM340.709 226.889C336.684 228.118 332.694 229.474 328.664 230.703C328.266 234.541 327.858 238.38 327.455 242.213C331.48 240.984 335.475 239.628 339.5 238.399C339.903 234.561 340.306 230.723 340.709 226.889ZM325.037 265.242C329.062 264.014 333.053 262.657 337.082 261.429C337.481 257.59 337.888 253.752 338.291 249.914C334.266 251.143 330.276 252.499 326.246 253.732C325.843 257.571 325.44 261.409 325.037 265.242ZM315.547 244.719C315.144 248.558 314.741 252.396 314.338 256.234C318.245 255.924 322.432 254.941 326.241 253.732C326.644 249.889 327.047 246.056 327.455 242.218C323.646 243.432 319.454 244.415 315.547 244.719ZM305.266 231.755C304.863 235.593 304.46 239.431 304.057 243.27C307.374 244.631 311.812 245.132 315.547 244.719L316.761 233.21C313.026 233.622 308.588 233.121 305.266 231.76V231.755ZM302.848 254.779C302.445 258.617 302.042 262.456 301.639 266.294C304.956 267.655 309.394 268.157 313.129 267.744L314.343 256.234C310.608 256.647 306.17 256.145 302.848 254.784V254.779ZM330.099 188.443C304.062 188.443 281.976 205.359 274.226 228.796L261.222 229.72C259.227 229.863 257.684 231.524 257.684 233.519C257.684 235.514 259.232 237.18 261.222 237.323L271.975 238.09C271.774 239.387 271.612 240.699 271.494 242.021L241.805 243.496C239.775 243.594 238.183 245.27 238.183 247.304C238.183 249.339 239.775 251.01 241.805 251.108L271.498 252.582C271.661 254.396 271.906 256.19 272.231 257.954C271.228 258.647 270.584 259.797 270.584 261.085C270.584 263.006 272.019 264.628 273.921 264.864H273.936C274.477 266.604 275.096 268.299 275.794 269.965L254.578 271.061C252.548 271.164 250.961 272.835 250.961 274.865C250.961 276.894 252.548 278.57 254.578 278.674L281.219 280.045C291.781 295.766 309.728 306.111 330.089 306.111C362.584 306.111 388.921 279.77 388.921 247.275C388.921 214.78 362.584 188.443 330.089 188.443H330.099ZM369.498 265.395L369.071 269.454C368.933 270.737 368.157 271.872 367.002 272.452C366.461 272.727 365.872 272.865 365.282 272.865C364.618 272.865 363.95 272.688 363.36 272.349C359.252 269.95 355.124 268.835 350.352 268.835C343.584 268.835 336.247 271.194 328.477 273.69L327.942 273.862C322.211 279.75 316.279 285.829 309.473 290.857C308.804 291.348 308.003 291.599 307.207 291.599C306.554 291.599 305.905 291.432 305.315 291.097C304.003 290.345 303.261 288.891 303.423 287.392L304.47 277.43L254.779 274.87L294.371 272.825C294.031 272.604 293.702 272.373 293.373 272.132C292.277 271.326 291.692 270.009 291.835 268.663L292.395 263.335L274.398 261.09L292.877 258.785L293.81 249.88L242.002 247.309L294.356 244.709L294.415 244.125C294.695 241.52 294.965 238.925 295.236 236.33L295.28 235.932L261.497 233.529L295.786 231.086C295.811 230.86 295.835 230.639 295.86 230.418L296.671 222.693C296.808 221.41 297.58 220.279 298.73 219.7C299.275 219.419 299.87 219.282 300.465 219.282C301.118 219.282 301.777 219.449 302.362 219.788C306.121 221.946 310.23 222.997 314.938 222.997C321.125 222.997 327.514 221.257 334.271 219.415C341.22 217.522 348.405 215.562 355.62 215.562C361.704 215.562 367.061 216.943 372.01 219.788C373.317 220.54 374.059 221.99 373.902 223.489C372.432 237.461 370.963 251.432 369.498 265.404V265.395ZM352.617 224.393L351.403 235.903C355.138 235.485 359.576 235.991 362.898 237.352C363.301 233.514 363.704 229.676 364.107 225.843C360.79 224.481 356.352 223.98 352.617 224.393ZM360.48 260.377C360.883 256.539 361.286 252.7 361.689 248.867C358.372 247.501 353.934 247.005 350.199 247.417C349.796 251.26 349.393 255.094 348.985 258.932C352.72 258.514 357.158 259.02 360.48 260.382V260.377ZM338.291 249.914C342.1 248.705 346.292 247.722 350.199 247.412C350.602 243.574 351.005 239.736 351.408 235.903C347.501 236.207 343.314 237.19 339.505 238.404L338.291 249.914ZM340.709 226.889C336.684 228.118 332.694 229.474 328.664 230.703C328.266 234.541 327.858 238.38 327.455 242.213C331.48 240.984 335.475 239.628 339.5 238.399C339.903 234.561 340.306 230.723 340.709 226.889ZM325.037 265.242C329.062 264.014 333.053 262.657 337.082 261.429C337.481 257.59 337.888 253.752 338.291 249.914C334.266 251.143 330.276 252.499 326.246 253.732C325.843 257.571 325.44 261.409 325.037 265.242ZM315.547 244.719C315.144 248.558 314.741 252.396 314.338 256.234C318.245 255.924 322.432 254.941 326.241 253.732C326.644 249.889 327.047 246.056 327.455 242.218C323.646 243.432 319.454 244.415 315.547 244.719ZM305.266 231.755C304.863 235.593 304.46 239.431 304.057 243.27C307.374 244.631 311.812 245.132 315.547 244.719L316.761 233.21C313.026 233.622 308.588 233.121 305.266 231.76V231.755ZM302.848 254.779C302.445 258.617 302.042 262.456 301.639 266.294C304.956 267.655 309.394 268.157 313.129 267.744L314.343 256.234C310.608 256.647 306.17 256.145 302.848 254.784V254.779ZM302.848 254.779C302.445 258.617 302.042 262.456 301.639 266.294C304.956 267.655 309.394 268.157 313.129 267.744L314.343 256.234C310.608 256.647 306.17 256.145 302.848 254.784V254.779ZM305.266 231.755C304.863 235.593 304.46 239.431 304.057 243.27C307.374 244.631 311.812 245.132 315.547 244.719L316.761 233.21C313.026 233.622 308.588 233.121 305.266 231.76V231.755ZM315.547 244.719C315.144 248.558 314.741 252.396 314.338 256.234C318.245 255.924 322.432 254.941 326.241 253.732C326.644 249.889 327.047 246.056 327.455 242.218C323.646 243.432 319.454 244.415 315.547 244.719ZM326.246 253.732C325.843 257.571 325.44 261.409 325.037 265.242C329.062 264.014 333.053 262.657 337.082 261.429C337.481 257.59 337.888 253.752 338.291 249.914C334.266 251.143 330.276 252.499 326.246 253.732ZM328.664 230.703C328.266 234.541 327.858 238.38 327.455 242.213C331.48 240.984 335.475 239.628 339.5 238.399C339.903 234.561 340.306 230.723 340.709 226.889C336.684 228.118 332.694 229.474 328.664 230.703ZM339.5 238.404L338.287 249.914C342.095 248.705 346.287 247.722 350.194 247.412C350.597 243.574 351 239.736 351.403 235.903C347.496 236.207 343.309 237.19 339.5 238.404ZM350.199 247.412C349.796 251.256 349.393 255.089 348.985 258.927C352.72 258.509 357.158 259.016 360.48 260.377C360.883 256.539 361.286 252.7 361.689 248.867C358.372 247.501 353.934 247.005 350.199 247.417V247.412ZM352.617 224.393L351.403 235.903C355.138 235.485 359.576 235.991 362.898 237.352C363.301 233.514 363.704 229.676 364.107 225.843C360.79 224.481 356.352 223.98 352.617 224.393ZM352.617 224.393L351.403 235.903C355.138 235.485 359.576 235.991 362.898 237.352C363.301 233.514 363.704 229.676 364.107 225.843C360.79 224.481 356.352 223.98 352.617 224.393ZM350.199 247.412C349.796 251.256 349.393 255.089 348.985 258.927C352.72 258.509 357.158 259.016 360.48 260.377C360.883 256.539 361.286 252.7 361.689 248.867C358.372 247.501 353.934 247.005 350.199 247.417V247.412ZM315.547 244.719C315.144 248.558 314.741 252.396 314.338 256.234C318.245 255.924 322.432 254.941 326.241 253.732C326.644 249.889 327.047 246.056 327.455 242.218C323.646 243.432 319.454 244.415 315.547 244.719ZM326.246 253.732C325.843 257.571 325.44 261.409 325.037 265.242C329.062 264.014 333.053 262.657 337.082 261.429C337.481 257.59 337.888 253.752 338.291 249.914C334.266 251.143 330.276 252.499 326.246 253.732ZM328.664 230.703C328.266 234.541 327.858 238.38 327.455 242.213C331.48 240.984 335.475 239.628 339.5 238.399C339.903 234.561 340.306 230.723 340.709 226.889C336.684 228.118 332.694 229.474 328.664 230.703ZM339.5 238.404L338.287 249.914C342.095 248.705 346.287 247.722 350.194 247.412C350.597 243.574 351 239.736 351.403 235.903C347.496 236.207 343.309 237.19 339.5 238.404ZM305.266 231.755C304.863 235.593 304.46 239.431 304.057 243.27C307.374 244.631 311.812 245.132 315.547 244.719L316.761 233.21C313.026 233.622 308.588 233.121 305.266 231.76V231.755ZM302.848 254.779C302.445 258.617 302.042 262.456 301.639 266.294C304.956 267.655 309.394 268.157 313.129 267.744L314.343 256.234C310.608 256.647 306.17 256.145 302.848 254.784V254.779Z" fill="black"/>
<path d="M364.108 225.838C363.71 229.677 363.302 233.515 362.899 237.348C359.582 235.987 355.139 235.486 351.404 235.898L352.618 224.389C356.353 223.971 360.79 224.477 364.108 225.838Z" fill="black"/>
<path d="M361.685 248.865C361.287 252.703 360.879 256.541 360.476 260.374C357.159 259.013 352.716 258.512 348.981 258.925C349.384 255.086 349.787 251.248 350.195 247.41C353.93 246.997 358.368 247.498 361.685 248.86V248.865Z" fill="black"/>
<path d="M351.404 235.902C351.001 239.741 350.598 243.579 350.195 247.412C346.283 247.722 342.096 248.705 338.287 249.914L339.501 238.404C343.31 237.19 347.502 236.207 351.404 235.902Z" fill="black"/>
<path d="M340.71 226.887C340.307 230.725 339.904 234.563 339.501 238.396C335.476 239.625 331.481 240.982 327.456 242.21C327.859 238.372 328.262 234.534 328.665 230.7C332.694 229.472 336.685 228.115 340.71 226.887Z" fill="black"/>
<path d="M338.292 249.914C337.889 253.752 337.486 257.59 337.083 261.429C333.053 262.657 329.062 264.014 325.037 265.242C325.44 261.404 325.843 257.566 326.246 253.733C330.276 252.504 334.267 251.148 338.292 249.914Z" fill="black"/>
<path d="M327.456 242.219C327.053 246.057 326.65 249.895 326.242 253.733C322.433 254.942 318.241 255.925 314.339 256.235C314.742 252.392 315.145 248.558 315.548 244.72C319.46 244.416 323.647 243.433 327.456 242.219Z" fill="black"/>
<path d="M316.762 233.203L315.548 244.712C311.813 245.13 307.375 244.624 304.058 243.263C304.461 239.42 304.864 235.586 305.267 231.748C308.584 233.114 313.027 233.611 316.762 233.198V233.203Z" fill="black"/>
<path d="M314.338 256.234L313.124 267.744C309.389 268.161 304.952 267.655 301.634 266.294C302.032 262.451 302.44 258.618 302.843 254.779C306.161 256.146 310.603 256.642 314.338 256.229V256.234Z" fill="black"/>
<path d="M302.849 254.777C302.446 258.615 302.043 262.453 301.64 266.292C304.957 267.653 309.395 268.154 313.13 267.741L314.344 256.232C310.609 256.644 306.171 256.143 302.849 254.782V254.777ZM305.267 231.752C304.864 235.591 304.461 239.429 304.058 243.267C307.375 244.628 311.813 245.13 315.548 244.717L316.762 233.207C313.027 233.62 308.589 233.119 305.267 231.757V231.752ZM339.501 238.402L338.287 249.912C342.096 248.703 346.288 247.72 350.195 247.41C350.598 243.572 351.001 239.734 351.404 235.9C347.497 236.205 343.31 237.188 339.501 238.402ZM328.665 230.701C328.267 234.539 327.859 238.377 327.456 242.21C331.481 240.982 335.476 239.625 339.501 238.397C339.904 234.559 340.307 230.72 340.71 226.887C336.685 228.116 332.695 229.472 328.665 230.701ZM326.247 253.73C325.844 257.568 325.441 261.407 325.038 265.24C329.063 264.011 333.053 262.655 337.083 261.426C337.481 257.588 337.889 253.75 338.292 249.912C334.267 251.14 330.277 252.496 326.247 253.73ZM315.548 244.717C315.145 248.555 314.742 252.393 314.339 256.232C318.246 255.922 322.433 254.939 326.242 253.73C326.645 249.887 327.048 246.054 327.456 242.215C323.647 243.429 319.455 244.412 315.548 244.717ZM350.2 247.41C349.797 251.253 349.394 255.086 348.986 258.925C352.721 258.507 357.159 259.013 360.481 260.374C360.884 256.536 361.287 252.698 361.69 248.865C358.373 247.499 353.935 247.002 350.2 247.415V247.41ZM352.618 224.391L351.404 235.9C355.139 235.483 359.577 235.989 362.899 237.35C363.302 233.512 363.705 229.674 364.108 225.84C360.791 224.479 356.353 223.978 352.618 224.391ZM352.618 224.391L351.404 235.9C355.139 235.483 359.577 235.989 362.899 237.35C363.302 233.512 363.705 229.674 364.108 225.84C360.791 224.479 356.353 223.978 352.618 224.391ZM350.2 247.41C349.797 251.253 349.394 255.086 348.986 258.925C352.721 258.507 357.159 259.013 360.481 260.374C360.884 256.536 361.287 252.698 361.69 248.865C358.373 247.499 353.935 247.002 350.2 247.415V247.41ZM339.501 238.402L338.287 249.912C342.096 248.703 346.288 247.72 350.195 247.41C350.598 243.572 351.001 239.734 351.404 235.9C347.497 236.205 343.31 237.188 339.501 238.402ZM328.665 230.701C328.267 234.539 327.859 238.377 327.456 242.21C331.481 240.982 335.476 239.625 339.501 238.397C339.904 234.559 340.307 230.72 340.71 226.887C336.685 228.116 332.695 229.472 328.665 230.701ZM326.247 253.73C325.844 257.568 325.441 261.407 325.038 265.24C329.063 264.011 333.053 262.655 337.083 261.426C337.481 257.588 337.889 253.75 338.292 249.912C334.267 251.14 330.277 252.496 326.247 253.73ZM315.548 244.717C315.145 248.555 314.742 252.393 314.339 256.232C318.246 255.922 322.433 254.939 326.242 253.73C326.645 249.887 327.048 246.054 327.456 242.215C323.647 243.429 319.455 244.412 315.548 244.717ZM305.267 231.752C304.864 235.591 304.461 239.429 304.058 243.267C307.375 244.628 311.813 245.13 315.548 244.717L316.762 233.207C313.027 233.62 308.589 233.119 305.267 231.757V231.752ZM302.849 254.777C302.446 258.615 302.043 262.453 301.64 266.292C304.957 267.653 309.395 268.154 313.13 267.741L314.344 256.232C310.609 256.644 306.171 256.143 302.849 254.782V254.777ZM302.849 254.777C302.446 258.615 302.043 262.453 301.64 266.292C304.957 267.653 309.395 268.154 313.13 267.741L314.344 256.232C310.609 256.644 306.171 256.143 302.849 254.782V254.777ZM305.267 231.752C304.864 235.591 304.461 239.429 304.058 243.267C307.375 244.628 311.813 245.13 315.548 244.717L316.762 233.207C313.027 233.62 308.589 233.119 305.267 231.757V231.752ZM339.501 238.402L338.287 249.912C342.096 248.703 346.288 247.72 350.195 247.41C350.598 243.572 351.001 239.734 351.404 235.9C347.497 236.205 343.31 237.188 339.501 238.402ZM328.665 230.701C328.267 234.539 327.859 238.377 327.456 242.21C331.481 240.982 335.476 239.625 339.501 238.397C339.904 234.559 340.307 230.72 340.71 226.887C336.685 228.116 332.695 229.472 328.665 230.701ZM326.247 253.73C325.844 257.568 325.441 261.407 325.038 265.24C329.063 264.011 333.053 262.655 337.083 261.426C337.481 257.588 337.889 253.75 338.292 249.912C334.267 251.14 330.277 252.496 326.247 253.73ZM315.548 244.717C315.145 248.555 314.742 252.393 314.339 256.232C318.246 255.922 322.433 254.939 326.242 253.73C326.645 249.887 327.048 246.054 327.456 242.215C323.647 243.429 319.455 244.412 315.548 244.717ZM350.2 247.41C349.797 251.253 349.394 255.086 348.986 258.925C352.721 258.507 357.159 259.013 360.481 260.374C360.884 256.536 361.287 252.698 361.69 248.865C358.373 247.499 353.935 247.002 350.2 247.415V247.41ZM352.618 224.391L351.404 235.9C355.139 235.483 359.577 235.989 362.899 237.35C363.302 233.512 363.705 229.674 364.108 225.84C360.791 224.479 356.353 223.978 352.618 224.391ZM352.618 224.391L351.404 235.9C355.139 235.483 359.577 235.989 362.899 237.35C363.302 233.512 363.705 229.674 364.108 225.84C360.791 224.479 356.353 223.978 352.618 224.391ZM350.2 247.41C349.797 251.253 349.394 255.086 348.986 258.925C352.721 258.507 357.159 259.013 360.481 260.374C360.884 256.536 361.287 252.698 361.69 248.865C358.373 247.499 353.935 247.002 350.2 247.415V247.41ZM339.501 238.402L338.287 249.912C342.096 248.703 346.288 247.72 350.195 247.41C350.598 243.572 351.001 239.734 351.404 235.9C347.497 236.205 343.31 237.188 339.501 238.402ZM328.665 230.701C328.267 234.539 327.859 238.377 327.456 242.21C331.481 240.982 335.476 239.625 339.501 238.397C339.904 234.559 340.307 230.72 340.71 226.887C336.685 228.116 332.695 229.472 328.665 230.701ZM326.247 253.73C325.844 257.568 325.441 261.407 325.038 265.24C329.063 264.011 333.053 262.655 337.083 261.426C337.481 257.588 337.889 253.75 338.292 249.912C334.267 251.14 330.277 252.496 326.247 253.73ZM315.548 244.717C315.145 248.555 314.742 252.393 314.339 256.232C318.246 255.922 322.433 254.939 326.242 253.73C326.645 249.887 327.048 246.054 327.456 242.215C323.647 243.429 319.455 244.412 315.548 244.717ZM305.267 231.752C304.864 235.591 304.461 239.429 304.058 243.267C307.375 244.628 311.813 245.13 315.548 244.717L316.762 233.207C313.027 233.62 308.589 233.119 305.267 231.757V231.752ZM302.849 254.777C302.446 258.615 302.043 262.453 301.64 266.292C304.957 267.653 309.395 268.154 313.13 267.741L314.344 256.232C310.609 256.644 306.171 256.143 302.849 254.782V254.777ZM302.849 254.777C302.446 258.615 302.043 262.453 301.64 266.292C304.957 267.653 309.395 268.154 313.13 267.741L314.344 256.232C310.609 256.644 306.171 256.143 302.849 254.782V254.777ZM305.267 231.752C304.864 235.591 304.461 239.429 304.058 243.267C307.375 244.628 311.813 245.13 315.548 244.717L316.762 233.207C313.027 233.62 308.589 233.119 305.267 231.757V231.752ZM315.548 244.717C315.145 248.555 314.742 252.393 314.339 256.232C318.246 255.922 322.433 254.939 326.242 253.73C326.645 249.887 327.048 246.054 327.456 242.215C323.647 243.429 319.455 244.412 315.548 244.717ZM326.247 253.73C325.844 257.568 325.441 261.407 325.038 265.24C329.063 264.011 333.053 262.655 337.083 261.426C337.481 257.588 337.889 253.75 338.292 249.912C334.267 251.14 330.277 252.496 326.247 253.73ZM328.665 230.701C328.267 234.539 327.859 238.377 327.456 242.21C331.481 240.982 335.476 239.625 339.501 238.397C339.904 234.559 340.307 230.72 340.71 226.887C336.685 228.116 332.695 229.472 328.665 230.701ZM339.501 238.402L338.287 249.912C342.096 248.703 346.288 247.72 350.195 247.41C350.598 243.572 351.001 239.734 351.404 235.9C347.497 236.205 343.31 237.188 339.501 238.402ZM350.2 247.41C349.797 251.253 349.394 255.086 348.986 258.925C352.721 258.507 357.159 259.013 360.481 260.374C360.884 256.536 361.287 252.698 361.69 248.865C358.373 247.499 353.935 247.002 350.2 247.415V247.41ZM352.618 224.391L351.404 235.9C355.139 235.483 359.577 235.989 362.899 237.35C363.302 233.512 363.705 229.674 364.108 225.84C360.791 224.479 356.353 223.978 352.618 224.391ZM362.899 237.35C363.302 233.512 363.705 229.674 364.108 225.84C360.791 224.479 356.353 223.978 352.618 224.391L351.404 235.9C355.139 235.483 359.577 235.989 362.899 237.35ZM360.481 260.374C360.884 256.536 361.287 252.698 361.69 248.865C358.373 247.499 353.935 247.002 350.2 247.415C349.797 251.258 349.394 255.091 348.986 258.93C352.721 258.512 357.159 259.018 360.481 260.379V260.374ZM339.501 238.402L338.287 249.912C342.096 248.703 346.288 247.72 350.195 247.41C350.598 243.572 351.001 239.734 351.404 235.9C347.497 236.205 343.31 237.188 339.501 238.402ZM340.71 226.887C336.685 228.116 332.695 229.472 328.665 230.701C328.267 234.539 327.859 238.377 327.456 242.21C331.481 240.982 335.476 239.625 339.501 238.397C339.904 234.559 340.307 230.72 340.71 226.887ZM325.038 265.24C329.063 264.011 333.053 262.655 337.083 261.426C337.481 257.588 337.889 253.75 338.292 249.912C334.267 251.14 330.277 252.496 326.247 253.73C325.844 257.568 325.441 261.407 325.038 265.24ZM315.548 244.717C315.145 248.555 314.742 252.393 314.339 256.232C318.246 255.922 322.433 254.939 326.242 253.73C326.645 249.887 327.048 246.054 327.456 242.215C323.647 243.429 319.455 244.412 315.548 244.717ZM305.267 231.752C304.864 235.591 304.461 239.429 304.058 243.267C307.375 244.628 311.813 245.13 315.548 244.717L316.762 233.207C313.027 233.62 308.589 233.119 305.267 231.757V231.752ZM302.849 254.777C302.446 258.615 302.043 262.453 301.64 266.292C304.957 267.653 309.395 268.154 313.13 267.741L314.344 256.232C310.609 256.644 306.171 256.143 302.849 254.782V254.777ZM300.46 223.078C300.19 225.654 299.92 228.229 299.649 230.804C299.463 232.598 299.271 234.396 299.079 236.195C298.789 238.967 298.499 241.739 298.205 244.515C298.008 246.363 297.816 248.211 297.62 250.064C297.33 252.806 297.045 255.553 296.755 258.296C296.558 260.129 296.372 261.967 296.175 263.8C295.993 265.549 295.806 267.304 295.625 269.053C297.62 270.518 299.846 271.653 302.23 272.42C304.289 273.083 306.466 273.472 308.707 273.55C308.564 274.907 308.422 276.263 308.279 277.619C307.921 281.006 307.567 284.397 307.208 287.788C314.019 282.755 319.976 276.573 325.868 270.523C340.15 265.947 352.466 261.583 365.273 269.053C366.885 253.725 368.497 238.407 370.104 223.083C347.694 210.202 322.851 235.949 300.451 223.083L300.46 223.078ZM362.098 263.073C351.547 259.156 342.032 261.657 330.94 265.205C328.493 266.002 327.269 266.414 324.831 267.147C322.807 269.225 321.799 270.253 319.789 272.223C316.609 275.344 315.027 276.838 311.891 279.487C312.142 277.074 312.27 275.865 312.525 273.457C312.688 271.933 312.766 271.172 312.924 269.648C311.39 269.776 310.624 269.8 309.105 269.742C305.227 269.579 303.311 269.221 299.61 267.407C300.952 254.625 302.298 241.842 303.64 229.059C324.463 236.564 345.3 217.225 366.123 224.73C364.776 237.512 363.435 250.295 362.093 263.077L362.098 263.073ZM352.618 224.391L351.404 235.9C355.139 235.483 359.577 235.989 362.899 237.35C363.302 233.512 363.705 229.674 364.108 225.84C360.791 224.479 356.353 223.978 352.618 224.391ZM360.481 260.374C360.884 256.536 361.287 252.698 361.69 248.865C358.373 247.499 353.935 247.002 350.2 247.415C349.797 251.258 349.394 255.091 348.986 258.93C352.721 258.512 357.159 259.018 360.481 260.379V260.374ZM338.292 249.912C342.101 248.703 346.293 247.72 350.2 247.41C350.603 243.572 351.006 239.734 351.409 235.9C347.502 236.205 343.315 237.188 339.506 238.402L338.292 249.912ZM340.71 226.887C336.685 228.116 332.695 229.472 328.665 230.701C328.267 234.539 327.859 238.377 327.456 242.21C331.481 240.982 335.476 239.625 339.501 238.397C339.904 234.559 340.307 230.72 340.71 226.887ZM325.038 265.24C329.063 264.011 333.053 262.655 337.083 261.426C337.481 257.588 337.889 253.75 338.292 249.912C334.267 251.14 330.277 252.496 326.247 253.73C325.844 257.568 325.441 261.407 325.038 265.24ZM315.548 244.717C315.145 248.555 314.742 252.393 314.339 256.232C318.246 255.922 322.433 254.939 326.242 253.73C326.645 249.887 327.048 246.054 327.456 242.215C323.647 243.429 319.455 244.412 315.548 244.717ZM305.267 231.752C304.864 235.591 304.461 239.429 304.058 243.267C307.375 244.628 311.813 245.13 315.548 244.717L316.762 233.207C313.027 233.62 308.589 233.119 305.267 231.757V231.752ZM302.849 254.777C302.446 258.615 302.043 262.453 301.64 266.292C304.957 267.653 309.395 268.154 313.13 267.741L314.344 256.232C310.609 256.644 306.171 256.143 302.849 254.782V254.777ZM302.849 254.777C302.446 258.615 302.043 262.453 301.64 266.292C304.957 267.653 309.395 268.154 313.13 267.741L314.344 256.232C310.609 256.644 306.171 256.143 302.849 254.782V254.777ZM305.267 231.752C304.864 235.591 304.461 239.429 304.058 243.267C307.375 244.628 311.813 245.13 315.548 244.717L316.762 233.207C313.027 233.62 308.589 233.119 305.267 231.757V231.752ZM315.548 244.717C315.145 248.555 314.742 252.393 314.339 256.232C318.246 255.922 322.433 254.939 326.242 253.73C326.645 249.887 327.048 246.054 327.456 242.215C323.647 243.429 319.455 244.412 315.548 244.717ZM326.247 253.73C325.844 257.568 325.441 261.407 325.038 265.24C329.063 264.011 333.053 262.655 337.083 261.426C337.481 257.588 337.889 253.75 338.292 249.912C334.267 251.14 330.277 252.496 326.247 253.73ZM328.665 230.701C328.267 234.539 327.859 238.377 327.456 242.21C331.481 240.982 335.476 239.625 339.501 238.397C339.904 234.559 340.307 230.72 340.71 226.887C336.685 228.116 332.695 229.472 328.665 230.701ZM339.501 238.402L338.287 249.912C342.096 248.703 346.288 247.72 350.195 247.41C350.598 243.572 351.001 239.734 351.404 235.9C347.497 236.205 343.31 237.188 339.501 238.402ZM350.2 247.41C349.797 251.253 349.394 255.086 348.986 258.925C352.721 258.507 357.159 259.013 360.481 260.374C360.884 256.536 361.287 252.698 361.69 248.865C358.373 247.499 353.935 247.002 350.2 247.415V247.41ZM352.618 224.391L351.404 235.9C355.139 235.483 359.577 235.989 362.899 237.35C363.302 233.512 363.705 229.674 364.108 225.84C360.791 224.479 356.353 223.978 352.618 224.391ZM352.618 224.391L351.404 235.9C355.139 235.483 359.577 235.989 362.899 237.35C363.302 233.512 363.705 229.674 364.108 225.84C360.791 224.479 356.353 223.978 352.618 224.391ZM350.2 247.41C349.797 251.253 349.394 255.086 348.986 258.925C352.721 258.507 357.159 259.013 360.481 260.374C360.884 256.536 361.287 252.698 361.69 248.865C358.373 247.499 353.935 247.002 350.2 247.415V247.41ZM339.501 238.402L338.287 249.912C342.096 248.703 346.288 247.72 350.195 247.41C350.598 243.572 351.001 239.734 351.404 235.9C347.497 236.205 343.31 237.188 339.501 238.402ZM328.665 230.701C328.267 234.539 327.859 238.377 327.456 242.21C331.481 240.982 335.476 239.625 339.501 238.397C339.904 234.559 340.307 230.72 340.71 226.887C336.685 228.116 332.695 229.472 328.665 230.701ZM326.247 253.73C325.844 257.568 325.441 261.407 325.038 265.24C329.063 264.011 333.053 262.655 337.083 261.426C337.481 257.588 337.889 253.75 338.292 249.912C334.267 251.14 330.277 252.496 326.247 253.73ZM315.548 244.717C315.145 248.555 314.742 252.393 314.339 256.232C318.246 255.922 322.433 254.939 326.242 253.73C326.645 249.887 327.048 246.054 327.456 242.215C323.647 243.429 319.455 244.412 315.548 244.717ZM305.267 231.752C304.864 235.591 304.461 239.429 304.058 243.267C307.375 244.628 311.813 245.13 315.548 244.717L316.762 233.207C313.027 233.62 308.589 233.119 305.267 231.757V231.752ZM302.849 254.777C302.446 258.615 302.043 262.453 301.64 266.292C304.957 267.653 309.395 268.154 313.13 267.741L314.344 256.232C310.609 256.644 306.171 256.143 302.849 254.782V254.777ZM302.849 254.777C302.446 258.615 302.043 262.453 301.64 266.292C304.957 267.653 309.395 268.154 313.13 267.741L314.344 256.232C310.609 256.644 306.171 256.143 302.849 254.782V254.777ZM305.267 231.752C304.864 235.591 304.461 239.429 304.058 243.267C307.375 244.628 311.813 245.13 315.548 244.717L316.762 233.207C313.027 233.62 308.589 233.119 305.267 231.757V231.752ZM339.501 238.402L338.287 249.912C342.096 248.703 346.288 247.72 350.195 247.41C350.598 243.572 351.001 239.734 351.404 235.9C347.497 236.205 343.31 237.188 339.501 238.402ZM328.665 230.701C328.267 234.539 327.859 238.377 327.456 242.21C331.481 240.982 335.476 239.625 339.501 238.397C339.904 234.559 340.307 230.72 340.71 226.887C336.685 228.116 332.695 229.472 328.665 230.701ZM326.247 253.73C325.844 257.568 325.441 261.407 325.038 265.24C329.063 264.011 333.053 262.655 337.083 261.426C337.481 257.588 337.889 253.75 338.292 249.912C334.267 251.14 330.277 252.496 326.247 253.73ZM315.548 244.717C315.145 248.555 314.742 252.393 314.339 256.232C318.246 255.922 322.433 254.939 326.242 253.73C326.645 249.887 327.048 246.054 327.456 242.215C323.647 243.429 319.455 244.412 315.548 244.717ZM350.2 247.41C349.797 251.253 349.394 255.086 348.986 258.925C352.721 258.507 357.159 259.013 360.481 260.374C360.884 256.536 361.287 252.698 361.69 248.865C358.373 247.499 353.935 247.002 350.2 247.415V247.41ZM352.618 224.391L351.404 235.9C355.139 235.483 359.577 235.989 362.899 237.35C363.302 233.512 363.705 229.674 364.108 225.84C360.791 224.479 356.353 223.978 352.618 224.391ZM352.618 224.391L351.404 235.9C355.139 235.483 359.577 235.989 362.899 237.35C363.302 233.512 363.705 229.674 364.108 225.84C360.791 224.479 356.353 223.978 352.618 224.391ZM350.2 247.41C349.797 251.253 349.394 255.086 348.986 258.925C352.721 258.507 357.159 259.013 360.481 260.374C360.884 256.536 361.287 252.698 361.69 248.865C358.373 247.499 353.935 247.002 350.2 247.415V247.41ZM339.501 238.402L338.287 249.912C342.096 248.703 346.288 247.72 350.195 247.41C350.598 243.572 351.001 239.734 351.404 235.9C347.497 236.205 343.31 237.188 339.501 238.402ZM328.665 230.701C328.267 234.539 327.859 238.377 327.456 242.21C331.481 240.982 335.476 239.625 339.501 238.397C339.904 234.559 340.307 230.72 340.71 226.887C336.685 228.116 332.695 229.472 328.665 230.701ZM326.247 253.73C325.844 257.568 325.441 261.407 325.038 265.24C329.063 264.011 333.053 262.655 337.083 261.426C337.481 257.588 337.889 253.75 338.292 249.912C334.267 251.14 330.277 252.496 326.247 253.73ZM315.548 244.717C315.145 248.555 314.742 252.393 314.339 256.232C318.246 255.922 322.433 254.939 326.242 253.73C326.645 249.887 327.048 246.054 327.456 242.215C323.647 243.429 319.455 244.412 315.548 244.717ZM305.267 231.752C304.864 235.591 304.461 239.429 304.058 243.267C307.375 244.628 311.813 245.13 315.548 244.717L316.762 233.207C313.027 233.62 308.589 233.119 305.267 231.757V231.752ZM302.849 254.777C302.446 258.615 302.043 262.453 301.64 266.292C304.957 267.653 309.395 268.154 313.13 267.741L314.344 256.232C310.609 256.644 306.171 256.143 302.849 254.782V254.777Z" fill="black"/>
<path d="M300.46 223.078C300.19 225.654 299.92 228.229 299.649 230.804C299.463 232.598 299.271 234.396 299.079 236.195C298.789 238.967 298.499 241.739 298.205 244.515C298.008 246.363 297.816 248.211 297.62 250.064C297.33 252.806 297.045 255.553 296.755 258.296C296.558 260.129 296.372 261.967 296.175 263.8C295.993 265.549 295.806 267.304 295.625 269.053C297.62 270.518 299.846 271.653 302.23 272.42C304.289 273.083 306.466 273.472 308.707 273.55C308.564 274.907 308.422 276.263 308.279 277.619C307.921 281.006 307.567 284.397 307.208 287.788C314.019 282.755 319.976 276.573 325.868 270.523C340.15 265.947 352.466 261.583 365.273 269.053C366.885 253.725 368.497 238.407 370.104 223.083C347.694 210.202 322.851 235.949 300.451 223.083L300.46 223.078ZM362.098 263.073C351.547 259.156 342.032 261.657 330.94 265.205C328.493 266.002 327.269 266.414 324.831 267.147C322.807 269.225 321.799 270.253 319.789 272.223C316.609 275.344 315.027 276.838 311.891 279.487C312.142 277.074 312.27 275.865 312.525 273.457C312.688 271.933 312.766 271.172 312.924 269.648C311.39 269.776 310.624 269.8 309.105 269.742C305.227 269.579 303.311 269.221 299.61 267.407C300.952 254.625 302.298 241.842 303.64 229.059C324.463 236.564 345.3 217.225 366.123 224.73C364.776 237.512 363.435 250.295 362.093 263.077L362.098 263.073Z" fill="black"/>
<path d="M503.128 275.293C497.427 274.644 492.075 272.566 487.514 269.214L486.379 268.378L493.151 203.935L496.424 205.817C501.653 208.82 507.359 210.279 513.871 210.279C522.181 210.279 530.963 207.886 539.455 205.576C548.262 203.178 557.364 200.696 566.338 200.696C573.739 200.696 580.251 202.372 586.251 205.817L587.637 206.613L585.494 226.979C588.959 225.996 592.503 224.856 596.198 223.666L597.447 223.268L597.741 222.964C605.103 215.4 612.716 207.576 621.385 201.178L625.872 197.865L623.621 219.258C629.327 219.912 634.679 221.99 639.235 225.332L640.37 226.168L640.222 227.568C638.148 247.335 636.07 267.096 633.991 286.857L633.598 290.612L630.325 288.729C625.1 285.727 619.395 284.267 612.883 284.267C604.573 284.267 595.79 286.66 587.303 288.975C578.496 291.373 569.395 293.855 560.416 293.855C553.015 293.855 546.498 292.179 540.497 288.729L539.111 287.933L541.254 267.568C537.809 268.546 534.281 269.681 530.6 270.865L529.307 271.278L529.13 271.46C521.729 279.067 514.077 286.936 505.359 293.374L500.872 296.686L503.123 275.293H503.128Z" fill="#FAFAFA"/>
<path d="M551.035 268.193C550.514 273.142 549.993 278.091 549.472 283.04C553.753 284.799 559.478 285.443 564.294 284.912C564.815 279.964 565.336 275.015 565.857 270.066C561.041 270.597 555.316 269.953 551.035 268.198V268.193Z" fill="black"/>
<path d="M579.651 281.69C584.841 280.103 589.996 278.353 595.186 276.771C595.707 271.822 596.228 266.873 596.749 261.924C591.559 263.506 586.404 265.261 581.214 266.843C580.693 271.792 580.172 276.741 579.651 281.69Z" fill="black"/>
<path d="M584.331 237.144C583.81 242.093 583.289 247.042 582.769 251.991C587.958 250.403 593.114 248.654 598.303 247.071C598.824 242.122 599.345 237.174 599.866 232.225C594.676 233.812 589.521 235.562 584.331 237.144Z" fill="black"/>
<path d="M596.745 261.92C601.66 260.357 607.061 259.089 612.103 258.696C612.624 253.747 613.145 248.799 613.666 243.85C608.628 244.243 603.222 245.511 598.308 247.074C597.787 252.022 597.266 256.971 596.745 261.92Z" fill="black"/>
<path d="M625.362 275.419C625.883 270.47 626.404 265.521 626.924 260.572C622.644 258.813 616.919 258.169 612.102 258.705C611.581 263.654 611.06 268.603 610.54 273.551C615.356 273.021 621.081 273.664 625.362 275.419Z" fill="black"/>
<path d="M615.222 228.999C614.702 233.948 614.181 238.897 613.66 243.851C618.476 243.32 624.201 243.964 628.482 245.723C629.003 240.774 629.524 235.825 630.045 230.871C625.764 229.112 620.039 228.468 615.222 228.999Z" fill="black"/>
<path d="M620.918 221.515C621.562 215.396 622.206 209.278 622.85 203.154C614.062 209.641 606.381 217.618 598.783 225.422C593.215 227.206 587.873 228.965 582.678 230.287C583.46 222.842 584.246 215.396 585.028 207.951C556.125 191.345 524.088 224.547 495.2 207.951C493.122 227.712 491.048 247.478 488.969 267.239C493.765 270.763 499.604 272.807 505.835 273.038C505.192 279.157 504.548 285.28 503.904 291.399C512.691 284.912 520.377 276.941 527.975 269.131C533.543 267.347 538.88 265.588 544.075 264.266C543.294 271.712 542.507 279.157 541.726 286.602C570.633 303.213 602.671 270.006 631.553 286.602C633.632 266.841 635.711 247.08 637.785 227.314C632.988 223.79 627.15 221.751 620.918 221.515ZM534.511 262.29C531.356 263.318 529.779 263.843 526.633 264.787C524.024 267.47 522.722 268.792 520.127 271.338C516.028 275.358 513.984 277.285 509.944 280.7C510.273 277.589 510.435 276.036 510.765 272.925C510.971 270.96 511.074 269.977 511.281 268.011C509.295 268.173 508.307 268.203 506.351 268.124C501.348 267.922 498.886 267.451 494.104 265.116C495.839 248.628 497.574 232.14 499.304 215.657C526.162 225.333 553.034 200.397 579.892 210.074C579.145 217.19 578.393 224.306 577.646 231.422C577.469 233.093 577.297 234.759 577.12 236.425C576.501 242.288 575.887 248.151 575.272 254.014C575.081 255.852 574.884 257.695 574.692 259.533C572.147 258.59 569.65 257.936 567.173 257.528C561.286 256.545 555.536 256.953 549.633 258.138C547.967 258.467 546.291 258.86 544.596 259.302C541.323 260.153 537.976 261.18 534.511 262.29ZM627.449 278.901C600.592 269.22 573.724 294.156 546.866 284.479C547.613 277.363 548.36 270.247 549.107 263.131C555.059 261.981 560.853 261.607 566.633 262.669C566.372 265.136 566.112 267.598 565.856 270.065C570.893 269.672 576.294 268.404 581.209 266.841L582.772 251.995C581.966 252.25 581.15 252.501 580.319 252.737C580.934 246.908 581.543 241.084 582.157 235.256C585.431 234.406 588.777 233.378 592.242 232.268C595.397 231.241 596.98 230.71 600.125 229.771C602.73 227.083 604.032 225.761 606.627 223.22C610.73 219.195 612.77 217.274 616.81 213.858C616.485 216.969 616.318 218.522 615.994 221.633C615.787 223.599 615.684 224.581 615.478 226.547C617.458 226.385 618.446 226.351 620.402 226.429C625.405 226.636 627.867 227.103 632.649 229.442C630.914 245.925 629.184 262.413 627.449 278.901Z" fill="black"/>
<path d="M557.782 254.188C560.848 253.849 564.279 253.987 567.478 254.591C568.142 254.714 568.79 254.857 569.424 255.019C570.54 255.304 571.606 255.653 572.594 256.061C572.648 255.545 572.702 255.033 572.756 254.517C573.223 250.08 573.69 245.642 574.157 241.209C569.876 239.45 564.151 238.806 559.335 239.341C559.315 239.553 559.291 239.759 559.271 239.97C558.77 244.708 558.278 249.451 557.777 254.188H557.782Z" fill="black"/>
<path d="M553.993 240.047C555.113 239.84 556.229 239.673 557.335 239.54C558.008 239.457 558.676 239.393 559.34 239.339C559.419 238.567 559.502 237.796 559.581 237.029L560.126 231.884C560.382 229.416 560.642 226.954 560.903 224.487C565.719 223.956 571.444 224.6 575.725 226.355C576.246 221.406 576.767 216.457 577.288 211.508C573.007 209.749 567.282 209.105 562.466 209.636C561.945 214.585 561.424 219.533 560.903 224.482C555.865 224.88 550.459 226.148 545.55 227.706C546.071 222.757 546.592 217.808 547.113 212.86C541.923 214.447 536.768 216.196 531.578 217.779C531.057 222.728 530.536 227.677 530.015 232.626C535.205 231.043 540.355 229.289 545.55 227.706C545.029 232.655 544.513 237.604 543.992 242.558C544.798 242.302 545.614 242.057 546.439 241.821C548.096 241.344 549.786 240.907 551.487 240.538C552.322 240.356 553.162 240.189 553.998 240.042L553.993 240.047Z" fill="black"/>
<path d="M542.424 257.409C542.945 252.46 543.466 247.511 543.987 242.562C538.797 244.15 533.642 245.899 528.452 247.482C527.932 252.431 527.411 257.38 526.89 262.329C532.079 260.741 537.235 258.992 542.424 257.409Z" fill="black"/>
<path d="M513.1 250.701C518.137 250.308 523.543 249.04 528.457 247.478C528.978 242.529 529.499 237.58 530.02 232.631C525.106 234.194 519.705 235.462 514.662 235.855C514.141 240.804 513.621 245.753 513.1 250.701Z" fill="black"/>
<path d="M501.399 219.137L499.836 233.983C504.117 235.743 509.842 236.387 514.659 235.851C515.179 230.902 515.7 225.953 516.221 221.004C511.405 221.535 505.68 220.891 501.399 219.137Z" fill="black"/>
<path d="M498.277 248.834C497.756 253.783 497.235 258.732 496.714 263.686C500.995 265.445 506.72 266.089 511.536 265.558C512.057 260.609 512.578 255.66 513.099 250.706C508.283 251.237 502.558 250.593 498.277 248.834Z" fill="black"/>
<path d="M52.5336 497.455C46.705 496.841 41.0779 494.771 36.129 491.4L35.0576 490.668V425.954L38.6845 427.92C44.2625 430.942 50.155 432.411 56.6863 432.411C64.9869 432.411 73.1253 430.126 81.7453 427.713C86.1143 426.489 90.6111 425.226 95.1226 424.298V398.919L96.4102 398.221C102.725 394.801 109.38 393.135 116.756 393.135C125.735 393.135 134.586 395.617 143.142 398.02C151.762 400.438 159.906 402.723 168.216 402.723C174.757 402.723 180.655 401.254 186.242 398.226L189.869 396.26V460.974L188.798 461.707C183.854 465.078 178.222 467.152 172.393 467.761V489.002L168.383 485.739C160.225 479.099 153.389 471.285 146.794 463.692L146.518 463.599C140.818 461.707 135.387 459.908 129.799 458.444V493.523L126.158 491.523C120.162 488.23 114.073 486.628 107.537 486.628C98.4202 486.628 89.1073 489.729 79.2488 493.012L78.1283 493.386L77.9759 493.558C71.3807 501.155 64.5643 509.009 56.5192 515.447L52.5287 518.641V497.455H52.5336Z" fill="#FAFAFA"/>
<path d="M104.952 461.474V446.627C99.9538 447.02 94.6805 448.288 89.9331 449.851V464.698C94.6805 463.135 99.9538 461.867 104.952 461.474V476.32C109.709 475.79 115.503 476.433 119.971 478.188V463.341C115.508 461.587 109.714 460.938 104.957 461.474H104.952Z" fill="black"/>
<path d="M89.9333 434.998C84.9106 436.585 79.9421 438.335 74.9146 439.917C74.9146 444.866 74.9146 449.815 74.9146 454.764C79.9372 453.177 84.9057 451.427 89.9333 449.845C89.9333 444.896 89.9333 439.947 89.9333 434.998Z" fill="black"/>
<path d="M74.9146 484.463C79.9372 482.881 84.9057 481.126 89.9333 479.544V464.697C84.9106 466.285 79.9421 468.034 74.9146 469.617V484.463Z" fill="black"/>
<path d="M59.895 457.99V472.836C64.8931 472.443 70.1614 471.175 74.9137 469.612V454.766C70.1614 456.328 64.8931 457.591 59.895 457.99Z" fill="black"/>
<path d="M44.8813 441.27V456.116C49.3437 457.876 55.1379 458.519 59.9001 457.989V443.142C55.1428 443.673 49.3486 443.029 44.8813 441.27Z" fill="black"/>
<path d="M44.8813 470.969V485.815C49.3437 487.575 55.1379 488.219 59.9001 487.688V472.841C55.1428 473.372 49.3486 472.728 44.8813 470.969Z" fill="black"/>
<path d="M104.947 403.944V418.79C109.41 417.031 115.204 416.387 119.966 416.918V402.071C115.209 401.54 109.41 402.184 104.947 403.939V403.944Z" fill="black"/>
<path d="M112.461 446.689C115.101 446.998 117.7 447.603 119.966 448.492V433.646C117.7 432.751 115.101 432.147 112.461 431.837C109.896 431.537 107.296 431.513 104.952 431.773V446.625C107.296 446.359 109.896 446.384 112.461 446.689Z" fill="black"/>
<path d="M134.979 405.299C134.979 410.248 134.979 415.197 134.979 420.146C140.002 421.733 144.971 423.482 149.998 425.065V410.218C144.976 408.631 140.007 406.881 134.979 405.299Z" fill="black"/>
<path d="M134.984 449.845C140.007 451.432 144.976 453.182 150.003 454.764V439.917C144.98 438.33 140.012 436.581 134.984 434.998V449.845Z" fill="black"/>
<path d="M149.998 439.919C154.75 441.482 160.019 442.745 165.017 443.143V428.296C160.019 427.903 154.75 426.635 149.998 425.072V439.919Z" fill="black"/>
<path d="M165.017 428.289C169.774 428.82 175.569 428.176 180.036 426.417V411.57C175.573 413.33 169.779 413.974 165.017 413.443V428.289Z" fill="black"/>
<path d="M180.03 456.12V441.273C175.568 443.033 169.773 443.677 165.011 443.146V457.993C169.768 458.523 175.563 457.88 180.03 456.12Z" fill="black"/>
<path d="M97.5801 400.388V426.331C77.6518 429.953 58.0528 441.212 37.5151 430.086V489.374C42.6852 492.898 48.7349 494.942 54.9911 495.173V513.534C63.0951 507.047 69.941 499.076 76.7181 491.271C94.5135 485.364 109.807 479.742 127.342 489.374V455.302C134.424 456.973 141.25 459.268 148.204 461.573C155.001 469.402 161.857 477.265 169.931 483.836V465.475C176.183 465.244 182.237 463.2 187.407 459.676V400.388C156.756 416.994 128.207 383.791 97.5801 400.388ZM122.428 481.673C105.606 475.776 91.1372 481.644 74.9194 486.922C72.5948 489.605 71.4301 490.927 69.1055 493.473C65.4246 497.493 63.5816 499.42 59.9056 502.835V490.146C53.9345 490.677 47.8847 489.792 42.4296 487.251V437.792C61.7534 444.5 79.3277 434.578 97.5801 431.084C99.2117 430.769 100.848 430.509 102.495 430.317C108.992 429.55 115.602 429.845 122.428 432.214V481.673ZM182.493 457.553C177.038 460.094 170.988 460.978 165.017 460.448V473.137C161.336 469.721 159.498 467.795 155.817 463.775C153.492 461.229 152.328 459.907 150.003 457.224C142.523 454.855 135.058 451.887 127.342 450.216V432.882C129.721 433.393 131.869 434.037 134.984 435V420.154C130.237 418.591 124.969 417.328 119.971 416.93V426.99C114.088 425.201 108.274 424.985 102.495 425.609V402.511C130.37 392.834 154.618 417.77 182.493 408.093V457.553Z" fill="black"/>
<path d="M414.922 402.173C409.973 399.239 404.842 397.514 399.259 396.9C398.763 396.841 398.261 396.797 397.76 396.758C396.699 396.679 395.598 396.635 394.497 396.635C393.499 396.635 392.472 396.669 391.46 396.733C390.895 396.763 390.285 396.812 389.558 396.885C387.553 397.077 385.489 397.387 383.257 397.824C382.284 398.016 381.419 398.198 380.623 398.384C376.284 399.367 371.92 400.675 367.703 401.938C361.953 403.658 356.011 405.437 350.242 406.356C348.625 406.611 347.146 406.788 345.701 406.891C345.209 406.931 344.718 406.96 344.231 406.98C343.597 407.009 342.968 407.019 342.359 407.019C341.582 407.019 340.806 406.995 340.044 406.95C339.626 406.926 339.194 406.891 338.781 406.852C337.454 406.729 336.118 406.528 334.81 406.247C331.183 405.481 327.787 404.149 324.431 402.168L320.725 399.982V465.394L321.915 466.111C327.822 469.674 332.938 471.546 338.329 472.126V473.124H324.111C323.674 473.124 323.246 473.124 322.829 473.134H322.77C322.598 473.134 322.431 473.144 322.264 473.144H322.224H322.141H322.057C311.751 473.33 303.023 474.982 296.806 477.916C286.938 482.565 284.869 489.298 284.869 494.129C284.869 498.96 286.938 505.697 296.806 510.346C303.451 513.482 312.897 515.138 324.121 515.138H358.577C369.802 515.138 379.247 513.482 385.896 510.346C395.76 505.697 397.829 498.96 397.829 494.129C397.829 489.298 395.76 482.565 385.896 477.916C379.68 474.982 370.947 473.335 360.597 473.149H360.513L360.43 473.144C360.262 473.144 360.09 473.144 359.923 473.139C359.923 473.139 359.722 473.139 359.653 473.139C359.766 473.011 360.71 471.949 360.71 471.949C361.845 470.652 362.98 469.35 364.106 468.042C364.848 467.797 365.59 467.551 366.327 467.305C374.608 464.553 382.432 461.958 390.182 461.255C391.533 461.133 392.86 461.074 394.133 461.074C394.625 461.074 395.116 461.084 395.588 461.098L395.863 461.108C397.48 461.182 399.077 461.359 400.591 461.629L401.19 461.742C402.625 462.027 404.051 462.41 405.427 462.877C407.791 463.673 410.145 464.769 412.425 466.121L416.14 468.332V402.891L414.936 402.178L414.922 402.173Z" fill="#FAFAFA"/>
<path d="M406.244 407.869V422.824C401.196 421.266 396.424 420.544 391.117 420.942V405.987C392.625 405.874 394.085 405.85 395.525 405.914C395.84 405.928 396.149 405.943 396.459 405.968C398.361 406.095 400.223 406.371 402.096 406.774C402.351 406.828 402.612 406.887 402.872 406.95C403.988 407.211 405.108 407.521 406.244 407.869Z" fill="black"/>
<path d="M406.244 437.783V452.738C404.887 452.316 403.55 451.962 402.223 451.667C400.292 451.239 398.366 450.954 396.405 450.826C394.685 450.713 392.935 450.718 391.117 450.856V435.901C396.424 435.503 401.196 436.221 406.244 437.783Z" fill="black"/>
<path d="M391.121 435.898C391.121 430.915 391.121 425.927 391.121 420.943C385.951 421.341 380.944 422.732 375.995 424.192C375.995 429.175 375.995 434.163 375.995 439.147C380.944 437.687 385.951 436.296 391.121 435.898Z" fill="black"/>
<path d="M375.994 409.236C370.942 410.853 365.924 412.578 360.867 414.19C360.867 419.173 360.867 424.162 360.867 429.145C365.919 427.528 370.937 425.803 375.994 424.191C375.994 419.208 375.994 414.22 375.994 409.236Z" fill="black"/>
<path d="M360.867 459.056C365.919 457.439 370.937 455.714 375.994 454.097C375.994 449.114 375.994 444.126 375.994 439.143C370.942 440.759 365.924 442.484 360.867 444.101C360.867 449.085 360.867 454.073 360.867 459.056Z" fill="black"/>
<path d="M360.868 429.145C355.885 430.614 350.931 431.902 345.741 432.393C345.741 437.376 345.741 442.364 345.741 447.348C350.931 446.856 355.885 445.569 360.868 444.099C360.868 439.116 360.868 434.128 360.868 429.145Z" fill="black"/>
<path d="M345.741 417.438V432.393C345.068 432.457 344.395 432.506 343.726 432.521C343.726 432.521 343.726 432.521 343.721 432.521C343.495 432.53 343.269 432.535 343.043 432.535C343.009 432.535 342.969 432.535 342.935 432.535C341.126 432.55 339.342 432.412 337.573 432.142C337.495 432.132 337.416 432.118 337.337 432.108C335.593 431.833 333.863 431.439 332.128 430.953C331.627 430.81 331.12 430.658 330.614 430.506V415.551C331.302 415.762 331.985 415.964 332.669 416.145C334.167 416.548 335.666 416.883 337.175 417.123C337.485 417.177 337.794 417.222 338.104 417.266C339.618 417.472 341.136 417.585 342.684 417.585C343.004 417.585 343.328 417.58 343.652 417.571C344.345 417.551 345.043 417.507 345.741 417.438Z" fill="black"/>
<path d="M345.741 447.345C340.522 447.861 335.588 447.001 330.614 445.463C330.614 450.446 330.614 455.434 330.614 460.418C335.588 461.956 340.517 462.821 345.741 462.3C345.741 457.317 345.741 452.328 345.741 447.345Z" fill="black"/>
<path d="M398.969 399.338C398.507 399.283 398.04 399.244 397.579 399.205C395.583 399.052 393.588 399.057 391.598 399.185C390.998 399.215 390.403 399.269 389.804 399.328C387.784 399.519 385.759 399.834 383.739 400.232C382.889 400.399 382.034 400.576 381.179 400.773C370.991 403.087 360.828 407.152 350.635 408.773C349.058 409.024 347.485 409.216 345.912 409.334C345.391 409.378 344.866 409.407 344.35 409.427C342.875 409.491 341.401 409.486 339.927 409.397C339.479 409.373 339.022 409.334 338.57 409.294C337.15 409.162 335.734 408.95 334.314 408.65C330.614 407.869 326.913 406.473 323.193 404.281V464.002C328.328 467.099 333.489 469.276 339.45 469.757C339.612 469.772 339.769 469.787 339.936 469.792C340.216 469.811 340.502 469.826 340.791 469.841V475.576H324.117C323.689 475.576 323.271 475.576 322.858 475.586C322.662 475.586 322.46 475.596 322.269 475.596C322.215 475.596 322.156 475.596 322.102 475.596C312.125 475.778 303.775 477.34 297.854 480.132C289.15 484.231 287.327 490.005 287.327 494.123C287.327 498.242 289.155 504.016 297.854 508.12C304.174 511.098 313.256 512.676 324.122 512.676H358.577C369.448 512.676 378.53 511.098 384.85 508.12C393.549 504.021 395.377 498.247 395.377 494.123C395.377 490 393.549 484.231 384.85 480.132C378.928 477.34 370.573 475.778 360.597 475.596C360.543 475.596 360.484 475.596 360.43 475.596C360.238 475.596 360.037 475.596 359.84 475.586C359.427 475.586 359.01 475.576 358.582 475.576H354.125C354.252 475.439 354.38 475.301 354.503 475.163C355.348 474.244 356.189 473.315 357.014 472.387C357.633 471.699 358.243 471.006 358.857 470.313C360.14 468.848 361.418 467.379 362.686 465.904C372.013 462.833 381.002 459.604 389.956 458.788C391.868 458.616 393.77 458.552 395.686 458.626C395.78 458.626 395.868 458.626 395.962 458.636C397.652 458.71 399.348 458.891 401.043 459.196C401.25 459.235 401.456 459.275 401.662 459.314C403.171 459.614 404.685 460.017 406.208 460.528C408.685 461.363 411.172 462.499 413.673 463.988V404.267C408.759 401.357 403.859 399.858 398.974 399.318L398.969 399.338ZM384.658 488.772C384.658 488.108 384.604 487.435 384.481 486.762C385.528 488.152 386.054 489.715 386.054 491.45C386.054 495.013 383.842 497.858 379.483 499.913C374.702 502.168 367.472 503.353 358.577 503.353H324.122C315.226 503.353 307.997 502.164 303.22 499.913C298.861 497.858 296.645 495.008 296.645 491.45C296.645 489.71 297.175 488.142 298.227 486.752C298.099 487.435 298.045 488.108 298.045 488.772C298.045 494.787 302.567 501.962 324.126 501.962H358.582C380.142 501.962 384.668 494.787 384.668 488.772H384.658ZM391.406 494.123C391.406 497.097 389.976 501.323 383.15 504.537C377.36 507.265 368.858 508.715 358.572 508.715H324.117C313.831 508.715 305.333 507.27 299.539 504.537C292.718 501.318 291.283 497.097 291.283 494.123C291.283 492.6 291.661 490.747 292.949 488.87C292.772 489.695 292.679 490.556 292.679 491.445C292.679 501.53 304.139 507.314 324.117 507.314H358.572C378.554 507.314 390.01 501.53 390.01 491.445C390.01 490.551 389.917 489.691 389.735 488.865C391.027 490.742 391.401 492.595 391.401 494.123H391.406ZM358.572 479.542C358.847 479.542 359.127 479.542 359.398 479.542C359.462 479.542 359.526 479.542 359.585 479.542H359.776C359.87 479.542 359.953 479.542 360.042 479.542C360.351 479.542 360.651 479.552 360.951 479.562C366.362 479.709 370.775 480.373 374.087 481.547C380.692 483.887 380.692 487.558 380.692 488.762C380.692 489.966 380.692 493.637 374.087 495.976C370.298 497.313 365.079 497.991 358.572 497.991H324.117C317.61 497.991 312.386 497.313 308.606 495.976C302.001 493.637 302.001 489.971 302.001 488.762C302.001 487.553 302.001 483.887 308.606 481.547C311.919 480.373 316.327 479.709 321.738 479.562C322.038 479.552 322.342 479.547 322.647 479.542C322.736 479.542 322.819 479.542 322.913 479.542H323.104C323.163 479.542 323.227 479.542 323.291 479.542C323.566 479.542 323.841 479.542 324.117 479.542H340.791V488.339C343.902 485.798 346.836 483.081 349.662 480.235C349.893 480.004 350.124 479.778 350.35 479.542H358.572ZM408.72 456.242C408.189 456.036 407.658 455.844 407.127 455.663C405.481 455.097 403.849 454.65 402.223 454.321C402.134 454.306 402.051 454.287 401.962 454.272C400.154 453.913 398.36 453.697 396.581 453.598C396.532 453.598 396.488 453.598 396.433 453.589C394.6 453.495 392.767 453.515 390.949 453.653C383.513 454.193 376.176 456.469 368.539 459.019C365.467 460.056 363.934 460.587 360.867 461.535C358.946 463.762 356.999 465.968 355.009 468.136C354.896 468.254 354.788 468.376 354.675 468.494C354.228 468.976 353.776 469.453 353.323 469.929C352.385 470.922 351.441 471.9 350.483 472.878C350.247 473.119 350.011 473.36 349.775 473.6C349.112 474.264 348.448 474.932 347.78 475.586C347.362 476.004 346.94 476.412 346.517 476.819C346.296 477.036 346.065 477.257 345.834 477.473C345.804 477.503 345.77 477.532 345.74 477.567V464.784C343.76 464.946 342.767 464.98 340.787 464.897C336.221 464.494 332.393 463.57 328.137 461.865V412.046C329.783 412.69 331.424 413.201 333.056 413.59C334.53 413.948 335.995 414.204 337.459 414.376C337.818 414.42 338.172 414.454 338.531 414.489C340.03 414.622 341.524 414.671 343.008 414.641C343.386 414.631 343.775 414.626 344.153 414.607C345.672 414.543 347.185 414.4 348.699 414.204C361.658 412.479 374.323 406.311 387.278 404.395C387.759 404.321 388.241 404.257 388.723 404.203C390.531 403.982 392.34 403.844 394.158 403.829C394.532 403.82 394.905 403.82 395.279 403.829C397.161 403.859 399.043 404.006 400.94 404.311C401.255 404.36 401.564 404.414 401.879 404.473C404.144 404.891 406.425 405.53 408.72 406.429V456.247V456.242Z" fill="black"/>
<path d="M662.32 412.788C656.733 415.815 650.83 417.285 644.284 417.285C642.888 417.285 641.429 417.216 639.94 417.083C639.881 417.078 639.817 417.073 639.753 417.069C637.723 407.49 633.693 399.46 627.762 393.169C618.753 383.616 605.784 378.568 590.254 378.568C574.724 378.568 561.755 383.616 552.752 393.169C543.94 402.512 539.281 415.899 539.281 431.886V446.541C538.082 446.693 536.942 446.806 535.826 446.875C534.794 446.944 533.767 446.973 532.779 446.978C526.243 446.978 520.35 445.509 514.768 442.486L511.141 440.52V505.235L512.212 505.967C517.161 509.338 522.788 511.412 528.617 512.022V533.208L532.607 530.014C536.799 526.657 540.996 522.661 545.807 517.442C546.908 516.253 547.985 515.054 548.992 513.919C550.152 515.545 551.41 517.079 552.752 518.504C561.755 528.058 574.724 533.105 590.254 533.105C605.784 533.105 618.753 528.058 627.762 518.504C633.33 512.601 637.325 504.861 639.443 495.936C641.114 497.489 642.795 498.954 644.456 500.305L648.466 503.569V482.328C654.295 481.714 659.922 479.645 664.871 476.273L665.942 475.541V410.827L662.316 412.793L662.32 412.788Z" fill="#FAFAFA"/>
<path d="M581.029 490.885C585.792 490.354 591.586 490.998 596.048 492.757V477.906C591.586 476.151 585.792 475.507 581.034 476.038V461.191C576.036 461.585 570.763 462.852 566.016 464.415V479.262C570.763 477.699 576.031 476.431 581.029 476.038V490.885Z" fill="black"/>
<path d="M556.634 467.499C557.371 467.254 558.103 467.008 558.84 466.762C559.739 466.462 560.644 466.163 561.548 465.863C561.794 465.784 562.035 465.701 562.28 465.622C563.524 465.214 564.767 464.811 566.015 464.418V449.566C564.767 449.96 563.524 450.363 562.28 450.77C562.035 450.854 561.794 450.933 561.548 451.016C560.644 451.316 559.739 451.616 558.84 451.916C558.103 452.161 557.371 452.407 556.634 452.653C555.788 452.933 554.948 453.213 554.103 453.488C553.071 453.827 552.034 454.161 550.997 454.491V469.337C552.034 469.008 553.071 468.674 554.103 468.335C554.948 468.06 555.788 467.78 556.634 467.499Z" fill="black"/>
<path d="M550.997 499.033C551.375 498.915 551.753 498.792 552.127 498.669C553.69 498.173 555.248 497.657 556.801 497.141C557.611 496.87 558.422 496.6 559.233 496.33C559.504 496.236 559.769 496.148 560.039 496.059C561.13 495.696 562.221 495.337 563.312 494.983L563.858 494.806C564.575 494.57 565.293 494.339 566.015 494.113V479.262C564.767 479.655 563.524 480.058 562.28 480.466C562.039 480.544 561.794 480.628 561.553 480.707C560.644 481.011 559.744 481.306 558.84 481.611C558.123 481.852 557.4 482.092 556.683 482.328C555.852 482.608 555.022 482.884 554.186 483.154C553.125 483.503 552.063 483.847 550.997 484.181V499.033Z" fill="black"/>
<path d="M520.964 455.838V470.685C525.427 472.444 531.221 473.088 535.983 472.557V457.71C531.226 458.241 525.432 457.597 520.964 455.838Z" fill="black"/>
<path d="M520.964 485.531V500.378C525.427 502.137 531.221 502.781 535.983 502.25V487.404C531.226 487.934 525.432 487.291 520.964 485.531Z" fill="black"/>
<path d="M581.03 418.514V433.361C585.492 431.606 591.291 430.957 596.048 431.493V416.642C591.291 416.111 585.492 416.755 581.03 418.514Z" fill="black"/>
<path d="M588.544 461.257C591.183 461.567 593.783 462.171 596.048 463.061V448.214C593.783 447.32 591.183 446.715 588.544 446.405C585.979 446.106 583.379 446.081 581.035 446.342V461.193C583.379 460.928 585.979 460.952 588.544 461.257Z" fill="black"/>
<path d="M641.1 428.01V442.862C640.333 442.798 639.557 442.719 638.78 442.616C637.149 442.41 635.502 442.12 633.866 441.766C633.02 441.584 632.175 441.387 631.335 441.171C629.659 440.748 628.012 440.267 626.42 439.746C626.307 439.711 626.194 439.677 626.081 439.638V454.484C626.194 454.524 626.307 454.558 626.42 454.593C628.012 455.113 629.659 455.595 631.335 456.018C632.175 456.234 633.02 456.431 633.866 456.612C635.502 456.971 637.149 457.261 638.78 457.468C639.557 457.566 640.333 457.649 641.1 457.708V472.56C645.857 473.091 651.651 472.447 656.114 470.688V455.841C651.651 457.595 645.857 458.244 641.1 457.708V442.862C645.857 443.392 651.651 442.749 656.114 440.989V426.143C651.651 427.902 645.857 428.546 641.1 428.01Z" fill="black"/>
<path d="M639.729 419.534C639.051 419.475 638.372 419.402 637.694 419.313C635.905 409.504 631.944 401.184 625.978 394.859C617.446 385.811 605.096 381.029 590.259 381.029C575.423 381.029 563.072 385.811 554.546 394.859C546.167 403.739 541.743 416.546 541.743 431.889V448.672C539.827 448.977 537.91 449.208 535.989 449.331C528.612 449.808 521.166 448.746 513.598 444.647V503.936C518.768 507.46 524.818 509.504 531.074 509.735V528.096C535.723 524.375 539.96 520.164 544.004 515.775C545.793 513.839 547.543 511.863 549.277 509.882C550.806 512.399 552.565 514.718 554.546 516.817C563.072 525.864 575.423 530.646 590.259 530.646C605.096 530.646 617.446 525.864 625.978 516.817C632.155 510.266 636.244 501.42 637.915 491.055C638.815 491.945 639.724 492.824 640.648 493.689C642.383 495.321 644.167 496.893 646.014 498.397V480.037C652.266 479.806 658.32 477.761 663.49 474.238V414.949C655.45 419.303 647.553 420.232 639.729 419.534ZM546.658 431.889C546.658 417.824 550.619 406.182 558.119 398.23C565.697 390.195 576.813 385.944 590.259 385.944C603.705 385.944 614.827 390.195 622.405 398.23C627.364 403.489 630.775 410.354 632.519 418.473C631.625 418.301 630.725 418.109 629.831 417.908C628.15 410.733 625.049 404.727 620.562 399.965C613.475 392.451 602.998 388.475 590.259 388.475C577.521 388.475 567.048 392.451 559.962 399.965C552.811 407.548 549.189 418.286 549.189 431.889V447.139C548.349 447.346 547.503 447.542 546.658 447.724V431.889ZM612.05 413.165C609.003 412.364 605.951 411.642 602.89 411.106C593.272 409.425 583.576 409.578 573.663 414.949V440.893C569.859 441.586 566.07 442.554 562.281 443.596C562.035 443.665 561.795 443.728 561.549 443.797V431.889C561.549 411.283 571.211 400.84 590.259 400.84C602.683 400.84 611.117 405.282 615.476 414.084C614.336 413.775 613.19 413.465 612.05 413.165ZM590.259 395.925C568.577 395.925 556.634 408.693 556.634 431.889V445.163C555.789 445.404 554.949 445.635 554.103 445.866V431.889C554.103 419.584 557.278 409.976 563.539 403.336C569.761 396.736 578.75 393.389 590.259 393.389C601.769 393.389 610.763 396.736 616.984 403.336C620.346 406.899 622.818 411.322 624.386 416.556C623.403 416.296 622.415 416.025 621.432 415.75C616.911 402.845 606.227 395.925 590.259 395.925ZM547.125 505.902C546.545 506.546 545.926 507.229 545.189 508.035C543.837 509.509 542.736 510.698 541.699 511.789C539.91 513.667 538.318 515.234 535.989 517.397V504.708C530.017 505.238 523.968 504.354 518.513 501.813V452.353C524.479 454.427 530.283 454.909 535.989 454.486C537.915 454.344 539.837 454.098 541.743 453.774C543.39 453.498 545.026 453.164 546.658 452.786C547.498 452.594 548.344 452.388 549.189 452.172C550.83 451.754 552.467 451.307 554.103 450.84C554.949 450.604 555.789 450.358 556.634 450.112C557.372 449.901 558.104 449.685 558.841 449.469C559.74 449.203 560.645 448.943 561.549 448.682C561.795 448.613 562.035 448.54 562.281 448.471C566.06 447.39 569.849 446.377 573.663 445.645C575.295 445.331 576.931 445.07 578.578 444.878C585.075 444.112 591.685 444.407 598.511 446.775V496.235C586.574 492.048 575.816 493.792 564.783 497.041C564.522 497.115 564.267 497.193 564.006 497.272C562.915 497.601 561.819 497.94 560.718 498.289C560.512 498.353 560.31 498.422 560.104 498.491C559.293 498.751 558.477 499.017 557.657 499.292C556.104 499.798 554.541 500.319 552.963 500.835C552.315 501.056 551.661 501.267 551.002 501.484C550.894 501.606 550.791 501.724 550.693 501.842C549.272 503.479 548.285 504.609 547.125 505.902ZM590.259 515.75C611.947 515.75 623.889 502.978 623.889 479.786V476.002C624.022 476.046 624.155 476.09 624.287 476.135C625 476.955 625.708 477.771 626.42 478.587V479.786C626.42 492.092 623.246 501.7 616.984 508.339C610.763 514.939 601.769 518.281 590.259 518.281C578.75 518.281 569.761 514.939 563.539 508.339C562.153 506.875 560.925 505.263 559.844 503.503C560.694 503.228 561.534 502.958 562.375 502.697C567.918 511.234 577.364 515.75 590.259 515.75ZM618.975 479.786C618.975 500.393 609.313 510.836 590.259 510.836C579.703 510.836 572.027 507.627 567.289 501.258C579.354 497.975 590.81 497.007 603.425 503.936V469.864C607.273 470.773 611.048 471.864 614.807 473.048C615.957 473.407 617.102 473.771 618.247 474.149C618.488 474.228 618.734 474.306 618.975 474.385V479.786ZM633.536 486.622C632.45 497.601 628.597 506.875 622.405 513.445C614.827 521.481 603.71 525.732 590.259 525.732C576.808 525.732 565.697 521.481 558.119 513.445C556.03 511.229 554.216 508.728 552.683 505.966C552.722 505.921 552.762 505.877 552.801 505.833C553.558 505.582 554.31 505.332 555.057 505.081C556.448 507.509 558.084 509.72 559.962 511.711C567.048 519.225 577.526 523.196 590.259 523.196C602.993 523.196 613.475 519.225 620.562 511.711C626.956 504.929 630.529 495.621 631.212 483.993C631.983 484.848 632.76 485.698 633.546 486.539C633.541 486.568 633.541 486.593 633.536 486.622ZM658.576 472.115C653.121 474.655 647.071 475.54 641.1 475.009V487.698C641.1 487.698 641.075 487.679 641.065 487.669C640.142 486.809 639.331 486.042 638.579 485.31C636.937 483.723 635.571 482.302 633.861 480.464C633.256 479.816 632.613 479.118 631.9 478.336C631.703 478.12 631.517 477.914 631.335 477.717C629.477 475.673 628.342 474.385 626.42 472.169C626.312 472.046 626.199 471.918 626.086 471.785C625.354 471.554 624.622 471.314 623.889 471.073C622.253 470.532 620.616 469.972 618.975 469.412C618.734 469.333 618.488 469.249 618.247 469.166C617.102 468.778 615.957 468.389 614.807 468.011C611.053 466.768 607.273 465.608 603.425 464.777V447.444C605.804 447.955 607.952 448.599 611.062 449.557V434.71C606.315 433.152 601.047 431.884 596.049 431.491V441.551C590.166 439.762 584.357 439.546 578.578 440.17V417.072C589.906 413.141 600.634 414.925 611.249 417.775C612.753 418.183 614.262 418.61 615.766 419.043C616.35 419.21 616.93 419.382 617.515 419.554C619.309 420.08 621.098 420.606 622.892 421.117C623.801 421.372 624.71 421.628 625.619 421.874C627.334 422.341 629.059 422.778 630.784 423.166C631.649 423.363 632.519 423.55 633.389 423.717C635.06 424.046 636.736 424.321 638.417 424.523C639.144 424.611 639.871 424.69 640.599 424.749C646.467 425.24 652.433 424.788 658.576 422.655V472.115Z" fill="black"/>
<path d="M550.997 469.336C550.402 469.533 549.798 469.724 549.188 469.906C548.358 470.162 547.512 470.402 546.657 470.633C545.04 471.066 543.394 471.449 541.743 471.764C539.816 472.132 537.88 472.412 535.988 472.56H535.983V487.407C535.983 487.407 536.003 487.407 536.012 487.402C537.998 487.244 540.023 486.95 542.047 486.551C543.674 486.232 545.296 485.849 546.883 485.416C547.714 485.19 548.539 484.954 549.35 484.704C549.906 484.536 550.456 484.36 550.997 484.183V469.336Z" fill="black"/>
<path d="M626.081 424.79C626.081 424.79 626.046 424.78 626.032 424.775C625.142 424.495 624.253 424.205 623.363 423.915C621.613 423.345 619.869 422.76 618.124 422.18C617.657 422.023 617.195 421.87 616.728 421.713C615.347 421.251 613.971 420.799 612.586 420.357C612.079 420.19 611.573 420.027 611.062 419.865C611.067 424.814 611.067 429.763 611.067 434.717C612.315 435.11 613.563 435.513 614.807 435.926C615.952 436.299 617.097 436.683 618.247 437.066C618.488 437.145 618.734 437.228 618.974 437.307C619.795 437.577 620.611 437.852 621.432 438.123C622.247 438.393 623.068 438.668 623.889 438.933C624.616 439.169 625.348 439.405 626.081 439.636V424.79Z" fill="black"/>
<path d="M618.975 452.161C618.734 452.083 618.488 451.999 618.247 451.92C617.672 451.724 617.097 451.537 616.527 451.345C615.952 451.154 615.382 450.967 614.807 450.775C613.564 450.363 612.316 449.96 611.067 449.566V464.413C612.316 464.806 613.564 465.214 614.807 465.622C615.952 466.001 617.097 466.384 618.247 466.767C618.488 466.846 618.734 466.929 618.975 467.008C620.611 467.553 622.248 468.099 623.889 468.635C624.617 468.871 625.349 469.106 626.081 469.337V454.486C625.349 454.255 624.617 454.019 623.889 453.783C622.248 453.252 620.611 452.707 618.975 452.161Z" fill="black"/>
</svg>
