<svg width="700" height="554" viewBox="0 0 700 554" fill="none" xmlns="http://www.w3.org/2000/svg">
<rect width="700" height="554" fill="#3F2E42"/>
<path d="M262.55 406.065V410.153H254.486V418.441H250.342V410.153H242.278V406.065H250.342V397.777H254.486V406.065H262.55Z" fill="#FAFAFA"/>
<path d="M459.639 406.065V410.153H451.575V418.441H447.431V410.153H439.367V406.065H447.431V397.777H451.575V406.065H459.639Z" fill="#FAFAFA"/>
<rect x="78.5" y="338.5" width="544" height="168" stroke="#FAFAFA"/>
<path d="M146.88 464.976C146.086 464.976 145.368 464.878 144.724 464.682C144.08 464.476 143.52 464.187 143.044 463.814L143.534 462.666C143.851 462.908 144.178 463.109 144.514 463.268C144.859 463.426 145.223 463.548 145.606 463.632C145.998 463.706 146.422 463.744 146.88 463.744C147.664 463.744 148.238 463.604 148.602 463.324C148.975 463.044 149.162 462.675 149.162 462.218C149.162 461.826 149.031 461.522 148.77 461.308C148.518 461.093 148.07 460.92 147.426 460.79L145.9 460.482C144.994 460.295 144.318 459.992 143.87 459.572C143.431 459.142 143.212 458.559 143.212 457.822C143.212 457.224 143.37 456.702 143.688 456.254C144.005 455.806 144.444 455.46 145.004 455.218C145.573 454.975 146.236 454.854 146.992 454.854C147.692 454.854 148.336 454.956 148.924 455.162C149.512 455.358 150.006 455.652 150.408 456.044L149.932 457.15C149.512 456.786 149.064 456.52 148.588 456.352C148.112 456.174 147.57 456.086 146.964 456.086C146.245 456.086 145.68 456.235 145.27 456.534C144.868 456.832 144.668 457.238 144.668 457.752C144.668 458.162 144.794 458.484 145.046 458.718C145.307 458.951 145.736 459.128 146.334 459.25L147.86 459.544C148.802 459.74 149.498 460.043 149.946 460.454C150.394 460.855 150.618 461.41 150.618 462.12C150.618 462.689 150.464 463.188 150.156 463.618C149.857 464.047 149.428 464.383 148.868 464.626C148.308 464.859 147.645 464.976 146.88 464.976ZM152.281 467.874V459.488C152.281 459.217 152.267 458.942 152.239 458.662C152.221 458.372 152.197 458.083 152.169 457.794H153.541L153.681 459.39H153.527C153.677 458.858 153.975 458.438 154.423 458.13C154.881 457.822 155.422 457.668 156.047 457.668C156.673 457.668 157.219 457.817 157.685 458.116C158.152 458.405 158.511 458.82 158.763 459.362C159.025 459.903 159.155 460.556 159.155 461.322C159.155 462.078 159.025 462.731 158.763 463.282C158.511 463.832 158.152 464.252 157.685 464.542C157.219 464.831 156.673 464.976 156.047 464.976C155.431 464.976 154.895 464.826 154.437 464.528C153.989 464.22 153.691 463.804 153.541 463.282H153.695V467.874H152.281ZM155.697 463.87C156.313 463.87 156.803 463.655 157.167 463.226C157.541 462.796 157.727 462.162 157.727 461.322C157.727 460.482 157.541 459.852 157.167 459.432C156.803 459.002 156.313 458.788 155.697 458.788C155.081 458.788 154.587 459.002 154.213 459.432C153.849 459.852 153.667 460.482 153.667 461.322C153.667 462.162 153.849 462.796 154.213 463.226C154.587 463.655 155.081 463.87 155.697 463.87ZM164.074 464.976C162.936 464.976 162.04 464.654 161.386 464.01C160.733 463.366 160.406 462.474 160.406 461.336C160.406 460.598 160.546 459.954 160.826 459.404C161.116 458.853 161.512 458.428 162.016 458.13C162.53 457.822 163.122 457.668 163.794 457.668C164.457 457.668 165.012 457.808 165.46 458.088C165.908 458.368 166.249 458.764 166.482 459.278C166.716 459.782 166.832 460.379 166.832 461.07V461.518H161.512V460.706H165.866L165.628 460.888C165.628 460.188 165.47 459.646 165.152 459.264C164.844 458.872 164.396 458.676 163.808 458.676C163.155 458.676 162.651 458.904 162.296 459.362C161.942 459.81 161.764 460.43 161.764 461.224V461.364C161.764 462.194 161.965 462.82 162.366 463.24C162.777 463.66 163.356 463.87 164.102 463.87C164.513 463.87 164.896 463.814 165.25 463.702C165.614 463.58 165.96 463.384 166.286 463.114L166.748 464.08C166.422 464.369 166.025 464.593 165.558 464.752C165.092 464.901 164.597 464.976 164.074 464.976ZM171.717 464.976C170.578 464.976 169.682 464.654 169.029 464.01C168.376 463.366 168.049 462.474 168.049 461.336C168.049 460.598 168.189 459.954 168.469 459.404C168.758 458.853 169.155 458.428 169.659 458.13C170.172 457.822 170.765 457.668 171.437 457.668C172.1 457.668 172.655 457.808 173.103 458.088C173.551 458.368 173.892 458.764 174.125 459.278C174.358 459.782 174.475 460.379 174.475 461.07V461.518H169.155V460.706H173.509L173.271 460.888C173.271 460.188 173.112 459.646 172.795 459.264C172.487 458.872 172.039 458.676 171.451 458.676C170.798 458.676 170.294 458.904 169.939 459.362C169.584 459.81 169.407 460.43 169.407 461.224V461.364C169.407 462.194 169.608 462.82 170.009 463.24C170.42 463.66 170.998 463.87 171.745 463.87C172.156 463.87 172.538 463.814 172.893 463.702C173.257 463.58 173.602 463.384 173.929 463.114L174.391 464.08C174.064 464.369 173.668 464.593 173.201 464.752C172.734 464.901 172.24 464.976 171.717 464.976ZM179.192 464.976C178.482 464.976 177.862 464.831 177.33 464.542C176.807 464.243 176.401 463.818 176.112 463.268C175.832 462.708 175.692 462.045 175.692 461.28C175.692 460.524 175.836 459.875 176.126 459.334C176.415 458.792 176.821 458.382 177.344 458.102C177.866 457.812 178.482 457.668 179.192 457.668C179.649 457.668 180.092 457.747 180.522 457.906C180.951 458.055 181.306 458.27 181.586 458.55L181.124 459.544C180.862 459.292 180.568 459.105 180.242 458.984C179.915 458.853 179.598 458.788 179.29 458.788C178.618 458.788 178.09 459.002 177.708 459.432C177.325 459.861 177.134 460.482 177.134 461.294C177.134 462.115 177.325 462.745 177.708 463.184C178.09 463.622 178.618 463.842 179.29 463.842C179.588 463.842 179.901 463.786 180.228 463.674C180.554 463.552 180.853 463.361 181.124 463.1L181.586 464.094C181.296 464.374 180.932 464.593 180.494 464.752C180.064 464.901 179.63 464.976 179.192 464.976ZM183.084 464.85V454.546H184.498V459.292H184.302C184.507 458.76 184.839 458.358 185.296 458.088C185.753 457.808 186.281 457.668 186.878 457.668C187.718 457.668 188.343 457.901 188.754 458.368C189.165 458.825 189.37 459.52 189.37 460.454V464.85H187.956V460.538C187.956 459.931 187.835 459.492 187.592 459.222C187.359 458.942 186.985 458.802 186.472 458.802C185.875 458.802 185.394 458.988 185.03 459.362C184.675 459.726 184.498 460.211 184.498 460.818V464.85H183.084ZM144.539 482.85V472.98H148.655C149.719 472.98 150.536 473.204 151.105 473.652C151.684 474.1 151.973 474.73 151.973 475.542C151.973 476.148 151.791 476.657 151.427 477.068C151.063 477.478 150.564 477.754 149.929 477.894V477.684C150.657 477.777 151.222 478.034 151.623 478.454C152.024 478.874 152.225 479.429 152.225 480.12C152.225 480.997 151.926 481.674 151.329 482.15C150.741 482.616 149.91 482.85 148.837 482.85H144.539ZM145.953 481.716H148.683C149.346 481.716 149.864 481.59 150.237 481.338C150.62 481.086 150.811 480.661 150.811 480.064C150.811 479.466 150.62 479.042 150.237 478.79C149.864 478.538 149.346 478.412 148.683 478.412H145.953V481.716ZM145.953 477.292H148.431C149.14 477.292 149.672 477.156 150.027 476.886C150.382 476.615 150.559 476.218 150.559 475.696C150.559 475.173 150.382 474.776 150.027 474.506C149.672 474.235 149.14 474.1 148.431 474.1H145.953V477.292ZM156.503 482.976C155.654 482.976 155.014 482.747 154.585 482.29C154.165 481.823 153.955 481.109 153.955 480.148V475.794H155.369V480.12C155.369 480.708 155.49 481.142 155.733 481.422C155.976 481.702 156.344 481.842 156.839 481.842C157.399 481.842 157.852 481.655 158.197 481.282C158.542 480.908 158.715 480.414 158.715 479.798V475.794H160.129V482.85H158.757V481.338H158.939C158.743 481.86 158.43 482.266 158.001 482.556C157.572 482.836 157.072 482.976 156.503 482.976ZM165.966 482.976C165.35 482.976 164.813 482.822 164.356 482.514C163.899 482.206 163.595 481.786 163.446 481.254H163.6V482.85H162.2V472.546H163.614V477.362H163.446C163.605 476.839 163.908 476.428 164.356 476.13C164.813 475.822 165.35 475.668 165.966 475.668C166.591 475.668 167.137 475.817 167.604 476.116C168.071 476.405 168.43 476.825 168.682 477.376C168.943 477.917 169.074 478.57 169.074 479.336C169.074 480.092 168.943 480.745 168.682 481.296C168.43 481.837 168.066 482.252 167.59 482.542C167.123 482.831 166.582 482.976 165.966 482.976ZM165.616 481.87C166.223 481.87 166.713 481.66 167.086 481.24C167.459 480.81 167.646 480.176 167.646 479.336C167.646 478.486 167.459 477.852 167.086 477.432C166.713 477.002 166.223 476.788 165.616 476.788C165 476.788 164.505 477.002 164.132 477.432C163.768 477.852 163.586 478.482 163.586 479.322C163.586 480.162 163.768 480.796 164.132 481.226C164.505 481.655 165 481.87 165.616 481.87ZM174.497 482.976C173.881 482.976 173.345 482.822 172.887 482.514C172.43 482.206 172.127 481.786 171.977 481.254H172.131V482.85H170.731V472.546H172.145V477.362H171.977C172.136 476.839 172.439 476.428 172.887 476.13C173.345 475.822 173.881 475.668 174.497 475.668C175.123 475.668 175.669 475.817 176.135 476.116C176.602 476.405 176.961 476.825 177.213 477.376C177.475 477.917 177.605 478.57 177.605 479.336C177.605 480.092 177.475 480.745 177.213 481.296C176.961 481.837 176.597 482.252 176.121 482.542C175.655 482.831 175.113 482.976 174.497 482.976ZM174.147 481.87C174.754 481.87 175.244 481.66 175.617 481.24C175.991 480.81 176.177 480.176 176.177 479.336C176.177 478.486 175.991 477.852 175.617 477.432C175.244 477.002 174.754 476.788 174.147 476.788C173.531 476.788 173.037 477.002 172.663 477.432C172.299 477.852 172.117 478.482 172.117 479.322C172.117 480.162 172.299 480.796 172.663 481.226C173.037 481.655 173.531 481.87 174.147 481.87ZM179.263 482.85V472.546H180.677V482.85H179.263ZM186.011 482.976C184.872 482.976 183.976 482.654 183.323 482.01C182.67 481.366 182.343 480.474 182.343 479.336C182.343 478.598 182.483 477.954 182.763 477.404C183.052 476.853 183.449 476.428 183.953 476.13C184.466 475.822 185.059 475.668 185.731 475.668C186.394 475.668 186.949 475.808 187.397 476.088C187.845 476.368 188.186 476.764 188.419 477.278C188.652 477.782 188.769 478.379 188.769 479.07V479.518H183.449V478.706H187.803L187.565 478.888C187.565 478.188 187.406 477.646 187.089 477.264C186.781 476.872 186.333 476.676 185.745 476.676C185.092 476.676 184.588 476.904 184.233 477.362C183.878 477.81 183.701 478.43 183.701 479.224V479.364C183.701 480.194 183.902 480.82 184.303 481.24C184.714 481.66 185.292 481.87 186.039 481.87C186.45 481.87 186.832 481.814 187.187 481.702C187.551 481.58 187.896 481.384 188.223 481.114L188.685 482.08C188.358 482.369 187.962 482.593 187.495 482.752C187.028 482.901 186.534 482.976 186.011 482.976Z" fill="#FAFAFA"/>
<path d="M168.217 368.5C189.424 368.5 206.617 381.725 206.617 398.038C206.617 414.352 189.424 427.576 168.217 427.576C163.889 427.576 159.729 427.025 155.848 426.01L139.37 438.906L144.086 421.014C135.383 415.599 129.817 407.319 129.817 398.038C129.817 381.725 147.009 368.5 168.217 368.5Z" fill="#FAFAFA"/>
<path d="M321.695 464.976C320.687 464.976 319.828 464.77 319.119 464.36C318.409 463.949 317.863 463.366 317.481 462.61C317.107 461.844 316.921 460.944 316.921 459.908C316.921 458.872 317.107 457.976 317.481 457.22C317.863 456.464 318.409 455.88 319.119 455.47C319.828 455.059 320.687 454.854 321.695 454.854C322.395 454.854 323.02 454.956 323.571 455.162C324.121 455.367 324.602 455.666 325.013 456.058L324.509 457.22C324.061 456.837 323.622 456.562 323.193 456.394C322.773 456.226 322.283 456.142 321.723 456.142C320.659 456.142 319.847 456.468 319.287 457.122C318.727 457.775 318.447 458.704 318.447 459.908C318.447 461.112 318.727 462.045 319.287 462.708C319.847 463.361 320.659 463.688 321.723 463.688C322.283 463.688 322.773 463.604 323.193 463.436C323.622 463.268 324.061 462.988 324.509 462.596L325.013 463.758C324.602 464.15 324.121 464.453 323.571 464.668C323.02 464.873 322.395 464.976 321.695 464.976ZM326.715 464.85V454.546H328.129V459.292H327.933C328.138 458.76 328.469 458.358 328.927 458.088C329.384 457.808 329.911 457.668 330.509 457.668C331.349 457.668 331.974 457.901 332.385 458.368C332.795 458.825 333.001 459.52 333.001 460.454V464.85H331.587V460.538C331.587 459.931 331.465 459.492 331.223 459.222C330.989 458.942 330.616 458.802 330.103 458.802C329.505 458.802 329.025 458.988 328.661 459.362C328.306 459.726 328.129 460.211 328.129 460.818V464.85H326.715ZM338.276 464.976C337.137 464.976 336.241 464.654 335.588 464.01C334.934 463.366 334.608 462.474 334.608 461.336C334.608 460.598 334.748 459.954 335.028 459.404C335.317 458.853 335.714 458.428 336.218 458.13C336.731 457.822 337.324 457.668 337.996 457.668C338.658 457.668 339.214 457.808 339.662 458.088C340.11 458.368 340.45 458.764 340.684 459.278C340.917 459.782 341.034 460.379 341.034 461.07V461.518H335.714V460.706H340.068L339.83 460.888C339.83 460.188 339.671 459.646 339.354 459.264C339.046 458.872 338.598 458.676 338.01 458.676C337.356 458.676 336.852 458.904 336.498 459.362C336.143 459.81 335.966 460.43 335.966 461.224V461.364C335.966 462.194 336.166 462.82 336.568 463.24C336.978 463.66 337.557 463.87 338.304 463.87C338.714 463.87 339.097 463.814 339.452 463.702C339.816 463.58 340.161 463.384 340.488 463.114L340.95 464.08C340.623 464.369 340.226 464.593 339.76 464.752C339.293 464.901 338.798 464.976 338.276 464.976ZM345.75 464.976C345.041 464.976 344.42 464.831 343.888 464.542C343.366 464.243 342.96 463.818 342.67 463.268C342.39 462.708 342.25 462.045 342.25 461.28C342.25 460.524 342.395 459.875 342.684 459.334C342.974 458.792 343.38 458.382 343.902 458.102C344.425 457.812 345.041 457.668 345.75 457.668C346.208 457.668 346.651 457.747 347.08 457.906C347.51 458.055 347.864 458.27 348.144 458.55L347.682 459.544C347.421 459.292 347.127 459.105 346.8 458.984C346.474 458.853 346.156 458.788 345.848 458.788C345.176 458.788 344.649 459.002 344.266 459.432C343.884 459.861 343.692 460.482 343.692 461.294C343.692 462.115 343.884 462.745 344.266 463.184C344.649 463.622 345.176 463.842 345.848 463.842C346.147 463.842 346.46 463.786 346.786 463.674C347.113 463.552 347.412 463.361 347.682 463.1L348.144 464.094C347.855 464.374 347.491 464.593 347.052 464.752C346.623 464.901 346.189 464.976 345.75 464.976ZM349.643 464.85V454.546H351.057V460.874H351.085L354.165 457.794H355.915L352.191 461.504L352.205 460.874L356.223 464.85H354.431L351.085 461.616H351.057V464.85H349.643ZM360.205 464.976C359.067 464.976 358.171 464.654 357.517 464.01C356.864 463.366 356.537 462.474 356.537 461.336C356.537 460.598 356.677 459.954 356.957 459.404C357.247 458.853 357.643 458.428 358.147 458.13C358.661 457.822 359.253 457.668 359.925 457.668C360.588 457.668 361.143 457.808 361.591 458.088C362.039 458.368 362.38 458.764 362.613 459.278C362.847 459.782 362.963 460.379 362.963 461.07V461.518H357.643V460.706H361.997L361.759 460.888C361.759 460.188 361.601 459.646 361.283 459.264C360.975 458.872 360.527 458.676 359.939 458.676C359.286 458.676 358.782 458.904 358.427 459.362C358.073 459.81 357.895 460.43 357.895 461.224V461.364C357.895 462.194 358.096 462.82 358.497 463.24C358.908 463.66 359.487 463.87 360.233 463.87C360.644 463.87 361.027 463.814 361.381 463.702C361.745 463.58 362.091 463.384 362.417 463.114L362.879 464.08C362.553 464.369 362.156 464.593 361.689 464.752C361.223 464.901 360.728 464.976 360.205 464.976ZM364.558 464.85V459.544C364.558 459.254 364.549 458.965 364.53 458.676C364.521 458.377 364.502 458.083 364.474 457.794H365.846L366 459.614H365.776C365.869 459.175 366.028 458.811 366.252 458.522C366.476 458.232 366.747 458.018 367.064 457.878C367.391 457.738 367.731 457.668 368.086 457.668C368.235 457.668 368.361 457.677 368.464 457.696C368.567 457.705 368.669 457.724 368.772 457.752L368.758 459.012C368.599 458.946 368.459 458.909 368.338 458.9C368.226 458.881 368.086 458.872 367.918 458.872C367.507 458.872 367.157 458.965 366.868 459.152C366.579 459.329 366.359 459.572 366.21 459.88C366.061 460.188 365.986 460.519 365.986 460.874V464.85H364.558ZM373.03 464.976C371.891 464.976 370.995 464.654 370.342 464.01C369.688 463.366 369.362 462.474 369.362 461.336C369.362 460.598 369.502 459.954 369.782 459.404C370.071 458.853 370.468 458.428 370.972 458.13C371.485 457.822 372.078 457.668 372.75 457.668C373.412 457.668 373.968 457.808 374.416 458.088C374.864 458.368 375.204 458.764 375.438 459.278C375.671 459.782 375.788 460.379 375.788 461.07V461.518H370.468V460.706H374.822L374.584 460.888C374.584 460.188 374.425 459.646 374.108 459.264C373.8 458.872 373.352 458.676 372.764 458.676C372.11 458.676 371.606 458.904 371.252 459.362C370.897 459.81 370.72 460.43 370.72 461.224V461.364C370.72 462.194 370.92 462.82 371.322 463.24C371.732 463.66 372.311 463.87 373.058 463.87C373.468 463.87 373.851 463.814 374.206 463.702C374.57 463.58 374.915 463.384 375.242 463.114L375.704 464.08C375.377 464.369 374.98 464.593 374.514 464.752C374.047 464.901 373.552 464.976 373.03 464.976ZM380.112 464.976C379.496 464.976 378.95 464.831 378.474 464.542C378.007 464.252 377.643 463.832 377.382 463.282C377.13 462.731 377.004 462.078 377.004 461.322C377.004 460.556 377.13 459.903 377.382 459.362C377.643 458.82 378.007 458.405 378.474 458.116C378.95 457.817 379.496 457.668 380.112 457.668C380.719 457.668 381.251 457.822 381.708 458.13C382.175 458.428 382.483 458.839 382.632 459.362H382.464V454.546H383.878V464.85H382.478V463.254H382.646C382.487 463.786 382.179 464.206 381.722 464.514C381.265 464.822 380.728 464.976 380.112 464.976ZM380.462 463.87C381.069 463.87 381.559 463.655 381.932 463.226C382.305 462.796 382.492 462.162 382.492 461.322C382.492 460.482 382.305 459.852 381.932 459.432C381.559 459.002 381.069 458.788 380.462 458.788C379.846 458.788 379.351 459.002 378.978 459.432C378.614 459.852 378.432 460.482 378.432 461.322C378.432 462.162 378.614 462.796 378.978 463.226C379.351 463.655 379.846 463.87 380.462 463.87ZM337.395 482.85V472.98H343.723V474.142H338.851V477.306H343.401V478.468H338.851V482.85H337.395ZM345.213 482.85V472.546H346.627V482.85H345.213ZM351.401 482.976C350.776 482.976 350.23 482.831 349.763 482.542C349.297 482.252 348.933 481.832 348.671 481.282C348.419 480.731 348.293 480.078 348.293 479.322C348.293 478.556 348.419 477.903 348.671 477.362C348.933 476.82 349.297 476.405 349.763 476.116C350.23 475.817 350.776 475.668 351.401 475.668C352.017 475.668 352.554 475.822 353.011 476.13C353.469 476.438 353.772 476.858 353.921 477.39H353.767L353.907 475.794H355.279C355.251 476.083 355.223 476.372 355.195 476.662C355.177 476.942 355.167 477.217 355.167 477.488V482.85H353.753V481.282H353.907C353.758 481.804 353.45 482.22 352.983 482.528C352.526 482.826 351.999 482.976 351.401 482.976ZM351.751 481.87C352.358 481.87 352.843 481.655 353.207 481.226C353.581 480.796 353.767 480.162 353.767 479.322C353.767 478.482 353.581 477.852 353.207 477.432C352.843 477.002 352.358 476.788 351.751 476.788C351.135 476.788 350.641 477.002 350.267 477.432C349.903 477.852 349.721 478.482 349.721 479.322C349.721 480.162 349.903 480.796 350.267 481.226C350.631 481.655 351.126 481.87 351.751 481.87ZM360.408 485.986C359.774 485.986 359.195 485.911 358.672 485.762C358.159 485.612 357.697 485.388 357.286 485.09L357.636 484.054C357.926 484.25 358.21 484.404 358.49 484.516C358.77 484.637 359.064 484.726 359.372 484.782C359.68 484.838 359.998 484.866 360.324 484.866C360.996 484.866 361.5 484.693 361.836 484.348C362.182 484.012 362.354 483.522 362.354 482.878V480.988H362.494C362.345 481.51 362.037 481.926 361.57 482.234C361.113 482.532 360.581 482.682 359.974 482.682C359.33 482.682 358.77 482.542 358.294 482.262C357.828 481.972 357.464 481.566 357.202 481.044C356.95 480.512 356.824 479.886 356.824 479.168C356.824 478.449 356.95 477.828 357.202 477.306C357.464 476.783 357.828 476.382 358.294 476.102C358.77 475.812 359.33 475.668 359.974 475.668C360.59 475.668 361.122 475.822 361.57 476.13C362.028 476.428 362.331 476.839 362.48 477.362L362.354 477.25L362.48 475.794H363.852C363.815 476.083 363.787 476.372 363.768 476.662C363.75 476.942 363.74 477.217 363.74 477.488V482.71C363.74 483.774 363.456 484.586 362.886 485.146C362.326 485.706 361.5 485.986 360.408 485.986ZM360.31 481.576C360.926 481.576 361.416 481.366 361.78 480.946C362.154 480.526 362.34 479.933 362.34 479.168C362.34 478.402 362.154 477.814 361.78 477.404C361.416 476.993 360.926 476.788 360.31 476.788C359.676 476.788 359.172 476.993 358.798 477.404C358.434 477.814 358.252 478.402 358.252 479.168C358.252 479.933 358.434 480.526 358.798 480.946C359.172 481.366 359.676 481.576 360.31 481.576Z" fill="#FAFAFA"/>
<path d="M504.884 464.85V454.98H506.34V463.604H511.184V464.85H504.884ZM512.483 464.85V457.794H513.897V464.85H512.483ZM512.371 456.324V454.854H514.009V456.324H512.371ZM519.147 467.986C518.513 467.986 517.934 467.911 517.411 467.762C516.898 467.612 516.436 467.388 516.025 467.09L516.375 466.054C516.665 466.25 516.949 466.404 517.229 466.516C517.509 466.637 517.803 466.726 518.111 466.782C518.419 466.838 518.737 466.866 519.063 466.866C519.735 466.866 520.239 466.693 520.575 466.348C520.921 466.012 521.093 465.522 521.093 464.878V462.988H521.233C521.084 463.51 520.776 463.926 520.309 464.234C519.852 464.532 519.32 464.682 518.713 464.682C518.069 464.682 517.509 464.542 517.033 464.262C516.567 463.972 516.203 463.566 515.941 463.044C515.689 462.512 515.563 461.886 515.563 461.168C515.563 460.449 515.689 459.828 515.941 459.306C516.203 458.783 516.567 458.382 517.033 458.102C517.509 457.812 518.069 457.668 518.713 457.668C519.329 457.668 519.861 457.822 520.309 458.13C520.767 458.428 521.07 458.839 521.219 459.362L521.093 459.25L521.219 457.794H522.591C522.554 458.083 522.526 458.372 522.507 458.662C522.489 458.942 522.479 459.217 522.479 459.488V464.71C522.479 465.774 522.195 466.586 521.625 467.146C521.065 467.706 520.239 467.986 519.147 467.986ZM519.049 463.576C519.665 463.576 520.155 463.366 520.519 462.946C520.893 462.526 521.079 461.933 521.079 461.168C521.079 460.402 520.893 459.814 520.519 459.404C520.155 458.993 519.665 458.788 519.049 458.788C518.415 458.788 517.911 458.993 517.537 459.404C517.173 459.814 516.991 460.402 516.991 461.168C516.991 461.933 517.173 462.526 517.537 462.946C517.911 463.366 518.415 463.576 519.049 463.576ZM524.541 464.85V454.546H525.955V459.292H525.759C525.965 458.76 526.296 458.358 526.753 458.088C527.211 457.808 527.738 457.668 528.335 457.668C529.175 457.668 529.801 457.901 530.211 458.368C530.622 458.825 530.827 459.52 530.827 460.454V464.85H529.413V460.538C529.413 459.931 529.292 459.492 529.049 459.222C528.816 458.942 528.443 458.802 527.929 458.802C527.332 458.802 526.851 458.988 526.487 459.362C526.133 459.726 525.955 460.211 525.955 460.818V464.85H524.541ZM535.584 464.976C534.819 464.976 534.24 464.77 533.848 464.36C533.456 463.94 533.26 463.314 533.26 462.484V458.886H531.888V457.794H533.26V455.932L534.674 455.554V457.794H536.634V458.886H534.674V462.358C534.674 462.88 534.768 463.254 534.954 463.478C535.141 463.702 535.412 463.814 535.766 463.814C535.944 463.814 536.098 463.8 536.228 463.772C536.368 463.734 536.494 463.692 536.606 463.646V464.794C536.466 464.85 536.303 464.892 536.116 464.92C535.93 464.957 535.752 464.976 535.584 464.976ZM537.926 464.85V459.488C537.926 459.217 537.912 458.942 537.884 458.662C537.866 458.372 537.842 458.083 537.814 457.794H539.186L539.312 459.278H539.144C539.359 458.755 539.69 458.358 540.138 458.088C540.586 457.808 541.104 457.668 541.692 457.668C542.523 457.668 543.148 457.896 543.568 458.354C543.998 458.811 544.212 459.52 544.212 460.482V464.85H542.798V460.566C542.798 459.94 542.672 459.492 542.42 459.222C542.178 458.942 541.804 458.802 541.3 458.802C540.703 458.802 540.227 458.988 539.872 459.362C539.518 459.726 539.34 460.22 539.34 460.846V464.85H537.926ZM546.225 464.85V457.794H547.639V464.85H546.225ZM546.113 456.324V454.854H547.751V456.324H546.113ZM549.711 464.85V459.488C549.711 459.217 549.697 458.942 549.669 458.662C549.651 458.372 549.627 458.083 549.599 457.794H550.971L551.097 459.278H550.929C551.144 458.755 551.475 458.358 551.923 458.088C552.371 457.808 552.889 457.668 553.477 457.668C554.308 457.668 554.933 457.896 555.353 458.354C555.783 458.811 555.997 459.52 555.997 460.482V464.85H554.583V460.566C554.583 459.94 554.457 459.492 554.205 459.222C553.963 458.942 553.589 458.802 553.085 458.802C552.488 458.802 552.012 458.988 551.657 459.362C551.303 459.726 551.125 460.22 551.125 460.846V464.85H549.711ZM561.188 467.986C560.554 467.986 559.975 467.911 559.452 467.762C558.939 467.612 558.477 467.388 558.066 467.09L558.416 466.054C558.706 466.25 558.99 466.404 559.27 466.516C559.55 466.637 559.844 466.726 560.152 466.782C560.46 466.838 560.778 466.866 561.104 466.866C561.776 466.866 562.28 466.693 562.616 466.348C562.962 466.012 563.134 465.522 563.134 464.878V462.988H563.274C563.125 463.51 562.817 463.926 562.35 464.234C561.893 464.532 561.361 464.682 560.754 464.682C560.11 464.682 559.55 464.542 559.074 464.262C558.608 463.972 558.244 463.566 557.982 463.044C557.73 462.512 557.604 461.886 557.604 461.168C557.604 460.449 557.73 459.828 557.982 459.306C558.244 458.783 558.608 458.382 559.074 458.102C559.55 457.812 560.11 457.668 560.754 457.668C561.37 457.668 561.902 457.822 562.35 458.13C562.808 458.428 563.111 458.839 563.26 459.362L563.134 459.25L563.26 457.794H564.632C564.595 458.083 564.567 458.372 564.548 458.662C564.53 458.942 564.52 459.217 564.52 459.488V464.71C564.52 465.774 564.236 466.586 563.666 467.146C563.106 467.706 562.28 467.986 561.188 467.986ZM561.09 463.576C561.706 463.576 562.196 463.366 562.56 462.946C562.934 462.526 563.12 461.933 563.12 461.168C563.12 460.402 562.934 459.814 562.56 459.404C562.196 458.993 561.706 458.788 561.09 458.788C560.456 458.788 559.952 458.993 559.578 459.404C559.214 459.814 559.032 460.402 559.032 461.168C559.032 461.933 559.214 462.526 559.578 462.946C559.952 463.366 560.456 463.576 561.09 463.576ZM522.651 482.85V472.98H526.767C527.831 472.98 528.648 473.204 529.217 473.652C529.796 474.1 530.085 474.73 530.085 475.542C530.085 476.148 529.903 476.657 529.539 477.068C529.175 477.478 528.676 477.754 528.041 477.894V477.684C528.769 477.777 529.334 478.034 529.735 478.454C530.136 478.874 530.337 479.429 530.337 480.12C530.337 480.997 530.038 481.674 529.441 482.15C528.853 482.616 528.022 482.85 526.949 482.85H522.651ZM524.065 481.716H526.795C527.458 481.716 527.976 481.59 528.349 481.338C528.732 481.086 528.923 480.661 528.923 480.064C528.923 479.466 528.732 479.042 528.349 478.79C527.976 478.538 527.458 478.412 526.795 478.412H524.065V481.716ZM524.065 477.292H526.543C527.252 477.292 527.784 477.156 528.139 476.886C528.494 476.615 528.671 476.218 528.671 475.696C528.671 475.173 528.494 474.776 528.139 474.506C527.784 474.235 527.252 474.1 526.543 474.1H524.065V477.292ZM535.133 482.976C534.433 482.976 533.826 482.831 533.313 482.542C532.8 482.243 532.403 481.823 532.123 481.282C531.843 480.731 531.703 480.078 531.703 479.322C531.703 478.566 531.843 477.917 532.123 477.376C532.403 476.825 532.8 476.405 533.313 476.116C533.826 475.817 534.433 475.668 535.133 475.668C535.833 475.668 536.44 475.817 536.953 476.116C537.476 476.405 537.877 476.825 538.157 477.376C538.446 477.917 538.591 478.566 538.591 479.322C538.591 480.078 538.446 480.731 538.157 481.282C537.877 481.823 537.476 482.243 536.953 482.542C536.44 482.831 535.833 482.976 535.133 482.976ZM535.133 481.87C535.749 481.87 536.239 481.655 536.603 481.226C536.967 480.796 537.149 480.162 537.149 479.322C537.149 478.482 536.967 477.852 536.603 477.432C536.239 477.002 535.749 476.788 535.133 476.788C534.526 476.788 534.041 477.002 533.677 477.432C533.313 477.852 533.131 478.482 533.131 479.322C533.131 480.162 533.308 480.796 533.663 481.226C534.027 481.655 534.517 481.87 535.133 481.87ZM540.244 482.85V472.546H541.658V482.85H540.244ZM546.474 482.976C545.709 482.976 545.13 482.77 544.738 482.36C544.346 481.94 544.15 481.314 544.15 480.484V476.886H542.778V475.794H544.15V473.932L545.564 473.554V475.794H547.524V476.886H545.564V480.358C545.564 480.88 545.657 481.254 545.844 481.478C546.031 481.702 546.301 481.814 546.656 481.814C546.833 481.814 546.987 481.8 547.118 481.772C547.258 481.734 547.384 481.692 547.496 481.646V482.794C547.356 482.85 547.193 482.892 547.006 482.92C546.819 482.957 546.642 482.976 546.474 482.976Z" fill="#FAFAFA"/>
<path d="M516.591 410.965L543.181 369.424L540.669 398.437H558.229L524.938 436.971L532.473 410.573L516.591 410.965Z" fill="#FAFAFA"/>
<rect x="296" y="304" width="105" height="59" fill="#3F2E42"/>
<path d="M320.825 345.162C319.553 345.162 318.473 344.898 317.585 344.37C316.697 343.842 316.013 343.092 315.533 342.12C315.065 341.148 314.831 339.99 314.831 338.646C314.831 337.302 315.065 336.15 315.533 335.19C316.013 334.218 316.697 333.468 317.585 332.94C318.473 332.412 319.553 332.148 320.825 332.148C321.725 332.148 322.529 332.286 323.237 332.562C323.945 332.838 324.563 333.24 325.091 333.768L324.533 334.956C323.957 334.452 323.387 334.086 322.823 333.858C322.259 333.618 321.599 333.498 320.843 333.498C319.391 333.498 318.287 333.948 317.531 334.848C316.775 335.748 316.397 337.014 316.397 338.646C316.397 340.278 316.775 341.55 317.531 342.462C318.287 343.362 319.391 343.812 320.843 343.812C321.599 343.812 322.259 343.698 322.823 343.47C323.387 343.23 323.957 342.852 324.533 342.336L325.091 343.542C324.563 344.058 323.945 344.46 323.237 344.748C322.529 345.024 321.725 345.162 320.825 345.162ZM330.517 345.162C329.653 345.162 328.897 344.976 328.249 344.604C327.613 344.22 327.121 343.68 326.773 342.984C326.425 342.276 326.251 341.442 326.251 340.482C326.251 339.51 326.425 338.676 326.773 337.98C327.121 337.284 327.613 336.75 328.249 336.378C328.897 335.994 329.653 335.802 330.517 335.802C331.393 335.802 332.149 335.994 332.785 336.378C333.433 336.75 333.931 337.284 334.279 337.98C334.639 338.676 334.819 339.51 334.819 340.482C334.819 341.442 334.639 342.276 334.279 342.984C333.931 343.68 333.433 344.22 332.785 344.604C332.149 344.976 331.393 345.162 330.517 345.162ZM330.517 343.974C331.381 343.974 332.065 343.68 332.569 343.092C333.073 342.492 333.325 341.622 333.325 340.482C333.325 339.33 333.067 338.46 332.551 337.872C332.047 337.272 331.369 336.972 330.517 336.972C329.665 336.972 328.987 337.272 328.483 337.872C327.979 338.46 327.727 339.33 327.727 340.482C327.727 341.622 327.979 342.492 328.483 343.092C328.987 343.68 329.665 343.974 330.517 343.974ZM337.092 345V338.052C337.092 337.716 337.074 337.374 337.038 337.026C337.014 336.666 336.984 336.312 336.948 335.964H338.352L338.532 337.944H338.316C338.58 337.248 339 336.72 339.576 336.36C340.164 335.988 340.842 335.802 341.61 335.802C342.678 335.802 343.482 336.09 344.022 336.666C344.574 337.23 344.85 338.124 344.85 339.348V345H343.392V339.438C343.392 338.586 343.218 337.968 342.87 337.584C342.534 337.188 342.006 336.99 341.286 336.99C340.446 336.99 339.78 337.248 339.288 337.764C338.796 338.28 338.55 338.97 338.55 339.834V345H337.092ZM351.437 345.162C350.549 345.162 349.775 344.97 349.115 344.586C348.467 344.202 347.963 343.656 347.603 342.948C347.255 342.24 347.081 341.4 347.081 340.428C347.081 339.444 347.261 338.61 347.621 337.926C347.981 337.23 348.485 336.702 349.133 336.342C349.793 335.982 350.561 335.802 351.437 335.802C352.013 335.802 352.571 335.904 353.111 336.108C353.663 336.312 354.119 336.6 354.479 336.972L353.957 338.016C353.597 337.668 353.201 337.41 352.769 337.242C352.349 337.074 351.935 336.99 351.527 336.99C350.591 336.99 349.865 337.284 349.349 337.872C348.833 338.46 348.575 339.318 348.575 340.446C348.575 341.562 348.833 342.426 349.349 343.038C349.865 343.65 350.591 343.956 351.527 343.956C351.923 343.956 352.331 343.878 352.751 343.722C353.183 343.566 353.585 343.308 353.957 342.948L354.479 343.974C354.107 344.358 353.645 344.652 353.093 344.856C352.541 345.06 351.989 345.162 351.437 345.162ZM360.389 345.162C358.973 345.162 357.857 344.754 357.041 343.938C356.225 343.11 355.817 341.964 355.817 340.5C355.817 339.552 355.997 338.73 356.357 338.034C356.717 337.326 357.221 336.78 357.869 336.396C358.517 336 359.261 335.802 360.101 335.802C360.929 335.802 361.625 335.976 362.189 336.324C362.753 336.672 363.185 337.17 363.485 337.818C363.785 338.454 363.935 339.21 363.935 340.086V340.626H356.933V339.708H362.981L362.675 339.942C362.675 338.982 362.459 338.232 362.027 337.692C361.595 337.152 360.953 336.882 360.101 336.882C359.201 336.882 358.499 337.2 357.995 337.836C357.491 338.46 357.239 339.306 357.239 340.374V340.536C357.239 341.664 357.515 342.522 358.067 343.11C358.631 343.686 359.417 343.974 360.425 343.974C360.965 343.974 361.469 343.896 361.937 343.74C362.417 343.572 362.873 343.302 363.305 342.93L363.809 343.956C363.413 344.34 362.909 344.64 362.297 344.856C361.697 345.06 361.061 345.162 360.389 345.162ZM366.166 348.888V338.052C366.166 337.716 366.148 337.374 366.112 337.026C366.088 336.666 366.058 336.312 366.022 335.964H367.426L367.624 338.106H367.408C367.6 337.398 367.99 336.84 368.578 336.432C369.166 336.012 369.868 335.802 370.684 335.802C371.5 335.802 372.202 335.988 372.79 336.36C373.39 336.732 373.858 337.266 374.194 337.962C374.53 338.658 374.698 339.498 374.698 340.482C374.698 341.454 374.53 342.288 374.194 342.984C373.87 343.68 373.408 344.22 372.808 344.604C372.208 344.976 371.5 345.162 370.684 345.162C369.88 345.162 369.184 344.958 368.596 344.55C368.008 344.142 367.618 343.584 367.426 342.876H367.624V348.888H366.166ZM370.396 343.974C371.26 343.974 371.944 343.68 372.448 343.092C372.964 342.492 373.222 341.622 373.222 340.482C373.222 339.33 372.964 338.46 372.448 337.872C371.944 337.272 371.26 336.972 370.396 336.972C369.544 336.972 368.86 337.272 368.344 337.872C367.84 338.46 367.588 339.33 367.588 340.482C367.588 341.622 367.84 342.492 368.344 343.092C368.86 343.68 369.544 343.974 370.396 343.974ZM380.075 345.162C379.187 345.162 378.509 344.91 378.041 344.406C377.573 343.89 377.339 343.116 377.339 342.084V337.098H375.575V335.964H377.339V333.498L378.797 333.084V335.964H381.389V337.098H378.797V341.922C378.797 342.642 378.917 343.158 379.157 343.47C379.409 343.77 379.781 343.92 380.273 343.92C380.501 343.92 380.705 343.902 380.885 343.866C381.065 343.818 381.227 343.764 381.371 343.704V344.928C381.203 345 380.999 345.054 380.759 345.09C380.531 345.138 380.303 345.162 380.075 345.162Z" fill="#FFD655"/>
<rect x="303.773" y="393.48" width="18.5059" height="18.5059" fill="#FAFAFA"/>
<rect x="322.278" y="411.988" width="18.5059" height="18.5059" fill="#FAFAFA"/>
<rect x="322.278" y="374.979" width="18.5059" height="18.5059" fill="#FAFAFA"/>
<rect x="340.784" y="393.48" width="18.5059" height="18.5059" fill="#FAFAFA"/>
<rect x="359.291" y="411.988" width="18.5059" height="18.5059" fill="#FAFAFA"/>
<rect x="359.291" y="374.979" width="18.5059" height="18.5059" fill="#FAFAFA"/>
<rect x="377.796" y="393.48" width="18.5059" height="18.5059" fill="#FAFAFA"/>
<rect x="302.773" y="373.979" width="94.5297" height="57.5178" stroke="#FAFAFA" stroke-width="2"/>
<g clip-path="url(#clip0_3211_20665)">
<path d="M402.942 212.113C380.469 221.661 360.55 219.145 342.779 215.086L307.386 267.938C320.405 273.771 334.836 276.974 349.991 276.98C406.426 278.148 456.143 228.424 454.981 171.987C455.106 139.946 440.251 109.461 415.124 89.6289L402.942 212.113ZM345.489 221.861C367.581 226.688 388.386 225.695 408.58 216.266C412.09 181.06 415.699 144.717 419.383 107.657C419.402 107.682 419.427 107.7 419.445 107.725C435.712 125.266 444.616 147.946 444.616 171.993C445.709 222.716 400.9 267.632 350.247 266.583C339.557 266.583 329.072 264.81 319.063 261.307L345.476 221.867L345.489 221.861Z" fill="#FFD655"/>
<path d="M300.567 225.452L301.673 207.724C295.747 208.024 290.115 209.516 284.763 212.901C286.031 185.12 287.33 156.62 288.666 127.384C317.271 99.4648 354.218 120.234 401.768 92.7458C405.015 90.8974 408.043 88.9429 411.259 86.7012C393.525 73.9063 372.289 67 349.991 67C292.1 67 245 114.095 245 171.994C245 213.582 269.296 249.556 304.42 266.578C305.282 254.645 306.531 238.004 307.324 227.319L300.574 225.452H300.567ZM284.457 123.062L282.753 124.723C281.198 158.756 279.705 191.383 278.219 224.153C282.572 221.362 290.527 216.198 295.229 214.256L294.255 229.954L300.948 231.803L299.462 251.76C272.506 234.794 255.359 203.828 255.59 171.9C255.459 119.384 298.869 77.0535 349.997 77.3533C366.294 77.3533 381.974 81.4434 395.842 89.1552C374.986 100.451 356.628 102.144 338.832 103.78C319.182 105.584 300.617 107.295 284.464 123.056L284.457 123.062Z" fill="#FFD655"/>
<path d="M325.75 173.305C331.87 174.46 338.195 175.909 344.845 177.17C345.476 168.39 346.113 159.542 346.756 150.625C339.994 149.919 333.543 148.995 327.33 148.346C326.8 156.726 326.269 165.043 325.75 173.298V173.305Z" fill="#FAFAFA"/>
<path d="M323.778 202.248C331.339 203.909 339.288 206.088 347.693 207.743C361.699 210.485 377.06 211.758 394.15 206.613C397.36 172.987 400.669 138.324 404.072 102.568C357.465 129.663 322.073 108.9 293.156 130C291.976 154.828 290.82 179.106 289.678 202.866C295.266 200.412 300.974 199.582 307.249 199.85L306.2 219.664L313.181 221.412L311.027 249.406L310.939 250.542C311.133 250.249 311.327 249.949 311.533 249.637C318.145 239.446 327.83 224.497 335.123 213.251C331.052 212.233 327.087 211.215 323.234 210.328V210.222L323.778 202.248ZM389.979 202.698C381.718 205.033 372.77 205.864 364.627 205.476C365.333 196.759 366.064 187.98 366.782 179.119C375.43 179.044 383.597 176.577 392.695 173.468L389.973 202.698H389.979ZM308.716 171.919C308.286 179.837 307.792 188.317 307.361 196.11C302.01 196.041 297.021 196.46 292.225 198.096C292.575 190.921 292.931 183.696 293.281 176.427C298.226 174.123 303.078 172.119 308.723 171.913C309.154 164.132 309.591 156.302 310.028 148.415C304.302 149.108 299.406 151.562 294.398 154.303L295.472 132.304C300.149 129.182 305.732 126.89 311.302 125.592C310.871 133.253 310.446 140.865 310.028 148.415C315.491 147.559 321.48 147.672 327.324 148.352C327.849 140.097 328.373 131.792 328.904 123.4C335.354 123.081 341.886 123.044 348.929 122.7C348.274 131.692 347.393 141.858 346.763 150.632C353.675 151.443 361.405 151.668 369.111 150.719C369.879 141.446 371.04 129.638 371.833 120.003C380.463 118.173 389.286 115.526 398.59 111.061C397.591 121.701 396.617 132.236 395.636 142.689C386.314 146.654 377.953 149.895 369.104 150.719C368.324 160.267 367.55 169.733 366.782 179.125C359.226 179.406 351.639 178.538 344.846 177.17C344.24 185.688 343.622 194.137 343.022 202.523C336.385 201.155 330.153 199.588 324.052 198.339C324.583 190.165 325.226 181.479 325.744 173.305C320 172.15 314.099 171.532 308.723 171.919H308.716Z" fill="#FAFAFA"/>
</g>
<defs>
<clipPath id="clip0_3211_20665">
<rect width="210" height="210" fill="white" transform="translate(245 67)"/>
</clipPath>
</defs>
</svg>
