<svg width="700" height="554" viewBox="0 0 700 554" fill="none" xmlns="http://www.w3.org/2000/svg">
<rect width="700" height="554" fill="#3F2E42"/>
<path d="M288.124 411.028V413.62H284.764V417.076H282.148V413.62H278.788V411.028H282.148V407.572H284.764V411.028H288.124Z" fill="#FAFAFA"/>
<path d="M420.842 411.028V413.62H417.482V417.076H414.866V413.62H411.506V411.028H414.866V407.572H417.482V411.028H420.842Z" fill="#FAFAFA"/>
<rect x="166.5" y="367.332" width="366" height="123.618" stroke="#FAFAFA"/>
<path d="M208.803 454.958C208.123 454.958 207.507 454.874 206.955 454.706C206.403 454.53 205.923 454.282 205.515 453.962L205.935 452.978C206.207 453.186 206.487 453.358 206.775 453.494C207.071 453.63 207.383 453.734 207.711 453.806C208.047 453.87 208.411 453.902 208.803 453.902C209.475 453.902 209.967 453.782 210.279 453.542C210.599 453.302 210.759 452.986 210.759 452.594C210.759 452.258 210.647 451.998 210.423 451.814C210.207 451.63 209.823 451.482 209.271 451.37L207.963 451.106C207.187 450.946 206.607 450.686 206.223 450.326C205.847 449.958 205.659 449.458 205.659 448.826C205.659 448.314 205.795 447.866 206.067 447.482C206.339 447.098 206.715 446.802 207.195 446.594C207.683 446.386 208.251 446.282 208.899 446.282C209.499 446.282 210.051 446.37 210.555 446.546C211.059 446.714 211.483 446.966 211.827 447.302L211.419 448.25C211.059 447.938 210.675 447.71 210.267 447.566C209.859 447.414 209.395 447.338 208.875 447.338C208.259 447.338 207.775 447.466 207.423 447.722C207.079 447.978 206.907 448.326 206.907 448.766C206.907 449.118 207.015 449.394 207.231 449.594C207.455 449.794 207.823 449.946 208.335 450.05L209.643 450.302C210.451 450.47 211.047 450.73 211.431 451.082C211.815 451.426 212.007 451.902 212.007 452.51C212.007 452.998 211.875 453.426 211.611 453.794C211.355 454.162 210.987 454.45 210.507 454.658C210.027 454.858 209.459 454.958 208.803 454.958ZM213.432 457.442V450.254C213.432 450.022 213.42 449.786 213.396 449.546C213.38 449.298 213.36 449.05 213.336 448.802H214.512L214.632 450.17H214.5C214.628 449.714 214.884 449.354 215.268 449.09C215.66 448.826 216.124 448.694 216.66 448.694C217.196 448.694 217.664 448.822 218.064 449.078C218.464 449.326 218.772 449.682 218.988 450.146C219.212 450.61 219.324 451.17 219.324 451.826C219.324 452.474 219.212 453.034 218.988 453.506C218.772 453.978 218.464 454.338 218.064 454.586C217.664 454.834 217.196 454.958 216.66 454.958C216.132 454.958 215.672 454.83 215.28 454.574C214.896 454.31 214.64 453.954 214.512 453.506H214.644V457.442H213.432ZM216.36 454.01C216.888 454.01 217.308 453.826 217.62 453.458C217.94 453.09 218.1 452.546 218.1 451.826C218.1 451.106 217.94 450.566 217.62 450.206C217.308 449.838 216.888 449.654 216.36 449.654C215.832 449.654 215.408 449.838 215.088 450.206C214.776 450.566 214.62 451.106 214.62 451.826C214.62 452.546 214.776 453.09 215.088 453.458C215.408 453.826 215.832 454.01 216.36 454.01ZM223.541 454.958C222.565 454.958 221.797 454.682 221.237 454.13C220.677 453.578 220.397 452.814 220.397 451.838C220.397 451.206 220.517 450.654 220.757 450.182C221.005 449.71 221.345 449.346 221.777 449.09C222.217 448.826 222.725 448.694 223.301 448.694C223.869 448.694 224.345 448.814 224.729 449.054C225.113 449.294 225.405 449.634 225.605 450.074C225.805 450.506 225.905 451.018 225.905 451.61V451.994H221.345V451.298H225.077L224.873 451.454C224.873 450.854 224.737 450.39 224.465 450.062C224.201 449.726 223.817 449.558 223.313 449.558C222.753 449.558 222.321 449.754 222.017 450.146C221.713 450.53 221.561 451.062 221.561 451.742V451.862C221.561 452.574 221.733 453.11 222.077 453.47C222.429 453.83 222.925 454.01 223.565 454.01C223.917 454.01 224.245 453.962 224.549 453.866C224.861 453.762 225.157 453.594 225.437 453.362L225.833 454.19C225.553 454.438 225.213 454.63 224.813 454.766C224.413 454.894 223.989 454.958 223.541 454.958ZM230.092 454.958C229.116 454.958 228.348 454.682 227.788 454.13C227.228 453.578 226.948 452.814 226.948 451.838C226.948 451.206 227.068 450.654 227.308 450.182C227.556 449.71 227.896 449.346 228.328 449.09C228.768 448.826 229.276 448.694 229.852 448.694C230.42 448.694 230.896 448.814 231.28 449.054C231.664 449.294 231.956 449.634 232.156 450.074C232.356 450.506 232.456 451.018 232.456 451.61V451.994H227.896V451.298H231.628L231.424 451.454C231.424 450.854 231.288 450.39 231.016 450.062C230.752 449.726 230.368 449.558 229.864 449.558C229.304 449.558 228.872 449.754 228.568 450.146C228.264 450.53 228.112 451.062 228.112 451.742V451.862C228.112 452.574 228.284 453.11 228.628 453.47C228.98 453.83 229.476 454.01 230.116 454.01C230.468 454.01 230.796 453.962 231.1 453.866C231.412 453.762 231.708 453.594 231.988 453.362L232.384 454.19C232.104 454.438 231.764 454.63 231.364 454.766C230.964 454.894 230.54 454.958 230.092 454.958ZM236.499 454.958C235.891 454.958 235.359 454.834 234.903 454.586C234.455 454.33 234.107 453.966 233.859 453.494C233.619 453.014 233.499 452.446 233.499 451.79C233.499 451.142 233.623 450.586 233.871 450.122C234.119 449.658 234.467 449.306 234.915 449.066C235.363 448.818 235.891 448.694 236.499 448.694C236.891 448.694 237.271 448.762 237.639 448.898C238.007 449.026 238.311 449.21 238.551 449.45L238.155 450.302C237.931 450.086 237.679 449.926 237.399 449.822C237.119 449.71 236.847 449.654 236.583 449.654C236.007 449.654 235.555 449.838 235.227 450.206C234.899 450.574 234.735 451.106 234.735 451.802C234.735 452.506 234.899 453.046 235.227 453.422C235.555 453.798 236.007 453.986 236.583 453.986C236.839 453.986 237.107 453.938 237.387 453.842C237.667 453.738 237.923 453.574 238.155 453.35L238.551 454.202C238.303 454.442 237.991 454.63 237.615 454.766C237.247 454.894 236.875 454.958 236.499 454.958ZM239.835 454.85V446.018H241.047V450.086H240.879C241.055 449.63 241.339 449.286 241.731 449.054C242.123 448.814 242.575 448.694 243.087 448.694C243.807 448.694 244.343 448.894 244.695 449.294C245.047 449.686 245.223 450.282 245.223 451.082V454.85H244.011V451.154C244.011 450.634 243.907 450.258 243.699 450.026C243.499 449.786 243.179 449.666 242.739 449.666C242.227 449.666 241.815 449.826 241.503 450.146C241.199 450.458 241.047 450.874 241.047 451.394V454.85H239.835ZM206.796 469.85V461.39H210.324C211.236 461.39 211.936 461.582 212.424 461.966C212.92 462.35 213.168 462.89 213.168 463.586C213.168 464.106 213.012 464.542 212.7 464.894C212.388 465.246 211.96 465.482 211.416 465.602V465.422C212.04 465.502 212.524 465.722 212.868 466.082C213.212 466.442 213.384 466.918 213.384 467.51C213.384 468.262 213.128 468.842 212.616 469.25C212.112 469.65 211.4 469.85 210.48 469.85H206.796ZM208.008 468.878H210.348C210.916 468.878 211.36 468.77 211.68 468.554C212.008 468.338 212.172 467.974 212.172 467.462C212.172 466.95 212.008 466.586 211.68 466.37C211.36 466.154 210.916 466.046 210.348 466.046H208.008V468.878ZM208.008 465.086H210.132C210.74 465.086 211.196 464.97 211.5 464.738C211.804 464.506 211.956 464.166 211.956 463.718C211.956 463.27 211.804 462.93 211.5 462.698C211.196 462.466 210.74 462.35 210.132 462.35H208.008V465.086ZM217.051 469.958C216.323 469.958 215.775 469.762 215.407 469.37C215.047 468.97 214.867 468.358 214.867 467.534V463.802H216.079V467.51C216.079 468.014 216.183 468.386 216.391 468.626C216.599 468.866 216.915 468.986 217.339 468.986C217.819 468.986 218.207 468.826 218.503 468.506C218.799 468.186 218.947 467.762 218.947 467.234V463.802H220.159V469.85H218.983V468.554H219.139C218.971 469.002 218.703 469.35 218.335 469.598C217.967 469.838 217.539 469.958 217.051 469.958ZM225.162 469.958C224.634 469.958 224.174 469.826 223.782 469.562C223.39 469.298 223.13 468.938 223.002 468.482H223.134V469.85H221.934V461.018H223.146V465.146H223.002C223.138 464.698 223.398 464.346 223.782 464.09C224.174 463.826 224.634 463.694 225.162 463.694C225.698 463.694 226.166 463.822 226.566 464.078C226.966 464.326 227.274 464.686 227.49 465.158C227.714 465.622 227.826 466.182 227.826 466.838C227.826 467.486 227.714 468.046 227.49 468.518C227.274 468.982 226.962 469.338 226.554 469.586C226.154 469.834 225.69 469.958 225.162 469.958ZM224.862 469.01C225.382 469.01 225.802 468.83 226.122 468.47C226.442 468.102 226.602 467.558 226.602 466.838C226.602 466.11 226.442 465.566 226.122 465.206C225.802 464.838 225.382 464.654 224.862 464.654C224.334 464.654 223.91 464.838 223.59 465.206C223.278 465.566 223.122 466.106 223.122 466.826C223.122 467.546 223.278 468.09 223.59 468.458C223.91 468.826 224.334 469.01 224.862 469.01ZM232.475 469.958C231.947 469.958 231.487 469.826 231.095 469.562C230.703 469.298 230.443 468.938 230.315 468.482H230.447V469.85H229.247V461.018H230.459V465.146H230.315C230.451 464.698 230.711 464.346 231.095 464.09C231.487 463.826 231.947 463.694 232.475 463.694C233.011 463.694 233.479 463.822 233.879 464.078C234.279 464.326 234.587 464.686 234.803 465.158C235.027 465.622 235.139 466.182 235.139 466.838C235.139 467.486 235.027 468.046 234.803 468.518C234.587 468.982 234.275 469.338 233.867 469.586C233.467 469.834 233.003 469.958 232.475 469.958ZM232.175 469.01C232.695 469.01 233.115 468.83 233.435 468.47C233.755 468.102 233.915 467.558 233.915 466.838C233.915 466.11 233.755 465.566 233.435 465.206C233.115 464.838 232.695 464.654 232.175 464.654C231.647 464.654 231.223 464.838 230.903 465.206C230.591 465.566 230.435 466.106 230.435 466.826C230.435 467.546 230.591 468.09 230.903 468.458C231.223 468.826 231.647 469.01 232.175 469.01ZM236.559 469.85V461.018H237.771V469.85H236.559ZM242.344 469.958C241.368 469.958 240.6 469.682 240.04 469.13C239.48 468.578 239.2 467.814 239.2 466.838C239.2 466.206 239.32 465.654 239.56 465.182C239.808 464.71 240.148 464.346 240.58 464.09C241.02 463.826 241.528 463.694 242.104 463.694C242.672 463.694 243.148 463.814 243.532 464.054C243.916 464.294 244.208 464.634 244.408 465.074C244.608 465.506 244.708 466.018 244.708 466.61V466.994H240.148V466.298H243.88L243.676 466.454C243.676 465.854 243.54 465.39 243.268 465.062C243.004 464.726 242.62 464.558 242.116 464.558C241.556 464.558 241.124 464.754 240.82 465.146C240.516 465.53 240.364 466.062 240.364 466.742V466.862C240.364 467.574 240.536 468.11 240.88 468.47C241.232 468.83 241.728 469.01 242.368 469.01C242.72 469.01 243.048 468.962 243.352 468.866C243.664 468.762 243.96 468.594 244.24 468.362L244.636 469.19C244.356 469.438 244.016 469.63 243.616 469.766C243.216 469.894 242.792 469.958 242.344 469.958Z" fill="#FAFAFA"/>
<path d="M226.752 387.395C241.033 387.395 252.61 396.3 252.61 407.285C252.61 418.271 241.033 427.177 226.752 427.177C223.837 427.177 221.035 426.805 218.421 426.121L207.326 434.805L210.502 422.757C204.642 419.11 200.894 413.535 200.894 407.285C200.894 396.3 212.471 387.395 226.752 387.395Z" fill="#FAFAFA"/>
<path d="M324.81 454.958C323.946 454.958 323.21 454.782 322.602 454.43C321.994 454.078 321.526 453.578 321.198 452.93C320.878 452.274 320.718 451.502 320.718 450.614C320.718 449.726 320.878 448.958 321.198 448.31C321.526 447.662 321.994 447.162 322.602 446.81C323.21 446.458 323.946 446.282 324.81 446.282C325.41 446.282 325.946 446.37 326.418 446.546C326.89 446.722 327.302 446.978 327.654 447.314L327.222 448.31C326.838 447.982 326.462 447.746 326.094 447.602C325.734 447.458 325.314 447.386 324.834 447.386C323.922 447.386 323.226 447.666 322.746 448.226C322.266 448.786 322.026 449.582 322.026 450.614C322.026 451.646 322.266 452.446 322.746 453.014C323.226 453.574 323.922 453.854 324.834 453.854C325.314 453.854 325.734 453.782 326.094 453.638C326.462 453.494 326.838 453.254 327.222 452.918L327.654 453.914C327.302 454.25 326.89 454.51 326.418 454.694C325.946 454.87 325.41 454.958 324.81 454.958ZM329.113 454.85V446.018H330.325V450.086H330.157C330.333 449.63 330.617 449.286 331.009 449.054C331.401 448.814 331.853 448.694 332.365 448.694C333.085 448.694 333.621 448.894 333.973 449.294C334.325 449.686 334.501 450.282 334.501 451.082V454.85H333.289V451.154C333.289 450.634 333.185 450.258 332.977 450.026C332.777 449.786 332.457 449.666 332.017 449.666C331.505 449.666 331.093 449.826 330.781 450.146C330.477 450.458 330.325 450.874 330.325 451.394V454.85H329.113ZM339.022 454.958C338.046 454.958 337.278 454.682 336.718 454.13C336.158 453.578 335.878 452.814 335.878 451.838C335.878 451.206 335.998 450.654 336.238 450.182C336.486 449.71 336.826 449.346 337.258 449.09C337.698 448.826 338.206 448.694 338.782 448.694C339.35 448.694 339.826 448.814 340.21 449.054C340.594 449.294 340.886 449.634 341.086 450.074C341.286 450.506 341.386 451.018 341.386 451.61V451.994H336.826V451.298H340.558L340.354 451.454C340.354 450.854 340.218 450.39 339.946 450.062C339.682 449.726 339.298 449.558 338.794 449.558C338.234 449.558 337.802 449.754 337.498 450.146C337.194 450.53 337.042 451.062 337.042 451.742V451.862C337.042 452.574 337.214 453.11 337.558 453.47C337.91 453.83 338.406 454.01 339.046 454.01C339.398 454.01 339.726 453.962 340.03 453.866C340.342 453.762 340.638 453.594 340.918 453.362L341.314 454.19C341.034 454.438 340.694 454.63 340.294 454.766C339.894 454.894 339.47 454.958 339.022 454.958ZM345.429 454.958C344.821 454.958 344.289 454.834 343.833 454.586C343.385 454.33 343.037 453.966 342.789 453.494C342.549 453.014 342.429 452.446 342.429 451.79C342.429 451.142 342.553 450.586 342.801 450.122C343.049 449.658 343.397 449.306 343.845 449.066C344.293 448.818 344.821 448.694 345.429 448.694C345.821 448.694 346.201 448.762 346.569 448.898C346.937 449.026 347.241 449.21 347.481 449.45L347.085 450.302C346.861 450.086 346.609 449.926 346.329 449.822C346.049 449.71 345.777 449.654 345.513 449.654C344.937 449.654 344.485 449.838 344.157 450.206C343.829 450.574 343.665 451.106 343.665 451.802C343.665 452.506 343.829 453.046 344.157 453.422C344.485 453.798 344.937 453.986 345.513 453.986C345.769 453.986 346.037 453.938 346.317 453.842C346.597 453.738 346.853 453.574 347.085 453.35L347.481 454.202C347.233 454.442 346.921 454.63 346.545 454.766C346.177 454.894 345.805 454.958 345.429 454.958ZM348.765 454.85V446.018H349.977V451.442H350.001L352.641 448.802H354.141L350.949 451.982L350.961 451.442L354.405 454.85H352.869L350.001 452.078H349.977V454.85H348.765ZM357.819 454.958C356.843 454.958 356.075 454.682 355.515 454.13C354.955 453.578 354.675 452.814 354.675 451.838C354.675 451.206 354.795 450.654 355.035 450.182C355.283 449.71 355.623 449.346 356.055 449.09C356.495 448.826 357.003 448.694 357.579 448.694C358.147 448.694 358.623 448.814 359.007 449.054C359.391 449.294 359.683 449.634 359.883 450.074C360.083 450.506 360.183 451.018 360.183 451.61V451.994H355.623V451.298H359.355L359.151 451.454C359.151 450.854 359.015 450.39 358.743 450.062C358.479 449.726 358.095 449.558 357.591 449.558C357.031 449.558 356.599 449.754 356.295 450.146C355.991 450.53 355.839 451.062 355.839 451.742V451.862C355.839 452.574 356.011 453.11 356.355 453.47C356.707 453.83 357.203 454.01 357.843 454.01C358.195 454.01 358.523 453.962 358.827 453.866C359.139 453.762 359.435 453.594 359.715 453.362L360.111 454.19C359.831 454.438 359.491 454.63 359.091 454.766C358.691 454.894 358.267 454.958 357.819 454.958ZM361.55 454.85V450.302C361.55 450.054 361.542 449.806 361.526 449.558C361.518 449.302 361.502 449.05 361.478 448.802H362.654L362.786 450.362H362.594C362.674 449.986 362.81 449.674 363.002 449.426C363.194 449.178 363.426 448.994 363.698 448.874C363.978 448.754 364.27 448.694 364.574 448.694C364.702 448.694 364.81 448.702 364.898 448.718C364.986 448.726 365.074 448.742 365.162 448.766L365.15 449.846C365.014 449.79 364.894 449.758 364.79 449.75C364.694 449.734 364.574 449.726 364.43 449.726C364.078 449.726 363.778 449.806 363.53 449.966C363.282 450.118 363.094 450.326 362.966 450.59C362.838 450.854 362.774 451.138 362.774 451.442V454.85H361.55ZM368.811 454.958C367.835 454.958 367.067 454.682 366.507 454.13C365.947 453.578 365.667 452.814 365.667 451.838C365.667 451.206 365.787 450.654 366.027 450.182C366.275 449.71 366.615 449.346 367.047 449.09C367.487 448.826 367.995 448.694 368.571 448.694C369.139 448.694 369.615 448.814 369.999 449.054C370.383 449.294 370.675 449.634 370.875 450.074C371.075 450.506 371.175 451.018 371.175 451.61V451.994H366.615V451.298H370.347L370.143 451.454C370.143 450.854 370.007 450.39 369.735 450.062C369.471 449.726 369.087 449.558 368.583 449.558C368.023 449.558 367.591 449.754 367.287 450.146C366.983 450.53 366.831 451.062 366.831 451.742V451.862C366.831 452.574 367.003 453.11 367.347 453.47C367.699 453.83 368.195 454.01 368.835 454.01C369.187 454.01 369.515 453.962 369.819 453.866C370.131 453.762 370.427 453.594 370.707 453.362L371.103 454.19C370.823 454.438 370.483 454.63 370.083 454.766C369.683 454.894 369.259 454.958 368.811 454.958ZM374.882 454.958C374.354 454.958 373.886 454.834 373.478 454.586C373.078 454.338 372.766 453.978 372.542 453.506C372.326 453.034 372.218 452.474 372.218 451.826C372.218 451.17 372.326 450.61 372.542 450.146C372.766 449.682 373.078 449.326 373.478 449.078C373.886 448.822 374.354 448.694 374.882 448.694C375.402 448.694 375.858 448.826 376.25 449.09C376.65 449.346 376.914 449.698 377.042 450.146H376.898V446.018H378.11V454.85H376.91V453.482H377.054C376.918 453.938 376.654 454.298 376.262 454.562C375.87 454.826 375.41 454.958 374.882 454.958ZM375.182 454.01C375.702 454.01 376.122 453.826 376.442 453.458C376.762 453.09 376.922 452.546 376.922 451.826C376.922 451.106 376.762 450.566 376.442 450.206C376.122 449.838 375.702 449.654 375.182 449.654C374.654 449.654 374.23 449.838 373.91 450.206C373.598 450.566 373.442 451.106 373.442 451.826C373.442 452.546 373.598 453.09 373.91 453.458C374.23 453.826 374.654 454.01 375.182 454.01ZM338.267 469.85V461.39H343.691V462.386H339.515V465.098H343.415V466.094H339.515V469.85H338.267ZM344.968 469.85V461.018H346.18V469.85H344.968ZM350.272 469.958C349.736 469.958 349.268 469.834 348.868 469.586C348.468 469.338 348.156 468.978 347.932 468.506C347.716 468.034 347.608 467.474 347.608 466.826C347.608 466.17 347.716 465.61 347.932 465.146C348.156 464.682 348.468 464.326 348.868 464.078C349.268 463.822 349.736 463.694 350.272 463.694C350.8 463.694 351.26 463.826 351.652 464.09C352.044 464.354 352.304 464.714 352.432 465.17H352.3L352.42 463.802H353.596C353.572 464.05 353.548 464.298 353.524 464.546C353.508 464.786 353.5 465.022 353.5 465.254V469.85H352.288V468.506H352.42C352.292 468.954 352.028 469.31 351.628 469.574C351.236 469.83 350.784 469.958 350.272 469.958ZM350.572 469.01C351.092 469.01 351.508 468.826 351.82 468.458C352.14 468.09 352.3 467.546 352.3 466.826C352.3 466.106 352.14 465.566 351.82 465.206C351.508 464.838 351.092 464.654 350.572 464.654C350.044 464.654 349.62 464.838 349.3 465.206C348.988 465.566 348.832 466.106 348.832 466.826C348.832 467.546 348.988 468.09 349.3 468.458C349.612 468.826 350.036 469.01 350.572 469.01ZM357.993 472.538C357.449 472.538 356.953 472.474 356.505 472.346C356.065 472.218 355.669 472.026 355.317 471.77L355.617 470.882C355.865 471.05 356.109 471.182 356.349 471.278C356.589 471.382 356.841 471.458 357.105 471.506C357.369 471.554 357.641 471.578 357.921 471.578C358.497 471.578 358.929 471.43 359.217 471.134C359.513 470.846 359.661 470.426 359.661 469.874V468.254H359.781C359.653 468.702 359.389 469.058 358.989 469.322C358.597 469.578 358.141 469.706 357.621 469.706C357.069 469.706 356.589 469.586 356.181 469.346C355.781 469.098 355.469 468.75 355.245 468.302C355.029 467.846 354.921 467.31 354.921 466.694C354.921 466.078 355.029 465.546 355.245 465.098C355.469 464.65 355.781 464.306 356.181 464.066C356.589 463.818 357.069 463.694 357.621 463.694C358.149 463.694 358.605 463.826 358.989 464.09C359.381 464.346 359.641 464.698 359.769 465.146L359.661 465.05L359.769 463.802H360.945C360.913 464.05 360.889 464.298 360.873 464.546C360.857 464.786 360.849 465.022 360.849 465.254V469.73C360.849 470.642 360.605 471.338 360.117 471.818C359.637 472.298 358.929 472.538 357.993 472.538ZM357.909 468.758C358.437 468.758 358.857 468.578 359.169 468.218C359.489 467.858 359.649 467.35 359.649 466.694C359.649 466.038 359.489 465.534 359.169 465.182C358.857 464.83 358.437 464.654 357.909 464.654C357.365 464.654 356.933 464.83 356.613 465.182C356.301 465.534 356.145 466.038 356.145 466.694C356.145 467.35 356.301 467.858 356.613 468.218C356.933 468.578 357.365 468.758 357.909 468.758Z" fill="#FAFAFA"/>
<path d="M447.995 454.85V446.39H449.243V453.782H453.395V454.85H447.995ZM454.508 454.85V448.802H455.72V454.85H454.508ZM454.412 447.542V446.282H455.816V447.542H454.412ZM460.22 457.538C459.676 457.538 459.18 457.474 458.732 457.346C458.292 457.218 457.896 457.026 457.544 456.77L457.844 455.882C458.092 456.05 458.336 456.182 458.576 456.278C458.816 456.382 459.068 456.458 459.332 456.506C459.596 456.554 459.868 456.578 460.148 456.578C460.724 456.578 461.156 456.43 461.444 456.134C461.74 455.846 461.888 455.426 461.888 454.874V453.254H462.008C461.88 453.702 461.616 454.058 461.216 454.322C460.824 454.578 460.368 454.706 459.848 454.706C459.296 454.706 458.816 454.586 458.408 454.346C458.008 454.098 457.696 453.75 457.472 453.302C457.256 452.846 457.148 452.31 457.148 451.694C457.148 451.078 457.256 450.546 457.472 450.098C457.696 449.65 458.008 449.306 458.408 449.066C458.816 448.818 459.296 448.694 459.848 448.694C460.376 448.694 460.832 448.826 461.216 449.09C461.608 449.346 461.868 449.698 461.996 450.146L461.888 450.05L461.996 448.802H463.172C463.14 449.05 463.116 449.298 463.1 449.546C463.084 449.786 463.076 450.022 463.076 450.254V454.73C463.076 455.642 462.832 456.338 462.344 456.818C461.864 457.298 461.156 457.538 460.22 457.538ZM460.136 453.758C460.664 453.758 461.084 453.578 461.396 453.218C461.716 452.858 461.876 452.35 461.876 451.694C461.876 451.038 461.716 450.534 461.396 450.182C461.084 449.83 460.664 449.654 460.136 449.654C459.592 449.654 459.16 449.83 458.84 450.182C458.528 450.534 458.372 451.038 458.372 451.694C458.372 452.35 458.528 452.858 458.84 453.218C459.16 453.578 459.592 453.758 460.136 453.758ZM464.844 454.85V446.018H466.056V450.086H465.888C466.064 449.63 466.348 449.286 466.74 449.054C467.132 448.814 467.584 448.694 468.096 448.694C468.816 448.694 469.352 448.894 469.704 449.294C470.056 449.686 470.232 450.282 470.232 451.082V454.85H469.02V451.154C469.02 450.634 468.916 450.258 468.708 450.026C468.508 449.786 468.188 449.666 467.748 449.666C467.236 449.666 466.824 449.826 466.512 450.146C466.208 450.458 466.056 450.874 466.056 451.394V454.85H464.844ZM474.309 454.958C473.653 454.958 473.157 454.782 472.821 454.43C472.485 454.07 472.317 453.534 472.317 452.822V449.738H471.141V448.802H472.317V447.206L473.529 446.882V448.802H475.209V449.738H473.529V452.714C473.529 453.162 473.609 453.482 473.769 453.674C473.929 453.866 474.161 453.962 474.465 453.962C474.617 453.962 474.749 453.95 474.861 453.926C474.981 453.894 475.089 453.858 475.185 453.818V454.802C475.065 454.85 474.925 454.886 474.765 454.91C474.605 454.942 474.453 454.958 474.309 454.958ZM476.317 454.85V450.254C476.317 450.022 476.305 449.786 476.281 449.546C476.265 449.298 476.245 449.05 476.221 448.802H477.397L477.505 450.074H477.361C477.545 449.626 477.829 449.286 478.213 449.054C478.597 448.814 479.041 448.694 479.545 448.694C480.257 448.694 480.793 448.89 481.153 449.282C481.521 449.674 481.705 450.282 481.705 451.106V454.85H480.493V451.178C480.493 450.642 480.385 450.258 480.169 450.026C479.961 449.786 479.641 449.666 479.209 449.666C478.697 449.666 478.289 449.826 477.985 450.146C477.681 450.458 477.529 450.882 477.529 451.418V454.85H476.317ZM483.43 454.85V448.802H484.642V454.85H483.43ZM483.334 447.542V446.282H484.738V447.542H483.334ZM486.418 454.85V450.254C486.418 450.022 486.406 449.786 486.382 449.546C486.366 449.298 486.346 449.05 486.322 448.802H487.498L487.606 450.074H487.462C487.646 449.626 487.93 449.286 488.314 449.054C488.698 448.814 489.142 448.694 489.646 448.694C490.358 448.694 490.894 448.89 491.254 449.282C491.622 449.674 491.806 450.282 491.806 451.106V454.85H490.594V451.178C490.594 450.642 490.486 450.258 490.27 450.026C490.062 449.786 489.742 449.666 489.31 449.666C488.798 449.666 488.39 449.826 488.086 450.146C487.782 450.458 487.63 450.882 487.63 451.418V454.85H486.418ZM496.256 457.538C495.712 457.538 495.216 457.474 494.768 457.346C494.328 457.218 493.932 457.026 493.58 456.77L493.88 455.882C494.128 456.05 494.372 456.182 494.612 456.278C494.852 456.382 495.104 456.458 495.368 456.506C495.632 456.554 495.904 456.578 496.184 456.578C496.76 456.578 497.192 456.43 497.48 456.134C497.776 455.846 497.924 455.426 497.924 454.874V453.254H498.044C497.916 453.702 497.652 454.058 497.252 454.322C496.86 454.578 496.404 454.706 495.884 454.706C495.332 454.706 494.852 454.586 494.444 454.346C494.044 454.098 493.732 453.75 493.508 453.302C493.292 452.846 493.184 452.31 493.184 451.694C493.184 451.078 493.292 450.546 493.508 450.098C493.732 449.65 494.044 449.306 494.444 449.066C494.852 448.818 495.332 448.694 495.884 448.694C496.412 448.694 496.868 448.826 497.252 449.09C497.644 449.346 497.904 449.698 498.032 450.146L497.924 450.05L498.032 448.802H499.208C499.176 449.05 499.152 449.298 499.136 449.546C499.12 449.786 499.112 450.022 499.112 450.254V454.73C499.112 455.642 498.868 456.338 498.38 456.818C497.9 457.298 497.192 457.538 496.256 457.538ZM496.172 453.758C496.7 453.758 497.12 453.578 497.432 453.218C497.752 452.858 497.912 452.35 497.912 451.694C497.912 451.038 497.752 450.534 497.432 450.182C497.12 449.83 496.7 449.654 496.172 449.654C495.628 449.654 495.196 449.83 494.876 450.182C494.564 450.534 494.408 451.038 494.408 451.694C494.408 452.35 494.564 452.858 494.876 453.218C495.196 453.578 495.628 453.758 496.172 453.758ZM463.224 469.85V461.39H466.752C467.664 461.39 468.364 461.582 468.852 461.966C469.348 462.35 469.596 462.89 469.596 463.586C469.596 464.106 469.44 464.542 469.128 464.894C468.816 465.246 468.388 465.482 467.844 465.602V465.422C468.468 465.502 468.952 465.722 469.296 466.082C469.64 466.442 469.812 466.918 469.812 467.51C469.812 468.262 469.556 468.842 469.044 469.25C468.54 469.65 467.828 469.85 466.908 469.85H463.224ZM464.436 468.878H466.776C467.344 468.878 467.788 468.77 468.108 468.554C468.436 468.338 468.6 467.974 468.6 467.462C468.6 466.95 468.436 466.586 468.108 466.37C467.788 466.154 467.344 466.046 466.776 466.046H464.436V468.878ZM464.436 465.086H466.56C467.168 465.086 467.624 464.97 467.928 464.738C468.232 464.506 468.384 464.166 468.384 463.718C468.384 463.27 468.232 462.93 467.928 462.698C467.624 462.466 467.168 462.35 466.56 462.35H464.436V465.086ZM473.922 469.958C473.322 469.958 472.802 469.834 472.362 469.586C471.922 469.33 471.582 468.97 471.342 468.506C471.102 468.034 470.982 467.474 470.982 466.826C470.982 466.178 471.102 465.622 471.342 465.158C471.582 464.686 471.922 464.326 472.362 464.078C472.802 463.822 473.322 463.694 473.922 463.694C474.522 463.694 475.042 463.822 475.482 464.078C475.93 464.326 476.274 464.686 476.514 465.158C476.762 465.622 476.886 466.178 476.886 466.826C476.886 467.474 476.762 468.034 476.514 468.506C476.274 468.97 475.93 469.33 475.482 469.586C475.042 469.834 474.522 469.958 473.922 469.958ZM473.922 469.01C474.45 469.01 474.87 468.826 475.182 468.458C475.494 468.09 475.65 467.546 475.65 466.826C475.65 466.106 475.494 465.566 475.182 465.206C474.87 464.838 474.45 464.654 473.922 464.654C473.402 464.654 472.986 464.838 472.674 465.206C472.362 465.566 472.206 466.106 472.206 466.826C472.206 467.546 472.358 468.09 472.662 468.458C472.974 468.826 473.394 469.01 473.922 469.01ZM478.303 469.85V461.018H479.515V469.85H478.303ZM483.643 469.958C482.987 469.958 482.491 469.782 482.155 469.43C481.819 469.07 481.651 468.534 481.651 467.822V464.738H480.475V463.802H481.651V462.206L482.863 461.882V463.802H484.543V464.738H482.863V467.714C482.863 468.162 482.943 468.482 483.103 468.674C483.263 468.866 483.495 468.962 483.799 468.962C483.951 468.962 484.083 468.95 484.195 468.926C484.315 468.894 484.423 468.858 484.519 468.818V469.802C484.399 469.85 484.259 469.886 484.099 469.91C483.939 469.942 483.787 469.958 483.643 469.958Z" fill="#FAFAFA"/>
<path d="M461.345 415.991L479.25 388.018L477.559 407.555H489.384L466.966 433.503L472.04 415.727L461.345 415.991Z" fill="#FAFAFA"/>
<rect x="299.115" y="343.902" width="98.2814" height="39.8102" fill="#3F2E42"/>
<path d="M323.719 370.412C322.589 370.412 321.629 370.177 320.839 369.708C320.05 369.238 319.442 368.572 319.015 367.708C318.599 366.844 318.391 365.814 318.391 364.62C318.391 363.425 318.599 362.401 319.015 361.548C319.442 360.684 320.05 360.017 320.839 359.548C321.629 359.078 322.589 358.844 323.719 358.844C324.519 358.844 325.234 358.966 325.863 359.212C326.493 359.457 327.042 359.814 327.511 360.284L327.015 361.34C326.503 360.892 325.997 360.566 325.495 360.364C324.994 360.15 324.407 360.044 323.735 360.044C322.445 360.044 321.463 360.444 320.791 361.244C320.119 362.044 319.783 363.169 319.783 364.62C319.783 366.07 320.119 367.201 320.791 368.012C321.463 368.812 322.445 369.212 323.735 369.212C324.407 369.212 324.994 369.11 325.495 368.908C325.997 368.694 326.503 368.358 327.015 367.9L327.511 368.972C327.042 369.43 326.493 369.788 325.863 370.044C325.234 370.289 324.519 370.412 323.719 370.412ZM332.334 370.412C331.566 370.412 330.894 370.246 330.318 369.916C329.753 369.574 329.316 369.094 329.006 368.476C328.697 367.846 328.542 367.105 328.542 366.252C328.542 365.388 328.697 364.646 329.006 364.028C329.316 363.409 329.753 362.934 330.318 362.604C330.894 362.262 331.566 362.092 332.334 362.092C333.113 362.092 333.785 362.262 334.35 362.604C334.926 362.934 335.369 363.409 335.678 364.028C335.998 364.646 336.158 365.388 336.158 366.252C336.158 367.105 335.998 367.846 335.678 368.476C335.369 369.094 334.926 369.574 334.35 369.916C333.785 370.246 333.113 370.412 332.334 370.412ZM332.334 369.356C333.102 369.356 333.71 369.094 334.158 368.572C334.606 368.038 334.83 367.265 334.83 366.252C334.83 365.228 334.601 364.454 334.142 363.932C333.694 363.398 333.092 363.132 332.334 363.132C331.577 363.132 330.974 363.398 330.526 363.932C330.078 364.454 329.854 365.228 329.854 366.252C329.854 367.265 330.078 368.038 330.526 368.572C330.974 369.094 331.577 369.356 332.334 369.356ZM338.179 370.268V364.092C338.179 363.793 338.163 363.489 338.131 363.18C338.11 362.86 338.083 362.545 338.051 362.236H339.299L339.459 363.996H339.267C339.502 363.377 339.875 362.908 340.387 362.588C340.91 362.257 341.512 362.092 342.195 362.092C343.144 362.092 343.859 362.348 344.339 362.86C344.83 363.361 345.075 364.156 345.075 365.244V370.268H343.779V365.324C343.779 364.566 343.624 364.017 343.315 363.676C343.016 363.324 342.547 363.148 341.907 363.148C341.16 363.148 340.568 363.377 340.131 363.836C339.694 364.294 339.475 364.908 339.475 365.676V370.268H338.179ZM350.93 370.412C350.141 370.412 349.453 370.241 348.866 369.9C348.29 369.558 347.842 369.073 347.522 368.444C347.213 367.814 347.058 367.068 347.058 366.204C347.058 365.329 347.218 364.588 347.538 363.98C347.858 363.361 348.306 362.892 348.882 362.572C349.469 362.252 350.151 362.092 350.93 362.092C351.442 362.092 351.938 362.182 352.418 362.364C352.909 362.545 353.314 362.801 353.634 363.132L353.17 364.06C352.85 363.75 352.498 363.521 352.114 363.372C351.741 363.222 351.373 363.148 351.01 363.148C350.178 363.148 349.533 363.409 349.074 363.932C348.615 364.454 348.386 365.217 348.386 366.22C348.386 367.212 348.615 367.98 349.074 368.524C349.533 369.068 350.178 369.34 351.01 369.34C351.362 369.34 351.725 369.27 352.098 369.132C352.482 368.993 352.839 368.764 353.17 368.444L353.634 369.356C353.303 369.697 352.893 369.958 352.402 370.14C351.911 370.321 351.421 370.412 350.93 370.412ZM358.888 370.412C357.629 370.412 356.637 370.049 355.912 369.324C355.186 368.588 354.824 367.569 354.824 366.268C354.824 365.425 354.984 364.694 355.304 364.076C355.624 363.446 356.072 362.961 356.648 362.62C357.224 362.268 357.885 362.092 358.632 362.092C359.368 362.092 359.986 362.246 360.488 362.556C360.989 362.865 361.373 363.308 361.64 363.884C361.906 364.449 362.04 365.121 362.04 365.9V366.38H355.816V365.564H361.192L360.92 365.772C360.92 364.918 360.728 364.252 360.344 363.772C359.96 363.292 359.389 363.052 358.632 363.052C357.832 363.052 357.208 363.334 356.76 363.9C356.312 364.454 356.088 365.206 356.088 366.156V366.3C356.088 367.302 356.333 368.065 356.824 368.588C357.325 369.1 358.024 369.356 358.92 369.356C359.4 369.356 359.848 369.286 360.264 369.148C360.69 368.998 361.096 368.758 361.48 368.428L361.928 369.34C361.576 369.681 361.128 369.948 360.584 370.14C360.05 370.321 359.485 370.412 358.888 370.412ZM364.023 373.724V364.092C364.023 363.793 364.007 363.489 363.975 363.18C363.953 362.86 363.927 362.545 363.895 362.236H365.143L365.319 364.14H365.127C365.297 363.51 365.644 363.014 366.167 362.652C366.689 362.278 367.313 362.092 368.039 362.092C368.764 362.092 369.388 362.257 369.911 362.588C370.444 362.918 370.86 363.393 371.159 364.012C371.457 364.63 371.607 365.377 371.607 366.252C371.607 367.116 371.457 367.857 371.159 368.476C370.871 369.094 370.46 369.574 369.927 369.916C369.393 370.246 368.764 370.412 368.039 370.412C367.324 370.412 366.705 370.23 366.183 369.868C365.66 369.505 365.313 369.009 365.143 368.38H365.319V373.724H364.023ZM367.783 369.356C368.551 369.356 369.159 369.094 369.607 368.572C370.065 368.038 370.295 367.265 370.295 366.252C370.295 365.228 370.065 364.454 369.607 363.932C369.159 363.398 368.551 363.132 367.783 363.132C367.025 363.132 366.417 363.398 365.959 363.932C365.511 364.454 365.287 365.228 365.287 366.252C365.287 367.265 365.511 368.038 365.959 368.572C366.417 369.094 367.025 369.356 367.783 369.356ZM376.386 370.412C375.597 370.412 374.994 370.188 374.578 369.74C374.162 369.281 373.954 368.593 373.954 367.676V363.244H372.386V362.236H373.954V360.044L375.25 359.676V362.236H377.554V363.244H375.25V367.532C375.25 368.172 375.357 368.63 375.57 368.908C375.794 369.174 376.125 369.308 376.562 369.308C376.765 369.308 376.946 369.292 377.106 369.26C377.266 369.217 377.41 369.169 377.538 369.116V370.204C377.389 370.268 377.208 370.316 376.994 370.348C376.792 370.39 376.589 370.412 376.386 370.412Z" fill="#FFD655"/>
<rect x="318.035" y="404.217" width="12.4618" height="12.4618" fill="#FAFAFA"/>
<rect x="330.496" y="416.68" width="12.4618" height="12.4618" fill="#FAFAFA"/>
<rect x="330.496" y="391.758" width="12.4618" height="12.4618" fill="#FAFAFA"/>
<rect x="342.958" y="404.217" width="12.4618" height="12.4618" fill="#FAFAFA"/>
<rect x="355.419" y="416.68" width="12.4618" height="12.4618" fill="#FAFAFA"/>
<rect x="355.419" y="391.758" width="12.4618" height="12.4618" fill="#FAFAFA"/>
<rect x="367.881" y="404.217" width="12.4618" height="12.4618" fill="#FAFAFA"/>
<rect x="317.035" y="390.758" width="64.309" height="39.3854" stroke="#FAFAFA" stroke-width="2"/>
<g clip-path="url(#clip0_3211_20665)">
<path d="M408.992 242.699C383.951 253.338 361.755 250.534 341.953 246.011L302.516 304.905C317.023 311.403 333.103 314.973 349.99 314.98C412.875 316.281 468.273 260.874 466.979 197.987C467.118 162.285 450.566 128.316 422.567 106.217L408.992 242.699ZM344.973 253.561C369.59 258.94 392.774 257.833 415.275 247.327C419.186 208.097 423.207 167.601 427.312 126.305C427.333 126.333 427.361 126.353 427.382 126.381C445.507 145.927 455.429 171.198 455.429 197.994C456.647 254.514 406.717 304.564 350.275 303.395C338.363 303.395 326.681 301.419 315.527 297.515L344.959 253.568L344.973 253.561Z" fill="#FFD655"/>
<path d="M294.918 257.561L296.15 237.807C289.547 238.141 283.271 239.804 277.308 243.575C278.72 212.619 280.167 180.862 281.656 148.285C313.53 117.175 354.7 140.318 407.684 109.688C411.302 107.629 414.677 105.451 418.26 102.953C398.5 88.6956 374.836 81 349.99 81C285.483 81 233 133.478 233 197.993C233 244.334 260.073 284.419 299.211 303.387C300.171 290.09 301.563 271.547 302.446 259.642L294.925 257.561H294.918ZM276.967 143.47L275.067 145.32C273.335 183.242 271.672 219.598 270.016 256.114C274.865 253.004 283.73 247.249 288.969 245.085L287.884 262.578L295.342 264.637L293.687 286.875C263.649 267.97 244.543 233.465 244.801 197.889C244.654 139.371 293.026 92.2025 349.997 92.5365C368.157 92.5365 385.628 97.094 401.081 105.687C377.842 118.274 357.386 120.16 337.556 121.983C315.659 123.994 294.974 125.9 276.974 143.463L276.967 143.47Z" fill="#FFD655"/>
<path d="M322.979 199.454C329.798 200.741 336.846 202.356 344.256 203.761C344.959 193.978 345.669 184.118 346.385 174.182C338.85 173.396 331.662 172.366 324.739 171.643C324.148 180.98 323.557 190.248 322.979 199.447V199.454Z" fill="#FAFAFA"/>
<path d="M320.781 231.705C329.207 233.555 338.064 235.984 347.429 237.828C363.036 240.882 380.152 242.302 399.196 236.568C402.772 199.099 406.46 160.475 410.252 120.633C358.318 150.824 318.881 127.688 286.659 151.2C285.344 178.865 284.057 205.918 282.784 232.393C289.011 229.659 295.37 228.733 302.363 229.033L301.194 251.111L308.973 253.059L306.573 284.252L306.475 285.518C306.691 285.191 306.907 284.857 307.136 284.509C314.505 273.154 325.296 256.496 333.423 243.965C328.887 242.83 324.468 241.696 320.175 240.708V240.59L320.781 231.705ZM394.548 232.206C385.343 234.808 375.372 235.733 366.299 235.302C367.085 225.588 367.899 215.805 368.699 205.932C378.336 205.848 387.437 203.1 397.575 199.635L394.541 232.206H394.548ZM303.998 197.909C303.518 206.732 302.968 216.181 302.488 224.865C296.525 224.788 290.966 225.254 285.622 227.077C286.012 219.083 286.409 211.032 286.798 202.933C292.309 200.365 297.715 198.132 304.005 197.902C304.485 189.232 304.972 180.507 305.459 171.719C299.079 172.491 293.624 175.226 288.044 178.28L289.241 153.767C294.452 150.288 300.672 147.735 306.879 146.287C306.399 154.825 305.926 163.307 305.459 171.719C311.548 170.766 318.22 170.891 324.733 171.649C325.317 162.451 325.902 153.197 326.493 143.845C333.68 143.49 340.958 143.448 348.807 143.066C348.076 153.085 347.095 164.413 346.393 174.189C354.095 175.094 362.709 175.344 371.295 174.287C372.151 163.954 373.445 150.796 374.328 140.06C383.944 138.021 393.776 135.071 404.143 130.096C403.03 141.952 401.944 153.691 400.852 165.338C390.464 169.757 381.147 173.368 371.288 174.287C370.418 184.925 369.555 195.474 368.699 205.939C360.28 206.252 351.827 205.285 344.256 203.761C343.582 213.252 342.893 222.666 342.225 232.011C334.829 230.487 327.885 228.74 321.087 227.349C321.678 218.241 322.395 208.562 322.972 199.454C316.571 198.167 309.996 197.478 304.005 197.909H303.998Z" fill="#FAFAFA"/>
</g>
<defs>
<clipPath id="clip0_3211_20665">
<rect width="234" height="234" fill="white" transform="translate(233 81)"/>
</clipPath>
</defs>
</svg>
