<svg width="700" height="394" viewBox="0 0 700 394" fill="none" xmlns="http://www.w3.org/2000/svg">
<rect width="700" height="394" fill="#3F2E42"/>
<g clip-path="url(#clip0_3223_89423)">
<path d="M242.309 205.488L243.339 202.497L239.833 201.316L239.341 202.743C240.34 203.816 241.34 204.737 242.309 205.488Z" fill="white"/>
<path d="M248.644 189.337L252.149 190.533L253.026 187.956C252.857 187.542 252.657 187.128 252.426 186.714L249.843 185.84L248.644 189.337Z" fill="white"/>
<path d="M253.933 191.132C253.826 190.457 253.672 189.783 253.457 189.123L252.888 190.78L253.933 191.132Z" fill="white"/>
<path d="M245.122 183.432L246.076 180.625C244.968 180.058 243.784 179.644 242.57 179.383L241.616 182.236L245.122 183.432Z" fill="white"/>
<path d="M249.366 184.859L249.889 183.31C248.966 182.374 247.905 181.592 246.767 180.979L245.845 183.678L249.366 184.859Z" fill="white"/>
<path d="M251.442 195.012L253.933 195.856C254.149 194.583 254.195 193.264 254.056 191.975L252.642 191.5L251.442 195.012Z" fill="white"/>
<path d="M241.816 179.231C240.54 179.031 239.248 178.954 237.972 179.046L237.372 180.795L240.878 181.991L241.816 179.231Z" fill="white"/>
<path d="M247.567 206.362C248.275 205.84 248.951 205.257 249.551 204.613L248.305 204.184L247.567 206.362Z" fill="white"/>
<path d="M257.009 226.456C247.829 242.361 231.944 244.171 222.734 229.968C224.01 228.68 225.409 227.116 227.762 223.434V223.358C232.452 218.756 222.964 205.888 218.105 204.462C215.553 203.71 214.891 205.06 208.433 204.231C206.034 203.925 202.252 202.974 201.652 205.152C199.376 214.201 209.31 214.523 217.644 215.137L217.582 216.532C216.414 216.486 215.322 216.41 214.292 216.333C209.509 219.339 207.71 224.401 208.694 228.987L207.341 229.34C207.172 228.68 207.08 227.714 207.064 226.947H207.049C206.68 227.192 200.914 231.088 200.591 232.545C200.591 232.545 200.591 232.545 200.622 232.545C212.862 240.183 216.321 251.043 234.097 254.708C242.554 256.626 250.627 254.218 257.162 248.957C256.132 241.012 256.317 233.235 257.009 226.441V226.456Z" fill="white"/>
<path d="M249.997 199.229L252.627 200.134C253.165 199.015 253.549 197.834 253.811 196.622L251.196 195.732L249.997 199.229Z" fill="white"/>
<path d="M250.489 183.939L250.089 185.105L251.811 185.688C251.411 185.059 250.965 184.476 250.489 183.939Z" fill="white"/>
<path d="M211.155 203.142C211.155 203.142 208.817 194.108 205.434 193.494C204.266 193.28 202.59 193.402 201.175 195.028C199.514 196.961 200.268 200.427 201.129 202.881C204.25 201.654 207.972 202.651 211.155 203.142Z" fill="white"/>
<path d="M203.113 217.374C204.158 216.776 204.989 215.733 204.85 214.43C198.899 211.914 198.607 207.466 200.007 203.724C200.345 202.85 196.731 200.533 194.502 201.147C192.887 201.592 191.488 202.65 190.842 204.23C189.104 208.08 198.853 220.442 203.113 217.374Z" fill="white"/>
<path d="M197.654 222.958C199.991 221.731 198.838 219.093 196.331 216.762H196.316C193.579 213.924 191.426 209.108 187.274 211.67C183.384 215.75 193.102 225.673 197.654 222.958Z" fill="white"/>
<path d="M237.126 179.123C236.142 179.23 235.189 179.43 234.235 179.721L236.65 180.549L237.126 179.123Z" fill="white"/>
<path d="M210.493 215.857C208.848 215.597 207.464 215.275 206.265 214.922C206.157 217.821 204.281 220.536 199.898 219.17C201.851 222.852 198.607 226.011 194.793 224.861C193.317 224.401 192.01 223.833 190.841 223.051C190.841 223.051 190.811 223.051 190.795 223.02C188.966 222.069 186.444 219.247 185.183 217.729C177.956 222.621 170.744 227.576 163.609 232.836C163.409 234.11 163.64 235.429 164.132 236.686L187.735 224.125L188.52 225.352L167.207 241.318C168.284 242.407 169.345 243.113 169.944 243.174L207.495 223.235C207.587 220.397 209.694 217.039 210.493 215.857Z" fill="white"/>
<path d="M235.204 184.767L236.388 181.27L233.067 180.135C232.974 180.165 232.897 180.196 232.821 180.242L231.683 183.586L235.204 184.767Z" fill="white"/>
<path d="M231.867 180.672C231.221 180.979 230.606 181.347 230.007 181.761C229.945 182.144 229.93 182.558 229.93 182.988L230.96 183.341L231.867 180.672Z" fill="white"/>
<path d="M225.685 208.494C225.685 208.494 225.701 208.525 225.716 208.54C226.716 209.875 227.838 211.562 228.499 212.589C230.821 211.853 236.48 210.013 237.833 209.598C239.755 209.598 241.708 209.246 243.584 208.525C240.355 207.267 236.188 203.218 232.82 197.712C229.437 192.221 227.761 186.714 228.084 183.248C226.762 184.429 225.67 185.794 224.84 187.267C225.224 189.383 227.054 198.571 230.498 202.927C230.16 202.681 224.978 198.862 222.21 190.119L220.104 192.205C222.702 196.607 223.779 203.923 224.778 207.129C225.101 207.543 225.409 208.019 225.685 208.494Z" fill="white"/>
<path d="M222.319 205.151C221.95 204.721 220.535 190.288 213.938 191.485C212.739 191.699 211.785 192.942 211.432 193.954C210.832 196.914 211.678 199.813 212.739 203.126C215.922 202.742 219.92 202.374 222.319 205.151Z" fill="white"/>
<path d="M248.551 203.464L250.119 204.001C250.98 203.034 251.703 201.961 252.287 200.826L249.75 199.967L248.551 203.464Z" fill="white"/>
<path d="M241.524 196.362L245.03 197.543L246.23 194.046L242.708 192.85L241.524 196.362Z" fill="white"/>
<path d="M239.929 187.212L238.729 190.709L242.236 191.906L243.436 188.408L239.929 187.212Z" fill="white"/>
<path d="M241.269 197.088L240.07 200.586L243.577 201.782L244.776 198.285L241.269 197.088Z" fill="white"/>
<path d="M247.675 189.814L244.154 188.633L242.954 192.13L246.475 193.326L247.675 189.814Z" fill="white"/>
<path d="M237.28 194.921L240.786 196.117L241.986 192.605L238.48 191.408L237.28 194.921Z" fill="white"/>
<path d="M240.54 196.837L237.034 195.641L236.02 198.57C236.219 198.862 236.404 199.138 236.619 199.398L239.341 200.334L240.54 196.837Z" fill="white"/>
<path d="M230.192 185.595L230.714 184.062L229.961 183.801C229.992 184.368 230.069 184.966 230.192 185.595Z" fill="white"/>
<path d="M244.061 202.742L242.97 205.978C243.954 206.669 244.907 207.19 245.784 207.482C246.03 207.344 246.291 207.206 246.522 207.052L247.583 203.939L244.061 202.742Z" fill="white"/>
<path d="M239.094 201.072L237.434 200.52C237.88 201.072 238.31 201.593 238.756 202.084L239.094 201.072Z" fill="white"/>
<path d="M240.171 186.454L243.677 187.65L244.876 184.153L241.355 182.957L240.171 186.454Z" fill="white"/>
<path d="M235.927 185.028L239.433 186.209L240.632 182.712L237.126 181.516L235.927 185.028Z" fill="white"/>
<path d="M233.513 189.721L231.053 188.893C231.453 190.074 231.945 191.301 232.544 192.574L233.513 189.721Z" fill="white"/>
<path d="M235.681 185.749L234.481 189.246L237.988 190.443L239.187 186.945L235.681 185.749Z" fill="white"/>
<path d="M237.741 191.163L234.236 189.982L233.036 193.479L236.557 194.676L237.741 191.163Z" fill="white"/>
<path d="M245.599 184.398L244.399 187.895L247.921 189.092L249.105 185.595L245.599 184.398Z" fill="white"/>
<path d="M250.458 195.487L246.952 194.291L245.753 197.803L249.274 198.984L250.458 195.487Z" fill="white"/>
<path d="M251.904 191.255L248.398 190.074L247.198 193.571L250.72 194.768L251.904 191.255Z" fill="white"/>
<path d="M235.48 197.789L236.311 195.396L233.481 194.43C233.85 195.135 234.266 195.841 234.696 196.562C234.958 196.976 235.219 197.39 235.48 197.789Z" fill="white"/>
<path d="M249.028 199.722L245.507 198.525L244.308 202.022L247.829 203.219L249.028 199.722Z" fill="white"/>
<path d="M233.758 189L234.958 185.503L231.436 184.307L230.514 187.021C230.575 187.344 230.667 187.666 230.76 187.988L233.758 189Z" fill="white"/>
<path d="M337.876 190.87C343.288 182.787 344.242 169.244 339.121 163.293C335.062 164.474 331.325 166.667 327.312 167.94C324.882 172.189 325.605 178.769 329.88 179.26C322.36 188.861 311.75 179.812 315.318 169.474H315.287C312.996 173.247 311.366 177.726 310.812 182.067C310.09 187.634 311.089 194.045 314.733 197.987C320.93 192.665 329.188 188.738 337.876 190.87Z" fill="white"/>
<path d="M315.041 166.362C322.883 163.125 330.28 157.895 338.768 156.653C345.226 156.1 351.93 158.539 356.005 163.539L354.79 164.95C351.284 163.509 347.425 162.65 343.75 162.634C346.902 169.368 346.887 177.343 343.842 186.071C351.638 171.454 363.417 157.266 377.195 148.616C373.673 148.616 370.459 148.201 367.276 147.312C362.463 150.226 358.112 153.57 353.883 157.512C352.976 156.898 352.007 156.346 350.992 155.855C354.959 152.113 359.019 148.83 363.432 145.962C360.987 145.119 359.034 143.125 356.42 142.818C350.439 145.165 343.873 149.244 338.552 153.6C336.277 153.784 334.001 154.26 331.894 155.18C337.522 149.935 344.103 145.149 350.869 141.821C347.732 141.391 344.672 141.161 341.735 141.085C332.601 143.523 322.668 149.766 315.226 156.653C314.887 155.579 314.534 154.475 314.134 153.355C319.531 148.6 325.697 144.336 332.017 141.345C324.359 142.25 316.932 142.803 310.889 145.916C308.706 144.06 304.216 141.376 300.494 140.456C297.634 139.674 294.482 139.459 291.376 140.502C306.245 139.474 312.212 154.352 315.041 166.362Z" fill="white"/>
<path d="M283.303 172.696C281.55 182.113 284.548 190.656 291.037 193.11C297.004 195.227 302.908 191.945 307.168 187.236C307.014 181.99 308.459 175.64 311.043 170.502C307.952 166.3 305.968 161.438 304.538 156.438C298.557 157.726 295.758 170.18 302.078 171.484C297.142 178.11 287.685 175.763 287.009 167.573C286.932 165.855 286.947 163.953 287.393 162.036C285.456 165.195 283.995 168.999 283.303 172.696Z" fill="white"/>
<path d="M361.541 119.964C361.71 119.78 361.803 119.688 361.972 119.504C361.126 118.905 360.711 118.583 359.865 117.939C362.049 116.789 363.187 116.283 365.462 115.332C369.137 113.798 371.029 113.169 374.827 111.804C371.106 112.233 369.23 112.433 365.493 112.924C369.568 109.703 371.813 108.414 376.242 105.086C374.75 104.38 373.997 104.028 372.49 103.276C374.089 102.187 375.134 101.466 376.395 100.5C363.679 101.589 351.639 106.359 341.582 114.503C348.332 116.39 354.652 118.645 360.465 121.129C360.788 120.761 361.157 120.378 361.541 119.964Z" fill="white"/>
<path d="M305.799 137.558C300.448 132.879 300.172 125.502 306.215 121.591C321.884 111.483 340.013 124.014 351.607 133.662C354.867 136.284 357.543 139.091 360.987 141.254C370.567 147.65 381.346 144.705 391.864 145.012C384.006 136.637 372.212 129.582 359.542 124.183C359.142 124.014 358.727 123.845 358.327 123.677C351.653 120.901 344.749 118.6 338.106 116.805C330.203 114.643 306.83 111.207 299.664 125.134C297.557 129.26 298.772 132.879 301.356 136.024L305.799 137.558Z" fill="white"/>
<path d="M339.198 195.687C326.281 191.193 311.504 203.939 305.83 213.095C305.722 211.96 305.507 209.69 305.399 208.555C305.476 208.187 309.812 202.574 311.489 201.055C309.505 198.601 308.167 195.349 307.552 191.73C302.924 196.408 295.727 199.828 289.407 197.405C282.98 194.981 279.382 187.604 279.458 178.754C279.443 172.68 281.611 165.303 284.979 159.873C284.994 159.858 284.994 159.842 284.994 159.842C287.7 155.394 291.13 151.882 294.805 149.643C289.976 151.56 285.363 155.716 281.919 161.376C277.89 168.017 275.691 176.422 276.568 183.892C272.308 191.929 268.787 200.702 266.357 209.276C260.084 233.249 259.53 263.327 279.474 281.257H279.489C284.379 285.766 290.807 287.407 297.219 288.45C286.009 281.809 278.274 267.683 276.26 251.149C277.275 251.164 278.382 251.241 279.505 251.379C282.088 270.95 292.713 282.514 306.43 290.015C309.29 290.459 312.181 290.874 315.087 291.211C306.875 286.042 300.955 277.499 297.496 266.808C298.188 266.578 299.633 266.118 300.31 265.888C304.569 278.941 312.949 288.588 325.512 292.3C328.911 292.591 332.34 292.821 335.753 292.99C324.159 286.594 316.255 272.79 314.026 255.474C315.041 254.139 315.948 252.744 316.778 251.287C318.331 271.594 328.249 289.37 345.164 293.312H345.179C350.93 293.42 356.651 293.358 362.294 293.128C327.85 285.597 321.607 234.967 339.182 195.687H339.198ZM262.728 243.403C262.682 242.866 262.651 242.314 262.636 241.777C262.667 242.299 262.698 242.835 262.744 243.372C262.744 243.372 262.744 243.382 262.744 243.403H262.728ZM302.739 199.03C303.785 198.494 304.815 197.865 305.83 197.159C306.014 197.619 306.199 198.08 306.399 198.524C303.646 205.288 301.432 212.405 299.833 219.445C298.557 219.997 297.342 220.457 296.204 220.841C297.649 213.678 299.833 206.347 302.739 199.03ZM283.949 197.757C284.779 198.432 285.686 199.03 286.655 199.537C283.733 207.037 281.596 214.629 280.289 222.099C279.089 221.7 278.105 221.178 277.306 220.626C278.72 213.034 280.935 205.35 283.949 197.757ZM321.76 218.51C321.453 227.62 318.869 256.701 298.341 263.311C296.834 260.167 295.158 255.566 290.315 251.992C284.225 247.513 273.123 247.621 270.755 248.648C277.09 239.599 271.17 218.003 271.17 218.003C271.17 218.003 279.781 241.072 324.021 208.663L324.082 208.571V208.601C324.082 208.601 324.128 208.571 324.144 208.571L324.098 208.693L325.558 220.365L321.76 218.494V218.51ZM323.421 205.304C321.976 206.362 320.407 207.497 318.992 208.479C319.7 206.255 320.469 204.031 321.314 201.822C322.744 200.886 324.19 200.135 325.635 199.537C324.851 201.454 324.113 203.386 323.421 205.304Z" fill="white"/>
<path d="M353.361 187.91L352.738 189.004L357.057 191.451L357.68 190.357L353.361 187.91Z" fill="white"/>
<path d="M373.273 167.987L371.105 165.963L370.844 166.178L372.597 168.586L373.273 167.987Z" fill="white"/>
<path d="M387.974 110.992C386.313 109.995 385.467 109.551 383.761 108.676C381.269 110.839 380.024 111.759 377.579 113.584C373.704 114.934 371.736 115.532 367.968 117.035C369.06 117.772 369.614 118.14 370.706 118.876C368.245 119.781 367.03 120.256 364.693 121.391C364.078 121.683 363.509 121.959 362.986 122.235C377.594 128.83 388.773 136.867 395.309 144.229C399.214 138.585 411.608 118.692 403.197 103.784C401.951 103.339 400.675 102.909 399.368 102.48C393.617 100.992 387.851 100.271 382.192 100.256C387.005 101.575 390.434 102.28 395.801 104.642C394.57 106.345 393.955 107.127 392.71 108.569C390.849 109.658 389.896 110.133 387.974 110.992Z" fill="white"/>
<path d="M504.9 159.429C504.9 159.429 504.731 159.399 504.654 159.399C500.794 159.368 488.616 162.067 491.461 167.083C492.352 168.663 495.043 168.402 497.504 168.218C498.226 168.172 499.088 168.003 499.995 167.758C502.547 167.022 505.5 165.534 506.791 163.632C507.837 161.791 506.868 159.598 504.9 159.429Z" fill="white"/>
<path d="M397.23 224.722C397.861 223.618 398.445 222.498 398.983 221.409C393.017 222.268 386.882 222.805 380.623 223.02C379.67 224.308 378.593 225.413 377.425 226.318C369.337 232.652 356.974 230.137 356.312 217.836C352.822 235.95 357.727 252.193 369.521 257.269C386.605 266.043 412.699 241.18 418.051 217.514C414.452 218.511 410.777 219.354 407.041 220.075C405.872 223.051 404.38 226.072 402.766 228.787C395.431 241.87 377.809 255.92 363.801 246.073C363.616 245.965 363.278 245.689 363.278 245.689C377.502 248.91 390.249 236.916 397.23 224.722ZM381.776 226.256L386.359 234.079C384.467 235.95 382.453 237.606 380.408 238.956L378.24 229.247C379.455 228.373 380.639 227.376 381.761 226.256H381.776ZM361.909 241.932L358.173 240.306C357.527 237.913 357.097 235.336 356.881 232.637L358.726 229.738C360.341 231.18 362.248 232.177 364.339 232.683L361.909 241.932Z" fill="white"/>
<path d="M389.096 200.733C385.636 199.997 377.794 196.086 377.794 196.086C376.148 195.38 374.303 195.503 372.458 196.301C369.49 197.558 366.584 200.595 364.816 204.706C362.955 209.154 362.709 213.617 364.185 216.715C365.154 218.771 367.261 220.059 369.521 220.136C387.035 220.734 407.087 218.111 425.493 211.945C437.395 208.019 449.327 202.221 459.015 194.767C467.533 188.939 469.609 183.448 482.326 178.401C484.494 177.451 492.598 176.254 493.428 170.303C489.645 170.18 487.293 165.134 490.968 162.327C485.986 161.607 485.324 158.14 486.57 155.211C485.201 155.027 483.648 154.72 481.849 154.214C482.926 161.622 481.28 165.38 478.928 169.061L477.744 168.079C478.62 166.913 481.326 160.625 477.959 152.971C476.898 152.588 475.775 152.158 474.591 151.683L475.176 150.272C480.604 152.48 484.602 152.987 487.462 153.247C492.921 154.045 497.395 151.008 495.366 146.759C494.182 144.321 487.016 144.535 483.464 142.035C481.342 140.808 478.528 139.382 475.929 139.857C465.073 141.867 463.074 147.036 462.013 148.738C460.552 151.085 460.291 158.171 462.151 161.499C462.259 174.644 453.371 183.126 443.438 189.843C427.846 200.503 407.471 204.368 389.096 200.733Z" fill="white"/>
<path d="M397.876 145.931C407.871 147.74 425.447 155.624 441.223 170.088L441.177 169.965C441.177 169.965 460.091 126.942 407.364 105.393C412.838 115.638 404.796 137.418 397.876 145.931Z" fill="white"/>
<path d="M489.553 137.925C488.708 138.922 487.785 140.027 486.57 141.1C489.876 142.511 494.72 142.925 497.15 145.579H497.165C498.226 144.751 499.133 143.6 499.748 142.343C501.317 139.106 501.071 135.195 497.18 134.305C493.198 133.585 491.645 135.44 489.553 137.925Z" fill="white"/>
<path d="M488.2 155.379C487.77 156.223 487.77 157.066 487.954 157.879C489.03 162.511 495.596 160.257 499.287 158.523C499.963 158.247 500.625 157.941 501.24 157.619C506.283 154.965 509.005 150.793 504.546 146.867C503.654 146.13 502.624 145.854 501.593 145.885C500.302 145.916 499.01 146.391 497.903 147.005C499.01 151.361 495.396 155.594 488.2 155.379Z" fill="white"/>
<path d="M549.8 229.799C549.093 227.069 546.617 225.197 543.849 225.197C543.603 225.197 543.373 225.197 543.127 225.243L449.097 236.256C452.157 228.142 454.463 219.737 455.786 211.7C461.952 208.203 468.825 203.157 474.684 197.773C477.206 195.457 481.188 193.663 485.417 191.761C490.676 189.384 496.565 186.73 501.117 182.297C507.837 180.932 516.048 175.886 519.554 168.739C521.676 164.413 521.814 159.935 520.046 155.84C521.783 149.214 519.692 142.158 514.587 137.327C514.141 132.219 511.604 127.603 507.652 124.458C509.605 118.109 509.005 111.283 505.792 105.593C502.378 99.565 496.735 95.9606 490.691 95.9606C487.478 95.9606 482.695 97.0036 478.221 101.958C474.453 106.114 472.254 112.387 470.132 118.461C468.764 122.388 467.349 126.422 465.719 129.167C461.122 131.299 457.37 133.86 454.479 136.79C453.479 133.63 452.188 130.486 450.604 127.403C441.455 109.55 424.033 96.1907 402.889 90.7458C396.246 88.9359 389.342 88.0156 382.392 88.0156C365.262 88.0156 348.793 93.5066 335.646 103.553C332.294 102.817 328.557 102.418 324.652 102.418C312.919 102.418 297.788 105.992 290.499 116.053C288.454 118.875 286.455 123.047 286.517 128.538C286.194 128.554 285.902 128.584 285.656 128.584C282.565 128.707 280.043 130.992 279.782 134.075C279.72 134.612 279.136 139.106 278.736 142.235L278.336 145.287C278.29 145.594 278.29 145.916 278.29 146.223C275.046 149.152 272.97 152.496 271.186 155.395L270.54 156.438C270.463 156.561 270.402 156.683 270.325 156.791C266.066 164.72 263.867 173.401 264.051 181.439C263.959 181.607 263.882 181.776 263.79 181.945C263.39 181.147 262.944 180.38 262.467 179.629C257.762 171.653 249.182 166.883 239.479 166.883C229.776 166.883 221.334 171.208 215.875 178.172C213.246 178.218 209.755 178.923 206.741 180.626C206.065 180.549 205.373 180.503 204.666 180.503C198.223 180.503 192.379 183.969 189.396 189.276C183.369 191.423 178.832 196.776 177.817 202.927C175.649 205.028 174.189 207.743 173.604 210.734C165.916 215.979 159.427 220.581 153.814 224.783C152.492 225.765 151.631 227.253 151.415 228.879C150.831 233.28 150.031 239.308 155.029 245.858C159.888 252.238 162.948 253.664 166.731 254.984C167.161 255.137 167.623 255.29 168.115 255.49C168.837 255.781 169.606 255.919 170.375 255.919C171.298 255.919 172.22 255.704 173.081 255.29C180.093 251.87 186.874 248.296 194.578 244.124C197.531 246.226 200.468 248.511 203.328 250.75C214.122 259.186 225.271 267.898 239.51 267.898C244.507 267.898 249.474 266.824 254.533 264.662C257.593 273.619 263.928 287.822 274.63 293.052C274.815 293.144 275.015 293.236 275.215 293.298C296.973 301.273 323.022 304.985 357.189 304.985C362.217 304.985 367.415 304.908 373.073 304.74C373.212 304.74 373.35 304.74 373.489 304.709C380.224 304.065 386.882 302.408 393.248 299.785L546.171 236.992C549.016 235.827 550.554 232.744 549.785 229.783L549.8 229.799ZM390.926 294.126C385.237 296.472 379.224 298.022 372.92 298.62C341.443 299.509 306.691 298.298 277.352 287.546C267.788 282.868 260.914 266.702 258.346 255.781C258.346 255.781 258.341 255.771 258.331 255.75C231.129 272.607 215.106 250.06 194.963 236.946C186.828 241.379 178.709 245.735 170.406 249.784C166.746 248.342 164.839 248.557 159.95 242.146C156.551 237.698 156.966 233.955 157.535 229.691C164.747 224.292 172.635 218.817 179.524 214.154C179.34 210.734 180.939 207.712 183.799 206.056C183.476 200.35 188.289 195.181 193.871 194.476C195.547 188.601 202.359 185.212 208.141 187.19C210.739 184.583 216.383 183.647 218.889 184.752C226.608 170.687 248.813 168.294 257.255 182.819C265.973 196.178 254.825 215.443 238.956 215.673C238.187 215.918 236.619 216.424 235.835 216.67C237.465 221.716 233.974 226.946 231.083 230.826C242.231 240.535 250.612 223.464 258.669 215.305C260.914 203.893 264.989 193.049 270.294 182.758C269.771 174.997 272.016 166.653 275.768 159.659C278.598 155.149 281.212 150.318 287.486 147.419L284.456 146.023C284.549 145.287 285.886 135.057 285.917 134.704C287.808 134.627 291.899 134.198 293.744 134.397C286.24 111.789 320.469 104.903 337.061 110.271C354.606 95.5619 379.101 90.6077 401.275 96.6355C438.548 106.222 459.092 140.947 447.851 169.598C448.543 171.914 449.112 174.306 449.604 176.76C449.604 176.76 449.604 176.75 449.604 176.73C452.88 173.141 455.171 169.046 455.77 164.183C450.035 150.517 455.325 140.118 469.856 134.014C475.176 126.82 477.19 112.188 482.772 106.038C493.69 93.9974 509.067 111.743 499.764 127.066C505.392 128.906 509.051 134.167 508.436 140.241C513.664 143.707 516.063 150.471 513.326 156.376C519.969 165.84 506.391 176.086 498.118 176.5C491.168 184.675 477.729 186.623 470.517 193.249C464.997 198.326 457.293 204.154 450.158 207.743C450.158 207.789 450.142 207.82 450.142 207.866C448.528 219.599 444.638 232.299 439.317 243.572L543.834 231.333L390.911 294.126H390.926Z" fill="white"/>
<path d="M485.094 140.394C485.755 139.443 486.401 138.292 487.047 137.035C489.323 132.587 491.491 126.62 493.536 122.126C499.025 107.985 488.892 104.948 484.648 119.442C484.11 121.313 483.31 123.369 482.434 125.7C481.404 128.445 480.066 131.283 478.774 133.768C477.974 135.302 477.19 136.713 476.514 137.878C479.789 137.065 482.664 139.029 485.094 140.394Z" fill="white"/>
<path d="M436.718 211.868C433.735 244.737 396.877 285.613 371.305 272.652C364.862 269.876 359.957 264.615 356.758 257.759C383.33 286.149 419.681 244.093 424.755 215.519C423.048 216.055 421.818 216.424 421.495 216.531C416.175 237.82 399.229 261.103 377.225 261.885C352.161 260.658 346.225 230.258 357.973 202.19C368.722 177.343 390.864 162.894 407.302 169.965C416.574 173.723 422.218 184.659 423.202 196.04C424.309 195.641 425.385 195.211 426.446 194.751C425.309 181.1 419.358 170.149 409.286 165.809C404.627 163.799 399.537 163.401 394.355 164.413C402.658 160.855 411.085 160.318 418.527 163.523C428 167.603 434.15 177.005 436.503 189.03C438.994 187.282 441.162 185.502 442.977 183.846C442.608 180.717 442.039 177.573 441.27 174.567C419.05 154.397 402.674 147.096 383.76 148.293C364.939 157.419 346.379 182.143 338.921 204.751C325.912 241.562 333.432 278.051 357.112 288.251C365.8 291.993 375.718 291.855 386.067 287.929C406.18 280.306 423.709 260.075 433.428 238.081C437.533 229.001 440.439 219.629 442.054 210.227C441.485 210.396 439.378 211.04 436.718 211.868ZM383.16 154.719L386.543 161.376L389.342 159.965L390.465 162.189L384.898 165.011L380.377 156.13L383.145 154.719H383.16ZM376.272 158.769L380.516 164.919L383.099 163.155L384.514 165.21L379.362 168.738L373.719 160.532L376.287 158.784L376.272 158.769ZM371.259 162.48L378.086 168.079L378.901 168.999L376.564 171.054L375.088 169.674L374.057 170.579L375.241 172.205L372.919 174.26L372.104 173.34L367.368 165.885L371.259 162.465V162.48ZM360.295 173.478L363.924 176.622L364.078 176.438L360.956 172.711L362.663 170.747L366.784 173.309L366.953 173.109L363.324 169.965L365.323 167.68L366.261 168.493L372.181 174.981L369.89 177.603L366.446 175.61L366.307 175.778L368.768 178.907L366.477 181.53L359.219 176.576L358.281 175.763L360.28 173.462L360.295 173.478ZM357.435 177.067L358.45 177.772L359.203 178.907L357.466 181.423L358.388 182.051L360.126 179.536L362.171 180.947L360.433 183.463L361.556 184.229L363.586 181.3L365.646 182.711L361.863 188.187L353.652 182.527L357.435 177.051V177.067ZM352.099 185.073C352.453 184.444 353.16 184.245 353.791 184.613L360.31 188.309C360.941 188.662 361.141 189.368 360.772 189.996L357.696 195.395L349.024 190.487L352.099 185.088V185.073ZM348.347 191.929L357.327 196.254L355.974 199.046L346.994 194.721L348.347 191.929ZM344.303 201.04L346.348 196.04L347.486 196.5L348.486 197.435L347.332 200.257L347.747 200.426L350.454 198.616C351.13 198.156 351.607 198.172 352.345 198.478L354.436 199.337C355.113 199.613 355.39 200.273 355.113 200.948L353.052 205.963L350.746 205.028L352.084 201.761L351.484 201.515L348.793 203.34C348.101 203.801 347.64 203.785 346.902 203.478L344.964 202.681C344.288 202.405 344.011 201.745 344.288 201.055L344.303 201.04ZM347.84 230.258L343.058 230.136V230.396L347.809 231.286L347.747 233.878L342.934 234.522V234.768L347.717 234.89L347.64 237.927L346.394 237.897L337.691 236.639L337.783 233.173L341.735 232.528V232.314L337.829 231.455L337.922 227.973L346.671 227.191L347.917 227.221L347.84 230.243V230.258ZM348.178 226.562L345.702 226.255L346.056 223.479L348.532 223.786L348.178 226.562ZM348.87 221.623C348.732 222.344 348.132 222.758 347.409 222.605L340.059 221.163C339.352 221.025 338.936 220.427 339.09 219.691L340.136 214.384L341.351 214.629L342.504 215.35L341.92 218.356L346.794 219.307L347.471 215.841L349.916 216.316L348.87 221.623ZM350.162 215.503L347.747 214.859L348.47 212.16L350.884 212.804L350.162 215.503Z" fill="white"/>
<path d="M410.978 198.509C414.099 198.156 417.205 197.589 420.235 196.822C419.251 183.324 411.624 171.131 398.276 171.207C388.42 171.207 377.533 177.987 369.106 189.122C375.995 183.539 385.329 186.423 388.051 193.969C388.451 195.058 388.712 196.254 388.804 197.542C389.85 197.773 390.911 197.972 391.987 198.156C391.926 197.665 391.88 197.19 391.803 196.73L394.155 195.349L401.367 191.162C401.613 192.665 401.752 194.276 401.782 195.917C401.829 196.929 401.829 197.957 401.782 198.984C402.874 199.03 403.751 198.984 404.842 198.954C405.042 194.736 404.612 190.18 403.443 186.407C402.013 181.514 399.522 177.465 396.062 174.766C405.919 177.097 410.839 188.524 410.978 198.509ZM384.729 185.073C383.053 184.015 381.147 183.37 379.178 183.156L379.993 180.088C382.838 177.864 385.729 176.116 388.62 174.888L390.665 175.778L384.729 185.073Z" fill="white"/>
<path d="M262.744 243.372C262.744 243.372 262.744 243.372 262.744 243.402C262.698 242.865 262.667 242.313 262.652 241.776C262.683 242.298 262.713 242.835 262.76 243.372H262.744ZM321.792 215.748L324.144 208.57C279.797 241.117 271.171 217.987 271.171 217.987C271.171 217.987 277.075 239.599 270.756 248.633C273.124 247.605 284.226 247.482 290.315 251.976C295.159 255.55 296.85 260.151 298.342 263.295C322.776 255.427 321.792 215.733 321.792 215.733V215.748ZM317.932 216.622L325.559 220.38L324.083 208.585L317.917 216.622H317.932ZM347.732 233.877L347.794 231.285L343.027 230.396V230.135L347.825 230.258L347.902 227.236L346.656 227.206L337.907 227.988L337.814 231.469L341.72 232.328V232.543L337.768 233.187L337.676 236.654L346.379 237.911L347.625 237.942L347.702 234.905L342.919 234.782V234.537L347.732 233.893V233.877ZM345.703 226.255L348.178 226.561L348.532 223.785L346.056 223.478L345.703 226.255ZM339.075 219.705C338.937 220.426 339.337 221.04 340.044 221.178L347.394 222.619C348.101 222.758 348.717 222.359 348.855 221.638L349.901 216.331L347.456 215.855L346.779 219.322L341.905 218.371L342.489 215.365L341.336 214.644L340.121 214.398L339.075 219.705ZM347.748 214.874L350.162 215.518L350.885 212.819L348.47 212.174L347.748 214.874ZM348.809 203.324L351.5 201.499L352.099 201.745L350.762 205.012L353.068 205.947L355.129 200.932C355.405 200.257 355.129 199.597 354.452 199.321L352.361 198.462C351.623 198.156 351.161 198.14 350.469 198.6L347.763 200.41L347.348 200.242L348.501 197.419L347.502 196.484L346.364 196.024L344.319 201.024C344.042 201.714 344.319 202.374 344.995 202.65L346.933 203.447C347.671 203.754 348.132 203.769 348.824 203.309L348.809 203.324ZM357.328 196.269L348.347 191.944L346.994 194.735L355.974 199.061L357.328 196.269ZM360.772 189.996C361.126 189.367 360.941 188.661 360.311 188.309L353.791 184.612C353.16 184.26 352.453 184.444 352.099 185.072L349.024 190.471L357.697 195.379L360.772 189.981V189.996ZM352.745 189.014L353.36 187.925L357.681 190.379L357.066 191.468L352.745 189.014ZM365.646 182.71L363.586 181.299L361.556 184.229L360.434 183.462L362.171 180.947L360.126 179.535L358.389 182.051L357.466 181.422L359.204 178.907L358.45 177.772L357.435 177.066L353.652 182.542L361.864 188.201L365.646 182.726V182.71ZM360.957 172.725L364.078 176.453L363.924 176.637L360.295 173.492L358.296 175.793L359.234 176.606L366.492 181.56L368.783 178.937L366.323 175.808L366.461 175.64L369.906 177.634L372.197 175.011L366.277 168.523L365.339 167.71L363.34 169.995L366.969 173.14L366.8 173.339L362.679 170.778L360.972 172.741L360.957 172.725ZM367.369 165.9L372.105 173.354L372.92 174.275L375.242 172.219L374.058 170.593L375.088 169.689L376.564 171.069L378.901 169.014L378.086 168.093L371.259 162.495L367.369 165.915V165.9ZM372.597 168.584L370.844 166.176L371.105 165.946L373.273 167.971L372.597 168.569V168.584ZM379.347 168.738L384.499 165.21L383.084 163.155L380.501 164.918L376.257 158.768L373.689 160.517L379.332 168.722L379.347 168.738ZM384.898 164.995L390.465 162.173L389.342 159.949L386.544 161.36L383.161 154.703L380.393 156.115L384.914 164.995H384.898ZM325.636 199.536C324.852 201.453 324.113 203.386 323.421 205.303C321.976 206.361 320.408 207.496 318.993 208.478C319.7 206.254 320.469 204.03 321.315 201.821C322.745 200.886 324.19 200.134 325.636 199.536ZM306.399 198.524C303.647 205.288 301.433 212.404 299.833 219.445C298.557 219.997 297.342 220.457 296.204 220.84C297.65 213.678 299.833 206.346 302.74 199.03C303.785 198.493 304.815 197.864 305.83 197.159C306.015 197.619 306.199 198.079 306.399 198.524ZM286.655 199.536C283.734 207.036 281.596 214.628 280.289 222.098C279.09 221.699 278.106 221.178 277.306 220.626C278.721 213.033 280.935 205.349 283.949 197.757C284.779 198.432 285.687 199.03 286.655 199.536ZM358.727 229.736L356.882 232.635C357.082 235.35 357.527 237.927 358.173 240.304L361.91 241.93L364.339 232.681C362.264 232.175 360.341 231.178 358.727 229.736ZM379.978 180.088L379.163 183.155C381.131 183.37 383.038 184.014 384.714 185.072L390.649 175.778L388.604 174.888C385.713 176.115 382.807 177.864 379.978 180.088ZM380.408 238.97C382.453 237.62 384.468 235.963 386.359 234.092L381.777 226.27C380.654 227.39 379.47 228.402 378.256 229.261L380.424 238.97H380.408ZM543.849 231.331L390.926 294.125C385.237 296.471 379.224 298.02 372.92 298.619C341.443 299.508 306.691 298.296 277.352 287.545C267.788 282.867 260.914 266.7 258.346 255.78C258.346 255.78 258.341 255.77 258.331 255.749C231.129 272.606 215.107 250.059 194.963 236.945C186.828 241.378 178.709 245.734 170.406 249.783C166.746 248.341 164.839 248.556 159.95 242.145C156.551 237.697 156.966 233.954 157.535 229.69C164.747 224.291 172.636 218.816 179.524 214.153C179.34 210.733 180.939 207.711 183.799 206.055C183.476 200.349 188.289 195.18 193.871 194.475C195.547 188.6 202.359 185.21 208.141 187.189C210.74 184.582 216.383 183.646 218.889 184.75C226.608 170.686 248.813 168.293 257.255 182.818C265.973 196.177 254.825 215.441 238.956 215.671C238.187 215.917 236.619 216.423 235.835 216.668C237.465 221.715 233.974 226.945 231.083 230.825C242.231 240.534 250.612 223.463 258.669 215.303C260.914 203.892 264.989 193.048 270.294 182.756C269.771 174.995 272.016 166.652 275.768 159.658C278.598 155.148 281.212 150.317 287.486 147.418L284.456 146.022C284.549 145.286 285.886 135.056 285.917 134.703C287.809 134.626 291.899 134.197 293.744 134.396C286.24 111.788 320.469 104.901 337.061 110.27C354.606 95.5607 379.101 90.6065 401.275 96.6343C404.258 97.4012 407.118 98.3215 409.87 99.3951C413.438 100.776 416.821 102.401 419.988 104.257C427.4 108.537 433.674 113.966 438.595 120.101C439.533 121.267 440.424 122.463 441.239 123.675C450.85 137.602 453.787 154.443 447.851 169.597C448.543 171.913 449.112 174.305 449.604 176.759C449.604 176.759 449.61 176.749 449.62 176.729C452.895 173.14 455.186 169.044 455.786 164.182C450.05 150.516 455.34 140.117 469.871 134.013C475.192 126.819 477.206 112.187 482.788 106.036C493.705 93.9962 509.082 111.742 499.779 127.065C505.407 128.905 509.067 134.166 508.452 140.24C513.68 143.706 516.079 150.47 513.342 156.375C519.984 165.839 506.407 176.084 498.134 176.499C491.184 184.674 477.744 186.622 470.532 193.247C466.842 196.637 462.183 200.364 457.37 203.524C455.094 205.027 452.772 206.407 450.512 207.558C450.404 207.634 450.281 207.68 450.173 207.742C450.173 207.788 450.158 207.818 450.158 207.864C449.405 213.34 448.159 219.015 446.498 224.659C446.344 225.212 446.175 225.748 446.006 226.285C445.837 226.822 445.683 227.359 445.499 227.896C443.792 233.264 441.701 238.571 439.333 243.571L543.849 231.331ZM246.522 207.052L247.583 203.938L244.061 202.742L242.97 205.978C243.954 206.668 244.907 207.19 245.783 207.481C246.03 207.343 246.291 207.205 246.522 207.052ZM239.341 200.334L240.54 196.837L237.034 195.64L236.019 198.57C236.219 198.861 236.404 199.137 236.619 199.398L239.341 200.334ZM237.434 200.518C237.88 201.07 238.31 201.591 238.756 202.082L239.095 201.07L237.434 200.518ZM230.514 187.02C230.576 187.342 230.668 187.665 230.76 187.987L233.759 188.999L234.958 185.502L231.437 184.306L230.514 187.02ZM230.714 184.06L229.961 183.799C229.991 184.367 230.068 184.965 230.191 185.594L230.714 184.06ZM246.475 193.34L247.675 189.827L244.154 188.646L242.954 192.143L246.475 193.34ZM242.708 192.849L241.524 196.361L245.03 197.542L246.229 194.045L242.708 192.849ZM243.431 188.385L239.925 187.189L238.725 190.686L242.231 191.882L243.431 188.385ZM238.479 191.422L237.28 194.935L240.786 196.131L241.985 192.619L238.479 191.422ZM240.079 200.594L243.585 201.791L244.784 198.294L241.278 197.097L240.079 200.594ZM244.307 202.021L247.829 203.217L249.028 199.72L245.507 198.524L244.307 202.021ZM249.274 198.984L250.458 195.487L246.952 194.29L245.753 197.803L249.274 198.984ZM250.719 194.766L251.904 191.254L248.398 190.073L247.198 193.57L250.719 194.766ZM249.105 185.594L245.599 184.398L244.4 187.895L247.921 189.091L249.105 185.594ZM244.876 184.167L241.355 182.971L240.171 186.468L243.677 187.665L244.876 184.167ZM240.632 182.726L237.126 181.529L235.927 185.042L239.433 186.223L240.632 182.726ZM235.681 185.763L234.481 189.26L237.987 190.456L239.187 186.959L235.681 185.763ZM231.052 188.892C231.452 190.073 231.944 191.3 232.544 192.573L233.513 189.72L231.052 188.892ZM233.036 193.478L236.557 194.674L237.741 191.162L234.235 189.981L233.036 193.478ZM233.482 194.429C233.851 195.134 234.266 195.84 234.697 196.56C234.958 196.975 235.22 197.389 235.481 197.788L236.311 195.395L233.482 194.429ZM239.341 202.742C240.34 203.815 241.34 204.736 242.308 205.487L243.339 202.496L239.833 201.315L239.341 202.742ZM249.551 204.613L248.305 204.183L247.567 206.361C248.275 205.84 248.951 205.257 249.551 204.613ZM252.288 200.824L249.751 199.965L248.551 203.463L250.12 203.999C250.981 203.033 251.704 201.959 252.288 200.824ZM253.81 196.622L251.196 195.732L249.997 199.229L252.626 200.134C253.164 199.015 253.549 197.834 253.81 196.622ZM254.056 191.99L252.642 191.514L251.442 195.027L253.933 195.87C254.149 194.597 254.195 193.278 254.056 191.99ZM253.457 189.122L252.888 190.778L253.933 191.131C253.826 190.456 253.672 189.781 253.457 189.122ZM252.426 186.714L249.843 185.839L248.644 189.336L252.15 190.533L253.026 187.956C252.857 187.542 252.657 187.128 252.426 186.714ZM250.089 185.103L251.811 185.686C251.411 185.057 250.966 184.474 250.489 183.937L250.089 185.103ZM246.768 180.977L245.845 183.677L249.366 184.858L249.889 183.309C248.967 182.373 247.906 181.591 246.768 180.977ZM242.57 179.382L241.616 182.235L245.122 183.431L246.076 180.624C244.969 180.057 243.784 179.643 242.57 179.382ZM237.372 180.808L240.878 182.005L241.816 179.244C240.54 179.045 239.248 178.968 237.972 179.06L237.372 180.808ZM234.235 179.72L236.65 180.548L237.126 179.121C236.142 179.229 235.189 179.428 234.235 179.72ZM232.821 180.241L231.683 183.585L235.204 184.766L236.388 181.269L233.067 180.134C232.975 180.164 232.898 180.195 232.821 180.241ZM229.93 182.986L230.96 183.339L231.867 180.67C231.222 180.977 230.606 181.345 230.007 181.759C229.945 182.143 229.93 182.557 229.93 182.986ZM220.104 192.22C222.703 196.622 223.779 203.938 224.779 207.144C225.102 207.558 225.409 208.033 225.686 208.509C225.686 208.524 225.686 208.539 225.717 208.555C226.716 209.889 227.839 211.576 228.5 212.604C230.822 211.868 236.48 210.027 237.834 209.613C239.756 209.613 241.709 209.26 243.585 208.539C240.355 207.282 236.188 203.232 232.821 197.726C229.438 192.235 227.762 186.729 228.085 183.263C226.762 184.444 225.67 185.809 224.84 187.281C225.225 189.398 227.054 198.585 230.499 202.941C230.161 202.696 224.979 198.876 222.211 190.134L220.104 192.22ZM212.739 203.125C215.922 202.742 219.92 202.374 222.318 205.15C221.949 204.72 220.535 190.287 213.938 191.484C212.739 191.698 211.785 192.941 211.431 193.953C210.832 196.913 211.678 199.812 212.739 203.125ZM201.129 202.895C204.25 201.668 207.972 202.665 211.155 203.156C211.155 203.156 208.817 194.122 205.434 193.508C204.266 193.294 202.59 193.416 201.175 195.042C199.514 196.975 200.268 200.441 201.129 202.895ZM203.113 217.374C204.158 216.776 204.989 215.733 204.85 214.429C198.899 211.914 198.607 207.466 200.006 203.723C200.345 202.849 196.731 200.533 194.502 201.146C192.887 201.591 191.488 202.65 190.842 204.229C189.104 208.079 198.853 220.442 203.113 217.374ZM197.654 222.957C199.991 221.73 198.838 219.092 196.331 216.76C193.594 213.923 191.442 209.107 187.29 211.668C183.399 215.748 193.118 225.672 197.669 222.957H197.654ZM207.495 223.248C207.587 220.411 209.694 217.052 210.493 215.871C208.848 215.61 207.464 215.288 206.265 214.935C206.157 217.834 204.281 220.549 199.899 219.184C201.852 222.865 198.607 226.024 194.794 224.874C193.317 224.414 192.01 223.847 190.842 223.064C190.826 223.064 190.811 223.064 190.796 223.034C188.966 222.083 186.444 219.26 185.183 217.742C177.956 222.635 170.744 227.589 163.609 232.85C163.409 234.123 163.64 235.442 164.132 236.7L187.736 224.138L188.52 225.365L167.208 241.332C168.284 242.421 169.345 243.126 169.945 243.188L207.495 223.248ZM257.162 248.97C256.132 241.025 256.317 233.249 257.009 226.454C247.829 242.359 231.944 244.169 222.734 229.966C224.01 228.678 225.409 227.113 227.762 223.432V223.356C232.452 218.754 222.964 205.886 218.105 204.459C215.552 203.708 214.891 205.058 208.433 204.229C206.034 203.923 202.251 202.972 201.652 205.15C199.376 214.199 209.309 214.521 217.644 215.135L217.582 216.53C216.414 216.484 215.322 216.408 214.292 216.331C209.509 219.337 207.71 224.399 208.694 228.985L207.341 229.337C207.172 228.678 207.08 227.712 207.064 226.945C206.695 227.19 200.929 231.086 200.606 232.543C200.622 232.543 200.622 232.543 200.637 232.543C212.877 240.181 216.337 251.041 234.112 254.706C242.57 256.624 250.643 254.215 257.178 248.955L257.162 248.97ZM504.9 159.428C504.9 159.428 504.731 159.397 504.654 159.397C500.794 159.366 488.616 162.066 491.46 167.081C492.352 168.661 495.043 168.4 497.503 168.216C498.226 168.17 499.087 168.001 499.995 167.756C502.547 167.02 505.499 165.532 506.791 163.63C507.837 161.79 506.868 159.596 504.9 159.428ZM501.594 145.884C500.302 145.915 499.01 146.39 497.903 147.004C499.01 151.36 495.397 155.593 488.2 155.378C487.77 156.222 487.77 157.065 487.954 157.878C489.031 162.51 495.597 160.256 499.287 158.523C499.964 158.247 500.625 157.94 501.24 157.618C506.284 154.964 509.005 150.792 504.546 146.866C503.654 146.13 502.624 145.854 501.594 145.884ZM489.554 137.924C488.708 138.921 487.785 140.025 486.57 141.099C489.877 142.51 494.72 142.924 497.15 145.577H497.165C498.226 144.749 499.133 143.599 499.748 142.341C501.317 139.105 501.071 135.194 497.181 134.304C493.198 133.583 491.645 135.439 489.554 137.924ZM476.514 137.878C479.789 137.065 482.665 139.028 485.094 140.393C485.756 139.442 486.401 138.292 487.047 137.034C489.323 132.586 491.491 126.62 493.536 122.126C499.026 107.984 488.892 104.947 484.648 119.442C484.11 121.313 483.311 123.368 482.434 125.7C481.404 128.445 480.066 131.283 478.774 133.767C477.975 135.301 477.191 136.712 476.514 137.878ZM443.438 189.858C427.846 200.518 407.472 204.383 389.096 200.748C385.636 200.011 377.794 196.1 377.794 196.1C376.149 195.395 374.304 195.518 372.458 196.315C369.491 197.573 366.584 200.61 364.816 204.72C362.956 209.168 362.709 213.632 364.186 216.73C365.154 218.785 367.261 220.073 369.521 220.15C387.036 220.748 407.087 218.126 425.493 211.96C426.985 211.469 428.477 210.947 429.953 210.395C433.612 209.045 437.257 207.512 440.809 205.809C447.313 202.696 453.526 198.999 459.015 194.781C467.534 188.953 469.61 183.462 482.326 178.416C484.495 177.465 492.598 176.268 493.429 170.317C489.646 170.195 487.293 165.149 490.968 162.342C485.986 161.621 485.325 158.154 486.57 155.225C485.202 155.041 483.649 154.734 481.85 154.228C482.926 161.636 481.281 165.394 478.928 169.075L477.744 168.093C478.621 166.928 481.327 160.639 477.959 152.986C476.898 152.602 475.776 152.173 474.592 151.697L475.176 150.286C480.604 152.495 484.602 153.001 487.462 153.262C492.921 154.059 497.396 151.022 495.366 146.774C494.182 144.335 487.016 144.55 483.464 142.05C481.342 140.823 478.528 139.396 475.93 139.872C465.074 141.881 463.075 147.05 462.014 148.752C460.553 151.099 460.291 158.185 462.152 161.513C462.26 174.658 453.372 183.14 443.438 189.858ZM363.278 245.688C377.502 248.909 390.25 236.914 397.231 224.721C397.861 223.616 398.445 222.497 398.984 221.408C393.017 222.267 386.882 222.804 380.624 223.018C379.67 224.307 378.594 225.411 377.425 226.316C369.337 232.65 356.974 230.135 356.313 217.834C352.822 235.948 357.727 252.191 369.521 257.268C386.605 266.041 412.7 241.178 418.051 217.512C414.453 218.509 410.778 219.353 407.041 220.073C405.872 223.049 404.381 226.071 402.766 228.785C395.432 241.869 377.81 255.918 363.801 246.071C363.617 245.964 363.278 245.688 363.278 245.688ZM396.062 174.765C405.919 177.097 410.839 188.523 410.978 198.508C414.099 198.156 417.205 197.588 420.235 196.821C419.25 183.324 411.623 171.13 398.276 171.207C388.42 171.207 377.533 177.986 369.106 189.122C375.995 183.539 385.329 186.422 388.051 193.968C388.45 195.057 388.712 196.254 388.804 197.542C389.85 197.772 390.911 197.972 391.987 198.156C391.926 197.665 391.88 197.189 391.803 196.729L394.155 195.349L401.367 191.162C401.613 192.665 401.751 194.275 401.782 195.916C401.828 196.929 401.828 197.956 401.782 198.984C402.874 199.03 403.75 198.984 404.842 198.953C405.042 194.735 404.612 190.18 403.443 186.407C402.013 181.514 399.522 177.465 396.062 174.765ZM407.364 105.392C408.748 108 409.271 111.343 409.163 115.04C409.132 116.037 409.056 117.064 408.932 118.107C407.764 128.322 402.566 140.179 397.876 145.93C407.871 147.74 425.447 155.624 441.224 170.087L441.178 169.965C441.178 169.965 452.618 143.936 432.89 122.233C431.736 120.96 430.491 119.702 429.107 118.475C423.771 113.675 416.682 109.196 407.364 105.392ZM370.705 118.874C368.245 119.779 367.03 120.255 364.693 121.39C364.078 121.681 363.509 121.957 362.986 122.233C377.594 128.828 388.773 136.866 395.309 144.228C398.076 140.225 405.104 129.059 405.965 117.601C406.057 116.558 406.088 115.531 406.042 114.503C405.949 110.822 405.119 107.171 403.197 103.782C401.951 103.337 400.675 102.908 399.368 102.478C393.617 100.99 387.851 100.269 382.192 100.254C387.005 101.573 390.434 102.279 395.801 104.641C394.57 106.343 393.955 107.125 392.71 108.567C390.849 109.656 389.896 110.132 387.974 110.991C386.313 109.994 385.467 109.549 383.76 108.675C383.022 109.319 382.392 109.856 381.808 110.331C380.7 111.236 379.747 111.957 378.532 112.877C378.24 113.092 377.917 113.337 377.579 113.583C373.704 114.932 371.736 115.531 367.968 117.034C369.06 117.77 369.614 118.138 370.705 118.874ZM341.582 114.503C348.332 116.389 354.652 118.644 360.464 121.129C360.91 120.623 361.479 120.04 361.971 119.503C361.126 118.905 360.711 118.583 359.865 117.939C362.048 116.788 363.186 116.282 365.462 115.331C368.86 113.92 370.736 113.276 373.996 112.095C374.258 112.003 374.534 111.911 374.826 111.803C374.288 111.865 373.796 111.926 373.32 111.972H373.304C370.521 112.294 368.691 112.509 365.493 112.923C367.507 111.328 369.06 110.208 370.675 109.089C370.921 108.905 371.182 108.736 371.444 108.537C372.858 107.555 374.35 106.497 376.241 105.085C374.75 104.38 373.996 104.027 372.489 103.276C374.088 102.187 375.134 101.466 376.395 100.499C363.678 101.588 351.638 106.359 341.582 114.503ZM301.356 136.022L305.8 137.556C300.448 132.878 300.172 125.5 306.215 121.589C321.884 111.481 340.013 124.012 351.607 133.66C354.867 136.283 357.543 139.09 360.987 141.252C370.567 147.648 381.346 144.703 391.864 145.01C384.007 136.635 372.212 129.58 359.542 124.181C359.142 124.012 358.727 123.844 358.327 123.675C351.654 120.899 344.749 118.598 338.106 116.804C330.203 114.641 306.83 111.205 299.664 125.132C297.558 129.258 298.772 132.878 301.356 136.022ZM291.376 140.516C306.245 139.488 312.212 154.366 315.041 166.376C322.883 163.139 330.28 157.909 338.768 156.667C345.226 156.115 351.93 158.553 356.005 163.553L354.79 164.964C351.284 163.523 347.425 162.664 343.75 162.648C346.902 169.382 346.887 177.357 343.842 186.085C351.638 171.468 363.417 157.28 377.195 148.63C373.673 148.63 370.459 148.216 367.276 147.326C362.463 150.24 358.112 153.584 353.883 157.526C352.976 156.912 352.007 156.36 350.992 155.869C354.96 152.127 359.019 148.844 363.432 145.976C360.987 145.133 359.034 143.139 356.42 142.832C350.439 145.179 343.873 149.259 338.552 153.614C336.277 153.799 334.001 154.274 331.894 155.194C337.522 149.949 344.103 145.163 350.869 141.835C347.732 141.406 344.672 141.175 341.735 141.099C332.602 143.537 322.668 149.78 315.226 156.667C314.887 155.593 314.534 154.489 314.134 153.369C319.531 148.614 325.697 144.35 332.017 141.36C324.359 142.264 316.932 142.817 310.889 145.93C308.706 144.074 304.216 141.39 300.495 140.47C297.634 139.688 294.482 139.473 291.376 140.516ZM287.393 162.035C285.456 165.195 283.995 168.998 283.303 172.695C281.55 182.112 284.549 190.655 291.038 193.109C297.004 195.226 302.909 191.944 307.168 187.235C307.014 181.99 308.46 175.64 311.043 170.501C307.952 166.299 305.969 161.437 304.539 156.437C298.557 157.725 295.758 170.179 302.078 171.483C297.142 178.109 287.686 175.762 287.009 167.572C286.932 165.854 286.947 163.952 287.393 162.035ZM314.734 198.002C320.93 192.68 329.188 188.754 337.876 190.885C343.288 182.802 344.242 169.259 339.121 163.308C335.062 164.489 331.325 166.682 327.312 167.955C324.882 172.204 325.605 178.784 329.88 179.275C322.36 188.876 311.75 179.827 315.318 169.489H315.287C312.996 173.262 311.366 177.741 310.812 182.082C310.09 187.649 311.089 194.06 314.734 198.002ZM362.31 293.128C327.865 285.597 321.622 234.966 339.198 195.686C326.282 191.192 311.504 203.938 305.83 213.095C305.723 211.96 305.507 209.69 305.4 208.555C305.477 208.187 309.813 202.573 311.489 201.054C309.505 198.6 308.168 195.349 307.553 191.729C302.924 196.407 295.728 199.827 289.408 197.404C282.98 194.981 279.382 187.603 279.459 178.753C279.444 172.679 281.612 165.302 284.979 159.872C284.995 159.857 284.995 159.842 284.995 159.842C287.701 155.394 291.13 151.881 294.805 149.642C289.977 151.559 285.364 155.716 281.919 161.375C277.89 168.017 275.692 176.422 276.568 183.891C272.309 191.928 268.787 200.702 266.358 209.276C260.084 233.249 259.53 263.326 279.474 281.256H279.49C284.38 285.765 290.807 287.407 297.219 288.45C286.009 281.808 278.275 267.682 276.261 251.148C277.275 251.163 278.383 251.24 279.505 251.378C282.088 270.949 292.714 282.514 306.43 290.014C309.29 290.459 312.181 290.873 315.087 291.21C306.876 286.042 300.956 277.498 297.496 266.808C298.188 266.578 299.633 266.118 300.31 265.888C304.569 278.94 312.95 288.588 325.513 292.299C328.911 292.591 332.34 292.821 335.754 292.99C324.16 286.594 316.256 272.79 314.026 255.473C315.041 254.139 315.948 252.743 316.779 251.286C318.332 271.593 328.25 289.385 345.18 293.312C350.931 293.419 356.666 293.358 362.31 293.128ZM438.164 225.81C439.871 220.656 441.162 215.441 442.054 210.227C441.485 210.395 439.379 211.039 436.719 211.868C436.288 216.622 435.15 221.546 433.428 226.454C433.243 226.991 433.043 227.528 432.844 228.08C432.767 228.264 432.69 228.463 432.613 228.663C421.772 256.854 392.618 283.449 371.305 272.652C364.862 269.875 359.957 264.615 356.759 257.759C383.33 286.149 419.681 244.092 424.755 215.518C423.048 216.055 421.818 216.423 421.495 216.53C416.175 237.819 399.23 261.102 377.225 261.884C352.161 260.657 346.225 230.258 357.973 202.189C368.722 177.342 390.865 162.894 407.303 169.965C416.575 173.722 422.218 184.658 423.202 196.039C424.309 195.64 425.386 195.211 426.447 194.751C425.309 181.1 419.358 170.149 409.286 165.808C404.627 163.799 399.537 163.4 394.355 164.412C402.659 160.854 411.085 160.317 418.528 163.523C428 167.603 434.151 177.005 436.503 189.03C438.994 187.281 441.162 185.502 442.977 183.845C442.608 180.716 442.039 177.572 441.27 174.566C419.05 154.397 402.674 147.096 383.76 148.292C364.939 157.418 346.379 182.143 338.921 204.751C325.913 241.562 333.432 278.051 357.112 288.25C365.8 291.993 375.718 291.855 386.067 287.928C406.18 280.305 423.71 260.075 433.428 238.08C434.781 235.105 435.996 232.083 437.072 229.046C437.272 228.509 437.472 227.957 437.641 227.42C437.841 226.883 438.01 226.347 438.164 225.81ZM164.532 239.721L188.105 224.736Z" fill="#3F2E42"/>
</g>
<defs>
<clipPath id="clip0_3223_89423">
<rect width="399" height="217" fill="white" transform="translate(151 88)"/>
</clipPath>
</defs>
</svg>
