<svg width="700" height="394" viewBox="0 0 700 394" fill="none" xmlns="http://www.w3.org/2000/svg">
<rect width="700" height="394" fill="#3F2E42"/>
<path d="M335.307 181.478C334.945 187.213 334.582 192.907 334.227 198.556C338.416 199.348 342.746 200.337 347.297 201.203C347.73 195.196 348.163 189.139 348.605 183.037C343.974 182.554 339.562 181.919 335.307 181.478ZM335.307 181.478C334.945 187.213 334.582 192.907 334.227 198.556C338.416 199.348 342.746 200.337 347.297 201.203C347.73 195.196 348.163 189.139 348.605 183.037C343.974 182.554 339.562 181.919 335.307 181.478ZM335.307 181.478C334.945 187.213 334.582 192.907 334.227 198.556C338.416 199.348 342.746 200.337 347.297 201.203C347.73 195.196 348.163 189.139 348.605 183.037C343.974 182.554 339.562 181.919 335.307 181.478ZM311.925 168.919C311.117 185.91 310.325 202.526 309.546 218.792C313.372 217.114 317.277 216.545 321.573 216.726L320.856 230.287L325.634 231.483L324.158 250.643L324.097 251.422C324.228 251.22 324.36 251.014 324.501 250.804C329.028 243.827 335.654 233.598 340.647 225.9C337.86 225.203 335.147 224.507 332.508 223.901V223.826L332.879 218.367H332.883C338.057 219.505 343.5 220.994 349.252 222.128C358.838 224.004 369.352 224.874 381.05 221.352C383.247 198.337 385.511 174.613 387.84 150.143C355.94 168.688 331.716 154.476 311.925 168.919ZM378.188 218.672C372.535 220.272 366.408 220.841 360.838 220.573C361.32 214.607 361.819 208.6 362.314 202.535C368.235 202.485 373.822 200.795 380.052 198.667L378.188 218.672ZM363.901 183.098C363.365 189.634 362.838 196.111 362.31 202.539C357.139 202.733 351.944 202.139 347.297 201.203C346.881 207.033 346.46 212.814 346.048 218.553C341.504 217.617 337.241 216.545 333.064 215.691C333.427 210.096 333.868 204.151 334.223 198.556C330.289 197.764 326.253 197.344 322.571 197.608C322.278 203.025 321.94 208.831 321.643 214.162C317.982 214.116 314.568 214.401 311.282 215.522C311.521 210.612 311.764 205.668 312.003 200.692C315.388 199.117 318.708 197.744 322.571 197.603C322.868 192.276 323.165 186.921 323.466 181.519C319.549 181.993 316.197 183.672 312.766 185.548L313.5 170.49C316.7 168.354 320.522 166.783 324.336 165.897C324.043 171.141 323.75 176.349 323.466 181.519C327.205 180.934 331.304 181.012 335.303 181.478C335.662 175.829 336.021 170.144 336.384 164.4C340.799 164.182 345.269 164.157 350.089 163.922C349.639 170.078 349.037 177.033 348.605 183.037C353.334 183.593 358.628 183.746 363.901 183.098C364.425 176.753 365.221 168.672 365.765 162.075C371.674 160.821 377.71 159.011 384.08 155.956C383.396 163.238 382.728 170.449 382.06 177.602C375.677 180.315 369.954 182.534 363.901 183.098ZM335.307 181.478C334.945 187.213 334.582 192.907 334.227 198.556C338.416 199.348 342.746 200.337 347.297 201.203C347.73 195.196 348.163 189.139 348.605 183.037C343.974 182.554 339.562 181.919 335.307 181.478ZM335.307 181.478C334.945 187.213 334.582 192.907 334.227 198.556C338.416 199.348 342.746 200.337 347.297 201.203C347.73 195.196 348.163 189.139 348.605 183.037C343.974 182.554 339.562 181.919 335.307 181.478ZM335.307 181.478C334.945 187.213 334.582 192.907 334.227 198.556C338.416 199.348 342.746 200.337 347.297 201.203C347.73 195.196 348.163 189.139 348.605 183.037C343.974 182.554 339.562 181.919 335.307 181.478Z" fill="white"/>
<path d="M324.159 250.645L324.097 251.424C324.229 251.222 324.361 251.016 324.501 250.805C324.385 250.752 324.274 250.698 324.159 250.645Z" fill="#FFD655"/>
<path d="M266.059 132.468L268.421 129.099L266.351 125.978L263.564 124.02L252.543 139.733L258.188 143.691L261.131 139.489L277.937 151.273L282.861 144.252L266.059 132.468Z" fill="white"/>
<path d="M296.818 130.123L303.188 124.672L300.97 122.083L294.538 118.722C295.292 117.613 295.094 115.877 294.253 114.892L287.252 106.708C285.953 105.19 283.966 105.038 282.449 106.337L269.411 117.485L287.236 138.319L293.75 132.745L288.2 126.255L289.512 125.138L296.818 130.123ZM283.747 121.048L280.412 117.147L283.001 114.933L286.337 118.834L283.747 121.048Z" fill="white"/>
<path d="M322.864 111.416L309.175 91.3164L296.273 97.3815L303.011 120.747L304.462 123.831L312.189 120.199L310.338 114.966L313.739 113.367L316.551 118.149L324.315 114.501L322.864 111.416ZM307.987 108.497L305.233 100.791L306.082 100.391L310.255 107.429L307.987 108.497Z" fill="white"/>
<path d="M343.096 104.016L333.51 105.814L330.987 92.3807L339.262 90.8263L339.93 87.1526L339.299 83.8047L324.67 86.5507C322.67 86.9259 321.545 88.5751 321.912 90.5377L325.713 110.786C326.084 112.749 327.729 113.874 329.733 113.499L344.362 110.753L343.096 104.016Z" fill="white"/>
<path d="M368.465 84.5264L360.334 83.9945L357.65 93.7951L356.087 93.6921L356.734 83.7636L348.212 83.207L346.431 110.568L354.953 111.124L355.642 100.532L357.204 100.635L358.821 111.376L367.343 111.933L367.566 108.531L364.457 97.2214L368.242 87.928L368.465 84.5264Z" fill="white"/>
<path d="M380.77 87.4591C378.832 86.8324 377.059 87.7354 376.44 89.6361L374.659 95.1116C373.983 97.1979 374.028 98.4513 375.418 100.261L380.967 107.254L380.411 108.969L371.138 105.951L369.019 112.47L383.21 117.084C385.111 117.702 386.888 116.795 387.503 114.898L389.428 108.973C390.108 106.887 390.071 105.601 388.674 103.828L383.132 96.7938L383.52 95.6022L391.531 98.208L393.885 95.2641L394.928 92.0605L380.77 87.4591Z" fill="white"/>
<path d="M402.099 95.6621L388.896 119.691L396.38 123.802L409.582 99.7728L402.099 95.6621Z" fill="white"/>
<path d="M429.995 115.252L416.974 104.141L399.175 124.995L412.196 136.107C413.713 137.406 415.7 137.249 416.999 135.728L430.375 120.056C431.669 118.538 431.513 116.551 429.995 115.252ZM412.744 127.564L410.122 125.325L418.995 114.927L421.617 117.165L412.744 127.564Z" fill="white"/>
<path d="M438.679 124.426L416.29 140.25L426.87 155.217L432.469 151.263L426.816 143.268L429.884 141.095L434.745 147.973L440.345 144.015L435.483 137.141L437.978 135.377L442.839 142.25L446.476 141.359L449.259 139.393L438.679 124.426Z" fill="white"/>
<path d="M433.08 166.797L422.463 173.914C424.858 181.244 426.153 189.07 426.153 197.192C426.153 205.315 424.858 213.141 422.463 220.471L433.08 227.588C436.601 218.117 438.523 207.875 438.523 197.192C438.523 186.51 436.601 176.268 433.08 166.797ZM448.847 156.23L438.349 163.264C442.456 173.79 444.707 185.231 444.707 197.192C444.707 209.154 442.456 220.595 438.349 231.121L448.847 238.155C454.149 225.547 457.077 211.706 457.077 197.192C457.077 182.679 454.149 168.838 448.847 156.23ZM464.507 145.736L454.075 152.725C459.984 166.368 463.261 181.405 463.261 197.192C463.261 212.98 459.984 228.017 454.075 241.66L464.507 248.649C471.648 232.956 475.631 215.532 475.631 197.192C475.631 178.853 471.648 161.429 464.507 145.736Z" fill="#CB4848"/>
<path d="M247.926 152.725L237.494 145.736C230.353 161.429 226.37 178.853 226.37 197.192C226.37 215.532 230.353 232.956 237.494 248.649L247.926 241.66C242.017 228.017 238.74 212.98 238.74 197.192C238.74 181.405 242.017 166.368 247.926 152.725ZM263.652 163.264L253.154 156.23C247.852 168.838 244.924 182.679 244.924 197.192C244.924 211.706 247.852 225.547 253.154 238.155L263.652 231.121C259.545 220.595 257.294 209.154 257.294 197.192C257.294 185.231 259.545 173.79 263.652 163.264ZM279.538 173.914L268.921 166.797C265.404 176.268 263.479 186.51 263.479 197.192C263.479 207.875 265.404 218.117 268.921 227.588L279.538 220.471C277.143 213.141 275.848 205.315 275.848 197.192C275.848 189.07 277.143 181.244 279.538 173.914Z" fill="#CB4848"/>
<path d="M277.662 243.453L272.269 247.749L275.468 251.761L259.417 264.551L264.761 271.259L280.812 258.469L283.377 261.685L286.956 260.589L289.619 258.465L277.662 243.453Z" fill="white"/>
<path d="M303.242 268.957L297.581 277.133L294.744 275.17L300.409 266.994L293.392 262.133L277.777 284.67L284.799 289.531L290.844 280.806L293.676 282.769L287.632 291.493L294.653 296.359L310.264 273.818L303.242 268.957Z" fill="white"/>
<path d="M326.809 279.884L320.67 299.505L317.421 298.491L323.56 278.865L315.372 276.305L308.206 299.217C307.608 301.126 308.531 302.89 310.477 303.501L326.813 308.609L334.998 282.444L326.809 279.884Z" fill="white"/>
<path d="M353.313 283.347L353.304 286.753L354.418 296.042H353.713L349.75 283.339L340.659 283.314L340.593 310.737L348.468 310.758L348.476 307.348L347.4 298.1H348.068L352.072 310.766L361.159 310.787L361.225 283.364L353.313 283.347Z" fill="white"/>
<path d="M393.58 299.358L387.461 279.686C386.868 277.782 385.103 276.854 383.194 277.448L366.85 282.531L374.993 308.709L391.337 303.625C393.246 303.031 394.174 301.267 393.58 299.358ZM381.112 299.63L377.05 286.576L380.341 285.554L384.402 298.603L381.112 299.63Z" fill="white"/>
<path d="M418.28 280.752L410.075 286.095L408.026 282.945L415.081 278.352L411.341 272.609L404.282 277.202L402.616 274.641L409.671 270.048L408.921 266.379L407.057 263.521L391.698 273.528L406.665 296.502L422.024 286.495L418.28 280.752Z" fill="white"/>
<path d="M440.146 267.668L445.485 261.207L442.859 259.034L435.944 256.824C436.497 255.603 436.002 253.925 435.008 253.105L426.704 246.24C425.162 244.97 423.179 245.155 421.905 246.697L410.975 259.92L432.11 277.39L437.577 270.776L430.993 265.338L432.093 264.006L440.146 267.668ZM425.711 260.972L421.757 257.702L423.925 255.076L427.88 258.341L425.711 260.972Z" fill="white"/>
<path d="M447.878 100.126C422.001 74.2494 387.597 60 351 60C314.403 60 280.003 74.2494 254.122 100.126C228.25 126.002 214 160.406 214 196.998C214 233.59 228.25 267.993 254.127 293.87C280.003 319.746 314.407 334 351 334C387.593 334 422.001 319.746 447.878 293.87C473.75 267.993 488 233.59 488 196.998C488 160.406 473.75 126.002 447.878 100.126ZM443.503 289.499C418.793 314.209 385.94 327.815 351 327.815C316.06 327.815 283.207 314.209 258.497 289.499C233.791 264.79 220.185 231.941 220.185 196.998C220.185 162.055 233.791 129.21 258.497 104.501C283.203 79.795 316.056 66.1846 351 66.1846C385.944 66.1846 418.797 79.795 443.503 104.501C468.209 129.21 481.815 162.059 481.815 196.998C481.815 231.937 468.209 264.79 443.503 289.499Z" fill="#FFD655"/>
<path d="M317.747 221.706C313.689 221.912 309.834 222.934 306.173 225.247C307.039 206.232 307.929 186.73 308.845 166.716C328.042 147.981 352.723 161.282 384.352 144.08C385.024 143.713 385.704 143.334 386.385 142.938C387.692 142.18 388.949 141.409 390.24 140.563C389.889 140.32 389.535 140.081 389.18 139.842C382.591 135.455 375.347 132.21 367.595 130.289C366.829 130.099 366.053 129.922 365.274 129.761C360.586 128.767 355.791 128.281 351 128.276C316.642 127.848 286.052 155.105 282.531 189.282C282.234 191.875 282.081 194.518 282.081 197.194C281.842 221.157 295.329 244.486 315.887 256.48C317.186 257.255 318.513 257.977 319.862 258.665C320.002 256.785 320.179 254.443 320.365 251.92C320.794 246.172 321.288 239.476 321.614 235.118L316.992 233.84L317.747 221.706ZM317.252 238.19L316.407 249.499C299.46 238.256 288.266 219.009 288.266 197.194C288.266 162.601 316.411 134.461 351 134.461C361.506 134.461 371.418 137.055 380.126 141.639C366.701 148.405 354.764 149.502 343.178 150.57C329.728 151.807 317.021 152.978 305.967 163.764L304.8 164.902L304.726 166.526C303.81 186.544 302.92 206.042 302.054 225.062L301.695 232.953C304.676 231.044 310.119 227.507 313.339 226.179L312.671 236.924L317.252 238.19Z" fill="#FFD655"/>
<path d="M419.911 196.191C419.766 176.206 410.217 156.708 395.069 144.248C394.817 146.784 394.562 149.315 394.31 151.847C391.84 176.66 389.395 201.295 387.062 224.71C371.678 231.245 358.047 229.522 345.884 226.743C342.643 231.583 332.723 246.398 326.892 255.106C325.392 257.34 324.163 259.175 323.388 260.334C332.071 264.152 341.509 266.114 351 266.11C353.157 266.11 355.289 266.011 357.395 265.813C358.096 265.747 358.793 265.673 359.49 265.586C393.51 261.859 420.884 230.833 419.911 196.191ZM347.739 231.381C362.859 234.684 377.1 234.004 390.921 227.551L391.164 225.118C393.366 203.014 395.629 180.243 397.963 156.77L398.062 155.756C407.813 166.814 413.734 181.323 413.734 197.193C413.734 231.781 385.594 259.921 351 259.921C343.954 259.921 337.176 258.755 330.846 256.598L347.739 231.381Z" fill="#FFD655"/>
</svg>
