<svg width="700" height="394" viewBox="0 0 700 394" fill="none" xmlns="http://www.w3.org/2000/svg">
<rect width="700" height="394" fill="#3F2E42"/>
<path d="M335.453 182.613C335.116 187.929 334.78 193.208 334.451 198.444C338.335 199.178 342.348 200.095 346.568 200.898C346.969 195.329 347.37 189.714 347.779 184.057C343.487 183.61 339.397 183.022 335.453 182.613ZM335.453 182.613C335.116 187.929 334.78 193.208 334.451 198.444C338.335 199.178 342.348 200.095 346.568 200.898C346.969 195.329 347.37 189.714 347.779 184.057C343.487 183.61 339.397 183.022 335.453 182.613ZM335.453 182.613C335.116 187.929 334.78 193.208 334.451 198.444C338.335 199.178 342.348 200.095 346.568 200.898C346.969 195.329 347.37 189.714 347.779 184.057C343.487 183.61 339.397 183.022 335.453 182.613ZM313.777 170.97C313.028 186.721 312.294 202.125 311.572 217.203C315.119 215.647 318.738 215.12 322.721 215.288L322.056 227.859L326.486 228.968L325.117 246.729L325.06 247.451C325.182 247.264 325.305 247.073 325.435 246.878C329.631 240.411 335.774 230.928 340.402 223.792C337.819 223.146 335.304 222.5 332.857 221.939V221.87L333.201 216.809H333.205C338.002 217.864 343.047 219.244 348.379 220.295C357.266 222.034 367.012 222.841 377.856 219.577C379.893 198.241 381.992 176.249 384.151 153.564C354.579 170.756 332.123 157.582 313.777 170.97ZM375.203 217.092C369.963 218.575 364.283 219.103 359.12 218.854C359.567 213.324 360.029 207.755 360.488 202.132C365.977 202.086 371.156 200.519 376.931 198.547L375.203 217.092ZM361.96 184.115C361.463 190.173 360.973 196.177 360.484 202.136C355.691 202.316 350.875 201.765 346.568 200.898C346.181 206.302 345.792 211.661 345.409 216.981C341.197 216.114 337.245 215.12 333.373 214.329C333.71 209.142 334.119 203.631 334.447 198.444C330.801 197.71 327.059 197.32 323.646 197.565C323.374 202.587 323.061 207.969 322.786 212.911C319.392 212.869 316.227 213.132 313.181 214.172C313.402 209.62 313.628 205.037 313.85 200.424C316.988 198.964 320.064 197.691 323.646 197.561C323.921 192.623 324.196 187.658 324.475 182.651C320.844 183.09 317.737 184.646 314.557 186.385L315.237 172.427C318.203 170.447 321.746 168.991 325.282 168.169C325.01 173.031 324.739 177.858 324.475 182.651C327.942 182.108 331.741 182.181 335.449 182.613C335.781 177.376 336.114 172.106 336.45 166.781C340.544 166.579 344.687 166.556 349.155 166.338C348.739 172.044 348.18 178.492 347.779 184.057C352.163 184.573 357.071 184.715 361.96 184.115C362.445 178.233 363.183 170.741 363.687 164.626C369.164 163.464 374.76 161.786 380.665 158.954C380.031 165.704 379.412 172.388 378.792 179.02C372.876 181.535 367.57 183.591 361.96 184.115ZM335.453 182.613C335.116 187.929 334.78 193.208 334.451 198.444C338.335 199.178 342.348 200.095 346.568 200.898C346.969 195.329 347.37 189.714 347.779 184.057C343.487 183.61 339.397 183.022 335.453 182.613ZM335.453 182.613C335.116 187.929 334.78 193.208 334.451 198.444C338.335 199.178 342.348 200.095 346.568 200.898C346.969 195.329 347.37 189.714 347.779 184.057C343.487 183.61 339.397 183.022 335.453 182.613ZM335.453 182.613C335.116 187.929 334.78 193.208 334.451 198.444C338.335 199.178 342.348 200.095 346.568 200.898C346.969 195.329 347.37 189.714 347.779 184.057C343.487 183.61 339.397 183.022 335.453 182.613Z" fill="white"/>
<path d="M325.118 246.729L325.06 247.451C325.183 247.264 325.305 247.073 325.435 246.878C325.328 246.828 325.225 246.778 325.118 246.729Z" fill="#FFD655"/>
<path d="M271.259 137.177L273.449 134.055L271.53 131.161L268.946 129.346L258.73 143.912L263.962 147.581L266.691 143.686L282.271 154.61L286.834 148.101L271.259 137.177Z" fill="white"/>
<path d="M299.773 135.006L305.678 129.953L303.622 127.553L297.659 124.438C298.359 123.41 298.175 121.8 297.395 120.887L290.905 113.3C289.701 111.893 287.859 111.752 286.452 112.956L274.367 123.291L290.89 142.604L296.929 137.437L291.784 131.421L293 130.385L299.773 135.006ZM287.656 126.593L284.564 122.978L286.965 120.925L290.057 124.541L287.656 126.593Z" fill="white"/>
<path d="M323.917 117.664L311.227 99.0312L299.268 104.654L305.513 126.314L306.859 129.173L314.021 125.805L312.305 120.955L315.459 119.472L318.065 123.906L325.263 120.523L323.917 117.664ZM310.127 114.958L307.573 107.815L308.361 107.444L312.229 113.968L310.127 114.958Z" fill="white"/>
<path d="M342.673 110.804L333.786 112.471L331.447 100.018L339.118 98.5775L339.738 95.1719L339.153 92.0684L325.592 94.6139C323.738 94.9617 322.694 96.4906 323.035 98.3099L326.559 117.08C326.903 118.9 328.428 119.943 330.285 119.595L343.846 117.05L342.673 110.804Z" fill="white"/>
<path d="M366.191 92.7368L358.653 92.2437L356.165 101.329L354.716 101.233L355.317 92.0297L347.416 91.5137L345.765 116.877L353.665 117.393L354.304 107.574L355.752 107.67L357.251 117.626L365.151 118.142L365.357 114.989L362.476 104.505L365.984 95.89L366.191 92.7368Z" fill="white"/>
<path d="M377.596 95.4564C375.8 94.8755 374.156 95.7125 373.583 97.4745L371.932 102.55C371.305 104.484 371.347 105.646 372.635 107.324L377.78 113.807L377.264 115.397L368.667 112.599L366.703 118.642L379.859 122.918C381.621 123.492 383.268 122.651 383.838 120.893L385.623 115.4C386.253 113.466 386.219 112.274 384.923 110.63L379.786 104.11L380.146 103.005L387.572 105.421L389.755 102.692L390.722 99.7219L377.596 95.4564Z" fill="white"/>
<path d="M397.368 103.061L385.13 125.336L392.067 129.147L404.306 106.871L397.368 103.061Z" fill="white"/>
<path d="M423.229 121.219L411.159 110.918L394.658 130.25L406.729 140.551C408.136 141.755 409.978 141.61 411.182 140.199L423.581 125.671C424.781 124.265 424.636 122.423 423.229 121.219ZM407.237 132.632L404.806 130.556L413.032 120.917L415.463 122.992L407.237 132.632Z" fill="white"/>
<path d="M431.279 129.723L410.524 144.392L420.332 158.266L425.523 154.601L420.282 147.19L423.126 145.176L427.633 151.551L432.823 147.882L428.317 141.51L430.629 139.874L435.136 146.246L438.507 145.42L441.087 143.597L431.279 129.723Z" fill="white"/>
<path d="M426.088 169L416.246 175.597C418.467 182.393 419.667 189.647 419.667 197.177C419.667 204.706 418.467 211.961 416.246 218.757L426.088 225.354C429.353 216.574 431.134 207.08 431.134 197.177C431.134 187.274 429.353 177.779 426.088 169ZM440.705 159.204L430.973 165.724C434.78 175.482 436.867 186.089 436.867 197.177C436.867 208.265 434.78 218.871 430.973 228.629L440.705 235.15C445.62 223.462 448.334 210.631 448.334 197.177C448.334 183.723 445.62 170.892 440.705 159.204ZM455.221 149.477L445.551 155.955C451.028 168.603 454.067 182.542 454.067 197.177C454.067 211.812 451.028 225.751 445.551 238.399L455.221 244.877C461.841 230.33 465.534 214.178 465.534 197.177C465.534 180.176 461.841 164.024 455.221 149.477Z" fill="#CB4848"/>
<path d="M254.449 155.955L244.779 149.477C238.159 164.024 234.467 180.176 234.467 197.177C234.467 214.178 238.159 230.33 244.779 244.877L254.449 238.399C248.972 225.751 245.933 211.812 245.933 197.177C245.933 182.542 248.972 168.603 254.449 155.955ZM269.027 165.724L259.296 159.204C254.38 170.892 251.666 183.723 251.666 197.177C251.666 210.631 254.38 223.462 259.296 235.15L269.027 228.629C265.22 218.871 263.133 208.265 263.133 197.177C263.133 186.089 265.22 175.482 269.027 165.724ZM283.754 175.597L273.912 169C270.651 177.779 268.866 187.274 268.866 197.177C268.866 207.08 270.651 216.574 273.912 225.354L283.754 218.757C281.533 211.961 280.333 204.706 280.333 197.177C280.333 189.647 281.533 182.393 283.754 175.597Z" fill="#CB4848"/>
<path d="M282.015 240.062L277.015 244.045L279.981 247.764L265.102 259.62L270.055 265.839L284.935 253.983L287.312 256.964L290.63 255.947L293.099 253.979L282.015 240.062Z" fill="white"/>
<path d="M305.727 263.703L300.48 271.282L297.85 269.463L303.102 261.883L296.596 257.377L282.122 278.269L288.631 282.775L294.234 274.687L296.86 276.507L291.257 284.594L297.766 289.105L312.237 268.209L305.727 263.703Z" fill="white"/>
<path d="M327.575 273.833L321.884 292.023L318.872 291.083L324.563 272.889L316.972 270.516L310.329 291.755C309.775 293.525 310.631 295.161 312.435 295.726L327.579 300.462L335.166 276.207L327.575 273.833Z" fill="white"/>
<path d="M352.144 277.044L352.137 280.201L353.169 288.813H352.515L348.842 277.037L340.414 277.014L340.353 302.435L347.653 302.454L347.661 299.293L346.663 290.72H347.282L350.994 302.461L359.418 302.481L359.479 277.06L352.144 277.044Z" fill="white"/>
<path d="M389.472 291.886L383.8 273.651C383.249 271.885 381.613 271.025 379.844 271.575L364.692 276.288L372.241 300.555L387.392 295.842C389.162 295.292 390.022 293.656 389.472 291.886ZM377.913 292.138L374.148 280.037L377.199 279.09L380.963 291.187L377.913 292.138Z" fill="white"/>
<path d="M412.371 274.639L404.765 279.592L402.865 276.672L409.405 272.414L405.938 267.09L399.394 271.348L397.85 268.974L404.39 264.716L403.694 261.315L401.967 258.666L387.729 267.942L401.604 289.239L415.841 279.963L412.371 274.639Z" fill="white"/>
<path d="M432.639 262.511L437.589 256.522L435.154 254.507L428.745 252.459C429.257 251.327 428.798 249.772 427.877 249.011L420.179 242.647C418.75 241.47 416.911 241.642 415.73 243.072L405.597 255.329L425.19 271.524L430.258 265.393L424.154 260.351L425.175 259.117L432.639 262.511ZM419.258 256.304L415.592 253.273L417.603 250.838L421.268 253.865L419.258 256.304Z" fill="white"/>
<path d="M439.806 107.197C415.818 83.2093 383.926 70 350 70C316.074 70 284.186 83.2093 260.194 107.197C236.209 131.185 223 163.077 223 196.998C223 230.92 236.209 262.811 260.198 286.799C284.186 310.787 316.078 324 350 324C383.922 324 415.818 310.787 439.806 286.799C463.79 262.811 477 230.92 477 196.998C477 163.077 463.79 131.185 439.806 107.197ZM435.751 282.748C412.844 305.654 382.389 318.267 350 318.267C317.611 318.267 287.156 305.654 264.249 282.748C241.347 259.842 228.733 229.391 228.733 196.998C228.733 164.605 241.347 134.158 264.249 111.252C287.152 88.3501 317.607 75.7332 350 75.7332C382.393 75.7332 412.848 88.3501 435.751 111.252C458.653 134.158 471.267 164.609 471.267 196.998C471.267 229.387 458.653 259.842 435.751 282.748Z" fill="#FFD655"/>
<path d="M319.174 219.901C315.413 220.092 311.839 221.04 308.445 223.185C309.248 205.557 310.073 187.478 310.922 168.926C328.718 151.558 351.598 163.888 380.918 147.942C381.541 147.602 382.171 147.25 382.802 146.883C384.014 146.18 385.179 145.465 386.376 144.682C386.051 144.456 385.722 144.235 385.393 144.013C379.286 139.946 372.57 136.938 365.384 135.157C364.673 134.981 363.955 134.817 363.232 134.668C358.887 133.747 354.441 133.296 350 133.292C318.15 132.894 289.793 158.162 286.529 189.844C286.253 192.248 286.112 194.698 286.112 197.179C285.89 219.393 298.393 241.019 317.45 252.137C318.654 252.856 319.885 253.525 321.135 254.163C321.265 252.42 321.429 250.249 321.601 247.91C321.999 242.582 322.457 236.375 322.759 232.335L318.475 231.15L319.174 219.901ZM318.715 235.182L317.932 245.666C302.223 235.243 291.845 217.402 291.845 197.179C291.845 165.111 317.936 139.025 350 139.025C359.739 139.025 368.927 141.429 377 145.679C364.555 151.951 353.49 152.968 342.749 153.958C330.281 155.105 318.501 156.19 308.254 166.189L307.172 167.244L307.104 168.75C306.255 187.306 305.429 205.381 304.627 223.013L304.294 230.328C307.058 228.558 312.103 225.279 315.088 224.048L314.469 234.009L318.715 235.182Z" fill="#FFD655"/>
<path d="M413.88 196.251C413.746 177.725 404.894 159.65 390.851 148.1C390.618 150.45 390.381 152.797 390.148 155.144C387.859 178.145 385.592 200.983 383.429 222.689C369.168 228.747 356.532 227.149 345.256 224.573C342.252 229.06 333.056 242.793 327.651 250.865C326.26 252.937 325.121 254.638 324.403 255.712C332.452 259.251 341.201 261.07 350 261.067C351.999 261.067 353.975 260.975 355.928 260.791C356.578 260.73 357.224 260.661 357.87 260.581C389.407 257.126 414.782 228.364 413.88 196.251ZM346.976 228.873C360.992 231.934 374.194 231.304 387.006 225.322L387.232 223.067C389.273 202.577 391.371 181.467 393.535 159.707L393.626 158.767C402.666 169.018 408.154 182.468 408.154 197.18C408.154 229.244 382.068 255.33 350 255.33C343.468 255.33 337.184 254.248 331.317 252.249L346.976 228.873Z" fill="#FFD655"/>
</svg>
