<svg width="700" height="394" viewBox="0 0 700 394" fill="none" xmlns="http://www.w3.org/2000/svg">
<g clip-path="url(#clip0_3211_19124)">
<rect width="700" height="394" fill="#3F2E42"/>
<rect width="350.222" height="197" fill="#FFD655"/>
<g clip-path="url(#clip1_3211_19124)">
<path d="M159.829 92.2095L161.635 92.7079L161.11 99.7583C153.135 95.0241 147.78 86.3245 147.78 76.3977C147.781 61.4275 159.959 49.25 174.929 49.25C180.083 49.25 184.907 50.6943 189.016 53.1984C182.975 57.0607 177.064 57.7568 171.848 58.1921C166.548 58.6796 161.544 59.1404 157.188 63.3908L156.729 63.837C156.31 73.0108 155.907 81.8098 155.506 90.644C156.68 89.8921 158.825 88.5024 160.091 87.9749L159.828 92.2071L159.829 92.2095Z" fill="#3F2E42"/>
<path d="M189.441 57.8633C188.523 67.5027 187.632 76.8474 186.766 85.9144C182.158 87.3005 178.016 86.9585 174.24 86.2188C171.975 85.7725 169.831 85.1868 167.793 84.7381H167.791L167.646 86.8882V86.9173C168.684 87.1562 169.752 87.4314 170.851 87.7055C168.884 90.7371 166.274 94.7668 164.49 97.5159C164.444 97.4941 164.401 97.4734 164.356 97.4516L164.937 89.904L163.055 89.4335L163.337 84.0918C161.644 84.0202 160.107 84.2446 158.599 84.9055C158.906 78.4978 159.218 71.9531 159.537 65.2593C167.333 59.5695 176.874 65.1683 189.441 57.8633Z" fill="#FAFAFA"/>
<path d="M202.077 76.3975C202.077 91.3653 189.899 103.545 174.929 103.545C171.683 103.545 168.565 102.972 165.678 101.921L173.644 90.0265C179.597 91.3301 185.214 91.0597 190.654 88.5179C191.671 78.3207 192.738 67.5645 193.799 56.9004C198.901 61.8383 202.076 68.7541 202.076 76.3987L202.077 76.3975Z" fill="#3F2E42"/>
<path d="M187.96 60.1543C187.691 63.0222 187.428 65.8635 187.165 68.6817C184.651 69.75 182.396 70.6244 180.012 70.8463C180.218 68.347 180.533 65.1638 180.746 62.5651C183.073 62.0715 185.451 61.3585 187.96 60.1543Z" fill="#3F2E42"/>
<path d="M186.373 76.9785L185.639 84.8596C183.413 85.4901 180.998 85.7145 178.805 85.6078C178.995 83.2576 179.191 80.8918 179.385 78.5016C181.717 78.4822 183.918 77.8165 186.373 76.9785Z" fill="#3F2E42"/>
<path d="M180.011 70.8465C179.8 73.421 179.592 75.9724 179.384 78.5044C177.347 78.5808 175.301 78.3468 173.47 77.9781C173.641 75.6123 173.811 73.2257 173.986 70.8223C175.848 71.0418 177.934 71.1012 180.011 70.8465Z" fill="#3F2E42"/>
<path d="M174.57 63.291C174.393 65.7163 174.155 68.4557 173.985 70.8204C172.162 70.63 170.424 70.3802 168.748 70.2068H168.747C168.889 67.9816 169.029 65.7418 169.172 63.479C170.911 63.3929 172.672 63.3832 174.571 63.291H174.57Z" fill="#3F2E42"/>
<path d="M173.47 77.9772C173.306 80.274 173.14 82.5514 172.978 84.8117C171.188 84.4431 169.508 84.0211 167.863 83.6852C168.006 81.4818 168.179 79.1389 168.319 76.9355H168.32C169.97 77.2472 171.675 77.6377 173.469 77.9784L173.47 77.9772Z" fill="#3F2E42"/>
<path d="M168.747 70.207C168.604 72.4662 168.461 74.7096 168.321 76.9348H168.32C166.77 76.6232 165.18 76.457 163.73 76.5613C163.846 74.461 163.964 72.351 164.083 70.224C165.556 69.9936 167.17 70.0239 168.746 70.2082H168.747V70.207Z" fill="#3F2E42"/>
<path d="M164.425 64.0703C164.31 66.1367 164.195 68.1873 164.082 70.2245C162.539 70.4113 161.219 71.0722 159.867 71.8119L160.155 65.8808C161.415 65.0392 162.921 64.4208 164.424 64.0715L164.425 64.0703Z" fill="#3F2E42"/>
<path d="M163.73 76.5586C163.615 78.6941 163.482 80.9811 163.365 83.0815C161.923 83.0633 160.579 83.1761 159.283 83.6175C159.378 81.6833 159.474 79.7357 159.567 77.7749C160.901 77.154 162.208 76.6132 163.73 76.5586Z" fill="#3F2E42"/>
<path d="M189.262 54.9535C176.228 62.757 166.126 56.9387 158.323 64.5517C157.963 72.4364 157.612 80.1186 157.271 87.6091C158.713 86.6972 160.232 86.2946 161.83 86.2134L161.533 90.9936L163.353 91.4969L162.964 96.7331L162.434 103.845L166.193 98.2344L172.913 88.1985C177.705 89.2935 183.074 89.9726 189.134 87.3981C190.239 76.312 191.423 64.3698 192.586 52.6992C191.457 53.5554 190.35 54.3023 189.262 54.9535ZM186.766 85.9138C182.158 87.2999 178.016 86.9579 174.24 86.2182C171.975 85.772 169.831 85.1862 167.792 84.7376H167.791L167.646 86.8876V86.9167C168.684 87.1556 169.752 87.4309 170.851 87.7049C168.884 90.7366 166.274 94.7662 164.49 97.5153C164.444 97.4935 164.401 97.4729 164.356 97.451L164.937 89.9035L163.055 89.433L163.337 84.0912C161.644 84.0197 160.107 84.244 158.599 84.9049C158.906 78.4972 159.218 71.9525 159.537 65.2587C167.333 59.5689 176.874 65.1677 189.441 57.8627C188.523 67.5021 187.631 76.8468 186.766 85.9138Z" fill="#3F2E42"/>
<path d="M129.874 115.963V112.58C133.014 112.58 136.153 112.58 139.293 112.58C139.292 113.212 139.29 113.528 139.288 114.16C139.018 114.809 138.882 115.135 138.611 115.789C137.805 115.803 137.401 115.811 136.595 115.825C136.587 119.046 136.581 122.268 136.574 125.489C135.176 125.596 133.778 125.706 132.38 125.82C132.382 122.515 132.386 119.212 132.388 115.908C131.382 115.928 130.878 115.939 129.873 115.962L129.874 115.963Z" fill="#3F2E42"/>
<path d="M148.646 112.58C149.626 112.58 150.316 113.201 150.314 114.08C150.308 115.66 150.301 117.242 150.297 118.822C150.294 119.39 149.812 120.043 149.176 120.219C149.702 121.394 149.966 121.978 150.492 123.141C150.489 123.74 150.488 124.041 150.486 124.64C149.114 124.707 147.744 124.778 146.372 124.852C145.998 123.593 145.624 122.335 145.253 121.075C144.915 121.088 144.746 121.095 144.408 121.109C144.403 122.394 144.4 123.68 144.395 124.966C142.993 125.051 141.592 125.141 140.192 125.233C140.204 121.015 140.216 116.799 140.228 112.581H148.647L148.646 112.58ZM144.425 115.694C144.421 116.622 144.42 117.085 144.416 118.012C145.085 117.995 145.419 117.986 146.089 117.969C146.092 117.049 146.094 116.589 146.097 115.67C145.428 115.68 145.094 115.684 144.425 115.694Z" fill="#3F2E42"/>
<path d="M160.268 112.58C160.884 115.978 161.504 119.375 162.126 122.771C162.125 123.35 162.123 123.639 162.122 124.218C160.717 124.254 159.311 124.296 157.905 124.34C157.808 123.396 157.759 122.924 157.662 121.978C156.924 121.998 156.554 122.008 155.815 122.03C155.704 122.987 155.649 123.466 155.538 124.424C154.139 124.479 152.741 124.537 151.343 124.599C151.345 124.001 151.347 123.703 151.349 123.105C151.987 119.595 152.627 116.087 153.271 112.58C155.603 112.58 157.936 112.58 160.268 112.58ZM157.363 119.041C157.238 117.876 157.114 116.71 156.989 115.545C156.805 115.546 156.713 115.547 156.527 115.549C156.395 116.721 156.263 117.893 156.131 119.065C156.623 119.056 156.869 119.051 157.361 119.041H157.363Z" fill="#3F2E42"/>
<path d="M172.178 112.579C172.178 113.15 172.178 113.435 172.178 114.007C171.916 114.591 171.785 114.883 171.523 115.468C170.144 115.47 168.765 115.474 167.388 115.479C167.384 117.396 167.382 119.312 167.378 121.229C168.976 121.211 170.575 121.2 172.173 121.193C172.173 122.341 172.173 122.916 172.172 124.064C169.731 124.078 167.29 124.107 164.85 124.155C163.848 124.175 163.156 123.594 163.158 122.747C163.165 119.838 163.173 116.929 163.18 114.021C163.182 113.175 163.876 112.578 164.875 112.578C167.31 112.578 169.745 112.578 172.18 112.578L172.178 112.579Z" fill="#3F2E42"/>
<path d="M179.157 112.58C180.489 112.58 181.822 112.58 183.155 112.58C183.155 113.154 183.156 113.441 183.157 114.015C182.641 115.347 182.124 116.68 181.605 118.012C182.238 119.572 182.87 121.133 183.499 122.695C183.499 123.27 183.5 123.556 183.502 124.131C182.101 124.109 180.702 124.092 179.301 124.078C178.921 122.593 178.541 121.107 178.161 119.622C177.853 119.622 177.699 119.621 177.391 119.62C177.391 121.101 177.392 122.583 177.393 124.065C175.993 124.06 174.592 124.059 173.192 124.063C173.193 120.236 173.194 116.408 173.196 112.581H177.387C177.387 113.971 177.389 115.359 177.39 116.749C177.698 116.749 177.852 116.749 178.16 116.75C178.492 115.361 178.824 113.971 179.157 112.581V112.58Z" fill="#3F2E42"/>
<path d="M184.347 116.446C184.344 115.475 184.344 114.988 184.342 114.017C184.341 113.174 185.031 112.58 186.031 112.58H193.336C193.339 113.161 193.339 113.451 193.341 114.03C193.081 114.637 192.952 114.939 192.692 115.543C191.313 115.532 189.936 115.521 188.557 115.511C188.557 115.724 188.557 115.831 188.558 116.045C189.781 116.764 191.002 117.486 192.219 118.213C193.145 118.766 193.358 119.295 193.36 120.239C193.364 121.312 193.365 121.848 193.369 122.922C193.371 123.783 192.681 124.363 191.699 124.332C189.253 124.252 186.807 124.189 184.361 124.145C184.359 122.988 184.358 122.41 184.355 121.254C185.953 121.276 187.552 121.304 189.149 121.337C189.149 121.03 189.148 120.876 189.146 120.569C187.928 119.85 186.708 119.134 185.484 118.423C184.559 117.867 184.347 117.371 184.344 116.446H184.347Z" fill="#3F2E42"/>
<path d="M194.395 124.427C194.381 120.478 194.367 116.528 194.354 112.58C195.75 112.58 197.147 112.58 198.544 112.58C198.559 116.588 198.574 120.595 198.589 124.602C197.191 124.54 195.793 124.481 194.395 124.427Z" fill="#3F2E42"/>
<path d="M199.763 124.657C199.749 120.631 199.733 116.605 199.718 112.58H208.118C209.098 112.58 209.793 113.231 209.795 114.154C209.804 117.325 209.814 120.498 209.822 123.669C209.825 124.591 209.136 125.195 208.157 125.131C205.36 124.954 202.562 124.796 199.762 124.657H199.763ZM203.942 121.802C204.619 121.831 204.957 121.846 205.632 121.876C205.625 119.816 205.618 117.757 205.611 115.697C204.934 115.687 204.596 115.682 203.919 115.672C203.926 117.716 203.933 119.76 203.941 121.804L203.942 121.802Z" fill="#3F2E42"/>
<path d="M219.314 115.949C219.582 115.273 219.716 114.934 219.985 114.254V112.58C216.987 112.58 213.988 112.58 210.989 112.58C211 116.829 211.011 121.077 211.023 125.326C214.012 125.541 217 125.777 219.985 126.037C219.985 124.691 219.985 124.018 219.985 122.673C218.388 122.568 216.793 122.468 215.196 122.373C215.196 121.658 215.194 121.299 215.193 120.584C216.567 120.652 217.942 120.721 219.316 120.792C219.316 119.452 219.316 118.783 219.316 117.443C217.941 117.4 216.565 117.359 215.189 117.319C215.189 116.737 215.188 116.446 215.187 115.864C216.563 115.892 217.94 115.92 219.316 115.95L219.314 115.949Z" fill="#3F2E42"/>
<path d="M149.097 131.464C149.103 129.722 149.111 127.978 149.117 126.235C150.777 126.142 152.438 126.057 154.1 125.98C154.083 130.694 154.066 135.408 154.049 140.121C152.385 140.276 150.722 140.451 149.062 140.644C149.069 138.785 149.075 136.925 149.083 135.066C148.279 135.141 147.876 135.18 147.073 135.26C147.066 137.136 147.06 139.01 147.053 140.886C145.394 141.094 143.737 141.321 142.083 141.566C142.099 136.605 142.115 131.644 142.131 126.683C143.788 126.564 145.447 126.453 147.106 126.352C147.1 128.11 147.093 129.867 147.087 131.625C147.891 131.557 148.292 131.525 149.096 131.462L149.097 131.464Z" fill="#3F2E42"/>
<path d="M167.545 125.566C167.538 130.134 167.531 134.703 167.523 139.271C164.175 139.393 160.836 139.579 157.495 139.827C156.303 139.921 155.481 139.269 155.484 138.245C155.499 134.136 155.513 130.028 155.527 125.919C157.197 125.849 158.868 125.787 160.539 125.734C160.529 129.203 160.519 132.674 160.508 136.143C161.306 136.098 161.705 136.078 162.503 136.039C162.512 132.584 162.521 129.129 162.53 125.676C164.201 125.631 165.873 125.594 167.545 125.568V125.566Z" fill="#3F2E42"/>
<path d="M177.059 131.828C176.837 130.287 176.614 128.746 176.392 127.206C176.392 126.528 176.392 126.188 176.392 125.51C177.934 125.515 179.477 125.528 181.019 125.548C181.025 130.109 181.031 134.671 181.037 139.231C179.261 139.189 177.484 139.161 175.707 139.15C174.918 137.054 174.13 134.956 173.342 132.859C173.186 132.859 173.108 132.86 172.952 132.861C173.165 134.393 173.378 135.926 173.593 137.457C173.593 138.135 173.593 138.475 173.593 139.153C172.053 139.162 170.514 139.187 168.974 139.228C168.98 134.667 168.986 130.106 168.992 125.545C170.764 125.525 172.536 125.513 174.307 125.508C175.087 127.614 175.867 129.721 176.646 131.826C176.811 131.826 176.894 131.827 177.06 131.828H177.059Z" fill="#3F2E42"/>
<path d="M182.488 139.275C182.48 134.706 182.473 130.138 182.465 125.568C185.801 125.629 189.135 125.72 192.469 125.842C193.636 125.887 194.461 126.648 194.465 127.674C194.477 131.2 194.489 134.728 194.501 138.254C194.505 139.28 193.683 139.93 192.514 139.838C189.173 139.587 185.833 139.4 182.485 139.275H182.488ZM187.484 136.044C188.291 136.085 188.695 136.105 189.502 136.151C189.494 133.844 189.488 131.536 189.481 129.228C188.675 129.195 188.272 129.181 187.466 129.153C187.472 131.45 187.478 133.747 187.484 136.044Z" fill="#3F2E42"/>
<path d="M195.936 140.135C195.919 135.419 195.902 130.703 195.885 125.988C199.45 126.158 203.013 126.363 206.575 126.604C206.577 127.34 206.578 127.708 206.581 128.444C206.264 129.172 206.105 129.534 205.789 130.256C204.154 130.116 202.517 129.986 200.881 129.869C200.884 130.511 200.885 130.833 200.887 131.476C202.525 131.604 204.16 131.745 205.795 131.898C205.799 133.126 205.804 134.354 205.807 135.583C204.173 135.401 202.538 135.232 200.9 135.08C200.902 135.87 200.904 136.266 200.907 137.056C202.811 137.255 204.711 137.471 206.611 137.701C206.615 138.935 206.62 140.168 206.623 141.401C203.068 140.905 199.507 140.484 195.934 140.135H195.936Z" fill="#3F2E42"/>
<path d="M219.563 140.597C219.107 139.371 218.879 138.762 218.422 137.554C218.677 137.525 218.911 137.419 219.109 137.262C219.488 136.959 219.736 136.462 219.736 135.966C219.736 133.875 219.736 131.784 219.736 129.694C219.736 128.53 218.918 127.627 217.759 127.518C214.436 127.21 211.112 126.934 207.785 126.688C207.801 131.65 207.816 136.613 207.832 141.575C209.495 141.823 211.154 142.088 212.81 142.372C212.806 140.783 212.803 139.196 212.799 137.607C213.199 137.664 213.399 137.695 213.798 137.753C214.252 139.429 214.699 141.107 215.146 142.785C216.762 143.08 218.376 143.394 219.985 143.725V141.738C219.817 141.279 219.732 141.051 219.563 140.595V140.597ZM214.769 134.031C213.978 133.929 213.583 133.88 212.791 133.784C212.788 132.639 212.787 132.067 212.785 130.922C213.576 131.006 213.972 131.048 214.764 131.137C214.766 132.295 214.767 132.873 214.769 134.031Z" fill="#3F2E42"/>
<path d="M219.986 145.425V146.737C192.304 141.319 163.938 141.263 136.373 147.428C136.82 146.242 137.273 145.058 137.729 143.875C165.039 139.136 192.874 139.658 219.987 145.425H219.986Z" fill="#3F2E42"/>
<path d="M141.02 128.643C141.022 127.899 141.024 127.527 141.026 126.783C137.306 127.067 133.589 127.391 129.876 127.753V131.774C131.064 131.624 131.658 131.553 132.849 131.412C132.845 134.268 132.843 137.122 132.839 139.978C133.626 138.944 134.423 137.915 135.23 136.896C134.422 138.979 133.624 141.066 132.836 143.156C133.52 143.026 133.862 142.961 134.547 142.835C134.544 144.488 134.542 146.142 134.54 147.795C135.609 144.963 136.698 142.14 137.806 139.324C137.079 139.435 136.716 139.491 135.989 139.607C136.593 138.056 137.203 136.507 137.819 134.961C137.822 133.595 137.825 132.228 137.828 130.861C138.784 130.763 139.262 130.715 140.217 130.622C140.539 129.827 140.699 129.432 141.02 128.643Z" fill="#3F2E42"/>
</g>
<rect x="350.222" width="350.222" height="197" fill="#CB4848"/>
<g clip-path="url(#clip2_3211_19124)">
<path d="M539.345 87.5961C533.293 90.1672 527.93 89.4893 523.145 88.3953L513.614 102.626C517.121 104.197 521.005 105.06 525.086 105.062C540.283 105.376 553.671 91.9864 553.357 76.7913C553.391 68.1646 549.391 59.9552 542.623 54.6152L539.344 87.5961H539.345ZM523.875 90.2218C529.823 91.5219 535.425 91.2539 540.864 88.7143C541.81 79.2338 542.781 69.449 543.773 59.4689C543.779 59.4749 543.784 59.481 543.79 59.487C548.17 64.2097 550.568 70.3173 550.568 76.7925C550.863 90.4498 538.796 102.545 525.158 102.262C522.279 102.262 519.456 101.786 516.762 100.841L523.875 90.2206V90.2218Z" fill="#FAFAFA"/>
<path d="M511.778 91.1877L512.075 86.4142C510.479 86.4954 508.962 86.8981 507.523 87.8077C507.863 80.3259 508.214 72.6538 508.574 64.7803C516.277 57.2621 526.225 62.8556 539.029 55.4538C539.903 54.9554 540.719 54.429 541.585 53.8263C536.81 50.3807 531.091 48.5215 525.088 48.5215C509.498 48.5215 496.816 61.2025 496.816 76.7918C496.816 87.9896 503.358 97.6774 512.816 102.261C513.048 99.0467 513.384 94.5654 513.597 91.6898L511.779 91.1865L511.778 91.1877ZM507.441 63.6172L506.982 64.0647C506.563 73.2274 506.161 82.0141 505.76 90.8372C506.932 90.0865 509.074 88.6954 510.341 88.1727L510.078 92.4005L511.88 92.899L511.48 98.2729C504.221 93.7043 499.604 85.3663 499.666 76.77C499.631 62.6288 511.32 51.2309 525.088 51.3109C529.477 51.3109 533.697 52.4134 537.431 54.4885C531.816 57.5302 526.873 57.9862 522.081 58.4276C516.79 58.914 511.79 59.3748 507.441 63.6184V63.6172Z" fill="#FAFAFA"/>
<path d="M518.559 77.1447C520.207 77.4564 521.91 77.8457 523.701 78.1865C523.871 75.8227 524.042 73.4396 524.216 71.0395C522.394 70.8503 520.658 70.6004 518.985 70.4258C518.842 72.6816 518.7 74.9228 518.56 77.1447H518.559Z" fill="#FAFAFA"/>
<path d="M518.029 84.9401H518.03C520.067 85.3876 522.207 85.9734 524.47 86.4197C528.242 87.1583 532.378 87.5003 536.98 86.1153C537.845 77.0605 538.735 67.7268 539.652 58.0996C527.102 65.3958 517.572 59.8048 509.786 65.4868C509.468 72.1717 509.156 78.7087 508.849 85.1074C510.354 84.4477 511.891 84.2233 513.58 84.2949L513.298 89.63L515.178 90.1005L514.597 97.6381L514.573 97.9449C514.625 97.8649 514.677 97.7848 514.731 97.7011C516.513 94.9566 519.119 90.9325 521.084 87.9029C519.988 87.6288 518.92 87.3547 517.882 87.1158V87.0867L518.028 84.9389L518.029 84.9401ZM535.855 85.0601C533.63 85.6896 531.221 85.9139 529.029 85.8084C529.22 83.4617 529.415 81.0979 529.61 78.7111C531.94 78.6917 534.137 78.0271 536.588 77.1891L535.855 85.0601ZM513.973 76.7731C513.858 78.9052 513.725 81.1889 513.608 83.2858C512.168 83.2676 510.825 83.3792 509.532 83.8207C509.627 81.8887 509.721 79.9433 509.816 77.9859C511.148 77.3661 512.454 76.8264 513.973 76.7707C514.09 74.6749 514.207 72.5683 514.325 70.4423C512.784 70.629 511.465 71.2888 510.115 72.0274L510.404 66.1029C511.663 65.2624 513.167 64.6451 514.667 64.2958C514.552 66.3588 514.437 68.4084 514.325 70.4423C515.796 70.2118 517.409 70.2422 518.982 70.4265C519.123 68.2047 519.265 65.967 519.407 63.7076C521.143 63.6215 522.902 63.6118 524.799 63.5196C524.622 65.9416 524.385 68.6776 524.215 71.0402C526.076 71.2597 528.158 71.3191 530.233 71.0644C530.44 68.5685 530.752 65.3885 530.967 62.7931C533.292 62.2995 535.667 61.5876 538.172 60.3857C537.903 63.2504 537.64 66.0871 537.378 68.902C534.868 69.9693 532.615 70.8425 530.235 71.0644C530.024 73.6356 529.816 76.1837 529.609 78.7123C527.575 78.7887 525.531 78.5547 523.702 78.1872C523.539 80.4806 523.373 82.7546 523.211 85.0128C521.424 84.6441 519.746 84.2233 518.103 83.8874C518.246 81.6861 518.42 79.3466 518.559 77.1454C517.011 76.8337 515.424 76.6688 513.975 76.7719L513.973 76.7731Z" fill="#FAFAFA"/>
<path d="M569.546 116.25C569.814 115.574 569.949 115.235 570.218 114.555V112.881C567.219 112.881 564.22 112.881 561.22 112.881C561.231 117.131 561.242 121.379 561.254 125.629C564.244 125.843 567.232 126.08 570.218 126.339C570.218 124.993 570.218 124.32 570.218 122.975C568.621 122.869 567.025 122.77 565.428 122.675C565.428 121.96 565.426 121.601 565.425 120.885C566.799 120.953 568.175 121.022 569.549 121.094C569.549 119.754 569.549 119.084 569.549 117.744C568.173 117.702 566.797 117.661 565.422 117.62C565.422 117.038 565.42 116.747 565.419 116.165C566.796 116.193 568.172 116.221 569.549 116.251L569.546 116.25Z" fill="#FAFAFA"/>
<path d="M480.096 116.267V112.883C483.236 112.883 486.376 112.883 489.516 112.883C489.515 113.515 489.514 113.831 489.511 114.463C489.241 115.112 489.105 115.438 488.835 116.092C488.028 116.106 487.624 116.114 486.818 116.128C486.81 119.349 486.804 122.572 486.797 125.793C485.399 125.9 484 126.01 482.602 126.124C482.604 122.819 482.608 119.516 482.61 116.211C481.604 116.231 481.101 116.242 480.095 116.265L480.096 116.267Z" fill="#FAFAFA"/>
<path d="M498.87 112.883C499.85 112.883 500.54 113.504 500.538 114.383C500.532 115.963 500.526 117.545 500.521 119.125C500.519 119.694 500.036 120.346 499.4 120.522C499.927 121.697 500.19 122.282 500.716 123.445C500.714 124.044 500.713 124.345 500.71 124.944C499.339 125.011 497.968 125.082 496.596 125.156C496.222 123.897 495.848 122.639 495.477 121.378C495.139 121.392 494.97 121.399 494.632 121.412C494.627 122.698 494.623 123.984 494.618 125.27C493.216 125.355 491.816 125.445 490.415 125.537C490.427 121.319 490.439 117.102 490.451 112.884H498.872L498.87 112.883ZM494.649 115.996C494.645 116.924 494.644 117.387 494.64 118.314C495.308 118.297 495.643 118.288 496.313 118.271C496.316 117.351 496.317 116.891 496.321 115.972C495.652 115.982 495.318 115.986 494.649 115.996Z" fill="#FAFAFA"/>
<path d="M510.494 112.883C511.11 116.281 511.73 119.678 512.352 123.075C512.351 123.654 512.349 123.944 512.348 124.522C510.943 124.558 509.537 124.6 508.13 124.645C508.033 123.7 507.985 123.228 507.888 122.282C507.149 122.301 506.779 122.312 506.04 122.334C505.929 123.291 505.874 123.77 505.763 124.728C504.364 124.783 502.966 124.841 501.568 124.903C501.57 124.305 501.571 124.007 501.574 123.409C502.212 119.899 502.852 116.39 503.496 112.883C505.828 112.883 508.162 112.883 510.494 112.883ZM507.588 119.345C507.463 118.179 507.339 117.014 507.214 115.848C507.03 115.849 506.938 115.851 506.752 115.852C506.62 117.025 506.488 118.196 506.356 119.369C506.848 119.359 507.094 119.354 507.587 119.345H507.588Z" fill="#FAFAFA"/>
<path d="M522.405 112.882C522.405 113.453 522.405 113.738 522.405 114.31C522.143 114.894 522.012 115.186 521.75 115.771C520.371 115.773 518.992 115.777 517.614 115.782C517.611 117.699 517.608 119.616 517.605 121.533C519.203 121.515 520.801 121.504 522.4 121.497C522.4 122.645 522.4 123.22 522.399 124.368C519.957 124.382 517.516 124.411 515.076 124.459C514.074 124.479 513.382 123.898 513.384 123.051C513.391 120.142 513.399 117.232 513.406 114.324C513.408 113.478 514.102 112.881 515.101 112.881C517.537 112.881 519.972 112.881 522.407 112.881L522.405 112.882Z" fill="#FAFAFA"/>
<path d="M529.384 112.883C530.717 112.883 532.05 112.883 533.383 112.883C533.383 113.456 533.384 113.744 533.385 114.318C532.869 115.65 532.352 116.983 531.833 118.315C532.466 119.876 533.098 121.437 533.727 122.999C533.727 123.574 533.729 123.86 533.73 124.435C532.329 124.413 530.93 124.396 529.529 124.383C529.149 122.897 528.768 121.411 528.389 119.926C528.081 119.926 527.927 119.924 527.619 119.923C527.619 121.405 527.62 122.887 527.621 124.369C526.22 124.364 524.819 124.363 523.419 124.367C523.42 120.539 523.421 116.712 523.424 112.884H527.615C527.615 114.274 527.616 115.663 527.617 117.052C527.925 117.052 528.079 117.052 528.388 117.054C528.72 115.664 529.052 114.274 529.384 112.884V112.883Z" fill="#FAFAFA"/>
<path d="M534.575 116.749C534.573 115.778 534.573 115.291 534.57 114.32C534.569 113.477 535.259 112.883 536.26 112.883H543.566C543.568 113.464 543.568 113.754 543.571 114.333C543.311 114.94 543.181 115.242 542.922 115.846C541.543 115.835 540.165 115.824 538.786 115.814C538.786 116.028 538.786 116.134 538.787 116.348C540.01 117.067 541.231 117.79 542.449 118.516C543.374 119.069 543.588 119.598 543.59 120.543C543.594 121.616 543.595 122.152 543.598 123.226C543.601 124.087 542.911 124.668 541.928 124.636C539.482 124.556 537.036 124.493 534.59 124.449C534.587 123.292 534.586 122.714 534.584 121.558C536.182 121.58 537.781 121.608 539.378 121.64C539.378 121.334 539.377 121.18 539.375 120.873C538.157 120.154 536.937 119.438 535.713 118.726C534.787 118.171 534.575 117.675 534.573 116.749H534.575Z" fill="#FAFAFA"/>
<path d="M544.624 124.731C544.611 120.782 544.597 116.832 544.583 112.883C545.98 112.883 547.378 112.883 548.775 112.883C548.789 116.891 548.804 120.898 548.82 124.907C547.421 124.845 546.023 124.785 544.624 124.731Z" fill="#FAFAFA"/>
<path d="M549.994 124.961C549.979 120.935 549.963 116.908 549.949 112.883H558.35C559.33 112.883 560.025 113.534 560.027 114.457C560.036 117.628 560.045 120.801 560.054 123.973C560.056 124.896 559.367 125.5 558.389 125.435C555.591 125.258 552.793 125.101 549.992 124.961H549.994ZM554.173 122.106C554.85 122.135 555.188 122.15 555.863 122.18C555.856 120.12 555.849 118.06 555.842 116C555.165 115.99 554.827 115.985 554.15 115.975C554.157 118.019 554.164 120.064 554.172 122.107L554.173 122.106Z" fill="#FAFAFA"/>
<path d="M499.322 131.769C499.328 130.027 499.335 128.283 499.341 126.54C501.001 126.446 502.663 126.362 504.324 126.285C504.307 130.999 504.29 135.713 504.273 140.428C502.609 140.583 500.947 140.757 499.286 140.95C499.294 139.091 499.3 137.231 499.307 135.371C498.503 135.447 498.1 135.485 497.297 135.565C497.29 137.442 497.284 139.317 497.277 141.193C495.618 141.4 493.961 141.627 492.307 141.872C492.323 136.91 492.338 131.949 492.354 126.987C494.012 126.869 495.671 126.758 497.33 126.656C497.324 128.415 497.317 130.172 497.311 131.931C498.115 131.863 498.516 131.83 499.32 131.767L499.322 131.769Z" fill="#FAFAFA"/>
<path d="M517.772 125.871L517.75 139.577C514.402 139.699 511.062 139.885 507.72 140.134C506.528 140.227 505.706 139.576 505.709 138.551C505.724 134.442 505.739 130.333 505.752 126.224C507.422 126.154 509.093 126.092 510.764 126.038C510.755 129.508 510.745 132.979 510.734 136.449C511.532 136.404 511.931 136.384 512.729 136.345C512.738 132.89 512.747 129.434 512.756 125.98C514.427 125.935 516.099 125.899 517.772 125.872V125.871Z" fill="#FAFAFA"/>
<path d="M527.286 132.134C527.064 130.592 526.841 129.051 526.619 127.51C526.619 126.832 526.619 126.493 526.619 125.815C528.162 125.82 529.705 125.833 531.247 125.853C531.253 130.414 531.259 134.976 531.266 139.538C529.489 139.495 527.712 139.467 525.934 139.456C525.146 137.36 524.357 135.261 523.569 133.164C523.413 133.164 523.335 133.166 523.179 133.167C523.392 134.699 523.605 136.232 523.82 137.763C523.82 138.441 523.82 138.781 523.82 139.459C522.28 139.469 520.741 139.493 519.201 139.534C519.207 134.973 519.213 130.411 519.219 125.85C520.991 125.829 522.763 125.817 524.534 125.812C525.314 127.919 526.094 130.026 526.874 132.131C527.039 132.131 527.121 132.132 527.288 132.134H527.286Z" fill="#FAFAFA"/>
<path d="M532.716 139.581C532.709 135.011 532.701 130.443 532.693 125.873C536.029 125.934 539.365 126.025 542.699 126.147C543.865 126.192 544.691 126.952 544.695 127.978C544.707 131.505 544.719 135.033 544.731 138.56C544.735 139.586 543.913 140.236 542.743 140.144C539.402 139.893 536.062 139.706 532.714 139.581H532.716ZM537.713 136.35C538.52 136.39 538.924 136.411 539.731 136.457C539.724 134.149 539.717 131.841 539.71 129.533C538.904 129.501 538.501 129.486 537.695 129.458C537.701 131.755 537.707 134.052 537.713 136.35Z" fill="#FAFAFA"/>
<path d="M546.166 140.441C546.149 135.725 546.132 131.008 546.115 126.293C549.681 126.463 553.244 126.668 556.806 126.909C556.808 127.645 556.809 128.013 556.812 128.749C556.495 129.477 556.336 129.839 556.02 130.561C554.385 130.421 552.748 130.292 551.112 130.174C551.114 130.817 551.115 131.138 551.118 131.781C552.755 131.909 554.391 132.05 556.026 132.203C556.03 133.431 556.035 134.66 556.038 135.889C554.403 135.707 552.768 135.538 551.13 135.385C551.132 136.176 551.135 136.571 551.137 137.362C553.041 137.561 554.942 137.777 556.842 138.007C556.846 139.241 556.851 140.474 556.854 141.708C553.298 141.212 549.738 140.791 546.164 140.441H546.166Z" fill="#FAFAFA"/>
<path d="M569.796 140.903C569.34 139.677 569.112 139.068 568.655 137.86C568.91 137.831 569.144 137.725 569.341 137.568C569.721 137.265 569.968 136.767 569.968 136.271C569.968 134.18 569.968 132.09 569.968 129.999C569.968 128.834 569.151 127.932 567.991 127.823C564.668 127.515 561.344 127.238 558.016 126.992C558.032 131.955 558.048 136.919 558.064 141.882C559.726 142.129 561.385 142.395 563.042 142.679C563.038 141.09 563.035 139.502 563.031 137.913C563.431 137.97 563.631 138.001 564.03 138.059C564.484 139.735 564.932 141.414 565.378 143.092C566.995 143.387 568.609 143.701 570.218 144.032V142.044C570.05 141.586 569.965 141.358 569.796 140.902V140.903ZM565.001 134.337C564.21 134.235 563.815 134.185 563.023 134.089C563.02 132.945 563.019 132.372 563.017 131.227C563.809 131.311 564.204 131.353 564.996 131.442C564.998 132.6 565 133.179 565.001 134.337Z" fill="#FAFAFA"/>
<path d="M570.218 145.73V147.042C542.534 141.624 514.164 141.568 486.596 147.734C487.043 146.548 487.496 145.363 487.952 144.18C515.265 139.441 543.104 139.962 570.219 145.73H570.218Z" fill="#FAFAFA"/>
<path d="M491.243 128.948C491.246 128.204 491.247 127.831 491.249 127.088C487.528 127.372 483.811 127.696 480.098 128.058V132.08C481.286 131.929 481.88 131.858 483.071 131.717C483.068 134.573 483.065 137.428 483.062 140.284C483.849 139.25 484.645 138.221 485.452 137.201C484.644 139.285 483.846 141.372 483.058 143.463C483.742 143.332 484.084 143.268 484.769 143.142C484.767 144.795 484.764 146.449 484.762 148.102C485.832 145.27 486.921 142.447 488.029 139.631C487.302 139.741 486.939 139.797 486.211 139.913C486.815 138.362 487.425 136.813 488.041 135.267C488.045 133.9 488.047 132.533 488.051 131.167C489.007 131.068 489.485 131.02 490.44 130.928C490.762 130.132 490.922 129.737 491.243 128.948Z" fill="#FAFAFA"/>
</g>
<rect x="350.222" y="197" width="350.222" height="197" fill="#FAFAFA"/>
<g clip-path="url(#clip3_3211_19124)">
<path d="M480.096 314.689V311.305C483.237 311.305 486.378 311.305 489.519 311.305C489.517 311.937 489.516 312.253 489.514 312.885C489.243 313.534 489.107 313.861 488.837 314.515C488.03 314.529 487.626 314.536 486.819 314.551C486.812 317.773 486.806 320.996 486.799 324.218C485.4 324.325 484.001 324.435 482.603 324.551C482.605 321.245 482.609 317.94 482.611 314.635C481.604 314.655 481.101 314.666 480.095 314.689H480.096Z" fill="black"/>
<path d="M498.874 311.305C499.854 311.305 500.544 311.926 500.542 312.805C500.536 314.386 500.53 315.967 500.524 317.549C500.521 318.118 500.039 318.769 499.403 318.946C499.929 320.122 500.193 320.706 500.719 321.87C500.717 322.469 500.716 322.769 500.713 323.369C499.341 323.436 497.97 323.507 496.598 323.581C496.223 322.322 495.85 321.063 495.479 319.803C495.14 319.816 494.971 319.823 494.633 319.836C494.628 321.122 494.624 322.408 494.62 323.694C493.217 323.779 491.816 323.869 490.415 323.962C490.427 319.743 490.439 315.525 490.451 311.306H498.874V311.305ZM494.652 314.419C494.649 315.346 494.648 315.81 494.644 316.737C495.312 316.72 495.647 316.712 496.317 316.695C496.32 315.775 496.322 315.314 496.325 314.394C495.656 314.404 495.322 314.409 494.652 314.419Z" fill="black"/>
<path d="M510.5 311.305C511.117 314.704 511.737 318.102 512.359 321.5C512.358 322.078 512.356 322.368 512.355 322.947C510.949 322.983 509.543 323.025 508.136 323.069C508.039 322.124 507.991 321.653 507.893 320.706C507.155 320.726 506.785 320.737 506.046 320.758C505.934 321.716 505.88 322.195 505.768 323.153C504.369 323.208 502.971 323.266 501.572 323.328C501.574 322.73 501.576 322.431 501.578 321.833C502.216 318.324 502.857 314.814 503.501 311.305C505.834 311.305 508.168 311.305 510.5 311.305ZM507.595 317.768C507.47 316.602 507.346 315.437 507.221 314.271C507.037 314.272 506.945 314.273 506.759 314.274C506.627 315.446 506.495 316.619 506.363 317.792C506.855 317.783 507.101 317.778 507.594 317.768H507.595Z" fill="black"/>
<path d="M522.416 311.304C522.416 311.875 522.416 312.16 522.416 312.732C522.154 313.316 522.023 313.609 521.761 314.194C520.381 314.196 519.003 314.2 517.624 314.204C517.62 316.122 517.618 318.039 517.614 319.957C519.213 319.939 520.812 319.928 522.411 319.921C522.411 321.069 522.411 321.644 522.41 322.793C519.968 322.807 517.526 322.836 515.085 322.884C514.083 322.904 513.39 322.323 513.392 321.476C513.4 318.566 513.407 315.657 513.414 312.746C513.417 311.9 514.111 311.303 515.11 311.303C517.546 311.303 519.982 311.303 522.418 311.303L522.416 311.304Z" fill="black"/>
<path d="M529.396 311.304C530.729 311.304 532.062 311.304 533.395 311.304C533.395 311.878 533.397 312.165 533.398 312.739C532.881 314.072 532.364 315.404 531.845 316.737C532.478 318.299 533.11 319.86 533.74 321.421C533.74 321.995 533.741 322.283 533.742 322.858C532.341 322.836 530.941 322.819 529.54 322.805C529.16 321.319 528.78 319.833 528.4 318.347C528.092 318.347 527.938 318.346 527.63 318.345C527.63 319.827 527.631 321.31 527.632 322.792C526.231 322.787 524.83 322.786 523.429 322.79C523.43 318.961 523.431 315.133 523.433 311.304H527.626C527.626 312.693 527.627 314.083 527.628 315.472C527.936 315.472 528.091 315.472 528.399 315.473C528.731 314.083 529.063 312.693 529.396 311.303V311.304Z" fill="black"/>
<path d="M534.588 315.172C534.585 314.2 534.585 313.714 534.583 312.742C534.582 311.899 535.272 311.305 536.273 311.305H543.581C543.583 311.886 543.583 312.176 543.586 312.756C543.326 313.362 543.196 313.664 542.937 314.268C541.557 314.257 540.179 314.246 538.8 314.237C538.8 314.45 538.8 314.557 538.801 314.769C540.024 315.489 541.245 316.21 542.463 316.938C543.389 317.492 543.603 318.02 543.606 318.965C543.61 320.039 543.611 320.575 543.615 321.649C543.617 322.509 542.927 323.091 541.944 323.06C539.497 322.98 537.051 322.917 534.604 322.873C534.601 321.716 534.6 321.138 534.598 319.981C536.197 320.003 537.795 320.031 539.393 320.063C539.393 319.756 539.392 319.602 539.391 319.295C538.171 318.576 536.951 317.86 535.727 317.149C534.801 316.594 534.589 316.098 534.587 315.172H534.588Z" fill="black"/>
<path d="M544.641 323.154C544.628 319.204 544.613 315.255 544.6 311.305C545.997 311.305 547.395 311.305 548.792 311.305C548.807 315.313 548.823 319.322 548.837 323.33C547.438 323.268 546.04 323.209 544.641 323.154Z" fill="black"/>
<path d="M550.011 323.386C549.997 319.359 549.981 315.332 549.966 311.305H558.37C559.35 311.305 560.045 311.956 560.047 312.879C560.057 316.052 560.066 319.225 560.075 322.397C560.078 323.321 559.389 323.925 558.41 323.86C555.611 323.683 552.812 323.526 550.011 323.386ZM554.192 320.53C554.869 320.559 555.207 320.574 555.883 320.604C555.876 318.543 555.868 316.483 555.861 314.422C555.184 314.413 554.846 314.408 554.169 314.398C554.176 316.442 554.183 318.486 554.191 320.53H554.192Z" fill="black"/>
<path d="M569.569 314.673C569.837 313.997 569.972 313.657 570.241 312.977C570.241 312.307 570.241 311.972 570.241 311.303C567.241 311.303 564.241 311.303 561.241 311.303C561.252 315.552 561.264 319.803 561.275 324.053C564.265 324.267 567.255 324.505 570.241 324.763C570.241 323.417 570.241 322.744 570.241 321.398C568.645 321.293 567.047 321.193 565.449 321.099C565.449 320.383 565.448 320.024 565.447 319.308C566.821 319.376 568.197 319.445 569.572 319.517C569.572 318.176 569.572 317.507 569.572 316.166C568.196 316.124 566.819 316.082 565.443 316.042C565.443 315.46 565.442 315.169 565.441 314.587C566.818 314.615 568.195 314.642 569.572 314.673H569.569Z" fill="black"/>
<path d="M499.326 330.195C499.333 328.452 499.34 326.709 499.346 324.966C501.007 324.872 502.669 324.787 504.331 324.711C504.314 329.426 504.297 334.142 504.28 338.857C502.615 339.012 500.952 339.187 499.291 339.38C499.299 337.52 499.305 335.659 499.312 333.8C498.508 333.875 498.105 333.914 497.302 333.994C497.295 335.87 497.288 337.746 497.281 339.622C495.622 339.831 493.965 340.057 492.31 340.303C492.326 335.34 492.341 330.377 492.357 325.415C494.016 325.296 495.675 325.185 497.333 325.083C497.327 326.842 497.32 328.6 497.314 330.359C498.118 330.291 498.52 330.258 499.324 330.195H499.326Z" fill="black"/>
<path d="M517.782 324.295C517.774 328.865 517.767 333.433 517.76 338.003C514.41 338.126 511.069 338.311 507.727 338.56C506.535 338.653 505.712 338.002 505.716 336.977C505.731 332.867 505.745 328.757 505.758 324.647C507.429 324.576 509.101 324.514 510.772 324.461C510.762 327.932 510.753 331.403 510.742 334.874C511.54 334.83 511.939 334.809 512.737 334.77C512.746 331.314 512.756 327.859 512.764 324.403C514.436 324.358 516.109 324.322 517.782 324.295Z" fill="black"/>
<path d="M527.298 330.559C527.076 329.017 526.853 327.477 526.631 325.935C526.631 325.257 526.631 324.917 526.631 324.239C528.174 324.244 529.717 324.257 531.26 324.276C531.266 328.839 531.273 333.401 531.279 337.964C529.5 337.921 527.724 337.894 525.946 337.883C525.157 335.785 524.369 333.688 523.58 331.589C523.424 331.589 523.346 331.59 523.19 331.591C523.403 333.124 523.617 334.657 523.831 336.189C523.831 336.867 523.831 337.207 523.831 337.885C522.291 337.895 520.751 337.919 519.211 337.96C519.217 333.398 519.223 328.836 519.229 324.274C521.001 324.253 522.773 324.241 524.546 324.236C525.326 326.343 526.106 328.449 526.886 330.557C527.051 330.557 527.133 330.558 527.3 330.559H527.298Z" fill="black"/>
<path d="M532.729 338.007C532.722 333.438 532.715 328.867 532.706 324.297C536.044 324.358 539.38 324.449 542.715 324.571C543.882 324.616 544.709 325.377 544.711 326.403C544.723 329.931 544.736 333.458 544.748 336.987C544.751 338.013 543.929 338.664 542.759 338.572C539.417 338.32 536.076 338.134 532.727 338.009L532.729 338.007ZM537.727 334.776C538.535 334.816 538.939 334.836 539.746 334.882C539.739 332.574 539.733 330.267 539.727 327.958C538.92 327.925 538.517 327.911 537.71 327.883C537.717 330.18 537.723 332.478 537.729 334.776H537.727Z" fill="black"/>
<path d="M546.183 338.867C546.166 334.149 546.149 329.433 546.132 324.715C549.698 324.885 553.264 325.09 556.827 325.331C556.829 326.067 556.83 326.435 556.833 327.171C556.516 327.899 556.357 328.262 556.041 328.984C554.405 328.843 552.768 328.714 551.131 328.597C551.134 329.24 551.135 329.561 551.137 330.204C552.775 330.333 554.411 330.473 556.047 330.626C556.05 331.855 556.055 333.084 556.059 334.313C554.423 334.131 552.788 333.962 551.149 333.81C551.152 334.6 551.154 334.996 551.157 335.787C553.061 335.987 554.962 336.202 556.863 336.432C556.867 337.666 556.872 338.9 556.875 340.132C553.318 339.636 549.757 339.214 546.182 338.866L546.183 338.867Z" fill="black"/>
<path d="M569.819 339.331C569.363 338.105 569.135 337.496 568.677 336.287C568.932 336.258 569.166 336.153 569.364 335.995C569.744 335.692 569.991 335.194 569.991 334.699C569.991 332.608 569.991 330.517 569.991 328.425C569.991 327.261 569.174 326.358 568.015 326.249C564.691 325.941 561.366 325.664 558.037 325.418C558.053 330.382 558.069 335.346 558.085 340.31C559.748 340.558 561.407 340.823 563.064 341.107C563.061 339.518 563.057 337.93 563.054 336.341C563.454 336.398 563.653 336.428 564.053 336.486C564.507 338.163 564.954 339.842 565.4 341.521C567.017 341.817 568.631 342.13 570.241 342.461C570.241 341.665 570.241 341.267 570.241 340.473C570.073 340.014 569.988 339.786 569.819 339.33V339.331ZM565.022 332.763C564.231 332.661 563.836 332.612 563.044 332.516C563.041 331.371 563.04 330.798 563.038 329.653C563.83 329.737 564.225 329.779 565.018 329.868C565.02 331.026 565.02 331.605 565.022 332.763Z" fill="black"/>
<path d="M570.24 345.475C570.24 344.95 570.24 344.688 570.24 344.163C543.117 338.391 515.273 337.869 487.952 342.613C487.499 343.789 487.049 344.968 486.603 346.149C514.177 339.987 542.552 340.048 570.24 345.477V345.475Z" fill="black"/>
<path d="M480.096 326.481V330.504C481.285 330.354 481.88 330.282 483.071 330.141C483.068 332.617 483.066 335.093 483.062 337.569C484.095 336.239 485.142 334.921 486.203 333.613C485.566 335.25 484.939 336.891 484.316 338.532C483.892 339.65 483.472 340.769 483.058 341.889C483.74 341.758 484.081 341.694 484.766 341.569C484.766 341.713 484.766 341.785 484.766 341.929C484.763 343.463 484.761 344.996 484.758 346.531C485.422 344.755 486.091 342.982 486.768 341.211C487.274 339.894 487.527 339.24 488.032 337.943C487.289 338.056 486.916 338.113 486.174 338.23C486.79 336.627 487.414 335.027 488.045 333.429C488.048 332.149 488.051 330.869 488.054 329.589C489.01 329.491 489.488 329.443 490.444 329.35C490.766 328.555 490.926 328.159 491.247 327.371C491.25 326.626 491.251 326.253 491.253 325.51C487.531 325.794 483.813 326.118 480.099 326.48L480.096 326.481Z" fill="black"/>
<path d="M508.337 292.126L510.359 292.684L509.771 300.573C500.849 295.276 494.857 285.543 494.857 274.437C494.857 257.686 508.483 244.061 525.232 244.061C530.998 244.061 536.395 245.676 540.994 248.479C534.235 252.8 527.621 253.579 521.785 254.066C515.855 254.611 510.257 255.128 505.382 259.883L504.87 260.383C504.401 270.647 503.951 280.491 503.502 290.376C504.815 289.535 507.215 287.979 508.632 287.39L508.337 292.126Z" fill="black"/>
<path d="M555.607 274.436C555.607 291.183 541.982 304.811 525.232 304.811C521.6 304.811 518.113 304.17 514.882 302.994L523.796 289.685C530.456 291.143 536.741 290.841 542.827 287.997C543.965 276.587 545.159 264.552 546.348 252.621C552.055 258.146 555.609 265.883 555.609 274.436H555.607Z" fill="black"/>
<path d="M539.812 256.262C539.51 259.47 539.216 262.649 538.921 265.802C536.108 266.998 533.586 267.975 530.918 268.224C531.149 265.428 531.499 261.866 531.74 258.958C534.344 258.406 537.004 257.608 539.812 256.262Z" fill="black"/>
<path d="M538.037 275.084L537.216 283.901C534.724 284.606 532.023 284.857 529.569 284.739C529.782 282.109 530.002 279.462 530.22 276.788C532.829 276.767 535.292 276.022 538.037 275.084Z" fill="black"/>
<path d="M530.918 268.224C530.682 271.104 530.45 273.96 530.217 276.792C527.939 276.877 525.649 276.616 523.601 276.204C523.791 273.556 523.983 270.887 524.177 268.197C526.261 268.442 528.595 268.51 530.919 268.224H530.918Z" fill="black"/>
<path d="M524.831 259.771C524.633 262.485 524.368 265.551 524.177 268.197C522.137 267.984 520.192 267.704 518.317 267.51H518.315C518.473 265.021 518.632 262.514 518.791 259.983C520.737 259.887 522.707 259.876 524.831 259.771Z" fill="black"/>
<path d="M523.601 276.201C523.418 278.771 523.232 281.318 523.05 283.848C521.047 283.435 519.168 282.963 517.328 282.586C517.488 280.12 517.682 277.499 517.839 275.033H517.84C519.686 275.383 521.594 275.818 523.601 276.2V276.201Z" fill="black"/>
<path d="M518.317 267.508C518.156 270.037 517.996 272.545 517.841 275.036H517.84C516.106 274.686 514.327 274.502 512.705 274.617C512.836 272.268 512.967 269.907 513.099 267.527C514.748 267.268 516.554 267.303 518.317 267.508Z" fill="black"/>
<path d="M513.48 260.641C513.351 262.952 513.221 265.247 513.097 267.526C511.37 267.735 509.893 268.475 508.381 269.302L508.705 262.665C510.115 261.724 511.8 261.031 513.481 260.641H513.48Z" fill="black"/>
<path d="M512.702 274.617C512.574 277.007 512.424 279.565 512.293 281.915C510.68 281.896 509.175 282.021 507.727 282.515C507.833 280.35 507.94 278.172 508.045 275.978C509.537 275.284 511 274.679 512.702 274.617Z" fill="black"/>
<path d="M541.27 250.443C526.687 259.175 515.383 252.663 506.654 261.183C506.25 270.003 505.858 278.599 505.476 286.98C507.089 285.961 508.789 285.509 510.577 285.418L510.244 290.767L512.281 291.33L511.845 297.188L511.253 305.146L515.457 298.868L522.977 287.64C528.338 288.865 534.345 289.624 541.125 286.743C542.362 274.339 543.687 260.979 544.989 247.92C543.726 248.877 542.486 249.714 541.27 250.442V250.443ZM538.476 285.082C533.32 286.634 528.686 286.251 524.462 285.424C521.927 284.925 519.528 284.268 517.248 283.767H517.247L517.085 286.173V286.206C518.246 286.473 519.442 286.779 520.671 287.088C518.471 290.481 515.551 294.989 513.555 298.064C513.504 298.041 513.456 298.016 513.405 297.993L514.055 289.549L511.949 289.022L512.266 283.045C510.372 282.965 508.652 283.217 506.964 283.955C507.308 276.787 507.657 269.464 508.012 261.974C516.735 255.609 527.411 261.872 541.471 253.698C540.445 264.484 539.446 274.939 538.478 285.083L538.476 285.082Z" fill="black"/>
</g>
<rect y="197" width="350.222" height="197" fill="black"/>
<g clip-path="url(#clip4_3211_19124)">
<path d="M189.123 284.596C183.071 287.167 177.708 286.489 172.922 285.395L163.392 299.626C166.898 301.197 170.783 302.06 174.864 302.062C190.06 302.376 203.449 288.986 203.134 273.791C203.168 265.165 199.169 256.955 192.401 251.615L189.122 284.596H189.123ZM173.652 287.222C179.601 288.522 185.203 288.254 190.641 285.714C191.587 276.234 192.559 266.449 193.551 256.469C193.557 256.475 193.562 256.481 193.568 256.487C197.947 261.21 200.346 267.317 200.346 273.792C200.641 287.45 188.574 299.545 174.936 299.262C172.056 299.262 169.234 298.786 166.539 297.841L173.652 287.221V287.222Z" fill="#FAFAFA"/>
<path d="M161.556 288.188L161.853 283.414C160.257 283.495 158.74 283.898 157.3 284.808C157.641 277.326 157.992 269.654 158.352 261.78C166.054 254.262 176.003 259.856 188.806 252.454C189.681 251.955 190.497 251.429 191.363 250.826C186.588 247.381 180.869 245.521 174.865 245.521C159.276 245.521 146.594 258.203 146.594 273.792C146.594 284.99 153.136 294.677 162.594 299.261C162.826 296.047 163.162 291.565 163.375 288.69L161.557 288.187L161.556 288.188ZM157.219 260.617L156.759 261.065C156.341 270.227 155.938 279.014 155.538 287.837C156.71 287.087 158.851 285.695 160.119 285.173L159.856 289.401L161.658 289.899L161.258 295.273C153.999 290.704 149.382 282.366 149.444 273.77C149.409 259.629 161.098 248.231 174.865 248.311C179.254 248.311 183.475 249.413 187.209 251.488C181.594 254.53 176.651 254.986 171.859 255.428C166.567 255.914 161.568 256.375 157.219 260.618V260.617Z" fill="#FAFAFA"/>
<path d="M168.337 274.145C169.985 274.456 171.688 274.846 173.479 275.186C173.649 272.823 173.82 270.44 173.993 268.039C172.172 267.85 170.436 267.6 168.762 267.426C168.619 269.682 168.477 271.923 168.338 274.145H168.337Z" fill="#FAFAFA"/>
<path d="M167.807 281.94H167.808C169.844 282.388 171.985 282.973 174.248 283.42C178.02 284.158 182.155 284.5 186.758 283.115C187.623 274.061 188.513 264.727 189.43 255.1C176.88 262.396 167.35 256.805 159.563 262.487C159.246 269.172 158.934 275.709 158.627 282.107C160.132 281.448 161.669 281.223 163.358 281.295L163.076 286.63L164.956 287.101L164.375 294.638L164.35 294.945C164.402 294.865 164.455 294.785 164.509 294.701C166.291 291.957 168.897 287.933 170.862 284.903C169.765 284.629 168.698 284.355 167.66 284.116V284.087L167.806 281.939L167.807 281.94ZM185.633 282.06C183.408 282.69 180.998 282.914 178.807 282.808C178.997 280.462 179.193 278.098 179.388 275.711C181.718 275.692 183.915 275.027 186.366 274.189L185.633 282.06ZM163.751 273.773C163.636 275.905 163.503 278.189 163.386 280.286C161.945 280.268 160.603 280.379 159.31 280.821C159.405 278.889 159.499 276.943 159.594 274.986C160.925 274.366 162.232 273.826 163.751 273.771C163.868 271.675 163.985 269.568 164.103 267.442C162.561 267.629 161.243 268.289 159.893 269.027L160.182 263.103C161.441 262.262 162.945 261.645 164.445 261.296C164.33 263.359 164.214 265.408 164.103 267.442C165.574 267.212 167.187 267.242 168.76 267.426C168.901 265.205 169.043 262.967 169.185 260.708C170.921 260.621 172.68 260.612 174.577 260.52C174.4 262.942 174.163 265.678 173.993 268.04C175.854 268.26 177.936 268.319 180.011 268.064C180.217 265.568 180.53 262.389 180.745 259.793C183.07 259.3 185.445 258.588 187.95 257.386C187.681 260.25 187.418 263.087 187.156 265.902C184.645 266.969 182.393 267.842 180.012 268.064C179.801 270.636 179.594 273.184 179.387 275.712C177.353 275.789 175.309 275.555 173.48 275.187C173.317 277.481 173.15 279.755 172.989 282.013C171.201 281.644 169.524 281.223 167.881 280.887C168.024 278.686 168.197 276.347 168.337 274.145C166.789 273.834 165.202 273.669 163.752 273.772L163.751 273.773Z" fill="#FAFAFA"/>
<path d="M219.324 313.25C219.592 312.574 219.727 312.235 219.996 311.555V309.881C216.997 309.881 213.997 309.881 210.998 309.881C211.009 314.131 211.02 318.379 211.032 322.629C214.022 322.843 217.01 323.08 219.996 323.339C219.996 321.993 219.996 321.32 219.996 319.975C218.399 319.869 216.803 319.77 215.205 319.675C215.205 318.96 215.204 318.601 215.203 317.885C216.577 317.953 217.952 318.022 219.327 318.094C219.327 316.754 219.327 316.084 219.327 314.744C217.951 314.702 216.575 314.661 215.199 314.62C215.199 314.038 215.198 313.747 215.197 313.165C216.573 313.193 217.95 313.221 219.327 313.251L219.324 313.25Z" fill="#FAFAFA"/>
<path d="M129.874 313.267V309.883C133.014 309.883 136.154 309.883 139.294 309.883C139.293 310.515 139.291 310.831 139.289 311.463C139.019 312.112 138.883 312.438 138.612 313.092C137.806 313.106 137.402 313.114 136.595 313.128C136.588 316.349 136.582 319.572 136.575 322.793C135.176 322.9 133.778 323.01 132.38 323.124C132.382 319.819 132.386 316.516 132.388 313.211C131.382 313.231 130.878 313.242 129.873 313.265L129.874 313.267Z" fill="#FAFAFA"/>
<path d="M148.648 309.883C149.628 309.883 150.318 310.504 150.316 311.383C150.31 312.963 150.304 314.545 150.299 316.125C150.296 316.694 149.814 317.346 149.178 317.522C149.705 318.697 149.968 319.282 150.494 320.445C150.492 321.044 150.49 321.345 150.488 321.944C149.116 322.011 147.746 322.082 146.374 322.156C145.999 320.897 145.626 319.639 145.255 318.378C144.916 318.392 144.748 318.399 144.409 318.412C144.405 319.698 144.401 320.984 144.396 322.27C142.994 322.355 141.593 322.445 140.193 322.537C140.205 318.319 140.217 314.102 140.229 309.884H148.649L148.648 309.883ZM144.426 312.996C144.423 313.924 144.422 314.387 144.418 315.314C145.086 315.297 145.421 315.288 146.09 315.271C146.094 314.351 146.095 313.891 146.099 312.972C145.429 312.982 145.096 312.986 144.426 312.996Z" fill="#FAFAFA"/>
<path d="M160.272 309.883C160.888 313.281 161.508 316.678 162.13 320.075C162.128 320.654 162.127 320.944 162.126 321.522C160.72 321.558 159.315 321.6 157.908 321.645C157.811 320.7 157.762 320.228 157.665 319.282C156.927 319.301 156.557 319.312 155.818 319.334C155.707 320.291 155.652 320.77 155.541 321.728C154.142 321.783 152.744 321.841 151.345 321.903C151.348 321.305 151.349 321.007 151.352 320.409C151.989 316.899 152.63 313.39 153.274 309.883C155.606 309.883 157.939 309.883 160.272 309.883ZM157.366 316.345C157.241 315.179 157.117 314.014 156.992 312.848C156.808 312.849 156.716 312.851 156.53 312.852C156.398 314.025 156.266 315.196 156.134 316.369C156.626 316.359 156.872 316.354 157.365 316.345H157.366Z" fill="#FAFAFA"/>
<path d="M172.183 309.882C172.183 310.453 172.183 310.738 172.183 311.31C171.921 311.894 171.79 312.186 171.528 312.771C170.149 312.773 168.77 312.777 167.392 312.782C167.388 314.699 167.386 316.616 167.382 318.533C168.981 318.515 170.579 318.504 172.178 318.497C172.178 319.645 172.178 320.22 172.177 321.368C169.735 321.382 167.294 321.411 164.854 321.459C163.852 321.479 163.159 320.898 163.162 320.051C163.169 317.142 163.176 314.232 163.184 311.324C163.186 310.478 163.88 309.881 164.879 309.881C167.314 309.881 169.75 309.881 172.185 309.881L172.183 309.882Z" fill="#FAFAFA"/>
<path d="M179.162 309.883C180.495 309.883 181.828 309.883 183.161 309.883C183.161 310.456 183.162 310.744 183.163 311.318C182.647 312.65 182.13 313.983 181.611 315.315C182.244 316.876 182.876 318.437 183.505 319.999C183.505 320.574 183.506 320.86 183.508 321.435C182.107 321.413 180.707 321.396 179.307 321.383C178.927 319.897 178.546 318.411 178.167 316.926C177.858 316.926 177.704 316.924 177.396 316.923C177.396 318.405 177.398 319.887 177.399 321.369C175.998 321.364 174.597 321.363 173.196 321.367C173.198 317.539 173.199 313.712 173.201 309.884H177.393C177.393 311.274 177.394 312.663 177.395 314.052C177.703 314.052 177.857 314.052 178.165 314.054C178.498 312.664 178.83 311.274 179.162 309.884V309.883Z" fill="#FAFAFA"/>
<path d="M184.353 313.749C184.351 312.778 184.351 312.291 184.348 311.32C184.347 310.477 185.037 309.883 186.038 309.883H193.343C193.346 310.464 193.346 310.754 193.348 311.333C193.089 311.94 192.959 312.242 192.699 312.846C191.321 312.835 189.943 312.824 188.564 312.814C188.564 313.028 188.564 313.134 188.565 313.348C189.788 314.067 191.009 314.79 192.227 315.516C193.152 316.069 193.365 316.598 193.368 317.543C193.371 318.616 193.373 319.152 193.376 320.226C193.379 321.087 192.689 321.668 191.706 321.636C189.26 321.556 186.814 321.493 184.368 321.449C184.365 320.292 184.364 319.714 184.362 318.558C185.96 318.58 187.558 318.608 189.156 318.64C189.156 318.334 189.154 318.18 189.153 317.873C187.934 317.154 186.714 316.438 185.491 315.726C184.565 315.171 184.353 314.675 184.351 313.749H184.353Z" fill="#FAFAFA"/>
<path d="M194.402 321.731C194.389 317.782 194.374 313.832 194.361 309.883C195.758 309.883 197.155 309.883 198.552 309.883C198.567 313.891 198.582 317.898 198.597 321.907C197.199 321.845 195.801 321.785 194.402 321.731Z" fill="#FAFAFA"/>
<path d="M199.771 321.961C199.757 317.935 199.741 313.908 199.726 309.883H208.127C209.107 309.883 209.802 310.534 209.805 311.457C209.813 314.628 209.823 317.801 209.831 320.973C209.834 321.896 209.145 322.5 208.166 322.435C205.368 322.258 202.57 322.101 199.77 321.961H199.771ZM203.951 319.106C204.627 319.135 204.966 319.15 205.641 319.18C205.634 317.12 205.627 315.06 205.619 313C204.943 312.99 204.604 312.985 203.928 312.975C203.935 315.019 203.942 317.064 203.949 319.107L203.951 319.106Z" fill="#FAFAFA"/>
<path d="M149.099 328.769C149.105 327.027 149.113 325.283 149.119 323.54C150.779 323.446 152.441 323.362 154.102 323.285C154.085 327.999 154.068 332.713 154.051 337.428C152.387 337.583 150.725 337.757 149.064 337.95C149.071 336.091 149.078 334.231 149.085 332.371C148.281 332.447 147.878 332.485 147.075 332.565C147.068 334.442 147.062 336.317 147.055 338.193C145.395 338.4 143.739 338.627 142.085 338.872C142.1 333.91 142.116 328.949 142.132 323.987C143.79 323.869 145.449 323.758 147.108 323.656C147.102 325.415 147.095 327.172 147.089 328.931C147.893 328.863 148.294 328.83 149.098 328.767L149.099 328.769Z" fill="#FAFAFA"/>
<path d="M167.55 322.871L167.528 336.577C164.179 336.699 160.839 336.885 157.498 337.134C156.306 337.227 155.484 336.576 155.487 335.551C155.502 331.442 155.516 327.333 155.53 323.224C157.2 323.154 158.871 323.092 160.542 323.038C160.532 326.508 160.523 329.979 160.512 333.449C161.31 333.404 161.709 333.384 162.507 333.345C162.515 329.89 162.525 326.434 162.534 322.98C164.205 322.935 165.877 322.899 167.55 322.872V322.871Z" fill="#FAFAFA"/>
<path d="M177.064 329.134C176.842 327.592 176.619 326.051 176.397 324.51C176.397 323.832 176.397 323.493 176.397 322.815C177.94 322.82 179.482 322.833 181.025 322.853C181.031 327.414 181.037 331.976 181.043 336.538C179.267 336.495 177.49 336.467 175.712 336.456C174.924 334.36 174.135 332.261 173.347 330.164C173.19 330.164 173.113 330.166 172.956 330.167C173.17 331.699 173.383 333.232 173.598 334.763C173.598 335.441 173.598 335.781 173.598 336.459C172.058 336.469 170.519 336.493 168.978 336.534C168.984 331.973 168.99 327.411 168.997 322.85C170.768 322.829 172.54 322.817 174.312 322.812C175.092 324.919 175.872 327.026 176.652 329.131C176.817 329.131 176.899 329.132 177.065 329.134H177.064Z" fill="#FAFAFA"/>
<path d="M182.494 336.581C182.487 332.011 182.479 327.443 182.471 322.873C185.807 322.934 189.142 323.025 192.476 323.147C193.643 323.192 194.469 323.952 194.473 324.978C194.485 328.505 194.497 332.033 194.509 335.56C194.513 336.586 193.69 337.236 192.521 337.144C189.18 336.893 185.84 336.706 182.491 336.581H182.494ZM187.491 333.35C188.298 333.39 188.702 333.411 189.509 333.457C189.501 331.149 189.495 328.841 189.488 326.533C188.681 326.501 188.279 326.486 187.472 326.458C187.478 328.755 187.484 331.052 187.491 333.35Z" fill="#FAFAFA"/>
<path d="M195.944 337.441C195.927 332.725 195.91 328.008 195.893 323.293C199.458 323.463 203.022 323.668 206.584 323.909C206.586 324.645 206.587 325.013 206.59 325.749C206.273 326.477 206.114 326.839 205.798 327.561C204.163 327.421 202.526 327.292 200.89 327.174C200.892 327.817 200.893 328.138 200.896 328.781C202.533 328.909 204.169 329.05 205.804 329.203C205.807 330.431 205.812 331.66 205.816 332.889C204.181 332.707 202.546 332.538 200.908 332.385C200.91 333.176 200.913 333.571 200.915 334.362C202.819 334.561 204.72 334.777 206.62 335.007C206.624 336.241 206.629 337.474 206.632 338.708C203.076 338.212 199.515 337.791 195.941 337.441H195.944Z" fill="#FAFAFA"/>
<path d="M219.574 337.903C219.118 336.677 218.89 336.068 218.433 334.86C218.687 334.831 218.921 334.725 219.119 334.568C219.499 334.265 219.746 333.767 219.746 333.271C219.746 331.18 219.746 329.09 219.746 326.999C219.746 325.834 218.929 324.932 217.769 324.823C214.446 324.515 211.122 324.238 207.794 323.992C207.81 328.955 207.826 333.919 207.841 338.882C209.504 339.129 211.163 339.395 212.82 339.679C212.816 338.09 212.813 336.502 212.809 334.913C213.209 334.97 213.409 335.001 213.808 335.059C214.262 336.735 214.709 338.414 215.156 340.092C216.772 340.387 218.387 340.701 219.996 341.032V339.044C219.827 338.586 219.742 338.358 219.574 337.902V337.903ZM214.778 331.337C213.988 331.235 213.592 331.185 212.8 331.089C212.798 329.945 212.797 329.372 212.794 328.227C213.586 328.311 213.982 328.353 214.774 328.442C214.776 329.6 214.777 330.179 214.778 331.337Z" fill="#FAFAFA"/>
<path d="M219.996 342.73V344.042C192.311 338.624 163.942 338.568 136.373 344.734C136.821 343.548 137.273 342.363 137.729 341.18C165.043 336.441 192.881 336.962 219.997 342.73H219.996Z" fill="#FAFAFA"/>
<path d="M141.021 325.948C141.023 325.204 141.025 324.831 141.027 324.088C137.306 324.372 133.589 324.696 129.875 325.058V329.08C131.064 328.929 131.658 328.858 132.849 328.717C132.845 331.573 132.843 334.428 132.839 337.284C133.626 336.25 134.423 335.221 135.23 334.201C134.422 336.285 133.624 338.372 132.836 340.463C133.52 340.332 133.862 340.268 134.547 340.142C134.545 341.795 134.542 343.449 134.54 345.102C135.609 342.27 136.699 339.447 137.807 336.631C137.079 336.741 136.717 336.797 135.989 336.913C136.593 335.362 137.203 333.813 137.819 332.267C137.823 330.9 137.825 329.533 137.829 328.167C138.785 328.068 139.262 328.02 140.218 327.928C140.539 327.132 140.7 326.737 141.021 325.948Z" fill="#FAFAFA"/>
</g>
</g>
<defs>
<clipPath id="clip0_3211_19124">
<rect width="700" height="394" fill="white"/>
</clipPath>
<clipPath id="clip1_3211_19124">
<rect width="90.1112" height="98.4979" fill="white" transform="translate(129.874 49.25)"/>
</clipPath>
<clipPath id="clip2_3211_19124">
<rect width="90.1219" height="99.5805" fill="white" transform="translate(480.096 48.5215)"/>
</clipPath>
<clipPath id="clip3_3211_19124">
<rect width="90.1449" height="102.472" fill="white" transform="translate(480.096 244.061)"/>
</clipPath>
<clipPath id="clip4_3211_19124">
<rect width="90.1219" height="99.5805" fill="white" transform="translate(129.874 245.521)"/>
</clipPath>
</defs>
</svg>
