<svg width="394" height="394" viewBox="0 0 394 394" fill="none" xmlns="http://www.w3.org/2000/svg">
<rect width="394" height="394" fill="#3F2E42"/>
<path d="M88.9022 211.826V203.686C96.4529 203.686 104.004 203.686 111.554 203.686C111.551 205.206 111.548 205.967 111.543 207.487C110.892 209.048 110.566 209.833 109.915 211.405C107.976 211.44 107.005 211.458 105.065 211.493C105.048 219.242 105.033 226.994 105.016 234.743C101.653 235 98.2902 235.265 94.9276 235.542C94.9334 227.592 94.9422 219.645 94.948 211.694C92.5273 211.744 91.317 211.77 88.8993 211.826H88.9022Z" fill="#FFD655" fill-opacity="0.3"/>
<path d="M134.046 203.686C136.402 203.686 138.062 205.179 138.056 207.295C138.041 211.096 138.027 214.898 138.012 218.702C138.006 220.07 136.846 221.637 135.317 222.063C136.583 224.89 137.216 226.297 138.482 229.094C138.476 230.536 138.473 231.256 138.467 232.701C135.169 232.861 131.873 233.033 128.575 233.211C127.673 230.183 126.775 227.154 125.883 224.123C125.069 224.155 124.664 224.173 123.85 224.205C123.838 227.297 123.829 230.39 123.818 233.482C120.446 233.687 117.078 233.903 113.709 234.127C113.739 223.98 113.768 213.836 113.797 203.688H134.046V203.686ZM123.897 211.175C123.888 213.404 123.885 214.521 123.876 216.75C125.483 216.709 126.288 216.689 127.898 216.648C127.907 214.437 127.91 213.328 127.918 211.117C126.308 211.14 125.506 211.152 123.897 211.175Z" fill="#FFD655" fill-opacity="0.3"/>
<path d="M161.997 203.686C163.478 211.861 164.969 220.033 166.465 228.205C166.462 229.596 166.459 230.294 166.456 231.685C163.076 231.773 159.696 231.872 156.313 231.98C156.079 229.707 155.963 228.572 155.73 226.297C153.953 226.343 153.064 226.369 151.288 226.422C151.019 228.724 150.888 229.876 150.62 232.181C147.257 232.312 143.895 232.453 140.532 232.601C140.538 231.163 140.541 230.445 140.547 229.007C142.081 220.566 143.62 212.126 145.169 203.686C150.777 203.686 156.389 203.686 161.997 203.686ZM155.012 219.23C154.712 216.426 154.414 213.623 154.114 210.819C153.671 210.822 153.449 210.825 153.003 210.828C152.685 213.646 152.367 216.467 152.049 219.289C153.233 219.265 153.825 219.254 155.009 219.23H155.012Z" fill="#FFD655" fill-opacity="0.3"/>
<path d="M190.642 203.687C190.642 205.061 190.642 205.746 190.642 207.12C190.012 208.527 189.697 209.23 189.067 210.636C185.751 210.642 182.438 210.651 179.122 210.662C179.113 215.275 179.108 219.885 179.099 224.497C182.943 224.454 186.787 224.427 190.63 224.41C190.63 227.173 190.63 228.556 190.628 231.319C184.757 231.351 178.886 231.421 173.018 231.537C170.609 231.584 168.944 230.187 168.95 228.15C168.967 221.151 168.985 214.155 169.002 207.155C169.008 205.119 170.676 203.684 173.079 203.684C178.936 203.684 184.792 203.684 190.648 203.684L190.642 203.687Z" fill="#FFD655" fill-opacity="0.3"/>
<path d="M207.423 203.687C210.629 203.687 213.834 203.687 217.039 203.687C217.039 205.067 217.042 205.758 217.045 207.138C215.802 210.344 214.56 213.548 213.312 216.754C214.834 220.509 216.353 224.264 217.867 228.019C217.867 229.399 217.87 230.09 217.873 231.473C214.504 231.421 211.139 231.38 207.77 231.348C206.858 227.774 205.942 224.2 205.029 220.626C204.288 220.626 203.918 220.623 203.177 220.62C203.177 224.185 203.18 227.75 203.183 231.316C199.814 231.304 196.446 231.301 193.077 231.31C193.08 222.102 193.083 212.894 193.089 203.687H203.168C203.168 207.027 203.171 210.371 203.174 213.711C203.915 213.711 204.285 213.711 205.026 213.714C205.825 210.371 206.624 207.027 207.423 203.684V203.687Z" fill="#FFD655" fill-opacity="0.3"/>
<path d="M219.906 212.987C219.9 210.65 219.9 209.48 219.894 207.143C219.891 205.115 221.551 203.686 223.957 203.686H241.525C241.531 205.083 241.531 205.78 241.537 207.175C240.913 208.634 240.601 209.36 239.977 210.813C236.661 210.787 233.348 210.761 230.032 210.737C230.032 211.251 230.032 211.507 230.034 212.018C232.974 213.748 235.911 215.484 238.839 217.235C241.064 218.565 241.578 219.837 241.586 222.11C241.595 224.692 241.598 225.981 241.607 228.563C241.613 230.632 239.953 232.032 237.591 231.957C231.708 231.764 225.826 231.612 219.944 231.507C219.938 228.724 219.935 227.335 219.929 224.552C223.773 224.604 227.617 224.671 231.458 224.75C231.458 224.012 231.455 223.642 231.452 222.903C228.521 221.173 225.587 219.452 222.644 217.742C220.419 216.406 219.909 215.213 219.903 212.987H219.906Z" fill="#FFD655" fill-opacity="0.3"/>
<path d="M244.074 232.184C244.042 222.685 244.007 213.185 243.975 203.686C247.335 203.686 250.695 203.686 254.054 203.686C254.089 213.325 254.127 222.968 254.162 232.607C250.8 232.458 247.437 232.315 244.074 232.184Z" fill="#FFD655" fill-opacity="0.3"/>
<path d="M256.985 232.741C256.95 223.055 256.912 213.372 256.877 203.686H277.08C279.436 203.686 281.107 205.252 281.113 207.473C281.136 215.102 281.157 222.734 281.18 230.364C281.186 232.584 279.529 234.037 277.176 233.882C270.448 233.456 263.719 233.077 256.985 232.741ZM267.035 225.873C268.663 225.943 269.476 225.978 271.101 226.051C271.083 221.095 271.066 216.141 271.048 211.184C269.421 211.16 268.607 211.149 266.98 211.125C266.997 216.041 267.015 220.957 267.032 225.873H267.035Z" fill="#FFD655" fill-opacity="0.3"/>
<path d="M304.004 211.789C304.649 210.163 304.972 209.347 305.62 207.71C305.62 206.099 305.62 205.294 305.62 203.684C298.407 203.684 291.195 203.684 283.983 203.684C284.009 213.904 284.038 224.127 284.064 234.347C291.253 234.863 298.44 235.435 305.62 236.057C305.62 232.818 305.62 231.199 305.62 227.963C301.782 227.71 297.941 227.47 294.1 227.243C294.1 225.521 294.097 224.658 294.094 222.936C297.398 223.1 300.706 223.266 304.01 223.438C304.01 220.214 304.01 218.604 304.01 215.38C300.703 215.278 297.392 215.179 294.085 215.082C294.085 213.682 294.082 212.982 294.079 211.581C297.39 211.648 300.7 211.716 304.01 211.789H304.004Z" fill="#FFD655" fill-opacity="0.3"/>
<path d="M88.9022 179.751V171.611C96.4529 171.611 104.004 171.611 111.554 171.611C111.551 173.131 111.548 173.893 111.543 175.413C110.892 176.974 110.566 177.759 109.915 179.331C107.976 179.366 107.005 179.384 105.065 179.419C105.048 187.168 105.033 194.92 105.016 202.669C101.653 202.925 98.2902 203.191 94.9276 203.468C94.9334 195.518 94.9422 187.57 94.948 179.62C92.5273 179.67 91.317 179.696 88.8993 179.751H88.9022Z" fill="#FFD655" fill-opacity="0.3"/>
<path d="M134.046 171.611C136.402 171.611 138.062 173.105 138.056 175.22C138.041 179.022 138.027 182.823 138.012 186.628C138.006 187.996 136.846 189.563 135.317 189.989C136.583 192.816 137.216 194.222 138.482 197.02C138.476 198.461 138.473 199.182 138.467 200.626C135.169 200.787 131.873 200.959 128.575 201.137C127.673 198.108 126.775 195.08 125.883 192.049C125.069 192.081 124.664 192.098 123.85 192.13C123.838 195.223 123.829 198.316 123.818 201.408C120.446 201.612 117.078 201.828 113.709 202.053C113.739 191.906 113.768 181.761 113.797 171.614H134.046V171.611ZM123.897 179.101C123.888 181.33 123.885 182.447 123.876 184.676C125.483 184.635 126.288 184.615 127.898 184.574C127.907 182.362 127.91 181.254 127.918 179.042C126.308 179.066 125.506 179.077 123.897 179.101Z" fill="#FFD655" fill-opacity="0.3"/>
<path d="M161.997 171.611C163.478 179.786 164.969 187.958 166.465 196.13C166.462 197.522 166.459 198.219 166.456 199.611C163.076 199.699 159.696 199.798 156.313 199.906C156.079 197.633 155.963 196.498 155.73 194.222C153.953 194.269 153.064 194.295 151.288 194.348C151.019 196.65 150.888 197.802 150.62 200.107C147.257 200.238 143.895 200.378 140.532 200.527C140.538 199.089 140.541 198.371 140.547 196.933C142.081 188.492 143.62 180.052 145.169 171.611C150.777 171.611 156.389 171.611 161.997 171.611ZM155.012 187.156C154.712 184.352 154.414 181.548 154.114 178.745C153.671 178.748 153.449 178.751 153.003 178.753C152.685 181.572 152.367 184.393 152.049 187.214C153.233 187.191 153.825 187.179 155.009 187.156H155.012Z" fill="#FFD655" fill-opacity="0.3"/>
<path d="M190.642 171.61C190.642 172.985 190.642 173.67 190.642 175.044C190.012 176.451 189.697 177.154 189.067 178.56C185.751 178.566 182.438 178.575 179.122 178.586C179.113 183.199 179.108 187.809 179.099 192.421C182.943 192.377 186.787 192.351 190.63 192.334C190.63 195.097 190.63 196.479 190.628 199.242C184.757 199.274 178.886 199.345 173.018 199.461C170.609 199.508 168.944 198.11 168.95 196.074C168.967 189.075 168.985 182.078 169.002 175.079C169.008 173.043 170.676 171.607 173.079 171.607C178.936 171.607 184.792 171.607 190.648 171.607L190.642 171.61Z" fill="#FFD655" fill-opacity="0.3"/>
<path d="M207.423 171.61C210.629 171.61 213.834 171.61 217.039 171.61C217.039 172.99 217.042 173.682 217.045 175.062C215.802 178.268 214.56 181.472 213.312 184.678C214.834 188.433 216.353 192.188 217.867 195.943C217.867 197.323 217.87 198.014 217.873 199.397C214.504 199.345 211.139 199.304 207.77 199.272C206.858 195.698 205.942 192.124 205.029 188.55C204.288 188.55 203.918 188.547 203.177 188.544C203.177 192.109 203.18 195.674 203.183 199.239C199.814 199.228 196.446 199.225 193.077 199.234C193.08 190.026 193.083 180.818 193.089 171.61H203.168C203.168 174.951 203.171 178.294 203.174 181.635C203.915 181.635 204.285 181.635 205.026 181.638C205.825 178.294 206.624 174.951 207.423 171.607V171.61Z" fill="#FFD655" fill-opacity="0.3"/>
<path d="M219.906 180.912C219.9 178.576 219.9 177.406 219.894 175.069C219.891 173.041 221.551 171.611 223.957 171.611H241.525C241.531 173.009 241.531 173.706 241.537 175.101C240.913 176.559 240.601 177.286 239.977 178.739C236.661 178.713 233.348 178.686 230.032 178.663C230.032 179.177 230.032 179.433 230.034 179.944C232.974 181.674 235.911 183.41 238.839 185.16C241.064 186.491 241.578 187.763 241.586 190.036C241.595 192.618 241.598 193.907 241.607 196.489C241.613 198.558 239.953 199.958 237.591 199.882C231.708 199.69 225.826 199.538 219.944 199.433C219.938 196.65 219.935 195.261 219.929 192.478C223.773 192.53 227.617 192.597 231.458 192.676C231.458 191.938 231.455 191.567 231.452 190.829C228.521 189.099 225.587 187.378 222.644 185.668C220.419 184.332 219.909 183.139 219.903 180.912H219.906Z" fill="#FFD655" fill-opacity="0.3"/>
<path d="M244.074 200.11C244.042 190.61 244.007 181.111 243.975 171.611C247.335 171.611 250.695 171.611 254.054 171.611C254.089 181.251 254.127 190.893 254.162 200.533C250.8 200.384 247.437 200.241 244.074 200.11Z" fill="#FFD655" fill-opacity="0.3"/>
<path d="M256.985 200.667C256.95 190.981 256.912 181.298 256.877 171.611H277.08C279.436 171.611 281.107 173.178 281.113 175.398C281.136 183.028 281.157 190.66 281.18 198.289C281.186 200.51 279.529 201.963 277.176 201.808C270.448 201.382 263.719 201.003 256.985 200.667ZM267.035 193.799C268.663 193.869 269.476 193.904 271.101 193.977C271.083 189.02 271.066 184.066 271.048 179.109C269.421 179.086 268.607 179.074 266.98 179.051C266.997 183.967 267.015 188.883 267.032 193.799H267.035Z" fill="#FFD655" fill-opacity="0.3"/>
<path d="M304.004 179.712C304.649 178.087 304.972 177.27 305.62 175.634C305.62 174.023 305.62 173.218 305.62 171.607C298.407 171.607 291.195 171.607 283.983 171.607C284.009 181.828 284.038 192.051 284.064 202.271C291.253 202.787 298.44 203.359 305.62 203.98C305.62 200.742 305.62 199.123 305.62 195.887C301.782 195.633 297.941 195.394 294.1 195.167C294.1 193.445 294.097 192.582 294.094 190.86C297.398 191.024 300.706 191.19 304.01 191.362C304.01 188.138 304.01 186.528 304.01 183.304C300.703 183.202 297.392 183.103 294.085 183.006C294.085 181.606 294.082 180.906 294.079 179.505C297.39 179.572 300.7 179.639 304.01 179.712H304.004Z" fill="#FFD655" fill-opacity="0.3"/>
<path d="M88.9022 147.673V139.533C96.4529 139.533 104.004 139.533 111.554 139.533C111.551 141.053 111.548 141.815 111.543 143.335C110.892 144.896 110.566 145.68 109.915 147.253C107.976 147.288 107.005 147.306 105.065 147.341C105.048 155.09 105.033 162.841 105.016 170.59C101.653 170.847 98.2903 171.113 94.9276 171.39C94.9334 163.44 94.9422 155.492 94.948 147.542C92.5274 147.591 91.317 147.618 88.8993 147.673H88.9022Z" fill="#FFD655" fill-opacity="0.3"/>
<path d="M134.046 139.533C136.402 139.533 138.062 141.027 138.056 143.142C138.041 146.944 138.027 150.745 138.012 154.55C138.006 155.918 136.846 157.485 135.317 157.911C136.583 160.738 137.216 162.144 138.482 164.942C138.476 166.383 138.473 167.104 138.467 168.548C135.169 168.709 131.873 168.881 128.575 169.059C127.673 166.03 126.775 163.002 125.883 159.971C125.069 160.003 124.664 160.02 123.85 160.052C123.838 163.145 123.829 166.237 123.818 169.33C120.446 169.534 117.078 169.75 113.709 169.975C113.739 159.828 113.768 149.683 113.797 139.536H134.046V139.533ZM123.897 147.023C123.888 149.252 123.885 150.369 123.876 152.598C125.483 152.557 126.288 152.537 127.898 152.496C127.907 150.284 127.91 149.176 127.918 146.964C126.308 146.988 125.506 146.999 123.897 147.023Z" fill="#FFD655" fill-opacity="0.3"/>
<path d="M161.997 139.533C163.478 147.708 164.969 155.88 166.465 164.052C166.462 165.444 166.459 166.141 166.456 167.533C163.076 167.62 159.696 167.72 156.313 167.828C156.079 165.555 155.963 164.42 155.73 162.144C153.953 162.191 153.064 162.217 151.288 162.27C151.019 164.572 150.888 165.724 150.62 168.029C147.257 168.16 143.895 168.3 140.532 168.449C140.538 167.011 140.541 166.293 140.547 164.855C142.081 156.414 143.62 147.974 145.169 139.533C150.777 139.533 156.389 139.533 161.997 139.533ZM155.012 155.078C154.712 152.274 154.414 149.47 154.114 146.667C153.671 146.67 153.449 146.672 153.003 146.675C152.685 149.494 152.367 152.315 152.049 155.136C153.233 155.113 153.825 155.101 155.009 155.078H155.012Z" fill="#FFD655" fill-opacity="0.3"/>
<path d="M190.642 139.534C190.642 140.908 190.642 141.594 190.642 142.968C190.012 144.374 189.697 145.078 189.067 146.484C185.751 146.49 182.438 146.498 179.122 146.51C179.113 151.123 179.108 155.732 179.099 160.345C182.943 160.301 186.787 160.275 190.63 160.257C190.63 163.02 190.63 164.403 190.628 167.166C184.757 167.198 178.886 167.268 173.018 167.385C170.609 167.432 168.944 166.034 168.95 163.998C168.967 156.999 168.985 150.002 169.002 143.003C169.008 140.967 170.676 139.531 173.079 139.531C178.936 139.531 184.792 139.531 190.648 139.531L190.642 139.534Z" fill="#FFD655" fill-opacity="0.3"/>
<path d="M207.423 139.534C210.629 139.534 213.834 139.534 217.039 139.534C217.039 140.914 217.042 141.606 217.045 142.986C215.802 146.192 214.56 149.395 213.312 152.602C214.834 156.357 216.353 160.112 217.867 163.866C217.867 165.246 217.87 165.938 217.873 167.321C214.504 167.268 211.139 167.227 207.77 167.195C206.858 163.621 205.942 160.047 205.029 156.473C204.288 156.473 203.918 156.471 203.177 156.468C203.177 160.033 203.18 163.598 203.183 167.163C199.814 167.152 196.446 167.149 193.077 167.157C193.08 157.95 193.083 148.742 193.089 139.534H203.168C203.168 142.875 203.171 146.218 203.174 149.559C203.915 149.559 204.285 149.559 205.026 149.562C205.825 146.218 206.624 142.875 207.423 139.531V139.534Z" fill="#FFD655" fill-opacity="0.3"/>
<path d="M219.906 148.834C219.9 146.497 219.9 145.327 219.894 142.99C219.891 140.963 221.551 139.533 223.957 139.533H241.525C241.531 140.931 241.531 141.628 241.537 143.023C240.913 144.481 240.601 145.208 239.977 146.661C236.661 146.635 233.348 146.608 230.032 146.585C230.032 147.098 230.032 147.355 230.034 147.866C232.974 149.596 235.911 151.332 238.839 153.082C241.064 154.413 241.578 155.685 241.586 157.957C241.595 160.54 241.598 161.829 241.607 164.411C241.613 166.48 239.953 167.88 237.591 167.804C231.708 167.612 225.826 167.46 219.944 167.355C219.938 164.572 219.935 163.183 219.929 160.399C223.773 160.452 227.617 160.519 231.458 160.598C231.458 159.86 231.455 159.489 231.452 158.751C228.521 157.021 225.587 155.3 222.644 153.59C220.419 152.254 219.909 151.06 219.903 148.834H219.906Z" fill="#FFD655" fill-opacity="0.3"/>
<path d="M244.074 168.032C244.042 158.532 244.007 149.033 243.975 139.533C247.335 139.533 250.695 139.533 254.054 139.533C254.089 149.173 254.127 158.815 254.162 168.455C250.8 168.306 247.437 168.163 244.074 168.032Z" fill="#FFD655" fill-opacity="0.3"/>
<path d="M256.985 168.589C256.95 158.903 256.912 149.219 256.877 139.533H277.08C279.436 139.533 281.107 141.1 281.113 143.32C281.136 150.95 281.157 158.582 281.18 166.211C281.186 168.431 279.529 169.884 277.176 169.73C270.448 169.304 263.719 168.925 256.985 168.589ZM267.035 161.721C268.663 161.791 269.476 161.826 271.101 161.899C271.083 156.942 271.066 151.988 271.048 147.031C269.421 147.008 268.607 146.996 266.98 146.973C266.997 151.889 267.015 156.805 267.032 161.721H267.035Z" fill="#FFD655" fill-opacity="0.3"/>
<path d="M304.004 147.636C304.649 146.011 304.972 145.194 305.62 143.557C305.62 141.947 305.62 141.142 305.62 139.531C298.407 139.531 291.195 139.531 283.983 139.531C284.009 149.751 284.038 159.974 284.064 170.195C291.253 170.711 298.44 171.283 305.62 171.904C305.62 168.666 305.62 167.047 305.62 163.811C301.782 163.557 297.941 163.318 294.1 163.09C294.1 161.369 294.097 160.505 294.094 158.784C297.398 158.948 300.706 159.114 304.01 159.286C304.01 156.062 304.01 154.452 304.01 151.228C300.703 151.126 297.392 151.026 294.085 150.93C294.085 149.53 294.082 148.829 294.079 147.429C297.39 147.496 300.7 147.563 304.01 147.636H304.004Z" fill="#FFD655" fill-opacity="0.3"/>
<path d="M88.9022 115.595V107.455C96.4529 107.455 104.004 107.455 111.554 107.455C111.551 108.975 111.548 109.737 111.543 111.257C110.892 112.818 110.566 113.602 109.915 115.175C107.976 115.21 107.005 115.227 105.065 115.262C105.048 123.011 105.033 130.763 105.016 138.512C101.653 138.769 98.2902 139.035 94.9276 139.312C94.9334 131.361 94.9422 123.414 94.948 115.464C92.5273 115.513 91.317 115.54 88.8993 115.595H88.9022Z" fill="#FFD655" fill-opacity="0.3"/>
<path d="M134.046 107.455C136.402 107.455 138.062 108.949 138.056 111.064C138.041 114.866 138.027 118.667 138.012 122.472C138.006 123.84 136.846 125.407 135.317 125.833C136.583 128.66 137.216 130.066 138.482 132.864C138.476 134.305 138.473 135.026 138.467 136.47C135.169 136.631 131.873 136.803 128.575 136.981C127.673 133.952 126.775 130.924 125.883 127.892C125.069 127.925 124.664 127.942 123.85 127.974C123.838 131.067 123.829 134.159 123.818 137.252C120.446 137.456 117.078 137.672 113.709 137.897C113.739 127.75 113.768 117.605 113.797 107.458H134.046V107.455ZM123.897 114.944C123.888 117.173 123.885 118.291 123.876 120.52C125.483 120.479 126.288 120.459 127.898 120.418C127.907 118.206 127.91 117.098 127.918 114.886C126.308 114.909 125.506 114.921 123.897 114.944Z" fill="#FFD655" fill-opacity="0.3"/>
<path d="M161.997 107.455C163.478 115.63 164.969 123.802 166.465 131.974C166.462 133.366 166.459 134.063 166.456 135.455C163.076 135.542 159.696 135.641 156.313 135.749C156.079 133.477 155.963 132.342 155.73 130.066C153.953 130.113 153.064 130.139 151.288 130.191C151.019 132.493 150.888 133.646 150.62 135.951C147.257 136.082 143.895 136.222 140.532 136.371C140.538 134.932 140.541 134.215 140.547 132.776C142.081 124.336 143.62 115.896 145.169 107.455C150.777 107.455 156.389 107.455 161.997 107.455ZM155.012 123C154.712 120.196 154.414 117.392 154.114 114.588C153.671 114.591 153.449 114.594 153.003 114.597C152.685 117.416 152.367 120.237 152.049 123.058C153.233 123.035 153.825 123.023 155.009 123H155.012Z" fill="#FFD655" fill-opacity="0.3"/>
<path d="M190.642 107.454C190.642 108.828 190.642 109.514 190.642 110.888C190.012 112.294 189.697 112.997 189.067 114.404C185.751 114.41 182.438 114.418 179.122 114.43C179.113 119.043 179.108 123.652 179.099 128.265C182.943 128.221 186.787 128.195 190.63 128.177C190.63 130.94 190.63 132.323 190.628 135.086C184.757 135.118 178.886 135.188 173.018 135.305C170.609 135.352 168.944 133.954 168.95 131.918C168.967 124.919 168.985 117.922 169.002 110.923C169.008 108.887 170.676 107.451 173.079 107.451C178.936 107.451 184.792 107.451 190.648 107.451L190.642 107.454Z" fill="#FFD655" fill-opacity="0.3"/>
<path d="M207.423 107.454C210.629 107.454 213.834 107.454 217.039 107.454C217.039 108.834 217.042 109.526 217.045 110.906C215.802 114.112 214.56 117.315 213.312 120.522C214.834 124.277 216.353 128.032 217.867 131.786C217.867 133.166 217.87 133.858 217.873 135.241C214.504 135.188 211.139 135.147 207.77 135.115C206.858 131.541 205.942 127.967 205.029 124.393C204.288 124.393 203.918 124.39 203.177 124.388C203.177 127.953 203.18 131.518 203.183 135.083C199.814 135.072 196.446 135.069 193.077 135.077C193.08 125.87 193.083 116.662 193.089 107.454H203.168C203.168 110.795 203.171 114.138 203.174 117.479C203.915 117.479 204.285 117.479 205.026 117.482C205.825 114.138 206.624 110.795 207.423 107.451V107.454Z" fill="#FFD655" fill-opacity="0.3"/>
<path d="M219.906 116.756C219.9 114.419 219.9 113.249 219.894 110.912C219.891 108.885 221.551 107.455 223.957 107.455H241.525C241.531 108.853 241.531 109.55 241.537 110.944C240.913 112.403 240.601 113.13 239.977 114.583C236.661 114.556 233.348 114.53 230.032 114.507C230.032 115.02 230.032 115.277 230.034 115.788C232.974 117.518 235.911 119.254 238.839 121.004C241.064 122.335 241.578 123.607 241.586 125.879C241.595 128.461 241.598 129.751 241.607 132.333C241.613 134.402 239.953 135.802 237.591 135.726C231.708 135.534 225.826 135.382 219.944 135.277C219.938 132.493 219.935 131.105 219.929 128.321C223.773 128.374 227.617 128.441 231.458 128.52C231.458 127.782 231.455 127.411 231.452 126.673C228.521 124.943 225.587 123.221 222.644 121.512C220.419 120.176 219.909 118.982 219.903 116.756H219.906Z" fill="#FFD655" fill-opacity="0.3"/>
<path d="M244.074 135.954C244.042 126.454 244.007 116.955 243.975 107.455C247.335 107.455 250.695 107.455 254.054 107.455C254.089 117.095 254.127 126.737 254.162 136.377C250.8 136.228 247.437 136.085 244.074 135.954Z" fill="#FFD655" fill-opacity="0.3"/>
<path d="M256.985 136.511C256.95 126.825 256.912 117.141 256.877 107.455H277.08C279.436 107.455 281.107 109.022 281.113 111.242C281.136 118.871 281.157 126.504 281.18 134.133C281.186 136.353 279.529 137.806 277.176 137.652C270.448 137.226 263.719 136.846 256.985 136.511ZM267.035 129.643C268.663 129.713 269.476 129.748 271.101 129.821C271.083 124.864 271.066 119.91 271.048 114.953C269.421 114.93 268.607 114.918 266.98 114.895C266.997 119.811 267.015 124.727 267.032 129.643H267.035Z" fill="#FFD655" fill-opacity="0.3"/>
<path d="M304.004 115.556C304.649 113.931 304.972 113.114 305.62 111.477C305.62 109.867 305.62 109.062 305.62 107.451C298.407 107.451 291.195 107.451 283.983 107.451C284.009 117.671 284.038 127.894 284.064 138.115C291.253 138.631 298.44 139.203 305.62 139.824C305.62 136.586 305.62 134.967 305.62 131.731C301.782 131.477 297.941 131.238 294.1 131.01C294.1 129.289 294.097 128.425 294.094 126.704C297.398 126.867 300.706 127.034 304.01 127.206C304.01 123.982 304.01 122.371 304.01 119.148C300.703 119.045 297.392 118.946 294.085 118.85C294.085 117.45 294.082 116.749 294.079 115.349C297.39 115.416 300.7 115.483 304.01 115.556H304.004Z" fill="#FFD655" fill-opacity="0.3"/>
<path d="M88.9022 83.5189V75.3789C96.4529 75.3789 104.004 75.3789 111.554 75.3789C111.551 76.8989 111.548 77.6604 111.543 79.1805C110.892 80.7414 110.566 81.5262 109.915 83.0987C107.976 83.1337 107.005 83.1512 105.065 83.1863C105.048 90.9353 105.033 98.6872 105.016 106.436C101.653 106.693 98.2902 106.958 94.9276 107.236C94.9334 99.2853 94.9422 91.3379 94.948 83.3876C92.5273 83.4372 91.317 83.4634 88.8993 83.5189H88.9022Z" fill="#FFD655" fill-opacity="0.3"/>
<path d="M134.046 75.3789C136.402 75.3789 138.062 76.8727 138.056 78.9879C138.041 82.7895 138.027 86.591 138.012 90.3955C138.006 91.7638 136.846 93.3306 135.317 93.7565C136.583 96.5836 137.216 97.9899 138.482 100.788C138.476 102.229 138.473 102.95 138.467 104.394C135.169 104.554 131.873 104.726 128.575 104.904C127.673 101.876 126.775 98.8476 125.883 95.8163C125.069 95.8484 124.664 95.8659 123.85 95.898C123.838 98.9906 123.829 102.083 123.818 105.176C120.446 105.38 117.078 105.596 113.709 105.821C113.739 95.6734 113.768 85.529 113.797 75.3818H134.046V75.3789ZM123.897 82.8682C123.888 85.0972 123.885 86.2147 123.876 88.4437C125.483 88.4028 126.288 88.3824 127.898 88.3416C127.907 86.1301 127.91 85.0214 127.918 82.8099C126.308 82.8332 125.506 82.8449 123.897 82.8682Z" fill="#FFD655" fill-opacity="0.3"/>
<path d="M161.997 75.3789C163.478 83.5539 164.969 91.7259 166.465 99.8979C166.462 101.29 166.459 101.987 166.456 103.379C163.076 103.466 159.696 103.565 156.313 103.673C156.079 101.4 155.963 100.266 155.73 97.9899C153.953 98.0366 153.064 98.0628 151.288 98.1153C151.019 100.417 150.888 101.57 150.62 103.875C147.257 104.006 143.895 104.146 140.532 104.295C140.538 102.856 140.541 102.139 140.547 100.7C142.081 92.2598 143.62 83.8194 145.169 75.3789C150.777 75.3789 156.389 75.3789 161.997 75.3789ZM155.012 90.9236C154.712 88.1198 154.414 85.3161 154.114 82.5123C153.671 82.5152 153.449 82.5181 153.003 82.521C152.685 85.3394 152.367 88.1607 152.049 90.9819C153.233 90.9586 153.825 90.9469 155.009 90.9236H155.012Z" fill="#FFD655" fill-opacity="0.3"/>
<path d="M190.642 75.3799C190.642 76.754 190.642 77.4397 190.642 78.8138C190.012 80.2201 189.697 80.9232 189.067 82.3295C185.751 82.3353 182.438 82.344 179.122 82.3557C179.113 86.9683 179.108 91.5781 179.099 96.1907C182.943 96.147 186.787 96.1207 190.63 96.1032C190.63 98.8661 190.63 100.249 190.628 103.012C184.757 103.044 178.886 103.114 173.018 103.231C170.609 103.277 168.944 101.88 168.95 99.8435C168.967 92.8443 168.985 85.848 169.002 78.8488C169.008 76.8124 170.676 75.377 173.079 75.377C178.936 75.377 184.792 75.377 190.648 75.377L190.642 75.3799Z" fill="#FFD655" fill-opacity="0.3"/>
<path d="M207.423 75.3799C210.629 75.3799 213.834 75.3799 217.039 75.3799C217.039 76.7599 217.042 77.4513 217.045 78.8313C215.802 82.0377 214.56 85.2412 213.312 88.4475C214.834 92.2024 216.353 95.9573 217.867 99.7122C217.867 101.092 217.87 101.784 217.873 103.167C214.504 103.114 211.139 103.073 207.77 103.041C206.858 99.4671 205.942 95.8931 205.029 92.3191C204.288 92.3191 203.918 92.3162 203.177 92.3133C203.177 95.8785 203.18 99.4438 203.183 103.009C199.814 102.997 196.446 102.994 193.077 103.003C193.08 93.7954 193.083 84.5876 193.089 75.3799H203.168C203.168 78.7205 203.171 82.064 203.174 85.4046C203.915 85.4046 204.285 85.4046 205.026 85.4075C205.825 82.064 206.624 78.7205 207.423 75.377V75.3799Z" fill="#FFD655" fill-opacity="0.3"/>
<path d="M219.906 84.68C219.9 82.3431 219.9 81.1731 219.894 78.8362C219.891 76.8085 221.551 75.3789 223.957 75.3789H241.525C241.531 76.7764 241.531 77.4737 241.537 78.8683C240.913 80.3271 240.601 81.0535 239.977 82.5065C236.661 82.4802 233.348 82.4539 230.032 82.4306C230.032 82.9441 230.032 83.2008 230.034 83.7114C232.974 85.4415 235.911 87.1775 238.839 88.928C241.064 90.2584 241.578 91.5304 241.586 93.8032C241.595 96.3852 241.598 97.6748 241.607 100.257C241.613 102.325 239.953 103.726 237.591 103.65C231.708 103.457 225.826 103.306 219.944 103.201C219.938 100.417 219.935 99.0285 219.929 96.2452C223.773 96.2977 227.617 96.3648 231.458 96.4436C231.458 95.7054 231.455 95.3349 231.452 94.5968C228.521 92.8667 225.587 91.1453 222.644 89.4356C220.419 88.0994 219.909 86.9061 219.903 84.68H219.906Z" fill="#FFD655" fill-opacity="0.3"/>
<path d="M244.074 103.877C244.042 94.3779 244.007 84.8784 243.975 75.3789C247.335 75.3789 250.695 75.3789 254.054 75.3789C254.089 85.0185 254.127 94.661 254.162 104.301C250.8 104.152 247.437 104.009 244.074 103.877Z" fill="#FFD655" fill-opacity="0.3"/>
<path d="M256.985 104.435C256.95 94.7485 256.912 85.0652 256.877 75.3789H277.08C279.436 75.3789 281.107 76.9456 281.113 79.1659C281.136 86.7952 281.157 94.4275 281.18 102.057C281.186 104.277 279.529 105.73 277.176 105.575C270.448 105.15 263.719 104.77 256.985 104.435ZM267.035 97.5668C268.663 97.6368 269.476 97.6718 271.101 97.7448C271.083 92.7879 271.066 87.8339 271.048 82.877C269.421 82.8537 268.607 82.842 266.98 82.8186C266.997 87.7347 267.015 92.6508 267.032 97.5668H267.035Z" fill="#FFD655" fill-opacity="0.3"/>
<path d="M304.004 83.4819C304.649 81.8568 304.972 81.0399 305.62 79.4032C305.62 77.7927 305.62 76.9874 305.62 75.377C298.407 75.377 291.195 75.377 283.983 75.377C284.009 85.5971 284.038 95.8202 284.064 106.04C291.253 106.557 298.44 107.129 305.62 107.75C305.62 104.512 305.62 102.892 305.62 99.6568C301.782 99.4029 297.941 99.1637 294.1 98.9361C294.1 97.2148 294.097 96.3512 294.094 94.6298C297.398 94.7932 300.706 94.9595 304.01 95.1316C304.01 91.9078 304.01 90.2973 304.01 87.0734C300.703 86.9713 297.392 86.8721 294.085 86.7758C294.085 85.3754 294.082 84.6752 294.079 83.2747C297.39 83.3419 300.7 83.409 304.01 83.4819H304.004Z" fill="#FFD655" fill-opacity="0.3"/>
<g clip-path="url(#clip0_3223_21432)">
<path d="M233.474 174.303C218.1 180.837 204.476 179.115 192.319 176.335L168.109 212.502C177.015 216.492 186.887 218.686 197.254 218.692C235.858 219.49 269.871 185.464 269.073 146.846C269.156 124.921 258.998 104.057 241.807 90.4863L233.474 174.303ZM194.173 180.973C209.284 184.278 223.518 183.595 237.33 177.142C239.731 153.05 242.201 128.182 244.72 102.819C244.735 102.833 244.749 102.851 244.764 102.865C255.888 114.868 261.983 130.39 261.983 146.846C262.732 181.555 232.077 212.294 197.43 211.573C190.115 211.573 182.944 210.361 176.101 207.962L194.17 180.973H194.173Z" fill="white"/>
<path d="M163.443 183.43L164.198 171.297C160.143 171.503 156.29 172.527 152.631 174.839C153.495 155.825 154.386 136.328 155.3 116.318C174.868 97.2115 200.143 111.425 232.667 92.6164C234.889 91.3519 236.96 90.0122 239.161 88.4814C227.032 79.7253 212.503 75 197.254 75C157.649 75 125.432 107.226 125.432 146.846C125.432 175.302 142.053 199.924 166.078 211.571C166.665 203.405 167.521 192.016 168.062 184.706L163.443 183.427V183.43ZM152.422 113.367L151.257 114.504C150.192 137.789 149.171 160.119 148.153 182.545C151.129 180.635 156.57 177.102 159.79 175.771L159.121 186.515L163.7 187.779L162.682 201.437C144.242 189.828 132.513 168.638 132.669 146.791C132.58 110.852 162.274 81.884 197.248 82.0894C208.399 82.0894 219.121 84.8904 228.606 90.1655C214.34 97.8973 201.781 99.0519 189.609 100.175C176.167 101.41 163.466 102.582 152.417 113.367H152.422Z" fill="white"/>
<path d="M180.668 147.741C184.853 148.534 189.181 149.521 193.731 150.389C194.165 144.382 194.596 138.325 195.038 132.226C190.41 131.742 186.002 131.109 181.747 130.666C181.385 136.401 181.021 142.093 180.668 147.741Z" fill="white"/>
<path d="M179.32 167.552H179.323C184.495 168.69 189.933 170.18 195.683 171.311C205.263 173.186 215.772 174.057 227.463 170.536C229.659 147.526 231.921 123.804 234.249 99.3379C202.365 117.88 178.157 103.67 158.375 118.112C157.568 135.1 156.776 151.713 155.998 167.978C159.821 166.299 163.723 165.732 168.019 165.912L167.302 179.471L172.077 180.666L170.602 199.822L170.541 200.601C170.674 200.398 170.804 200.193 170.946 199.981C175.47 193.008 182.094 182.779 187.084 175.082C184.298 174.384 181.588 173.687 178.95 173.082V173.007L179.32 167.549V167.552ZM224.606 167.856C218.956 169.456 212.833 170.024 207.265 169.757C207.748 163.791 208.245 157.786 208.74 151.721C214.658 151.672 220.241 149.982 226.468 147.855L224.606 167.856ZM169.02 146.793C168.728 152.21 168.389 158.015 168.091 163.345C164.432 163.299 161.019 163.585 157.736 164.705C157.976 159.795 158.219 154.852 158.456 149.875C161.84 148.301 165.155 146.927 169.017 146.788C169.315 141.46 169.61 136.107 169.911 130.705C165.997 131.179 162.645 132.858 159.217 134.733L159.952 119.677C163.151 117.542 166.969 115.97 170.781 115.085C170.489 120.328 170.197 125.537 169.911 130.705C173.648 130.12 177.744 130.198 181.741 130.664C182.1 125.016 182.458 119.333 182.82 113.589C187.234 113.372 191.7 113.346 196.519 113.112C196.071 119.266 195.469 126.22 195.035 132.224C199.762 132.78 205.052 132.933 210.322 132.285C210.846 125.939 211.641 117.86 212.185 111.265C218.092 110.013 224.123 108.201 230.489 105.148C229.806 112.429 229.138 119.64 228.47 126.79C222.092 129.501 216.371 131.721 210.322 132.285C209.787 138.819 209.258 145.295 208.731 151.721C203.562 151.915 198.37 151.322 193.728 150.384C193.311 156.212 192.892 161.994 192.478 167.732C187.937 166.797 183.676 165.724 179.502 164.87C179.864 159.277 180.306 153.33 180.659 147.737C176.728 146.944 172.693 146.524 169.014 146.788L169.02 146.793Z" fill="white"/>
<path d="M88.8993 243.675V235.535C96.4499 235.535 104.001 235.535 111.551 235.535C111.548 237.055 111.545 237.817 111.54 239.337C110.889 240.898 110.563 241.682 109.912 243.255C107.973 243.29 107.002 243.307 105.062 243.343C105.045 251.092 105.03 258.843 105.013 266.592C101.65 266.849 98.2873 267.115 94.9246 267.392C94.9305 259.442 94.9392 251.494 94.9451 243.544C92.5244 243.593 91.3141 243.62 88.8964 243.675H88.8993Z" fill="white"/>
<path d="M134.043 235.533C136.399 235.533 138.059 237.027 138.053 239.142C138.038 242.944 138.024 246.745 138.009 250.55C138.003 251.918 136.843 253.485 135.314 253.911C136.58 256.738 137.213 258.144 138.479 260.942C138.473 262.383 138.47 263.104 138.464 264.548C135.166 264.709 131.87 264.881 128.572 265.059C127.67 262.03 126.772 259.002 125.88 255.971C125.066 256.003 124.661 256.02 123.847 256.052C123.835 259.145 123.827 262.237 123.815 265.33C120.443 265.534 117.075 265.75 113.707 265.975C113.736 255.828 113.765 245.683 113.794 235.536H134.043V235.533ZM123.894 243.023C123.885 245.252 123.882 246.369 123.873 248.598C125.48 248.557 126.285 248.537 127.895 248.496C127.904 246.284 127.907 245.176 127.915 242.964C126.306 242.988 125.504 242.999 123.894 243.023Z" fill="white"/>
<path d="M161.994 235.533C163.476 243.708 164.966 251.88 166.462 260.052C166.459 261.444 166.456 262.141 166.453 263.533C163.073 263.62 159.693 263.72 156.31 263.828C156.077 261.555 155.96 260.42 155.727 258.144C153.95 258.191 153.061 258.217 151.285 258.27C151.017 260.572 150.885 261.724 150.617 264.029C147.254 264.16 143.892 264.3 140.529 264.449C140.535 263.011 140.538 262.293 140.544 260.855C142.078 252.414 143.617 243.974 145.166 235.533C150.774 235.533 156.386 235.533 161.994 235.533ZM155.009 251.078C154.709 248.274 154.411 245.47 154.111 242.667C153.668 242.67 153.446 242.672 153 242.675C152.682 245.494 152.364 248.315 152.046 251.136C153.23 251.113 153.822 251.101 155.006 251.078H155.009Z" fill="white"/>
<path d="M190.639 235.534C190.639 236.908 190.639 237.594 190.639 238.968C190.009 240.374 189.694 241.078 189.064 242.484C185.748 242.49 182.435 242.498 179.119 242.51C179.111 247.123 179.105 251.732 179.096 256.345C182.94 256.301 186.784 256.275 190.628 256.257C190.628 259.02 190.628 260.403 190.625 263.166C184.754 263.198 178.883 263.268 173.015 263.385C170.606 263.432 168.941 262.034 168.947 259.998C168.964 252.999 168.982 246.002 168.999 239.003C169.005 236.967 170.673 235.531 173.076 235.531C178.933 235.531 184.789 235.531 190.645 235.531L190.639 235.534Z" fill="white"/>
<path d="M207.42 235.534C210.626 235.534 213.831 235.534 217.036 235.534C217.036 236.914 217.039 237.606 217.042 238.986C215.799 242.192 214.557 245.395 213.309 248.602C214.831 252.357 216.351 256.112 217.864 259.866C217.864 261.246 217.867 261.938 217.87 263.321C214.502 263.268 211.136 263.227 207.767 263.195C206.855 259.621 205.939 256.047 205.026 252.473C204.285 252.473 203.915 252.471 203.174 252.468C203.174 256.033 203.177 259.598 203.18 263.163C199.811 263.152 196.443 263.149 193.074 263.157C193.077 253.95 193.08 244.742 193.086 235.534H203.165C203.165 238.875 203.168 242.218 203.171 245.559C203.912 245.559 204.282 245.559 205.023 245.562C205.822 242.218 206.621 238.875 207.42 235.531V235.534Z" fill="white"/>
<path d="M219.903 244.834C219.897 242.497 219.897 241.327 219.891 238.99C219.888 236.963 221.548 235.533 223.954 235.533H241.522C241.528 236.931 241.528 237.628 241.534 239.023C240.91 240.481 240.598 241.208 239.974 242.661C236.658 242.635 233.345 242.608 230.029 242.585C230.029 243.098 230.029 243.355 230.032 243.866C232.971 245.596 235.908 247.332 238.836 249.082C241.062 250.413 241.575 251.685 241.584 253.957C241.592 256.54 241.595 257.829 241.604 260.411C241.61 262.48 239.95 263.88 237.588 263.804C231.706 263.612 225.823 263.46 219.941 263.355C219.935 260.572 219.932 259.183 219.926 256.399C223.77 256.452 227.614 256.519 231.455 256.598C231.455 255.86 231.452 255.489 231.449 254.751C228.518 253.021 225.584 251.3 222.641 249.59C220.416 248.254 219.906 247.06 219.9 244.834H219.903Z" fill="white"/>
<path d="M244.071 264.032C244.039 254.532 244.004 245.033 243.972 235.533C247.332 235.533 250.692 235.533 254.051 235.533C254.086 245.173 254.124 254.815 254.159 264.455C250.797 264.306 247.434 264.163 244.071 264.032Z" fill="white"/>
<path d="M256.982 264.589C256.947 254.903 256.909 245.219 256.874 235.533H277.077C279.433 235.533 281.104 237.1 281.11 239.32C281.133 246.95 281.154 254.582 281.177 262.211C281.183 264.431 279.526 265.884 277.173 265.73C270.445 265.304 263.716 264.925 256.982 264.589ZM267.032 257.721C268.66 257.791 269.473 257.826 271.098 257.899C271.08 252.942 271.063 247.988 271.045 243.031C269.418 243.008 268.604 242.996 266.977 242.973C266.994 247.889 267.012 252.805 267.03 257.721H267.032Z" fill="white"/>
<path d="M304.001 243.636C304.646 242.011 304.969 241.194 305.617 239.557C305.617 237.947 305.617 237.142 305.617 235.531C298.405 235.531 291.192 235.531 283.98 235.531C284.006 245.751 284.035 255.974 284.062 266.195C291.251 266.711 298.437 267.283 305.617 267.904C305.617 264.666 305.617 263.047 305.617 259.811C301.779 259.557 297.938 259.318 294.097 259.09C294.097 257.369 294.094 256.505 294.091 254.784C297.395 254.948 300.703 255.114 304.007 255.286C304.007 252.062 304.007 250.452 304.007 247.228C300.7 247.126 297.39 247.026 294.082 246.93C294.082 245.53 294.079 244.829 294.077 243.429C297.387 243.496 300.697 243.563 304.007 243.636H304.001Z" fill="white"/>
<path d="M135.131 280.966C135.145 276.773 135.163 272.581 135.177 268.388C139.17 268.163 143.165 267.959 147.161 267.775C147.12 279.116 147.079 290.456 147.038 301.797C143.037 302.17 139.039 302.59 135.046 303.054C135.064 298.582 135.078 294.106 135.096 289.634C133.162 289.815 132.194 289.908 130.263 290.1C130.246 294.614 130.231 299.124 130.214 303.638C126.224 304.14 122.24 304.682 118.262 305.275C118.3 293.339 118.338 281.403 118.376 269.468C122.363 269.182 126.352 268.916 130.339 268.671C130.324 272.902 130.307 277.129 130.292 281.359C132.226 281.196 133.191 281.117 135.125 280.966H135.131Z" fill="white"/>
<path d="M179.498 266.777C179.481 277.768 179.463 288.755 179.446 299.746C171.394 300.04 163.362 300.487 155.327 301.085C152.46 301.309 150.483 299.743 150.492 297.277C150.527 287.393 150.562 277.508 150.594 267.623C154.61 267.454 158.628 267.305 162.647 267.177C162.624 275.524 162.601 283.871 162.574 292.221C164.493 292.113 165.453 292.064 167.372 291.97C167.392 283.658 167.416 275.349 167.436 267.037C171.455 266.929 175.477 266.842 179.498 266.777Z" fill="white"/>
<path d="M202.378 281.841C201.844 278.133 201.308 274.428 200.774 270.719C200.774 269.088 200.774 268.272 200.774 266.641C204.484 266.652 208.193 266.684 211.903 266.731C211.918 277.704 211.932 288.677 211.947 299.65C207.671 299.548 203.402 299.48 199.126 299.454C197.23 294.41 195.335 289.365 193.439 284.318C193.063 284.318 192.876 284.321 192.5 284.324C193.013 288.009 193.527 291.696 194.043 295.381C194.043 297.012 194.043 297.829 194.043 299.46C190.339 299.483 186.638 299.542 182.934 299.641C182.949 288.668 182.963 277.698 182.978 266.725C187.239 266.676 191.5 266.646 195.761 266.635C197.636 271.703 199.511 276.767 201.386 281.835C201.783 281.835 201.981 281.838 202.381 281.841H202.378Z" fill="white"/>
<path d="M215.435 299.757C215.417 288.767 215.4 277.774 215.379 266.783C223.403 266.929 231.423 267.148 239.44 267.443C242.246 267.551 244.235 269.38 244.24 271.848C244.27 280.332 244.299 288.817 244.328 297.304C244.337 299.772 242.359 301.336 239.548 301.114C231.513 300.51 223.481 300.061 215.429 299.76L215.435 299.757ZM227.451 291.985C229.393 292.081 230.364 292.131 232.303 292.242C232.286 286.69 232.271 281.14 232.257 275.588C230.317 275.51 229.349 275.475 227.41 275.407C227.424 280.933 227.439 286.459 227.453 291.985H227.451Z" fill="white"/>
<path d="M247.778 301.823C247.737 290.477 247.696 279.133 247.656 267.787C256.23 268.196 264.801 268.689 273.367 269.269C273.373 271.04 273.376 271.924 273.382 273.695C272.62 275.446 272.238 276.318 271.477 278.054C267.546 277.716 263.609 277.406 259.674 277.123C259.68 278.67 259.683 279.443 259.689 280.989C263.626 281.298 267.56 281.637 271.492 282.004C271.5 284.96 271.512 287.915 271.521 290.871C267.589 290.433 263.658 290.028 259.718 289.66C259.724 291.562 259.73 292.513 259.736 294.416C264.314 294.897 268.884 295.413 273.454 295.968C273.463 298.935 273.475 301.902 273.484 304.866C264.933 303.673 256.37 302.658 247.775 301.82L247.778 301.823Z" fill="white"/>
<path d="M304.602 302.942C303.505 299.992 302.957 298.528 301.858 295.622C302.47 295.552 303.033 295.298 303.508 294.919C304.421 294.189 305.016 292.993 305.016 291.803C305.016 286.773 305.016 281.743 305.016 276.713C305.016 273.912 303.05 271.742 300.265 271.479C292.274 270.738 284.28 270.073 276.278 269.48C276.315 281.419 276.353 293.358 276.391 305.296C280.39 305.891 284.379 306.53 288.363 307.213C288.355 303.391 288.346 299.572 288.337 295.75C289.299 295.887 289.778 295.96 290.74 296.1C291.831 300.132 292.907 304.17 293.977 308.208C297.865 308.92 301.747 309.673 305.617 310.469C305.617 308.555 305.617 307.598 305.617 305.687C305.212 304.584 305.007 304.036 304.602 302.939V302.942ZM293.07 287.146C291.169 286.901 290.218 286.782 288.314 286.551C288.308 283.797 288.305 282.42 288.299 279.666C290.204 279.867 291.154 279.969 293.059 280.182C293.065 282.968 293.065 284.36 293.07 287.146Z" fill="white"/>
<path d="M305.614 317.716C305.614 316.452 305.614 315.822 305.614 314.559C240.408 300.677 173.467 299.423 107.786 310.83C106.695 313.66 105.613 316.496 104.543 319.335C170.834 304.517 239.049 304.663 305.614 317.719V317.716Z" fill="white"/>
<path d="M88.8993 272.038V281.713C91.7574 281.351 93.1865 281.179 96.0504 280.84C96.0446 286.795 96.0387 292.75 96.03 298.704C98.5119 295.504 101.029 292.335 103.581 289.19C102.05 293.126 100.542 297.074 99.0427 301.021C98.0248 303.708 97.0157 306.401 96.0183 309.094C97.6603 308.779 98.4798 308.624 100.125 308.324C100.125 308.671 100.125 308.843 100.125 309.19C100.119 312.878 100.113 316.566 100.107 320.256C101.702 315.985 103.312 311.723 104.94 307.463C106.156 304.294 106.762 302.722 107.979 299.603C106.191 299.874 105.296 300.012 103.511 300.295C104.992 296.438 106.491 292.589 108.008 288.747C108.017 285.669 108.022 282.591 108.031 279.513C110.329 279.277 111.478 279.16 113.777 278.938C114.549 277.024 114.934 276.073 115.707 274.177C115.713 272.385 115.716 271.49 115.722 269.701C106.774 270.384 97.8353 271.163 88.9051 272.035L88.8993 272.038Z" fill="white"/>
</g>
<path d="M64.9263 224V223.148H66.9183V216.392H67.4463L65.1183 217.844V216.848L67.1943 215.54H67.9143V223.148H69.7863V224H64.9263Z" fill="white"/>
<path d="M64.4343 193V192.256L67.4343 189.124C67.8263 188.716 68.1183 188.328 68.3103 187.96C68.5103 187.584 68.6103 187.196 68.6103 186.796C68.6103 186.308 68.4583 185.94 68.1543 185.692C67.8503 185.436 67.4103 185.308 66.8343 185.308C66.3863 185.308 65.9703 185.388 65.5863 185.548C65.2103 185.7 64.8463 185.944 64.4943 186.28L64.1343 185.5C64.4543 185.18 64.8623 184.924 65.3583 184.732C65.8543 184.532 66.3783 184.432 66.9303 184.432C67.7863 184.432 68.4463 184.632 68.9103 185.032C69.3743 185.424 69.6063 185.984 69.6063 186.712C69.6063 187.248 69.4743 187.76 69.2103 188.248C68.9543 188.728 68.5783 189.224 68.0823 189.736L65.4303 192.424V192.148H69.9663V193H64.4343Z" fill="white"/>
<path d="M66.9543 160.108C66.3863 160.108 65.8423 160.02 65.3223 159.844C64.8023 159.668 64.3663 159.416 64.0143 159.088L64.3863 158.32C64.7783 158.64 65.1823 158.872 65.5983 159.016C66.0143 159.16 66.4623 159.232 66.9423 159.232C67.5743 159.232 68.0543 159.1 68.3823 158.836C68.7103 158.564 68.8743 158.168 68.8743 157.648C68.8743 157.152 68.7063 156.776 68.3703 156.52C68.0343 156.256 67.5423 156.124 66.8943 156.124H65.6223V155.296H66.8103C67.3703 155.296 67.8143 155.152 68.1423 154.864C68.4703 154.576 68.6343 154.184 68.6343 153.688C68.6343 153.24 68.4823 152.9 68.1783 152.668C67.8823 152.428 67.4543 152.308 66.8943 152.308C65.9823 152.308 65.1943 152.632 64.5303 153.28L64.1583 152.5C64.4863 152.164 64.8983 151.904 65.3943 151.72C65.8903 151.528 66.4103 151.432 66.9543 151.432C67.7863 151.432 68.4383 151.624 68.9103 152.008C69.3823 152.392 69.6183 152.924 69.6183 153.604C69.6183 154.124 69.4703 154.572 69.1743 154.948C68.8783 155.316 68.4783 155.568 67.9743 155.704V155.572C68.5743 155.668 69.0383 155.908 69.3663 156.292C69.6943 156.668 69.8583 157.144 69.8583 157.72C69.8583 158.456 69.5983 159.04 69.0783 159.472C68.5663 159.896 67.8583 160.108 66.9543 160.108Z" fill="white"/>
<path d="M68.0343 128V126.164H64.0023V125.444L68.1903 119.54H69.0063V125.36H70.3023V126.164H69.0063V128H68.0343ZM68.0343 125.36V120.716H68.2983L64.8183 125.612V125.36H68.0343Z" fill="white"/>
<path d="M67.1583 96.108C66.7903 96.108 66.4303 96.068 66.0783 95.988C65.7263 95.908 65.3943 95.792 65.0823 95.64C64.7783 95.488 64.5103 95.304 64.2783 95.088L64.6503 94.32C65.0423 94.632 65.4423 94.864 65.8503 95.016C66.2583 95.16 66.6943 95.232 67.1583 95.232C67.7663 95.232 68.2423 95.068 68.5863 94.74C68.9303 94.412 69.1023 93.98 69.1023 93.444C69.1023 92.892 68.9383 92.44 68.6103 92.088C68.2823 91.736 67.8263 91.56 67.2423 91.56C66.8263 91.56 66.4543 91.644 66.1263 91.812C65.7983 91.972 65.5143 92.224 65.2743 92.568H64.5543V87.54H69.5703V88.38H65.5143V91.752H65.2503C65.4663 91.416 65.7623 91.16 66.1383 90.984C66.5223 90.8 66.9543 90.708 67.4343 90.708C67.9783 90.708 68.4463 90.82 68.8383 91.044C69.2383 91.268 69.5463 91.58 69.7623 91.98C69.9783 92.38 70.0863 92.848 70.0863 93.384C70.0863 93.92 69.9663 94.396 69.7263 94.812C69.4943 95.22 69.1583 95.54 68.7183 95.772C68.2863 95.996 67.7663 96.108 67.1583 96.108Z" fill="white"/>
<path d="M332 219L77 219" stroke="#FFD655"/>
<path d="M332 75H62" stroke="#FFD655"/>
<path d="M332 107H62" stroke="#FFD655" stroke-opacity="0.5" stroke-dasharray="5 5"/>
<path d="M332 139H62" stroke="#FFD655" stroke-opacity="0.5" stroke-dasharray="5 5"/>
<path d="M332 172H62" stroke="#FFD655" stroke-opacity="0.5" stroke-dasharray="5 5"/>
<path d="M332 203H62" stroke="#FFD655" stroke-opacity="0.5" stroke-dasharray="5 5"/>
<path d="M332 235.699H62" stroke="#FFD655" stroke-opacity="0.5" stroke-dasharray="5 5"/>
<defs>
<clipPath id="clip0_3223_21432">
<rect width="216.718" height="246.448" fill="white" transform="translate(88.8993 73.8125)"/>
</clipPath>
</defs>
</svg>
