<svg width="700" height="394" viewBox="0 0 700 394" fill="none" xmlns="http://www.w3.org/2000/svg">
<rect width="700" height="394" fill="#3F2E42"/>
<g clip-path="url(#clip0_3211_19073)">
<path d="M248.649 225.272C232.762 232.001 218.683 230.227 206.12 227.364L181.101 264.612C190.305 268.721 200.507 270.98 211.219 270.987C251.113 271.808 286.261 236.766 285.434 196.995C285.523 174.417 275.022 152.928 257.257 138.951L248.646 225.272H248.649ZM208.037 232.142C223.654 235.544 238.362 234.842 252.635 228.198C255.116 203.386 257.669 177.773 260.274 151.654C260.287 151.671 260.304 151.687 260.32 151.7C271.817 164.062 278.115 180.046 278.115 196.995C278.889 232.74 247.21 264.399 211.407 263.66C203.847 263.66 196.438 262.412 189.366 259.942L208.04 232.145L208.037 232.142Z" fill="#FFD655"/>
<path d="M176.282 234.671L177.063 222.175C172.873 222.388 168.89 223.439 165.108 225.823C166.001 206.243 166.923 186.161 167.869 165.553C188.091 145.874 214.21 160.515 247.819 141.145C250.115 139.841 252.256 138.462 254.529 136.885C241.995 127.867 226.981 123 211.219 123C170.293 123 137 156.19 137 196.992C137 226.299 154.175 251.656 179.003 263.653C179.609 255.243 180.492 243.515 181.055 235.988L176.282 234.671ZM164.894 162.512L163.689 163.684C162.588 187.665 161.534 210.664 160.483 233.758C163.56 231.791 169.183 228.152 172.51 226.782L171.822 237.847L176.552 239.15L175.501 253.216C156.445 241.259 144.326 219.436 144.487 196.936C144.395 159.924 175.083 130.09 211.225 130.301C222.748 130.301 233.829 133.184 243.633 138.616C228.892 146.577 215.913 147.769 203.333 148.925C189.442 150.199 176.318 151.405 164.901 162.512H164.894Z" fill="#FFD655"/>
<path d="M194.083 197.919C198.408 198.733 202.882 199.751 207.582 200.644C208.03 194.457 208.475 188.221 208.933 181.938C204.15 181.442 199.594 180.789 195.2 180.332C194.824 186.237 194.449 192.102 194.083 197.919Z" fill="white"/>
<path d="M192.69 218.319H192.693C198.036 219.491 203.659 221.025 209.598 222.191C219.5 224.122 230.357 225.019 242.44 221.393C244.71 197.694 247.049 173.264 249.453 148.064C216.506 167.162 191.487 152.528 171.044 167.398C170.211 184.896 169.391 202.003 168.587 218.752C172.54 217.025 176.572 216.44 181.009 216.624L180.268 230.588L185.202 231.82L183.677 251.548L183.614 252.349C183.75 252.142 183.888 251.929 184.033 251.712C188.707 244.53 195.552 233.994 200.707 226.069C197.828 225.354 195.025 224.634 192.301 224.01V223.935L192.683 218.312L192.69 218.319ZM239.485 218.631C233.648 220.28 227.32 220.864 221.566 220.588C222.063 214.444 222.58 208.26 223.091 202.013C229.205 201.961 234.976 200.22 241.412 198.029L239.489 218.631H239.485ZM182.043 196.942C181.74 202.522 181.391 208.499 181.085 213.99C177.303 213.944 173.778 214.237 170.382 215.393C170.629 210.335 170.88 205.245 171.127 200.121C174.622 198.499 178.051 197.087 182.04 196.942C182.346 191.458 182.653 185.94 182.966 180.38C178.92 180.87 175.458 182.597 171.914 184.528L172.672 169.024C175.976 166.823 179.925 165.208 183.862 164.295C183.558 169.694 183.255 175.057 182.962 180.38C186.826 179.776 191.059 179.858 195.19 180.338C195.559 174.522 195.931 168.666 196.307 162.751C200.869 162.528 205.484 162.502 210.461 162.259C209.997 168.597 209.374 175.76 208.929 181.94C213.815 182.515 219.283 182.669 224.728 182.003C225.268 175.467 226.092 167.149 226.652 160.354C232.756 159.063 238.988 157.198 245.569 154.051C244.861 161.549 244.173 168.975 243.484 176.341C236.893 179.136 230.98 181.418 224.731 182C224.178 188.729 223.631 195.399 223.087 202.016C217.748 202.217 212.382 201.606 207.582 200.64C207.151 206.644 206.719 212.595 206.291 218.506C201.597 217.544 197.196 216.437 192.881 215.56C193.256 209.8 193.711 203.675 194.076 197.914C190.015 197.1 185.845 196.667 182.043 196.939V196.942Z" fill="white"/>
<path d="M318.224 158.479V149.316C326.752 149.316 335.28 149.316 343.809 149.316C343.805 151.027 343.802 151.885 343.796 153.596C343.061 155.353 342.692 156.236 341.958 158.006C339.767 158.046 338.67 158.065 336.479 158.105C336.46 166.827 336.443 175.553 336.423 184.276C332.625 184.565 328.827 184.864 325.029 185.176C325.036 176.227 325.046 167.281 325.052 158.331C322.318 158.387 320.951 158.417 318.22 158.479H318.224Z" fill="#FFD655"/>
<path d="M369.213 149.316C371.874 149.316 373.749 150.998 373.742 153.379C373.726 157.658 373.709 161.937 373.693 166.22C373.686 167.76 372.375 169.524 370.649 170.003C372.079 173.186 372.793 174.769 374.223 177.918C374.216 179.54 374.213 180.352 374.207 181.977C370.481 182.158 366.759 182.352 363.033 182.552C362.015 179.143 361.001 175.734 359.993 172.322C359.074 172.358 358.616 172.378 357.697 172.414C357.683 175.895 357.674 179.376 357.66 182.857C353.852 183.087 350.048 183.33 346.243 183.583C346.276 172.161 346.309 160.742 346.342 149.32H369.213V149.316ZM357.749 157.747C357.739 160.256 357.736 161.514 357.726 164.023C359.541 163.977 360.45 163.954 362.269 163.908C362.279 161.418 362.282 160.171 362.292 157.681C360.474 157.707 359.568 157.721 357.749 157.747Z" fill="#FFD655"/>
<path d="M400.783 149.316C402.457 158.519 404.14 167.717 405.83 176.916C405.826 178.483 405.823 179.268 405.82 180.834C402.002 180.933 398.184 181.045 394.363 181.166C394.099 178.608 393.968 177.33 393.704 174.769C391.698 174.821 390.693 174.851 388.687 174.91C388.384 177.501 388.236 178.798 387.933 181.393C384.135 181.54 380.337 181.698 376.539 181.866C376.545 180.246 376.549 179.439 376.555 177.82C378.288 168.318 380.027 158.817 381.776 149.316C388.111 149.316 394.449 149.316 400.783 149.316ZM392.894 166.814C392.555 163.658 392.219 160.502 391.879 157.346C391.379 157.349 391.128 157.353 390.624 157.356C390.265 160.528 389.906 163.704 389.547 166.88C390.884 166.854 391.553 166.841 392.891 166.814H392.894Z" fill="#FFD655"/>
<path d="M433.138 149.316C433.138 150.863 433.138 151.634 433.138 153.181C432.426 154.764 432.07 155.556 431.359 157.139C427.613 157.145 423.871 157.155 420.126 157.168C420.116 162.36 420.109 167.549 420.1 172.742C424.441 172.692 428.783 172.663 433.124 172.643C433.124 175.753 433.124 177.31 433.121 180.42C426.49 180.456 419.859 180.535 413.231 180.666C410.511 180.719 408.63 179.146 408.636 176.853C408.656 168.975 408.676 161.099 408.696 153.221C408.702 150.928 410.586 149.312 413.301 149.312C419.915 149.312 426.53 149.312 433.144 149.312L433.138 149.316Z" fill="#FFD655"/>
<path d="M452.092 149.316C455.712 149.316 459.332 149.316 462.952 149.316C462.952 150.869 462.956 151.648 462.959 153.201C461.556 156.81 460.152 160.416 458.742 164.025C460.462 168.252 462.178 172.479 463.888 176.706C463.888 178.259 463.891 179.037 463.894 180.594C460.09 180.535 456.288 180.489 452.484 180.453C451.453 176.43 450.418 172.407 449.387 168.384C448.551 168.384 448.132 168.38 447.296 168.377C447.296 172.39 447.299 176.403 447.302 180.417C443.497 180.404 439.693 180.4 435.888 180.41C435.891 170.045 435.895 159.681 435.901 149.316H447.286C447.286 153.076 447.289 156.84 447.292 160.6C448.129 160.6 448.547 160.6 449.384 160.603C450.287 156.84 451.189 153.076 452.092 149.312V149.316Z" fill="#FFD655"/>
<path d="M466.19 159.786C466.184 157.156 466.184 155.839 466.177 153.208C466.174 150.926 468.048 149.316 470.766 149.316H490.609C490.616 150.89 490.616 151.674 490.623 153.244C489.918 154.886 489.565 155.704 488.86 157.34C485.115 157.31 481.373 157.28 477.627 157.254C477.627 157.832 477.627 158.121 477.631 158.696C480.951 160.643 484.268 162.597 487.576 164.568C490.089 166.066 490.669 167.497 490.679 170.056C490.688 172.962 490.692 174.414 490.702 177.32C490.708 179.649 488.834 181.225 486.166 181.14C479.521 180.923 472.877 180.752 466.233 180.634C466.227 177.501 466.223 175.938 466.217 172.805C470.558 172.864 474.9 172.939 479.238 173.028C479.238 172.197 479.235 171.78 479.232 170.949C475.921 169.002 472.607 167.064 469.284 165.139C466.77 163.635 466.194 162.292 466.187 159.786H466.19Z" fill="#FFD655"/>
<path d="M493.485 181.396C493.449 170.703 493.409 160.01 493.373 149.316C497.168 149.316 500.963 149.316 504.757 149.316C504.797 160.167 504.84 171.021 504.879 181.872C501.081 181.705 497.283 181.544 493.485 181.396Z" fill="#FFD655"/>
<path d="M508.071 182.023C508.032 171.12 507.989 160.22 507.949 149.316H530.767C533.429 149.316 535.317 151.08 535.323 153.579C535.35 162.167 535.373 170.759 535.399 179.347C535.406 181.846 533.534 183.481 530.876 183.307C523.277 182.828 515.677 182.401 508.071 182.023ZM519.423 174.292C521.261 174.371 522.18 174.411 524.015 174.493C523.995 168.913 523.975 163.336 523.955 157.757C522.117 157.73 521.198 157.717 519.36 157.691C519.38 163.225 519.4 168.759 519.419 174.292H519.423Z" fill="#FFD655"/>
<path d="M561.175 158.436C561.903 156.607 562.269 155.687 563 153.845C563 152.032 563 151.125 563 149.312C554.854 149.312 546.708 149.312 538.561 149.312C538.591 160.817 538.624 172.325 538.653 183.829C546.773 184.41 554.89 185.054 563 185.753C563 182.108 563 180.285 563 176.643C558.665 176.357 554.327 176.088 549.988 175.832C549.988 173.894 549.985 172.922 549.982 170.985C553.714 171.168 557.449 171.356 561.182 171.549C561.182 167.92 561.182 166.108 561.182 162.479C557.446 162.364 553.707 162.252 549.972 162.144C549.972 160.567 549.969 159.779 549.965 158.203C553.704 158.278 557.443 158.354 561.182 158.436H561.175Z" fill="#FFD655"/>
<path d="M370.438 200.457C370.455 195.738 370.474 191.018 370.491 186.299C375 186.046 379.513 185.816 384.026 185.609C383.98 198.375 383.934 211.14 383.888 223.906C379.368 224.326 374.852 224.799 370.343 225.321C370.362 220.287 370.379 215.249 370.399 210.214C368.215 210.418 367.121 210.523 364.94 210.74C364.921 215.82 364.904 220.898 364.884 225.978C360.378 226.543 355.878 227.154 351.385 227.82C351.428 214.385 351.471 200.95 351.514 187.514C356.017 187.192 360.523 186.893 365.026 186.618C365.009 191.38 364.99 196.138 364.973 200.9C367.157 200.716 368.248 200.628 370.432 200.457H370.438Z" fill="#FFD655"/>
<path d="M420.554 184.486C420.534 196.858 420.515 209.226 420.495 221.597C411.4 221.929 402.328 222.431 393.253 223.105C390.015 223.357 387.781 221.594 387.791 218.819C387.831 207.692 387.87 196.565 387.907 185.439C392.443 185.248 396.982 185.081 401.521 184.936C401.495 194.332 401.468 203.728 401.439 213.127C403.606 213.006 404.69 212.95 406.857 212.845C406.88 203.488 406.907 194.135 406.93 184.779C411.469 184.657 416.012 184.559 420.554 184.486Z" fill="#FFD655"/>
<path d="M446.396 201.441C445.793 197.267 445.187 193.096 444.584 188.922C444.584 187.086 444.584 186.167 444.584 184.331C448.775 184.344 452.965 184.38 457.155 184.433C457.171 196.784 457.188 209.136 457.204 221.488C452.375 221.373 447.552 221.297 442.723 221.268C440.582 215.589 438.441 209.911 436.3 204.229C435.875 204.229 435.664 204.233 435.239 204.236C435.819 208.384 436.399 212.535 436.982 216.683C436.982 218.519 436.982 219.438 436.982 221.274C432.798 221.3 428.618 221.366 424.435 221.478C424.451 209.126 424.468 196.778 424.484 184.426C429.297 184.37 434.109 184.337 438.922 184.324C441.04 190.029 443.158 195.73 445.276 201.435C445.724 201.435 445.948 201.438 446.4 201.441H446.396Z" fill="#FFD655"/>
<path d="M461.141 221.61C461.121 209.238 461.101 196.864 461.078 184.492C470.14 184.656 479.199 184.903 488.254 185.234C491.423 185.356 493.67 187.415 493.676 190.193C493.709 199.744 493.742 209.294 493.775 218.848C493.785 221.626 491.551 223.386 488.376 223.137C479.301 222.457 470.229 221.951 461.134 221.613L461.141 221.61ZM474.715 212.861C476.909 212.969 478.006 213.025 480.197 213.15C480.177 206.9 480.161 200.653 480.144 194.404C477.953 194.315 476.86 194.276 474.669 194.2C474.686 200.42 474.702 206.64 474.719 212.861H474.715Z" fill="#FFD655"/>
<path d="M497.675 223.934C497.629 211.162 497.583 198.393 497.537 185.621C507.221 186.081 516.903 186.636 526.577 187.289C526.584 189.283 526.587 190.278 526.594 192.271C525.734 194.242 525.303 195.224 524.443 197.178C520.002 196.797 515.555 196.449 511.112 196.13C511.118 197.871 511.122 198.741 511.128 200.482C515.575 200.83 520.019 201.211 524.459 201.625C524.469 204.952 524.482 208.278 524.492 211.605C520.052 211.113 515.611 210.656 511.161 210.242C511.168 212.384 511.174 213.454 511.181 215.595C516.353 216.137 521.514 216.719 526.676 217.343C526.686 220.683 526.699 224.023 526.709 227.359C517.051 226.016 507.38 224.873 497.672 223.931L497.675 223.934Z" fill="#FFD655"/>
<path d="M561.854 225.193C560.615 221.873 559.996 220.224 558.754 216.953C559.446 216.874 560.081 216.589 560.618 216.162C561.649 215.341 562.321 213.994 562.321 212.654C562.321 206.992 562.321 201.331 562.321 195.669C562.321 192.516 560.101 190.073 556.955 189.777C547.93 188.943 538.901 188.194 529.862 187.527C529.904 200.966 529.947 214.405 529.99 227.844C534.506 228.513 539.013 229.233 543.512 230.001C543.502 225.699 543.492 221.4 543.483 217.098C544.57 217.252 545.11 217.334 546.197 217.492C547.429 222.031 548.644 226.576 549.853 231.121C554.244 231.922 558.629 232.77 563 233.666C563 231.512 563 230.435 563 228.284C562.542 227.042 562.312 226.425 561.854 225.19V225.193ZM548.829 207.413C546.681 207.137 545.607 207.002 543.456 206.743C543.45 203.643 543.446 202.093 543.44 198.992C545.591 199.219 546.665 199.334 548.816 199.574C548.822 202.71 548.822 204.276 548.829 207.413Z" fill="#FFD655"/>
<path d="M563 241.819C563 240.397 563 239.688 563 238.266C489.351 222.64 413.742 221.228 339.556 234.069C338.324 237.254 337.102 240.447 335.893 243.642C410.767 226.962 487.816 227.126 563 241.823V241.819Z" fill="#FFD655"/>
<path d="M318.224 190.408V201.298C321.452 200.891 323.066 200.697 326.301 200.316C326.294 207.019 326.288 213.722 326.278 220.425C329.081 216.822 331.924 213.256 334.806 209.715C333.077 214.146 331.374 218.589 329.68 223.033C328.531 226.057 327.391 229.089 326.265 232.12C328.119 231.765 329.045 231.591 330.903 231.253C330.903 231.644 330.903 231.837 330.903 232.228C330.896 236.379 330.889 240.531 330.883 244.685C332.685 239.877 334.503 235.079 336.341 230.284C337.715 226.717 338.4 224.947 339.774 221.437C337.754 221.742 336.743 221.896 334.727 222.215C336.4 217.873 338.094 213.541 339.806 209.216C339.816 205.751 339.823 202.287 339.833 198.822C342.429 198.556 343.726 198.425 346.322 198.175C347.195 196.021 347.63 194.95 348.503 192.815C348.509 190.799 348.513 189.791 348.519 187.777C338.413 188.546 328.317 189.423 318.23 190.405L318.224 190.408Z" fill="#FFD655"/>
</g>
<defs>
<clipPath id="clip0_3211_19073">
<rect width="426" height="148" fill="white" transform="translate(137 123)"/>
</clipPath>
</defs>
</svg>
