<svg width="700" height="394" viewBox="0 0 700 394" fill="none" xmlns="http://www.w3.org/2000/svg">
<g clip-path="url(#clip0_3211_19732)">
<rect width="700" height="394" fill="#3F2E42"/>
<rect width="350.222" height="197" fill="#FFD655"/>
<path d="M191.576 76.6895C190.496 88.0316 189.447 99.0279 188.428 109.695C183.006 111.328 178.133 110.924 173.69 110.055C171.024 109.529 168.501 108.839 166.103 108.312H166.101L165.931 110.842V110.877C167.152 111.157 168.409 111.48 169.701 111.803C167.387 115.371 164.316 120.113 162.217 123.346C162.152 123.444 162.091 123.539 162.03 123.633L162.059 123.272L162.743 114.391L160.528 113.837L160.861 107.551C158.869 107.467 157.059 107.731 155.286 108.509C155.647 100.97 156.014 93.268 156.389 85.3925C165.562 78.698 176.79 85.2854 191.576 76.6895Z" fill="white"/>
<path d="M192.828 72.3485C192.336 72.6696 191.849 72.9754 191.366 73.2658C176.029 82.4485 164.142 75.6012 154.961 84.5603C154.537 93.8366 154.124 102.876 153.723 111.69C155.42 110.618 157.207 110.144 159.087 110.048L158.737 115.672L160.88 116.265L160.421 122.426L160.081 126.996L159.798 130.795L161.799 127.808L164.22 124.192L172.128 112.383C177.766 113.672 184.084 114.47 191.215 111.441C192.514 98.4002 193.909 84.3424 195.278 70.6133C194.452 71.2401 193.634 71.8173 192.828 72.3485ZM188.428 109.695C183.006 111.327 178.133 110.923 173.69 110.054C171.024 109.528 168.501 108.838 166.103 108.311H166.101L165.931 110.841V110.876C167.152 111.157 168.409 111.48 169.701 111.803C167.387 115.37 164.316 120.112 162.217 123.345C162.153 123.443 162.091 123.538 162.03 123.632L162.059 123.271L162.743 114.39L160.528 113.836L160.861 107.55C158.869 107.466 157.059 107.73 155.286 108.508C155.647 100.969 156.014 93.2671 156.389 85.3916C165.562 78.6971 176.79 85.2845 191.576 76.6886C190.496 88.0307 189.447 99.027 188.428 109.695Z" fill="#3F2E42"/>
<path d="M156.733 117.102L158.858 117.689L158.24 125.985C148.857 120.414 142.556 110.179 142.556 98.4982C142.556 80.8839 156.885 66.5547 174.5 66.5547C180.564 66.5547 186.24 68.2536 191.077 71.2005C190.846 71.3476 190.614 71.4891 190.383 71.6267C183.171 75.9457 176.921 76.5209 170.875 77.077C164.639 77.6503 158.751 78.1931 153.625 83.1944L153.086 83.7199C152.593 94.5136 152.119 104.868 151.647 115.262C153.027 114.377 155.551 112.741 157.042 112.122L156.733 117.102Z" fill="#3F2E42"/>
<path d="M206.444 98.499C206.444 116.111 192.115 130.443 174.5 130.443C170.68 130.443 167.012 129.768 163.614 128.531L172.988 114.535C179.992 116.069 186.601 115.75 193.003 112.759C194.2 100.762 195.455 88.1047 196.705 75.5566C202.708 81.3663 206.444 89.5036 206.444 98.499Z" fill="#3F2E42"/>
<path d="M189.833 79.3867C189.516 82.7617 189.206 86.1041 188.897 89.4198C185.938 90.6773 183.286 91.7055 180.48 91.9673C180.723 89.0261 181.092 85.2805 181.344 82.2227C184.082 81.6418 186.88 80.8028 189.833 79.3867Z" fill="#3F2E42"/>
<path d="M187.966 99.1836L187.102 108.456C184.482 109.198 181.642 109.461 179.06 109.337C179.283 106.572 179.515 103.787 179.744 100.976C182.488 100.953 185.078 100.17 187.966 99.1836Z" fill="#3F2E42"/>
<path d="M180.48 91.9681C180.231 94.9972 179.987 97.9994 179.742 100.979C177.346 101.069 174.938 100.793 172.784 100.36C172.984 97.5752 173.185 94.7678 173.39 91.9395C175.582 92.1974 178.036 92.2682 180.48 91.9681Z" fill="#3F2E42"/>
<path d="M174.078 83.0801C173.869 85.9333 173.59 89.1573 173.39 91.9398C171.244 91.7162 169.199 91.4219 167.226 91.2174H167.224C167.391 88.5992 167.557 85.9639 167.725 83.3018C169.772 83.2005 171.844 83.189 174.078 83.0801Z" fill="#3F2E42"/>
<path d="M172.784 100.36C172.591 103.062 172.396 105.741 172.205 108.401C170.099 107.968 168.123 107.471 166.187 107.075C166.355 104.482 166.559 101.726 166.724 99.1328H166.726C168.667 99.4997 170.674 99.9584 172.784 100.36Z" fill="#3F2E42"/>
<path d="M167.226 91.2143C167.058 93.8726 166.89 96.5117 166.726 99.1299H166.724C164.901 98.763 163.03 98.5681 161.323 98.6904C161.461 96.2193 161.598 93.7369 161.738 91.2334C163.471 90.962 165.371 90.9983 167.225 91.2143H167.226Z" fill="#3F2E42"/>
<path d="M162.141 83.9961C162.005 86.427 161.87 88.8407 161.738 91.2371C159.922 91.4569 158.368 92.2347 156.778 93.1042L157.119 86.125C158.602 85.1351 160.373 84.407 162.141 83.9961Z" fill="#3F2E42"/>
<path d="M161.323 98.6895C161.187 101.203 161.031 103.893 160.893 106.364C159.196 106.343 157.613 106.475 156.09 106.995C156.201 104.719 156.314 102.428 156.425 100.121C157.994 99.3908 159.532 98.7544 161.323 98.6895Z" fill="#3F2E42"/>
<path d="M131.481 73.6997L128.865 71.8651L133.973 64.582L135.267 65.4879L136.225 66.9365L135.13 68.4978L142.917 73.9596L140.634 77.2142L132.846 71.7524L131.479 73.6997H131.481Z" fill="#3F2E42"/>
<path d="M142.724 56.3854C143.427 55.7834 144.349 55.856 144.951 56.5593L148.196 60.3528C148.586 60.8076 148.677 61.6141 148.328 62.1262L151.309 63.6857L152.335 64.8858L149.383 67.4103L145.996 65.0999L145.388 65.6197L147.961 68.6277L144.939 71.2115L136.677 61.5548L142.72 56.3854H142.724ZM141.782 61.3981L143.328 63.206L144.528 62.1798L142.982 60.3719L141.782 61.3981Z" fill="#3F2E42"/>
<path d="M155.114 49.4277L161.459 58.7423L162.132 60.1718L158.533 61.8631L157.231 59.6462L155.655 60.3877L156.513 62.8129L152.931 64.4965L152.259 63.067L149.134 52.2389L155.114 49.4277ZM155.615 56.8943L153.681 53.6321L153.287 53.8175L154.565 57.3892L155.617 56.8943H155.615Z" fill="#3F2E42"/>
<path d="M169.076 45.9434L169.369 47.4951L169.059 49.1979L165.224 49.9184L166.393 56.1466L170.837 55.3114L171.423 58.4341L164.643 59.7069C163.716 59.8808 162.951 59.3591 162.781 58.4494L161.019 49.0641C160.849 48.1545 161.371 47.3919 162.298 47.2161L169.078 45.9434H169.076Z" fill="#3F2E42"/>
<path d="M178.827 46.0329L182.596 46.2795L182.492 47.8561L180.738 52.1636L182.179 57.4076L182.076 58.9842L178.125 58.7263L177.376 53.746L176.652 53.6982L176.331 58.6078L172.381 58.3498L173.208 45.666L177.158 45.924L176.858 50.5259L177.583 50.5736L178.825 46.0329H178.827Z" fill="#3F2E42"/>
<path d="M185.466 51.1834L186.292 48.6455C186.578 47.7645 187.402 47.3459 188.3 47.6364L194.861 49.7692L194.378 51.2541L193.286 52.6167L189.573 51.4108L189.393 51.9631L191.962 55.2214C192.612 56.0432 192.627 56.6395 192.312 57.6065L191.419 60.3527C191.132 61.2337 190.309 61.6522 189.43 61.3674L182.852 59.229L183.834 56.2076L188.134 57.6046L188.392 56.8095L185.818 53.5684C185.174 52.7294 185.153 52.1504 185.466 51.1834Z" fill="#3F2E42"/>
<path d="M192.065 62.5791L198.184 51.4395L201.653 53.3448L195.534 64.4844L192.065 62.5791Z" fill="#3F2E42"/>
<path d="M196.829 65.0353L205.08 55.3691L211.115 60.5195C211.818 61.1215 211.893 62.0426 211.291 62.7459L205.091 70.0098C204.489 70.715 203.568 70.7876 202.865 70.1856L196.829 65.0353ZM201.903 65.1863L203.119 66.224L207.231 61.4043L206.016 60.3666L201.903 65.1863Z" fill="#3F2E42"/>
<path d="M204.762 72.1061L215.14 64.7695L220.044 71.7067L218.754 72.6183L217.068 73.033L214.815 69.8453L213.659 70.6633L215.912 73.8509L213.318 75.6855L211.065 72.4979L209.641 73.5031L212.262 77.2087L209.668 79.0433L204.764 72.1061H204.762Z" fill="#3F2E42"/>
<path d="M207.623 109.288C208.734 105.891 209.334 102.263 209.334 98.4986C209.334 94.7338 208.734 91.1066 207.623 87.7087L212.544 84.4102C214.176 88.7999 215.067 93.547 215.067 98.4986C215.067 103.45 214.176 108.197 212.544 112.587L207.623 109.288ZM214.987 114.225C216.89 109.346 217.934 104.043 217.934 98.4986C217.934 92.9546 216.89 87.6513 214.987 82.7724L219.852 79.5121C222.31 85.3561 223.667 91.7716 223.667 98.4986C223.667 105.226 222.31 111.641 219.852 117.485L214.987 114.225ZM222.276 119.109C225.014 112.786 226.533 105.816 226.533 98.4986C226.533 91.1811 225.014 84.2114 222.276 77.8877L227.111 74.6484C230.421 81.922 232.267 89.9981 232.267 98.4986C232.267 106.999 230.421 115.075 227.111 122.349L222.276 119.109Z" fill="#CB4848"/>
<path d="M121.889 122.349C118.579 115.075 116.733 106.999 116.733 98.4986C116.733 89.9981 118.579 81.922 121.889 74.6484L126.724 77.8877C123.986 84.2114 122.467 91.1811 122.467 98.4986C122.467 105.816 123.986 112.786 126.724 119.109L121.889 122.349ZM129.148 117.485C126.69 111.641 125.333 105.226 125.333 98.4986C125.333 91.7716 126.69 85.3561 129.148 79.5121L134.013 82.7724C132.11 87.6513 131.067 92.9546 131.067 98.4986C131.067 104.043 132.11 109.346 134.013 114.225L129.148 117.485ZM136.456 112.587C134.826 108.197 133.933 103.45 133.933 98.4986C133.933 93.547 134.826 88.7999 136.456 84.4102L141.377 87.7087C140.267 91.1066 139.666 94.7338 139.666 98.4986C139.666 102.263 140.267 105.891 141.377 109.288L136.456 112.587Z" fill="#CB4848"/>
<path d="M138.008 121.935L140.508 119.943L146.052 126.9L144.817 127.884L143.158 128.394L141.97 126.903L134.53 132.832L132.053 129.722L139.493 123.794L138.01 121.935H138.008Z" fill="#3F2E42"/>
<path d="M149.738 135.55L152.364 131.759L155.619 134.012L148.383 144.459L145.13 142.206L147.932 138.163L146.619 137.253L143.817 141.297L140.565 139.044L147.8 128.596L151.055 130.849L148.429 134.64L149.742 135.55H149.738Z" fill="#3F2E42"/>
<path d="M167.083 138.014L163.29 150.143L155.718 147.775C154.818 147.494 154.388 146.675 154.665 145.792L157.986 135.17L161.782 136.357L158.936 145.453L160.444 145.925L163.29 136.829L167.085 138.015L167.083 138.014Z" fill="#3F2E42"/>
<path d="M176.084 144.314L175.568 140.01L175.572 138.431L179.24 138.439L179.209 151.15L174.997 151.14L173.141 145.271H172.834L173.332 149.556L173.329 151.136L169.678 151.127L169.709 138.418L173.921 138.428L175.76 144.316H176.086L176.084 144.314Z" fill="#3F2E42"/>
<path d="M185.621 150.187L181.846 138.052L189.422 135.696C190.305 135.421 191.125 135.851 191.398 136.735L194.234 145.853C194.509 146.738 194.079 147.556 193.195 147.831L185.619 150.187H185.621ZM188.457 145.977L189.982 145.503L188.1 139.453L186.574 139.927L188.457 145.977Z" fill="#3F2E42"/>
<path d="M200.302 144.525L193.366 133.876L200.485 129.24L201.347 130.565L201.697 132.265L198.425 134.396L199.197 135.583L202.467 133.452L204.201 136.114L200.931 138.245L201.882 139.705L205.685 137.228L207.419 139.891L200.3 144.527L200.302 144.525Z" fill="#3F2E42"/>
<path d="M207.365 121.444C207.956 120.731 208.875 120.644 209.59 121.232L213.439 124.412C213.901 124.794 214.129 125.572 213.874 126.138L217.079 127.162L218.297 128.169L215.822 131.164L212.089 129.469L211.581 130.084L214.631 132.605L212.099 135.67L202.303 127.575L207.369 121.444H207.365ZM207.296 126.545L209.129 128.06L210.136 126.843L208.304 125.328L207.298 126.545H207.296Z" fill="#3F2E42"/>
<path d="M219.403 53.5985C207.409 41.6047 191.461 35 174.5 35C157.539 35 141.591 41.6047 129.597 53.5985C117.605 65.5943 111 81.5402 111 98.499C111 115.458 117.605 131.406 129.597 143.401C141.591 155.395 157.539 162 174.5 162C191.461 162 207.409 155.395 219.403 143.401C231.395 131.406 238 115.46 238 98.499C238 81.5383 231.395 65.5943 219.403 53.5985ZM217.375 141.374C205.922 152.827 190.695 159.133 174.5 159.133C158.305 159.133 143.078 152.827 131.625 141.374C120.173 129.921 113.867 114.695 113.867 98.499C113.867 82.3027 120.173 67.0792 131.625 55.6262C143.076 44.175 158.303 37.8666 174.5 37.8666C190.697 37.8666 205.924 44.175 217.375 55.6262C228.827 67.0792 235.133 82.3047 235.133 98.499C235.133 114.693 228.827 129.921 217.375 141.374Z" fill="#3F2E42"/>
<rect x="350.222" width="350.222" height="197" fill="#CB4848"/>
<path d="M518.226 91.3054C518.058 93.9637 517.89 96.6028 517.726 99.221C519.667 99.5879 521.674 100.047 523.784 100.448C523.985 97.6635 524.185 94.8561 524.39 92.0277C522.244 91.8042 520.199 91.5098 518.226 91.3054ZM518.226 91.3054C518.058 93.9637 517.89 96.6028 517.726 99.221C519.667 99.5879 521.674 100.047 523.784 100.448C523.985 97.6635 524.185 94.8561 524.39 92.0277C522.244 91.8042 520.199 91.5098 518.226 91.3054ZM518.226 91.3054C518.058 93.9637 517.89 96.6028 517.726 99.221C519.667 99.5879 521.674 100.047 523.784 100.448C523.985 97.6635 524.185 94.8561 524.39 92.0277C522.244 91.8042 520.199 91.5098 518.226 91.3054ZM507.389 85.4843C507.014 93.3598 506.647 101.061 506.286 108.601C508.059 107.823 509.869 107.559 511.861 107.643L511.528 113.929L513.743 114.483L513.059 123.364L513.03 123.725C513.091 123.631 513.152 123.536 513.217 123.438C515.316 120.205 518.387 115.463 520.701 111.895C519.409 111.572 518.152 111.249 516.929 110.968V110.934L517.101 108.404H517.103C519.501 108.931 522.024 109.621 524.69 110.147C529.133 111.016 534.006 111.419 539.428 109.787C540.447 99.1197 541.496 88.1234 542.576 76.7812C527.79 85.3772 516.562 78.7898 507.389 85.4843ZM538.102 108.545C535.482 109.287 532.642 109.55 530.06 109.426C530.284 106.661 530.515 103.876 530.744 101.065C533.488 101.042 536.078 100.259 538.966 99.2726L538.102 108.545ZM531.48 92.0564C531.231 95.0855 530.987 98.0877 530.742 101.067C528.346 101.157 525.938 100.882 523.784 100.448C523.591 103.15 523.396 105.829 523.205 108.49C521.099 108.056 519.123 107.559 517.187 107.163C517.355 104.57 517.559 101.814 517.724 99.221C515.901 98.8541 514.03 98.6592 512.323 98.7815C512.187 101.293 512.031 103.983 511.893 106.454C510.196 106.433 508.614 106.565 507.09 107.085C507.201 104.809 507.314 102.518 507.425 100.211C508.994 99.4809 510.532 98.8445 512.323 98.7795C512.461 96.3104 512.598 93.828 512.738 91.3245C510.922 91.5443 509.368 92.3221 507.778 93.1916L508.119 86.2124C509.602 85.2224 511.373 84.4943 513.141 84.0834C513.005 86.5143 512.87 88.928 512.738 91.3245C514.471 91.0531 516.371 91.0894 518.225 91.3054C518.391 88.6872 518.557 86.0518 518.725 83.3897C520.772 83.2884 522.844 83.277 525.078 83.168C524.869 86.0213 524.59 89.2452 524.39 92.0277C526.582 92.2857 529.036 92.3565 531.48 92.0564C531.723 89.1153 532.091 85.3696 532.344 82.3119C535.082 81.7309 537.88 80.892 540.833 79.4759C540.516 82.8508 540.206 86.1933 539.896 89.509C536.938 90.7664 534.285 91.7946 531.48 92.0564ZM518.226 91.3054C518.058 93.9637 517.89 96.6028 517.726 99.221C519.667 99.5879 521.674 100.047 523.784 100.448C523.985 97.6635 524.185 94.8561 524.39 92.0277C522.244 91.8042 520.199 91.5098 518.226 91.3054ZM518.226 91.3054C518.058 93.9637 517.89 96.6028 517.726 99.221C519.667 99.5879 521.674 100.047 523.784 100.448C523.985 97.6635 524.185 94.8561 524.39 92.0277C522.244 91.8042 520.199 91.5098 518.226 91.3054ZM518.226 91.3054C518.058 93.9637 517.89 96.6028 517.726 99.221C519.667 99.5879 521.674 100.047 523.784 100.448C523.985 97.6635 524.185 94.8561 524.39 92.0277C522.244 91.8042 520.199 91.5098 518.226 91.3054Z" fill="white"/>
<path d="M513.059 123.363L513.03 123.724C513.091 123.631 513.152 123.535 513.217 123.438C513.164 123.413 513.112 123.388 513.059 123.363Z" fill="white"/>
<path d="M486.13 68.5896L487.225 67.0283L486.265 65.5816L484.973 64.6738L479.865 71.9569L482.481 73.7915L483.846 71.8442L491.635 77.306L493.917 74.0514L486.13 68.5896Z" fill="white"/>
<path d="M500.386 67.503L503.339 64.9765L502.311 63.7764L499.329 62.2189C499.679 61.7048 499.587 60.9002 499.198 60.4435L495.953 56.65C495.351 55.9467 494.429 55.876 493.726 56.478L487.683 61.6455L495.945 71.3022L498.964 68.7184L496.392 65.7104L497 65.1925L500.386 67.503ZM494.328 63.2967L492.782 61.4888L493.982 60.4626L495.528 62.2705L494.328 63.2967Z" fill="white"/>
<path d="M512.459 58.8321L506.114 49.5156L500.134 52.3268L503.257 63.1568L503.929 64.5863L507.511 62.9027L506.653 60.4775L508.229 59.736L509.533 61.9529L513.131 60.2616L512.459 58.8321ZM505.563 57.479L504.287 53.9073L504.681 53.7219L506.615 56.9841L505.563 57.479Z" fill="white"/>
<path d="M521.836 55.4032L517.393 56.2364L516.223 50.0102L520.059 49.2897L520.369 47.5869L520.076 46.0352L513.296 47.3079C512.369 47.4818 511.847 48.2463 512.017 49.1559L513.779 58.5412C513.951 59.4509 514.714 59.9726 515.642 59.7987L522.423 58.5259L521.836 55.4032Z" fill="white"/>
<path d="M533.595 46.3694L529.827 46.1228L528.583 50.6654L527.858 50.6177L528.158 46.0158L524.208 45.7578L523.383 58.4397L527.333 58.6977L527.652 53.7881L528.376 53.8359L529.125 58.8142L533.076 59.0722L533.179 57.4956L531.738 52.2535L533.492 47.946L533.595 46.3694Z" fill="white"/>
<path d="M539.298 47.7282C538.4 47.4377 537.578 47.8563 537.291 48.7373L536.466 51.2752C536.152 52.2422 536.173 52.8231 536.817 53.6621L539.39 56.9033L539.132 57.6983L534.834 56.2994L533.851 59.3208L540.429 61.4592C541.31 61.7459 542.134 61.3255 542.419 60.4464L543.311 57.7002C543.627 56.7332 543.61 56.1369 542.962 55.3152L540.393 52.0549L540.573 51.5026L544.286 52.7104L545.377 51.3459L545.861 49.861L539.298 47.7282Z" fill="white"/>
<path d="M549.184 51.5293L543.065 62.667L546.534 64.5723L552.653 53.4346L549.184 51.5293Z" fill="white"/>
<path d="M562.115 60.6093L556.079 55.459L547.829 65.1252L553.864 70.2755C554.568 70.8775 555.489 70.8049 556.091 70.0997L562.29 62.8357C562.891 62.1324 562.818 61.2113 562.115 60.6093ZM554.119 66.3158L552.903 65.278L557.016 60.4583L558.231 61.496L554.119 66.3158Z" fill="white"/>
<path d="M566.139 64.8613L555.762 72.196L560.666 79.1332L563.261 77.3005L560.641 73.5949L562.063 72.5878L564.316 75.7754L566.912 73.9408L564.658 70.7551L565.815 69.9371L568.068 73.1229L569.753 72.7101L571.043 71.7985L566.139 64.8613Z" fill="white"/>
<path d="M563.544 84.5L558.623 87.7985C559.733 91.1964 560.333 94.8236 560.333 98.5884C560.333 102.353 559.733 105.98 558.623 109.378L563.544 112.677C565.176 108.287 566.067 103.54 566.067 98.5884C566.067 93.6368 565.176 88.8897 563.544 84.5ZM570.852 79.6019L565.987 82.8622C567.89 87.7412 568.933 93.0444 568.933 98.5884C568.933 104.132 567.89 109.436 565.987 114.315L570.852 117.575C573.31 111.731 574.667 105.315 574.667 98.5884C574.667 91.8614 573.31 85.446 570.852 79.6019ZM578.11 74.7383L573.275 77.9775C576.014 84.3013 577.533 91.2709 577.533 98.5884C577.533 105.906 576.014 112.876 573.275 119.199L578.11 122.439C581.421 115.165 583.267 107.089 583.267 98.5884C583.267 90.088 581.421 82.0118 578.11 74.7383Z" fill="white"/>
<path d="M477.724 77.9775L472.889 74.7383C469.579 82.0118 467.733 90.088 467.733 98.5884C467.733 107.089 469.579 115.165 472.889 122.439L477.724 119.199C474.986 112.876 473.467 105.906 473.467 98.5884C473.467 91.2709 474.986 84.3013 477.724 77.9775ZM485.013 82.8622L480.148 79.6019C477.69 85.446 476.333 91.8614 476.333 98.5884C476.333 105.315 477.69 111.731 480.148 117.575L485.013 114.315C483.11 109.436 482.067 104.132 482.067 98.5884C482.067 93.0444 483.11 87.7412 485.013 82.8622ZM492.377 87.7985L487.456 84.5C485.826 88.8897 484.933 93.6368 484.933 98.5884C484.933 103.54 485.826 108.287 487.456 112.677L492.377 109.378C491.267 105.98 490.666 102.353 490.666 98.5884C490.666 94.8236 491.267 91.1964 492.377 87.7985Z" fill="white"/>
<path d="M491.507 120.031L489.008 122.023L490.491 123.882L483.051 129.81L485.527 132.919L492.967 126.991L494.156 128.482L495.815 127.974L497.049 126.989L491.507 120.031Z" fill="white"/>
<path d="M503.364 131.85L500.74 135.64L499.425 134.73L502.051 130.941L498.798 128.688L491.561 139.133L494.815 141.387L497.617 137.343L498.93 138.252L496.128 142.296L499.383 144.551L506.618 134.103L503.364 131.85Z" fill="white"/>
<path d="M514.288 136.917L511.442 146.011L509.936 145.541L512.782 136.445L508.986 135.258L505.665 145.878C505.388 146.762 505.816 147.58 506.718 147.863L514.29 150.231L518.083 138.103L514.288 136.917Z" fill="white"/>
<path d="M526.572 138.523L526.568 140.102L527.084 144.407H526.758L524.921 138.519L520.707 138.508L520.676 151.218L524.327 151.228L524.33 149.647L523.832 145.361H524.141L525.997 151.232L530.209 151.241L530.24 138.531L526.572 138.523Z" fill="white"/>
<path d="M545.236 145.943L542.4 136.825C542.125 135.942 541.307 135.512 540.422 135.788L532.846 138.144L536.621 150.277L544.196 147.921C545.081 147.646 545.511 146.828 545.236 145.943ZM539.457 146.069L537.574 140.019L539.099 139.545L540.982 145.593L539.457 146.069Z" fill="white"/>
<path d="M556.685 137.318L552.882 139.795L551.932 138.335L555.202 136.206L553.469 133.544L550.197 135.673L549.425 134.486L552.695 132.357L552.347 130.656L551.483 129.332L544.365 133.97L551.302 144.619L558.421 139.981L556.685 137.318Z" fill="white"/>
<path d="M566.82 131.254L569.295 128.26L568.077 127.253L564.872 126.228C565.129 125.663 564.899 124.885 564.439 124.505L560.59 121.323C559.875 120.734 558.956 120.82 558.365 121.535L553.299 127.664L563.095 135.761L565.629 132.695L562.577 130.175L563.087 129.557L566.82 131.254ZM560.129 128.151L558.296 126.635L559.302 125.418L561.134 126.932L560.129 128.151Z" fill="white"/>
<path d="M570.403 53.5985C558.409 41.6047 542.463 35 525.5 35C508.537 35 492.593 41.6047 480.597 53.5985C468.605 65.5924 462 81.5383 462 98.499C462 115.46 468.605 131.406 480.599 143.4C492.593 155.393 508.539 162 525.5 162C542.461 162 558.409 155.393 570.403 143.4C582.395 131.406 589 115.46 589 98.499C589 81.5383 582.395 65.5924 570.403 53.5985ZM568.375 141.374C556.922 152.827 541.695 159.133 525.5 159.133C509.305 159.133 494.078 152.827 482.625 141.374C471.173 129.921 464.867 114.695 464.867 98.499C464.867 82.3027 471.173 67.0792 482.625 55.6262C494.076 44.175 509.303 37.8666 525.5 37.8666C541.697 37.8666 556.924 44.175 568.375 55.6262C579.827 67.0792 586.133 82.3047 586.133 98.499C586.133 114.693 579.827 129.921 568.375 141.374Z" fill="white"/>
<path d="M510.087 109.95C508.206 110.045 506.42 110.519 504.723 111.591C505.124 102.777 505.537 93.7381 505.961 84.4618C514.859 75.7779 526.299 81.943 540.959 73.97C541.27 73.7999 541.586 73.6241 541.901 73.4406C542.507 73.089 543.09 72.7316 543.688 72.3399C543.525 72.2271 543.361 72.1163 543.197 72.0054C540.143 69.9721 536.785 68.4681 533.192 67.5775C532.837 67.4896 532.477 67.4074 532.116 67.3329C529.943 66.8723 527.721 66.6468 525.5 66.6449C509.575 66.4461 495.396 79.0802 493.764 94.921C493.627 96.1231 493.556 97.3481 493.556 98.5884C493.445 109.696 499.696 120.508 509.225 126.068C509.827 126.427 510.442 126.761 511.067 127.08C511.132 126.209 511.215 125.124 511.301 123.954C511.499 121.29 511.729 118.186 511.88 116.166L509.737 115.574L510.087 109.95ZM509.858 117.59L509.466 122.832C501.611 117.621 496.423 108.7 496.423 98.5884C496.423 82.5545 509.468 69.5115 525.5 69.5115C530.369 69.5115 534.964 70.7136 539 72.8387C532.777 75.9747 527.245 76.4831 521.875 76.978C515.641 77.5514 509.751 78.0941 504.627 83.0935L504.086 83.6209L504.052 84.3739C503.627 93.6521 503.215 102.69 502.813 111.505L502.647 115.163C504.029 114.278 506.551 112.639 508.044 112.023L507.734 117.003L509.858 117.59Z" fill="white"/>
<path d="M557.44 98.1264C557.373 88.8635 552.947 79.826 545.926 74.0508C545.809 75.2261 545.691 76.3995 545.574 77.5729C544.429 89.0737 543.296 100.492 542.214 111.345C535.084 114.374 528.766 113.575 523.128 112.287C521.626 114.531 517.028 121.397 514.326 125.434C513.63 126.469 513.061 127.32 512.701 127.857C516.726 129.627 521.101 130.536 525.5 130.534C526.499 130.534 527.487 130.488 528.464 130.397C528.789 130.366 529.112 130.332 529.435 130.292C545.203 128.564 557.891 114.183 557.44 98.1264ZM523.988 114.437C530.996 115.968 537.597 115.653 544.003 112.662L544.116 111.534C545.136 101.289 546.186 90.7344 547.267 79.8547L547.313 79.3846C551.833 84.5101 554.577 91.2351 554.577 98.5908C554.577 114.623 541.534 127.666 525.5 127.666C522.234 127.666 519.092 127.125 516.158 126.125L523.988 114.437Z" fill="white"/>
<rect x="350.222" y="197" width="350.222" height="197" fill="#FAFAFA"/>
<path d="M542.576 273.689C541.496 285.032 540.447 296.028 539.428 306.695C534.006 308.328 529.133 307.924 524.69 307.055C522.024 306.529 519.501 305.839 517.103 305.312H517.101L516.931 307.842V307.877C518.152 308.157 519.409 308.48 520.701 308.803C518.387 312.371 515.316 317.113 513.217 320.346C513.152 320.444 513.091 320.539 513.03 320.633L513.059 320.272L513.743 311.391L511.528 310.837L511.861 304.551C509.869 304.467 508.059 304.731 506.286 305.509C506.647 297.97 507.014 290.268 507.389 282.392C516.562 275.698 527.79 282.285 542.576 273.689Z" fill="white"/>
<path d="M543.828 269.349C543.336 269.67 542.849 269.975 542.366 270.266C527.029 279.449 515.142 272.601 505.961 281.56C505.537 290.837 505.124 299.876 504.723 308.69C506.42 307.618 508.207 307.144 510.087 307.048L509.737 312.672L511.88 313.265L511.421 319.426L511.081 323.996L510.798 327.795L512.799 324.808L515.22 321.192L523.128 309.383C528.766 310.672 535.084 311.47 542.215 308.441C543.514 295.4 544.909 281.342 546.278 267.613C545.452 268.24 544.634 268.817 543.828 269.349ZM539.428 306.695C534.006 308.327 529.133 307.923 524.69 307.054C522.024 306.528 519.501 305.838 517.103 305.311H517.101L516.931 307.841V307.876C518.152 308.157 519.409 308.48 520.701 308.803C518.387 312.37 515.316 317.112 513.217 320.345C513.153 320.443 513.091 320.538 513.03 320.632L513.059 320.271L513.743 311.39L511.528 310.836L511.861 304.55C509.869 304.466 508.059 304.73 506.286 305.508C506.647 297.969 507.014 290.267 507.389 282.392C516.562 275.697 527.79 282.285 542.576 273.689C541.496 285.031 540.447 296.027 539.428 306.695Z" fill="black"/>
<path d="M507.733 314.102L509.858 314.689L509.24 322.985C499.857 317.414 493.556 307.179 493.556 295.498C493.556 277.884 507.885 263.555 525.5 263.555C531.564 263.555 537.24 265.254 542.077 268.2C541.846 268.348 541.614 268.489 541.383 268.627C534.171 272.946 527.921 273.521 521.875 274.077C515.639 274.65 509.751 275.193 504.625 280.194L504.086 280.72C503.593 291.514 503.119 301.868 502.647 312.262C504.027 311.377 506.551 309.741 508.042 309.122L507.733 314.102Z" fill="black"/>
<path d="M557.444 295.499C557.444 313.111 543.115 327.443 525.5 327.443C521.68 327.443 518.012 326.768 514.614 325.531L523.988 311.535C530.992 313.069 537.601 312.75 544.003 309.759C545.2 297.762 546.455 285.105 547.705 272.557C553.708 278.366 557.444 286.504 557.444 295.499Z" fill="black"/>
<path d="M540.833 276.387C540.516 279.762 540.206 283.104 539.897 286.42C536.938 287.677 534.286 288.705 531.48 288.967C531.723 286.026 532.092 282.28 532.344 279.223C535.082 278.642 537.88 277.803 540.833 276.387Z" fill="black"/>
<path d="M538.966 296.184L538.102 305.456C535.482 306.198 532.642 306.461 530.06 306.337C530.283 303.572 530.515 300.787 530.744 297.976C533.488 297.953 536.078 297.17 538.966 296.184Z" fill="black"/>
<path d="M531.48 288.968C531.231 291.997 530.987 294.999 530.742 297.979C528.346 298.069 525.938 297.793 523.784 297.36C523.984 294.575 524.185 291.768 524.39 288.939C526.582 289.197 529.036 289.268 531.48 288.968Z" fill="black"/>
<path d="M525.078 280.08C524.869 282.933 524.59 286.157 524.39 288.94C522.244 288.716 520.199 288.422 518.226 288.217H518.224C518.391 285.599 518.557 282.964 518.725 280.302C520.772 280.2 522.844 280.189 525.078 280.08Z" fill="black"/>
<path d="M523.784 297.36C523.591 300.062 523.396 302.741 523.205 305.401C521.099 304.968 519.123 304.471 517.187 304.075C517.355 301.482 517.559 298.726 517.724 296.133H517.726C519.667 296.5 521.674 296.958 523.784 297.36Z" fill="black"/>
<path d="M518.226 288.214C518.058 290.873 517.89 293.512 517.726 296.13H517.724C515.901 295.763 514.03 295.568 512.323 295.69C512.461 293.219 512.598 290.737 512.738 288.233C514.471 287.962 516.371 287.998 518.225 288.214H518.226Z" fill="black"/>
<path d="M513.141 280.996C513.005 283.427 512.87 285.841 512.738 288.237C510.922 288.457 509.368 289.235 507.778 290.104L508.119 283.125C509.602 282.135 511.373 281.407 513.141 280.996Z" fill="black"/>
<path d="M512.323 295.689C512.187 298.203 512.031 300.893 511.893 303.364C510.196 303.343 508.613 303.475 507.09 303.995C507.201 301.719 507.314 299.428 507.425 297.121C508.994 296.391 510.532 295.754 512.323 295.689Z" fill="black"/>
<path d="M482.481 270.7L479.865 268.865L484.973 261.582L486.267 262.488L487.225 263.936L486.13 265.498L493.917 270.96L491.634 274.214L483.846 268.752L482.479 270.7H482.481Z" fill="black"/>
<path d="M493.724 253.385C494.427 252.783 495.349 252.856 495.951 253.559L499.196 257.353C499.586 257.808 499.677 258.614 499.328 259.126L502.309 260.686L503.335 261.886L500.383 264.41L496.996 262.1L496.388 262.62L498.961 265.628L495.939 268.211L487.677 258.555L493.72 253.385H493.724ZM492.782 258.398L494.328 260.206L495.528 259.18L493.982 257.372L492.782 258.398Z" fill="black"/>
<path d="M506.114 246.428L512.459 255.742L513.132 257.172L509.533 258.863L508.231 256.646L506.655 257.388L507.513 259.813L503.931 261.497L503.259 260.067L500.134 249.239L506.114 246.428ZM506.615 253.894L504.681 250.632L504.287 250.817L505.565 254.389L506.617 253.894H506.615Z" fill="black"/>
<path d="M520.076 242.943L520.369 244.495L520.059 246.198L516.224 246.918L517.393 253.147L521.837 252.311L522.423 255.434L515.643 256.707C514.716 256.881 513.951 256.359 513.781 255.449L512.019 246.064C511.849 245.154 512.371 244.392 513.298 244.216L520.078 242.943H520.076Z" fill="black"/>
<path d="M529.827 243.033L533.596 243.279L533.492 244.856L531.738 249.164L533.179 254.408L533.076 255.984L529.125 255.726L528.376 250.746L527.652 250.698L527.331 255.608L523.381 255.35L524.208 242.666L528.158 242.924L527.858 247.526L528.583 247.574L529.825 243.033H529.827Z" fill="black"/>
<path d="M536.466 248.183L537.292 245.645C537.578 244.764 538.402 244.346 539.3 244.636L545.861 246.769L545.378 248.254L544.286 249.617L540.573 248.411L540.393 248.963L542.962 252.221C543.612 253.043 543.627 253.639 543.312 254.606L542.419 257.353C542.132 258.234 541.309 258.652 540.43 258.367L533.852 256.229L534.834 253.208L539.134 254.605L539.392 253.81L536.818 250.568C536.174 249.729 536.153 249.15 536.466 248.183Z" fill="black"/>
<path d="M543.065 259.579L549.184 248.439L552.653 250.345L546.534 261.484L543.065 259.579Z" fill="black"/>
<path d="M547.829 262.035L556.08 252.369L562.115 257.519C562.818 258.121 562.893 259.043 562.291 259.746L556.091 267.01C555.489 267.715 554.568 267.788 553.865 267.186L547.829 262.035ZM552.903 262.186L554.119 263.224L558.231 258.404L557.016 257.367L552.903 262.186Z" fill="black"/>
<path d="M555.762 269.106L566.14 261.77L571.044 268.707L569.754 269.618L568.068 270.033L565.815 266.845L564.659 267.663L566.912 270.851L564.318 272.686L562.065 269.498L560.641 270.503L563.262 274.209L560.668 276.043L555.764 269.106H555.762Z" fill="black"/>
<path d="M558.623 306.288C559.734 302.891 560.334 299.263 560.334 295.499C560.334 291.734 559.734 288.107 558.623 284.709L563.544 281.41C565.176 285.8 566.067 290.547 566.067 295.499C566.067 300.45 565.176 305.197 563.544 309.587L558.623 306.288ZM565.987 311.225C567.89 306.346 568.934 301.043 568.934 295.499C568.934 289.955 567.89 284.651 565.987 279.772L570.852 276.512C573.31 282.356 574.667 288.772 574.667 295.499C574.667 302.226 573.31 308.641 570.852 314.485L565.987 311.225ZM573.276 316.109C576.014 309.786 577.533 302.816 577.533 295.499C577.533 288.181 576.014 281.211 573.276 274.888L578.111 271.648C581.421 278.922 583.267 286.998 583.267 295.499C583.267 303.999 581.421 312.075 578.111 319.349L573.276 316.109Z" fill="black"/>
<path d="M472.889 319.349C469.579 312.075 467.733 303.999 467.733 295.499C467.733 286.998 469.579 278.922 472.889 271.648L477.724 274.888C474.986 281.211 473.467 288.181 473.467 295.499C473.467 302.816 474.986 309.786 477.724 316.109L472.889 319.349ZM480.148 314.485C477.69 308.641 476.333 302.226 476.333 295.499C476.333 288.772 477.69 282.356 480.148 276.512L485.013 279.772C483.11 284.651 482.067 289.955 482.067 295.499C482.067 301.043 483.11 306.346 485.013 311.225L480.148 314.485ZM487.456 309.587C485.826 305.197 484.933 300.45 484.933 295.499C484.933 290.547 485.826 285.8 487.456 281.41L492.377 284.709C491.267 288.107 490.666 291.734 490.666 295.499C490.666 299.263 491.267 302.891 492.377 306.288L487.456 309.587Z" fill="black"/>
<path d="M489.008 318.935L491.508 316.943L497.052 323.9L495.817 324.884L494.158 325.394L492.97 323.903L485.53 329.832L483.053 326.722L490.493 320.794L489.01 318.935H489.008Z" fill="black"/>
<path d="M500.738 332.55L503.364 328.759L506.619 331.012L499.383 341.459L496.13 339.206L498.932 335.163L497.619 334.253L494.817 338.297L491.565 336.044L498.8 325.596L502.055 327.849L499.429 331.64L500.742 332.55H500.738Z" fill="black"/>
<path d="M518.083 335.014L514.29 347.143L506.718 344.775C505.818 344.494 505.388 343.675 505.665 342.792L508.986 332.17L512.782 333.357L509.936 342.453L511.444 342.925L514.29 333.829L518.085 335.015L518.083 335.014Z" fill="black"/>
<path d="M527.084 341.314L526.568 337.01L526.572 335.431L530.24 335.439L530.209 348.15L525.997 348.14L524.141 342.271H523.834L524.332 346.556L524.329 348.136L520.678 348.127L520.709 335.418L524.921 335.428L526.76 341.316H527.086L527.084 341.314Z" fill="black"/>
<path d="M536.621 347.187L532.846 335.052L540.422 332.696C541.305 332.421 542.125 332.851 542.398 333.735L545.234 342.853C545.509 343.738 545.079 344.556 544.195 344.831L536.619 347.187H536.621ZM539.457 342.977L540.982 342.503L539.1 336.453L537.574 336.927L539.457 342.977Z" fill="black"/>
<path d="M551.302 341.525L544.366 330.876L551.485 326.24L552.347 327.565L552.697 329.265L549.425 331.396L550.197 332.583L553.467 330.452L555.201 333.114L551.931 335.245L552.882 336.705L556.685 334.228L558.419 336.891L551.3 341.527L551.302 341.525Z" fill="black"/>
<path d="M558.365 318.444C558.956 317.731 559.875 317.644 560.59 318.232L564.439 321.412C564.901 321.794 565.129 322.572 564.874 323.138L568.079 324.162L569.297 325.169L566.822 328.164L563.089 326.469L562.581 327.084L565.631 329.605L563.099 332.67L553.303 324.575L558.369 318.444H558.365ZM558.296 323.545L560.129 325.06L561.136 323.843L559.304 322.328L558.298 323.545H558.296Z" fill="black"/>
<path d="M570.403 250.599C558.409 238.605 542.461 232 525.5 232C508.539 232 492.591 238.605 480.597 250.599C468.605 262.594 462 278.54 462 295.499C462 312.458 468.605 328.406 480.597 340.401C492.591 352.395 508.539 359 525.5 359C542.461 359 558.409 352.395 570.403 340.401C582.395 328.406 589 312.46 589 295.499C589 278.538 582.395 262.594 570.403 250.599ZM568.375 338.374C556.922 349.827 541.695 356.133 525.5 356.133C509.305 356.133 494.078 349.827 482.625 338.374C471.173 326.921 464.867 311.695 464.867 295.499C464.867 279.303 471.173 264.079 482.625 252.626C494.076 241.175 509.303 234.867 525.5 234.867C541.697 234.867 556.924 241.175 568.375 252.626C579.827 264.079 586.133 279.305 586.133 295.499C586.133 311.693 579.827 326.921 568.375 338.374Z" fill="black"/>
<rect y="197" width="350.222" height="197" fill="black"/>
<path d="M168.226 288.305C168.058 290.964 167.89 293.603 167.726 296.221C169.667 296.588 171.674 297.047 173.784 297.448C173.985 294.663 174.185 291.856 174.39 289.028C172.244 288.804 170.199 288.51 168.226 288.305ZM168.226 288.305C168.058 290.964 167.89 293.603 167.726 296.221C169.667 296.588 171.674 297.047 173.784 297.448C173.985 294.663 174.185 291.856 174.39 289.028C172.244 288.804 170.199 288.51 168.226 288.305ZM168.226 288.305C168.058 290.964 167.89 293.603 167.726 296.221C169.667 296.588 171.674 297.047 173.784 297.448C173.985 294.663 174.185 291.856 174.39 289.028C172.244 288.804 170.199 288.51 168.226 288.305ZM157.389 282.484C157.014 290.36 156.647 298.061 156.286 305.601C158.059 304.823 159.869 304.559 161.861 304.643L161.528 310.929L163.743 311.483L163.059 320.364L163.03 320.725C163.091 320.631 163.152 320.536 163.217 320.438C165.316 317.205 168.387 312.463 170.701 308.895C169.409 308.572 168.152 308.249 166.929 307.968V307.934L167.101 305.404H167.103C169.501 305.931 172.024 306.621 174.69 307.147C179.133 308.016 184.006 308.419 189.428 306.787C190.447 296.12 191.496 285.123 192.576 273.781C177.79 282.377 166.562 275.79 157.389 282.484ZM188.102 305.545C185.482 306.287 182.642 306.55 180.06 306.426C180.284 303.661 180.515 300.876 180.744 298.065C183.488 298.042 186.078 297.259 188.966 296.273L188.102 305.545ZM181.48 289.056C181.231 292.085 180.987 295.088 180.742 298.067C178.346 298.157 175.938 297.882 173.784 297.448C173.591 300.15 173.396 302.829 173.205 305.49C171.099 305.056 169.123 304.559 167.187 304.163C167.355 301.57 167.559 298.814 167.724 296.221C165.901 295.854 164.03 295.659 162.323 295.781C162.187 298.293 162.031 300.983 161.893 303.454C160.196 303.433 158.614 303.565 157.09 304.085C157.201 301.809 157.314 299.518 157.425 297.211C158.994 296.481 160.532 295.845 162.323 295.78C162.461 293.31 162.598 290.828 162.738 288.324C160.922 288.544 159.368 289.322 157.778 290.192L158.119 283.212C159.602 282.222 161.373 281.494 163.141 281.083C163.005 283.514 162.87 285.928 162.738 288.324C164.471 288.053 166.371 288.089 168.225 288.305C168.391 285.687 168.557 283.052 168.725 280.39C170.772 280.288 172.844 280.277 175.078 280.168C174.869 283.021 174.59 286.245 174.39 289.028C176.582 289.286 179.036 289.356 181.48 289.056C181.723 286.115 182.091 282.37 182.344 279.312C185.082 278.731 187.88 277.892 190.833 276.476C190.516 279.851 190.206 283.193 189.896 286.509C186.938 287.766 184.285 288.795 181.48 289.056ZM168.226 288.305C168.058 290.964 167.89 293.603 167.726 296.221C169.667 296.588 171.674 297.047 173.784 297.448C173.985 294.663 174.185 291.856 174.39 289.028C172.244 288.804 170.199 288.51 168.226 288.305ZM168.226 288.305C168.058 290.964 167.89 293.603 167.726 296.221C169.667 296.588 171.674 297.047 173.784 297.448C173.985 294.663 174.185 291.856 174.39 289.028C172.244 288.804 170.199 288.51 168.226 288.305ZM168.226 288.305C168.058 290.964 167.89 293.603 167.726 296.221C169.667 296.588 171.674 297.047 173.784 297.448C173.985 294.663 174.185 291.856 174.39 289.028C172.244 288.804 170.199 288.51 168.226 288.305Z" fill="white"/>
<path d="M163.059 320.363L163.03 320.724C163.091 320.631 163.152 320.535 163.217 320.438C163.164 320.413 163.112 320.388 163.059 320.363Z" fill="white"/>
<path d="M136.13 265.59L137.225 264.028L136.265 262.582L134.973 261.674L129.865 268.957L132.481 270.792L133.846 268.844L141.635 274.306L143.917 271.051L136.13 265.59Z" fill="white"/>
<path d="M150.386 264.503L153.339 261.977L152.311 260.776L149.329 259.219C149.679 258.705 149.587 257.9 149.198 257.443L145.953 253.65C145.351 252.947 144.429 252.876 143.726 253.478L137.683 258.646L145.945 268.302L148.964 265.718L146.392 262.71L147 262.192L150.386 264.503ZM144.328 260.297L142.782 258.489L143.982 257.463L145.528 259.27L144.328 260.297Z" fill="white"/>
<path d="M162.459 255.832L156.114 246.516L150.134 249.327L153.257 260.157L153.929 261.586L157.511 259.903L156.653 257.478L158.229 256.736L159.533 258.953L163.131 257.262L162.459 255.832ZM155.563 254.479L154.287 250.907L154.681 250.722L156.615 253.984L155.563 254.479Z" fill="white"/>
<path d="M171.836 252.403L167.393 253.236L166.223 247.01L170.059 246.29L170.369 244.587L170.076 243.035L163.296 244.308C162.369 244.482 161.847 245.246 162.017 246.156L163.779 255.541C163.951 256.451 164.714 256.973 165.642 256.799L172.423 255.526L171.836 252.403Z" fill="white"/>
<path d="M183.595 243.369L179.827 243.123L178.583 247.665L177.858 247.618L178.158 243.016L174.208 242.758L173.383 255.44L177.333 255.698L177.652 250.788L178.376 250.836L179.125 255.814L183.076 256.072L183.179 254.496L181.738 249.254L183.492 244.946L183.595 243.369Z" fill="white"/>
<path d="M189.298 244.728C188.4 244.438 187.578 244.856 187.291 245.737L186.466 248.275C186.152 249.242 186.173 249.823 186.817 250.662L189.39 253.903L189.132 254.698L184.834 253.299L183.851 256.321L190.429 258.459C191.31 258.746 192.134 258.325 192.419 257.446L193.311 254.7C193.627 253.733 193.61 253.137 192.962 252.315L190.393 249.055L190.573 248.503L194.286 249.71L195.377 248.346L195.861 246.861L189.298 244.728Z" fill="white"/>
<path d="M199.184 248.529L193.065 259.667L196.534 261.572L202.653 250.435L199.184 248.529Z" fill="white"/>
<path d="M212.115 257.609L206.079 252.459L197.829 262.125L203.864 267.275C204.568 267.877 205.489 267.805 206.091 267.1L212.29 259.836C212.891 259.132 212.818 258.211 212.115 257.609ZM204.119 263.316L202.903 262.278L207.016 257.458L208.231 258.496L204.119 263.316Z" fill="white"/>
<path d="M216.139 261.861L205.762 269.196L210.666 276.133L213.261 274.3L210.641 270.595L212.063 269.588L214.316 272.775L216.912 270.941L214.658 267.755L215.815 266.937L218.068 270.123L219.753 269.71L221.043 268.799L216.139 261.861Z" fill="white"/>
<path d="M213.544 281.5L208.623 284.799C209.733 288.196 210.333 291.824 210.333 295.588C210.333 299.353 209.733 302.98 208.623 306.378L213.544 309.677C215.176 305.287 216.067 300.54 216.067 295.588C216.067 290.637 215.176 285.89 213.544 281.5ZM220.852 276.602L215.987 279.862C217.89 284.741 218.933 290.044 218.933 295.588C218.933 301.132 217.89 306.436 215.987 311.315L220.852 314.575C223.31 308.731 224.667 302.315 224.667 295.588C224.667 288.861 223.31 282.446 220.852 276.602ZM228.11 271.738L223.275 274.978C226.014 281.301 227.533 288.271 227.533 295.588C227.533 302.906 226.014 309.876 223.275 316.199L228.11 319.439C231.421 312.165 233.267 304.089 233.267 295.588C233.267 287.088 231.421 279.012 228.11 271.738Z" fill="white"/>
<path d="M127.724 274.978L122.889 271.738C119.579 279.012 117.733 287.088 117.733 295.588C117.733 304.089 119.579 312.165 122.889 319.439L127.724 316.199C124.986 309.876 123.467 302.906 123.467 295.588C123.467 288.271 124.986 281.301 127.724 274.978ZM135.013 279.862L130.148 276.602C127.69 282.446 126.333 288.861 126.333 295.588C126.333 302.315 127.69 308.731 130.148 314.575L135.013 311.315C133.11 306.436 132.067 301.132 132.067 295.588C132.067 290.044 133.11 284.741 135.013 279.862ZM142.377 284.799L137.456 281.5C135.826 285.89 134.933 290.637 134.933 295.588C134.933 300.54 135.826 305.287 137.456 309.677L142.377 306.378C141.267 302.98 140.666 299.353 140.666 295.588C140.666 291.824 141.267 288.196 142.377 284.799Z" fill="white"/>
<path d="M141.507 317.031L139.008 319.023L140.491 320.882L133.051 326.81L135.527 329.919L142.967 323.991L144.156 325.482L145.815 324.974L147.049 323.989L141.507 317.031Z" fill="white"/>
<path d="M153.364 328.85L150.74 332.64L149.425 331.73L152.051 327.941L148.798 325.688L141.561 336.133L144.815 338.387L147.617 334.343L148.93 335.252L146.128 339.296L149.383 341.551L156.618 331.103L153.364 328.85Z" fill="white"/>
<path d="M164.288 333.917L161.442 343.011L159.936 342.541L162.782 333.445L158.986 332.258L155.665 342.878C155.388 343.762 155.816 344.58 156.718 344.863L164.29 347.231L168.083 335.103L164.288 333.917Z" fill="white"/>
<path d="M176.572 335.523L176.568 337.102L177.084 341.407H176.758L174.921 335.519L170.707 335.508L170.676 348.218L174.327 348.228L174.33 346.647L173.832 342.361H174.141L175.997 348.232L180.209 348.241L180.24 335.531L176.572 335.523Z" fill="white"/>
<path d="M195.236 342.943L192.4 333.825C192.125 332.942 191.307 332.512 190.422 332.788L182.846 335.144L186.621 347.277L194.196 344.921C195.081 344.646 195.511 343.828 195.236 342.943ZM189.457 343.069L187.574 337.019L189.099 336.545L190.982 342.593L189.457 343.069Z" fill="white"/>
<path d="M206.685 334.318L202.882 336.795L201.932 335.335L205.202 333.206L203.469 330.544L200.197 332.673L199.425 331.486L202.695 329.357L202.347 327.656L201.483 326.332L194.365 330.97L201.302 341.619L208.421 336.981L206.685 334.318Z" fill="white"/>
<path d="M216.82 328.254L219.295 325.26L218.077 324.253L214.872 323.228C215.129 322.663 214.899 321.885 214.439 321.505L210.59 318.323C209.875 317.734 208.956 317.82 208.365 318.535L203.299 324.664L213.095 332.761L215.629 329.695L212.577 327.175L213.087 326.557L216.82 328.254ZM210.129 325.151L208.296 323.635L209.302 322.418L211.134 323.932L210.129 325.151Z" fill="white"/>
<path d="M220.403 250.599C208.409 238.605 192.463 232 175.5 232C158.537 232 142.593 238.605 130.597 250.599C118.605 262.592 112 278.538 112 295.499C112 312.46 118.605 328.406 130.599 340.4C142.593 352.393 158.539 359 175.5 359C192.461 359 208.409 352.393 220.403 340.4C232.395 328.406 239 312.46 239 295.499C239 278.538 232.395 262.592 220.403 250.599ZM218.375 338.374C206.922 349.827 191.695 356.133 175.5 356.133C159.305 356.133 144.078 349.827 132.625 338.374C121.173 326.921 114.867 311.695 114.867 295.499C114.867 279.303 121.173 264.079 132.625 252.626C144.076 241.175 159.303 234.867 175.5 234.867C191.697 234.867 206.924 241.175 218.375 252.626C229.827 264.079 236.133 279.305 236.133 295.499C236.133 311.693 229.827 326.921 218.375 338.374Z" fill="white"/>
<path d="M160.087 306.95C158.206 307.045 156.42 307.519 154.723 308.591C155.124 299.777 155.537 290.738 155.961 281.462C164.859 272.778 176.299 278.943 190.959 270.97C191.27 270.8 191.586 270.624 191.901 270.441C192.507 270.089 193.09 269.732 193.688 269.34C193.525 269.227 193.361 269.116 193.197 269.005C190.143 266.972 186.785 265.468 183.192 264.577C182.837 264.49 182.477 264.407 182.116 264.333C179.943 263.872 177.721 263.647 175.5 263.645C159.575 263.446 145.396 276.08 143.764 291.921C143.627 293.123 143.556 294.348 143.556 295.588C143.445 306.696 149.696 317.508 159.225 323.068C159.827 323.427 160.442 323.761 161.067 324.08C161.132 323.209 161.215 322.124 161.301 320.954C161.499 318.29 161.729 315.186 161.88 313.166L159.737 312.574L160.087 306.95ZM159.858 314.59L159.466 319.832C151.611 314.621 146.423 305.7 146.423 295.588C146.423 279.555 159.468 266.511 175.5 266.511C180.369 266.511 184.964 267.714 189 269.839C182.777 272.975 177.245 273.483 171.875 273.978C165.641 274.551 159.751 275.094 154.627 280.093L154.086 280.621L154.052 281.374C153.627 290.652 153.215 299.69 152.813 308.505L152.647 312.163C154.029 311.278 156.551 309.639 158.044 309.023L157.734 314.003L159.858 314.59Z" fill="white"/>
<path d="M207.44 295.126C207.373 285.863 202.947 276.826 195.926 271.051C195.809 272.226 195.691 273.399 195.574 274.573C194.429 286.074 193.296 297.492 192.214 308.345C185.084 311.374 178.766 310.575 173.128 309.287C171.626 311.531 167.028 318.397 164.326 322.434C163.63 323.469 163.061 324.32 162.701 324.857C166.726 326.627 171.101 327.536 175.5 327.534C176.499 327.534 177.487 327.488 178.464 327.397C178.789 327.366 179.112 327.332 179.435 327.292C195.203 325.564 207.891 311.183 207.44 295.126ZM173.988 311.437C180.996 312.968 187.597 312.653 194.003 309.662L194.116 308.534C195.136 298.289 196.186 287.734 197.267 276.855L197.313 276.385C201.833 281.51 204.577 288.235 204.577 295.591C204.577 311.623 191.534 324.666 175.5 324.666C172.234 324.666 169.092 324.125 166.158 323.125L173.988 311.437Z" fill="white"/>
</g>
<defs>
<clipPath id="clip0_3211_19732">
<rect width="700" height="394" fill="white"/>
</clipPath>
</defs>
</svg>
