<svg width="700" height="394" viewBox="0 0 700 394" fill="none" xmlns="http://www.w3.org/2000/svg">
<rect width="700" height="394" fill="#3F2E42"/>
<path d="M669 101L63 101" stroke="#FFD655"/>
<path d="M669 77H32" stroke="#FFD655" stroke-opacity="0.5" stroke-dasharray="5 5"/>
<path d="M669 293L63 293" stroke="#FFD655"/>
<path d="M669 317H32" stroke="#FFD655" stroke-opacity="0.5" stroke-dasharray="5 5"/>
<path d="M267 357L267 37" stroke="#FFD655"/>
<path d="M309 357L309 37" stroke="#FFD655"/>
<path d="M669 269H32" stroke="#FFD655" stroke-opacity="0.5" stroke-dasharray="5 5"/>
<path d="M669 221H32" stroke="#FFD655" stroke-opacity="0.5" stroke-dasharray="5 5"/>
<path d="M669 173H32" stroke="#FFD655" stroke-opacity="0.5" stroke-dasharray="5 5"/>
<path d="M669 125H32" stroke="#FFD655" stroke-opacity="0.5" stroke-dasharray="5 5"/>
<path d="M219.41 233.677C198.861 242.406 180.651 240.106 164.401 236.391L132.042 284.713C143.946 290.043 157.141 292.974 170.997 292.983C222.597 294.048 268.059 248.588 266.989 196.994C267.104 167.703 253.521 139.826 230.544 121.693L219.406 233.677H219.41ZM166.881 242.59C187.081 247.004 206.104 246.092 224.566 237.473C227.774 205.285 231.076 172.057 234.446 138.173C234.463 138.194 234.485 138.216 234.506 138.233C249.376 154.269 257.522 175.005 257.522 196.994C258.523 243.365 217.549 284.436 171.24 283.478C161.461 283.478 151.879 281.859 142.732 278.655L166.885 242.594L166.881 242.59Z" fill="white"/>
<path d="M125.808 245.87L126.818 229.659C121.398 229.936 116.247 231.299 111.356 234.392C112.511 208.991 113.704 182.938 114.927 156.203C141.083 130.674 174.865 149.668 218.337 124.539C221.306 122.848 224.076 121.058 227.016 119.013C210.804 107.314 191.384 101 170.997 101C118.062 101 75 144.057 75 196.989C75 235.01 97.215 267.906 129.328 283.469C130.112 272.558 131.253 257.344 131.982 247.579L125.808 245.87ZM111.079 152.258L109.52 153.779C108.097 184.889 106.733 214.726 105.374 244.686C109.354 242.134 116.627 237.413 120.93 235.636L120.039 249.99L126.158 251.682L124.798 269.929C100.151 254.417 84.4757 226.106 84.6845 196.917C84.5652 148.901 124.257 110.198 171.005 110.471C185.909 110.471 200.242 114.212 212.921 121.259C193.855 131.586 177.068 133.133 160.797 134.632C142.83 136.286 125.855 137.849 111.088 152.258H111.079Z" fill="white"/>
<path d="M148.833 198.19C154.427 199.247 160.213 200.567 166.293 201.726C166.872 193.699 167.448 185.609 168.04 177.458C161.853 176.815 155.961 175.967 150.277 175.375C149.791 183.035 149.306 190.645 148.833 198.19Z" fill="white"/>
<path d="M147.031 224.657H147.035C153.946 226.178 161.218 228.167 168.9 229.68C181.708 232.185 195.751 233.348 211.379 228.644C214.315 197.9 217.34 166.207 220.45 133.516C177.835 158.291 145.475 139.306 119.034 158.597C117.956 181.297 116.895 203.49 115.855 225.219C120.968 222.978 126.183 222.219 131.922 222.458L130.964 240.574L137.346 242.171L135.373 267.764L135.292 268.804C135.467 268.536 135.646 268.259 135.834 267.977C141.879 258.66 150.733 244.992 157.401 234.711C153.677 233.783 150.051 232.849 146.528 232.04V231.942L147.022 224.648L147.031 224.657ZM207.557 225.061C200.007 227.2 191.823 227.958 184.379 227.601C185.023 219.629 185.692 211.607 186.352 203.503C194.26 203.435 201.724 201.177 210.05 198.335L207.562 225.061H207.557ZM133.26 196.925C132.868 204.163 132.417 211.918 132.02 219.041C127.129 218.982 122.57 219.361 118.177 220.86C118.497 214.299 118.821 207.695 119.14 201.049C123.661 198.944 128.096 197.112 133.256 196.925C133.652 189.81 134.048 182.652 134.453 175.439C129.221 176.074 124.743 178.315 120.159 180.82L121.139 160.706C125.412 157.852 130.521 155.756 135.612 154.571C135.22 161.575 134.828 168.533 134.449 175.439C139.447 174.655 144.922 174.762 150.264 175.384C150.742 167.838 151.223 160.242 151.709 152.569C157.61 152.279 163.579 152.245 170.017 151.93C169.416 160.152 168.611 169.445 168.036 177.463C174.354 178.208 181.427 178.409 188.47 177.544C189.168 169.065 190.234 158.273 190.958 149.458C198.853 147.784 206.914 145.364 215.427 141.283C214.511 151.009 213.62 160.642 212.73 170.199C204.204 173.824 196.556 176.785 188.474 177.54C187.758 186.269 187.051 194.922 186.348 203.507C179.441 203.767 172.501 202.975 166.293 201.722C165.735 209.51 165.177 217.23 164.623 224.899C158.551 223.651 152.859 222.215 147.278 221.078C147.763 213.605 148.351 205.659 148.824 198.186C143.571 197.129 138.177 196.567 133.26 196.921V196.925Z" fill="white"/>
<path d="M309.4 147.026V135.139C320.43 135.139 331.461 135.139 342.492 135.139C342.488 137.358 342.484 138.47 342.475 140.69C341.525 142.969 341.048 144.116 340.098 146.412C337.264 146.463 335.845 146.489 333.012 146.54C332.987 157.856 332.965 169.176 332.94 180.492C328.027 180.867 323.115 181.254 318.202 181.659C318.211 170.049 318.223 158.444 318.232 146.834C314.696 146.906 312.927 146.945 309.395 147.026H309.4Z" fill="white" fill-opacity="0.5"/>
<path d="M375.35 135.139C378.793 135.139 381.217 137.32 381.209 140.409C381.187 145.96 381.166 151.512 381.145 157.068C381.136 159.066 379.44 161.354 377.208 161.976C379.057 166.104 379.982 168.158 381.831 172.243C381.822 174.348 381.818 175.401 381.809 177.509C376.991 177.744 372.176 177.995 367.357 178.255C366.041 173.833 364.728 169.41 363.425 164.984C362.236 165.03 361.644 165.056 360.455 165.103C360.438 169.619 360.425 174.135 360.408 178.651C355.483 178.95 350.562 179.265 345.641 179.593C345.683 164.775 345.726 149.961 345.769 135.143H375.35V135.139ZM360.523 146.075C360.51 149.33 360.506 150.962 360.493 154.217C362.841 154.158 364.017 154.128 366.369 154.068C366.382 150.839 366.386 149.22 366.399 145.99C364.047 146.024 362.875 146.041 360.523 146.075Z" fill="white" fill-opacity="0.5"/>
<path d="M416.184 135.139C418.349 147.077 420.526 159.01 422.712 170.944C422.707 172.976 422.703 173.995 422.699 176.027C417.761 176.155 412.823 176.299 407.88 176.457C407.539 173.138 407.369 171.481 407.028 168.158C404.433 168.226 403.134 168.264 400.539 168.341C400.147 171.702 399.956 173.385 399.564 176.751C394.651 176.943 389.738 177.147 384.826 177.365C384.834 175.264 384.839 174.216 384.847 172.116C387.088 159.79 389.338 147.464 391.6 135.139C399.794 135.139 407.991 135.139 416.184 135.139ZM405.98 157.839C405.541 153.744 405.107 149.65 404.668 145.556C404.02 145.56 403.696 145.564 403.044 145.568C402.58 149.684 402.116 153.804 401.651 157.924C403.381 157.89 404.246 157.873 405.976 157.839H405.98Z" fill="white" fill-opacity="0.5"/>
<path d="M458.032 135.139C458.032 137.146 458.032 138.147 458.032 140.154C457.112 142.207 456.652 143.234 455.732 145.288C450.887 145.296 446.047 145.309 441.203 145.326C441.19 152.062 441.182 158.793 441.169 165.529C446.784 165.465 452.4 165.427 458.015 165.401C458.015 169.436 458.015 171.456 458.011 175.49C449.434 175.537 440.858 175.639 432.285 175.81C428.766 175.878 426.333 173.837 426.342 170.863C426.367 160.642 426.393 150.426 426.418 140.205C426.427 137.231 428.864 135.135 432.375 135.135C440.93 135.135 449.486 135.135 458.041 135.135L458.032 135.139Z" fill="white" fill-opacity="0.5"/>
<path d="M482.548 135.139C487.231 135.139 491.913 135.139 496.596 135.139C496.596 137.154 496.6 138.164 496.604 140.179C494.789 144.862 492.974 149.54 491.15 154.222C493.374 159.705 495.594 165.188 497.806 170.672C497.806 172.687 497.81 173.697 497.814 175.716C492.893 175.639 487.976 175.58 483.055 175.533C481.722 170.314 480.384 165.095 479.05 159.876C477.968 159.876 477.427 159.871 476.345 159.867C476.345 165.073 476.349 170.28 476.353 175.486C471.432 175.469 466.511 175.465 461.59 175.478C461.594 162.031 461.599 148.585 461.607 135.139H476.332C476.332 140.017 476.336 144.9 476.34 149.778C477.423 149.778 477.964 149.778 479.046 149.782C480.213 144.9 481.381 140.017 482.548 135.135V135.139Z" fill="white" fill-opacity="0.5"/>
<path d="M500.784 148.721C500.775 145.309 500.775 143.6 500.767 140.187C500.762 137.226 503.187 135.139 506.702 135.139H532.368C532.376 137.179 532.376 138.198 532.385 140.234C531.473 142.365 531.017 143.425 530.106 145.547C525.261 145.509 520.421 145.47 515.577 145.436C515.577 146.186 515.577 146.561 515.581 147.307C519.876 149.833 524.166 152.368 528.444 154.924C531.695 156.867 532.445 158.725 532.457 162.044C532.47 165.814 532.474 167.698 532.487 171.468C532.496 174.489 530.071 176.534 526.62 176.423C518.027 176.142 509.433 175.92 500.839 175.767C500.831 171.702 500.826 169.674 500.818 165.61C506.433 165.687 512.049 165.785 517.66 165.9C517.66 164.822 517.656 164.281 517.652 163.203C513.37 160.676 509.084 158.162 504.785 155.666C501.534 153.715 500.788 151.972 500.78 148.721H500.784Z" fill="white" fill-opacity="0.5"/>
<path d="M536.087 176.755C536.041 162.883 535.989 149.011 535.943 135.139C540.851 135.139 545.759 135.139 550.667 135.139C550.719 149.215 550.774 163.296 550.825 177.373C545.913 177.156 541 176.947 536.087 176.755Z" fill="white" fill-opacity="0.5"/>
<path d="M554.954 177.569C554.903 163.424 554.847 149.284 554.796 135.139H584.31C587.752 135.139 590.193 137.427 590.202 140.669C590.236 151.81 590.266 162.956 590.3 174.097C590.309 177.339 587.888 179.461 584.45 179.235C574.621 178.613 564.792 178.059 554.954 177.569ZM569.636 167.54C572.013 167.642 573.202 167.693 575.575 167.8C575.55 160.561 575.524 153.327 575.499 146.088C573.121 146.054 571.932 146.037 569.555 146.003C569.58 153.182 569.606 160.361 569.632 167.54H569.636Z" fill="white" fill-opacity="0.5"/>
<path d="M623.64 146.97C624.581 144.597 625.054 143.404 626 141.014C626 138.662 626 137.487 626 135.135C615.463 135.135 604.927 135.135 594.39 135.135C594.429 150.059 594.471 164.988 594.51 179.913C605.012 180.667 615.51 181.502 626 182.409C626 177.68 626 175.316 626 170.591C620.393 170.22 614.782 169.871 609.17 169.538C609.17 167.025 609.166 165.764 609.162 163.25C613.989 163.488 618.821 163.731 623.648 163.983C623.648 159.275 623.648 156.923 623.648 152.215C618.817 152.066 613.981 151.921 609.149 151.781C609.149 149.736 609.145 148.713 609.141 146.668C613.976 146.766 618.812 146.864 623.648 146.97H623.64Z" fill="white" fill-opacity="0.5"/>
<path d="M376.935 201.484C376.957 195.362 376.982 189.24 377.003 183.117C382.836 182.789 388.673 182.491 394.51 182.223C394.451 198.783 394.391 215.344 394.331 231.904C388.486 232.45 382.644 233.063 376.812 233.741C376.837 227.209 376.859 220.674 376.884 214.142C374.059 214.407 372.645 214.543 369.824 214.824C369.799 221.415 369.777 228.002 369.752 234.593C363.923 235.326 358.103 236.118 352.292 236.983C352.347 219.553 352.402 202.124 352.458 184.694C358.282 184.276 364.111 183.889 369.935 183.531C369.914 189.708 369.888 195.882 369.867 202.06C372.692 201.821 374.102 201.706 376.927 201.484H376.935Z" fill="white" fill-opacity="0.5"/>
<path d="M441.757 180.766C441.731 196.815 441.706 212.86 441.68 228.909C429.916 229.34 418.183 229.992 406.444 230.865C402.256 231.193 399.368 228.905 399.38 225.305C399.431 210.87 399.483 196.436 399.529 182.001C405.396 181.754 411.267 181.537 417.139 181.349C417.105 193.539 417.071 205.728 417.032 217.922C419.836 217.764 421.237 217.691 424.041 217.555C424.071 205.417 424.105 193.283 424.135 181.145C430.006 180.987 435.881 180.859 441.757 180.766Z" fill="white" fill-opacity="0.5"/>
<path d="M475.182 202.762C474.402 197.347 473.618 191.936 472.838 186.521C472.838 184.14 472.838 182.947 472.838 180.565C478.258 180.582 483.677 180.629 489.097 180.697C489.118 196.721 489.139 212.745 489.161 228.769C482.915 228.619 476.677 228.521 470.431 228.483C467.661 221.117 464.892 213.75 462.123 206.38C461.573 206.38 461.3 206.384 460.751 206.388C461.501 211.769 462.25 217.154 463.005 222.535C463.005 224.917 463.005 226.11 463.005 228.492C457.594 228.526 452.187 228.611 446.776 228.756C446.797 212.732 446.818 196.713 446.84 180.689C453.064 180.616 459.289 180.574 465.514 180.557C468.254 187.957 470.993 195.353 473.733 202.754C474.312 202.754 474.602 202.758 475.186 202.762H475.182Z" fill="white"/>
<path d="M295.406 195.405C294.626 189.99 293.842 184.579 293.062 179.164C293.062 176.782 293.062 175.589 293.062 173.208C298.482 173.225 303.901 173.272 309.321 173.34C309.342 189.364 309.364 205.387 309.385 221.411C303.139 221.262 296.901 221.164 290.655 221.126C287.886 213.759 285.116 206.393 282.347 199.022C281.797 199.022 281.525 199.026 280.975 199.031C281.725 204.412 282.475 209.797 283.229 215.178C283.229 217.56 283.229 218.753 283.229 221.134C277.818 221.168 272.411 221.254 267 221.398C267.021 205.375 267.043 189.355 267.064 173.331C273.289 173.259 279.514 173.216 285.738 173.199C288.478 180.6 291.218 187.996 293.957 195.396C294.537 195.396 294.826 195.401 295.41 195.405H295.406Z" fill="#FFD655" fill-opacity="0.3"/>
<path d="M295.406 243.405C294.626 237.99 293.842 232.579 293.062 227.164C293.062 224.782 293.062 223.589 293.062 221.208C298.482 221.225 303.901 221.272 309.321 221.34C309.342 237.364 309.364 253.387 309.385 269.411C303.139 269.262 296.901 269.164 290.655 269.126C287.886 261.759 285.116 254.393 282.347 247.022C281.797 247.022 281.525 247.026 280.975 247.031C281.725 252.412 282.475 257.797 283.229 263.178C283.229 265.56 283.229 266.753 283.229 269.134C277.818 269.168 272.411 269.254 267 269.398C267.021 253.375 267.043 237.355 267.064 221.331C273.289 221.259 279.514 221.216 285.738 221.199C288.478 228.6 291.218 235.996 293.957 243.396C294.537 243.396 294.826 243.401 295.41 243.405H295.406Z" fill="#FFD655" fill-opacity="0.3"/>
<path d="M295.406 147.405C294.626 141.99 293.842 136.579 293.062 131.164C293.062 128.782 293.062 127.589 293.062 125.208C298.482 125.225 303.901 125.272 309.321 125.34C309.342 141.364 309.364 157.387 309.385 173.411C303.139 173.262 296.901 173.164 290.655 173.126C287.886 165.759 285.116 158.393 282.347 151.022C281.797 151.022 281.525 151.026 280.975 151.031C281.725 156.412 282.475 161.797 283.229 167.178C283.229 169.56 283.229 170.753 283.229 173.134C277.818 173.168 272.411 173.254 267 173.398C267.021 157.375 267.043 141.355 267.064 125.331C273.289 125.259 279.514 125.216 285.738 125.199C288.478 132.6 291.218 139.996 293.957 147.396C294.537 147.396 294.826 147.401 295.41 147.405H295.406Z" fill="#FFD655" fill-opacity="0.3"/>
<path d="M295.406 99.2058C294.626 93.7907 293.842 88.3798 293.062 82.9647C293.062 80.5831 293.062 79.3901 293.062 77.0085C298.482 77.0256 303.901 77.0724 309.321 77.1406C309.342 93.1644 309.364 109.188 309.385 125.212C303.139 125.063 296.901 124.965 290.655 124.927C287.886 117.56 285.116 110.194 282.347 102.823C281.797 102.823 281.525 102.827 280.975 102.831C281.725 108.213 282.475 113.598 283.229 118.979C283.229 121.36 283.229 122.553 283.229 124.935C277.818 124.969 272.411 125.054 267 125.199C267.021 109.175 267.043 93.1559 267.064 77.1321C273.289 77.0596 279.514 77.017 285.738 77C288.478 84.4005 291.218 91.7968 293.957 99.1973C294.537 99.1973 294.826 99.2015 295.41 99.2058H295.406Z" fill="#FFD655" fill-opacity="0.3"/>
<path d="M295.406 291.405C294.626 285.99 293.842 280.579 293.062 275.164C293.062 272.782 293.062 271.589 293.062 269.208C298.482 269.225 303.901 269.272 309.321 269.34C309.342 285.364 309.364 301.387 309.385 317.411C303.139 317.262 296.901 317.164 290.655 317.126C287.886 309.759 285.116 302.393 282.347 295.022C281.797 295.022 281.525 295.026 280.975 295.031C281.725 300.412 282.475 305.797 283.229 311.178C283.229 313.56 283.229 314.753 283.229 317.134C277.818 317.168 272.411 317.254 267 317.398C267.021 301.375 267.043 285.355 267.064 269.331C273.289 269.259 279.514 269.216 285.738 269.199C288.478 276.6 291.218 283.996 293.957 291.396C294.537 291.396 294.826 291.401 295.41 291.405H295.406Z" fill="#FFD655" fill-opacity="0.3"/>
<path d="M494.252 228.926C494.227 212.876 494.201 196.823 494.171 180.773C505.892 180.986 517.609 181.306 529.322 181.736C533.42 181.894 536.326 184.565 536.335 188.17C536.377 200.559 536.42 212.949 536.462 225.343C536.475 228.947 533.587 231.231 529.479 230.907C517.741 230.025 506.007 229.369 494.244 228.93L494.252 228.926ZM511.81 217.576C514.648 217.716 516.067 217.789 518.9 217.951C518.875 209.843 518.853 201.739 518.832 193.632C515.999 193.517 514.584 193.466 511.751 193.368C511.772 201.437 511.793 209.506 511.815 217.576H511.81Z" fill="white" fill-opacity="0.5"/>
<path d="M541.507 231.941C541.447 215.372 541.388 198.807 541.328 182.238C553.854 182.835 566.376 183.555 578.89 184.403C578.899 186.989 578.903 188.28 578.911 190.866C577.799 193.422 577.241 194.696 576.129 197.231C570.386 196.737 564.634 196.285 558.886 195.872C558.895 198.13 558.899 199.259 558.908 201.517C564.659 201.969 570.407 202.463 576.15 203C576.163 207.316 576.18 211.632 576.193 215.947C570.45 215.308 564.706 214.716 558.95 214.179C558.959 216.957 558.967 218.346 558.976 221.124C565.665 221.827 572.341 222.581 579.018 223.391C579.031 227.724 579.048 232.056 579.06 236.385C566.568 234.643 554.059 233.16 541.503 231.937L541.507 231.941Z" fill="white" fill-opacity="0.5"/>
<path d="M624.517 233.575C622.915 229.267 622.114 227.129 620.508 222.885C621.403 222.783 622.225 222.412 622.92 221.858C624.253 220.793 625.122 219.046 625.122 217.308C625.122 209.963 625.122 202.618 625.122 195.273C625.122 191.183 622.251 188.013 618.182 187.629C606.508 186.547 594.829 185.576 583.138 184.711C583.193 202.145 583.249 219.579 583.304 237.013C589.145 237.882 594.974 238.815 600.794 239.812C600.781 234.231 600.768 228.654 600.756 223.073C602.162 223.273 602.86 223.379 604.266 223.584C605.86 229.472 607.432 235.368 608.996 241.265C614.675 242.305 620.346 243.404 626 244.567C626 241.772 626 240.375 626 237.584C625.408 235.973 625.11 235.172 624.517 233.571V233.575ZM607.671 210.508C604.893 210.15 603.504 209.976 600.722 209.639C600.713 205.617 600.709 203.606 600.7 199.584C603.482 199.878 604.871 200.027 607.654 200.339C607.662 204.407 607.662 206.44 607.671 210.508Z" fill="white" fill-opacity="0.5"/>
<path d="M626 255.146C626 253.301 626 252.381 626 250.536C530.74 230.264 432.946 228.432 336.992 245.091C335.398 249.224 333.817 253.365 332.254 257.51C429.098 235.871 528.755 236.084 626 255.15V255.146Z" fill="white" fill-opacity="0.5"/>
<path d="M309.4 188.446V202.574C313.575 202.045 315.663 201.794 319.847 201.3C319.838 209.996 319.83 218.691 319.817 227.387C323.443 222.713 327.12 218.086 330.848 213.493C328.611 219.241 326.408 225.005 324.218 230.77C322.731 234.694 321.257 238.626 319.8 242.559C322.199 242.099 323.396 241.873 325.799 241.434C325.799 241.941 325.799 242.192 325.799 242.699C325.79 248.085 325.782 253.47 325.773 258.859C328.104 252.622 330.456 246.397 332.833 240.177C334.61 235.55 335.496 233.254 337.273 228.699C334.661 229.095 333.353 229.296 330.746 229.709C332.91 224.077 335.1 218.457 337.315 212.846C337.328 208.351 337.337 203.856 337.35 199.361C340.707 199.016 342.386 198.846 345.743 198.522C346.872 195.727 347.434 194.338 348.564 191.569C348.572 188.953 348.576 187.645 348.585 185.033C335.513 186.03 322.454 187.168 309.408 188.442L309.4 188.446Z" fill="white" fill-opacity="0.5"/>
<path d="M48.2351 299V297.864H50.8911V288.856H51.5951L48.4911 290.792V289.464L51.2591 287.72H52.2191V297.864H54.7151V299H48.2351Z" fill="white"/>
<path d="M47.5791 250V249.008L51.5791 244.832C52.1018 244.288 52.4911 243.771 52.7471 243.28C53.0138 242.779 53.1471 242.261 53.1471 241.728C53.1471 241.077 52.9445 240.587 52.5391 240.256C52.1338 239.915 51.5471 239.744 50.7791 239.744C50.1818 239.744 49.6271 239.851 49.1151 240.064C48.6138 240.267 48.1285 240.592 47.6591 241.04L47.1791 240C47.6058 239.573 48.1498 239.232 48.8111 238.976C49.4725 238.709 50.1711 238.576 50.9071 238.576C52.0485 238.576 52.9285 238.843 53.5471 239.376C54.1658 239.899 54.4751 240.645 54.4751 241.616C54.4751 242.331 54.2991 243.013 53.9471 243.664C53.6058 244.304 53.1045 244.965 52.4431 245.648L48.9071 249.232V248.864H54.9551V250H47.5791Z" fill="white"/>
<path d="M50.9391 202.144C50.1818 202.144 49.4565 202.027 48.7631 201.792C48.0698 201.557 47.4885 201.221 47.0191 200.784L47.5151 199.76C48.0378 200.187 48.5765 200.496 49.1311 200.688C49.6858 200.88 50.2831 200.976 50.9231 200.976C51.7658 200.976 52.4058 200.8 52.8431 200.448C53.2805 200.085 53.4991 199.557 53.4991 198.864C53.4991 198.203 53.2751 197.701 52.8271 197.36C52.3791 197.008 51.7231 196.832 50.8591 196.832H49.1631V195.728H50.7471C51.4938 195.728 52.0858 195.536 52.5231 195.152C52.9605 194.768 53.1791 194.245 53.1791 193.584C53.1791 192.987 52.9765 192.533 52.5711 192.224C52.1765 191.904 51.6058 191.744 50.8591 191.744C49.6431 191.744 48.5925 192.176 47.7071 193.04L47.2111 192C47.6485 191.552 48.1978 191.205 48.8591 190.96C49.5205 190.704 50.2138 190.576 50.9391 190.576C52.0485 190.576 52.9178 190.832 53.5471 191.344C54.1765 191.856 54.4911 192.565 54.4911 193.472C54.4911 194.165 54.2938 194.763 53.8991 195.264C53.5045 195.755 52.9711 196.091 52.2991 196.272V196.096C53.0991 196.224 53.7178 196.544 54.1551 197.056C54.5925 197.557 54.8111 198.192 54.8111 198.96C54.8111 199.941 54.4645 200.72 53.7711 201.296C53.0885 201.861 52.1445 202.144 50.9391 202.144Z" fill="white"/>
<path d="M52.3791 155V152.552H47.0031V151.592L52.5871 143.72H53.6751V151.48H55.4031V152.552H53.6751V155H52.3791ZM52.3791 151.48V145.288H52.7311L48.0911 151.816V151.48H52.3791Z" fill="white"/>
<path d="M51.2111 107.144C50.7205 107.144 50.2405 107.091 49.7711 106.984C49.3018 106.877 48.8591 106.723 48.4431 106.52C48.0378 106.317 47.6805 106.072 47.3711 105.784L47.8671 104.76C48.3898 105.176 48.9231 105.485 49.4671 105.688C50.0111 105.88 50.5925 105.976 51.2111 105.976C52.0218 105.976 52.6565 105.757 53.1151 105.32C53.5738 104.883 53.8031 104.307 53.8031 103.592C53.8031 102.856 53.5845 102.253 53.1471 101.784C52.7098 101.315 52.1018 101.08 51.3231 101.08C50.7685 101.08 50.2725 101.192 49.8351 101.416C49.3978 101.629 49.0191 101.965 48.6991 102.424H47.7391V95.72H54.4271V96.84H49.0191V101.336H48.6671C48.9551 100.888 49.3498 100.547 49.8511 100.312C50.3631 100.067 50.9391 99.944 51.5791 99.944C52.3045 99.944 52.9285 100.093 53.4511 100.392C53.9845 100.691 54.3951 101.107 54.6831 101.64C54.9711 102.173 55.1151 102.797 55.1151 103.512C55.1151 104.227 54.9551 104.861 54.6351 105.416C54.3258 105.96 53.8778 106.387 53.2911 106.696C52.7151 106.995 52.0218 107.144 51.2111 107.144Z" fill="white"/>
</svg>
