<svg width="700" height="700" viewBox="0 0 700 700" fill="none" xmlns="http://www.w3.org/2000/svg">
<g clip-path="url(#clip0_3211_19124)">
<rect width="700" height="700" fill="#3F2E42"/>
<rect width="350" height="350" fill="#FFD655"/>
<rect x="350" y="350" width="350" height="350" fill="#FAFAFA"/>
<g clip-path="url(#clip1_3211_19124)">
<path d="M60.89 201.751L64.0206 202.618L63.1107 214.885C49.2856 206.648 40 191.511 40 174.238C40 148.19 61.1154 127 87.0728 127C96.0078 127 104.373 129.513 111.5 133.87C101.025 140.589 90.7754 141.801 81.7298 142.56C72.5403 143.408 63.8641 144.21 56.3108 151.606L55.5156 152.383C54.7893 168.344 54.0901 183.657 53.3951 199.028C55.4301 197.721 59.1493 195.302 61.345 194.385L60.8879 201.749L60.89 201.751Z" fill="#3F2E42"/>
<path d="M112.235 141.988C110.645 158.761 109.098 175.022 107.598 190.797C99.6081 193.21 92.4263 192.615 85.879 191.329C81.949 190.552 78.2318 189.532 74.6984 188.751H74.6942L74.4437 192.494V192.544C76.2449 192.959 78.0962 193.436 80.0017 193.916C76.5893 199.192 72.0644 206.202 68.9734 210.984C68.8941 210.948 68.8169 210.91 68.7396 210.875L69.7477 197.743L66.4835 196.921L66.9739 187.626C64.0394 187.503 61.3721 187.892 58.759 189.042C59.2912 177.893 59.8318 166.504 60.3828 154.859C73.9011 144.958 90.4457 154.699 112.235 141.988Z" fill="white"/>
<path d="M134.146 174.238C134.146 200.283 113.03 221.477 87.0728 221.477C81.4439 221.477 76.0382 220.48 71.0312 218.651L84.8438 197.954C95.1646 200.222 104.905 199.751 114.339 195.327C116.103 177.583 117.954 158.867 119.795 140.312C128.64 148.904 134.146 160.937 134.146 174.24V174.238Z" fill="#3F2E42"/>
<path d="M109.666 145.973C109.198 150.964 108.741 155.907 108.286 160.81C103.926 162.67 100.017 164.19 95.8846 164.578C96.2415 160.227 96.7863 154.69 97.1578 150.168C101.194 149.309 105.316 148.067 109.668 145.975L109.666 145.973Z" fill="#3F2E42"/>
<path d="M106.915 175.248L105.642 188.96C101.781 190.058 97.5961 190.447 93.7913 190.263C94.1211 186.173 94.4613 182.057 94.7994 177.9C98.8442 177.866 102.659 176.708 106.915 175.248Z" fill="#3F2E42"/>
<path d="M95.8847 164.577C95.5194 169.057 95.1584 173.495 94.7973 177.902C91.2659 178.034 87.7178 177.628 84.5433 176.987C84.8396 172.869 85.1339 168.718 85.4366 164.535C88.6674 164.916 92.2823 165.021 95.8847 164.577Z" fill="#3F2E42"/>
<path d="M86.4509 151.432C86.1441 155.652 85.7329 160.419 85.4365 164.535C82.2746 164.204 79.2608 163.768 76.3534 163.466H76.3513C76.5955 159.594 76.8418 155.698 77.0902 151.76C80.106 151.612 83.1595 151.593 86.4509 151.432Z" fill="#3F2E42"/>
<path d="M84.5433 176.986C84.2594 180.982 83.9714 184.945 83.6896 188.878C80.5861 188.237 77.6746 187.502 74.8215 186.918C75.0698 183.083 75.3704 179.007 75.6125 175.172H75.6146C78.476 175.714 81.4335 176.393 84.5412 176.986H84.5433Z" fill="#3F2E42"/>
<path d="M76.3534 163.467C76.105 167.398 75.8588 171.3 75.6146 175.172H75.6125C72.9264 174.63 70.1693 174.341 67.6543 174.523C67.8567 170.868 68.0592 167.199 68.2658 163.496C70.8205 163.094 73.6193 163.148 76.3513 163.467H76.3534Z" fill="#3F2E42"/>
<path d="M68.8607 152.787C68.6603 156.381 68.46 159.952 68.2659 163.496C65.5902 163.821 63.3006 164.971 60.9589 166.257L61.4598 155.935C63.645 154.471 66.256 153.394 68.8607 152.787Z" fill="#3F2E42"/>
<path d="M67.6543 174.52C67.4539 178.235 67.2243 182.215 67.0198 185.869C64.5194 185.838 62.1881 186.033 59.9424 186.802C60.1052 183.436 60.2721 180.047 60.4349 176.635C62.7475 175.556 65.0141 174.614 67.6522 174.518L67.6543 174.52Z" fill="#3F2E42"/>
<path d="M111.926 136.925C89.3249 150.505 71.8077 140.379 58.279 153.628C57.6549 167.345 57.0455 180.713 56.4548 193.747C58.9552 192.162 61.5891 191.46 64.3587 191.32L63.8432 199.637L67.001 200.512L66.3248 209.623L65.4065 221.999L71.9246 212.235L83.5769 194.774C91.8857 196.677 101.196 197.859 111.703 193.379C113.617 174.089 115.673 153.312 117.691 133.002C115.733 134.493 113.813 135.792 111.926 136.925ZM107.598 190.796C99.6081 193.209 92.4263 192.614 85.879 191.328C81.949 190.551 78.2318 189.531 74.6983 188.75H74.6942L74.4437 192.493V192.543C76.2449 192.958 78.0962 193.435 80.0017 193.915C76.5893 199.191 72.0644 206.201 68.9734 210.982C68.8941 210.947 68.8168 210.909 68.7396 210.874L69.7477 197.741L66.4834 196.92L66.9739 187.625C64.0394 187.502 61.3721 187.891 58.759 189.041C59.2912 177.892 59.8318 166.503 60.3828 154.858C73.9011 144.957 90.4456 154.698 112.235 141.987C110.645 158.759 109.098 175.021 107.598 190.796Z" fill="#3F2E42"/>
<path d="M154.91 149.931V144.088C160.314 144.088 165.718 144.088 171.121 144.088C171.119 145.179 171.117 145.726 171.113 146.817C170.647 147.937 170.414 148.501 169.948 149.63C168.56 149.655 167.865 149.668 166.477 149.693C166.465 155.255 166.454 160.82 166.442 166.383C164.035 166.568 161.629 166.758 159.222 166.957C159.227 161.25 159.233 155.545 159.237 149.837C157.505 149.873 156.639 149.892 154.908 149.931H154.91Z" fill="#3F2E42"/>
<path d="M187.217 144.088C188.903 144.088 190.091 145.16 190.087 146.679C190.076 149.408 190.066 152.137 190.055 154.868C190.051 155.85 189.221 156.975 188.127 157.281C189.033 159.31 189.486 160.32 190.391 162.328C190.387 163.363 190.385 163.88 190.381 164.917C188.021 165.032 185.662 165.156 183.302 165.284C182.657 163.11 182.014 160.936 181.375 158.76C180.793 158.783 180.503 158.795 179.92 158.818C179.912 161.038 179.906 163.258 179.897 165.478C177.485 165.625 175.074 165.78 172.664 165.941C172.684 158.657 172.705 151.374 172.726 144.09H187.217V144.088ZM179.954 149.466C179.948 151.067 179.945 151.869 179.939 153.469C181.089 153.44 181.665 153.425 182.817 153.396C182.824 151.808 182.826 151.012 182.832 149.425C181.68 149.441 181.106 149.45 179.954 149.466Z" fill="#3F2E42"/>
<path d="M207.22 144.088C208.28 149.957 209.347 155.823 210.417 161.69C210.415 162.689 210.413 163.189 210.411 164.188C207.992 164.251 205.573 164.322 203.152 164.4C202.985 162.768 202.902 161.954 202.735 160.32C201.464 160.353 200.827 160.372 199.556 160.41C199.364 162.062 199.27 162.89 199.078 164.544C196.672 164.639 194.265 164.739 191.859 164.846C191.863 163.813 191.865 163.298 191.869 162.266C192.967 156.206 194.069 150.147 195.177 144.088C199.191 144.088 203.206 144.088 207.22 144.088ZM202.221 155.247C202.006 153.234 201.793 151.222 201.578 149.209C201.261 149.211 201.103 149.213 200.783 149.215C200.556 151.238 200.328 153.264 200.101 155.289C200.948 155.272 201.372 155.264 202.219 155.247H202.221Z" fill="#3F2E42"/>
<path d="M227.72 144.088C227.72 145.075 227.72 145.567 227.72 146.553C227.269 147.563 227.043 148.067 226.593 149.077C224.219 149.081 221.848 149.087 219.475 149.096C219.469 152.407 219.465 155.716 219.459 159.028C222.21 158.996 224.96 158.977 227.711 158.965C227.711 160.948 227.711 161.941 227.709 163.925C223.508 163.948 219.306 163.998 215.107 164.082C213.383 164.115 212.191 163.112 212.196 161.65C212.208 156.625 212.221 151.603 212.233 146.578C212.237 145.116 213.431 144.086 215.151 144.086C219.342 144.086 223.533 144.086 227.724 144.086L227.72 144.088Z" fill="#3F2E42"/>
<path d="M239.729 144.088C242.023 144.088 244.316 144.088 246.61 144.088C246.61 145.079 246.612 145.575 246.614 146.566C245.725 148.868 244.836 151.167 243.943 153.469C245.032 156.165 246.12 158.86 247.203 161.556C247.203 162.546 247.205 163.043 247.207 164.036C244.796 163.998 242.388 163.969 239.977 163.945C239.324 161.38 238.669 158.814 238.015 156.248C237.485 156.248 237.22 156.246 236.69 156.244C236.69 158.804 236.692 161.363 236.694 163.922C234.284 163.914 231.873 163.912 229.462 163.918C229.464 157.308 229.466 150.698 229.471 144.088H236.684C236.684 146.486 236.686 148.886 236.688 151.285C237.218 151.285 237.483 151.285 238.013 151.287C238.585 148.886 239.157 146.486 239.729 144.086V144.088Z" fill="#3F2E42"/>
<path d="M248.662 150.765C248.658 149.087 248.658 148.247 248.653 146.57C248.651 145.114 249.839 144.088 251.561 144.088H264.134C264.138 145.091 264.138 145.592 264.142 146.593C263.695 147.64 263.472 148.162 263.025 149.205C260.652 149.186 258.281 149.167 255.908 149.15C255.908 149.519 255.908 149.703 255.91 150.07C258.014 151.312 260.116 152.558 262.211 153.815C263.804 154.77 264.171 155.683 264.177 157.314C264.184 159.168 264.186 160.094 264.192 161.947C264.196 163.432 263.009 164.438 261.318 164.383C257.108 164.245 252.899 164.136 248.689 164.061C248.685 162.062 248.683 161.065 248.678 159.067C251.429 159.105 254.18 159.153 256.929 159.21C256.929 158.68 256.927 158.414 256.925 157.884C254.827 156.642 252.727 155.406 250.622 154.179C249.029 153.22 248.664 152.363 248.66 150.765H248.662Z" fill="#3F2E42"/>
<path d="M265.956 164.546C265.933 157.727 265.908 150.907 265.885 144.088C268.289 144.088 270.693 144.088 273.098 144.088C273.123 151.008 273.15 157.93 273.175 164.85C270.768 164.743 268.362 164.641 265.956 164.546Z" fill="#3F2E42"/>
<path d="M275.195 164.947C275.17 157.993 275.143 151.041 275.118 144.088H289.576C291.262 144.088 292.458 145.213 292.462 146.806C292.479 152.283 292.493 157.763 292.51 163.24C292.514 164.833 291.329 165.876 289.644 165.765C284.829 165.46 280.014 165.187 275.195 164.947ZM282.387 160.016C283.552 160.066 284.134 160.092 285.297 160.144C285.284 156.585 285.272 153.029 285.259 149.471C284.095 149.454 283.512 149.445 282.348 149.429C282.36 152.958 282.373 156.487 282.385 160.016H282.387Z" fill="#3F2E42"/>
<path d="M308.844 149.906C309.305 148.74 309.537 148.153 310 146.978C310 145.822 310 145.244 310 144.088C304.839 144.088 299.677 144.088 294.516 144.088C294.534 151.425 294.555 158.764 294.574 166.101C299.719 166.471 304.862 166.882 310 167.328C310 165.003 310 163.841 310 161.518C307.253 161.336 304.505 161.164 301.756 161.001C301.756 159.765 301.754 159.145 301.752 157.909C304.116 158.026 306.483 158.146 308.848 158.269C308.848 155.955 308.848 154.799 308.848 152.485C306.481 152.411 304.112 152.34 301.745 152.271C301.745 151.266 301.743 150.763 301.741 149.758C304.11 149.806 306.479 149.854 308.848 149.906H308.844Z" fill="#3F2E42"/>
<path d="M187.993 176.705C188.004 173.696 188.016 170.686 188.027 167.676C190.884 167.515 193.743 167.368 196.603 167.236C196.574 175.377 196.544 183.519 196.515 191.66C193.652 191.928 190.79 192.229 187.933 192.562C187.945 189.352 187.956 186.139 187.968 182.928C186.585 183.058 185.892 183.125 184.51 183.263C184.497 186.503 184.487 189.741 184.475 192.981C181.619 193.342 178.768 193.731 175.922 194.156C175.949 185.588 175.976 177.019 176.003 168.451C178.856 168.246 181.711 168.055 184.564 167.879C184.554 170.916 184.541 173.951 184.531 176.988C185.915 176.871 186.605 176.814 187.989 176.705H187.993Z" fill="#3F2E42"/>
<path d="M219.745 166.518C219.732 174.407 219.72 182.295 219.707 190.185C213.945 190.396 208.197 190.717 202.447 191.146C200.395 191.307 198.98 190.183 198.986 188.413C199.011 181.317 199.036 174.221 199.059 167.125C201.933 167.003 204.809 166.897 207.685 166.805C207.669 172.797 207.652 178.789 207.633 184.783C209.006 184.706 209.693 184.67 211.066 184.603C211.081 178.636 211.098 172.671 211.112 166.704C213.988 166.626 216.867 166.564 219.745 166.518Z" fill="#3F2E42"/>
<path d="M236.118 177.332C235.736 174.67 235.352 172.01 234.97 169.348C234.97 168.177 234.97 167.591 234.97 166.42C237.625 166.429 240.28 166.452 242.935 166.485C242.945 174.362 242.956 182.24 242.966 190.117C239.906 190.043 236.851 189.995 233.791 189.976C232.434 186.355 231.078 182.734 229.721 179.11C229.452 179.11 229.318 179.113 229.049 179.115C229.416 181.76 229.784 184.407 230.153 187.053C230.153 188.223 230.153 188.81 230.153 189.981C227.503 189.997 224.854 190.039 222.203 190.111C222.214 182.233 222.224 174.358 222.235 166.481C225.284 166.445 228.333 166.424 231.382 166.416C232.724 170.054 234.066 173.69 235.409 177.328C235.692 177.328 235.834 177.33 236.12 177.332H236.118Z" fill="#3F2E42"/>
<path d="M245.462 190.195C245.45 182.305 245.437 174.413 245.422 166.523C251.164 166.628 256.904 166.785 262.641 166.997C264.649 167.074 266.072 168.387 266.077 170.159C266.097 176.25 266.118 182.341 266.139 188.433C266.145 190.205 264.73 191.328 262.718 191.169C256.968 190.735 251.22 190.413 245.458 190.197L245.462 190.195ZM254.061 184.615C255.451 184.684 256.146 184.72 257.534 184.8C257.522 180.814 257.511 176.83 257.501 172.844C256.113 172.788 255.42 172.763 254.032 172.715C254.042 176.682 254.053 180.648 254.063 184.615H254.061Z" fill="#3F2E42"/>
<path d="M268.61 191.678C268.581 183.533 268.552 175.389 268.523 167.244C274.659 167.537 280.793 167.891 286.923 168.308C286.927 169.579 286.929 170.214 286.933 171.485C286.388 172.742 286.115 173.368 285.57 174.615C282.757 174.372 279.939 174.15 277.124 173.946C277.128 175.056 277.13 175.611 277.134 176.722C279.952 176.944 282.767 177.186 285.581 177.45C285.587 179.572 285.595 181.694 285.602 183.815C282.788 183.501 279.975 183.21 277.155 182.946C277.159 184.312 277.163 184.995 277.168 186.36C280.444 186.706 283.715 187.076 286.985 187.474C286.992 189.604 287 191.735 287.006 193.862C280.887 193.006 274.759 192.277 268.608 191.676L268.61 191.678Z" fill="#3F2E42"/>
<path d="M309.274 192.478C308.489 190.361 308.097 189.309 307.31 187.223C307.748 187.173 308.151 186.991 308.491 186.719C309.144 186.195 309.57 185.336 309.57 184.482C309.57 180.871 309.57 177.26 309.57 173.649C309.57 171.638 308.163 170.08 306.17 169.892C300.451 169.36 294.731 168.882 289.004 168.457C289.031 177.028 289.058 185.598 289.085 194.168C291.946 194.596 294.802 195.054 297.653 195.545C297.646 192.801 297.64 190.059 297.634 187.315C298.323 187.414 298.665 187.466 299.354 187.567C300.134 190.461 300.904 193.36 301.67 196.259C304.452 196.77 307.23 197.31 310 197.882C310 196.508 310 195.821 310 194.449C309.71 193.657 309.564 193.264 309.274 192.476V192.478ZM301.021 181.139C299.66 180.963 298.98 180.877 297.617 180.712C297.613 178.734 297.611 177.746 297.607 175.769C298.97 175.913 299.65 175.987 301.013 176.139C301.017 178.14 301.017 179.139 301.021 181.139Z" fill="#3F2E42"/>
<path d="M310 203.084C310 202.177 310 201.725 310 200.818C263.336 190.853 215.431 189.952 168.427 198.141C167.646 200.173 166.872 202.209 166.106 204.247C213.546 193.609 262.364 193.714 310 203.086V203.084Z" fill="#3F2E42"/>
<path d="M154.908 170.297V177.242C156.954 176.982 157.976 176.859 160.026 176.616C160.022 180.891 160.018 185.165 160.011 189.44C161.788 187.142 163.589 184.868 165.415 182.61C164.319 185.435 163.24 188.269 162.167 191.103C161.439 193.032 160.717 194.965 160.003 196.898C161.178 196.672 161.765 196.561 162.942 196.345C162.942 196.595 162.942 196.718 162.942 196.968C162.938 199.615 162.933 202.262 162.929 204.912C164.071 201.845 165.223 198.785 166.388 195.728C167.258 193.453 167.692 192.324 168.562 190.085C167.283 190.28 166.642 190.378 165.365 190.582C166.425 187.813 167.498 185.05 168.583 182.292C168.589 180.082 168.594 177.872 168.6 175.663C170.245 175.493 171.067 175.409 172.711 175.25C173.265 173.876 173.54 173.193 174.093 171.832C174.097 170.546 174.099 169.903 174.104 168.619C167.7 169.109 161.303 169.668 154.913 170.295L154.908 170.297Z" fill="#3F2E42"/>
</g>
<rect y="350" width="350" height="350" fill="black"/>
<g clip-path="url(#clip2_3211_19124)">
<path d="M110.764 542.956C100.694 547.23 91.7711 546.104 83.8082 544.285L67.9514 567.943C73.7847 570.552 80.2506 571.987 87.0401 571.991C112.325 572.513 134.602 550.257 134.078 524.997C134.135 510.656 127.479 497.008 116.219 488.131L110.762 542.956H110.764ZM85.0233 547.32C94.9216 549.481 104.244 549.034 113.29 544.815C114.862 529.056 116.48 512.788 118.132 496.199C118.14 496.209 118.15 496.22 118.161 496.228C125.447 504.079 129.439 514.231 129.439 524.997C129.93 547.699 109.851 567.807 87.1591 567.338C82.3676 567.338 77.6722 566.545 73.1897 564.977L85.0254 547.322L85.0233 547.32Z" fill="white"/>
<path d="M64.897 548.926L65.3918 540.989C62.7361 541.125 60.212 541.792 57.8152 543.307C58.381 530.871 58.9655 518.116 59.5647 505.027C72.3817 492.528 88.9358 501.827 110.238 489.524C111.693 488.696 113.05 487.82 114.49 486.819C106.546 481.091 97.0302 478 87.0401 478C61.1014 478 40 499.08 40 524.995C40 543.609 50.8858 559.714 66.6215 567.334C67.0056 561.992 67.5652 554.543 67.9222 549.762L64.897 548.926ZM57.6795 503.095L56.9153 503.84C56.218 519.071 55.5499 533.678 54.8839 548.346C56.8339 547.097 60.3978 544.786 62.5064 543.916L62.0701 550.943L65.0682 551.771L64.4022 560.705C52.3243 553.11 44.6433 539.25 44.7456 524.959C44.6871 501.452 64.137 482.503 87.0443 482.637C94.3474 482.637 101.371 484.468 107.584 487.918C98.2411 492.975 90.0152 493.732 82.0419 494.466C73.2377 495.275 64.9199 496.041 57.6836 503.095H57.6795Z" fill="white"/>
<path d="M76.1794 525.584C78.9207 526.101 81.7559 526.748 84.7352 527.315C85.0191 523.385 85.301 519.424 85.5912 515.434C82.5597 515.119 79.6723 514.704 76.8871 514.414C76.6491 518.164 76.4111 521.89 76.1794 525.584Z" fill="white"/>
<path d="M75.2963 538.541H75.2984C78.6848 539.286 82.2487 540.26 86.013 541C92.2889 542.227 99.1702 542.796 106.828 540.493C108.267 525.442 109.749 509.925 111.273 493.92C90.3911 506.049 74.5343 496.755 61.5774 506.199C61.0492 517.313 60.5293 528.178 60.0199 538.816C62.5253 537.719 65.0807 537.348 67.893 537.465L67.4232 546.334L70.5507 547.116L69.5841 559.646L69.5444 560.155C69.63 560.023 69.7177 559.888 69.8096 559.75C72.7722 555.188 77.1106 548.497 80.378 543.464C78.5533 543.009 76.7765 542.552 75.0499 542.156V542.108L75.2921 538.537L75.2963 538.541ZM104.956 538.739C101.256 539.786 97.2453 540.158 93.5979 539.982C93.9132 536.08 94.241 532.152 94.5646 528.185C98.4395 528.151 102.097 527.046 106.177 525.654L104.958 538.739H104.956ZM68.5485 524.964C68.3565 528.508 68.1352 532.304 67.941 535.792C65.5442 535.763 63.3103 535.948 61.1577 536.682C61.3143 533.47 61.473 530.237 61.6296 526.983C63.8447 525.953 66.0181 525.056 68.5465 524.964C68.7406 521.481 68.9348 517.976 69.1331 514.445C66.5693 514.756 64.375 515.853 62.1286 517.079L62.6088 507.232C64.7028 505.834 67.2061 504.808 69.701 504.228C69.5089 507.658 69.3169 511.064 69.131 514.445C71.58 514.061 74.2628 514.113 76.8809 514.418C77.1148 510.724 77.3507 507.005 77.5887 503.248C80.4803 503.106 83.4053 503.089 86.56 502.935C86.2656 506.961 85.871 511.51 85.5891 515.436C88.6853 515.801 92.1511 515.899 95.6022 515.475C95.9446 511.324 96.4665 506.041 96.8215 501.725C100.69 500.906 104.64 499.721 108.812 497.722C108.363 502.485 107.926 507.201 107.49 511.879C103.312 513.654 99.5648 515.104 95.6043 515.473C95.2535 519.747 94.907 523.984 94.5625 528.187C91.1782 528.314 87.7771 527.926 84.7352 527.313C84.4617 531.126 84.1882 534.905 83.9168 538.66C80.9417 538.049 78.1524 537.346 75.4174 536.789C75.6554 533.13 75.9435 529.24 76.1753 525.581C73.601 525.064 70.9579 524.789 68.5485 524.962V524.964Z" fill="white"/>
<path d="M154.86 500.534V494.715C160.265 494.715 165.671 494.715 171.076 494.715C171.074 495.802 171.072 496.346 171.068 497.433C170.602 498.549 170.368 499.11 169.903 500.234C168.514 500.259 167.819 500.272 166.431 500.297C166.418 505.837 166.408 511.379 166.395 516.919C163.988 517.103 161.581 517.292 159.173 517.491C159.178 511.807 159.184 506.125 159.188 500.441C157.455 500.476 156.589 500.495 154.858 500.534H154.86Z" fill="white"/>
<path d="M187.177 494.715C188.864 494.715 190.052 495.783 190.048 497.295C190.037 500.013 190.027 502.731 190.016 505.451C190.012 506.429 189.181 507.549 188.087 507.854C188.993 509.875 189.446 510.88 190.353 512.881C190.348 513.911 190.346 514.426 190.342 515.459C187.981 515.574 185.622 515.697 183.26 515.824C182.615 513.659 181.972 511.494 181.333 509.326C180.751 509.349 180.461 509.362 179.878 509.385C179.87 511.596 179.863 513.807 179.855 516.018C177.442 516.164 175.03 516.318 172.619 516.479C172.64 509.224 172.661 501.972 172.681 494.717H187.177V494.715ZM179.912 500.069C179.905 501.663 179.903 502.462 179.897 504.055C181.047 504.026 181.623 504.012 182.776 503.982C182.782 502.401 182.784 501.609 182.791 500.028C181.638 500.044 181.064 500.053 179.912 500.069Z" fill="white"/>
<path d="M207.186 494.715C208.247 500.559 209.314 506.402 210.385 512.245C210.383 513.24 210.381 513.738 210.379 514.733C207.959 514.796 205.539 514.866 203.117 514.944C202.95 513.319 202.867 512.507 202.7 510.88C201.428 510.914 200.792 510.933 199.52 510.97C199.328 512.616 199.234 513.44 199.042 515.088C196.635 515.181 194.228 515.282 191.82 515.388C191.824 514.36 191.827 513.846 191.831 512.818C192.929 506.784 194.031 500.749 195.14 494.715C199.155 494.715 203.172 494.715 207.186 494.715ZM202.186 505.828C201.971 503.824 201.758 501.819 201.543 499.815C201.226 499.817 201.067 499.819 200.748 499.821C200.52 501.836 200.293 503.853 200.065 505.87C200.913 505.853 201.336 505.845 202.184 505.828H202.186Z" fill="white"/>
<path d="M227.693 494.715C227.693 495.697 227.693 496.188 227.693 497.17C227.242 498.175 227.016 498.678 226.565 499.684C224.192 499.688 221.82 499.694 219.446 499.702C219.44 503 219.436 506.296 219.429 509.594C222.181 509.562 224.933 509.543 227.684 509.531C227.684 511.506 227.684 512.495 227.682 514.47C223.48 514.493 219.277 514.543 215.076 514.627C213.352 514.66 212.16 513.661 212.164 512.205C212.176 507.201 212.189 502.199 212.201 497.195C212.206 495.739 213.4 494.713 215.12 494.713C219.312 494.713 223.505 494.713 227.697 494.713L227.693 494.715Z" fill="white"/>
<path d="M239.706 494.715C242 494.715 244.295 494.715 246.589 494.715C246.589 495.702 246.592 496.196 246.594 497.183C245.704 499.475 244.815 501.765 243.921 504.058C245.011 506.742 246.099 509.427 247.182 512.111C247.182 513.098 247.184 513.592 247.187 514.581C244.775 514.543 242.366 514.514 239.954 514.491C239.301 511.936 238.645 509.381 237.992 506.826C237.462 506.826 237.196 506.823 236.666 506.821C236.666 509.37 236.668 511.919 236.67 514.468C234.259 514.46 231.848 514.458 229.436 514.464C229.438 507.881 229.44 501.298 229.444 494.715H236.66C236.66 497.103 236.662 499.494 236.664 501.882C237.194 501.882 237.46 501.882 237.99 501.884C238.562 499.494 239.134 497.103 239.706 494.713V494.715Z" fill="white"/>
<path d="M248.642 501.365C248.638 499.694 248.638 498.857 248.633 497.187C248.631 495.737 249.819 494.715 251.542 494.715H264.119C264.123 495.714 264.123 496.213 264.127 497.21C263.68 498.252 263.457 498.772 263.01 499.811C260.636 499.792 258.264 499.773 255.891 499.756C255.891 500.124 255.891 500.307 255.893 500.672C257.997 501.909 260.1 503.15 262.196 504.402C263.789 505.353 264.156 506.262 264.162 507.887C264.169 509.733 264.171 510.655 264.177 512.501C264.181 513.98 262.993 514.981 261.302 514.927C257.091 514.789 252.88 514.681 248.669 514.606C248.665 512.616 248.663 511.623 248.658 509.633C251.41 509.671 254.162 509.719 256.911 509.775C256.911 509.247 256.909 508.982 256.907 508.455C254.809 507.218 252.709 505.987 250.602 504.765C249.009 503.809 248.644 502.956 248.64 501.365H248.642Z" fill="white"/>
<path d="M265.941 515.09C265.918 508.298 265.893 501.506 265.87 494.715C268.275 494.715 270.681 494.715 273.086 494.715C273.111 501.607 273.138 508.5 273.163 515.392C270.756 515.286 268.348 515.184 265.941 515.09Z" fill="white"/>
<path d="M275.186 515.488C275.161 508.563 275.134 501.64 275.109 494.715H289.571C291.258 494.715 292.454 495.835 292.458 497.422C292.475 502.877 292.49 508.334 292.506 513.788C292.511 515.375 291.325 516.414 289.64 516.304C284.823 515.999 280.007 515.728 275.186 515.488ZM282.381 510.578C283.546 510.628 284.128 510.653 285.291 510.705C285.278 507.161 285.266 503.619 285.253 500.076C284.088 500.059 283.506 500.051 282.341 500.034C282.353 503.549 282.366 507.063 282.378 510.578H282.381Z" fill="white"/>
<path d="M308.843 500.507C309.305 499.346 309.536 498.762 310 497.591C310 496.44 310 495.864 310 494.713C304.837 494.713 299.674 494.713 294.511 494.713C294.529 502.02 294.55 509.329 294.569 516.635C299.715 517.005 304.86 517.413 310 517.858C310 515.542 310 514.385 310 512.072C307.252 511.89 304.503 511.719 301.753 511.556C301.753 510.326 301.751 509.708 301.749 508.478C304.114 508.594 306.482 508.713 308.847 508.836C308.847 506.531 308.847 505.38 308.847 503.075C306.48 503.002 304.11 502.931 301.743 502.862C301.743 501.861 301.741 501.361 301.739 500.359C304.108 500.407 306.478 500.455 308.847 500.507H308.843Z" fill="white"/>
<path d="M187.954 527.196C187.964 524.198 187.977 521.201 187.987 518.204C190.845 518.043 193.706 517.897 196.566 517.766C196.537 525.873 196.507 533.981 196.478 542.089C193.614 542.356 190.751 542.656 187.893 542.988C187.906 539.79 187.916 536.591 187.929 533.393C186.544 533.522 185.851 533.589 184.469 533.727C184.457 536.954 184.446 540.178 184.434 543.405C181.578 543.764 178.726 544.152 175.878 544.575C175.905 536.042 175.932 527.509 175.959 518.975C178.813 518.771 181.669 518.581 184.523 518.406C184.513 521.431 184.501 524.453 184.49 527.477C185.874 527.361 186.565 527.304 187.95 527.196H187.954Z" fill="white"/>
<path d="M219.717 517.053C219.705 524.91 219.692 532.766 219.68 540.623C213.915 540.834 208.166 541.153 202.414 541.581C200.361 541.741 198.946 540.621 198.952 538.858C198.977 531.792 199.002 524.725 199.025 517.658C201.9 517.537 204.777 517.43 207.654 517.338C207.637 523.306 207.621 529.274 207.602 535.244C208.976 535.166 209.663 535.131 211.036 535.064C211.051 529.122 211.068 523.181 211.082 517.238C213.959 517.161 216.838 517.099 219.717 517.053Z" fill="white"/>
<path d="M236.096 527.823C235.714 525.172 235.33 522.523 234.948 519.871C234.948 518.705 234.948 518.121 234.948 516.955C237.604 516.964 240.259 516.987 242.915 517.02C242.925 524.865 242.936 532.71 242.946 540.555C239.886 540.482 236.829 540.434 233.768 540.415C232.411 536.809 231.054 533.202 229.697 529.594C229.428 529.594 229.294 529.596 229.025 529.598C229.392 532.232 229.76 534.869 230.129 537.503C230.129 538.669 230.129 539.253 230.129 540.419C227.478 540.436 224.828 540.478 222.177 540.549C222.187 532.704 222.198 524.861 222.208 517.016C225.258 516.98 228.309 516.96 231.359 516.951C232.701 520.574 234.044 524.195 235.386 527.819C235.67 527.819 235.812 527.821 236.098 527.823H236.096Z" fill="white"/>
<path d="M245.441 540.631C245.429 532.774 245.416 524.914 245.401 517.057C251.145 517.161 256.886 517.317 262.626 517.528C264.634 517.605 266.058 518.913 266.062 520.678C266.083 526.743 266.104 532.809 266.125 538.877C266.131 540.642 264.716 541.76 262.703 541.601C256.951 541.169 251.201 540.848 245.437 540.633L245.441 540.631ZM254.045 535.074C255.435 535.143 256.131 535.179 257.519 535.258C257.507 531.289 257.496 527.321 257.486 523.352C256.097 523.295 255.404 523.27 254.016 523.222C254.026 527.173 254.037 531.124 254.047 535.074H254.045Z" fill="white"/>
<path d="M268.597 542.107C268.568 533.995 268.538 525.885 268.509 517.773C274.647 518.065 280.783 518.418 286.915 518.833C286.919 520.099 286.921 520.731 286.926 521.997C286.381 523.249 286.107 523.873 285.562 525.114C282.748 524.872 279.929 524.651 277.113 524.448C277.117 525.554 277.119 526.107 277.123 527.212C279.942 527.433 282.758 527.675 285.573 527.938C285.579 530.051 285.587 532.164 285.594 534.277C282.779 533.964 279.965 533.674 277.144 533.411C277.149 534.771 277.153 535.451 277.157 536.811C280.435 537.155 283.706 537.525 286.978 537.921C286.984 540.042 286.992 542.164 286.999 544.283C280.877 543.43 274.748 542.704 268.595 542.105L268.597 542.107Z" fill="white"/>
<path d="M309.273 542.907C308.488 540.798 308.096 539.751 307.309 537.674C307.747 537.624 308.15 537.442 308.491 537.171C309.144 536.65 309.57 535.794 309.57 534.943C309.57 531.347 309.57 527.751 309.57 524.155C309.57 522.153 308.163 520.601 306.169 520.413C300.448 519.883 294.726 519.408 288.997 518.984C289.024 527.52 289.051 536.055 289.078 544.591C291.941 545.016 294.797 545.473 297.649 545.961C297.642 543.229 297.636 540.498 297.63 537.766C298.319 537.864 298.661 537.916 299.35 538.016C300.131 540.899 300.901 543.785 301.668 546.672C304.451 547.181 307.229 547.719 310 548.289C310 546.921 310 546.236 310 544.87C309.71 544.082 309.564 543.689 309.273 542.905V542.907ZM301.018 531.614C299.657 531.439 298.976 531.354 297.613 531.189C297.609 529.22 297.607 528.235 297.603 526.266C298.966 526.41 299.647 526.483 301.01 526.635C301.014 528.627 301.014 529.622 301.018 531.614Z" fill="white"/>
<path d="M310 553.467C310 552.564 310 552.113 310 551.21C263.321 541.285 215.4 540.389 168.381 548.544C167.6 550.568 166.825 552.595 166.059 554.625C213.515 544.03 262.348 544.135 310 553.469V553.467Z" fill="white"/>
<path d="M154.86 520.813V527.73C156.906 527.471 157.929 527.348 159.979 527.106C159.975 531.364 159.971 535.621 159.965 539.878C161.741 537.59 163.543 535.325 165.37 533.076C164.274 535.89 163.195 538.712 162.121 541.534C161.393 543.456 160.67 545.381 159.956 547.306C161.132 547.081 161.718 546.97 162.896 546.755C162.896 547.004 162.896 547.127 162.896 547.375C162.892 550.011 162.888 552.648 162.883 555.287C164.025 552.233 165.178 549.185 166.343 546.14C167.214 543.875 167.648 542.751 168.518 540.521C167.239 540.715 166.598 540.813 165.32 541.015C166.38 538.258 167.454 535.506 168.539 532.759C168.546 530.559 168.55 528.358 168.556 526.157C170.201 525.988 171.024 525.905 172.669 525.746C173.222 524.378 173.498 523.698 174.051 522.342C174.055 521.062 174.057 520.421 174.061 519.143C167.656 519.631 161.257 520.188 154.864 520.811L154.86 520.813Z" fill="white"/>
</g>
<rect x="350" y="-1" width="350" height="350" fill="#CB4848"/>
<g clip-path="url(#clip3_3211_19124)">
<path d="M460.764 191.956C450.694 196.23 441.771 195.104 433.808 193.285L417.951 216.943C423.785 219.552 430.251 220.987 437.04 220.991C462.325 221.513 484.602 199.257 484.078 173.997C484.135 159.656 477.479 146.008 466.219 137.131L460.762 191.956H460.764ZM435.023 196.32C444.922 198.481 454.244 198.034 463.29 193.815C464.862 178.056 466.48 161.788 468.132 145.199C468.14 145.209 468.15 145.22 468.161 145.228C475.447 153.079 479.439 163.231 479.439 173.997C479.93 196.699 459.851 216.807 437.159 216.338C432.368 216.338 427.672 215.545 423.19 213.977L435.025 196.322L435.023 196.32Z" fill="white"/>
<path d="M414.897 197.926L415.392 189.989C412.736 190.125 410.212 190.792 407.815 192.307C408.381 179.871 408.966 167.116 409.565 154.027C422.382 141.528 438.936 150.827 460.238 138.524C461.693 137.696 463.05 136.82 464.49 135.819C456.546 130.091 447.03 127 437.04 127C411.101 127 390 148.08 390 173.995C390 192.609 400.886 208.714 416.621 216.334C417.006 210.992 417.565 203.543 417.922 198.762L414.897 197.926ZM407.679 152.095L406.915 152.84C406.218 168.071 405.55 182.678 404.884 197.346C406.834 196.097 410.398 193.786 412.506 192.916L412.07 199.943L415.068 200.771L414.402 209.705C402.324 202.11 394.643 188.25 394.746 173.959C394.687 150.452 414.137 131.503 437.044 131.637C444.347 131.637 451.371 133.468 457.584 136.918C448.241 141.975 440.015 142.732 432.042 143.466C423.238 144.275 414.92 145.041 407.684 152.095H407.679Z" fill="white"/>
<path d="M426.179 174.584C428.921 175.101 431.756 175.748 434.735 176.315C435.019 172.385 435.301 168.424 435.591 164.434C432.56 164.119 429.672 163.704 426.887 163.414C426.649 167.164 426.411 170.89 426.179 174.584Z" fill="white"/>
<path d="M425.296 187.541H425.298C428.685 188.286 432.249 189.26 436.013 190C442.289 191.227 449.17 191.796 456.828 189.493C458.267 174.442 459.749 158.925 461.273 142.92C440.391 155.049 424.534 145.755 411.577 155.199C411.049 166.313 410.529 177.178 410.02 187.816C412.525 186.719 415.081 186.348 417.893 186.465L417.423 195.334L420.551 196.116L419.584 208.646L419.544 209.155C419.63 209.023 419.718 208.888 419.81 208.75C422.772 204.188 427.111 197.497 430.378 192.464C428.553 192.009 426.777 191.552 425.05 191.156V191.108L425.292 187.537L425.296 187.541ZM454.955 187.739C451.256 188.786 447.245 189.158 443.598 188.982C443.913 185.08 444.241 181.152 444.565 177.185C448.439 177.151 452.097 176.046 456.177 174.654L454.958 187.739H454.955ZM418.549 173.964C418.356 177.508 418.135 181.304 417.941 184.792C415.544 184.763 413.31 184.948 411.158 185.682C411.314 182.47 411.473 179.237 411.63 175.983C413.845 174.953 416.018 174.056 418.546 173.964C418.741 170.481 418.935 166.976 419.133 163.445C416.569 163.756 414.375 164.853 412.129 166.079L412.609 156.232C414.703 154.834 417.206 153.808 419.701 153.228C419.509 156.658 419.317 160.064 419.131 163.445C421.58 163.061 424.263 163.113 426.881 163.418C427.115 159.724 427.351 156.005 427.589 152.248C430.48 152.106 433.405 152.089 436.56 151.935C436.266 155.961 435.871 160.51 435.589 164.436C438.685 164.801 442.151 164.899 445.602 164.475C445.945 160.324 446.467 155.041 446.821 150.725C450.69 149.906 454.64 148.721 458.812 146.722C458.363 151.485 457.926 156.201 457.49 160.879C453.312 162.654 449.565 164.104 445.604 164.473C445.254 168.747 444.907 172.984 444.562 177.187C441.178 177.314 437.777 176.926 434.735 176.313C434.462 180.126 434.188 183.905 433.917 187.66C430.942 187.049 428.152 186.346 425.417 185.789C425.655 182.13 425.943 178.24 426.175 174.581C423.601 174.064 420.958 173.789 418.549 173.962V173.964Z" fill="white"/>
<path d="M504.86 149.534V143.715C510.265 143.715 515.671 143.715 521.076 143.715C521.074 144.802 521.072 145.346 521.068 146.433C520.602 147.549 520.368 148.11 519.903 149.234C518.514 149.259 517.819 149.272 516.431 149.297C516.418 154.837 516.408 160.379 516.395 165.919C513.988 166.103 511.581 166.292 509.173 166.491C509.178 160.807 509.184 155.125 509.188 149.441C507.455 149.476 506.589 149.495 504.858 149.534H504.86Z" fill="white"/>
<path d="M537.177 143.715C538.864 143.715 540.052 144.783 540.048 146.295C540.037 149.013 540.027 151.731 540.016 154.451C540.012 155.429 539.181 156.549 538.087 156.854C538.993 158.875 539.447 159.88 540.353 161.881C540.348 162.911 540.346 163.426 540.342 164.459C537.981 164.574 535.622 164.697 533.26 164.824C532.615 162.659 531.972 160.494 531.333 158.326C530.751 158.349 530.461 158.362 529.878 158.385C529.87 160.596 529.864 162.807 529.855 165.018C527.442 165.164 525.03 165.318 522.619 165.479C522.64 158.224 522.661 150.972 522.682 143.717H537.177V143.715ZM529.912 149.069C529.905 150.663 529.903 151.462 529.897 153.055C531.047 153.026 531.624 153.012 532.776 152.982C532.782 151.401 532.784 150.609 532.791 149.028C531.638 149.044 531.064 149.053 529.912 149.069Z" fill="white"/>
<path d="M557.187 143.715C558.247 149.559 559.314 155.402 560.385 161.245C560.383 162.24 560.381 162.738 560.379 163.733C557.959 163.796 555.539 163.866 553.117 163.944C552.95 162.319 552.867 161.507 552.7 159.88C551.428 159.914 550.792 159.933 549.52 159.97C549.328 161.616 549.234 162.44 549.042 164.088C546.635 164.181 544.228 164.282 541.82 164.388C541.825 163.36 541.827 162.846 541.831 161.818C542.929 155.784 544.031 149.749 545.14 143.715C549.155 143.715 553.172 143.715 557.187 143.715ZM552.186 154.828C551.971 152.824 551.758 150.819 551.543 148.815C551.226 148.817 551.067 148.819 550.748 148.821C550.52 150.836 550.293 152.853 550.065 154.87C550.913 154.853 551.337 154.845 552.184 154.828H552.186Z" fill="white"/>
<path d="M577.693 143.715C577.693 144.697 577.693 145.188 577.693 146.17C577.242 147.175 577.016 147.678 576.565 148.684C574.192 148.688 571.82 148.694 569.446 148.702C569.44 152 569.436 155.296 569.429 158.594C572.181 158.562 574.933 158.543 577.684 158.531C577.684 160.506 577.684 161.495 577.682 163.47C573.48 163.493 569.277 163.543 565.076 163.627C563.352 163.66 562.16 162.661 562.164 161.205C562.176 156.201 562.189 151.199 562.201 146.195C562.206 144.739 563.4 143.713 565.12 143.713C569.312 143.713 573.505 143.713 577.697 143.713L577.693 143.715Z" fill="white"/>
<path d="M589.706 143.715C592 143.715 594.295 143.715 596.589 143.715C596.589 144.702 596.592 145.196 596.594 146.183C595.704 148.475 594.815 150.765 593.921 153.058C595.011 155.742 596.099 158.427 597.182 161.111C597.182 162.098 597.184 162.592 597.187 163.581C594.775 163.543 592.366 163.514 589.954 163.491C589.301 160.936 588.645 158.381 587.992 155.826C587.462 155.826 587.196 155.823 586.666 155.821C586.666 158.37 586.668 160.919 586.67 163.468C584.259 163.46 581.848 163.458 579.436 163.464C579.438 156.881 579.44 150.298 579.445 143.715H586.66C586.66 146.103 586.662 148.494 586.664 150.882C587.194 150.882 587.46 150.882 587.99 150.884C588.562 148.494 589.134 146.103 589.706 143.713V143.715Z" fill="white"/>
<path d="M598.642 150.365C598.638 148.694 598.638 147.857 598.633 146.187C598.631 144.737 599.819 143.715 601.542 143.715H614.119C614.123 144.714 614.123 145.213 614.127 146.21C613.68 147.252 613.457 147.772 613.01 148.811C610.636 148.792 608.264 148.773 605.891 148.756C605.891 149.124 605.891 149.307 605.893 149.672C607.997 150.909 610.1 152.15 612.196 153.402C613.789 154.353 614.156 155.262 614.162 156.887C614.169 158.733 614.171 159.655 614.177 161.501C614.181 162.98 612.993 163.981 611.302 163.927C607.091 163.789 602.88 163.681 598.669 163.606C598.665 161.616 598.663 160.623 598.658 158.633C601.41 158.671 604.162 158.719 606.912 158.775C606.912 158.247 606.909 157.982 606.907 157.455C604.809 156.218 602.709 154.987 600.602 153.765C599.009 152.809 598.644 151.956 598.64 150.365H598.642Z" fill="white"/>
<path d="M615.941 164.09C615.918 157.298 615.893 150.506 615.87 143.715C618.275 143.715 620.681 143.715 623.086 143.715C623.111 150.607 623.138 157.5 623.163 164.392C620.756 164.286 618.348 164.184 615.941 164.09Z" fill="white"/>
<path d="M625.186 164.488C625.161 157.563 625.134 150.64 625.109 143.715H639.571C641.258 143.715 642.454 144.835 642.458 146.422C642.475 151.877 642.49 157.334 642.506 162.788C642.511 164.375 641.325 165.414 639.64 165.304C634.823 164.999 630.007 164.728 625.186 164.488ZM632.381 159.578C633.546 159.628 634.128 159.653 635.291 159.705C635.278 156.161 635.266 152.619 635.253 149.076C634.088 149.059 633.506 149.051 632.341 149.034C632.353 152.549 632.366 156.063 632.378 159.578H632.381Z" fill="white"/>
<path d="M658.843 149.507C659.305 148.346 659.537 147.762 660 146.591C660 145.44 660 144.864 660 143.713C654.837 143.713 649.674 143.713 644.511 143.713C644.529 151.02 644.55 158.329 644.569 165.635C649.716 166.005 654.86 166.413 660 166.858C660 164.542 660 163.385 660 161.072C657.252 160.89 654.503 160.719 651.753 160.556C651.753 159.326 651.751 158.708 651.749 157.478C654.114 157.594 656.482 157.713 658.848 157.836C658.848 155.531 658.848 154.38 658.848 152.075C656.48 152.002 654.11 151.931 651.743 151.862C651.743 150.861 651.741 150.361 651.739 149.359C654.108 149.407 656.478 149.455 658.848 149.507H658.843Z" fill="white"/>
<path d="M537.954 176.196C537.964 173.198 537.977 170.201 537.987 167.204C540.845 167.043 543.706 166.897 546.566 166.766C546.537 174.873 546.507 182.981 546.478 191.089C543.614 191.356 540.751 191.656 537.893 191.988C537.906 188.79 537.916 185.591 537.929 182.393C536.544 182.522 535.851 182.589 534.469 182.727C534.457 185.954 534.446 189.178 534.434 192.405C531.578 192.764 528.726 193.152 525.878 193.575C525.905 185.042 525.932 176.509 525.959 167.975C528.813 167.771 531.669 167.581 534.523 167.406C534.513 170.431 534.501 173.453 534.49 176.477C535.874 176.361 536.565 176.304 537.95 176.196H537.954Z" fill="white"/>
<path d="M569.717 166.053C569.705 173.91 569.692 181.766 569.68 189.623C563.915 189.834 558.166 190.153 552.414 190.581C550.361 190.741 548.946 189.621 548.952 187.858C548.977 180.792 549.002 173.725 549.025 166.658C551.9 166.537 554.777 166.43 557.654 166.338C557.637 172.306 557.621 178.274 557.602 184.244C558.976 184.166 559.663 184.131 561.036 184.064C561.051 178.122 561.068 172.181 561.082 166.238C563.959 166.161 566.838 166.099 569.717 166.053Z" fill="white"/>
<path d="M586.096 176.823C585.714 174.172 585.33 171.523 584.948 168.871C584.948 167.705 584.948 167.121 584.948 165.955C587.604 165.964 590.259 165.987 592.915 166.02C592.925 173.865 592.936 181.71 592.946 189.555C589.886 189.482 586.829 189.434 583.768 189.415C582.411 185.809 581.054 182.202 579.697 178.594C579.428 178.594 579.294 178.596 579.025 178.598C579.392 181.232 579.76 183.869 580.129 186.503C580.129 187.669 580.129 188.253 580.129 189.419C577.478 189.436 574.828 189.478 572.177 189.549C572.187 181.704 572.198 173.861 572.208 166.016C575.258 165.98 578.309 165.96 581.359 165.951C582.701 169.574 584.044 173.195 585.386 176.819C585.67 176.819 585.812 176.821 586.098 176.823H586.096Z" fill="white"/>
<path d="M595.441 189.631C595.429 181.774 595.416 173.914 595.402 166.057C601.145 166.161 606.886 166.317 612.626 166.528C614.634 166.605 616.058 167.913 616.062 169.678C616.083 175.743 616.104 181.809 616.125 187.877C616.131 189.642 614.716 190.76 612.703 190.601C606.951 190.169 601.201 189.848 595.437 189.633L595.441 189.631ZM604.045 184.074C605.435 184.143 606.131 184.179 607.519 184.258C607.507 180.289 607.496 176.321 607.486 172.352C606.097 172.295 605.404 172.27 604.016 172.222C604.026 176.173 604.037 180.124 604.047 184.074H604.045Z" fill="white"/>
<path d="M618.597 191.107C618.568 182.995 618.538 174.885 618.509 166.773C624.647 167.065 630.783 167.418 636.915 167.833C636.919 169.099 636.922 169.731 636.926 170.997C636.381 172.249 636.107 172.873 635.562 174.114C632.748 173.872 629.929 173.651 627.113 173.448C627.117 174.554 627.119 175.107 627.123 176.212C629.942 176.433 632.758 176.675 635.573 176.938C635.579 179.051 635.587 181.164 635.594 183.277C632.779 182.964 629.965 182.674 627.144 182.411C627.149 183.771 627.153 184.451 627.157 185.811C630.435 186.155 633.706 186.525 636.978 186.921C636.984 189.042 636.993 191.164 636.999 193.283C630.877 192.43 624.748 191.704 618.595 191.105L618.597 191.107Z" fill="white"/>
<path d="M659.273 191.907C658.488 189.798 658.096 188.751 657.309 186.674C657.747 186.624 658.15 186.442 658.491 186.171C659.144 185.65 659.57 184.794 659.57 183.943C659.57 180.347 659.57 176.751 659.57 173.155C659.57 171.153 658.163 169.601 656.169 169.413C650.448 168.883 644.726 168.408 638.997 167.984C639.024 176.52 639.051 185.055 639.078 193.591C641.941 194.016 644.797 194.473 647.649 194.961C647.642 192.229 647.636 189.498 647.63 186.766C648.319 186.864 648.661 186.916 649.35 187.016C650.131 189.899 650.901 192.785 651.668 195.672C654.451 196.181 657.23 196.719 660 197.289C660 195.921 660 195.236 660 193.87C659.71 193.082 659.564 192.689 659.273 191.905V191.907ZM651.018 180.614C649.657 180.439 648.976 180.354 647.613 180.189C647.609 178.22 647.607 177.235 647.603 175.266C648.966 175.41 649.647 175.483 651.01 175.635C651.014 177.627 651.014 178.622 651.018 180.614Z" fill="white"/>
<path d="M660 202.467C660 201.564 660 201.113 660 200.21C613.321 190.285 565.4 189.389 518.381 197.544C517.6 199.568 516.825 201.595 516.059 203.625C563.515 193.03 612.348 193.135 660 202.469V202.467Z" fill="white"/>
<path d="M504.86 169.813V176.73C506.906 176.471 507.929 176.348 509.979 176.106C509.975 180.364 509.971 184.621 509.965 188.878C511.741 186.59 513.543 184.325 515.37 182.076C514.274 184.89 513.195 187.712 512.121 190.534C511.393 192.456 510.67 194.381 509.956 196.306C511.132 196.081 511.718 195.97 512.896 195.755C512.896 196.004 512.896 196.127 512.896 196.375C512.892 199.011 512.888 201.648 512.883 204.287C514.026 201.233 515.178 198.185 516.343 195.14C517.214 192.875 517.648 191.751 518.518 189.521C517.239 189.715 516.598 189.813 515.32 190.015C516.381 187.258 517.454 184.506 518.539 181.759C518.546 179.559 518.55 177.358 518.556 175.157C520.201 174.988 521.024 174.905 522.669 174.746C523.222 173.378 523.498 172.698 524.051 171.342C524.055 170.062 524.057 169.421 524.062 168.143C517.656 168.631 511.257 169.188 504.864 169.811L504.86 169.813Z" fill="white"/>
</g>
<g clip-path="url(#clip4_3211_19124)">
<path d="M410.89 551.751L414.021 552.618L413.111 564.885C399.286 556.648 390 541.511 390 524.238C390 498.19 411.115 477 437.073 477C446.008 477 454.373 479.513 461.5 483.87C451.025 490.589 440.775 491.801 431.73 492.56C422.54 493.408 413.864 494.21 406.311 501.606L405.516 502.383C404.789 518.344 404.09 533.657 403.395 549.028C405.43 547.721 409.149 545.302 411.345 544.385L410.888 551.749L410.89 551.751Z" fill="black"/>
<path d="M484.146 524.238C484.146 550.283 463.03 571.477 437.073 571.477C431.444 571.477 426.038 570.48 421.031 568.651L434.844 547.954C445.165 550.222 454.905 549.751 464.339 545.327C466.103 527.583 467.954 508.867 469.795 490.312C478.64 498.904 484.146 510.937 484.146 524.24V524.238Z" fill="black"/>
<path d="M459.666 495.973C459.198 500.964 458.741 505.907 458.286 510.81C453.926 512.67 450.017 514.19 445.885 514.578C446.242 510.227 446.786 504.69 447.158 500.168C451.194 499.309 455.316 498.067 459.668 495.975L459.666 495.973Z" fill="black"/>
<path d="M456.915 525.248L455.642 538.96C451.781 540.058 447.596 540.447 443.791 540.263C444.121 536.173 444.461 532.057 444.799 527.9C448.844 527.866 452.659 526.708 456.915 525.248Z" fill="black"/>
<path d="M445.885 514.577C445.519 519.057 445.158 523.495 444.797 527.902C441.266 528.034 437.718 527.628 434.543 526.987C434.84 522.869 435.134 518.718 435.437 514.535C438.667 514.916 442.282 515.021 445.885 514.577Z" fill="black"/>
<path d="M436.451 501.432C436.144 505.652 435.733 510.419 435.437 514.535C432.275 514.204 429.261 513.768 426.353 513.466H426.351C426.596 509.594 426.842 505.698 427.09 501.76C430.106 501.612 433.159 501.593 436.451 501.432Z" fill="black"/>
<path d="M434.543 526.986C434.259 530.982 433.971 534.945 433.69 538.878C430.586 538.237 427.675 537.502 424.821 536.918C425.07 533.083 425.37 529.007 425.612 525.172H425.615C428.476 525.714 431.433 526.393 434.541 526.986H434.543Z" fill="black"/>
<path d="M426.353 513.467C426.105 517.398 425.859 521.3 425.615 525.172H425.612C422.926 524.63 420.169 524.341 417.654 524.523C417.857 520.868 418.059 517.199 418.266 513.496C420.82 513.094 423.619 513.148 426.351 513.467H426.353Z" fill="black"/>
<path d="M418.861 502.787C418.66 506.381 418.46 509.952 418.266 513.496C415.59 513.821 413.301 514.971 410.959 516.257L411.46 505.935C413.645 504.471 416.256 503.394 418.861 502.787Z" fill="black"/>
<path d="M417.654 524.52C417.454 528.235 417.224 532.215 417.02 535.869C414.519 535.838 412.188 536.033 409.942 536.802C410.105 533.436 410.272 530.047 410.435 526.635C412.747 525.556 415.014 524.614 417.652 524.518L417.654 524.52Z" fill="black"/>
<path d="M461.926 486.925C439.327 500.503 421.81 490.379 408.281 503.626C407.655 517.345 407.048 530.712 406.457 543.745C408.957 542.16 411.591 541.458 414.363 541.318L413.847 549.635L417.005 550.51L416.329 559.621L415.411 571.997L421.927 562.233L433.581 544.769C441.89 546.673 451.198 547.855 461.707 543.377C463.623 524.087 465.677 503.308 467.695 483C465.737 484.489 463.817 485.79 461.93 486.923L461.926 486.925ZM457.598 540.796C449.608 543.209 442.426 542.614 435.879 541.328C431.951 540.551 428.234 539.531 424.698 538.75H424.696L424.446 542.491V542.541C426.245 542.956 428.098 543.433 430.002 543.911C426.591 549.187 422.066 556.199 418.973 560.981C418.894 560.943 418.819 560.907 418.74 560.87L419.748 547.737L416.483 546.918L416.974 537.623C414.039 537.5 411.372 537.889 408.759 539.039C409.291 527.89 409.832 516.501 410.385 504.856C423.903 494.955 440.448 504.696 462.237 491.985C460.647 508.758 459.1 525.019 457.6 540.794L457.598 540.796Z" fill="black"/>
<path d="M504.91 499.931V494.088C510.314 494.088 515.718 494.088 521.121 494.088C521.119 495.179 521.117 495.726 521.113 496.817C520.647 497.937 520.414 498.501 519.948 499.63C518.56 499.655 517.865 499.668 516.477 499.693C516.465 505.255 516.454 510.82 516.442 516.383C514.035 516.568 511.629 516.758 509.222 516.957C509.227 511.25 509.233 505.545 509.237 499.837C507.505 499.873 506.639 499.892 504.908 499.931H504.91Z" fill="black"/>
<path d="M537.217 494.088C538.903 494.088 540.091 495.16 540.087 496.679C540.076 499.408 540.066 502.137 540.055 504.868C540.051 505.85 539.221 506.975 538.127 507.281C539.033 509.31 539.486 510.32 540.391 512.328C540.387 513.363 540.385 513.88 540.381 514.917C538.02 515.032 535.662 515.156 533.302 515.284C532.657 513.11 532.014 510.936 531.375 508.76C530.793 508.783 530.503 508.795 529.92 508.818C529.912 511.038 529.906 513.258 529.897 515.478C527.485 515.625 525.074 515.78 522.663 515.941C522.684 508.657 522.705 501.374 522.726 494.09H537.217V494.088ZM529.954 499.466C529.948 501.067 529.945 501.869 529.939 503.469C531.089 503.44 531.665 503.425 532.817 503.396C532.824 501.808 532.826 501.012 532.832 499.425C531.68 499.441 531.106 499.45 529.954 499.466Z" fill="black"/>
<path d="M557.22 494.088C558.28 499.957 559.347 505.823 560.417 511.69C560.415 512.689 560.413 513.189 560.411 514.188C557.992 514.251 555.573 514.322 553.152 514.4C552.985 512.768 552.902 511.954 552.735 510.32C551.464 510.353 550.827 510.372 549.556 510.41C549.364 512.062 549.27 512.89 549.078 514.544C546.672 514.639 544.265 514.739 541.859 514.846C541.863 513.813 541.865 513.298 541.869 512.266C542.967 506.206 544.069 500.147 545.177 494.088C549.191 494.088 553.206 494.088 557.22 494.088ZM552.221 505.247C552.006 503.234 551.793 501.222 551.578 499.209C551.261 499.211 551.103 499.213 550.783 499.215C550.556 501.238 550.328 503.264 550.101 505.289C550.948 505.272 551.372 505.264 552.219 505.247H552.221Z" fill="black"/>
<path d="M577.72 494.088C577.72 495.075 577.72 495.567 577.72 496.553C577.269 497.563 577.043 498.067 576.592 499.077C574.219 499.081 571.848 499.087 569.475 499.096C569.469 502.407 569.465 505.716 569.459 509.028C572.21 508.996 574.96 508.977 577.711 508.965C577.711 510.948 577.711 511.941 577.709 513.925C573.508 513.948 569.306 513.998 565.107 514.082C563.383 514.115 562.191 513.112 562.196 511.65C562.208 506.625 562.221 501.603 562.233 496.578C562.237 495.116 563.431 494.086 565.151 494.086C569.342 494.086 573.533 494.086 577.724 494.086L577.72 494.088Z" fill="black"/>
<path d="M589.729 494.088C592.023 494.088 594.316 494.088 596.61 494.088C596.61 495.079 596.612 495.575 596.614 496.566C595.725 498.868 594.836 501.167 593.943 503.469C595.032 506.165 596.12 508.86 597.203 511.556C597.203 512.546 597.205 513.043 597.207 514.036C594.796 513.998 592.388 513.969 589.977 513.945C589.324 511.38 588.669 508.814 588.015 506.248C587.485 506.248 587.22 506.246 586.69 506.244C586.69 508.804 586.692 511.363 586.694 513.922C584.284 513.914 581.873 513.912 579.462 513.918C579.464 507.308 579.466 500.698 579.471 494.088H586.684C586.684 496.486 586.686 498.886 586.688 501.285C587.218 501.285 587.483 501.285 588.013 501.287C588.585 498.886 589.157 496.486 589.729 494.086V494.088Z" fill="black"/>
<path d="M598.662 500.765C598.658 499.087 598.658 498.247 598.653 496.57C598.651 495.114 599.839 494.088 601.561 494.088H614.134C614.138 495.091 614.138 495.592 614.142 496.593C613.695 497.64 613.472 498.162 613.025 499.205C610.652 499.186 608.281 499.167 605.908 499.15C605.908 499.519 605.908 499.703 605.91 500.07C608.014 501.312 610.116 502.558 612.211 503.815C613.804 504.77 614.171 505.683 614.177 507.314C614.184 509.168 614.186 510.094 614.192 511.947C614.196 513.432 613.009 514.438 611.318 514.383C607.108 514.245 602.899 514.136 598.689 514.061C598.685 512.062 598.683 511.065 598.678 509.067C601.429 509.105 604.18 509.153 606.929 509.21C606.929 508.68 606.927 508.414 606.925 507.884C604.827 506.642 602.727 505.406 600.622 504.179C599.029 503.22 598.664 502.363 598.66 500.765H598.662Z" fill="black"/>
<path d="M615.956 514.548C615.933 507.729 615.908 500.909 615.885 494.09C618.289 494.09 620.693 494.09 623.098 494.09C623.123 501.01 623.15 507.932 623.175 514.852C620.768 514.745 618.362 514.643 615.956 514.548Z" fill="black"/>
<path d="M625.195 514.947C625.17 507.993 625.143 501.041 625.118 494.088H639.575C641.262 494.088 642.458 495.213 642.462 496.806C642.479 502.283 642.493 507.763 642.51 513.24C642.514 514.833 641.329 515.876 639.644 515.765C634.829 515.46 630.014 515.187 625.195 514.947ZM632.387 510.016C633.552 510.066 634.134 510.092 635.297 510.144C635.284 506.585 635.272 503.029 635.259 499.471C634.095 499.454 633.512 499.445 632.348 499.429C632.36 502.958 632.373 506.487 632.385 510.016H632.387Z" fill="black"/>
<path d="M658.844 499.906C659.305 498.74 659.537 498.153 660 496.978C660 495.822 660 495.244 660 494.088C654.839 494.088 649.677 494.088 644.516 494.088C644.534 501.425 644.555 508.764 644.574 516.101C649.719 516.471 654.862 516.882 660 517.328C660 515.003 660 513.841 660 511.518C657.253 511.336 654.505 511.164 651.756 511.001C651.756 509.765 651.754 509.145 651.752 507.909C654.116 508.026 656.483 508.146 658.848 508.269C658.848 505.955 658.848 504.799 658.848 502.485C656.481 502.411 654.112 502.34 651.745 502.271C651.745 501.266 651.743 500.763 651.741 499.758C654.11 499.806 656.479 499.854 658.848 499.906H658.844Z" fill="black"/>
<path d="M537.993 526.705C538.004 523.696 538.016 520.686 538.027 517.676C540.884 517.515 543.743 517.368 546.603 517.236C546.573 525.377 546.544 533.519 546.515 541.66C543.652 541.928 540.79 542.229 537.933 542.562C537.945 539.352 537.956 536.139 537.968 532.928C536.585 533.058 535.892 533.125 534.51 533.263C534.497 536.503 534.487 539.741 534.474 542.981C531.619 543.342 528.768 543.731 525.921 544.156C525.949 535.588 525.976 527.019 526.003 518.451C528.856 518.246 531.711 518.055 534.564 517.879C534.554 520.916 534.541 523.951 534.531 526.988C535.915 526.871 536.605 526.814 537.989 526.705H537.993Z" fill="black"/>
<path d="M569.745 516.52C569.732 524.409 569.72 532.297 569.707 540.187C563.945 540.398 558.197 540.719 552.447 541.148C550.395 541.309 548.98 540.185 548.986 538.415C549.011 531.319 549.036 524.223 549.059 517.127C551.933 517.005 554.809 516.899 557.685 516.806C557.669 522.799 557.652 528.791 557.633 534.785C559.006 534.708 559.693 534.672 561.066 534.605C561.081 528.638 561.098 522.673 561.112 516.706C563.988 516.628 566.867 516.566 569.745 516.52Z" fill="black"/>
<path d="M586.118 527.332C585.736 524.67 585.352 522.01 584.97 519.348C584.97 518.177 584.97 517.591 584.97 516.42C587.625 516.429 590.28 516.452 592.935 516.485C592.945 524.362 592.955 532.24 592.966 540.117C589.906 540.043 586.851 539.995 583.791 539.976C582.434 536.355 581.078 532.734 579.721 529.11C579.452 529.11 579.318 529.113 579.049 529.115C579.416 531.76 579.784 534.407 580.153 537.053C580.153 538.223 580.153 538.81 580.153 539.981C577.502 539.997 574.854 540.039 572.203 540.111C572.214 532.233 572.224 524.358 572.235 516.481C575.284 516.445 578.333 516.424 581.382 516.416C582.724 520.054 584.066 523.69 585.408 527.328C585.692 527.328 585.834 527.33 586.12 527.332H586.118Z" fill="black"/>
<path d="M595.462 540.195C595.45 532.305 595.437 524.413 595.422 516.523C601.164 516.628 606.904 516.785 612.641 516.997C614.649 517.074 616.072 518.387 616.077 520.159C616.097 526.25 616.118 532.341 616.139 538.433C616.145 540.205 614.73 541.328 612.718 541.169C606.968 540.735 601.22 540.413 595.458 540.197L595.462 540.195ZM604.061 534.615C605.451 534.684 606.146 534.72 607.534 534.8C607.522 530.814 607.511 526.83 607.501 522.844C606.113 522.788 605.42 522.763 604.032 522.715C604.042 526.682 604.053 530.648 604.063 534.615H604.061Z" fill="black"/>
<path d="M618.61 541.678C618.581 533.533 618.552 525.389 618.523 517.244C624.659 517.537 630.793 517.891 636.923 518.308C636.927 519.579 636.929 520.214 636.933 521.485C636.388 522.742 636.115 523.368 635.57 524.615C632.757 524.372 629.939 524.15 627.124 523.946C627.128 525.056 627.13 525.611 627.134 526.722C629.952 526.944 632.767 527.186 635.581 527.45C635.587 529.572 635.595 531.694 635.602 533.815C632.788 533.501 629.975 533.21 627.155 532.946C627.159 534.312 627.163 534.995 627.168 536.36C630.444 536.706 633.715 537.076 636.985 537.474C636.992 539.604 637 541.735 637.006 543.862C630.887 543.006 624.759 542.277 618.608 541.676L618.61 541.678Z" fill="black"/>
<path d="M659.274 542.478C658.489 540.361 658.097 539.309 657.31 537.223C657.748 537.173 658.151 536.991 658.491 536.719C659.144 536.195 659.57 535.336 659.57 534.482C659.57 530.871 659.57 527.26 659.57 523.649C659.57 521.638 658.163 520.08 656.17 519.892C650.451 519.36 644.731 518.882 639.004 518.457C639.031 527.028 639.058 535.598 639.085 544.168C641.946 544.596 644.802 545.054 647.653 545.545C647.646 542.801 647.64 540.059 647.634 537.315C648.323 537.414 648.665 537.466 649.354 537.567C650.134 540.461 650.904 543.36 651.67 546.259C654.452 546.77 657.23 547.31 660 547.882C660 546.508 660 545.821 660 544.449C659.71 543.657 659.564 543.264 659.274 542.476V542.478ZM651.021 531.139C649.66 530.963 648.98 530.877 647.617 530.712C647.613 528.734 647.611 527.746 647.607 525.769C648.97 525.913 649.65 525.987 651.013 526.139C651.017 528.14 651.017 529.139 651.021 531.139Z" fill="black"/>
<path d="M660 553.084C660 552.177 660 551.725 660 550.818C613.336 540.853 565.431 539.952 518.427 548.141C517.646 550.173 516.872 552.209 516.106 554.247C563.546 543.609 612.364 543.714 660 553.086V553.084Z" fill="black"/>
<path d="M504.908 520.297V527.242C506.954 526.982 507.976 526.859 510.026 526.616C510.022 530.891 510.018 535.165 510.011 539.44C511.787 537.142 513.589 534.868 515.415 532.61C514.319 535.435 513.24 538.269 512.167 541.103C511.439 543.032 510.717 544.965 510.003 546.898C511.178 546.672 511.765 546.561 512.942 546.345C512.942 546.595 512.942 546.718 512.942 546.968C512.937 549.615 512.933 552.262 512.929 554.912C514.071 551.845 515.223 548.785 516.388 545.728C517.258 543.453 517.692 542.324 518.562 540.085C517.283 540.28 516.642 540.378 515.365 540.582C516.425 537.813 517.498 535.05 518.583 532.292C518.589 530.082 518.594 527.872 518.6 525.663C520.244 525.493 521.067 525.409 522.711 525.25C523.265 523.876 523.54 523.193 524.093 521.832C524.097 520.546 524.099 519.903 524.104 518.619C517.7 519.109 511.303 519.668 504.913 520.295L504.908 520.297Z" fill="black"/>
</g>
</g>
<defs>
<clipPath id="clip0_3211_19124">
<rect width="700" height="700" fill="white"/>
</clipPath>
<clipPath id="clip1_3211_19124">
<rect width="270" height="95" fill="white" transform="translate(40 127)"/>
</clipPath>
<clipPath id="clip2_3211_19124">
<rect width="270" height="94" fill="white" transform="translate(40 478)"/>
</clipPath>
<clipPath id="clip3_3211_19124">
<rect width="270" height="94" fill="white" transform="translate(390 127)"/>
</clipPath>
<clipPath id="clip4_3211_19124">
<rect width="270" height="95" fill="white" transform="translate(390 477)"/>
</clipPath>
</defs>
</svg>
