<svg width="700" height="394" viewBox="0 0 700 394" fill="none" xmlns="http://www.w3.org/2000/svg">
<rect width="700" height="394" fill="#3F2E42"/>
<g clip-path="url(#clip0_3223_21780)">
<path d="M324.159 250.648L324.097 251.428C324.229 251.226 324.361 251.02 324.501 250.809C324.385 250.756 324.274 250.702 324.159 250.648Z" fill="#606060"/>
<path d="M266.059 132.468L268.421 129.099L266.351 125.978L263.564 124.02L252.543 139.733L258.188 143.691L261.131 139.489L277.937 151.273L282.861 144.252L266.059 132.468Z" fill="#FAFAFA"/>
<path d="M296.818 130.125L303.188 124.674L300.97 122.085L294.538 118.724C295.292 117.615 295.094 115.879 294.253 114.894L287.252 106.71C285.953 105.192 283.966 105.04 282.449 106.339L269.411 117.487L287.236 138.321L293.75 132.747L288.2 126.257L289.512 125.14L296.818 130.125ZM283.747 121.05L280.412 117.149L283.001 114.935L286.337 118.836L283.747 121.05Z" fill="#FAFAFA"/>
<path d="M322.864 111.418L309.175 91.3184L296.273 97.3834L303.011 120.749L304.462 123.833L312.189 120.201L310.338 114.968L313.739 113.369L316.551 118.151L324.315 114.502L322.864 111.418ZM307.987 108.499L305.233 100.793L306.082 100.393L310.255 107.431L307.987 108.499Z" fill="#FAFAFA"/>
<path d="M343.096 104.018L333.51 105.816L330.987 92.3827L339.262 90.8283L339.93 87.1546L339.299 83.8066L324.67 86.5526C322.67 86.9278 321.545 88.5771 321.912 90.5396L325.713 110.788C326.084 112.751 327.729 113.876 329.733 113.501L344.362 110.755L343.096 104.018Z" fill="#FAFAFA"/>
<path d="M368.466 84.5284L360.335 83.9965L357.651 93.7971L356.088 93.694L356.735 83.7656L348.213 83.209L346.432 110.57L354.954 111.126L355.643 100.534L357.205 100.637L358.822 111.378L367.344 111.935L367.567 108.533L364.458 97.2234L368.243 87.9299L368.466 84.5284Z" fill="#FAFAFA"/>
<path d="M380.77 87.4591C378.832 86.8324 377.059 87.7354 376.44 89.6361L374.659 95.1116C373.983 97.1979 374.028 98.4513 375.418 100.261L380.967 107.254L380.411 108.969L371.138 105.951L369.019 112.47L383.21 117.084C385.111 117.702 386.888 116.795 387.503 114.898L389.428 108.973C390.108 106.887 390.071 105.601 388.674 103.828L383.132 96.7938L383.52 95.6022L391.531 98.208L393.885 95.2641L394.928 92.0605L380.77 87.4591Z" fill="#FAFAFA"/>
<path d="M402.098 95.6641L388.896 119.693L396.379 123.804L409.581 99.7748L402.098 95.6641Z" fill="#FAFAFA"/>
<path d="M429.995 115.248L416.974 104.137L399.175 124.991L412.196 136.103C413.713 137.402 415.7 137.245 416.999 135.724L430.375 120.052C431.669 118.535 431.513 116.547 429.995 115.248ZM412.744 127.56L410.122 125.321L418.995 114.923L421.617 117.162L412.744 127.56Z" fill="#FAFAFA"/>
<path d="M438.679 124.428L416.29 140.252L426.87 155.219L432.469 151.265L426.816 143.27L429.884 141.097L434.745 147.975L440.345 144.017L435.483 137.143L437.978 135.379L442.839 142.252L446.476 141.361L449.259 139.395L438.679 124.428Z" fill="#FAFAFA"/>
<path d="M433.08 166.797L422.463 173.914C424.858 181.244 426.153 189.07 426.153 197.192C426.153 205.315 424.858 213.141 422.463 220.471L433.08 227.588C436.601 218.117 438.523 207.875 438.523 197.192C438.523 186.51 436.601 176.268 433.08 166.797ZM448.847 156.23L438.349 163.264C442.456 173.79 444.707 185.231 444.707 197.192C444.707 209.154 442.456 220.595 438.349 231.121L448.847 238.155C454.149 225.547 457.077 211.706 457.077 197.192C457.077 182.679 454.149 168.838 448.847 156.23ZM464.507 145.736L454.075 152.725C459.984 166.368 463.261 181.405 463.261 197.192C463.261 212.98 459.984 228.017 454.075 241.66L464.507 248.649C471.648 232.956 475.631 215.532 475.631 197.192C475.631 178.853 471.648 161.429 464.507 145.736Z" fill="#CB4848"/>
<path d="M247.925 152.725L237.493 145.736C230.352 161.429 226.369 178.853 226.369 197.192C226.369 215.532 230.352 232.956 237.493 248.649L247.925 241.66C242.017 228.017 238.739 212.98 238.739 197.192C238.739 181.405 242.017 166.368 247.925 152.725ZM263.651 163.264L253.153 156.23C247.851 168.838 244.923 182.679 244.923 197.192C244.923 211.706 247.851 225.547 253.153 238.155L263.651 231.121C259.544 220.595 257.293 209.154 257.293 197.192C257.293 185.231 259.544 173.79 263.651 163.264ZM279.537 173.914L268.92 166.797C265.403 176.268 263.478 186.51 263.478 197.192C263.478 207.875 265.403 218.117 268.92 227.588L279.537 220.471C277.142 213.141 275.847 205.315 275.847 197.192C275.847 189.07 277.142 181.244 279.537 173.914Z" fill="#CB4848"/>
<path d="M277.662 243.453L272.269 247.749L275.468 251.761L259.417 264.551L264.761 271.259L280.812 258.469L283.377 261.685L286.956 260.589L289.619 258.465L277.662 243.453Z" fill="#FAFAFA"/>
<path d="M303.242 268.955L297.581 277.131L294.744 275.168L300.409 266.992L293.392 262.131L277.777 284.668L284.799 289.529L290.844 280.804L293.676 282.767L287.632 291.491L294.653 296.357L310.264 273.816L303.242 268.955Z" fill="#FAFAFA"/>
<path d="M326.809 279.884L320.67 299.505L317.421 298.491L323.56 278.865L315.372 276.305L308.206 299.217C307.608 301.126 308.531 302.89 310.477 303.501L326.813 308.609L334.998 282.444L326.809 279.884Z" fill="#FAFAFA"/>
<path d="M353.313 283.347L353.304 286.753L354.418 296.042H353.713L349.75 283.339L340.659 283.314L340.593 310.737L348.468 310.758L348.476 307.348L347.4 298.1H348.068L352.072 310.766L361.159 310.787L361.225 283.364L353.313 283.347Z" fill="#FAFAFA"/>
<path d="M393.58 299.358L387.461 279.686C386.868 277.782 385.103 276.854 383.194 277.448L366.85 282.531L374.993 308.709L391.337 303.625C393.246 303.031 394.174 301.267 393.58 299.358ZM381.112 299.63L377.05 286.576L380.341 285.554L384.402 298.603L381.112 299.63Z" fill="#FAFAFA"/>
<path d="M418.281 280.75L410.076 286.093L408.027 282.943L415.082 278.35L411.342 272.607L404.283 277.2L402.617 274.64L409.672 270.046L408.922 266.377L407.058 263.52L391.699 273.526L406.666 296.5L422.025 286.493L418.281 280.75Z" fill="#FAFAFA"/>
<path d="M440.147 267.668L445.486 261.207L442.86 259.034L435.945 256.824C436.498 255.603 436.003 253.925 435.009 253.105L426.705 246.24C425.163 244.97 423.18 245.155 421.906 246.697L410.976 259.92L432.111 277.39L437.578 270.776L430.994 265.338L432.094 264.006L440.147 267.668ZM425.712 260.972L421.758 257.702L423.926 255.076L427.881 258.341L425.712 260.972Z" fill="#FAFAFA"/>
<path d="M447.878 100.126C422.001 74.2494 387.597 60 351 60C314.403 60 280.003 74.2494 254.127 100.126C228.25 126.007 214 160.41 214 196.998C214 233.586 228.25 267.993 254.127 293.874C280.003 319.751 314.407 334 351 334C387.593 334 422.001 319.751 447.878 293.874C473.75 267.993 488 233.59 488 196.998C488 160.406 473.75 126.007 447.878 100.126ZM443.503 289.499C418.793 314.209 385.94 327.815 351 327.815C316.06 327.815 283.207 314.209 258.497 289.499C233.791 264.79 220.185 231.941 220.185 196.998C220.185 162.055 233.791 129.21 258.497 104.501C283.203 79.795 316.056 66.1846 351 66.1846C385.944 66.1846 418.797 79.795 443.503 104.501C468.209 129.21 481.815 162.059 481.815 196.998C481.815 231.937 468.209 264.79 443.503 289.499Z" fill="#FFD655"/>
<path d="M351 128.273C312.939 128.273 282.081 159.131 282.081 197.191C282.081 230.79 306.119 258.769 337.933 264.876C339.525 265.181 341.137 265.432 342.762 265.622V240.78H332.441L335.051 234.175L339.603 222.635L334.713 228.205V184.859H320.727V156.409H382.686V171.442L382.352 172.296L377.417 184.859H367.752V199.772L361.287 216.153H370.024L367.414 222.758C364.053 231.281 356.471 250.49 352.632 260.2C352.439 260.691 352.253 261.157 352.08 261.598L350.299 266.108C350.53 266.113 350.76 266.113 350.995 266.113C352.525 266.113 354.047 266.063 355.552 265.964C391.489 263.618 419.914 233.726 419.914 197.191C419.914 160.656 389.056 128.273 350.995 128.273H351ZM357.976 259.833C361.992 249.657 368.783 232.46 371.912 224.531L377.132 211.317H368.399L372.593 200.691V189.691H380.719L386.863 174.048L387.527 172.353V151.581H315.903V189.691H329.889V234.117L325.345 245.617H337.937V258.852C309.582 252.824 288.245 227.586 288.245 197.463C288.245 162.854 316.398 134.701 351.008 134.701C385.618 134.701 413.77 162.858 413.77 197.463C413.77 229.71 389.32 256.357 357.984 259.837L357.976 259.833Z" fill="#FFD655"/>
<path d="M362.928 220.982H354.191L362.928 198.849V180.023H374.126L377.858 170.528V161.238H325.56V180.019H339.545V215.379L354.29 198.593C350.769 207.52 343.009 227.175 339.545 235.949H347.594V259.813C351.206 250.676 359.394 229.929 362.928 220.978V220.982Z" fill="#FAFAFA"/>
</g>
<defs>
<clipPath id="clip0_3223_21780">
<rect width="274" height="274" fill="white" transform="translate(214 60)"/>
</clipPath>
</defs>
</svg>
