<svg width="700" height="700" viewBox="0 0 700 700" fill="none" xmlns="http://www.w3.org/2000/svg">
<g clip-path="url(#clip0_3211_19124)">
<rect width="700" height="700" fill="#3F2E42"/>
<rect width="350" height="350" fill="#FFD655"/>
<rect x="350" y="350" width="350" height="350" fill="#FAFAFA"/>
<g clip-path="url(#clip1_3211_19124)">
<path d="M445 558.754V552.775C450.548 552.775 456.095 552.775 461.643 552.775C461.641 553.892 461.638 554.451 461.634 555.567C461.156 556.714 460.916 557.29 460.439 558.445C459.014 558.471 458.3 558.484 456.875 558.509C456.862 564.201 456.852 569.894 456.839 575.585C454.368 575.773 451.898 575.968 449.427 576.172C449.431 570.333 449.438 564.496 449.442 558.657C447.663 558.694 446.774 558.713 444.998 558.754H445Z" fill="black"/>
<path d="M478.168 552.775C479.899 552.775 481.118 553.872 481.114 555.426C481.103 558.218 481.092 561.01 481.082 563.804C481.077 564.809 480.225 565.96 479.102 566.273C480.032 568.349 480.497 569.382 481.427 571.437C481.422 572.495 481.42 573.024 481.416 574.085C478.993 574.203 476.571 574.329 474.148 574.46C473.486 572.236 472.826 570.012 472.17 567.785C471.572 567.809 471.274 567.822 470.677 567.845C470.668 570.117 470.662 572.388 470.653 574.659C468.176 574.809 465.701 574.968 463.226 575.133C463.248 567.68 463.269 560.23 463.291 552.778H478.168V552.775ZM470.711 558.276C470.704 559.913 470.702 560.734 470.696 562.371C471.876 562.341 472.468 562.326 473.651 562.296C473.657 560.671 473.659 559.857 473.666 558.233C472.483 558.25 471.894 558.259 470.711 558.276Z" fill="black"/>
<path d="M498.704 552.775C499.792 558.779 500.887 564.781 501.986 570.783C501.984 571.805 501.982 572.317 501.98 573.339C499.496 573.404 497.013 573.476 494.527 573.556C494.356 571.887 494.27 571.053 494.099 569.382C492.794 569.416 492.14 569.435 490.836 569.474C490.638 571.164 490.542 572.011 490.345 573.704C487.874 573.8 485.404 573.903 482.933 574.012C482.937 572.956 482.939 572.429 482.944 571.372C484.071 565.173 485.202 558.974 486.34 552.775C490.461 552.775 494.583 552.775 498.704 552.775ZM493.572 564.192C493.351 562.133 493.133 560.074 492.912 558.014C492.586 558.017 492.423 558.019 492.095 558.021C491.862 560.091 491.628 562.163 491.395 564.235C492.265 564.218 492.7 564.209 493.57 564.192H493.572Z" fill="black"/>
<path d="M519.75 552.776C519.75 553.785 519.75 554.288 519.75 555.298C519.287 556.33 519.055 556.847 518.593 557.88C516.156 557.884 513.722 557.89 511.286 557.899C511.279 561.287 511.275 564.672 511.269 568.06C514.093 568.028 516.917 568.008 519.741 567.996C519.741 570.025 519.741 571.04 519.739 573.07C515.426 573.093 511.112 573.145 506.801 573.23C505.031 573.265 503.808 572.238 503.812 570.743C503.825 565.602 503.838 560.464 503.851 555.323C503.855 553.828 505.08 552.773 506.846 552.773C511.149 552.773 515.451 552.773 519.754 552.773L519.75 552.776Z" fill="black"/>
<path d="M532.079 552.776C534.434 552.776 536.789 552.776 539.144 552.776C539.144 553.789 539.146 554.297 539.148 555.31C538.235 557.665 537.322 560.018 536.405 562.373C537.524 565.131 538.64 567.888 539.752 570.646C539.752 571.66 539.754 572.167 539.757 573.183C537.282 573.145 534.809 573.115 532.334 573.091C531.663 570.466 530.991 567.841 530.32 565.216C529.776 565.216 529.504 565.214 528.959 565.212C528.959 567.831 528.961 570.449 528.964 573.067C526.489 573.059 524.014 573.057 521.539 573.063C521.541 566.301 521.543 559.538 521.548 552.776H528.953C528.953 555.229 528.955 557.685 528.957 560.138C529.501 560.138 529.774 560.138 530.318 560.14C530.905 557.685 531.492 555.229 532.079 552.773V552.776Z" fill="black"/>
<path d="M541.25 559.606C541.246 557.89 541.246 557.031 541.241 555.315C541.239 553.825 542.459 552.775 544.226 552.775H557.134C557.139 553.802 557.139 554.314 557.143 555.338C556.684 556.409 556.455 556.943 555.996 558.01C553.56 557.991 551.126 557.972 548.69 557.954C548.69 558.332 548.69 558.52 548.692 558.895C550.852 560.166 553.009 561.441 555.161 562.726C556.796 563.703 557.173 564.638 557.179 566.307C557.186 568.203 557.188 569.15 557.194 571.047C557.199 572.566 555.979 573.594 554.244 573.539C549.922 573.397 545.6 573.286 541.278 573.209C541.274 571.164 541.271 570.145 541.267 568.1C544.091 568.139 546.915 568.188 549.737 568.246C549.737 567.704 549.735 567.432 549.733 566.89C547.58 565.619 545.424 564.355 543.262 563.099C541.627 562.118 541.252 561.241 541.248 559.606H541.25Z" fill="black"/>
<path d="M559.007 573.706C558.983 566.729 558.958 559.752 558.934 552.775C561.403 552.775 563.871 552.775 566.339 552.775C566.365 559.855 566.393 566.937 566.419 574.016C563.948 573.907 561.478 573.802 559.007 573.706Z" fill="black"/>
<path d="M568.493 574.115C568.467 567.001 568.439 559.889 568.414 552.775H583.256C584.988 552.775 586.216 553.926 586.22 555.557C586.237 561.16 586.252 566.765 586.269 572.369C586.273 573.999 585.056 575.066 583.327 574.953C578.384 574.64 573.441 574.361 568.493 574.115ZM575.877 569.071C577.072 569.122 577.67 569.148 578.864 569.202C578.851 565.561 578.838 561.923 578.825 558.282C577.63 558.265 577.032 558.257 575.836 558.239C575.849 561.85 575.862 565.46 575.875 569.071H575.877Z" fill="black"/>
<path d="M603.038 558.726C603.512 557.532 603.75 556.933 604.225 555.73C604.225 554.548 604.225 553.956 604.225 552.773C598.926 552.773 593.627 552.773 588.328 552.773C588.348 560.279 588.369 567.788 588.388 575.294C593.67 575.673 598.95 576.093 604.225 576.549C604.225 574.171 604.225 572.982 604.225 570.605C601.406 570.419 598.584 570.243 595.762 570.076C595.762 568.812 595.759 568.178 595.757 566.913C598.185 567.033 600.615 567.156 603.043 567.282C603.043 564.914 603.043 563.731 603.043 561.364C600.613 561.289 598.181 561.216 595.751 561.145C595.751 560.117 595.749 559.602 595.747 558.574C598.179 558.623 600.611 558.672 603.043 558.726H603.038Z" fill="black"/>
<path d="M478.967 586.142C478.978 583.063 478.99 579.984 479.001 576.905C481.935 576.74 484.87 576.59 487.806 576.455C487.776 584.784 487.746 593.113 487.716 601.442C484.776 601.716 481.838 602.024 478.905 602.365C478.918 599.08 478.928 595.793 478.941 592.509C477.52 592.641 476.809 592.71 475.391 592.851C475.378 596.166 475.367 599.479 475.354 602.794C472.423 603.162 469.496 603.561 466.573 603.996C466.601 595.23 466.629 586.464 466.657 577.698C469.586 577.488 472.517 577.293 475.446 577.113C475.436 580.22 475.423 583.325 475.412 586.432C476.833 586.312 477.542 586.254 478.963 586.142H478.967Z" fill="black"/>
<path d="M511.564 575.723C511.552 583.794 511.539 591.864 511.526 599.936C505.61 600.152 499.709 600.48 493.805 600.919C491.699 601.084 490.246 599.934 490.253 598.123C490.278 590.863 490.304 583.604 490.328 576.344C493.278 576.22 496.231 576.11 499.184 576.016C499.167 582.147 499.149 588.277 499.13 594.41C500.54 594.33 501.245 594.294 502.655 594.225C502.67 588.121 502.687 582.018 502.702 575.913C505.655 575.834 508.61 575.77 511.564 575.723Z" fill="black"/>
<path d="M528.374 586.785C527.982 584.062 527.588 581.34 527.196 578.617C527.196 577.419 527.196 576.819 527.196 575.621C529.921 575.63 532.647 575.654 535.373 575.688C535.383 583.747 535.394 591.806 535.405 599.865C532.263 599.79 529.126 599.74 525.985 599.721C524.592 596.016 523.2 592.311 521.807 588.604C521.53 588.604 521.393 588.607 521.117 588.609C521.494 591.315 521.871 594.023 522.25 596.73C522.25 597.927 522.25 598.527 522.25 599.725C519.529 599.742 516.81 599.785 514.089 599.858C514.099 591.799 514.11 583.742 514.121 575.684C517.251 575.647 520.382 575.626 523.512 575.617C524.89 579.339 526.268 583.059 527.646 586.781C527.937 586.781 528.083 586.783 528.376 586.785H528.374Z" fill="black"/>
<path d="M537.967 599.944C537.955 591.872 537.942 583.798 537.927 575.727C543.821 575.834 549.714 575.994 555.604 576.211C557.666 576.29 559.127 577.634 559.131 579.446C559.153 585.677 559.174 591.909 559.196 598.142C559.202 599.955 557.749 601.103 555.684 600.94C549.78 600.497 543.879 600.167 537.963 599.946L537.967 599.944ZM546.795 594.236C548.223 594.306 548.936 594.343 550.361 594.424C550.348 590.347 550.337 586.271 550.327 582.193C548.902 582.136 548.19 582.11 546.765 582.061C546.776 586.119 546.787 590.177 546.798 594.236H546.795Z" fill="black"/>
<path d="M561.73 601.46C561.7 593.127 561.67 584.796 561.64 576.463C567.94 576.763 574.238 577.125 580.531 577.551C580.535 578.852 580.537 579.501 580.542 580.802C579.982 582.088 579.702 582.728 579.142 584.003C576.254 583.755 573.361 583.528 570.471 583.32C570.475 584.455 570.477 585.023 570.481 586.159C573.374 586.386 576.265 586.635 579.153 586.905C579.16 589.075 579.168 591.246 579.175 593.416C576.286 593.095 573.398 592.797 570.503 592.527C570.507 593.924 570.511 594.623 570.516 596.02C573.88 596.373 577.238 596.753 580.595 597.16C580.602 599.339 580.61 601.518 580.617 603.695C574.334 602.819 568.043 602.073 561.728 601.458L561.73 601.46Z" fill="black"/>
<path d="M603.48 602.282C602.674 600.116 602.271 599.04 601.463 596.906C601.913 596.855 602.327 596.668 602.676 596.39C603.347 595.854 603.784 594.975 603.784 594.101C603.784 590.407 603.784 586.713 603.784 583.019C603.784 580.962 602.34 579.368 600.293 579.175C594.422 578.631 588.549 578.142 582.669 577.707C582.697 586.475 582.725 595.243 582.753 604.011C585.691 604.449 588.622 604.918 591.549 605.419C591.542 602.612 591.536 599.807 591.53 597C592.237 597.101 592.588 597.155 593.295 597.257C594.097 600.219 594.887 603.184 595.674 606.15C598.53 606.673 601.382 607.226 604.225 607.81C604.225 606.405 604.225 605.702 604.225 604.299C603.928 603.489 603.778 603.086 603.48 602.28V602.282ZM595.007 590.681C593.61 590.501 592.912 590.414 591.512 590.244C591.508 588.221 591.506 587.21 591.502 585.187C592.901 585.335 593.6 585.41 594.999 585.567C595.003 587.613 595.003 588.635 595.007 590.681Z" fill="black"/>
<path d="M604.223 613.132C604.223 612.205 604.223 611.742 604.223 610.814C556.316 600.619 507.133 599.697 458.876 608.076C458.075 610.154 457.28 612.237 456.494 614.322C505.198 603.439 555.317 603.546 604.223 613.135V613.132Z" fill="black"/>
<path d="M445 579.585V586.691C447.1 586.425 448.15 586.299 450.254 586.05C450.25 590.423 450.245 594.797 450.239 599.17C452.062 596.82 453.912 594.493 455.787 592.183C454.662 595.073 453.554 597.972 452.452 600.872C451.705 602.845 450.963 604.823 450.23 606.801C451.437 606.569 452.039 606.456 453.247 606.235C453.247 606.49 453.247 606.616 453.247 606.871C453.243 609.58 453.239 612.288 453.235 614.999C454.407 611.862 455.589 608.731 456.785 605.603C457.679 603.276 458.124 602.121 459.018 599.83C457.704 600.029 457.047 600.13 455.735 600.338C456.824 597.505 457.925 594.679 459.039 591.857C459.046 589.596 459.05 587.336 459.056 585.075C460.745 584.902 461.589 584.816 463.278 584.653C463.845 583.247 464.128 582.549 464.696 581.156C464.7 579.84 464.703 579.183 464.707 577.869C458.133 578.371 451.565 578.943 445.004 579.583L445 579.585Z" fill="black"/>
<path d="M494.883 518.9L498.453 519.886L497.416 533.82C481.656 524.463 471.073 507.271 471.073 487.654C471.073 458.067 495.14 434 524.725 434C534.91 434 544.443 436.854 552.566 441.804C540.627 449.436 528.944 450.812 518.636 451.673C508.162 452.635 498.273 453.548 489.663 461.948L488.759 462.831C487.93 480.96 487.135 498.349 486.342 515.808C488.661 514.323 492.901 511.574 495.404 510.535L494.883 518.9Z" fill="black"/>
<path d="M578.377 487.652C578.377 517.233 554.31 541.304 524.725 541.304C518.31 541.304 512.149 540.171 506.443 538.095L522.188 514.587C533.952 517.162 545.053 516.629 555.804 511.604C557.813 491.451 559.922 470.193 562.022 449.119C572.103 458.877 578.38 472.544 578.38 487.652H578.377Z" fill="black"/>
<path d="M550.477 455.549C549.943 461.216 549.425 466.83 548.904 472.399C543.935 474.512 539.48 476.239 534.768 476.678C535.175 471.739 535.795 465.448 536.219 460.312C540.819 459.337 545.518 457.927 550.477 455.549Z" fill="black"/>
<path d="M547.342 488.799L545.891 504.372C541.49 505.617 536.72 506.061 532.386 505.853C532.76 501.207 533.15 496.532 533.534 491.809C538.143 491.771 542.493 490.455 547.342 488.799Z" fill="black"/>
<path d="M534.768 476.68C534.35 481.767 533.941 486.811 533.53 491.814C529.506 491.964 525.46 491.503 521.843 490.775C522.18 486.097 522.518 481.383 522.861 476.633C526.542 477.066 530.665 477.186 534.77 476.68H534.768Z" fill="black"/>
<path d="M524.016 461.75C523.667 466.543 523.197 471.958 522.861 476.631C519.257 476.256 515.822 475.761 512.509 475.419H512.507C512.786 471.022 513.066 466.595 513.347 462.123C516.784 461.954 520.264 461.934 524.016 461.75Z" fill="black"/>
<path d="M521.843 490.772C521.52 495.311 521.192 499.811 520.87 504.278C517.333 503.55 514.014 502.716 510.763 502.05C511.046 497.694 511.389 493.065 511.665 488.709H511.667C514.929 489.326 518.299 490.095 521.843 490.77V490.772Z" fill="black"/>
<path d="M512.509 475.418C512.227 479.883 511.944 484.315 511.669 488.714H511.667C508.605 488.097 505.462 487.771 502.597 487.974C502.828 483.824 503.06 479.654 503.293 475.45C506.205 474.994 509.396 475.056 512.509 475.418Z" fill="black"/>
<path d="M503.966 463.287C503.739 467.369 503.51 471.423 503.289 475.449C500.24 475.818 497.63 477.125 494.96 478.586L495.532 466.863C498.022 465.201 500.999 463.977 503.968 463.287H503.966Z" fill="black"/>
<path d="M502.593 487.971C502.366 492.192 502.102 496.711 501.871 500.861C499.021 500.827 496.362 501.048 493.805 501.92C493.992 498.097 494.18 494.249 494.367 490.375C497.002 489.149 499.586 488.08 502.593 487.971Z" fill="black"/>
<path d="M553.052 445.275C527.294 460.699 507.328 449.196 491.909 464.245C491.195 479.825 490.503 495.008 489.828 509.811C492.678 508.011 495.68 507.214 498.839 507.053L498.252 516.5L501.849 517.494L501.078 527.842L500.032 541.898L507.459 530.809L520.742 510.976C530.211 513.14 540.821 514.482 552.797 509.393C554.981 487.483 557.323 463.885 559.622 440.818C557.391 442.509 555.201 443.987 553.052 445.273V445.275ZM548.118 506.459C539.011 509.2 530.826 508.523 523.365 507.064C518.886 506.181 514.65 505.021 510.622 504.137H510.619L510.334 508.386V508.443C512.385 508.915 514.498 509.457 516.668 510.001C512.782 515.994 507.624 523.957 504.099 529.389C504.009 529.348 503.923 529.305 503.833 529.265L504.982 514.349L501.262 513.419L501.821 502.862C498.477 502.72 495.438 503.164 492.458 504.469C493.064 491.807 493.681 478.871 494.309 465.642C509.715 454.399 528.574 465.462 553.408 451.024C551.595 470.075 549.832 488.544 548.122 506.461L548.118 506.459Z" fill="black"/>
</g>
<g clip-path="url(#clip2_3211_19124)">
<path d="M147.045 163.943L150.363 164.858L149.398 177.814C134.745 169.115 124.904 153.128 124.904 134.887C124.906 107.377 147.284 85 174.793 85C184.264 85 193.128 87.654 200.68 92.2556C189.578 99.353 178.717 100.632 169.131 101.432C159.393 102.328 150.196 103.175 142.192 110.985L141.349 111.805C140.578 128.663 139.839 144.832 139.101 161.066C141.258 159.684 145.2 157.13 147.527 156.161L147.043 163.938L147.045 163.943Z" fill="#3F2E42"/>
<path d="M201.46 100.828C199.773 118.541 198.135 135.713 196.544 152.375C188.076 154.922 180.467 154.294 173.527 152.934C169.365 152.114 165.425 151.038 161.679 150.213H161.677L161.409 154.164V154.218C163.317 154.657 165.28 155.163 167.299 155.666C163.685 161.237 158.889 168.642 155.611 173.694C155.527 173.654 155.446 173.616 155.364 173.576L156.431 159.706L152.973 158.842L153.492 149.026C150.381 148.894 147.556 149.306 144.786 150.521C145.35 138.746 145.922 126.72 146.508 114.419C160.835 103.963 178.367 114.252 201.46 100.828Z" fill="#FAFAFA"/>
<path d="M224.68 134.886C224.68 162.391 202.303 184.773 174.793 184.773C168.828 184.773 163.099 183.719 157.793 181.789L172.431 159.931C183.37 162.327 193.692 161.83 203.689 157.159C205.558 138.421 207.519 118.655 209.469 99.0586C218.844 108.133 224.678 120.841 224.678 134.889L224.68 134.886Z" fill="#3F2E42"/>
<path d="M198.739 105.037C198.244 110.307 197.761 115.528 197.277 120.707C192.658 122.67 188.515 124.277 184.134 124.685C184.513 120.092 185.09 114.243 185.482 109.467C189.759 108.56 194.128 107.25 198.739 105.037Z" fill="#3F2E42"/>
<path d="M195.822 135.955L194.474 150.437C190.383 151.596 185.946 152.008 181.915 151.812C182.265 147.494 182.626 143.146 182.982 138.754C187.267 138.718 191.312 137.495 195.822 135.955Z" fill="#3F2E42"/>
<path d="M184.132 124.685C183.744 129.416 183.361 134.105 182.98 138.757C179.236 138.898 175.477 138.468 172.112 137.79C172.427 133.443 172.739 129.057 173.059 124.641C176.482 125.044 180.315 125.153 184.132 124.685Z" fill="#3F2E42"/>
<path d="M174.133 110.803C173.808 115.259 173.371 120.293 173.059 124.639C169.708 124.289 166.514 123.83 163.435 123.511H163.433C163.693 119.422 163.952 115.306 164.215 111.148C167.41 110.99 170.646 110.972 174.136 110.803H174.133Z" fill="#3F2E42"/>
<path d="M172.112 137.789C171.811 142.01 171.506 146.195 171.207 150.348C167.918 149.671 164.832 148.895 161.808 148.278C162.071 144.229 162.39 139.924 162.646 135.875H162.648C165.681 136.448 168.814 137.165 172.11 137.791L172.112 137.789Z" fill="#3F2E42"/>
<path d="M163.433 123.511C163.17 127.663 162.907 131.785 162.65 135.874H162.648C159.8 135.302 156.879 134.996 154.214 135.188C154.428 131.328 154.644 127.451 154.862 123.543C157.57 123.119 160.536 123.175 163.43 123.514H163.433V123.511Z" fill="#3F2E42"/>
<path d="M155.491 112.234C155.279 116.032 155.067 119.8 154.86 123.543C152.026 123.887 149.599 125.101 147.114 126.46L147.645 115.561C149.96 114.015 152.728 112.878 155.489 112.237L155.491 112.234Z" fill="#3F2E42"/>
<path d="M154.214 135.184C154.002 139.108 153.757 143.31 153.543 147.17C150.894 147.137 148.423 147.344 146.043 148.155C146.216 144.601 146.393 141.022 146.564 137.419C149.015 136.278 151.418 135.284 154.214 135.184Z" fill="#3F2E42"/>
<path d="M201.132 95.4824C177.179 109.822 158.617 99.1303 144.277 113.12C143.616 127.609 142.972 141.726 142.345 155.49C144.995 153.815 147.785 153.075 150.722 152.926L150.176 161.71L153.521 162.635L152.805 172.257L151.832 185.326L158.74 175.015L171.089 156.573C179.894 158.586 189.761 159.833 200.896 155.103C202.926 134.731 205.103 112.786 207.24 91.3398C205.166 92.9131 203.131 94.2858 201.132 95.4824ZM196.544 152.375C188.076 154.922 180.466 154.294 173.527 152.934C169.365 152.114 165.425 151.038 161.679 150.214H161.677L161.409 154.165V154.218C163.317 154.657 165.28 155.163 167.299 155.666C163.684 161.237 158.889 168.642 155.611 173.694C155.526 173.654 155.446 173.616 155.364 173.576L156.431 159.706L152.973 158.842L153.492 149.026C150.381 148.894 147.555 149.307 144.786 150.521C145.349 138.746 145.922 126.72 146.508 114.419C160.834 103.964 178.367 114.252 201.46 100.828C199.773 118.542 198.135 135.714 196.544 152.375Z" fill="#3F2E42"/>
<path d="M92.0003 207.59V201.373C97.7695 201.373 103.539 201.373 109.308 201.373C109.306 202.534 109.304 203.116 109.299 204.277C108.802 205.469 108.553 206.068 108.056 207.269C106.574 207.296 105.832 207.309 104.35 207.336C104.337 213.255 104.325 219.176 104.312 225.094C101.743 225.29 99.1734 225.493 96.6041 225.702C96.6086 219.63 96.6152 213.56 96.6197 207.488C94.7701 207.526 93.8454 207.546 91.998 207.588L92.0003 207.59Z" fill="#3F2E42"/>
<path d="M126.496 201.373C128.296 201.373 129.564 202.514 129.56 204.13C129.549 207.033 129.537 209.939 129.529 212.843C129.524 213.888 128.637 215.086 127.47 215.41C128.437 217.569 128.92 218.643 129.887 220.78C129.883 221.881 129.881 222.433 129.876 223.534C127.356 223.657 124.838 223.788 122.318 223.924C121.629 221.611 120.943 219.298 120.261 216.983C119.639 217.007 119.329 217.021 118.708 217.045C118.699 219.407 118.692 221.769 118.683 224.134C116.107 224.29 113.533 224.455 110.959 224.624C110.982 216.874 111.004 209.126 111.026 201.375H126.498L126.496 201.373ZM118.739 207.096C118.732 208.8 118.73 209.651 118.723 211.354C119.951 211.323 120.566 211.307 121.796 211.276C121.803 209.585 121.805 208.74 121.812 207.051C120.582 207.069 119.969 207.078 118.739 207.096Z" fill="#3F2E42"/>
<path d="M147.852 201.373C148.984 207.617 150.123 213.859 151.266 220.1C151.264 221.163 151.262 221.696 151.259 222.759C148.677 222.826 146.094 222.901 143.509 222.984C143.331 221.248 143.242 220.381 143.063 218.643C141.706 218.679 141.027 218.699 139.67 218.739C139.465 220.497 139.364 221.377 139.159 223.138C136.59 223.238 134.021 223.345 131.451 223.459C131.456 222.36 131.458 221.812 131.462 220.713C132.635 214.264 133.811 207.818 134.994 201.373C139.28 201.373 143.567 201.373 147.852 201.373ZM142.513 213.246C142.283 211.104 142.056 208.963 141.827 206.821C141.488 206.824 141.319 206.826 140.978 206.828C140.735 208.983 140.492 211.136 140.249 213.29C141.154 213.273 141.606 213.264 142.511 213.246H142.513Z" fill="#3F2E42"/>
<path d="M169.737 201.373C169.737 202.423 169.737 202.947 169.737 203.996C169.256 205.07 169.015 205.607 168.534 206.681C166 206.686 163.467 206.692 160.935 206.701C160.929 210.224 160.924 213.745 160.917 217.268C163.854 217.235 166.791 217.215 169.728 217.201C169.728 219.312 169.728 220.368 169.726 222.478C165.241 222.503 160.755 222.556 156.271 222.645C154.431 222.681 153.158 221.614 153.163 220.058C153.176 214.712 153.189 209.367 153.203 204.023C153.207 202.467 154.482 201.371 156.318 201.371C160.793 201.371 165.267 201.371 169.742 201.371L169.737 201.373Z" fill="#3F2E42"/>
<path d="M182.562 201.373C185.011 201.373 187.46 201.373 189.909 201.373C189.909 202.427 189.911 202.955 189.913 204.009C188.964 206.458 188.015 208.907 187.061 211.354C188.224 214.222 189.385 217.09 190.542 219.96C190.542 221.016 190.544 221.542 190.546 222.598C187.972 222.558 185.401 222.527 182.827 222.503C182.129 219.773 181.43 217.043 180.732 214.313C180.166 214.313 179.883 214.311 179.317 214.309C179.317 217.032 179.319 219.755 179.322 222.478C176.748 222.469 174.174 222.467 171.6 222.474C171.603 215.441 171.605 208.408 171.609 201.375H179.311C179.311 203.929 179.313 206.48 179.315 209.034C179.881 209.034 180.164 209.034 180.73 209.036C181.341 206.483 181.951 203.929 182.562 201.375V201.373Z" fill="#3F2E42"/>
<path d="M192.099 208.477C192.095 206.692 192.095 205.799 192.09 204.014C192.088 202.465 193.356 201.373 195.194 201.373H208.618C208.622 202.44 208.622 202.973 208.627 204.038C208.15 205.152 207.912 205.707 207.435 206.817C204.901 206.797 202.37 206.777 199.836 206.759C199.836 207.151 199.836 207.347 199.838 207.74C202.084 209.061 204.328 210.389 206.566 211.724C208.266 212.74 208.658 213.712 208.663 215.447C208.669 217.42 208.672 218.405 208.678 220.377C208.683 221.959 207.415 223.026 205.61 222.968C201.115 222.821 196.62 222.705 192.126 222.625C192.121 220.499 192.119 219.436 192.115 217.313C195.052 217.353 197.989 217.404 200.923 217.464C200.923 216.9 200.921 216.617 200.919 216.054C198.679 214.732 196.438 213.417 194.189 212.109C192.489 211.089 192.099 210.177 192.095 208.477H192.099Z" fill="#3F2E42"/>
<path d="M210.563 223.142C210.539 215.886 210.512 208.629 210.488 201.373C213.055 201.373 215.622 201.373 218.189 201.373C218.216 208.738 218.242 216.1 218.271 223.465C215.702 223.352 213.133 223.242 210.563 223.142Z" fill="#3F2E42"/>
<path d="M220.428 223.565C220.402 216.167 220.373 208.769 220.346 201.373H235.782C237.582 201.373 238.859 202.57 238.864 204.265C238.879 210.093 238.897 215.922 238.913 221.749C238.917 223.445 237.651 224.555 235.853 224.437C230.712 224.111 225.571 223.822 220.426 223.565H220.428ZM228.107 218.32C229.351 218.373 229.972 218.4 231.214 218.456C231.2 214.67 231.187 210.886 231.174 207.1C229.93 207.082 229.308 207.073 228.065 207.055C228.078 210.81 228.092 214.567 228.105 218.322L228.107 218.32Z" fill="#3F2E42"/>
<path d="M256.354 207.563C256.847 206.322 257.094 205.698 257.589 204.448V201.373C252.078 201.373 246.567 201.373 241.057 201.373C241.077 209.181 241.097 216.987 241.119 224.796C246.612 225.19 252.103 225.624 257.589 226.101C257.589 223.628 257.589 222.391 257.589 219.92C254.654 219.726 251.722 219.543 248.787 219.369C248.787 218.055 248.785 217.395 248.782 216.08C251.307 216.205 253.834 216.332 256.359 216.464C256.359 214.001 256.359 212.771 256.359 210.309C253.832 210.231 251.303 210.155 248.776 210.082C248.776 209.012 248.774 208.477 248.771 207.407C251.3 207.459 253.83 207.51 256.359 207.566L256.354 207.563Z" fill="#3F2E42"/>
<path d="M127.325 236.075C127.336 232.873 127.349 229.668 127.36 226.466C130.411 226.294 133.464 226.138 136.517 225.998C136.486 234.66 136.454 243.321 136.423 251.983C133.366 252.268 130.311 252.589 127.26 252.944C127.273 249.528 127.285 246.109 127.298 242.693C125.821 242.831 125.081 242.903 123.606 243.05C123.592 246.497 123.581 249.942 123.568 253.389C120.519 253.77 117.475 254.187 114.436 254.637C114.465 245.521 114.494 236.405 114.523 227.288C117.569 227.07 120.617 226.867 123.666 226.68C123.655 229.911 123.641 233.14 123.63 236.371C125.107 236.246 125.845 236.186 127.322 236.07L127.325 236.075Z" fill="#3F2E42"/>
<path d="M161.225 225.238C161.211 233.633 161.198 242.027 161.185 250.421C155.032 250.646 148.895 250.987 142.756 251.444C140.566 251.616 139.055 250.419 139.061 248.536C139.088 240.986 139.115 233.436 139.139 225.887C142.208 225.757 145.279 225.644 148.349 225.546C148.331 231.921 148.314 238.299 148.294 244.674C149.76 244.592 150.493 244.554 151.959 244.483C151.975 238.134 151.993 231.785 152.008 225.439C155.079 225.356 158.152 225.29 161.225 225.241V225.238Z" fill="#3F2E42"/>
<path d="M178.707 236.747C178.299 233.915 177.889 231.083 177.481 228.253C177.481 227.007 177.481 226.383 177.481 225.137C180.316 225.146 183.15 225.171 185.985 225.206C185.996 233.587 186.007 241.97 186.018 250.351C182.753 250.273 179.489 250.222 176.222 250.202C174.774 246.349 173.325 242.494 171.877 238.641C171.589 238.641 171.447 238.643 171.159 238.646C171.551 241.46 171.944 244.277 172.338 247.091C172.338 248.337 172.338 248.961 172.338 250.207C169.508 250.224 166.68 250.269 163.85 250.345C163.861 241.964 163.872 233.583 163.884 225.202C167.139 225.164 170.395 225.142 173.651 225.133C175.083 229.004 176.516 232.874 177.949 236.743C178.252 236.743 178.404 236.745 178.709 236.747H178.707Z" fill="#3F2E42"/>
<path d="M188.683 250.432C188.669 242.035 188.656 233.641 188.64 225.244C194.771 225.356 200.899 225.523 207.025 225.748C209.168 225.83 210.686 227.227 210.692 229.113C210.715 235.593 210.737 242.075 210.759 248.555C210.766 250.44 209.255 251.635 207.107 251.465C200.968 251.004 194.831 250.661 188.678 250.432H188.683ZM197.864 244.495C199.348 244.569 200.09 244.607 201.572 244.691C201.558 240.451 201.547 236.21 201.534 231.969C200.052 231.909 199.312 231.882 197.83 231.831C197.841 236.052 197.852 240.272 197.864 244.495Z" fill="#3F2E42"/>
<path d="M213.396 252.008C213.365 243.342 213.333 234.676 213.302 226.012C219.854 226.324 226.401 226.7 232.945 227.144C232.95 228.496 232.952 229.172 232.957 230.524C232.375 231.861 232.083 232.527 231.501 233.853C228.498 233.597 225.489 233.359 222.483 233.143C222.488 234.324 222.49 234.914 222.494 236.095C225.503 236.331 228.509 236.59 231.513 236.871C231.519 239.128 231.528 241.385 231.535 243.643C228.531 243.308 225.527 242.999 222.517 242.718C222.521 244.171 222.526 244.897 222.53 246.35C226.029 246.716 229.52 247.112 233.012 247.536C233.019 249.802 233.028 252.068 233.035 254.334C226.501 253.423 219.958 252.65 213.391 252.008H213.396Z" fill="#3F2E42"/>
<path d="M256.813 252.858C255.975 250.605 255.556 249.487 254.716 247.267C255.184 247.214 255.614 247.02 255.978 246.73C256.675 246.173 257.13 245.26 257.13 244.348C257.13 240.506 257.13 236.665 257.13 232.823C257.13 230.684 255.628 229.026 253.497 228.825C247.392 228.259 241.284 227.751 235.169 227.299C235.198 236.417 235.227 245.538 235.256 254.657C238.311 255.111 241.359 255.599 244.403 256.121C244.397 253.202 244.39 250.285 244.383 247.365C245.119 247.47 245.486 247.526 246.22 247.633C247.053 250.712 247.875 253.796 248.695 256.881C251.666 257.422 254.632 257.999 257.589 258.608V254.955C257.279 254.113 257.123 253.694 256.813 252.856V252.858ZM248.002 240.794C246.549 240.607 245.823 240.515 244.368 240.339C244.363 238.236 244.361 237.184 244.357 235.08C245.812 235.234 246.538 235.312 247.993 235.475C247.998 237.603 248 238.666 248.002 240.794Z" fill="#3F2E42"/>
<path d="M257.589 261.73V264.141C206.722 254.185 154.596 254.083 103.942 265.412C104.765 263.232 105.596 261.055 106.434 258.882C156.619 250.174 207.769 251.132 257.591 261.73H257.589Z" fill="#3F2E42"/>
<path d="M112.482 230.893C112.486 229.525 112.488 228.841 112.493 227.475C105.656 227.996 98.8262 228.591 92.0029 229.257V236.647C94.1867 236.37 95.2786 236.239 97.4669 235.98C97.4602 241.228 97.4558 246.474 97.4491 251.722C98.8953 249.821 100.359 247.931 101.841 246.057C100.357 249.885 98.8908 253.72 97.4424 257.562C98.6992 257.322 99.3276 257.203 100.587 256.972C100.582 260.009 100.578 263.048 100.573 266.086C102.539 260.882 104.54 255.695 106.577 250.521C105.239 250.723 104.573 250.826 103.236 251.04C104.346 248.19 105.467 245.344 106.599 242.503C106.605 239.991 106.61 237.48 106.617 234.969C108.373 234.788 109.251 234.699 111.007 234.53C111.597 233.068 111.891 232.341 112.482 230.893Z" fill="#3F2E42"/>
</g>
<rect y="350" width="350" height="350" fill="black"/>
<g clip-path="url(#clip3_3211_19124)">
<path d="M200.819 505.021C189.806 509.694 180.046 508.462 171.337 506.474L153.995 532.34C160.375 535.195 167.444 536.765 174.871 536.767C202.525 537.338 226.888 513.001 226.316 485.382C226.378 469.702 219.099 454.78 206.784 445.074L200.816 505.021H200.819ZM172.666 509.794C183.491 512.157 193.686 511.67 203.582 507.054C205.303 489.822 207.071 472.036 208.876 453.896C208.887 453.907 208.896 453.918 208.907 453.929C216.877 462.513 221.242 473.615 221.242 485.384C221.778 510.208 199.819 532.193 175.001 531.679C169.762 531.679 164.626 530.813 159.722 529.095L172.666 509.791V509.794Z" fill="#FAFAFA"/>
<path d="M150.653 511.551L151.194 502.875C148.29 503.022 145.529 503.754 142.909 505.408C143.529 491.809 144.167 477.863 144.823 463.552C158.839 449.887 176.943 460.054 200.243 446.6C201.834 445.694 203.319 444.738 204.895 443.642C196.206 437.379 185.798 434 174.873 434C146.504 434 123.426 457.049 123.426 485.385C123.426 505.738 135.33 523.347 152.543 531.678C152.964 525.836 153.576 517.691 153.964 512.464L150.656 511.549L150.653 511.551ZM142.761 461.438L141.925 462.252C141.163 478.906 140.431 494.877 139.702 510.914C141.834 509.55 145.732 507.021 148.038 506.071L147.559 513.756L150.839 514.662L150.111 524.429C136.902 516.125 128.5 500.97 128.612 485.345C128.548 459.642 149.819 438.925 174.873 439.07C182.86 439.07 190.541 441.074 197.336 444.846C187.118 450.374 178.122 451.203 169.402 452.006C159.773 452.89 150.676 453.727 142.761 461.441V461.438Z" fill="#FAFAFA"/>
<path d="M162.993 486.027C165.992 486.593 169.091 487.301 172.35 487.92C172.659 483.624 172.971 479.292 173.286 474.93C169.971 474.586 166.813 474.132 163.767 473.814C163.507 477.915 163.249 481.988 162.995 486.027H162.993Z" fill="#FAFAFA"/>
<path d="M162.028 500.194H162.031C165.736 501.008 169.632 502.072 173.75 502.883C180.614 504.226 188.139 504.848 196.515 502.33C198.089 485.872 199.709 468.907 201.377 451.408C178.539 464.67 161.196 454.508 147.027 464.835C146.449 476.986 145.882 488.868 145.324 500.498C148.062 499.299 150.859 498.891 153.933 499.021L153.419 508.719L156.84 509.574L155.783 523.274L155.738 523.832C155.833 523.687 155.928 523.541 156.028 523.389C159.27 518.4 164.012 511.086 167.588 505.579C165.593 505.081 163.651 504.583 161.761 504.149V504.096L162.026 500.192L162.028 500.194ZM194.467 500.412C190.419 501.556 186.034 501.964 182.046 501.772C182.392 497.507 182.748 493.211 183.103 488.872C187.343 488.837 191.342 487.629 195.802 486.106L194.467 500.412ZM154.648 485.35C154.439 489.225 154.196 493.376 153.984 497.187C151.362 497.154 148.919 497.357 146.566 498.159C146.738 494.648 146.91 491.112 147.083 487.554C149.506 486.428 151.883 485.447 154.648 485.345C154.86 481.536 155.074 477.707 155.288 473.843C152.483 474.182 150.084 475.381 147.628 476.724L148.153 465.955C150.444 464.427 153.181 463.305 155.911 462.671C155.701 466.42 155.491 470.146 155.288 473.843C157.965 473.424 160.901 473.479 163.763 473.814C164.019 469.775 164.277 465.708 164.536 461.601C167.696 461.445 170.896 461.427 174.348 461.26C174.026 465.662 173.595 470.635 173.286 474.929C176.672 475.328 180.461 475.436 184.237 474.973C184.613 470.437 185.182 464.657 185.573 459.939C189.803 459.042 194.125 457.748 198.684 455.564C198.195 460.77 197.716 465.926 197.239 471.043C192.67 472.983 188.572 474.57 184.24 474.973C183.856 479.647 183.478 484.278 183.101 488.874C179.4 489.013 175.681 488.588 172.353 487.92C172.055 492.088 171.752 496.222 171.459 500.326C168.206 499.656 165.154 498.891 162.163 498.281C162.423 494.28 162.739 490.027 162.993 486.026C160.177 485.46 157.288 485.16 154.65 485.347L154.648 485.35Z" fill="#FAFAFA"/>
<path d="M255.777 557.106C256.265 555.878 256.51 555.261 257 554.025V550.982C251.542 550.982 246.084 550.982 240.626 550.982C240.646 558.707 240.666 566.429 240.688 574.153C246.128 574.543 251.566 574.973 257 575.445C257 572.998 257 571.774 257 569.33C254.093 569.138 251.189 568.957 248.282 568.785C248.282 567.485 248.28 566.832 248.278 565.532C250.778 565.655 253.281 565.781 255.782 565.911C255.782 563.475 255.782 562.258 255.782 559.822C253.279 559.745 250.774 559.67 248.271 559.597C248.271 558.539 248.269 558.01 248.267 556.952C250.772 557.003 253.277 557.053 255.782 557.108L255.777 557.106Z" fill="#FAFAFA"/>
<path d="M93 557.135V550.984C98.7139 550.984 104.428 550.984 110.142 550.984C110.14 552.133 110.137 552.708 110.133 553.857C109.641 555.036 109.394 555.629 108.901 556.817C107.434 556.844 106.699 556.857 105.231 556.883C105.218 562.738 105.207 568.595 105.194 574.45C102.649 574.644 100.104 574.845 97.5597 575.052C97.5641 569.045 97.5707 563.04 97.5751 557.033C95.7433 557.071 94.8274 557.091 92.9978 557.132L93 557.135Z" fill="#FAFAFA"/>
<path d="M127.164 550.984C128.948 550.984 130.203 552.113 130.199 553.711C130.188 556.584 130.177 559.458 130.168 562.331C130.164 563.364 129.285 564.55 128.129 564.87C129.087 567.006 129.566 568.069 130.523 570.183C130.519 571.272 130.517 571.818 130.512 572.907C128.016 573.029 125.522 573.159 123.026 573.293C122.344 571.005 121.665 568.717 120.989 566.426C120.373 566.451 120.067 566.464 119.451 566.488C119.442 568.825 119.435 571.161 119.427 573.5C116.875 573.655 114.326 573.818 111.777 573.985C111.799 566.318 111.821 558.654 111.843 550.987H127.167L127.164 550.984ZM119.482 556.643C119.475 558.329 119.473 559.172 119.466 560.856C120.682 560.825 121.292 560.809 122.51 560.779C122.516 559.105 122.519 558.27 122.525 556.599C121.307 556.617 120.7 556.625 119.482 556.643Z" fill="#FAFAFA"/>
<path d="M148.316 550.984C149.437 557.161 150.565 563.336 151.697 569.51C151.695 570.562 151.693 571.089 151.691 572.14C149.133 572.206 146.575 572.281 144.015 572.363C143.838 570.646 143.75 569.788 143.573 568.069C142.229 568.104 141.556 568.124 140.212 568.163C140.009 569.903 139.91 570.773 139.707 572.515C137.162 572.614 134.617 572.72 132.073 572.832C132.077 571.746 132.079 571.203 132.084 570.116C133.245 563.737 134.41 557.36 135.582 550.984C139.826 550.984 144.072 550.984 148.316 550.984ZM143.028 562.729C142.801 560.611 142.576 558.493 142.349 556.374C142.013 556.376 141.845 556.379 141.508 556.381C141.267 558.512 141.027 560.642 140.786 562.774C141.682 562.756 142.13 562.747 143.026 562.729H143.028Z" fill="#FAFAFA"/>
<path d="M169.991 550.985C169.991 552.023 169.991 552.541 169.991 553.579C169.515 554.642 169.276 555.173 168.799 556.236C166.29 556.24 163.781 556.247 161.274 556.255C161.267 559.741 161.263 563.224 161.256 566.709C164.165 566.676 167.074 566.656 169.982 566.643C169.982 568.73 169.982 569.775 169.98 571.863C165.538 571.887 161.095 571.94 156.654 572.028C154.831 572.063 153.571 571.007 153.576 569.469C153.589 564.18 153.602 558.892 153.615 553.606C153.62 552.067 154.882 550.982 156.701 550.982C161.132 550.982 165.564 550.982 169.996 550.982L169.991 550.985Z" fill="#FAFAFA"/>
<path d="M182.693 550.984C185.118 550.984 187.544 550.984 189.969 550.984C189.969 552.027 189.971 552.55 189.973 553.592C189.033 556.015 188.093 558.437 187.148 560.858C188.301 563.695 189.45 566.532 190.596 569.371C190.596 570.416 190.598 570.937 190.6 571.981C188.051 571.942 185.504 571.911 182.955 571.887C182.264 569.186 181.571 566.486 180.881 563.785C180.32 563.785 180.04 563.783 179.479 563.781C179.479 566.475 179.481 569.169 179.484 571.862C176.934 571.854 174.385 571.851 171.836 571.858C171.839 564.901 171.841 557.944 171.845 550.987H179.473C179.473 553.513 179.475 556.037 179.477 558.563C180.038 558.563 180.318 558.563 180.878 558.565C181.483 556.039 182.088 553.513 182.693 550.987V550.984Z" fill="#FAFAFA"/>
<path d="M192.138 558.012C192.134 556.246 192.134 555.362 192.13 553.597C192.127 552.065 193.383 550.984 195.204 550.984H208.499C208.503 552.04 208.503 552.567 208.508 553.621C208.035 554.723 207.799 555.272 207.327 556.37C204.818 556.35 202.311 556.33 199.801 556.312C199.801 556.7 199.801 556.894 199.803 557.282C202.028 558.59 204.25 559.903 206.466 561.224C208.15 562.229 208.539 563.19 208.543 564.907C208.55 566.858 208.552 567.833 208.559 569.784C208.563 571.349 207.307 572.405 205.52 572.347C201.068 572.202 196.616 572.087 192.165 572.008C192.161 569.905 192.158 568.853 192.154 566.753C195.063 566.792 197.972 566.843 200.878 566.902C200.878 566.345 200.876 566.065 200.874 565.507C198.656 564.2 196.435 562.899 194.209 561.605C192.525 560.596 192.138 559.694 192.134 558.012H192.138Z" fill="#FAFAFA"/>
<path d="M210.426 572.519C210.401 565.342 210.375 558.162 210.351 550.984C212.893 550.984 215.436 550.984 217.978 550.984C218.005 558.27 218.031 565.553 218.06 572.839C215.515 572.727 212.97 572.618 210.426 572.519Z" fill="#FAFAFA"/>
<path d="M220.196 572.938C220.17 565.619 220.141 558.301 220.114 550.984H235.402C237.186 550.984 238.45 552.168 238.455 553.846C238.47 559.61 238.488 565.377 238.503 571.142C238.508 572.819 237.254 573.917 235.473 573.8C230.381 573.478 225.29 573.192 220.194 572.938H220.196ZM227.801 567.749C229.033 567.802 229.649 567.828 230.878 567.883C230.865 564.138 230.851 560.395 230.838 556.65C229.607 556.632 228.991 556.623 227.759 556.606C227.773 560.32 227.786 564.037 227.799 567.751L227.801 567.749Z" fill="#FAFAFA"/>
<path d="M127.985 585.314C127.996 582.146 128.01 578.976 128.021 575.809C131.042 575.639 134.066 575.485 137.089 575.346C137.058 583.914 137.027 592.483 136.997 601.051C133.969 601.334 130.943 601.651 127.921 602.001C127.935 598.622 127.946 595.241 127.959 591.861C126.496 591.998 125.763 592.068 124.302 592.214C124.289 595.624 124.278 599.032 124.264 602.442C121.245 602.819 118.23 603.232 115.22 603.677C115.249 594.659 115.277 585.64 115.306 576.622C118.323 576.406 121.342 576.205 124.361 576.02C124.35 579.217 124.337 582.411 124.326 585.607C125.789 585.484 126.52 585.424 127.983 585.31L127.985 585.314Z" fill="#FAFAFA"/>
<path d="M161.56 574.594L161.521 599.506C155.427 599.728 149.349 600.066 143.269 600.518C141.099 600.687 139.603 599.504 139.61 597.641C139.636 590.172 139.663 582.704 139.687 575.235C142.726 575.107 145.767 574.995 148.808 574.898C148.791 581.205 148.773 587.514 148.753 593.821C150.205 593.739 150.932 593.702 152.384 593.631C152.399 587.351 152.417 581.07 152.432 574.792C155.474 574.711 158.517 574.644 161.56 574.596V574.594Z" fill="#FAFAFA"/>
<path d="M178.874 585.978C178.471 583.176 178.064 580.374 177.661 577.574C177.661 576.342 177.661 575.725 177.661 574.493C180.468 574.502 183.275 574.526 186.082 574.561C186.094 582.852 186.105 591.145 186.116 599.436C182.882 599.358 179.649 599.308 176.414 599.288C174.979 595.477 173.545 591.663 172.11 587.851C171.825 587.851 171.684 587.854 171.399 587.856C171.788 590.64 172.176 593.426 172.567 596.211C172.567 597.443 172.567 598.06 172.567 599.292C169.764 599.31 166.963 599.354 164.16 599.429C164.171 591.138 164.182 582.847 164.193 574.557C167.418 574.519 170.642 574.497 173.867 574.488C175.286 578.317 176.705 582.146 178.124 585.973C178.424 585.973 178.574 585.975 178.877 585.978H178.874Z" fill="#FAFAFA"/>
<path d="M188.755 599.514C188.742 591.208 188.729 582.904 188.713 574.598C194.785 574.708 200.854 574.873 206.921 575.096C209.044 575.177 210.547 576.56 210.554 578.425C210.576 584.835 210.598 591.248 210.62 597.658C210.627 599.523 209.13 600.705 207.003 600.537C200.922 600.081 194.844 599.741 188.751 599.514H188.755ZM197.848 593.642C199.318 593.714 200.053 593.752 201.52 593.836C201.507 589.641 201.496 585.446 201.483 581.251C200.015 581.191 199.283 581.165 197.815 581.114C197.826 585.289 197.837 589.464 197.848 593.642Z" fill="#FAFAFA"/>
<path d="M213.231 601.076C213.2 592.503 213.169 583.93 213.138 575.359C219.627 575.668 226.111 576.041 232.593 576.479C232.597 577.817 232.599 578.485 232.604 579.823C232.028 581.146 231.739 581.805 231.163 583.117C228.188 582.863 225.208 582.627 222.231 582.413C222.235 583.582 222.238 584.166 222.242 585.334C225.221 585.568 228.199 585.824 231.174 586.101C231.18 588.335 231.189 590.568 231.196 592.801C228.221 592.47 225.246 592.164 222.264 591.886C222.268 593.323 222.273 594.042 222.277 595.479C225.742 595.841 229.201 596.233 232.659 596.652C232.666 598.894 232.674 601.136 232.681 603.377C226.21 602.476 219.73 601.711 213.226 601.076H213.231Z" fill="#FAFAFA"/>
<path d="M256.232 601.915C255.402 599.687 254.987 598.58 254.155 596.385C254.619 596.332 255.045 596.14 255.404 595.853C256.095 595.302 256.545 594.398 256.545 593.497C256.545 589.696 256.545 585.896 256.545 582.096C256.545 579.979 255.058 578.339 252.948 578.141C246.901 577.581 240.851 577.078 234.795 576.631C234.824 585.651 234.853 594.674 234.881 603.694C237.907 604.144 240.926 604.627 243.941 605.143C243.935 602.255 243.928 599.369 243.921 596.482C244.65 596.585 245.014 596.64 245.74 596.746C246.565 599.793 247.38 602.844 248.192 605.894C251.134 606.43 254.071 607.001 257 607.603V603.99C256.693 603.157 256.539 602.742 256.232 601.913V601.915ZM247.505 589.981C246.067 589.796 245.347 589.705 243.906 589.531C243.901 587.45 243.899 586.41 243.895 584.329C245.336 584.481 246.055 584.558 247.497 584.719C247.501 586.824 247.503 587.876 247.505 589.981Z" fill="#FAFAFA"/>
<path d="M257 610.691V613.076C206.621 603.227 154.995 603.126 104.827 614.333C105.642 612.177 106.465 610.023 107.295 607.874C156.999 599.259 207.658 600.207 257.002 610.691H257Z" fill="#FAFAFA"/>
<path d="M113.285 580.186C113.289 578.833 113.291 578.156 113.296 576.805C106.524 577.321 99.76 577.909 93.0022 578.568V585.878C95.1651 585.605 96.2465 585.475 98.4138 585.219C98.4071 590.41 98.4027 595.6 98.3961 600.791C99.8284 598.911 101.278 597.041 102.746 595.187C101.276 598.974 99.824 602.768 98.3895 606.569C99.6342 606.331 100.257 606.214 101.504 605.985C101.499 608.989 101.495 611.996 101.49 615.001C103.437 609.853 105.419 604.721 107.436 599.603C106.112 599.803 105.452 599.905 104.128 600.116C105.227 597.297 106.337 594.482 107.458 591.671C107.465 589.187 107.469 586.703 107.476 584.218C109.215 584.04 110.084 583.951 111.823 583.784C112.408 582.338 112.7 581.619 113.285 580.186Z" fill="#FAFAFA"/>
</g>
<rect x="350" y="-1" width="350" height="350" fill="#CB4848"/>
<g clip-path="url(#clip4_3211_19124)">
<path d="M550.819 157.021C539.806 161.694 530.046 160.462 521.338 158.474L503.995 184.34C510.375 187.195 517.444 188.765 524.871 188.767C552.525 189.338 576.888 165.001 576.316 137.382C576.378 121.702 569.099 106.78 556.784 97.0742L550.816 157.021H550.819ZM522.666 161.794C533.491 164.157 543.686 163.67 553.582 159.054C555.303 141.822 557.071 124.036 558.876 105.896C558.887 105.907 558.896 105.918 558.907 105.929C566.877 114.513 571.242 125.615 571.242 137.384C571.778 162.208 549.819 184.193 525.001 183.679C519.762 183.679 514.626 182.813 509.722 181.095L522.666 161.791V161.794Z" fill="#FAFAFA"/>
<path d="M500.653 163.551L501.194 154.875C498.29 155.022 495.529 155.754 492.909 157.408C493.529 143.809 494.167 129.863 494.823 115.552C508.839 101.887 526.943 112.054 550.243 98.6004C551.834 97.6944 553.319 96.7377 554.895 95.6421C546.206 89.3794 535.798 86 524.873 86C496.504 86 473.426 109.049 473.426 137.385C473.426 157.738 485.33 175.347 502.543 183.678C502.964 177.836 503.576 169.691 503.964 164.464L500.656 163.549L500.653 163.551ZM492.761 113.438L491.925 114.252C491.163 130.906 490.431 146.877 489.702 162.914C491.834 161.55 495.732 159.021 498.038 158.071L497.559 165.756L500.839 166.662L500.111 176.429C486.902 168.125 478.5 152.97 478.612 137.345C478.548 111.642 499.819 90.9247 524.873 91.0702C532.86 91.0702 540.541 93.074 547.336 96.8457C537.118 102.374 528.122 103.203 519.402 104.006C509.773 104.89 500.676 105.727 492.761 113.441V113.438Z" fill="#FAFAFA"/>
<path d="M512.993 138.027C515.992 138.593 519.091 139.301 522.351 139.92C522.659 135.624 522.971 131.292 523.286 126.93C519.971 126.586 516.813 126.132 513.767 125.814C513.507 129.915 513.249 133.988 512.995 138.027H512.993Z" fill="#FAFAFA"/>
<path d="M512.028 152.194H512.031C515.736 153.008 519.631 154.072 523.75 154.883C530.614 156.226 538.139 156.848 546.515 154.33C548.089 137.872 549.708 120.907 551.377 103.408C528.539 116.67 511.196 106.508 497.027 116.835C496.449 128.986 495.882 140.868 495.324 152.498C498.062 151.299 500.859 150.891 503.933 151.021L503.419 160.719L506.84 161.574L505.783 175.274L505.738 175.832C505.833 175.687 505.928 175.541 506.028 175.389C509.27 170.4 514.012 163.086 517.588 157.579C515.593 157.081 513.651 156.583 511.761 156.149V156.096L512.026 152.192L512.028 152.194ZM544.467 152.412C540.419 153.556 536.034 153.964 532.046 153.772C532.392 149.507 532.748 145.211 533.103 140.872C537.343 140.837 541.342 139.629 545.802 138.106L544.467 152.412ZM504.648 137.35C504.438 141.225 504.196 145.376 503.984 149.187C501.362 149.154 498.919 149.357 496.566 150.159C496.738 146.648 496.91 143.112 497.083 139.554C499.506 138.428 501.883 137.447 504.648 137.345C504.86 133.536 505.074 129.707 505.288 125.843C502.483 126.182 500.084 127.381 497.628 128.724L498.153 117.955C500.444 116.427 503.18 115.305 505.911 114.671C505.701 118.42 505.491 122.146 505.288 125.843C507.965 125.424 510.901 125.479 513.763 125.814C514.019 121.775 514.277 117.708 514.536 113.601C517.696 113.445 520.896 113.427 524.348 113.26C524.026 117.662 523.595 122.635 523.286 126.929C526.672 127.328 530.461 127.436 534.237 126.973C534.613 122.437 535.182 116.657 535.573 111.939C539.803 111.042 544.125 109.748 548.684 107.564C548.194 112.77 547.716 117.926 547.239 123.043C542.67 124.983 538.572 126.57 534.24 126.973C533.856 131.647 533.478 136.278 533.101 140.874C529.4 141.013 525.681 140.588 522.353 139.92C522.055 144.088 521.752 148.222 521.459 152.326C518.206 151.656 515.153 150.891 512.163 150.281C512.423 146.28 512.739 142.027 512.993 138.026C510.177 137.46 507.288 137.16 504.65 137.347L504.648 137.35Z" fill="#FAFAFA"/>
<path d="M605.777 209.106C606.265 207.878 606.51 207.261 607 206.025V202.982C601.542 202.982 596.084 202.982 590.626 202.982C590.646 210.707 590.666 218.429 590.688 226.153C596.128 226.543 601.566 226.973 607 227.445C607 224.998 607 223.774 607 221.33C604.093 221.138 601.189 220.957 598.282 220.785C598.282 219.485 598.28 218.832 598.278 217.532C600.778 217.655 603.281 217.781 605.782 217.911C605.782 215.475 605.782 214.258 605.782 211.822C603.279 211.745 600.774 211.67 598.271 211.597C598.271 210.539 598.269 210.01 598.267 208.952C600.772 209.003 603.277 209.053 605.782 209.108L605.777 209.106Z" fill="#FAFAFA"/>
<path d="M443 209.135V202.984C448.714 202.984 454.428 202.984 460.142 202.984C460.14 204.133 460.137 204.708 460.133 205.857C459.641 207.036 459.394 207.629 458.901 208.817C457.434 208.844 456.699 208.857 455.231 208.883C455.218 214.738 455.207 220.595 455.194 226.45C452.649 226.644 450.104 226.845 447.56 227.052C447.564 221.045 447.571 215.04 447.575 209.033C445.743 209.071 444.827 209.091 442.998 209.132L443 209.135Z" fill="#FAFAFA"/>
<path d="M477.164 202.984C478.948 202.984 480.203 204.113 480.199 205.711C480.188 208.584 480.177 211.458 480.168 214.331C480.164 215.364 479.285 216.55 478.129 216.87C479.087 219.006 479.566 220.069 480.523 222.183C480.519 223.272 480.517 223.818 480.512 224.907C478.016 225.029 475.522 225.159 473.026 225.293C472.344 223.005 471.665 220.717 470.989 218.426C470.373 218.451 470.067 218.464 469.451 218.488C469.442 220.825 469.435 223.161 469.427 225.5C466.875 225.655 464.326 225.818 461.777 225.985C461.799 218.318 461.821 210.654 461.843 202.987H477.167L477.164 202.984ZM469.482 208.643C469.475 210.329 469.473 211.172 469.466 212.856C470.682 212.825 471.292 212.809 472.51 212.779C472.516 211.105 472.519 210.27 472.525 208.599C471.307 208.617 470.7 208.625 469.482 208.643Z" fill="#FAFAFA"/>
<path d="M498.316 202.984C499.437 209.161 500.565 215.336 501.697 221.51C501.695 222.562 501.693 223.089 501.691 224.14C499.133 224.206 496.575 224.281 494.015 224.363C493.838 222.646 493.75 221.788 493.573 220.069C492.229 220.104 491.556 220.124 490.212 220.163C490.009 221.903 489.91 222.773 489.707 224.515C487.162 224.614 484.617 224.72 482.073 224.832C482.077 223.746 482.079 223.203 482.084 222.116C483.245 215.737 484.41 209.36 485.582 202.984C489.826 202.984 494.072 202.984 498.316 202.984ZM493.028 214.729C492.801 212.611 492.576 210.493 492.349 208.374C492.013 208.376 491.845 208.379 491.508 208.381C491.267 210.512 491.027 212.642 490.786 214.774C491.682 214.756 492.13 214.747 493.026 214.729H493.028Z" fill="#FAFAFA"/>
<path d="M519.991 202.985C519.991 204.023 519.991 204.541 519.991 205.579C519.515 206.642 519.276 207.173 518.799 208.236C516.29 208.24 513.781 208.247 511.274 208.255C511.267 211.741 511.263 215.224 511.256 218.709C514.165 218.676 517.074 218.656 519.982 218.643C519.982 220.73 519.982 221.775 519.98 223.863C515.537 223.887 511.095 223.94 506.654 224.028C504.831 224.063 503.571 223.007 503.576 221.469C503.589 216.18 503.602 210.892 503.615 205.606C503.62 204.067 504.882 202.982 506.701 202.982C511.132 202.982 515.564 202.982 519.996 202.982L519.991 202.985Z" fill="#FAFAFA"/>
<path d="M532.693 202.984C535.118 202.984 537.543 202.984 539.969 202.984C539.969 204.027 539.971 204.55 539.973 205.592C539.033 208.015 538.093 210.437 537.148 212.858C538.3 215.695 539.45 218.532 540.596 221.371C540.596 222.416 540.598 222.937 540.6 223.981C538.051 223.942 535.504 223.911 532.955 223.887C532.264 221.186 531.571 218.486 530.881 215.785C530.32 215.785 530.04 215.783 529.479 215.781C529.479 218.475 529.481 221.169 529.484 223.862C526.934 223.854 524.385 223.851 521.836 223.858C521.838 216.901 521.841 209.944 521.845 202.987H529.472C529.472 205.513 529.475 208.037 529.477 210.563C530.037 210.563 530.318 210.563 530.878 210.565C531.483 208.039 532.088 205.513 532.693 202.987V202.984Z" fill="#FAFAFA"/>
<path d="M542.138 210.012C542.134 208.246 542.134 207.362 542.13 205.597C542.127 204.065 543.383 202.984 545.204 202.984H558.499C558.503 204.04 558.503 204.567 558.508 205.621C558.035 206.723 557.799 207.272 557.327 208.37C554.818 208.35 552.311 208.33 549.801 208.312C549.801 208.7 549.801 208.894 549.803 209.282C552.028 210.59 554.25 211.903 556.466 213.224C558.15 214.229 558.539 215.19 558.543 216.907C558.55 218.858 558.552 219.833 558.559 221.784C558.563 223.349 557.307 224.405 555.52 224.347C551.068 224.202 546.616 224.087 542.165 224.008C542.161 221.905 542.158 220.853 542.154 218.753C545.063 218.792 547.972 218.843 550.878 218.902C550.878 218.345 550.876 218.065 550.874 217.507C548.656 216.2 546.435 214.899 544.209 213.605C542.525 212.596 542.138 211.694 542.134 210.012H542.138Z" fill="#FAFAFA"/>
<path d="M560.426 224.519C560.401 217.342 560.375 210.162 560.351 202.984C562.893 202.984 565.436 202.984 567.978 202.984C568.005 210.27 568.031 217.553 568.06 224.839C565.515 224.727 562.97 224.618 560.426 224.519Z" fill="#FAFAFA"/>
<path d="M570.196 224.938C570.17 217.619 570.141 210.301 570.114 202.984H585.402C587.186 202.984 588.45 204.168 588.455 205.846C588.47 211.61 588.488 217.377 588.503 223.142C588.508 224.819 587.254 225.917 585.473 225.8C580.381 225.478 575.29 225.192 570.194 224.938H570.196ZM577.801 219.749C579.033 219.802 579.649 219.828 580.878 219.883C580.865 216.138 580.851 212.395 580.838 208.65C579.607 208.632 578.991 208.623 577.759 208.606C577.773 212.32 577.786 216.037 577.799 219.751L577.801 219.749Z" fill="#FAFAFA"/>
<path d="M477.985 237.314C477.996 234.146 478.01 230.976 478.021 227.809C481.042 227.639 484.066 227.485 487.089 227.346C487.058 235.914 487.027 244.483 486.997 253.051C483.969 253.334 480.943 253.651 477.921 254.001C477.935 250.622 477.946 247.241 477.959 243.861C476.496 243.998 475.763 244.068 474.302 244.214C474.289 247.624 474.278 251.032 474.264 254.442C471.245 254.819 468.23 255.232 465.22 255.677C465.249 246.659 465.277 237.64 465.306 228.622C468.323 228.406 471.342 228.205 474.361 228.02C474.35 231.217 474.337 234.411 474.326 237.607C475.789 237.484 476.52 237.424 477.983 237.31L477.985 237.314Z" fill="#FAFAFA"/>
<path d="M511.56 226.594L511.521 251.506C505.427 251.728 499.349 252.066 493.269 252.518C491.099 252.687 489.603 251.504 489.61 249.641C489.636 242.172 489.663 234.704 489.687 227.235C492.726 227.107 495.767 226.995 498.808 226.898C498.791 233.205 498.773 239.514 498.753 245.821C500.205 245.739 500.932 245.702 502.384 245.631C502.399 239.351 502.417 233.07 502.432 226.792C505.474 226.711 508.517 226.644 511.56 226.596V226.594Z" fill="#FAFAFA"/>
<path d="M528.874 237.978C528.471 235.176 528.064 232.374 527.661 229.574C527.661 228.342 527.661 227.725 527.661 226.493C530.468 226.502 533.275 226.526 536.082 226.561C536.093 234.852 536.105 243.145 536.116 251.436C532.882 251.358 529.649 251.308 526.414 251.288C524.979 247.477 523.544 243.663 522.11 239.851C521.825 239.851 521.684 239.854 521.399 239.856C521.788 242.64 522.176 245.426 522.567 248.211C522.567 249.443 522.567 250.06 522.567 251.292C519.764 251.31 516.963 251.354 514.16 251.429C514.171 243.138 514.182 234.847 514.193 226.557C517.418 226.519 520.642 226.497 523.867 226.488C525.286 230.317 526.705 234.146 528.124 237.973C528.424 237.973 528.574 237.975 528.877 237.978H528.874Z" fill="#FAFAFA"/>
<path d="M538.755 251.514C538.742 243.208 538.729 234.904 538.713 226.598C544.785 226.708 550.854 226.873 556.921 227.096C559.044 227.177 560.547 228.56 560.554 230.425C560.576 236.835 560.598 243.248 560.62 249.658C560.627 251.523 559.13 252.705 557.003 252.537C550.922 252.081 544.844 251.741 538.751 251.514H538.755ZM547.848 245.642C549.318 245.714 550.053 245.752 551.52 245.836C551.507 241.641 551.496 237.446 551.483 233.251C550.015 233.191 549.283 233.165 547.815 233.114C547.826 237.289 547.837 241.464 547.848 245.642Z" fill="#FAFAFA"/>
<path d="M563.231 253.076C563.2 244.503 563.169 235.93 563.138 227.359C569.627 227.668 576.111 228.041 582.593 228.479C582.597 229.817 582.599 230.485 582.604 231.823C582.028 233.146 581.739 233.805 581.163 235.117C578.188 234.863 575.208 234.627 572.231 234.413C572.235 235.582 572.238 236.166 572.242 237.334C575.221 237.568 578.199 237.824 581.174 238.101C581.18 240.335 581.189 242.568 581.196 244.801C578.221 244.47 575.246 244.164 572.264 243.886C572.268 245.323 572.273 246.042 572.277 247.479C575.742 247.841 579.201 248.233 582.659 248.652C582.666 250.894 582.674 253.136 582.681 255.377C576.21 254.476 569.73 253.711 563.226 253.076H563.231Z" fill="#FAFAFA"/>
<path d="M606.232 253.915C605.402 251.687 604.987 250.58 604.155 248.385C604.619 248.332 605.045 248.14 605.404 247.853C606.095 247.302 606.545 246.398 606.545 245.497C606.545 241.696 606.545 237.896 606.545 234.096C606.545 231.979 605.058 230.339 602.948 230.141C596.901 229.581 590.851 229.078 584.795 228.631C584.824 237.651 584.853 246.674 584.881 255.694C587.907 256.144 590.926 256.627 593.941 257.143C593.935 254.255 593.928 251.369 593.921 248.482C594.65 248.585 595.014 248.64 595.74 248.746C596.565 251.793 597.38 254.844 598.192 257.894C601.134 258.43 604.071 259.001 607 259.603V255.99C606.693 255.157 606.539 254.742 606.232 253.913V253.915ZM597.505 241.981C596.067 241.796 595.347 241.705 593.906 241.531C593.901 239.45 593.899 238.41 593.895 236.329C595.336 236.481 596.055 236.558 597.497 236.719C597.501 238.824 597.503 239.876 597.505 241.981Z" fill="#FAFAFA"/>
<path d="M607 262.691V265.076C556.621 255.227 504.995 255.126 454.827 266.333C455.642 264.177 456.465 262.023 457.295 259.874C506.999 251.259 557.658 252.207 607.002 262.691H607Z" fill="#FAFAFA"/>
<path d="M463.285 232.186C463.289 230.833 463.291 230.156 463.296 228.805C456.525 229.321 449.76 229.909 443.002 230.568V237.878C445.165 237.605 446.247 237.475 448.414 237.219C448.407 242.41 448.403 247.6 448.396 252.791C449.828 250.911 451.278 249.041 452.746 247.187C451.276 250.974 449.824 254.768 448.39 258.569C449.634 258.331 450.257 258.214 451.504 257.985C451.499 260.989 451.495 263.996 451.49 267.001C453.437 261.853 455.419 256.721 457.436 251.603C456.112 251.803 455.452 251.905 454.128 252.116C455.227 249.297 456.337 246.482 457.458 243.671C457.465 241.187 457.469 238.703 457.476 236.218C459.215 236.04 460.084 235.951 461.824 235.784C462.408 234.338 462.7 233.619 463.285 232.186Z" fill="#FAFAFA"/>
</g>
</g>
<defs>
<clipPath id="clip0_3211_19124">
<rect width="700" height="700" fill="white"/>
</clipPath>
<clipPath id="clip1_3211_19124">
<rect width="159.225" height="181" fill="white" transform="translate(445 434)"/>
</clipPath>
<clipPath id="clip2_3211_19124">
<rect width="165.589" height="181" fill="white" transform="translate(92 85)"/>
</clipPath>
<clipPath id="clip3_3211_19124">
<rect width="164" height="181" fill="white" transform="translate(93 434)"/>
</clipPath>
<clipPath id="clip4_3211_19124">
<rect width="164" height="181" fill="white" transform="translate(443 86)"/>
</clipPath>
</defs>
</svg>
