<svg width="700" height="394" viewBox="0 0 700 394" fill="none" xmlns="http://www.w3.org/2000/svg">
<rect width="700" height="394" fill="#3F2E42"/>
<g clip-path="url(#clip0_3211_18925)">
<path d="M385.726 174.129C370.348 180.652 356.72 178.933 344.56 176.157L320.343 212.261C329.251 216.244 339.126 218.434 349.496 218.44C388.11 219.237 422.133 185.27 421.334 146.72C421.418 124.833 411.257 104.006 394.062 90.459L385.726 174.129ZM346.414 180.787C361.529 184.086 375.767 183.404 389.583 176.963C391.984 152.913 394.455 128.088 396.975 102.77C396.99 102.784 397.004 102.802 397.019 102.816C408.146 114.798 414.242 130.292 414.242 146.72C414.992 181.368 384.328 212.053 349.672 211.334C342.355 211.334 335.182 210.124 328.337 207.729L346.411 180.787H346.414Z" fill="#FFD655"/>
<path d="M315.676 183.24L316.431 171.129C312.374 171.334 308.52 172.356 304.86 174.664C305.725 155.683 306.617 136.22 307.531 116.246C327.104 97.1726 352.386 111.361 384.919 92.5856C387.141 91.3233 389.212 89.9859 391.414 88.4578C379.282 79.717 364.749 75 349.496 75C309.88 75 277.654 107.17 277.654 146.72C277.654 175.126 294.279 199.705 318.311 211.332C318.899 203.18 319.755 191.811 320.296 184.514L315.676 183.237V183.24ZM304.652 113.299L303.486 114.435C302.421 137.679 301.4 159.97 300.381 182.356C303.359 180.45 308.801 176.923 312.021 175.594L311.353 186.32L315.933 187.582L314.915 201.216C296.47 189.627 284.737 168.474 284.894 146.665C284.804 110.789 314.507 81.8719 349.49 82.077C360.644 82.077 371.369 84.8731 380.856 90.139C366.587 97.8572 354.024 99.0098 341.849 100.131C328.403 101.364 315.699 102.534 304.646 113.299H304.652Z" fill="#FFD655"/>
<path d="M332.905 147.616C337.092 148.407 341.42 149.392 345.972 150.259C346.406 144.262 346.837 138.216 347.279 132.127C342.65 131.645 338.241 131.012 333.985 130.57C333.623 136.295 333.258 141.977 332.905 147.616Z" fill="white"/>
<path d="M331.557 167.39H331.56C336.733 168.525 342.173 170.013 347.925 171.142C357.507 173.014 368.019 173.883 379.713 170.368C381.91 147.398 384.172 123.718 386.501 99.2949C354.608 117.805 330.394 103.619 310.606 118.036C309.799 134.995 309.006 151.578 308.228 167.815C312.053 166.139 315.956 165.573 320.253 165.752L319.535 179.288L324.312 180.481L322.837 199.603L322.776 200.38C322.909 200.178 323.039 199.973 323.181 199.762C327.706 192.801 334.332 182.59 339.323 174.906C336.536 174.21 333.825 173.514 331.187 172.91V172.835L331.557 167.387V167.39ZM376.855 167.693C371.204 169.291 365.079 169.857 359.509 169.591C359.993 163.635 360.49 157.641 360.985 151.587C366.905 151.538 372.489 149.851 378.718 147.727L376.855 167.693ZM321.254 146.667C320.962 152.075 320.623 157.869 320.325 163.19C316.665 163.144 313.251 163.43 309.967 164.548C310.207 159.646 310.45 154.712 310.687 149.744C314.073 148.172 317.388 146.8 321.251 146.662C321.549 141.344 321.844 136 322.145 130.607C318.23 131.081 314.877 132.756 311.448 134.628L312.183 119.599C315.383 117.467 319.203 115.898 323.016 115.014C322.724 120.249 322.431 125.448 322.145 130.607C325.883 130.023 329.98 130.101 333.979 130.567C334.338 124.928 334.696 119.255 335.058 113.521C339.473 113.304 343.94 113.278 348.761 113.044C348.312 119.188 347.71 126.13 347.276 132.123C352.004 132.678 357.296 132.831 362.568 132.184C363.091 125.85 363.887 117.785 364.431 111.202C370.339 109.951 376.372 108.143 382.74 105.095C382.057 112.363 381.389 119.561 380.72 126.699C374.341 129.405 368.618 131.621 362.568 132.184C362.032 138.707 361.503 145.171 360.976 151.587C355.806 151.78 350.612 151.188 345.969 150.252C345.552 156.07 345.132 161.841 344.719 167.569C340.176 166.636 335.914 165.564 331.739 164.712C332.101 159.129 332.544 153.193 332.897 147.609C328.965 146.818 324.928 146.399 321.248 146.662L321.254 146.667Z" fill="white"/>
<path d="M242 243.176V235.117C249.491 235.117 256.982 235.117 264.472 235.117C264.47 236.622 264.467 237.376 264.461 238.881C263.816 240.426 263.492 241.203 262.846 242.76C260.922 242.795 259.959 242.812 258.035 242.847C258.017 250.519 258.003 258.194 257.986 265.866C254.65 266.12 251.314 266.383 247.978 266.657C247.983 258.786 247.992 250.918 247.998 243.046C245.596 243.095 244.396 243.121 241.997 243.176H242Z" fill="#FFD655"/>
<path d="M286.786 235.115C289.124 235.115 290.77 236.594 290.764 238.688C290.75 242.452 290.735 246.216 290.721 249.983C290.715 251.337 289.563 252.889 288.047 253.31C289.303 256.109 289.931 257.502 291.187 260.272C291.181 261.699 291.178 262.412 291.172 263.842C287.9 264.001 284.63 264.171 281.358 264.348C280.464 261.349 279.573 258.351 278.687 255.35C277.88 255.381 277.478 255.399 276.671 255.431C276.659 258.492 276.65 261.554 276.639 264.616C273.294 264.818 269.952 265.032 266.611 265.255C266.64 255.208 266.669 245.165 266.697 235.118H286.786V235.115ZM276.717 242.53C276.708 244.737 276.705 245.843 276.697 248.05C278.291 248.01 279.09 247.99 280.687 247.949C280.695 245.76 280.698 244.662 280.707 242.472C279.11 242.496 278.314 242.507 276.717 242.53Z" fill="#FFD655"/>
<path d="M314.515 235.115C315.985 243.209 317.464 251.3 318.948 259.391C318.945 260.769 318.942 261.459 318.939 262.837C315.586 262.923 312.233 263.022 308.876 263.129C308.645 260.878 308.529 259.755 308.298 257.502C306.536 257.548 305.653 257.574 303.891 257.626C303.625 259.905 303.495 261.046 303.229 263.328C299.893 263.458 296.557 263.596 293.221 263.744C293.226 262.32 293.229 261.609 293.235 260.185C294.757 251.828 296.285 243.472 297.821 235.115C303.385 235.115 308.952 235.115 314.515 235.115ZM307.586 250.506C307.288 247.73 306.993 244.954 306.695 242.178C306.255 242.181 306.035 242.184 305.592 242.186C305.277 244.977 304.962 247.77 304.646 250.563C305.821 250.54 306.408 250.529 307.583 250.506H307.586Z" fill="#FFD655"/>
<path d="M342.934 235.116C342.934 236.477 342.934 237.156 342.934 238.516C342.309 239.908 341.996 240.604 341.371 241.997C338.082 242.003 334.795 242.011 331.505 242.023C331.496 246.59 331.491 251.153 331.482 255.72C335.295 255.677 339.109 255.651 342.922 255.634C342.922 258.369 342.922 259.738 342.919 262.474C337.095 262.506 331.271 262.575 325.449 262.69C323.059 262.737 321.407 261.353 321.413 259.337C321.43 252.407 321.448 245.48 321.465 238.551C321.471 236.534 323.126 235.113 325.51 235.113C331.32 235.113 337.13 235.113 342.939 235.113L342.934 235.116Z" fill="#FFD655"/>
<path d="M359.582 235.116C362.762 235.116 365.941 235.116 369.121 235.116C369.121 236.482 369.124 237.167 369.127 238.533C367.894 241.708 366.662 244.88 365.423 248.054C366.934 251.772 368.441 255.489 369.943 259.207C369.943 260.573 369.946 261.258 369.949 262.627C366.607 262.575 363.268 262.534 359.926 262.503C359.02 258.964 358.112 255.426 357.206 251.887C356.471 251.887 356.104 251.884 355.369 251.881C355.369 255.411 355.372 258.941 355.375 262.471C352.033 262.459 348.691 262.456 345.35 262.465C345.352 253.349 345.355 244.232 345.361 235.116H355.36C355.36 238.424 355.363 241.734 355.366 245.041C356.101 245.041 356.469 245.041 357.203 245.044C357.996 241.734 358.789 238.424 359.582 235.113V235.116Z" fill="#FFD655"/>
<path d="M371.965 244.324C371.959 242.01 371.959 240.852 371.954 238.538C371.951 236.531 373.597 235.115 375.984 235.115H393.413C393.419 236.499 393.419 237.189 393.425 238.57C392.806 240.014 392.496 240.733 391.877 242.172C388.587 242.146 385.301 242.12 382.011 242.097C382.011 242.605 382.011 242.859 382.014 243.365C384.93 245.078 387.844 246.797 390.749 248.53C392.956 249.847 393.466 251.106 393.474 253.357C393.483 255.913 393.486 257.19 393.494 259.746C393.5 261.794 391.854 263.181 389.51 263.105C383.675 262.915 377.839 262.765 372.003 262.661C371.997 259.905 371.994 258.53 371.988 255.774C375.802 255.826 379.615 255.893 383.426 255.971C383.426 255.24 383.423 254.873 383.42 254.142C380.512 252.429 377.601 250.725 374.682 249.032C372.474 247.709 371.968 246.528 371.962 244.324H371.965Z" fill="#FFD655"/>
<path d="M395.942 263.331C395.91 253.926 395.876 244.52 395.844 235.115C399.177 235.115 402.51 235.115 405.843 235.115C405.878 244.659 405.915 254.206 405.95 263.75C402.614 263.602 399.278 263.461 395.942 263.331Z" fill="#FFD655"/>
<path d="M408.751 263.882C408.716 254.292 408.679 244.705 408.644 235.115H428.686C431.024 235.115 432.682 236.666 432.687 238.865C432.711 246.418 432.731 253.975 432.754 261.528C432.76 263.726 431.116 265.165 428.781 265.012C422.107 264.59 415.432 264.215 408.751 263.882ZM418.721 257.083C420.336 257.152 421.143 257.187 422.755 257.259C422.737 252.351 422.72 247.447 422.703 242.539C421.088 242.516 420.281 242.504 418.666 242.481C418.684 247.348 418.701 252.216 418.718 257.083H418.721Z" fill="#FFD655"/>
<path d="M455.397 243.138C456.037 241.529 456.358 240.72 457 239.099C457 237.505 457 236.708 457 235.113C449.845 235.113 442.69 235.113 435.534 235.113C435.561 245.232 435.589 255.353 435.615 265.472C442.748 265.983 449.877 266.55 457 267.165C457 263.958 457 262.355 457 259.152C453.192 258.901 449.382 258.664 445.571 258.438C445.571 256.734 445.569 255.879 445.566 254.175C448.844 254.337 452.125 254.501 455.403 254.672C455.403 251.48 455.403 249.885 455.403 246.694C452.122 246.592 448.838 246.494 445.557 246.399C445.557 245.012 445.554 244.319 445.551 242.933C448.835 242.999 452.119 243.066 455.403 243.138H455.397Z" fill="#FFD655"/>
<path d="M287.865 280.096C287.879 275.945 287.897 271.795 287.911 267.644C291.872 267.421 295.836 267.219 299.8 267.037C299.759 278.265 299.719 289.493 299.678 300.721C295.709 301.09 291.742 301.506 287.781 301.966C287.798 297.537 287.813 293.106 287.83 288.678C285.912 288.857 284.951 288.95 283.036 289.14C283.019 293.609 283.004 298.075 282.987 302.543C279.029 303.04 275.076 303.577 271.13 304.164C271.168 292.347 271.205 280.53 271.243 268.712C275.198 268.429 279.156 268.167 283.111 267.924C283.097 272.112 283.079 276.298 283.065 280.486C284.983 280.325 285.941 280.247 287.859 280.096H287.865Z" fill="#FFD655"/>
<path d="M331.881 266.051C331.864 276.932 331.846 287.81 331.829 298.692C323.841 298.983 315.872 299.425 307.901 300.017C305.057 300.24 303.095 298.689 303.104 296.248C303.139 286.461 303.174 276.675 303.205 266.888C307.19 266.721 311.177 266.574 315.164 266.447C315.14 274.711 315.117 282.975 315.091 291.242C316.995 291.135 317.947 291.086 319.851 290.994C319.871 282.764 319.894 274.537 319.914 266.308C323.901 266.201 327.891 266.114 331.881 266.051Z" fill="#FFD655"/>
<path d="M354.579 280.963C354.05 277.292 353.517 273.624 352.988 269.952C352.988 268.337 352.988 267.529 352.988 265.914C356.668 265.926 360.349 265.957 364.029 266.004C364.043 276.867 364.058 287.731 364.072 298.595C359.831 298.494 355.595 298.428 351.353 298.402C349.473 293.407 347.592 288.413 345.711 283.416C345.338 283.416 345.153 283.419 344.78 283.422C345.289 287.07 345.798 290.721 346.31 294.369C346.31 295.984 346.31 296.793 346.31 298.407C342.636 298.431 338.964 298.488 335.289 298.587C335.304 287.723 335.318 276.862 335.333 265.998C339.56 265.949 343.787 265.92 348.014 265.908C349.875 270.926 351.735 275.94 353.596 280.958C353.989 280.958 354.186 280.961 354.582 280.963H354.579Z" fill="#FFD655"/>
<path d="M367.533 298.701C367.515 287.82 367.498 276.936 367.478 266.055C375.437 266.199 383.394 266.416 391.348 266.708C394.131 266.814 396.104 268.626 396.11 271.069C396.139 279.469 396.168 287.869 396.197 296.272C396.205 298.716 394.244 300.264 391.455 300.044C383.484 299.447 375.515 299.002 367.527 298.704L367.533 298.701ZM379.453 291.006C381.38 291.101 382.344 291.151 384.268 291.26C384.25 285.763 384.236 280.269 384.221 274.772C382.297 274.694 381.337 274.66 379.413 274.593C379.427 280.064 379.442 285.535 379.456 291.006H379.453Z" fill="#FFD655"/>
<path d="M399.62 300.747C399.579 289.513 399.539 278.282 399.498 267.049C408.004 267.453 416.508 267.941 425.006 268.516C425.011 270.27 425.014 271.145 425.02 272.898C424.265 274.631 423.886 275.495 423.131 277.214C419.231 276.879 415.325 276.572 411.422 276.292C411.427 277.823 411.43 278.589 411.436 280.12C415.342 280.426 419.245 280.761 423.145 281.125C423.154 284.051 423.165 286.977 423.174 289.903C419.274 289.47 415.374 289.068 411.465 288.704C411.471 290.588 411.476 291.529 411.482 293.413C416.025 293.889 420.559 294.401 425.092 294.949C425.101 297.887 425.113 300.825 425.121 303.76C416.638 302.578 408.143 301.573 399.617 300.744L399.62 300.747Z" fill="#FFD655"/>
<path d="M455.993 301.854C454.905 298.933 454.361 297.483 453.271 294.606C453.878 294.537 454.437 294.286 454.908 293.91C455.814 293.188 456.404 292.004 456.404 290.825C456.404 285.845 456.404 280.865 456.404 275.885C456.404 273.112 454.454 270.963 451.691 270.703C443.763 269.97 435.832 269.311 427.893 268.725C427.931 280.545 427.968 292.365 428.006 304.185C431.973 304.774 435.931 305.407 439.883 306.082C439.874 302.298 439.866 298.517 439.857 294.733C440.812 294.869 441.286 294.941 442.241 295.08C443.323 299.072 444.391 303.07 445.453 307.067C449.31 307.772 453.161 308.517 457 309.306C457 307.411 457 306.464 457 304.572C456.598 303.48 456.395 302.937 455.993 301.851V301.854ZM444.553 286.215C442.667 285.972 441.723 285.854 439.834 285.626C439.828 282.899 439.825 281.535 439.819 278.809C441.709 279.008 442.652 279.109 444.541 279.32C444.547 282.078 444.547 283.456 444.553 286.215Z" fill="#FFD655"/>
<path d="M456.997 316.481C456.997 315.23 456.997 314.606 456.997 313.356C392.308 299.612 325.898 298.37 260.737 309.664C259.655 312.466 258.582 315.274 257.52 318.084C323.285 303.413 390.96 303.557 456.997 316.484V316.481Z" fill="#FFD655"/>
<path d="M242 271.257V280.836C244.835 280.477 246.253 280.307 249.094 279.972C249.089 285.867 249.083 291.763 249.074 297.659C251.536 294.49 254.033 291.353 256.565 288.239C255.046 292.136 253.55 296.044 252.063 299.952C251.053 302.612 250.052 305.279 249.063 307.945C250.692 307.633 251.505 307.48 253.136 307.182C253.136 307.526 253.136 307.696 253.136 308.04C253.131 311.691 253.125 315.342 253.119 318.996C254.702 314.768 256.299 310.547 257.913 306.33C259.12 303.193 259.722 301.636 260.928 298.548C259.155 298.817 258.266 298.953 256.496 299.233C257.965 295.414 259.453 291.604 260.957 287.8C260.966 284.752 260.972 281.705 260.98 278.658C263.26 278.424 264.4 278.308 266.68 278.089C267.447 276.194 267.829 275.252 268.595 273.374C268.601 271.601 268.604 270.714 268.61 268.943C259.733 269.619 250.865 270.391 242.006 271.254L242 271.257Z" fill="#FFD655"/>
</g>
<defs>
<clipPath id="clip0_3211_18925">
<rect width="215" height="244" fill="white" transform="translate(242 75)"/>
</clipPath>
</defs>
</svg>
