<svg width="700" height="394" viewBox="0 0 700 394" fill="none" xmlns="http://www.w3.org/2000/svg">
<g clip-path="url(#clip0_3223_22041)">
<rect width="340" height="394" fill="#3F2E42"/>
<mask id="mask0_3223_22041" style="mask-type:alpha" maskUnits="userSpaceOnUse" x="0" y="0" width="340" height="394">
<rect width="340" height="394" fill="#3F2E42"/>
</mask>
<g mask="url(#mask0_3223_22041)">
<g opacity="0.1">
<g clip-path="url(#clip1_3223_22041)">
</g>
<g clip-path="url(#clip2_3223_22041)">
<path d="M367.472 322.59L360.33 315.448L355.015 320.763L341.573 307.321L342.349 319.306L337.2 307.438L333.754 299.502L330.695 302.56L330.036 301.901L321.621 293.487L327.114 306.142L330.558 314.079L333.879 310.758L338.972 322.493L346.128 329.649L341.873 333.905L344.065 338.936L347.595 342.466L367.472 322.59Z" fill="white"/>
<path d="M311.541 344.517L315.688 340.369L311.585 336.266L307.438 340.413L311.541 344.517Z" fill="white"/>
<path d="M319.792 344.472L323.939 340.324L319.836 336.221L315.689 340.368L319.792 344.472Z" fill="white"/>
<path d="M311.587 336.267L315.734 332.119L311.631 328.016L307.484 332.163L311.587 336.267Z" fill="white"/>
<path d="M319.838 336.22L323.985 332.072L319.882 327.969L315.735 332.116L319.838 336.22Z" fill="white"/>
<path d="M328.088 336.177L332.235 332.029L328.132 327.926L323.985 332.073L328.088 336.177Z" fill="white"/>
<path d="M319.883 327.972L324.03 323.824L319.927 319.721L315.78 323.868L319.883 327.972Z" fill="white"/>
<path d="M328.134 327.923L332.281 323.775L328.178 319.672L324.031 323.819L328.134 327.923Z" fill="white"/>
<path d="M336.383 327.882L332.279 323.779L335.607 320.451L337.058 323.797L338.763 325.502L336.383 327.882Z" fill="white"/>
<path d="M328.178 319.675L324.075 315.572L327.319 312.328L329.802 318.051L328.178 319.675Z" fill="white"/>
</g>
<g clip-path="url(#clip3_3223_22041)">
<path d="M309.489 380.572L302.347 373.43L297.033 378.745L283.59 365.303L284.367 377.288L279.217 365.42L275.771 357.484L272.713 360.543L272.053 359.883L263.639 351.469L269.131 364.124L272.576 372.062L275.896 368.741L280.99 380.476L288.146 387.632L283.891 391.887L286.082 396.918L289.613 400.449L309.489 380.572Z" fill="white"/>
<path d="M288.781 367.278L290.799 365.26L286.697 361.158L284.679 363.176L288.781 367.278Z" fill="white"/>
<path d="M294.903 369.36L299.051 365.213L294.947 361.11L290.8 365.257L294.903 369.36Z" fill="white"/>
<path d="M286.698 361.155L290.846 357.008L286.742 352.905L282.595 357.052L286.698 361.155Z" fill="white"/>
<path d="M294.949 361.108L299.097 356.961L294.993 352.858L290.846 357.005L294.949 361.108Z" fill="white"/>
<path d="M303.199 361.065L307.347 356.918L303.243 352.815L299.096 356.962L303.199 361.065Z" fill="white"/>
<path d="M294.994 352.86L299.142 348.713L295.038 344.61L290.891 348.757L294.994 352.86Z" fill="white"/>
<path d="M303.245 352.811L307.393 348.664L303.289 344.561L299.142 348.708L303.245 352.811Z" fill="white"/>
<path d="M311.496 352.768L315.644 348.621L311.54 344.518L307.393 348.665L311.496 352.768Z" fill="white"/>
<path d="M303.291 344.563L307.438 340.416L303.335 336.313L299.188 340.46L303.291 344.563Z" fill="white"/>
<path d="M253.605 394.249L257.752 390.102L253.649 385.998L249.501 390.146L253.605 394.249Z" fill="white"/>
<path d="M261.856 394.202L266.003 390.055L261.9 385.951L257.752 390.099L261.856 394.202Z" fill="white"/>
<path d="M270.106 394.159L274.253 390.012L270.15 385.908L266.002 390.056L270.106 394.159Z" fill="white"/>
<path d="M261.9 385.954L266.048 381.807L261.945 377.703L257.797 381.851L261.9 385.954Z" fill="white"/>
<path d="M270.151 385.905L274.299 381.758L270.196 377.655L266.048 381.802L270.151 385.905Z" fill="white"/>
<path d="M278.4 385.864L274.297 381.761L277.624 378.434L279.075 381.779L280.78 383.484L278.4 385.864Z" fill="white"/>
<path d="M270.196 377.658L266.093 373.554L269.336 370.311L271.82 376.033L270.196 377.658Z" fill="white"/>
</g>
<g clip-path="url(#clip4_3223_22041)">
<path d="M121.795 401.389L128.937 408.53L134.187 403.28L147.629 416.723L146.784 404.806L151.975 416.633L155.448 424.542L158.469 421.52L159.129 422.18L167.543 430.594L162.007 417.983L158.535 410.073L155.255 413.353L150.121 401.658L142.965 394.502L147.168 390.299L144.96 385.285L141.429 381.755L121.795 401.389Z" fill="white"/>
<path d="M177.251 379.936L173.154 384.033L177.258 388.137L181.354 384.04L177.251 379.936Z" fill="white"/>
<path d="M169.051 379.931L164.954 384.027L169.057 388.131L173.154 384.034L169.051 379.931Z" fill="white"/>
<path d="M177.256 388.136L173.159 392.232L177.262 396.336L181.359 392.239L177.256 388.136Z" fill="white"/>
<path d="M169.056 388.132L164.959 392.229L169.062 396.332L173.159 392.235L169.056 388.132Z" fill="white"/>
<path d="M160.856 388.126L156.759 392.223L160.862 396.326L164.959 392.229L160.856 388.126Z" fill="white"/>
</g>
<g clip-path="url(#clip5_3223_22041)">
<path d="M179.304 343.881L186.445 351.023L191.76 345.708L205.203 359.15L204.426 347.165L209.576 359.033L213.022 366.969L216.08 363.91L216.74 364.57L225.154 372.984L219.662 360.329L216.217 352.392L212.896 355.712L207.803 343.977L200.647 336.821L204.902 332.566L202.711 327.535L199.18 324.004L179.304 343.881Z" fill="white"/>
<path d="M200.012 357.175L197.994 359.193L202.096 363.295L204.114 361.277L200.012 357.175Z" fill="white"/>
<path d="M193.89 355.093L189.742 359.24L193.845 363.344L197.993 359.196L193.89 355.093Z" fill="white"/>
<path d="M202.095 363.298L197.947 367.445L202.051 371.549L206.198 367.401L202.095 363.298Z" fill="white"/>
<path d="M193.844 363.345L189.696 367.492L193.8 371.595L197.947 367.448L193.844 363.345Z" fill="white"/>
<path d="M185.594 363.388L181.446 367.535L185.55 371.638L189.697 367.491L185.594 363.388Z" fill="white"/>
<path d="M193.799 371.593L189.651 375.74L193.755 379.844L197.902 375.696L193.799 371.593Z" fill="white"/>
<path d="M185.548 371.642L181.4 375.789L185.504 379.892L189.651 375.745L185.548 371.642Z" fill="white"/>
<path d="M177.297 371.685L173.149 375.832L177.253 379.935L181.4 375.788L177.297 371.685Z" fill="white"/>
<path d="M185.502 379.89L181.354 384.037L185.458 388.14L189.605 383.993L185.502 379.89Z" fill="white"/>
<path d="M235.234 321.954L231.087 326.102L235.19 330.205L239.338 326.058L235.234 321.954Z" fill="white"/>
<path d="M226.983 321.999L222.836 326.146L226.939 330.25L231.087 326.102L226.983 321.999Z" fill="white"/>
<path d="M235.188 330.204L231.041 334.352L235.144 338.455L239.292 334.308L235.188 330.204Z" fill="white"/>
<path d="M226.937 330.251L222.79 334.398L226.893 338.502L231.041 334.354L226.937 330.251Z" fill="white"/>
<path d="M218.687 330.294L214.54 334.441L218.643 338.545L222.791 334.397L218.687 330.294Z" fill="white"/>
<path d="M226.892 338.499L222.745 342.646L226.848 346.75L230.996 342.602L226.892 338.499Z" fill="white"/>
<path d="M218.642 338.548L214.494 342.695L218.597 346.799L222.745 342.651L218.642 338.548Z" fill="white"/>
<path d="M210.393 338.589L214.496 342.692L211.169 346.019L209.718 342.674L208.013 340.969L210.393 338.589Z" fill="white"/>
<path d="M218.597 346.795L222.7 350.899L219.457 354.142L216.973 348.42L218.597 346.795Z" fill="white"/>
</g>
<g clip-path="url(#clip6_3223_22041)">
<path d="M237.286 285.898L244.428 293.04L249.743 287.725L263.185 301.168L262.408 289.182L267.558 301.051L271.004 308.987L274.063 305.928L274.722 306.587L283.136 315.002L277.644 302.347L274.2 294.409L270.879 297.73L265.786 285.995L258.629 278.839L262.884 274.584L260.693 269.553L257.163 266.022L237.286 285.898Z" fill="white"/>
<path d="M257.995 299.193L255.977 301.211L260.078 305.313L262.096 303.294L257.995 299.193Z" fill="white"/>
<path d="M251.872 297.11L247.725 301.258L251.828 305.361L255.975 301.214L251.872 297.11Z" fill="white"/>
<path d="M260.077 305.316L255.93 309.463L260.033 313.566L264.18 309.419L260.077 305.316Z" fill="white"/>
<path d="M251.826 305.362L247.679 309.51L251.782 313.613L255.929 309.466L251.826 305.362Z" fill="white"/>
<path d="M243.576 305.405L239.429 309.553L243.532 313.656L247.679 309.509L243.576 305.405Z" fill="white"/>
<path d="M251.781 313.61L247.634 317.758L251.737 321.861L255.884 317.714L251.781 313.61Z" fill="white"/>
<path d="M243.53 313.659L239.383 317.807L243.486 321.91L247.633 317.763L243.53 313.659Z" fill="white"/>
<path d="M235.279 313.702L231.132 317.85L235.235 321.953L239.383 317.806L235.279 313.702Z" fill="white"/>
<path d="M243.484 321.907L239.337 326.055L243.44 330.158L247.588 326.011L243.484 321.907Z" fill="white"/>
<path d="M293.217 263.972L289.069 268.119L293.173 272.222L297.32 268.075L293.217 263.972Z" fill="white"/>
<path d="M284.966 264.017L280.818 268.164L284.922 272.267L289.069 268.12L284.966 264.017Z" fill="white"/>
<path d="M293.171 272.222L289.023 276.369L293.127 280.472L297.274 276.325L293.171 272.222Z" fill="white"/>
<path d="M284.92 272.269L280.772 276.416L284.876 280.519L289.023 276.372L284.92 272.269Z" fill="white"/>
<path d="M276.67 272.312L272.522 276.459L276.626 280.562L280.773 276.415L276.67 272.312Z" fill="white"/>
<path d="M284.875 280.517L280.728 284.664L284.831 288.767L288.978 284.62L284.875 280.517Z" fill="white"/>
<path d="M276.624 280.566L272.477 284.713L276.58 288.816L280.727 284.669L276.624 280.566Z" fill="white"/>
<path d="M268.375 280.606L272.478 284.71L269.151 288.037L267.7 284.691L265.995 282.986L268.375 280.606Z" fill="white"/>
<path d="M276.58 288.813L280.683 292.916L277.439 296.16L274.955 290.437L276.58 288.813Z" fill="white"/>
</g>
<g clip-path="url(#clip7_3223_22041)">
<path d="M295.036 228.148L302.178 235.29L307.428 230.04L320.87 243.482L320.025 231.566L325.216 243.393L328.689 251.301L331.711 248.28L332.37 248.94L340.784 257.354L335.248 244.742L331.776 236.832L328.496 240.113L323.362 228.418L316.206 221.262L320.409 217.059L318.201 212.045L314.67 208.514L295.036 228.148Z" fill="white"/>
<path d="M315.7 241.489L313.706 243.482L317.808 247.584L319.801 245.591L315.7 241.489Z" fill="white"/>
<path d="M309.602 239.38L305.505 243.477L309.608 247.58L313.705 243.483L309.602 239.38Z" fill="white"/>
<path d="M317.807 247.585L313.71 251.682L317.813 255.785L321.91 251.688L317.807 247.585Z" fill="white"/>
<path d="M309.607 247.583L305.51 251.68L309.613 255.783L313.71 251.686L309.607 247.583Z" fill="white"/>
<path d="M301.406 247.575L297.31 251.672L301.413 255.775L305.51 251.678L301.406 247.575Z" fill="white"/>
<path d="M309.611 255.78L305.515 259.877L309.618 263.98L313.715 259.883L309.611 255.78Z" fill="white"/>
<path d="M301.411 255.776L297.314 259.873L301.418 263.976L305.515 259.88L301.411 255.776Z" fill="white"/>
<path d="M293.211 255.77L289.114 259.867L293.218 263.97L297.314 259.874L293.211 255.77Z" fill="white"/>
<path d="M301.416 263.975L297.319 268.072L301.423 272.176L305.519 268.079L301.416 263.975Z" fill="white"/>
<path d="M342.292 206.69L338.195 210.787L342.299 214.89L346.395 210.794L342.292 206.69Z" fill="white"/>
<path d="M342.297 214.891L338.2 218.988L342.304 223.092L346.4 218.995L342.297 214.891Z" fill="white"/>
<path d="M334.097 214.886L330 218.982L334.103 223.086L338.2 218.989L334.097 214.886Z" fill="white"/>
<path d="M342.302 223.091L338.205 227.188L342.308 231.291L346.405 227.194L342.302 223.091Z" fill="white"/>
<path d="M334.102 223.087L330.005 227.184L334.108 231.287L338.205 227.19L334.102 223.087Z" fill="white"/>
<path d="M325.903 223.079L330.006 227.182L326.72 230.469L325.257 227.135L323.552 225.43L325.903 223.079Z" fill="white"/>
<path d="M334.108 231.284L338.212 235.388L335.008 238.592L332.504 232.889L334.108 231.284Z" fill="white"/>
</g>
<g clip-path="url(#clip8_3223_22041)">
<path d="M379.493 104.094L372.351 96.952L367.037 102.267L353.594 88.8245L354.371 100.81L349.221 88.9414L345.775 81.0056L342.717 84.0642L342.057 83.4047L333.643 74.9906L339.135 87.6455L342.58 95.583L345.9 92.2622L350.994 103.997L358.15 111.153L353.895 115.408L356.086 120.44L359.617 123.97L379.493 104.094Z" fill="white"/>
<path d="M323.563 126.02L327.71 121.873L323.607 117.77L319.459 121.917L323.563 126.02Z" fill="white"/>
<path d="M331.814 125.975L335.961 121.828L331.858 117.725L327.71 121.872L331.814 125.975Z" fill="white"/>
<path d="M323.608 117.77L327.756 113.623L323.653 109.52L319.505 113.667L323.608 117.77Z" fill="white"/>
<path d="M331.859 117.724L336.007 113.576L331.904 109.473L327.756 113.62L331.859 117.724Z" fill="white"/>
<path d="M340.109 117.681L344.257 113.533L340.154 109.43L336.006 113.577L340.109 117.681Z" fill="white"/>
<path d="M331.904 109.475L336.052 105.328L331.948 101.225L327.801 105.372L331.904 109.475Z" fill="white"/>
<path d="M340.155 109.427L344.303 105.279L340.199 101.176L336.052 105.323L340.155 109.427Z" fill="white"/>
<path d="M340.2 101.179L336.096 97.0758L339.34 93.8322L341.824 99.5549L340.2 101.179Z" fill="white"/>
</g>
<g clip-path="url(#clip9_3223_22041)">
<path d="M321.743 161.844L314.601 154.702L309.351 159.952L295.909 146.51L296.754 158.427L291.563 146.599L288.09 138.691L285.069 141.712L284.409 141.053L275.995 132.639L281.531 145.25L285.003 153.16L288.283 149.88L293.417 161.574L300.573 168.73L296.37 172.933L298.578 177.947L302.109 181.478L321.743 161.844Z" fill="white"/>
<path d="M301.08 148.503L303.073 146.51L298.972 142.408L296.978 144.402L301.08 148.503Z" fill="white"/>
<path d="M307.178 150.612L311.274 146.516L307.171 142.412L303.074 146.509L307.178 150.612Z" fill="white"/>
<path d="M298.973 142.407L303.069 138.311L298.966 134.207L294.869 138.304L298.973 142.407Z" fill="white"/>
<path d="M307.173 142.409L311.27 138.312L307.166 134.209L303.069 138.306L307.173 142.409Z" fill="white"/>
<path d="M315.373 142.417L319.47 138.32L315.366 134.217L311.27 138.314L315.373 142.417Z" fill="white"/>
<path d="M307.168 134.212L311.265 130.115L307.161 126.012L303.065 130.109L307.168 134.212Z" fill="white"/>
<path d="M315.368 134.216L319.465 130.119L315.362 126.016L311.265 130.113L315.368 134.216Z" fill="white"/>
<path d="M323.568 134.222L327.665 130.125L323.562 126.022L319.465 130.118L323.568 134.222Z" fill="white"/>
<path d="M315.363 126.017L319.46 121.92L315.357 117.817L311.26 121.913L315.363 126.017Z" fill="white"/>
<path d="M266.287 183.296L270.384 179.199L266.28 175.096L262.184 179.193L266.287 183.296Z" fill="white"/>
<path d="M274.487 183.302L278.584 179.205L274.481 175.102L270.384 179.199L274.487 183.302Z" fill="white"/>
<path d="M266.282 175.097L270.379 171L266.276 166.897L262.179 170.993L266.282 175.097Z" fill="white"/>
<path d="M274.482 175.101L278.579 171.004L274.476 166.901L270.379 170.997L274.482 175.101Z" fill="white"/>
<path d="M282.683 175.107L286.779 171.01L282.676 166.906L278.579 171.003L282.683 175.107Z" fill="white"/>
<path d="M274.477 166.901L278.574 162.805L274.471 158.701L270.374 162.798L274.477 166.901Z" fill="white"/>
<path d="M282.678 166.905L286.774 162.809L282.671 158.705L278.574 162.802L282.678 166.905Z" fill="white"/>
<path d="M290.876 166.914L286.773 162.81L290.06 159.524L291.522 162.858L293.227 164.563L290.876 166.914Z" fill="white"/>
<path d="M282.671 158.708L278.568 154.605L281.772 151.401L284.275 157.104L282.671 158.708Z" fill="white"/>
</g>
<g clip-path="url(#clip10_3223_22041)">
<path d="M264.234 219.352L257.093 212.21L251.778 217.525L238.335 204.082L239.112 216.068L233.962 204.199L230.516 196.263L227.458 199.322L226.798 198.663L218.384 190.248L223.876 202.903L227.321 210.841L230.642 207.52L235.735 219.255L242.891 226.411L238.636 230.666L240.827 235.697L244.358 239.228L264.234 219.352Z" fill="white"/>
<path d="M243.526 206.057L245.544 204.039L241.442 199.937L239.424 201.956L243.526 206.057Z" fill="white"/>
<path d="M249.649 208.14L253.796 203.992L249.693 199.889L245.545 204.036L249.649 208.14Z" fill="white"/>
<path d="M241.443 199.934L245.591 195.787L241.488 191.684L237.34 195.831L241.443 199.934Z" fill="white"/>
<path d="M249.694 199.888L253.842 195.74L249.738 191.637L245.591 195.784L249.694 199.888Z" fill="white"/>
<path d="M257.944 199.845L262.092 195.697L257.988 191.594L253.841 195.741L257.944 199.845Z" fill="white"/>
<path d="M249.739 191.64L253.887 187.492L249.783 183.389L245.636 187.536L249.739 191.64Z" fill="white"/>
<path d="M257.99 191.591L262.138 187.443L258.034 183.34L253.887 187.487L257.99 191.591Z" fill="white"/>
<path d="M266.241 191.548L270.389 187.4L266.285 183.297L262.138 187.444L266.241 191.548Z" fill="white"/>
<path d="M258.036 183.343L262.184 179.195L258.08 175.092L253.933 179.239L258.036 183.343Z" fill="white"/>
<path d="M208.304 241.278L212.451 237.131L208.348 233.028L204.2 237.175L208.304 241.278Z" fill="white"/>
<path d="M216.555 241.233L220.702 237.086L216.599 232.983L212.451 237.13L216.555 241.233Z" fill="white"/>
<path d="M208.35 233.028L212.497 228.881L208.394 224.778L204.246 228.925L208.35 233.028Z" fill="white"/>
<path d="M216.601 232.981L220.748 228.834L216.645 224.731L212.497 228.878L216.601 232.981Z" fill="white"/>
<path d="M224.851 232.938L228.998 228.791L224.895 224.688L220.747 228.835L224.851 232.938Z" fill="white"/>
<path d="M216.646 224.733L220.793 220.586L216.69 216.483L212.542 220.63L216.646 224.733Z" fill="white"/>
<path d="M224.897 224.684L229.044 220.537L224.941 216.434L220.793 220.581L224.897 224.684Z" fill="white"/>
<path d="M233.145 224.644L229.042 220.54L232.369 217.213L233.82 220.559L235.525 222.264L233.145 224.644Z" fill="white"/>
<path d="M224.941 216.437L220.838 212.334L224.081 209.09L226.565 214.813L224.941 216.437Z" fill="white"/>
</g>
<g clip-path="url(#clip11_3223_22041)">
<path d="M206.252 277.334L199.11 270.192L193.795 275.507L180.353 262.065L181.13 274.05L175.98 262.182L172.534 254.246L169.475 257.304L168.816 256.645L160.402 248.231L165.894 260.886L169.338 268.823L172.659 265.502L177.753 277.237L184.909 284.394L180.654 288.649L182.845 293.68L186.375 297.21L206.252 277.334Z" fill="white"/>
<path d="M185.543 264.04L187.562 262.021L183.46 257.92L181.442 259.938L185.543 264.04Z" fill="white"/>
<path d="M191.666 266.122L195.813 261.975L191.71 257.871L187.563 262.019L191.666 266.122Z" fill="white"/>
<path d="M183.461 257.917L187.608 253.77L183.505 249.666L179.358 253.814L183.461 257.917Z" fill="white"/>
<path d="M191.712 257.87L195.859 253.723L191.756 249.619L187.609 253.767L191.712 257.87Z" fill="white"/>
<path d="M199.962 257.827L204.109 253.68L200.006 249.576L195.859 253.724L199.962 257.827Z" fill="white"/>
<path d="M191.757 249.622L195.904 245.475L191.801 241.371L187.654 245.519L191.757 249.622Z" fill="white"/>
<path d="M200.008 249.573L204.155 245.426L200.052 241.322L195.905 245.47L200.008 249.573Z" fill="white"/>
<path d="M208.259 249.53L212.406 245.383L208.303 241.28L204.156 245.427L208.259 249.53Z" fill="white"/>
<path d="M200.054 241.325L204.201 237.178L200.098 233.074L195.95 237.222L200.054 241.325Z" fill="white"/>
<path d="M150.321 299.261L154.469 295.113L150.365 291.01L146.218 295.157L150.321 299.261Z" fill="white"/>
<path d="M158.572 299.216L162.72 295.068L158.616 290.965L154.469 295.112L158.572 299.216Z" fill="white"/>
<path d="M150.367 291.011L154.515 286.863L150.411 282.76L146.264 286.907L150.367 291.011Z" fill="white"/>
<path d="M158.618 290.964L162.766 286.816L158.662 282.713L154.515 286.86L158.618 290.964Z" fill="white"/>
<path d="M166.868 290.921L171.016 286.773L166.912 282.67L162.765 286.818L166.868 290.921Z" fill="white"/>
<path d="M158.663 282.716L162.811 278.568L158.707 274.465L154.56 278.612L158.663 282.716Z" fill="white"/>
<path d="M166.914 282.667L171.062 278.52L166.958 274.416L162.811 278.564L166.914 282.667Z" fill="white"/>
<path d="M175.163 282.626L171.06 278.523L174.387 275.196L175.838 278.541L177.543 280.246L175.163 282.626Z" fill="white"/>
<path d="M166.959 274.419L162.855 270.316L166.099 267.072L168.583 272.795L166.959 274.419Z" fill="white"/>
</g>
<g clip-path="url(#clip12_3223_22041)">
<path d="M148.502 335.084L141.36 327.942L136.11 333.192L122.668 319.75L123.513 331.667L118.322 319.839L114.849 311.931L111.827 314.952L111.168 314.293L102.754 305.879L108.29 318.49L111.762 326.4L115.042 323.12L120.176 334.814L127.332 341.97L123.129 346.174L125.337 351.187L128.868 354.718L148.502 335.084Z" fill="white"/>
<path d="M127.838 321.744L129.832 319.75L125.73 315.648L123.737 317.642L127.838 321.744Z" fill="white"/>
<path d="M133.936 323.853L138.033 319.756L133.93 315.653L129.833 319.749L133.936 323.853Z" fill="white"/>
<path d="M125.731 315.648L129.828 311.551L125.725 307.447L121.628 311.544L125.731 315.648Z" fill="white"/>
<path d="M133.932 315.65L138.028 311.553L133.925 307.449L129.828 311.546L133.932 315.65Z" fill="white"/>
<path d="M142.132 315.657L146.229 311.561L142.125 307.457L138.028 311.554L142.132 315.657Z" fill="white"/>
<path d="M133.927 307.452L138.023 303.355L133.92 299.252L129.823 303.349L133.927 307.452Z" fill="white"/>
<path d="M142.127 307.456L146.224 303.359L142.12 299.256L138.024 303.353L142.127 307.456Z" fill="white"/>
<path d="M150.327 307.462L154.424 303.365L150.321 299.262L146.224 303.359L150.327 307.462Z" fill="white"/>
<path d="M142.122 299.257L146.219 295.16L142.115 291.057L138.019 295.154L142.122 299.257Z" fill="white"/>
<path d="M93.0458 356.536L97.1426 352.439L93.0393 348.336L88.9425 352.433L93.0458 356.536Z" fill="white"/>
<path d="M101.246 356.542L105.343 352.445L101.239 348.342L97.1427 352.439L101.246 356.542Z" fill="white"/>
<path d="M93.0409 348.337L97.1377 344.24L93.0344 340.137L88.9376 344.234L93.0409 348.337Z" fill="white"/>
<path d="M101.241 348.341L105.338 344.244L101.235 340.141L97.1378 344.238L101.241 348.341Z" fill="white"/>
<path d="M109.441 348.347L113.538 344.25L109.435 340.147L105.338 344.243L109.441 348.347Z" fill="white"/>
<path d="M101.236 340.142L105.333 336.045L101.23 331.942L97.1329 336.038L101.236 340.142Z" fill="white"/>
<path d="M109.436 340.146L113.533 336.049L109.43 331.946L105.333 336.042L109.436 340.146Z" fill="white"/>
<path d="M117.635 340.154L113.532 336.051L116.819 332.764L118.281 336.098L119.986 337.803L117.635 340.154Z" fill="white"/>
<path d="M109.43 331.948L105.326 327.845L108.53 324.641L111.034 330.344L109.43 331.948Z" fill="white"/>
</g>
<g clip-path="url(#clip13_3223_22041)">
<path d="M90.9932 392.592L83.8514 385.45L78.5365 390.765L65.0942 377.323L65.8708 389.308L60.7212 377.439L57.2752 369.504L54.2166 372.562L53.5571 371.903L45.143 363.489L50.6353 376.144L54.0796 384.081L57.4004 380.76L62.4937 392.495L69.65 399.651L65.3949 403.907L67.586 408.938L71.1167 412.468L90.9932 392.592Z" fill="white"/>
<path d="M70.2845 379.298L72.3027 377.279L68.201 373.178L66.1828 375.196L70.2845 379.298Z" fill="white"/>
<path d="M76.4073 381.38L80.5547 377.232L76.4514 373.129L72.304 377.276L76.4073 381.38Z" fill="white"/>
<path d="M68.2022 373.175L72.3496 369.027L68.2463 364.924L64.0989 369.071L68.2022 373.175Z" fill="white"/>
<path d="M76.4532 373.128L80.6006 368.98L76.4973 364.877L72.3499 369.025L76.4532 373.128Z" fill="white"/>
<path d="M84.7032 373.085L88.8506 368.938L84.7473 364.834L80.5999 368.982L84.7032 373.085Z" fill="white"/>
<path d="M76.4981 364.88L80.6455 360.732L76.5422 356.629L72.3948 360.776L76.4981 364.88Z" fill="white"/>
<path d="M84.7491 364.831L88.8965 360.684L84.7932 356.58L80.6458 360.728L84.7491 364.831Z" fill="white"/>
<path d="M93.0001 364.788L97.1475 360.641L93.0442 356.537L88.8968 360.685L93.0001 364.788Z" fill="white"/>
<path d="M84.795 356.583L88.9424 352.436L84.8391 348.332L80.6917 352.48L84.795 356.583Z" fill="white"/>
<path d="M43.4044 397.974L47.5518 393.826L43.4484 389.723L39.3011 393.87L43.4044 397.974Z" fill="white"/>
<path d="M51.6554 397.925L55.8027 393.777L51.6994 389.674L47.5521 393.821L51.6554 397.925Z" fill="white"/>
<path d="M59.9042 397.884L55.8009 393.781L59.1281 390.453L60.5792 393.799L62.2843 395.504L59.9042 397.884Z" fill="white"/>
<path d="M51.6998 389.677L47.5965 385.574L50.8401 382.33L53.324 388.053L51.6998 389.677Z" fill="white"/>
</g>
<g clip-path="url(#clip14_3223_22041)">
<path d="M-39.1924 355.902L-32.0506 363.044L-26.7357 357.729L-13.2934 371.172L-14.07 359.186L-8.92041 371.055L-5.47446 378.991L-2.41579 375.932L-1.7563 376.591L6.65781 385.005L1.16552 372.351L-2.27883 364.413L-5.59962 367.734L-10.6929 355.999L-17.8492 348.843L-13.5941 344.588L-15.7852 339.557L-19.3159 336.026L-39.1924 355.902Z" fill="white"/>
<path d="M16.7382 333.976L12.5908 338.123L16.6941 342.226L20.8415 338.079L16.7382 333.976Z" fill="white"/>
<path d="M8.48721 334.021L4.33984 338.168L8.44315 342.271L12.5905 338.124L8.48721 334.021Z" fill="white"/>
<path d="M16.6923 342.226L12.5449 346.373L16.6482 350.476L20.7956 346.329L16.6923 342.226Z" fill="white"/>
<path d="M8.44131 342.273L4.29395 346.42L8.39725 350.523L12.5446 346.376L8.44131 342.273Z" fill="white"/>
<path d="M0.191315 342.316L-3.95605 346.463L0.147251 350.566L4.29462 346.419L0.191315 342.316Z" fill="white"/>
<path d="M8.39639 350.521L4.24902 354.668L8.35233 358.771L12.4997 354.624L8.39639 350.521Z" fill="white"/>
<path d="M0.145415 350.569L-4.00195 354.717L0.101355 358.82L4.24872 354.673L0.145415 350.569Z" fill="white"/>
<path d="M0.101021 358.817L4.20433 362.92L0.96073 366.164L-1.52319 360.441L0.101021 358.817Z" fill="white"/>
</g>
<g clip-path="url(#clip15_3223_22041)">
<path d="M18.5576 298.15L25.6994 305.292L30.9495 300.042L44.3918 313.484L43.5468 301.567L48.7374 313.395L52.2107 321.303L55.2321 318.282L55.8916 318.942L64.3057 327.356L58.7697 314.744L55.298 306.834L52.0177 310.115L46.8839 298.42L39.7276 291.264L43.9308 287.061L41.7224 282.047L38.1917 278.516L18.5576 298.15Z" fill="white"/>
<path d="M39.2211 311.491L37.2275 313.484L41.3292 317.586L43.3228 315.592L39.2211 311.491Z" fill="white"/>
<path d="M33.1232 309.382L29.0264 313.479L33.1297 317.582L37.2265 313.485L33.1232 309.382Z" fill="white"/>
<path d="M41.3282 317.587L37.2314 321.684L41.3348 325.787L45.4315 321.69L41.3282 317.587Z" fill="white"/>
<path d="M33.128 317.585L29.0312 321.682L33.1346 325.785L37.2313 321.688L33.128 317.585Z" fill="white"/>
<path d="M24.9278 317.577L20.8311 321.674L24.9344 325.777L29.0312 321.68L24.9278 317.577Z" fill="white"/>
<path d="M33.1329 325.782L29.0361 329.879L33.1394 333.982L37.2362 329.885L33.1329 325.782Z" fill="white"/>
<path d="M24.9327 325.778L20.8359 329.875L24.9392 333.978L29.036 329.882L24.9327 325.778Z" fill="white"/>
<path d="M16.7325 325.772L12.6357 329.869L16.739 333.972L20.8358 329.876L16.7325 325.772Z" fill="white"/>
<path d="M24.9376 333.977L20.8408 338.074L24.9441 342.178L29.0409 338.081L24.9376 333.977Z" fill="white"/>
<path d="M74.0138 276.698L69.917 280.795L74.0203 284.898L78.1171 280.801L74.0138 276.698Z" fill="white"/>
<path d="M65.8136 276.692L61.7168 280.789L65.8201 284.892L69.9169 280.796L65.8136 276.692Z" fill="white"/>
<path d="M74.0187 284.897L69.9219 288.994L74.0252 293.097L78.122 289.001L74.0187 284.897Z" fill="white"/>
<path d="M65.8185 284.893L61.7217 288.99L65.825 293.094L69.9218 288.997L65.8185 284.893Z" fill="white"/>
<path d="M57.6183 284.888L53.5215 288.984L57.6248 293.088L61.7216 288.991L57.6183 284.888Z" fill="white"/>
<path d="M65.8234 293.093L61.7266 297.189L65.8299 301.293L69.9267 297.196L65.8234 293.093Z" fill="white"/>
<path d="M57.6232 293.089L53.5264 297.186L57.6297 301.289L61.7265 297.192L57.6232 293.089Z" fill="white"/>
<path d="M49.4243 293.081L53.5276 297.184L50.241 300.47L48.7784 297.137L47.0733 295.432L49.4243 293.081Z" fill="white"/>
<path d="M57.6298 301.286L61.7331 305.39L58.5291 308.594L56.0254 302.891L57.6298 301.286Z" fill="white"/>
</g>
<g clip-path="url(#clip16_3223_22041)">
<path d="M76.0664 240.643L83.2082 247.784L88.5231 242.469L101.965 255.912L101.189 243.927L106.338 255.795L109.784 263.731L112.843 260.672L113.502 261.332L121.917 269.746L116.424 257.091L112.98 249.153L109.659 252.474L104.566 240.739L97.4096 233.583L101.665 229.328L99.4736 224.297L95.9429 220.766L76.0664 240.643Z" fill="white"/>
<path d="M96.775 253.937L94.7568 255.955L98.8585 260.057L100.877 258.039L96.775 253.937Z" fill="white"/>
<path d="M90.6523 251.855L86.5049 256.002L90.6082 260.105L94.7556 255.958L90.6523 251.855Z" fill="white"/>
<path d="M98.8573 260.06L94.71 264.207L98.8133 268.31L102.961 264.163L98.8573 260.06Z" fill="white"/>
<path d="M90.6064 260.107L86.459 264.254L90.5623 268.357L94.7097 264.21L90.6064 260.107Z" fill="white"/>
<path d="M82.3564 260.15L78.209 264.297L82.3123 268.4L86.4597 264.253L82.3564 260.15Z" fill="white"/>
<path d="M90.5614 268.355L86.4141 272.502L90.5174 276.605L94.6647 272.458L90.5614 268.355Z" fill="white"/>
<path d="M82.3105 268.403L78.1631 272.551L82.2664 276.654L86.4138 272.507L82.3105 268.403Z" fill="white"/>
<path d="M74.0595 268.446L69.9121 272.594L74.0154 276.697L78.1628 272.55L74.0595 268.446Z" fill="white"/>
<path d="M82.2646 276.651L78.1172 280.799L82.2205 284.902L86.3679 280.755L82.2646 276.651Z" fill="white"/>
<path d="M131.997 218.716L127.85 222.863L131.953 226.967L136.1 222.819L131.997 218.716Z" fill="white"/>
<path d="M123.746 218.761L119.599 222.908L123.702 227.012L127.849 222.864L123.746 218.761Z" fill="white"/>
<path d="M131.951 226.966L127.804 231.113L131.907 235.217L136.054 231.069L131.951 226.966Z" fill="white"/>
<path d="M123.7 227.013L119.553 231.16L123.656 235.263L127.803 231.116L123.7 227.013Z" fill="white"/>
<path d="M115.45 227.056L111.303 231.203L115.406 235.306L119.553 231.159L115.45 227.056Z" fill="white"/>
<path d="M123.655 235.261L119.508 239.408L123.611 243.512L127.758 239.364L123.655 235.261Z" fill="white"/>
<path d="M115.404 235.31L111.257 239.457L115.36 243.56L119.508 239.413L115.404 235.31Z" fill="white"/>
<path d="M107.155 235.351L111.259 239.454L107.931 242.781L106.48 239.436L104.775 237.731L107.155 235.351Z" fill="white"/>
<path d="M115.36 243.557L119.463 247.66L116.22 250.904L113.736 245.181L115.36 243.557Z" fill="white"/>
</g>
<g clip-path="url(#clip17_3223_22041)">
<path d="M134.049 182.66L141.191 189.802L146.505 184.487L159.948 197.929L159.171 185.944L164.321 197.812L167.767 205.748L170.825 202.69L171.485 203.349L179.899 211.763L174.407 199.108L170.962 191.171L167.642 194.492L162.548 182.757L155.392 175.601L159.647 171.345L157.456 166.314L153.925 162.784L134.049 182.66Z" fill="white"/>
<path d="M154.757 195.954L152.739 197.973L156.841 202.074L158.859 200.056L154.757 195.954Z" fill="white"/>
<path d="M148.635 193.872L144.487 198.02L148.591 202.123L152.738 197.975L148.635 193.872Z" fill="white"/>
<path d="M156.84 202.077L152.692 206.225L156.796 210.328L160.943 206.181L156.84 202.077Z" fill="white"/>
<path d="M148.589 202.124L144.441 206.271L148.545 210.375L152.692 206.227L148.589 202.124Z" fill="white"/>
<path d="M140.339 202.167L136.191 206.314L140.295 210.418L144.442 206.27L140.339 202.167Z" fill="white"/>
<path d="M148.544 210.372L144.396 214.52L148.5 218.623L152.647 214.475L148.544 210.372Z" fill="white"/>
<path d="M140.293 210.421L136.146 214.568L140.249 218.672L144.396 214.524L140.293 210.421Z" fill="white"/>
<path d="M132.042 210.464L127.895 214.611L131.998 218.715L136.145 214.567L132.042 210.464Z" fill="white"/>
<path d="M140.247 218.669L136.1 222.816L140.203 226.92L144.35 222.772L140.247 218.669Z" fill="white"/>
<path d="M189.979 160.733L185.832 164.881L189.935 168.984L194.083 164.837L189.979 160.733Z" fill="white"/>
<path d="M181.728 160.778L177.581 164.926L181.684 169.029L185.832 164.882L181.728 160.778Z" fill="white"/>
<path d="M189.934 168.983L185.786 173.131L189.889 177.234L194.037 173.087L189.934 168.983Z" fill="white"/>
<path d="M181.683 169.03L177.535 173.178L181.638 177.281L185.786 173.134L181.683 169.03Z" fill="white"/>
<path d="M173.433 169.073L169.285 173.221L173.388 177.324L177.536 173.177L173.433 169.073Z" fill="white"/>
<path d="M181.638 177.278L177.49 181.426L181.594 185.529L185.741 181.382L181.638 177.278Z" fill="white"/>
<path d="M173.387 177.327L169.239 181.475L173.343 185.578L177.49 181.431L173.387 177.327Z" fill="white"/>
<path d="M165.138 177.368L169.241 181.471L165.914 184.799L164.463 181.453L162.758 179.748L165.138 177.368Z" fill="white"/>
<path d="M173.342 185.575L177.446 189.678L174.202 192.922L171.718 187.199L173.342 185.575Z" fill="white"/>
</g>
<g clip-path="url(#clip18_3223_22041)">
<path d="M191.799 124.91L198.941 132.052L204.191 126.802L217.633 140.244L216.788 128.327L221.979 140.155L225.452 148.063L228.473 145.042L229.133 145.701L237.547 154.115L232.011 141.504L228.539 133.594L225.259 136.874L220.125 125.18L212.969 118.024L217.172 113.821L214.964 108.807L211.433 105.276L191.799 124.91Z" fill="white"/>
<path d="M212.462 138.251L210.469 140.244L214.57 144.346L216.564 142.352L212.462 138.251Z" fill="white"/>
<path d="M206.364 136.141L202.268 140.238L206.371 144.342L210.468 140.245L206.364 136.141Z" fill="white"/>
<path d="M214.569 144.347L210.473 148.443L214.576 152.547L218.673 148.45L214.569 144.347Z" fill="white"/>
<path d="M206.369 144.345L202.272 148.441L206.376 152.545L210.473 148.448L206.369 144.345Z" fill="white"/>
<path d="M198.169 144.337L194.072 148.434L198.176 152.537L202.272 148.44L198.169 144.337Z" fill="white"/>
<path d="M206.374 152.542L202.277 156.639L206.381 160.742L210.477 156.645L206.374 152.542Z" fill="white"/>
<path d="M198.174 152.538L194.077 156.635L198.18 160.738L202.277 156.641L198.174 152.538Z" fill="white"/>
<path d="M189.974 152.532L185.877 156.629L189.98 160.732L194.077 156.635L189.974 152.532Z" fill="white"/>
<path d="M198.179 160.737L194.082 164.834L198.185 168.937L202.282 164.841L198.179 160.737Z" fill="white"/>
<path d="M247.255 103.458L243.158 107.555L247.262 111.658L251.358 107.561L247.255 103.458Z" fill="white"/>
<path d="M239.055 103.452L234.958 107.549L239.061 111.652L243.158 107.555L239.055 103.452Z" fill="white"/>
<path d="M247.26 111.657L243.163 115.754L247.266 119.857L251.363 115.76L247.26 111.657Z" fill="white"/>
<path d="M239.06 111.653L234.963 115.75L239.066 119.853L243.163 115.757L239.06 111.653Z" fill="white"/>
<path d="M230.859 111.647L226.763 115.744L230.866 119.847L234.963 115.751L230.859 111.647Z" fill="white"/>
<path d="M239.065 119.852L234.968 123.949L239.071 128.053L243.168 123.956L239.065 119.852Z" fill="white"/>
<path d="M230.864 119.849L226.768 123.945L230.871 128.049L234.968 123.952L230.864 119.849Z" fill="white"/>
<path d="M222.666 119.84L226.769 123.944L223.482 127.23L222.02 123.896L220.315 122.191L222.666 119.84Z" fill="white"/>
<path d="M230.871 128.046L234.974 132.149L231.77 135.353L229.267 129.65L230.871 128.046Z" fill="white"/>
</g>
<g clip-path="url(#clip19_3223_22041)">
<path d="M249.307 67.4023L256.448 74.5441L261.763 69.2293L275.206 82.6716L274.429 70.6863L279.579 82.5547L283.025 90.4905L286.083 87.4319L286.743 88.0914L295.157 96.5055L289.665 83.8506L286.22 75.9131L282.899 79.2339L277.806 67.499L270.65 60.3427L274.905 56.0876L272.714 51.0565L269.183 47.5259L249.307 67.4023Z" fill="white"/>
<path d="M270.015 80.6966L267.997 82.7148L272.099 86.8165L274.117 84.7983L270.015 80.6966Z" fill="white"/>
<path d="M263.892 78.6143L259.745 82.7617L263.848 86.865L267.996 82.7177L263.892 78.6143Z" fill="white"/>
<path d="M272.098 86.8194L267.95 90.9668L272.054 95.0701L276.201 90.9227L272.098 86.8194Z" fill="white"/>
<path d="M263.847 86.8663L259.699 91.0137L263.803 95.117L267.95 90.9696L263.847 86.8663Z" fill="white"/>
<path d="M255.597 86.9093L251.449 91.0566L255.553 95.1599L259.7 91.0126L255.597 86.9093Z" fill="white"/>
<path d="M263.802 95.1144L259.654 99.2617L263.758 103.365L267.905 99.2177L263.802 95.1144Z" fill="white"/>
<path d="M255.551 95.1632L251.403 99.3105L255.507 103.414L259.654 99.2665L255.551 95.1632Z" fill="white"/>
<path d="M247.3 95.2061L243.152 99.3535L247.256 103.457L251.403 99.3095L247.3 95.2061Z" fill="white"/>
<path d="M255.505 103.411L251.357 107.559L255.461 111.662L259.608 107.515L255.505 103.411Z" fill="white"/>
<path d="M305.237 45.4757L301.09 49.623L305.193 53.7264L309.341 49.579L305.237 45.4757Z" fill="white"/>
<path d="M296.986 45.5206L292.839 49.668L296.942 53.7713L301.09 49.6239L296.986 45.5206Z" fill="white"/>
<path d="M305.191 53.7257L301.044 57.873L305.147 61.9764L309.295 57.829L305.191 53.7257Z" fill="white"/>
<path d="M296.94 53.7726L292.793 57.9199L296.896 62.0232L301.044 57.8759L296.94 53.7726Z" fill="white"/>
<path d="M288.69 53.8155L284.543 57.9629L288.646 62.0662L292.794 57.9188L288.69 53.8155Z" fill="white"/>
<path d="M296.895 62.0206L292.748 66.168L296.851 70.2713L300.999 66.1239L296.895 62.0206Z" fill="white"/>
<path d="M288.644 62.0694L284.497 66.2168L288.6 70.3201L292.748 66.1727L288.644 62.0694Z" fill="white"/>
<path d="M280.396 62.1103L284.499 66.2136L281.172 69.5408L279.721 66.1953L278.016 64.4903L280.396 62.1103Z" fill="white"/>
<path d="M288.6 70.3169L292.703 74.4203L289.46 77.6639L286.976 71.9412L288.6 70.3169Z" fill="white"/>
</g>
<g clip-path="url(#clip20_3223_22041)">
<path d="M307.058 9.65234L314.199 16.7941L319.449 11.5441L332.892 24.9864L332.047 13.0694L337.237 24.8969L340.711 32.8053L343.732 29.784L344.392 30.4435L352.806 38.8576L347.27 26.2463L343.798 18.3363L340.518 21.6166L335.384 9.92217L328.228 2.76591L332.431 -1.43731L330.222 -6.45108L326.692 -9.98175L307.058 9.65234Z" fill="white"/>
<path d="M327.721 22.9927L325.728 24.9863L329.829 29.088L331.823 27.0944L327.721 22.9927Z" fill="white"/>
<path d="M321.623 20.8837L317.526 24.9805L321.63 29.0838L325.726 24.987L321.623 20.8837Z" fill="white"/>
<path d="M329.828 29.0888L325.731 33.1855L329.835 37.2889L333.932 33.1921L329.828 29.0888Z" fill="white"/>
<path d="M321.628 29.0868L317.531 33.1836L321.635 37.2869L325.731 33.1901L321.628 29.0868Z" fill="white"/>
<path d="M313.428 29.079L309.331 33.1758L313.434 37.2791L317.531 33.1823L313.428 29.079Z" fill="white"/>
<path d="M321.633 37.2841L317.536 41.3809L321.639 45.4842L325.736 41.3874L321.633 37.2841Z" fill="white"/>
<path d="M313.433 37.2802L309.336 41.377L313.439 45.4803L317.536 41.3835L313.433 37.2802Z" fill="white"/>
<path d="M305.233 37.2743L301.136 41.3711L305.239 45.4744L309.336 41.3776L305.233 37.2743Z" fill="white"/>
<path d="M313.438 45.4794L309.341 49.5762L313.444 53.6795L317.541 49.5827L313.438 45.4794Z" fill="white"/>
<path d="M337.924 4.58249L342.028 8.6858L338.741 11.9724L337.278 8.63852L335.573 6.9335L337.924 4.58249Z" fill="white"/>
</g>
<g clip-path="url(#clip21_3223_22041)">
<path d="M276.256 0.857422L269.114 -6.28436L263.799 -0.96949L250.357 -14.4118L251.134 -2.42651L245.984 -14.2949L242.538 -22.2308L239.479 -19.1721L238.82 -19.8316L230.406 -28.2457L235.898 -15.5908L239.342 -7.65333L242.663 -10.9741L247.756 0.76078L254.913 7.91704L250.658 12.1722L252.849 17.2032L256.379 20.7339L276.256 0.857422Z" fill="white"/>
<path d="M220.325 22.7841L224.473 18.6367L220.369 14.5334L216.222 18.6808L220.325 22.7841Z" fill="white"/>
<path d="M228.576 22.7392L232.724 18.5918L228.62 14.4885L224.473 18.6359L228.576 22.7392Z" fill="white"/>
<path d="M220.371 14.5341L224.519 10.3867L220.415 6.28341L216.268 10.4308L220.371 14.5341Z" fill="white"/>
<path d="M228.622 14.4872L232.77 10.3398L228.666 6.23653L224.519 10.3839L228.622 14.4872Z" fill="white"/>
<path d="M236.872 14.4442L241.02 10.2969L236.916 6.19357L232.769 10.3409L236.872 14.4442Z" fill="white"/>
<path d="M228.667 6.23917L232.814 2.0918L228.711 -2.01151L224.564 2.13586L228.667 6.23917Z" fill="white"/>
<path d="M236.918 6.19034L241.065 2.04297L236.962 -2.06034L232.815 2.08703L236.918 6.19034Z" fill="white"/>
<path d="M245.167 6.14949L241.064 2.04618L244.391 -1.28104L245.842 2.06443L247.547 3.76945L245.167 6.14949Z" fill="white"/>
</g>
<g clip-path="url(#clip22_3223_22041)">
<path d="M218.506 58.6074L211.364 51.4656L206.114 56.7157L192.672 43.2734L193.517 55.1903L188.326 43.3629L184.853 35.4544L181.831 38.4758L181.172 37.8163L172.758 29.4022L178.294 42.0134L181.765 49.9235L185.046 46.6432L190.18 58.3376L197.336 65.4938L193.133 69.6971L195.341 74.7108L198.872 78.2415L218.506 58.6074Z" fill="white"/>
<path d="M197.842 45.267L199.836 43.2734L195.734 39.1717L193.741 41.1653L197.842 45.267Z" fill="white"/>
<path d="M203.94 47.3761L208.037 43.2793L203.934 39.176L199.837 43.2728L203.94 47.3761Z" fill="white"/>
<path d="M195.735 39.171L199.832 35.0742L195.729 30.9709L191.632 35.0677L195.735 39.171Z" fill="white"/>
<path d="M203.935 39.173L208.032 35.0762L203.929 30.9729L199.832 35.0697L203.935 39.173Z" fill="white"/>
<path d="M212.136 39.1808L216.232 35.084L212.129 30.9807L208.032 35.0775L212.136 39.1808Z" fill="white"/>
<path d="M203.931 30.9757L208.027 26.8789L203.924 22.7756L199.827 26.8724L203.931 30.9757Z" fill="white"/>
<path d="M212.131 30.9796L216.228 26.8828L212.124 22.7795L208.027 26.8763L212.131 30.9796Z" fill="white"/>
<path d="M220.331 30.9855L224.428 26.8887L220.324 22.7854L216.228 26.8822L220.331 30.9855Z" fill="white"/>
<path d="M212.126 22.7804L216.223 18.6836L212.119 14.5803L208.023 18.6771L212.126 22.7804Z" fill="white"/>
<path d="M163.05 80.0597L167.146 75.9629L163.043 71.8596L158.946 75.9564L163.05 80.0597Z" fill="white"/>
<path d="M171.25 80.0655L175.347 75.9688L171.243 71.8654L167.147 75.9622L171.25 80.0655Z" fill="white"/>
<path d="M163.045 71.8605L167.142 67.7637L163.038 63.6604L158.942 67.7572L163.045 71.8605Z" fill="white"/>
<path d="M171.245 71.8644L175.342 67.7676L171.238 63.6643L167.142 67.7611L171.245 71.8644Z" fill="white"/>
<path d="M179.445 71.8702L183.542 67.7734L179.439 63.6701L175.342 67.7669L179.445 71.8702Z" fill="white"/>
<path d="M171.24 63.6652L175.337 59.5684L171.234 55.4651L167.137 59.5618L171.24 63.6652Z" fill="white"/>
<path d="M179.44 63.6691L183.537 59.5723L179.434 55.469L175.337 59.5657L179.44 63.6691Z" fill="white"/>
<path d="M187.639 63.6773L183.536 59.574L186.822 56.2873L188.285 59.6212L189.99 61.3263L187.639 63.6773Z" fill="white"/>
<path d="M179.434 55.4716L175.33 51.3683L178.534 48.1643L181.038 53.8672L179.434 55.4716Z" fill="white"/>
</g>
<g clip-path="url(#clip23_3223_22041)">
<path d="M160.997 116.115L153.855 108.973L148.54 114.288L135.098 100.846L135.875 112.831L130.725 100.963L127.279 93.027L124.22 96.0857L123.561 95.4262L115.147 87.0121L120.639 99.667L124.084 107.604L127.404 104.284L132.498 116.019L139.654 123.175L135.399 127.43L137.59 132.461L141.121 135.992L160.997 116.115Z" fill="white"/>
<path d="M140.288 102.821L142.307 100.803L138.205 96.701L136.187 98.7192L140.288 102.821Z" fill="white"/>
<path d="M146.411 104.903L150.559 100.756L146.455 96.6526L142.308 100.8L146.411 104.903Z" fill="white"/>
<path d="M138.206 96.6982L142.354 92.5508L138.25 88.4475L134.103 92.5948L138.206 96.6982Z" fill="white"/>
<path d="M146.457 96.6513L150.604 92.5039L146.501 88.4006L142.354 92.548L146.457 96.6513Z" fill="white"/>
<path d="M154.707 96.6083L158.854 92.4609L154.751 88.3576L150.604 92.505L154.707 96.6083Z" fill="white"/>
<path d="M146.502 88.4032L150.649 84.2559L146.546 80.1526L142.399 84.2999L146.502 88.4032Z" fill="white"/>
<path d="M154.753 88.3544L158.9 84.207L154.797 80.1037L150.65 84.2511L154.753 88.3544Z" fill="white"/>
<path d="M163.004 88.3114L167.151 84.1641L163.048 80.0608L158.901 84.2081L163.004 88.3114Z" fill="white"/>
<path d="M154.799 80.1064L158.946 75.959L154.843 71.8557L150.696 76.003L154.799 80.1064Z" fill="white"/>
<path d="M105.067 138.042L109.214 133.895L105.111 129.791L100.963 133.939L105.067 138.042Z" fill="white"/>
<path d="M113.317 137.997L117.465 133.85L113.362 129.746L109.214 133.894L113.317 137.997Z" fill="white"/>
<path d="M105.112 129.792L109.26 125.645L105.156 121.541L101.009 125.689L105.112 129.792Z" fill="white"/>
<path d="M113.363 129.745L117.511 125.598L113.407 121.494L109.26 125.642L113.363 129.745Z" fill="white"/>
<path d="M121.613 129.702L125.761 125.555L121.657 121.451L117.51 125.599L121.613 129.702Z" fill="white"/>
<path d="M113.408 121.497L117.556 117.35L113.452 113.246L109.305 117.394L113.408 121.497Z" fill="white"/>
<path d="M121.659 121.448L125.807 117.301L121.703 113.197L117.556 117.345L121.659 121.448Z" fill="white"/>
<path d="M129.908 121.407L125.805 117.304L129.132 113.977L130.583 117.322L132.288 119.027L129.908 121.407Z" fill="white"/>
<path d="M121.704 113.201L117.6 109.097L120.844 105.854L123.328 111.576L121.704 113.201Z" fill="white"/>
</g>
<g clip-path="url(#clip24_3223_22041)">
<path d="M103.015 174.098L95.8729 166.956L90.558 172.271L77.1157 158.828L77.8923 170.814L72.7427 158.945L69.2967 151.009L66.2381 154.068L65.5786 153.409L57.1645 144.995L62.6567 157.649L66.1011 165.587L69.4219 162.266L74.5152 174.001L81.6715 181.157L77.4164 185.412L79.6075 190.443L83.1382 193.974L103.015 174.098Z" fill="white"/>
<path d="M82.306 160.803L84.3242 158.785L80.2225 154.683L78.2043 156.702L82.306 160.803Z" fill="white"/>
<path d="M88.4288 162.886L92.5762 158.738L88.4729 154.635L84.3255 158.782L88.4288 162.886Z" fill="white"/>
<path d="M80.2237 154.681L84.3711 150.533L80.2678 146.43L76.1204 150.577L80.2237 154.681Z" fill="white"/>
<path d="M88.4747 154.634L92.6221 150.486L88.5188 146.383L84.3714 150.53L88.4747 154.634Z" fill="white"/>
<path d="M96.7247 154.591L100.872 150.443L96.7688 146.34L92.6214 150.487L96.7247 154.591Z" fill="white"/>
<path d="M88.5196 146.386L92.667 142.238L88.5637 138.135L84.4163 142.282L88.5196 146.386Z" fill="white"/>
<path d="M96.7706 146.337L100.918 142.189L96.8147 138.086L92.6673 142.234L96.7706 146.337Z" fill="white"/>
<path d="M105.022 146.294L109.169 142.146L105.066 138.043L100.918 142.191L105.022 146.294Z" fill="white"/>
<path d="M96.8165 138.089L100.964 133.941L96.8606 129.838L92.7132 133.985L96.8165 138.089Z" fill="white"/>
<path d="M47.0841 196.024L51.2314 191.877L47.1281 187.774L42.9808 191.921L47.0841 196.024Z" fill="white"/>
<path d="M55.3351 195.979L59.4824 191.832L55.3791 187.729L51.2317 191.876L55.3351 195.979Z" fill="white"/>
<path d="M47.13 187.774L51.2773 183.627L47.174 179.524L43.0267 183.671L47.13 187.774Z" fill="white"/>
<path d="M55.381 187.727L59.5283 183.58L55.425 179.477L51.2776 183.624L55.381 187.727Z" fill="white"/>
<path d="M63.631 187.684L67.7783 183.537L63.675 179.434L59.5276 183.581L63.631 187.684Z" fill="white"/>
<path d="M55.4259 179.479L59.5732 175.332L55.4699 171.229L51.3226 175.376L55.4259 179.479Z" fill="white"/>
<path d="M63.6769 179.431L67.8242 175.283L63.7209 171.18L59.5735 175.327L63.6769 179.431Z" fill="white"/>
<path d="M71.9257 179.39L67.8224 175.286L71.1496 171.959L72.6007 175.305L74.3057 177.01L71.9257 179.39Z" fill="white"/>
<path d="M63.7212 171.183L59.6179 167.08L62.8615 163.836L65.3455 169.559L63.7212 171.183Z" fill="white"/>
</g>
<g clip-path="url(#clip25_3223_22041)">
<path d="M45.2646 231.848L38.1229 224.706L32.8728 229.956L19.4305 216.514L20.2755 228.431L15.0849 216.603L11.6115 208.695L8.59017 211.716L7.93069 211.057L-0.483427 202.642L5.05254 215.254L8.52429 223.164L11.8046 219.883L16.9384 231.578L24.0947 238.734L19.8914 242.937L22.0999 247.951L25.6305 251.482L45.2646 231.848Z" fill="white"/>
<path d="M24.6011 218.507L26.5947 216.514L22.493 212.412L20.4994 214.406L24.6011 218.507Z" fill="white"/>
<path d="M30.6991 220.616L34.7959 216.52L30.6926 212.416L26.5958 216.513L30.6991 220.616Z" fill="white"/>
<path d="M22.494 212.411L26.5908 208.314L22.4875 204.211L18.3907 208.308L22.494 212.411Z" fill="white"/>
<path d="M30.6942 212.413L34.791 208.316L30.6877 204.213L26.5909 208.31L30.6942 212.413Z" fill="white"/>
<path d="M38.8944 212.421L42.9912 208.324L38.8879 204.221L34.7911 208.318L38.8944 212.421Z" fill="white"/>
<path d="M30.6893 204.216L34.7861 200.119L30.6828 196.016L26.586 200.113L30.6893 204.216Z" fill="white"/>
<path d="M38.8895 204.22L42.9863 200.123L38.883 196.02L34.7862 200.117L38.8895 204.22Z" fill="white"/>
<path d="M47.0897 204.226L51.1865 200.129L47.0832 196.026L42.9864 200.122L47.0897 204.226Z" fill="white"/>
<path d="M38.8847 196.021L42.9814 191.924L38.8781 187.821L34.7813 191.917L38.8847 196.021Z" fill="white"/>
<path d="M-1.99132 253.306L2.10547 249.209L-1.99784 245.106L-6.09463 249.202L-1.99132 253.306Z" fill="white"/>
<path d="M-1.9962 245.105L2.10059 241.008L-2.00272 236.905L-6.09951 241.001L-1.9962 245.105Z" fill="white"/>
<path d="M6.20399 245.11L10.3008 241.014L6.19748 236.91L2.10068 241.007L6.20399 245.11Z" fill="white"/>
<path d="M-2.00109 236.905L2.0957 232.809L-2.00761 228.705L-6.1044 232.802L-2.00109 236.905Z" fill="white"/>
<path d="M6.19911 236.909L10.2959 232.812L6.19259 228.709L2.0958 232.806L6.19911 236.909Z" fill="white"/>
<path d="M14.3979 236.918L10.2946 232.814L13.5813 229.528L15.0439 232.861L16.7489 234.566L14.3979 236.918Z" fill="white"/>
<path d="M6.19244 228.712L2.08913 224.609L5.29318 221.405L7.79684 227.107L6.19244 228.712Z" fill="white"/>
</g>
<g clip-path="url(#clip26_3223_22041)">
<path d="M-27.1709 137.406L-20.0291 144.548L-14.7142 139.233L-1.27193 152.675L-2.04855 140.69L3.10107 152.559L6.54703 160.494L9.60569 157.436L10.2652 158.095L18.6793 166.509L13.187 153.854L9.74265 145.917L6.42186 149.238L1.32854 137.503L-5.82772 130.347L-1.5726 126.092L-3.76373 121.06L-7.2944 117.53L-27.1709 137.406Z" fill="white"/>
<path d="M28.7597 115.48L24.6123 119.627L28.7156 123.73L32.863 119.583L28.7597 115.48Z" fill="white"/>
<path d="M20.5087 115.525L16.3613 119.672L20.4646 123.775L24.612 119.628L20.5087 115.525Z" fill="white"/>
<path d="M28.7138 123.73L24.5664 127.877L28.6697 131.98L32.8171 127.833L28.7138 123.73Z" fill="white"/>
<path d="M20.4628 123.776L16.3154 127.924L20.4187 132.027L24.5661 127.88L20.4628 123.776Z" fill="white"/>
<path d="M12.2128 123.819L8.06543 127.967L12.1687 132.07L16.3161 127.923L12.2128 123.819Z" fill="white"/>
<path d="M20.4179 132.025L16.2705 136.172L20.3738 140.275L24.5212 136.128L20.4179 132.025Z" fill="white"/>
<path d="M12.1669 132.073L8.01953 136.221L12.1228 140.324L16.2702 136.177L12.1669 132.073Z" fill="white"/>
<path d="M3.91804 132.114L8.02135 136.217L4.69413 139.545L3.24303 136.199L1.53801 134.494L3.91804 132.114Z" fill="white"/>
<path d="M12.1225 140.321L16.2258 144.424L12.9822 147.668L10.4983 141.945L12.1225 140.321Z" fill="white"/>
</g>
<g clip-path="url(#clip27_3223_22041)">
<path d="M30.8115 79.4238L37.9533 86.5656L43.2682 81.2507L56.7105 94.6931L55.9339 82.7078L61.0835 94.5762L64.5295 102.512L67.5881 99.4533L68.2476 100.113L76.6617 108.527L71.1694 95.872L67.7251 87.9346L64.4043 91.2554L59.311 79.5205L52.1547 72.3642L56.4098 68.1091L54.2187 63.078L50.688 59.5473L30.8115 79.4238Z" fill="white"/>
<path d="M51.5202 92.7181L49.502 94.7363L53.6037 98.838L55.6219 96.8198L51.5202 92.7181Z" fill="white"/>
<path d="M45.3974 90.6358L41.25 94.7832L45.3533 98.8865L49.5007 94.7391L45.3974 90.6358Z" fill="white"/>
<path d="M53.6024 98.8409L49.4551 102.988L53.5584 107.092L57.7058 102.944L53.6024 98.8409Z" fill="white"/>
<path d="M45.3515 98.8878L41.2041 103.035L45.3074 107.138L49.4548 102.991L45.3515 98.8878Z" fill="white"/>
<path d="M37.1015 98.9308L32.9541 103.078L37.0574 107.181L41.2048 103.034L37.1015 98.9308Z" fill="white"/>
<path d="M45.3065 107.136L41.1592 111.283L45.2625 115.387L49.4099 111.239L45.3065 107.136Z" fill="white"/>
<path d="M37.0556 107.185L32.9082 111.332L37.0115 115.435L41.1589 111.288L37.0556 107.185Z" fill="white"/>
<path d="M28.8046 107.228L24.6572 111.375L28.7605 115.478L32.9079 111.331L28.8046 107.228Z" fill="white"/>
<path d="M37.0097 115.433L32.8623 119.58L36.9656 123.683L41.113 119.536L37.0097 115.433Z" fill="white"/>
<path d="M86.7421 57.4972L82.5947 61.6445L86.698 65.7478L90.8454 61.6005L86.7421 57.4972Z" fill="white"/>
<path d="M78.4911 57.5421L74.3438 61.6895L78.4471 65.7928L82.5944 61.6454L78.4911 57.5421Z" fill="white"/>
<path d="M86.6962 65.7472L82.5488 69.8945L86.6521 73.9978L90.7995 69.8505L86.6962 65.7472Z" fill="white"/>
<path d="M78.4452 65.794L74.2979 69.9414L78.4012 74.0447L82.5485 69.8973L78.4452 65.794Z" fill="white"/>
<path d="M70.1952 65.837L66.0479 69.9844L70.1512 74.0877L74.2985 69.9403L70.1952 65.837Z" fill="white"/>
<path d="M78.4003 74.0421L74.2529 78.1895L78.3562 82.2928L82.5036 78.1454L78.4003 74.0421Z" fill="white"/>
<path d="M70.1493 74.0909L66.002 78.2383L70.1053 82.3416L74.2526 78.1942L70.1493 74.0909Z" fill="white"/>
<path d="M61.9005 74.1318L66.0038 78.2351L62.6765 81.5623L61.2255 78.2168L59.5204 76.5118L61.9005 74.1318Z" fill="white"/>
<path d="M70.1049 82.3384L74.2082 86.4417L70.9646 89.6853L68.4807 83.9626L70.1049 82.3384Z" fill="white"/>
</g>
<g clip-path="url(#clip28_3223_22041)">
<path d="M88.5615 21.6738L95.7033 28.8156L100.953 23.5656L114.396 37.0079L113.551 25.0909L118.741 36.9183L122.215 44.8268L125.236 41.8055L125.895 42.465L134.31 50.8791L128.774 38.2678L125.302 30.3578L122.022 33.6381L116.888 21.9437L109.732 14.7874L113.935 10.5842L111.726 5.57041L108.196 2.03973L88.5615 21.6738Z" fill="white"/>
<path d="M109.225 35.0142L107.231 37.0078L111.333 41.1095L113.327 39.1159L109.225 35.0142Z" fill="white"/>
<path d="M103.127 32.9052L99.0303 37.002L103.134 41.1053L107.23 37.0085L103.127 32.9052Z" fill="white"/>
<path d="M111.332 41.1102L107.235 45.207L111.339 49.3103L115.435 45.2135L111.332 41.1102Z" fill="white"/>
<path d="M103.132 41.1083L99.0352 45.2051L103.138 49.3084L107.235 45.2116L103.132 41.1083Z" fill="white"/>
<path d="M94.9318 41.1005L90.835 45.1973L94.9383 49.3006L99.0351 45.2038L94.9318 41.1005Z" fill="white"/>
<path d="M103.137 49.3056L99.04 53.4023L103.143 57.5057L107.24 53.4089L103.137 49.3056Z" fill="white"/>
<path d="M94.9366 49.3016L90.8398 53.3984L94.9432 57.5017L99.0399 53.405L94.9366 49.3016Z" fill="white"/>
<path d="M86.7364 49.2958L82.6396 53.3926L86.743 57.4959L90.8397 53.3991L86.7364 49.2958Z" fill="white"/>
<path d="M94.9415 57.5009L90.8447 61.5977L94.948 65.701L99.0448 61.6042L94.9415 57.5009Z" fill="white"/>
<path d="M144.018 0.221572L139.921 4.31836L144.024 8.42167L148.121 4.32488L144.018 0.221572Z" fill="white"/>
<path d="M135.817 0.215708L131.721 4.3125L135.824 8.41581L139.921 4.31901L135.817 0.215708Z" fill="white"/>
<path d="M144.023 8.42079L139.926 12.5176L144.029 16.6209L148.126 12.5241L144.023 8.42079Z" fill="white"/>
<path d="M135.822 8.41688L131.726 12.5137L135.829 16.617L139.926 12.5202L135.822 8.41688Z" fill="white"/>
<path d="M127.622 8.41102L123.525 12.5078L127.629 16.6111L131.725 12.5143L127.622 8.41102Z" fill="white"/>
<path d="M135.827 16.6161L131.73 20.7129L135.834 24.8162L139.931 20.7194L135.827 16.6161Z" fill="white"/>
<path d="M127.627 16.6122L123.53 20.709L127.634 24.8123L131.73 20.7155L127.627 16.6122Z" fill="white"/>
<path d="M119.428 16.604L123.532 20.7073L120.245 23.9939L118.782 20.66L117.077 18.955L119.428 16.604Z" fill="white"/>
<path d="M127.634 24.8096L131.737 28.9129L128.533 32.117L126.029 26.414L127.634 24.8096Z" fill="white"/>
</g>
<g clip-path="url(#clip29_3223_22041)">
<path d="M146.069 -35.834L153.211 -28.6922L158.526 -34.0071L171.968 -20.5648L171.192 -32.5501L176.341 -20.6817L179.787 -12.7458L182.846 -15.8045L183.505 -15.145L191.92 -6.73086L186.427 -19.3858L182.983 -27.3232L179.662 -24.0024L174.569 -35.7373L167.413 -42.8936L171.668 -47.1487L169.477 -52.1798L165.946 -55.7105L146.069 -35.834Z" fill="white"/>
<path d="M160.564 -8.12198L156.417 -3.97461L160.52 0.128699L164.668 -4.01867L160.564 -8.12198Z" fill="white"/>
<path d="M152.313 -8.07315L148.166 -3.92578L152.269 0.177527L156.417 -3.96984L152.313 -8.07315Z" fill="white"/>
<path d="M144.062 -8.03018L139.915 -3.88281L144.018 0.220494L148.166 -3.92688L144.062 -8.03018Z" fill="white"/>
<path d="M152.267 0.174896L148.12 4.32227L152.223 8.42557L156.371 4.2782L152.267 0.174896Z" fill="white"/>
</g>
<g clip-path="url(#clip30_3223_22041)">
<path d="M57.7588 12.877L50.617 5.73517L45.3021 11.05L31.8598 -2.39227L32.6364 9.59302L27.4868 -2.27538L24.0409 -10.2112L20.9822 -7.15257L20.3227 -7.81206L11.9086 -16.2262L17.4009 -3.57126L20.8452 4.3662L24.166 1.04541L29.2594 12.7803L36.4156 19.9366L32.1605 24.1917L34.3516 29.2228L37.8823 32.7534L57.7588 12.877Z" fill="white"/>
<path d="M43.1729 1.66495L47.3203 -2.48242L43.217 -6.58573L39.0696 -2.43836L43.1729 1.66495Z" fill="white"/>
<path d="M1.82822 34.8036L5.97559 30.6562L1.87228 26.5529L-2.27509 30.7003L1.82822 34.8036Z" fill="white"/>
<path d="M10.0792 34.7587L14.2266 30.6113L10.1233 26.508L5.97589 30.6554L10.0792 34.7587Z" fill="white"/>
<path d="M1.87411 26.5536L6.02148 22.4062L1.91818 18.3029L-2.22919 22.4503L1.87411 26.5536Z" fill="white"/>
<path d="M10.1251 26.5067L14.2725 22.3594L10.1692 18.2561L6.02179 22.4034L10.1251 26.5067Z" fill="white"/>
<path d="M18.3751 26.4638L22.5225 22.3164L18.4192 18.2131L14.2718 22.3605L18.3751 26.4638Z" fill="white"/>
<path d="M10.17 18.2587L14.3174 14.1113L10.2141 10.008L6.0667 14.1554L10.17 18.2587Z" fill="white"/>
<path d="M18.421 18.2099L22.5684 14.0625L18.4651 9.95919L14.3177 14.1066L18.421 18.2099Z" fill="white"/>
<path d="M26.6698 18.169L22.5665 14.0657L25.8938 10.7385L27.3449 14.084L29.0499 15.789L26.6698 18.169Z" fill="white"/>
<path d="M18.4654 9.96235L14.3621 5.85904L17.6057 2.61544L20.0896 8.33814L18.4654 9.96235Z" fill="white"/>
</g>
<g clip-path="url(#clip31_3223_22041)">
<path d="M1.78329 43.0556L5.93066 38.9082L1.82736 34.8049L-2.32001 38.9523L1.78329 43.0556Z" fill="white"/>
</g>
</g>
</g>
<rect x="360" width="340" height="394" fill="#3F2E42"/>
<mask id="mask1_3223_22041" style="mask-type:alpha" maskUnits="userSpaceOnUse" x="360" y="0" width="340" height="394">
<rect x="360" width="340" height="394" fill="#3F2E42"/>
</mask>
<g mask="url(#mask1_3223_22041)">
<path d="M285.6 284.186L297.861 296.447L306.936 287.372L330.017 310.453L328.63 289.926L337.507 310.272L343.442 323.878L348.666 318.653L349.799 319.786L364.246 334.233L354.781 312.539L348.846 298.933L343.177 304.602L334.399 284.486L322.111 272.198L329.379 264.93L325.603 256.306L319.541 250.244L285.6 284.186Z" fill="white" fill-opacity="0.1"/>
<path d="M370.452 199.332L382.714 211.594L391.789 202.519L414.869 225.599L413.482 205.073L422.36 225.418L428.294 239.024L433.519 233.8L434.651 234.933L449.098 249.379L439.633 227.685L433.699 214.079L428.029 219.749L419.252 199.632L406.963 187.344L414.231 180.076L410.455 171.453L404.393 165.391L370.452 199.332Z" fill="white" fill-opacity="0.1"/>
<path d="M455.305 114.479L467.566 126.74L476.641 117.665L499.722 140.746L498.335 120.219L507.212 140.565L513.147 154.171L518.371 148.946L519.504 150.079L533.951 164.526L524.486 142.831L518.551 129.226L512.882 134.895L504.104 114.779L491.816 102.49L499.084 95.2228L495.308 86.5993L489.246 80.5374L455.305 114.479Z" fill="white" fill-opacity="0.1"/>
<path d="M540.157 29.627L552.419 41.8886L561.494 32.8135L584.574 55.894L583.187 35.3676L592.065 55.7132L597.999 69.319L603.224 64.0947L604.357 65.2274L618.803 79.6743L609.338 57.9799L603.404 44.3742L597.734 50.0437L588.957 29.9273L576.668 17.6389L583.936 10.3713L580.16 1.74775L574.098 -4.31417L540.157 29.627Z" fill="white" fill-opacity="0.1"/>
<path d="M625.011 -55.2266L637.272 -42.9649L646.347 -52.04L669.428 -28.9595L668.041 -49.4859L676.918 -29.1403L682.853 -15.5345L688.077 -20.7589L689.21 -19.6261L703.657 -5.17926L694.192 -26.8736L688.257 -40.4794L682.588 -34.8098L673.81 -54.9262L661.522 -67.2146L668.79 -74.4822L665.014 -83.1058L658.952 -89.1677L625.011 -55.2266Z" fill="white" fill-opacity="0.1"/>
<path d="M320.955 63.5684L333.217 75.83L342.292 66.7549L365.372 89.8354L363.985 69.309L372.862 89.6546L378.797 103.26L384.022 98.0361L385.154 99.1688L399.601 113.616L390.136 91.9213L384.202 78.3156L378.532 83.9851L369.755 63.8687L357.466 51.5803L364.734 44.3127L360.958 35.6892L354.896 29.6272L320.955 63.5684Z" fill="white" fill-opacity="0.1"/>
<path d="M405.808 -21.2852L418.069 -9.02354L427.144 -18.0986L450.225 4.98187L448.838 -15.5445L457.715 4.80113L463.65 18.4069L468.874 13.1825L470.007 14.3153L484.454 28.7621L474.989 7.06781L469.054 -6.53795L463.385 -0.86841L454.607 -20.9848L442.319 -33.2732L449.587 -40.5408L445.811 -49.1644L439.749 -55.2263L405.808 -21.2852Z" fill="white" fill-opacity="0.1"/>
<path d="M555.714 384.594L567.975 396.855L577.051 387.78L600.131 410.861L598.744 390.334L607.621 410.68L613.556 424.286L618.78 419.061L619.913 420.194L634.36 434.641L624.895 412.947L618.96 399.341L613.291 405.01L604.514 384.894L592.225 372.606L599.493 365.338L595.717 356.715L589.655 350.653L555.714 384.594Z" fill="white" fill-opacity="0.1"/>
<path d="M640.566 299.74L652.828 312.002L661.903 302.927L684.984 326.007L683.597 305.481L692.474 325.827L698.409 339.432L703.633 334.208L704.766 335.341L719.213 349.788L709.748 328.093L703.813 314.487L698.143 320.157L689.366 300.041L677.078 287.752L684.345 280.485L680.569 271.861L674.508 265.799L640.566 299.74Z" fill="white" fill-opacity="0.1"/>
<path d="M336.511 418.535L348.772 430.797L357.847 421.722L380.928 444.802L379.541 424.276L388.418 444.621L394.353 458.227L399.577 453.003L400.71 454.136L415.157 468.582L405.692 446.888L399.757 433.282L394.088 438.952L385.31 418.836L373.022 406.547L380.29 399.279L376.514 390.656L370.452 384.594L336.511 418.535Z" fill="white" fill-opacity="0.1"/>
<path d="M421.364 333.684L433.626 345.945L442.701 336.87L465.781 359.951L464.395 339.424L473.272 359.77L479.206 373.376L484.431 368.151L485.564 369.284L500.01 383.731L490.546 362.037L484.611 348.431L478.941 354.1L470.164 333.984L457.876 321.696L465.143 314.428L461.367 305.804L455.305 299.742L421.364 333.684Z" fill="white" fill-opacity="0.1"/>
<path d="M506.217 248.83L518.478 261.092L527.553 252.017L550.634 275.097L549.247 254.571L558.124 274.916L564.059 288.522L569.283 283.298L570.416 284.431L584.863 298.877L575.398 277.183L569.463 263.577L563.794 269.247L555.016 249.13L542.728 236.842L549.996 229.574L546.22 220.951L540.158 214.889L506.217 248.83Z" fill="white" fill-opacity="0.1"/>
<path d="M591.069 163.977L603.331 176.238L612.406 167.163L635.486 190.244L634.1 169.717L642.977 190.063L648.912 203.669L654.136 198.444L655.269 199.577L669.715 214.024L660.251 192.33L654.316 178.724L648.646 184.393L639.869 164.277L627.581 151.989L634.848 144.721L631.072 136.097L625.01 130.035L591.069 163.977Z" fill="white" fill-opacity="0.1"/>
<path d="M675.922 79.125L688.183 91.3866L697.259 82.3116L720.339 105.392L718.952 84.8657L727.829 105.211L733.764 118.817L738.988 113.593L740.121 114.725L754.568 129.172L745.103 107.478L739.168 93.8722L733.499 99.5417L724.722 79.4254L712.433 67.137L719.701 59.8693L715.925 51.2458L709.863 45.1839L675.922 79.125Z" fill="white" fill-opacity="0.1"/>
</g>
</g>
<defs>
<clipPath id="clip0_3223_22041">
<rect width="700" height="394" fill="white"/>
</clipPath>
<clipPath id="clip1_3223_22041">
<rect width="82" height="53" fill="white" transform="translate(321.472 408.189) rotate(-45)"/>
</clipPath>
<clipPath id="clip2_3223_22041">
<rect width="82" height="53" fill="white" transform="translate(386.524 303.537) rotate(135)"/>
</clipPath>
<clipPath id="clip3_3223_22041">
<rect width="82" height="53" fill="white" transform="translate(328.542 361.52) rotate(135)"/>
</clipPath>
<clipPath id="clip4_3223_22041">
<rect width="81" height="53" fill="white" transform="translate(102.975 420.209) rotate(-45)"/>
</clipPath>
<clipPath id="clip5_3223_22041">
<rect width="82" height="53" fill="white" transform="translate(160.251 362.934) rotate(-45)"/>
</clipPath>
<clipPath id="clip6_3223_22041">
<rect width="82" height="53" fill="white" transform="translate(218.233 304.951) rotate(-45)"/>
</clipPath>
<clipPath id="clip7_3223_22041">
<rect width="81" height="53" fill="white" transform="translate(276.216 246.969) rotate(-45)"/>
</clipPath>
<clipPath id="clip8_3223_22041">
<rect width="82" height="53" fill="white" transform="translate(398.546 85.041) rotate(135)"/>
</clipPath>
<clipPath id="clip9_3223_22041">
<rect width="81" height="53" fill="white" transform="translate(340.563 143.023) rotate(135)"/>
</clipPath>
<clipPath id="clip10_3223_22041">
<rect width="82" height="53" fill="white" transform="translate(283.287 200.299) rotate(135)"/>
</clipPath>
<clipPath id="clip11_3223_22041">
<rect width="82" height="53" fill="white" transform="translate(225.305 258.281) rotate(135)"/>
</clipPath>
<clipPath id="clip12_3223_22041">
<rect width="81" height="53" fill="white" transform="translate(167.322 316.264) rotate(135)"/>
</clipPath>
<clipPath id="clip13_3223_22041">
<rect width="82" height="53" fill="white" transform="translate(110.046 373.539) rotate(135)"/>
</clipPath>
<clipPath id="clip14_3223_22041">
<rect width="82" height="53" fill="white" transform="translate(-58.2451 374.955) rotate(-45)"/>
</clipPath>
<clipPath id="clip15_3223_22041">
<rect width="81" height="53" fill="white" transform="translate(-0.262695 316.971) rotate(-45)"/>
</clipPath>
<clipPath id="clip16_3223_22041">
<rect width="82" height="53" fill="white" transform="translate(57.0137 259.695) rotate(-45)"/>
</clipPath>
<clipPath id="clip17_3223_22041">
<rect width="82" height="53" fill="white" transform="translate(114.996 201.713) rotate(-45)"/>
</clipPath>
<clipPath id="clip18_3223_22041">
<rect width="81" height="53" fill="white" transform="translate(172.979 143.73) rotate(-45)"/>
</clipPath>
<clipPath id="clip19_3223_22041">
<rect width="82" height="53" fill="white" transform="translate(230.254 86.4551) rotate(-45)"/>
</clipPath>
<clipPath id="clip20_3223_22041">
<rect width="81" height="53" fill="white" transform="translate(288.237 28.4727) rotate(-45)"/>
</clipPath>
<clipPath id="clip21_3223_22041">
<rect width="82" height="53" fill="white" transform="translate(295.309 -18.1953) rotate(135)"/>
</clipPath>
<clipPath id="clip22_3223_22041">
<rect width="81" height="53" fill="white" transform="translate(237.326 39.7871) rotate(135)"/>
</clipPath>
<clipPath id="clip23_3223_22041">
<rect width="82" height="53" fill="white" transform="translate(180.05 97.0625) rotate(135)"/>
</clipPath>
<clipPath id="clip24_3223_22041">
<rect width="82" height="53" fill="white" transform="translate(122.067 155.045) rotate(135)"/>
</clipPath>
<clipPath id="clip25_3223_22041">
<rect width="81" height="53" fill="white" transform="translate(64.085 213.027) rotate(135)"/>
</clipPath>
<clipPath id="clip26_3223_22041">
<rect width="82" height="53" fill="white" transform="translate(-46.2236 156.459) rotate(-45)"/>
</clipPath>
<clipPath id="clip27_3223_22041">
<rect width="82" height="53" fill="white" transform="translate(11.7588 98.4766) rotate(-45)"/>
</clipPath>
<clipPath id="clip28_3223_22041">
<rect width="81" height="53" fill="white" transform="translate(69.7412 40.4941) rotate(-45)"/>
</clipPath>
<clipPath id="clip29_3223_22041">
<rect width="82" height="53" fill="white" transform="translate(127.017 -16.7812) rotate(-45)"/>
</clipPath>
<clipPath id="clip30_3223_22041">
<rect width="82" height="53" fill="white" transform="translate(76.8115 -6.17578) rotate(135)"/>
</clipPath>
<clipPath id="clip31_3223_22041">
<rect width="82" height="53" fill="white" transform="translate(18.8291 51.8066) rotate(135)"/>
</clipPath>
</defs>
</svg>
