<svg width="700" height="394" viewBox="0 0 700 394" fill="none" xmlns="http://www.w3.org/2000/svg">
<g clip-path="url(#clip0_3211_18927)">
<rect width="700" height="394" fill="#3F2E42"/>
<rect width="350.222" height="197" fill="#FFD655"/>
<g clip-path="url(#clip1_3211_18927)">
<path d="M95.5425 117.198L97.7236 117.8L97.0896 126.316C87.458 120.597 80.9889 110.089 80.9889 98.0975C80.9889 80.0134 95.6995 65.3027 113.784 65.3027C120.008 65.3027 125.836 67.0476 130.802 70.072C123.504 74.7366 116.363 75.5785 110.061 76.1049C103.659 76.6938 97.6145 77.2507 92.3523 82.385L91.7983 82.9244C91.2923 94.0057 90.8052 104.636 90.321 115.308C91.7387 114.4 94.3298 112.721 95.8595 112.084L95.5411 117.196L95.5425 117.198Z" fill="#3F2E42"/>
<path d="M131.314 75.707C130.206 87.3511 129.128 98.6404 128.083 109.592C122.517 111.267 117.513 110.854 112.952 109.962C110.214 109.422 107.624 108.714 105.163 108.172H105.16L104.985 110.77V110.805C106.24 111.093 107.53 111.424 108.857 111.757C106.48 115.42 103.328 120.287 101.174 123.606C101.119 123.582 101.065 123.556 101.011 123.531L101.714 114.414L99.4394 113.844L99.7811 107.391C97.7367 107.305 95.8784 107.576 94.0579 108.374C94.4287 100.634 94.8053 92.7267 95.1892 84.6422C104.607 77.7689 116.133 84.5317 131.314 75.707Z" fill="white"/>
<path d="M146.578 98.0977C146.578 116.179 131.868 130.892 113.784 130.892C109.862 130.892 106.096 130.2 102.608 128.931L112.231 114.562C119.421 116.137 126.207 115.81 132.779 112.739C134.008 100.42 135.298 87.4264 136.58 74.5449C142.743 80.5094 146.578 88.863 146.578 98.0991V98.0977Z" fill="#3F2E42"/>
<path d="M129.524 78.4746C129.198 81.9396 128.88 85.3712 128.563 88.7751C125.525 90.0663 122.802 91.122 119.923 91.391C120.171 88.3709 120.551 84.5264 120.81 81.3871C123.622 80.7909 126.493 79.9287 129.525 78.4761L129.524 78.4746Z" fill="#3F2E42"/>
<path d="M127.607 98.7988L126.72 108.319C124.03 109.08 121.115 109.351 118.464 109.223C118.694 106.383 118.931 103.526 119.167 100.64C121.984 100.616 124.643 99.8123 127.607 98.7988Z" fill="#3F2E42"/>
<path d="M119.923 91.3904C119.668 94.5006 119.417 97.5818 119.165 100.641C116.705 100.733 114.233 100.451 112.021 100.006C112.228 97.147 112.433 94.2651 112.644 91.3613C114.895 91.626 117.413 91.6987 119.923 91.3904Z" fill="#3F2E42"/>
<path d="M113.35 82.2637C113.137 85.1936 112.85 88.503 112.644 91.3602C110.441 91.1305 108.341 90.828 106.316 90.6187H106.314C106.484 87.9301 106.656 85.2256 106.829 82.492C108.93 82.3887 111.057 82.3756 113.35 82.2637Z" fill="#3F2E42"/>
<path d="M112.021 100.005C111.824 102.78 111.623 105.531 111.427 108.261C109.264 107.816 107.236 107.306 105.248 106.9C105.421 104.238 105.631 101.408 105.799 98.7461H105.801C107.794 99.1227 109.855 99.5938 112.02 100.005H112.021Z" fill="#3F2E42"/>
<path d="M106.316 90.6189C106.143 93.3481 105.971 96.057 105.801 98.7456H105.799C103.928 98.369 102.007 98.1683 100.255 98.2948C100.396 95.7575 100.537 93.21 100.681 90.6392C102.461 90.36 104.411 90.3978 106.314 90.6189H106.316Z" fill="#3F2E42"/>
<path d="M101.096 83.2051C100.956 85.7002 100.816 88.1794 100.681 90.6397C98.8171 90.865 97.222 91.6633 95.5905 92.5561L95.9395 85.3905C97.4619 84.3741 99.2809 83.6268 101.096 83.2051Z" fill="#3F2E42"/>
<path d="M100.255 98.2925C100.116 100.872 99.9556 103.635 99.8131 106.172C98.0711 106.15 96.4469 106.285 94.8824 106.819C94.9958 104.482 95.1121 102.13 95.2255 99.7611C96.8366 99.0122 98.4157 98.3579 100.254 98.291L100.255 98.2925Z" fill="#3F2E42"/>
<path d="M131.098 72.1941C115.353 81.6222 103.149 74.5919 93.7235 83.7902C93.2887 93.3128 92.8641 102.594 92.4526 111.643C94.1946 110.542 96.0296 110.055 97.9591 109.957L97.6 115.731L99.8 116.339L99.3289 122.664L98.6891 131.256L103.23 124.478L111.348 112.355C117.137 113.677 123.623 114.497 130.943 111.387C132.276 97.9949 133.708 83.5707 135.115 69.4707C133.751 70.506 132.413 71.4075 131.098 72.1941ZM128.083 109.594C122.517 111.269 117.513 110.856 112.952 109.963C110.214 109.424 107.624 108.716 105.163 108.173H105.16L104.985 110.772V110.807C106.24 111.094 107.53 111.426 108.857 111.759C106.48 115.422 103.328 120.288 101.174 123.608C101.119 123.583 101.065 123.557 101.011 123.532L101.714 114.415L99.4394 113.846L99.7811 107.392C97.7367 107.307 95.8784 107.577 94.0579 108.375C94.4287 100.635 94.8053 92.7283 95.1892 84.6437C104.607 77.7704 116.133 84.5332 131.314 75.7086C130.206 87.3527 129.128 98.6419 128.083 109.594Z" fill="#3F2E42"/>
<path d="M161.045 81.2228V77.166C164.809 77.166 168.574 77.166 172.338 77.166C172.337 77.9236 172.335 78.3031 172.333 79.0606C172.008 79.8386 171.845 80.2297 171.521 81.0134C170.554 81.0309 170.07 81.0396 169.103 81.0571C169.094 84.919 169.087 88.7824 169.078 92.6444C167.402 92.7724 165.725 92.9047 164.049 93.0428C164.052 89.0805 164.056 85.1197 164.059 81.1574C162.852 81.1821 162.249 81.1952 161.043 81.2228H161.045Z" fill="#3F2E42"/>
<path d="M183.552 77.166C184.727 77.166 185.554 77.9105 185.551 78.9647C185.544 80.8593 185.537 82.7539 185.53 84.65C185.527 85.332 184.948 86.1128 184.186 86.3251C184.817 87.7341 185.133 88.4349 185.764 89.8294C185.761 90.5477 185.759 90.9068 185.756 91.6266C184.112 91.7065 182.469 91.7923 180.824 91.881C180.375 90.3717 179.927 88.8624 179.482 87.3517C179.076 87.3677 178.874 87.3764 178.469 87.3924C178.463 88.9337 178.458 90.475 178.453 92.0163C176.772 92.118 175.092 92.2256 173.413 92.3376C173.427 87.2804 173.442 82.2247 173.457 77.1675H183.552V77.166ZM178.492 80.9C178.488 82.0109 178.486 82.5678 178.482 83.6787C179.283 83.6584 179.684 83.6482 180.487 83.6278C180.491 82.5257 180.493 81.9731 180.497 80.8709C179.694 80.8826 179.295 80.8884 178.492 80.9Z" fill="#3F2E42"/>
<path d="M197.488 77.166C198.226 81.2403 198.969 85.3131 199.715 89.3859C199.714 90.0795 199.712 90.427 199.711 91.1206C198.026 91.1642 196.34 91.2136 194.654 91.2674C194.537 90.1347 194.479 89.5691 194.363 88.4349C193.477 88.4582 193.034 88.4713 192.148 88.4975C192.015 89.6447 191.949 90.2191 191.815 91.3678C190.139 91.4332 188.462 91.503 186.786 91.5771C186.789 90.8603 186.79 90.5026 186.793 89.7857C187.558 85.5792 188.326 81.3726 189.098 77.166C191.894 77.166 194.692 77.166 197.488 77.166ZM194.005 84.9132C193.855 83.5159 193.707 82.1185 193.557 80.7212C193.336 80.7226 193.226 80.7241 193.003 80.7255C192.845 82.1302 192.686 83.5362 192.528 84.9423C193.118 84.9307 193.413 84.9248 194.004 84.9132H194.005Z" fill="#3F2E42"/>
<path d="M211.769 77.1655C211.769 77.8504 211.769 78.1921 211.769 78.8769C211.455 79.5778 211.298 79.9282 210.984 80.6291C209.331 80.632 207.679 80.6363 206.026 80.6422C206.021 82.941 206.019 85.2384 206.014 87.5373C207.931 87.5155 209.847 87.5024 211.764 87.4937C211.764 88.8706 211.764 89.5599 211.762 90.9369C208.835 90.9529 205.908 90.9877 202.983 91.0459C201.781 91.0692 200.951 90.3727 200.954 89.3578C200.963 85.8695 200.972 82.3827 200.98 78.8944C200.983 77.8795 201.815 77.1641 203.013 77.1641C205.933 77.1641 208.853 77.1641 211.772 77.1641L211.769 77.1655Z" fill="#3F2E42"/>
<path d="M220.136 77.1655C221.734 77.1655 223.332 77.1655 224.93 77.1655C224.93 77.8533 224.931 78.1979 224.933 78.8857C224.314 80.4837 223.694 82.0802 223.072 83.6782C223.831 85.5496 224.588 87.421 225.343 89.2923C225.343 89.9801 225.344 90.3247 225.346 91.0139C223.666 90.9877 221.988 90.9674 220.309 90.9514C219.854 89.1702 219.397 87.389 218.942 85.6077C218.573 85.6077 218.388 85.6063 218.019 85.6048C218.019 87.3817 218.02 89.1585 218.022 90.9354C216.342 90.9296 214.663 90.9281 212.984 90.9325C212.985 86.3435 212.986 81.7545 212.989 77.1655H218.015C218.015 78.8304 218.016 80.4968 218.017 82.1616C218.387 82.1616 218.571 82.1616 218.941 82.1631C219.339 80.4968 219.738 78.8304 220.136 77.1641V77.1655Z" fill="#3F2E42"/>
<path d="M226.359 81.8015C226.356 80.6368 226.356 80.0538 226.354 78.8891C226.352 77.8785 227.179 77.166 228.379 77.166H237.138C237.141 77.8625 237.141 78.21 237.144 78.9051C236.833 79.6321 236.677 79.9941 236.366 80.7183C234.713 80.7052 233.061 80.6921 231.408 80.6805C231.408 80.9364 231.408 81.0643 231.409 81.3188C232.875 82.181 234.339 83.0462 235.799 83.9186C236.909 84.5817 237.164 85.2157 237.169 86.3484C237.173 87.6352 237.175 88.2779 237.179 89.5647C237.182 90.5957 236.355 91.2936 235.177 91.2558C232.244 91.1598 229.311 91.0842 226.378 91.0319C226.375 89.6447 226.374 88.9526 226.371 87.5654C228.287 87.5916 230.204 87.625 232.119 87.6643C232.119 87.2964 232.117 87.1117 232.116 86.7439C230.655 85.8816 229.192 85.0237 227.725 84.1716C226.615 83.5057 226.361 82.911 226.358 81.8015H226.359Z" fill="#3F2E42"/>
<path d="M238.408 91.3692C238.392 86.6348 238.374 81.9004 238.358 77.166C240.033 77.166 241.708 77.166 243.383 77.166C243.401 81.9702 243.42 86.7759 243.437 91.58C241.761 91.5059 240.084 91.4346 238.408 91.3692Z" fill="#3F2E42"/>
<path d="M244.845 91.6469C244.827 86.8195 244.808 81.9935 244.791 77.166H254.863C256.038 77.166 256.871 77.9468 256.874 79.0534C256.886 82.8557 256.896 86.6595 256.908 90.4619C256.91 91.5684 256.085 92.2925 254.911 92.2155C251.557 92.0032 248.202 91.8141 244.845 91.6469ZM249.855 88.2241C250.667 88.259 251.072 88.2764 251.882 88.3128C251.874 85.8424 251.865 83.3734 251.856 80.9029C251.045 80.8913 250.639 80.8855 249.828 80.8739C249.837 83.3239 249.845 85.774 249.854 88.2241H249.855Z" fill="#3F2E42"/>
<path d="M268.287 81.2054C268.608 80.3955 268.77 79.9883 269.093 79.1726C269.093 78.37 269.093 77.9687 269.093 77.166C265.497 77.166 261.901 77.166 258.305 77.166C258.318 82.2596 258.333 87.3546 258.346 92.4481C261.93 92.7055 265.513 92.9905 269.093 93.3002C269.093 91.6862 269.093 90.8792 269.093 89.2666C267.179 89.1401 265.264 89.0209 263.349 88.9075C263.349 88.0496 263.348 87.6192 263.346 86.7613C264.994 86.8427 266.642 86.9256 268.29 87.0114C268.29 85.4047 268.29 84.602 268.29 82.9953C266.641 82.9444 264.991 82.895 263.342 82.847C263.342 82.1491 263.34 81.8001 263.339 81.1021C264.989 81.1356 266.64 81.169 268.29 81.2054H268.287Z" fill="#3F2E42"/>
<path d="M184.093 99.8101C184.1 97.7206 184.109 95.6312 184.116 93.5417C186.107 93.4297 188.099 93.3279 190.091 93.2363C190.071 98.8882 190.05 104.54 190.03 110.192C188.035 110.378 186.041 110.588 184.051 110.819C184.059 108.59 184.067 106.359 184.075 104.13C183.111 104.22 182.629 104.267 181.666 104.363C181.657 106.612 181.65 108.86 181.641 111.11C179.652 111.36 177.666 111.63 175.683 111.925C175.702 105.977 175.72 100.028 175.739 94.0797C177.727 93.9372 179.716 93.8049 181.704 93.6827C181.697 95.7911 181.688 97.898 181.681 100.006C182.645 99.925 183.126 99.8857 184.09 99.8101H184.093Z" fill="#3F2E42"/>
<path d="M206.213 92.7363C206.205 98.2137 206.196 103.69 206.187 109.167C202.173 109.314 198.168 109.536 194.162 109.835C192.733 109.947 191.747 109.166 191.751 107.937C191.769 103.011 191.786 98.0843 191.802 93.158C193.805 93.0737 195.808 92.9995 197.812 92.9355C197.8 97.0956 197.789 101.256 197.776 105.417C198.732 105.363 199.211 105.339 200.167 105.292C200.178 101.149 200.189 97.0083 200.199 92.8657C202.203 92.8119 204.208 92.7683 206.213 92.7363Z" fill="#3F2E42"/>
<path d="M217.621 100.246C217.354 98.3984 217.087 96.5517 216.821 94.7036C216.821 93.8908 216.821 93.4837 216.821 92.6709C218.67 92.6767 220.52 92.6927 222.369 92.716C222.377 98.1846 222.384 103.653 222.391 109.122C220.26 109.071 218.131 109.038 215.999 109.025C215.054 106.511 214.109 103.996 213.164 101.481C212.976 101.481 212.883 101.482 212.696 101.484C212.952 103.32 213.207 105.158 213.465 106.995C213.465 107.808 213.465 108.215 213.465 109.028C211.618 109.039 209.773 109.068 207.926 109.118C207.934 103.649 207.941 98.1817 207.948 92.713C210.073 92.6883 212.197 92.6738 214.321 92.668C215.256 95.1937 216.191 97.7179 217.126 100.244C217.324 100.244 217.423 100.245 217.622 100.246H217.621Z" fill="#3F2E42"/>
<path d="M224.13 109.176C224.122 103.698 224.113 98.2196 224.103 92.7422C228.103 92.8149 232.101 92.9239 236.099 93.0708C237.497 93.1246 238.489 94.0363 238.492 95.2664C238.507 99.4948 238.521 103.723 238.536 107.953C238.54 109.183 237.554 109.963 236.152 109.852C232.146 109.551 228.142 109.327 224.127 109.177L224.13 109.176ZM230.121 105.302C231.089 105.35 231.574 105.375 232.541 105.43C232.532 102.663 232.525 99.8976 232.517 97.1305C231.55 97.0913 231.068 97.0738 230.101 97.0404C230.108 99.7943 230.115 102.548 230.122 105.302H230.121Z" fill="#3F2E42"/>
<path d="M240.257 110.205C240.237 104.55 240.216 98.897 240.196 93.2422C244.471 93.4458 248.744 93.6915 253.015 93.9808C253.018 94.8635 253.019 95.304 253.022 96.1866C252.643 97.0591 252.452 97.4938 252.073 98.359C250.113 98.1903 248.15 98.0362 246.188 97.8952C246.191 98.6658 246.193 99.0511 246.196 99.8218C248.159 99.9759 250.12 100.145 252.08 100.328C252.084 101.801 252.09 103.274 252.095 104.747C250.135 104.529 248.174 104.326 246.21 104.143C246.213 105.091 246.216 105.565 246.219 106.513C248.502 106.753 250.78 107.011 253.059 107.287C253.063 108.766 253.069 110.244 253.073 111.722C248.81 111.127 244.541 110.621 240.256 110.204L240.257 110.205Z" fill="#3F2E42"/>
<path d="M268.586 110.761C268.04 109.29 267.766 108.561 267.218 107.112C267.524 107.077 267.804 106.951 268.041 106.762C268.496 106.398 268.793 105.802 268.793 105.209C268.793 102.702 268.793 100.195 268.793 97.6886C268.793 96.2927 267.813 95.2109 266.424 95.08C262.44 94.7107 258.455 94.3792 254.465 94.084C254.484 100.034 254.503 105.984 254.521 111.934C256.515 112.231 258.504 112.549 260.49 112.889C260.486 110.984 260.482 109.081 260.477 107.176C260.957 107.245 261.196 107.281 261.675 107.351C262.219 109.36 262.756 111.373 263.289 113.385C265.228 113.74 267.163 114.115 269.092 114.512C269.092 113.558 269.092 113.081 269.092 112.129C268.89 111.579 268.789 111.306 268.586 110.759V110.761ZM262.837 102.888C261.889 102.766 261.415 102.707 260.466 102.592C260.463 101.219 260.461 100.533 260.458 99.1601C261.408 99.2604 261.882 99.3113 262.831 99.4175C262.834 100.806 262.834 101.5 262.837 102.888Z" fill="#3F2E42"/>
<path d="M269.093 118.122C269.093 117.493 269.093 117.179 269.093 116.549C236.583 109.631 203.208 109.005 170.461 114.691C169.917 116.101 169.378 117.515 168.844 118.929C201.895 111.544 235.905 111.617 269.093 118.124V118.122Z" fill="#3F2E42"/>
<path d="M161.043 95.36V100.182C162.468 100.001 163.181 99.9156 164.609 99.7469C164.606 102.715 164.603 105.682 164.598 108.65C165.836 107.055 167.091 105.476 168.363 103.908C167.6 105.87 166.848 107.837 166.1 109.805C165.593 111.144 165.09 112.486 164.593 113.828C165.411 113.671 165.82 113.594 166.64 113.444C166.64 113.617 166.64 113.703 166.64 113.876C166.637 115.714 166.634 117.552 166.631 119.391C167.427 117.262 168.229 115.138 169.041 113.015C169.647 111.436 169.949 110.652 170.556 109.098C169.664 109.233 169.218 109.301 168.328 109.443C169.067 107.52 169.814 105.602 170.57 103.687C170.575 102.153 170.577 100.619 170.582 99.0853C171.728 98.9675 172.301 98.9094 173.446 98.7988C173.832 97.845 174.024 97.371 174.409 96.4258C174.412 95.533 174.413 95.0866 174.416 94.1953C169.955 94.5356 165.498 94.9238 161.046 95.3586L161.043 95.36Z" fill="#3F2E42"/>
</g>
<rect x="350.222" width="350.222" height="197" fill="#CB4848"/>
<g clip-path="url(#clip2_3211_18927)">
<path d="M480.389 110.486C473.391 113.459 467.19 112.675 461.656 111.41L450.636 127.866C454.69 129.682 459.184 130.68 463.902 130.683C481.474 131.045 496.955 115.564 496.591 97.9933C496.63 88.0182 492.005 78.5248 484.18 72.3496L480.387 110.486H480.389ZM462.5 113.521C469.379 115.024 475.858 114.714 482.144 111.779C483.237 100.817 484.361 89.501 485.509 77.9618C485.515 77.969 485.522 77.9763 485.529 77.9821C490.593 83.4434 493.367 90.5051 493.367 97.9933C493.708 113.785 479.755 127.772 463.985 127.446C460.655 127.446 457.392 126.894 454.276 125.803L462.502 113.523L462.5 113.521Z" fill="white"/>
<path d="M448.513 114.639L448.857 109.118C447.012 109.212 445.258 109.676 443.592 110.73C443.985 102.079 444.391 93.207 444.808 84.1024C453.715 75.4084 465.219 81.8767 480.023 73.3191C481.034 72.7431 481.978 72.1337 482.979 71.4373C477.458 67.453 470.845 65.3027 463.902 65.3027C445.876 65.3027 431.211 79.9658 431.211 97.9921C431.211 110.94 438.776 122.143 449.712 127.443C449.979 123.727 450.368 118.546 450.616 115.22L448.513 114.639ZM443.498 82.7588L442.967 83.2768C442.482 93.8715 442.018 104.032 441.555 114.235C442.91 113.366 445.387 111.759 446.852 111.153L446.549 116.042L448.632 116.618L448.17 122.832C439.776 117.549 434.438 107.908 434.509 97.9674C434.468 81.6155 447.985 68.4353 463.905 68.5281C468.98 68.5281 473.861 69.8021 478.179 72.2019C471.686 75.7189 465.97 76.2456 460.428 76.7563C454.31 77.3193 448.529 77.8518 443.5 82.7588H443.498Z" fill="white"/>
<path d="M456.354 98.4006C458.259 98.7604 460.23 99.2102 462.3 99.6048C462.497 96.8713 462.693 94.116 462.895 91.3404C460.788 91.1213 458.782 90.8325 456.846 90.6309C456.681 93.2396 456.515 95.831 456.354 98.4006Z" fill="white"/>
<path d="M455.74 107.415H455.742C458.095 107.933 460.572 108.611 463.188 109.126C467.55 109.979 472.332 110.375 477.654 108.773C478.654 98.3034 479.684 87.5099 480.743 76.377C466.231 84.8141 455.211 78.3488 446.206 84.9186C445.839 92.6491 445.478 100.207 445.124 107.607C446.865 106.844 448.641 106.585 450.595 106.666L450.269 112.836L452.443 113.38L451.771 122.096L451.743 122.45C451.803 122.358 451.864 122.264 451.927 122.168C453.986 118.995 457.001 114.34 459.272 110.839C458.004 110.523 456.769 110.205 455.569 109.93V109.896L455.738 107.412L455.74 107.415ZM476.352 107.553C473.781 108.281 470.994 108.54 468.459 108.418C468.678 105.703 468.906 102.971 469.131 100.211C471.824 100.188 474.366 99.4191 477.201 98.4514L476.354 107.553H476.352ZM451.051 97.9711C450.918 100.436 450.764 103.077 450.629 105.503C448.963 105.483 447.411 105.612 445.915 106.122C446.024 103.888 446.134 101.639 446.243 99.3756C447.782 98.6588 449.293 98.0349 451.05 97.9711C451.185 95.548 451.32 93.1105 451.457 90.6541C449.676 90.8703 448.151 91.6334 446.589 92.4866L446.923 85.6368C448.378 84.6646 450.118 83.9508 451.852 83.5474C451.719 85.9328 451.585 88.3021 451.456 90.6541C453.158 90.3871 455.022 90.4234 456.842 90.6352C457.004 88.0656 457.168 85.4786 457.334 82.8655C459.343 82.7668 461.376 82.7552 463.568 82.6479C463.364 85.4481 463.089 88.6126 462.894 91.3433C465.045 91.5972 467.454 91.6654 469.852 91.3708C470.09 88.4835 470.453 84.8083 470.7 81.8063C473.388 81.2361 476.133 80.412 479.032 79.022C478.72 82.3345 478.417 85.615 478.114 88.8694C475.21 90.1042 472.606 91.1126 469.854 91.3694C469.61 94.3423 469.369 97.2892 469.13 100.213C466.778 100.301 464.414 100.031 462.3 99.6048C462.11 102.257 461.92 104.886 461.731 107.498C459.664 107.073 457.725 106.584 455.825 106.196C455.99 103.651 456.19 100.945 456.351 98.4006C454.562 98.0407 452.725 97.8492 451.051 97.9696V97.9711Z" fill="white"/>
<path d="M511.034 80.9778V76.9297C514.79 76.9297 518.547 76.9297 522.303 76.9297C522.302 77.6856 522.3 78.0643 522.297 78.8202C521.974 79.5965 521.811 79.9868 521.488 80.7688C520.523 80.7863 520.04 80.795 519.075 80.8124C519.066 84.666 519.059 88.5211 519.05 92.3748C517.377 92.5025 515.704 92.6345 514.031 92.7724C514.034 88.8186 514.039 84.8663 514.042 80.9125C512.837 80.9371 512.235 80.9502 511.032 80.9778H511.034Z" fill="white"/>
<path d="M533.493 76.9297C534.665 76.9297 535.491 77.6726 535.488 78.7245C535.481 80.615 535.473 82.5056 535.466 84.3976C535.463 85.0781 534.886 85.8572 534.125 86.0691C534.755 87.475 535.07 88.1744 535.7 89.5658C535.697 90.2826 535.695 90.6409 535.692 91.3592C534.051 91.439 532.412 91.5246 530.771 91.6131C530.322 90.107 529.876 88.6009 529.432 87.0934C529.027 87.1094 528.825 87.1181 528.42 87.1341C528.414 88.672 528.41 90.21 528.404 91.748C526.727 91.8496 525.051 91.9569 523.375 92.0687C523.39 87.0223 523.404 81.9775 523.419 76.9311H533.493V76.9297ZM528.444 80.6542C528.439 81.7627 528.438 82.3184 528.433 83.4269C529.233 83.4066 529.633 83.3965 530.434 83.3762C530.439 82.2764 530.44 81.725 530.444 80.6252C529.643 80.6368 529.244 80.6426 528.444 80.6542Z" fill="white"/>
<path d="M547.398 76.9297C548.135 80.9952 548.877 85.0592 549.621 89.1233C549.62 89.8154 549.618 90.1621 549.617 90.8542C547.935 90.8978 546.254 90.9471 544.571 91.0008C544.454 89.8705 544.396 89.3061 544.28 88.1744C543.397 88.1976 542.954 88.2106 542.071 88.2368C541.937 89.3815 541.872 89.9547 541.738 91.1009C540.065 91.1662 538.392 91.2358 536.72 91.3098C536.722 90.5945 536.724 90.2376 536.727 89.5223C537.49 85.3247 538.256 81.1272 539.027 76.9297C541.817 76.9297 544.608 76.9297 547.398 76.9297ZM543.923 84.6602C543.774 83.2659 543.626 81.8715 543.477 80.4772C543.256 80.4787 543.146 80.4801 542.924 80.4816C542.766 81.8832 542.607 83.2862 542.449 84.6892C543.038 84.6776 543.333 84.6718 543.922 84.6602H543.923Z" fill="white"/>
<path d="M561.649 76.9292C561.649 77.6126 561.649 77.9535 561.649 78.6369C561.336 79.3363 561.179 79.6859 560.866 80.3853C559.216 80.3882 557.568 80.3925 555.918 80.3983C555.914 82.6923 555.911 84.9847 555.907 87.2786C557.819 87.2569 559.731 87.2438 561.644 87.2351C561.644 88.6091 561.644 89.2969 561.642 90.6709C558.721 90.6869 555.801 90.7217 552.881 90.7797C551.683 90.8029 550.854 90.1079 550.857 89.0952C550.866 85.6144 550.875 82.1351 550.884 78.6543C550.886 77.6416 551.716 76.9277 552.912 76.9277C555.825 76.9277 558.739 76.9277 561.652 76.9277L561.649 76.9292Z" fill="white"/>
<path d="M569.998 76.9292C571.593 76.9292 573.187 76.9292 574.782 76.9292C574.782 77.6155 574.783 77.9593 574.785 78.6456C574.167 80.2402 573.548 81.8333 572.927 83.4279C573.685 85.2952 574.441 87.1626 575.194 89.0299C575.194 89.7162 575.195 90.0601 575.197 90.7478C573.521 90.7217 571.846 90.7014 570.171 90.6854C569.717 88.908 569.261 87.1306 568.807 85.3533C568.438 85.3533 568.254 85.3518 567.885 85.3504C567.885 87.1234 567.887 88.8964 567.888 90.6695C566.213 90.6637 564.537 90.6622 562.861 90.6666C562.862 86.0874 562.864 81.5083 562.867 76.9292H567.881C567.881 78.5905 567.883 80.2533 567.884 81.9146C568.253 81.9146 568.437 81.9146 568.805 81.916C569.203 80.2533 569.6 78.5905 569.998 76.9277V76.9292Z" fill="white"/>
<path d="M576.208 81.5552C576.205 80.393 576.205 79.8112 576.202 78.649C576.201 77.6406 577.026 76.9297 578.223 76.9297H586.964C586.967 77.6247 586.967 77.9715 586.97 78.665C586.659 79.3905 586.504 79.7517 586.193 80.4743C584.544 80.4612 582.895 80.4482 581.246 80.4366C581.246 80.6919 581.246 80.8196 581.247 81.0735C582.71 81.9339 584.171 82.7972 585.627 83.6678C586.734 84.3294 586.99 84.962 586.994 86.0923C586.999 87.3764 587 88.0177 587.004 89.3017C587.007 90.3304 586.182 91.0269 585.006 90.9892C582.08 90.8934 579.153 90.818 576.227 90.7657C576.224 89.3815 576.222 88.6909 576.22 87.3067C578.132 87.3328 580.044 87.3662 581.955 87.4054C581.955 87.0383 581.954 86.854 581.952 86.4869C580.494 85.6265 579.034 84.7705 577.57 83.9203C576.463 83.2557 576.209 82.6623 576.207 81.5552H576.208Z" fill="white"/>
<path d="M588.23 91.1023C588.214 86.3781 588.197 81.6539 588.181 76.9297C589.852 76.9297 591.524 76.9297 593.195 76.9297C593.213 81.7235 593.232 86.5189 593.249 91.3127C591.576 91.2387 589.903 91.1676 588.23 91.1023Z" fill="white"/>
<path d="M594.655 91.3795C594.638 86.5624 594.619 81.7468 594.601 76.9297H604.652C605.824 76.9297 606.656 77.7088 606.659 78.813C606.67 82.6072 606.68 86.4028 606.692 90.197C606.695 91.3011 605.871 92.0237 604.7 91.9468C601.353 91.7349 598.005 91.5463 594.655 91.3795ZM599.655 87.964C600.465 87.9988 600.869 88.0162 601.678 88.0525C601.669 85.5874 601.66 83.1237 601.651 80.6586C600.842 80.647 600.437 80.6412 599.627 80.6296C599.636 83.0744 599.645 85.5192 599.654 87.964H599.655Z" fill="white"/>
<path d="M618.045 80.9584C618.366 80.1502 618.527 79.744 618.849 78.93C618.849 78.1291 618.849 77.7286 618.849 76.9277C615.261 76.9277 611.673 76.9277 608.085 76.9277C608.098 82.0103 608.112 87.0944 608.125 92.177C611.702 92.4338 615.277 92.7182 618.849 93.0272C618.849 91.4167 618.849 90.6114 618.849 89.0023C616.94 88.8761 615.029 88.7571 613.118 88.644C613.118 87.7879 613.117 87.3584 613.115 86.5024C614.759 86.5837 616.404 86.6664 618.048 86.752C618.048 85.1487 618.048 84.3478 618.048 82.7445C616.403 82.6937 614.756 82.6444 613.111 82.5965C613.111 81.9001 613.109 81.5518 613.108 80.8554C614.755 80.8888 616.402 80.9221 618.048 80.9584H618.045Z" fill="white"/>
<path d="M534.032 99.5225C534.04 97.4375 534.048 95.3526 534.056 93.2676C536.042 93.1559 538.03 93.0543 540.018 92.9629C539.997 98.6026 539.977 104.242 539.957 109.882C537.966 110.068 535.977 110.277 533.99 110.507C533.999 108.283 534.006 106.058 534.015 103.833C533.053 103.923 532.571 103.97 531.611 104.065C531.602 106.31 531.595 108.553 531.586 110.798C529.601 111.047 527.619 111.317 525.64 111.612C525.659 105.676 525.678 99.7402 525.697 93.8044C527.68 93.6622 529.665 93.5302 531.649 93.4083C531.641 95.5122 531.633 97.6146 531.625 99.7184C532.587 99.6372 533.068 99.598 534.03 99.5225H534.032Z" fill="white"/>
<path d="M556.107 92.4668C556.098 97.9324 556.089 103.397 556.081 108.862C552.075 109.009 548.079 109.231 544.082 109.528C542.655 109.64 541.672 108.861 541.676 107.635C541.693 102.719 541.711 97.8033 541.727 92.8876C543.725 92.8034 545.724 92.7294 547.723 92.6656C547.712 96.8167 547.7 100.968 547.687 105.12C548.642 105.067 549.119 105.042 550.074 104.996C550.084 100.862 550.096 96.7296 550.106 92.5959C552.105 92.5422 554.106 92.4987 556.107 92.4668Z" fill="white"/>
<path d="M567.489 99.9587C567.224 98.1146 566.957 96.2719 566.691 94.4278C566.691 93.6167 566.691 93.2105 566.691 92.3994C568.537 92.4052 570.383 92.4212 572.228 92.4444C572.235 97.9013 572.243 103.358 572.25 108.815C570.123 108.764 567.999 108.731 565.872 108.718C564.928 106.209 563.985 103.701 563.042 101.191C562.855 101.191 562.762 101.192 562.575 101.193C562.83 103.026 563.086 104.86 563.343 106.692C563.343 107.504 563.343 107.91 563.343 108.721C561.5 108.732 559.659 108.761 557.816 108.811C557.823 103.354 557.831 97.8984 557.838 92.4415C559.958 92.4168 562.077 92.4023 564.197 92.3965C565.13 94.9167 566.063 97.4356 566.996 99.9558C567.193 99.9558 567.292 99.9573 567.491 99.9587H567.489Z" fill="white"/>
<path d="M573.984 108.869C573.975 103.403 573.966 97.9363 573.956 92.4707C577.948 92.5432 581.938 92.6521 585.926 92.7986C587.322 92.8523 588.312 93.762 588.315 94.9895C588.329 99.2088 588.344 103.428 588.358 107.649C588.362 108.876 587.379 109.654 585.98 109.544C581.983 109.243 577.987 109.02 573.981 108.871L573.984 108.869ZM579.963 105.004C580.929 105.052 581.412 105.076 582.377 105.131C582.369 102.37 582.361 99.6107 582.354 96.8496C581.389 96.8104 580.908 96.793 579.943 96.7596C579.95 99.5077 579.957 102.256 579.964 105.004H579.963Z" fill="white"/>
<path d="M590.076 109.895C590.056 104.253 590.035 98.6114 590.015 92.9688C594.281 93.1719 598.545 93.4171 602.806 93.7058C602.809 94.5865 602.811 95.0262 602.814 95.9069C602.435 96.7774 602.245 97.2113 601.866 98.0746C599.91 97.9063 597.952 97.7525 595.994 97.6117C595.997 98.3807 595.999 98.7652 596.002 99.5342C597.96 99.688 599.918 99.8563 601.873 100.039C601.878 101.509 601.884 102.979 601.888 104.448C599.932 104.231 597.976 104.029 596.016 103.846C596.019 104.792 596.022 105.265 596.025 106.211C598.303 106.451 600.576 106.708 602.85 106.983C602.854 108.459 602.86 109.934 602.864 111.409C598.61 110.815 594.35 110.31 590.075 109.894L590.076 109.895Z" fill="white"/>
<path d="M618.344 110.451C617.799 108.984 617.526 108.256 616.979 106.811C617.284 106.776 617.564 106.65 617.8 106.461C618.254 106.098 618.55 105.504 618.55 104.912C618.55 102.41 618.55 99.9088 618.55 97.4074C618.55 96.0145 617.572 94.935 616.187 94.8044C612.211 94.4359 608.234 94.1051 604.253 93.8105C604.272 99.7477 604.291 105.685 604.31 111.622C606.299 111.918 608.284 112.236 610.266 112.575C610.261 110.675 610.257 108.775 610.253 106.875C610.731 106.943 610.969 106.979 611.448 107.049C611.991 109.054 612.526 111.062 613.059 113.07C614.993 113.424 616.924 113.799 618.849 114.195C618.849 113.243 618.849 112.767 618.849 111.817C618.648 111.268 618.546 110.995 618.344 110.45V110.451ZM612.607 102.596C611.661 102.474 611.188 102.415 610.241 102.3C610.238 100.93 610.237 100.245 610.234 98.8757C611.181 98.9758 611.654 99.0266 612.602 99.1325C612.604 100.518 612.604 101.21 612.607 102.596Z" fill="white"/>
<path d="M618.849 117.798C618.849 117.17 618.849 116.856 618.849 116.228C586.409 109.325 553.106 108.701 520.43 114.374C519.887 115.781 519.349 117.192 518.817 118.603C551.796 111.234 585.733 111.307 618.849 117.8V117.798Z" fill="white"/>
<path d="M511.034 95.0841V99.8953C512.456 99.7154 513.167 99.6298 514.592 99.4615C514.589 102.423 514.586 105.384 514.581 108.346C515.816 106.754 517.068 105.178 518.338 103.614C517.576 105.571 516.826 107.534 516.08 109.498C515.574 110.834 515.072 112.173 514.576 113.512C515.392 113.356 515.8 113.279 516.618 113.129C516.618 113.302 516.618 113.388 516.618 113.56C516.616 115.394 516.613 117.228 516.61 119.064C517.403 116.939 518.204 114.82 519.014 112.701C519.619 111.126 519.921 110.343 520.526 108.792C519.636 108.927 519.191 108.996 518.303 109.136C519.04 107.218 519.786 105.304 520.54 103.394C520.545 101.863 520.548 100.332 520.552 98.8013C521.695 98.6838 522.267 98.6258 523.41 98.5155C523.795 97.5637 523.986 97.0907 524.371 96.1476C524.374 95.2567 524.375 94.8113 524.378 93.9219C519.927 94.2614 515.479 94.6488 511.037 95.0826L511.034 95.0841Z" fill="white"/>
</g>
<rect x="350.222" y="197" width="350.222" height="197" fill="#FAFAFA"/>
<g clip-path="url(#clip3_3211_18927)">
<path d="M445.765 314.198L447.946 314.8L447.312 323.316C437.68 317.597 431.211 307.089 431.211 295.097C431.211 277.013 445.922 262.303 464.006 262.303C470.231 262.303 476.058 264.048 481.024 267.072C473.726 271.737 466.585 272.579 460.283 273.105C453.881 273.694 447.837 274.251 442.575 279.385L442.021 279.924C441.515 291.006 441.027 301.636 440.543 312.308C441.961 311.4 444.552 309.721 446.082 309.084L445.763 314.196L445.765 314.198Z" fill="black"/>
<path d="M496.801 295.098C496.801 313.179 482.09 327.892 464.006 327.892C460.084 327.892 456.318 327.2 452.83 325.931L462.453 311.562C469.643 313.137 476.429 312.81 483.002 309.739C484.23 297.42 485.52 284.426 486.802 271.545C492.965 277.509 496.801 285.863 496.801 295.099V295.098Z" fill="black"/>
<path d="M479.746 275.475C479.42 278.94 479.102 282.371 478.785 285.775C475.747 287.066 473.024 288.122 470.145 288.391C470.394 285.371 470.773 281.526 471.032 278.387C473.844 277.791 476.716 276.929 479.747 275.476L479.746 275.475Z" fill="black"/>
<path d="M477.83 295.799L476.943 305.319C474.253 306.08 471.337 306.351 468.686 306.223C468.916 303.383 469.153 300.526 469.389 297.64C472.207 297.616 474.865 296.812 477.83 295.799Z" fill="black"/>
<path d="M470.145 288.39C469.89 291.501 469.639 294.582 469.387 297.641C466.927 297.733 464.455 297.451 462.244 297.006C462.45 294.147 462.655 291.265 462.866 288.361C465.117 288.626 467.635 288.699 470.145 288.39Z" fill="black"/>
<path d="M463.573 279.264C463.359 282.194 463.072 285.503 462.866 288.36C460.663 288.13 458.563 287.828 456.538 287.619H456.536C456.707 284.93 456.878 282.226 457.051 279.492C459.152 279.389 461.279 279.376 463.573 279.264Z" fill="black"/>
<path d="M462.244 297.005C462.046 299.78 461.845 302.531 461.649 305.261C459.487 304.816 457.458 304.306 455.471 303.9C455.644 301.238 455.853 298.408 456.022 295.746H456.023C458.017 296.123 460.077 296.594 462.242 297.005H462.244Z" fill="black"/>
<path d="M456.538 287.619C456.365 290.348 456.193 293.057 456.023 295.746H456.022C454.15 295.369 452.229 295.168 450.477 295.295C450.618 292.757 450.759 290.21 450.903 287.639C452.683 287.36 454.633 287.398 456.536 287.619H456.538Z" fill="black"/>
<path d="M451.318 280.205C451.178 282.7 451.039 285.179 450.903 287.64C449.039 287.865 447.444 288.663 445.813 289.556L446.162 282.391C447.684 281.374 449.503 280.627 451.318 280.205Z" fill="black"/>
<path d="M450.477 295.292C450.338 297.872 450.178 300.635 450.035 303.172C448.293 303.15 446.669 303.285 445.105 303.819C445.218 301.482 445.334 299.13 445.448 296.761C447.059 296.012 448.638 295.358 450.476 295.291L450.477 295.292Z" fill="black"/>
<path d="M481.321 269.194C465.576 278.62 453.372 271.591 443.947 280.788C443.511 290.312 443.088 299.592 442.676 308.641C444.418 307.54 446.253 307.053 448.184 306.955L447.825 312.729L450.025 313.337L449.554 319.662L448.914 328.254L453.454 321.476L461.573 309.352C467.362 310.673 473.847 311.494 481.168 308.385C482.503 294.993 483.934 280.567 485.34 266.469C483.976 267.503 482.638 268.406 481.324 269.192L481.321 269.194ZM478.305 306.593C472.739 308.268 467.735 307.855 463.174 306.963C460.438 306.423 457.848 305.715 455.385 305.173H455.383L455.209 307.77V307.805C456.462 308.092 457.753 308.424 459.08 308.756C456.704 312.418 453.551 317.286 451.396 320.606C451.341 320.58 451.289 320.555 451.233 320.529L451.936 311.412L449.662 310.844L450.003 304.39C447.959 304.305 446.101 304.575 444.28 305.373C444.651 297.633 445.028 289.726 445.413 281.642C454.831 274.768 466.357 281.531 481.537 272.707C480.429 284.351 479.352 295.64 478.306 306.592L478.305 306.593Z" fill="black"/>
<path d="M511.267 278.223V274.166C515.031 274.166 518.796 274.166 522.561 274.166C522.559 274.924 522.558 275.303 522.555 276.061C522.23 276.839 522.068 277.23 521.743 278.013C520.776 278.031 520.292 278.04 519.325 278.057C519.317 281.919 519.309 285.782 519.301 289.644C517.624 289.772 515.948 289.905 514.271 290.043C514.274 286.081 514.278 282.12 514.281 278.157C513.074 278.182 512.471 278.195 511.265 278.223H511.267Z" fill="black"/>
<path d="M533.774 274.166C534.949 274.166 535.776 274.91 535.774 275.965C535.766 277.859 535.759 279.754 535.752 281.65C535.749 282.332 535.17 283.113 534.408 283.325C535.039 284.734 535.355 285.435 535.986 286.829C535.983 287.548 535.981 287.907 535.979 288.627C534.334 288.707 532.691 288.792 531.046 288.881C530.597 287.372 530.149 285.862 529.704 284.352C529.299 284.368 529.097 284.376 528.691 284.392C528.685 285.934 528.681 287.475 528.675 289.016C526.994 289.118 525.315 289.226 523.635 289.338C523.65 284.28 523.664 279.225 523.679 274.167H533.774V274.166ZM528.714 277.9C528.71 279.011 528.708 279.568 528.704 280.679C529.505 280.658 529.906 280.648 530.709 280.628C530.713 279.526 530.715 278.973 530.719 277.871C529.917 277.883 529.517 277.888 528.714 277.9Z" fill="black"/>
<path d="M547.71 274.166C548.449 278.24 549.192 282.313 549.937 286.386C549.936 287.079 549.935 287.427 549.933 288.121C548.248 288.164 546.563 288.214 544.876 288.267C544.76 287.135 544.701 286.569 544.585 285.435C543.7 285.458 543.256 285.471 542.371 285.497C542.237 286.645 542.171 287.219 542.038 288.368C540.361 288.433 538.685 288.503 537.008 288.577C537.011 287.86 537.012 287.503 537.015 286.786C537.78 282.579 538.548 278.373 539.32 274.166C542.116 274.166 544.914 274.166 547.71 274.166ZM544.227 281.913C544.078 280.516 543.929 279.119 543.78 277.721C543.559 277.723 543.448 277.724 543.226 277.726C543.067 279.13 542.909 280.536 542.75 281.942C543.34 281.931 543.636 281.925 544.226 281.913H544.227Z" fill="black"/>
<path d="M561.992 274.166C561.992 274.85 561.992 275.192 561.992 275.877C561.677 276.578 561.52 276.928 561.206 277.629C559.553 277.632 557.901 277.636 556.248 277.642C556.244 279.941 556.241 282.238 556.236 284.537C558.153 284.515 560.069 284.502 561.986 284.494C561.986 285.871 561.986 286.56 561.984 287.937C559.057 287.953 556.13 287.988 553.205 288.046C552.004 288.069 551.173 287.373 551.176 286.358C551.185 282.869 551.194 279.383 551.202 275.894C551.205 274.879 552.037 274.164 553.235 274.164C556.155 274.164 559.075 274.164 561.994 274.164L561.992 274.166Z" fill="black"/>
<path d="M570.358 274.166C571.956 274.166 573.554 274.166 575.152 274.166C575.152 274.853 575.154 275.198 575.155 275.886C574.536 277.484 573.916 279.08 573.294 280.678C574.053 282.55 574.811 284.421 575.565 286.292C575.565 286.98 575.567 287.325 575.568 288.014C573.889 287.988 572.211 287.967 570.531 287.951C570.076 286.17 569.62 284.389 569.164 282.608C568.795 282.608 568.61 282.606 568.241 282.605C568.241 284.382 568.243 286.159 568.244 287.935C566.565 287.93 564.885 287.928 563.206 287.932C563.207 283.344 563.209 278.755 563.212 274.166H568.237C568.237 275.83 568.238 277.497 568.24 279.162C568.609 279.162 568.794 279.162 569.163 279.163C569.561 277.497 569.96 275.83 570.358 274.164V274.166Z" fill="black"/>
<path d="M576.582 278.802C576.579 277.637 576.579 277.054 576.576 275.889C576.574 274.879 577.402 274.166 578.601 274.166H587.36C587.363 274.863 587.363 275.21 587.366 275.905C587.055 276.632 586.9 276.994 586.588 277.718C584.935 277.705 583.283 277.692 581.63 277.68C581.63 277.936 581.63 278.064 581.631 278.319C583.097 279.181 584.561 280.046 586.021 280.919C587.131 281.582 587.387 282.216 587.391 283.348C587.395 284.635 587.397 285.278 587.401 286.565C587.404 287.596 586.577 288.294 585.399 288.256C582.466 288.16 579.533 288.084 576.6 288.032C576.598 286.645 576.596 285.953 576.593 284.565C578.51 284.592 580.426 284.625 582.341 284.664C582.341 284.296 582.34 284.112 582.338 283.744C580.877 282.882 579.414 282.024 577.947 281.172C576.837 280.506 576.583 279.911 576.58 278.802H576.582Z" fill="black"/>
<path d="M588.63 288.369C588.614 283.635 588.596 278.9 588.58 274.166C590.255 274.166 591.931 274.166 593.606 274.166C593.623 278.97 593.642 283.776 593.659 288.58C591.983 288.506 590.306 288.435 588.63 288.369Z" fill="black"/>
<path d="M595.067 288.647C595.049 283.819 595.031 278.993 595.013 274.166H605.085C606.26 274.166 607.093 274.947 607.096 276.053C607.108 279.856 607.118 283.66 607.13 287.462C607.133 288.568 606.307 289.293 605.133 289.215C601.779 289.003 598.424 288.814 595.067 288.647ZM600.078 285.224C600.889 285.259 601.295 285.276 602.105 285.313C602.096 282.842 602.087 280.373 602.078 277.903C601.267 277.891 600.861 277.885 600.05 277.874C600.059 280.324 600.067 282.774 600.076 285.224H600.078Z" fill="black"/>
<path d="M618.509 278.205C618.831 277.395 618.992 276.988 619.315 276.173C619.315 275.37 619.315 274.969 619.315 274.166C615.719 274.166 612.123 274.166 608.527 274.166C608.54 279.26 608.555 284.355 608.568 289.448C612.152 289.705 615.735 289.99 619.315 290.3C619.315 288.686 619.315 287.879 619.315 286.267C617.401 286.14 615.486 286.021 613.571 285.907C613.571 285.05 613.57 284.619 613.568 283.761C615.216 283.843 616.865 283.926 618.512 284.011C618.512 282.405 618.512 281.602 618.512 279.995C616.863 279.944 615.213 279.895 613.564 279.847C613.564 279.149 613.562 278.8 613.561 278.102C615.211 278.136 616.862 278.169 618.512 278.205H618.509Z" fill="black"/>
<path d="M534.315 296.81C534.322 294.721 534.331 292.631 534.338 290.542C536.329 290.43 538.321 290.328 540.313 290.236C540.293 295.888 540.272 301.54 540.252 307.192C538.257 307.378 536.264 307.588 534.273 307.819C534.282 305.59 534.289 303.359 534.298 301.13C533.334 301.22 532.851 301.267 531.888 301.363C531.88 303.612 531.872 305.86 531.864 308.11C529.874 308.36 527.888 308.63 525.905 308.925C525.924 302.977 525.943 297.028 525.962 291.08C527.949 290.937 529.938 290.805 531.926 290.683C531.919 292.791 531.91 294.898 531.903 297.006C532.867 296.925 533.348 296.886 534.312 296.81H534.315Z" fill="black"/>
<path d="M556.436 289.738C556.427 295.216 556.418 300.692 556.409 306.169C552.395 306.316 548.39 306.538 544.384 306.836C542.955 306.948 541.969 306.168 541.974 304.939C541.991 300.013 542.009 295.086 542.025 290.16C544.027 290.076 546.03 290.001 548.034 289.937C548.022 294.098 548.011 298.258 547.998 302.419C548.955 302.365 549.433 302.341 550.39 302.294C550.4 298.151 550.411 294.01 550.422 289.868C552.425 289.814 554.43 289.77 556.436 289.738Z" fill="black"/>
<path d="M567.843 297.246C567.577 295.398 567.309 293.552 567.043 291.704C567.043 290.891 567.043 290.484 567.043 289.671C568.892 289.677 570.742 289.693 572.592 289.716C572.599 295.185 572.606 300.653 572.613 306.122C570.482 306.071 568.353 306.038 566.221 306.025C565.276 303.511 564.331 300.996 563.386 298.481C563.198 298.481 563.105 298.482 562.918 298.484C563.174 300.32 563.43 302.158 563.687 303.995C563.687 304.808 563.687 305.215 563.687 306.028C561.84 306.039 559.995 306.068 558.148 306.118C558.156 300.649 558.163 295.182 558.17 289.713C560.295 289.688 562.419 289.674 564.543 289.668C565.478 292.194 566.413 294.718 567.348 297.244C567.546 297.244 567.645 297.245 567.844 297.246H567.843Z" fill="black"/>
<path d="M574.352 306.176C574.344 300.698 574.335 295.22 574.325 289.742C578.325 289.815 582.324 289.924 586.321 290.071C587.72 290.125 588.711 291.036 588.714 292.266C588.729 296.495 588.743 300.723 588.758 304.953C588.762 306.183 587.776 306.963 586.375 306.852C582.369 306.551 578.364 306.327 574.35 306.177L574.352 306.176ZM580.343 302.302C581.312 302.35 581.796 302.375 582.763 302.43C582.754 299.663 582.747 296.898 582.739 294.131C581.773 294.091 581.29 294.074 580.323 294.04C580.33 296.794 580.337 299.548 580.345 302.302H580.343Z" fill="black"/>
<path d="M590.479 307.205C590.459 301.55 590.439 295.897 590.418 290.242C594.693 290.446 598.967 290.691 603.237 290.981C603.24 291.863 603.242 292.304 603.245 293.187C602.865 294.059 602.675 294.494 602.295 295.359C600.335 295.19 598.372 295.036 596.41 294.895C596.413 295.666 596.415 296.051 596.418 296.822C598.381 296.976 600.342 297.145 602.302 297.328C602.307 298.801 602.312 300.274 602.317 301.747C600.357 301.529 598.397 301.326 596.432 301.143C596.435 302.091 596.438 302.565 596.441 303.513C598.724 303.753 601.002 304.011 603.281 304.287C603.285 305.766 603.291 307.244 603.295 308.722C599.032 308.127 594.763 307.621 590.478 307.204L590.479 307.205Z" fill="black"/>
<path d="M618.809 307.761C618.262 306.29 617.989 305.561 617.44 304.112C617.746 304.077 618.026 303.951 618.263 303.762C618.719 303.398 619.015 302.802 619.015 302.209C619.015 299.702 619.015 297.195 619.015 294.689C619.015 293.293 618.035 292.211 616.647 292.08C612.662 291.711 608.677 291.379 604.687 291.084C604.706 297.034 604.725 302.984 604.744 308.934C606.737 309.231 608.726 309.549 610.713 309.889C610.708 307.984 610.704 306.081 610.699 304.176C611.179 304.245 611.418 304.281 611.898 304.351C612.441 306.36 612.978 308.373 613.512 310.385C615.45 310.74 617.385 311.115 619.315 311.512C619.315 310.558 619.315 310.081 619.315 309.129C619.113 308.579 619.011 308.306 618.809 307.759V307.761ZM613.059 299.888C612.111 299.766 611.637 299.707 610.688 299.592C610.685 298.219 610.683 297.533 610.681 296.16C611.63 296.26 612.104 296.311 613.054 296.417C613.056 297.806 613.056 298.5 613.059 299.888Z" fill="black"/>
<path d="M619.315 315.122C619.315 314.493 619.315 314.179 619.315 313.549C586.805 306.631 553.43 306.005 520.683 311.691C520.14 313.101 519.6 314.515 519.066 315.929C552.117 308.544 586.127 308.617 619.315 315.124V315.122Z" fill="black"/>
<path d="M511.265 292.36V297.182C512.69 297.001 513.403 296.916 514.831 296.747C514.828 299.715 514.825 302.682 514.821 305.65C516.058 304.055 517.313 302.476 518.585 300.908C517.822 302.87 517.07 304.837 516.323 306.805C515.815 308.144 515.312 309.486 514.815 310.828C515.633 310.671 516.042 310.594 516.862 310.444C516.862 310.617 516.862 310.703 516.862 310.876C516.859 312.714 516.856 314.552 516.853 316.391C517.649 314.262 518.451 312.138 519.263 310.015C519.869 308.436 520.172 307.652 520.778 306.098C519.887 306.233 519.44 306.301 518.55 306.443C519.289 304.52 520.036 302.602 520.792 300.687C520.797 299.153 520.8 297.619 520.804 296.085C521.95 295.968 522.523 295.909 523.669 295.799C524.054 294.845 524.246 294.371 524.631 293.426C524.634 292.533 524.635 292.087 524.638 291.195C520.177 291.536 515.721 291.924 511.268 292.359L511.265 292.36Z" fill="black"/>
</g>
<rect y="197" width="350.222" height="197" fill="black"/>
<g clip-path="url(#clip4_3211_18927)">
<path d="M130.167 307.486C123.169 310.459 116.967 309.675 111.434 308.41L100.414 324.866C104.468 326.682 108.961 327.68 113.68 327.683C131.252 328.045 146.733 312.564 146.369 294.993C146.408 285.018 141.783 275.525 133.958 269.35L130.165 307.486H130.167ZM112.278 310.521C119.157 312.024 125.635 311.714 131.922 308.779C133.015 297.817 134.139 286.501 135.287 274.962C135.293 274.969 135.3 274.976 135.307 274.982C140.371 280.443 143.145 287.505 143.145 294.993C143.486 310.785 129.533 324.772 113.762 324.446C110.433 324.446 107.169 323.894 104.054 322.803L112.28 310.523L112.278 310.521Z" fill="white"/>
<path d="M98.2912 311.639L98.6351 306.118C96.7895 306.212 95.0353 306.676 93.3696 307.73C93.7628 299.079 94.1691 290.207 94.5855 281.102C103.493 272.408 114.997 278.877 129.801 270.319C130.812 269.743 131.755 269.134 132.756 268.437C127.236 264.453 120.622 262.303 113.68 262.303C95.6534 262.303 80.9889 276.966 80.9889 294.992C80.9889 307.94 88.554 319.143 99.4897 324.443C99.7566 320.727 100.145 315.546 100.394 312.22L98.2912 311.639ZM93.2753 279.759L92.7443 280.277C92.2597 290.871 91.7954 301.032 91.3325 311.235C92.6877 310.366 95.1644 308.759 96.6299 308.153L96.3266 313.042L98.4102 313.618L97.9473 319.832C89.5537 314.549 84.2158 304.908 84.2868 294.967C84.2462 278.616 97.7631 265.435 113.683 265.528C118.758 265.528 123.639 266.802 127.957 269.202C121.464 272.719 115.747 273.246 110.206 273.756C104.088 274.319 98.3071 274.852 93.2782 279.759H93.2753Z" fill="white"/>
<path d="M106.132 295.401C108.037 295.76 110.007 296.21 112.078 296.605C112.275 293.871 112.471 291.116 112.673 288.34C110.566 288.121 108.559 287.833 106.624 287.631C106.458 290.24 106.293 292.831 106.132 295.401Z" fill="white"/>
<path d="M105.518 304.415H105.52C107.873 304.933 110.35 305.611 112.966 306.126C117.327 306.979 122.11 307.375 127.432 305.773C128.431 295.303 129.461 284.51 130.521 273.377C116.008 281.814 104.989 275.349 95.9842 281.919C95.6172 289.649 95.2559 297.207 94.9019 304.607C96.643 303.844 98.4189 303.585 100.373 303.666L100.047 309.836L102.22 310.38L101.549 319.096L101.521 319.45C101.58 319.358 101.641 319.264 101.705 319.168C103.764 315.995 106.779 311.34 109.05 307.839C107.782 307.523 106.547 307.205 105.347 306.93V306.896L105.515 304.412L105.518 304.415ZM126.13 304.553C123.559 305.281 120.772 305.54 118.237 305.418C118.456 302.703 118.684 299.971 118.909 297.211C121.602 297.188 124.144 296.419 126.979 295.451L126.132 304.553H126.13ZM100.829 294.971C100.695 297.436 100.542 300.077 100.407 302.503C98.741 302.483 97.1885 302.612 95.6926 303.122C95.8014 300.888 95.9117 298.639 96.0205 296.376C97.56 295.659 99.0704 295.035 100.827 294.971C100.962 292.548 101.097 290.11 101.235 287.654C99.4534 287.87 97.9285 288.633 96.3673 289.487L96.701 282.637C98.1563 281.665 99.8959 280.951 101.63 280.547C101.496 282.933 101.363 285.302 101.234 287.654C102.936 287.387 104.8 287.423 106.62 287.635C106.782 285.066 106.946 282.479 107.111 279.865C109.121 279.767 111.154 279.755 113.346 279.648C113.141 282.448 112.867 285.613 112.671 288.343C114.823 288.597 117.232 288.665 119.63 288.371C119.868 285.483 120.231 281.808 120.477 278.806C123.166 278.236 125.911 277.412 128.81 276.022C128.498 279.334 128.195 282.615 127.892 285.869C124.988 287.104 122.384 288.113 119.631 288.369C119.388 291.342 119.147 294.289 118.907 297.213C116.555 297.301 114.192 297.031 112.078 296.605C111.888 299.257 111.698 301.886 111.509 304.498C109.442 304.073 107.503 303.584 105.602 303.196C105.768 300.651 105.968 297.945 106.129 295.401C104.34 295.041 102.503 294.849 100.829 294.97V294.971Z" fill="white"/>
<path d="M160.812 277.978V273.93C164.568 273.93 168.325 273.93 172.081 273.93C172.08 274.686 172.078 275.064 172.075 275.82C171.752 276.596 171.589 276.987 171.266 277.769C170.301 277.786 169.818 277.795 168.853 277.812C168.844 281.666 168.837 285.521 168.828 289.375C167.155 289.502 165.482 289.635 163.809 289.772C163.812 285.819 163.816 281.866 163.819 277.912C162.615 277.937 162.013 277.95 160.81 277.978H160.812Z" fill="white"/>
<path d="M183.271 273.93C184.443 273.93 185.268 274.673 185.266 275.724C185.258 277.615 185.251 279.506 185.244 281.398C185.241 282.078 184.663 282.857 183.903 283.069C184.533 284.475 184.848 285.174 185.477 286.566C185.474 287.283 185.473 287.641 185.47 288.359C183.829 288.439 182.19 288.525 180.549 288.613C180.1 287.107 179.653 285.601 179.209 284.093C178.805 284.109 178.603 284.118 178.198 284.134C178.192 285.672 178.188 287.21 178.182 288.748C176.505 288.85 174.829 288.957 173.153 289.069C173.168 284.022 173.182 278.977 173.197 273.931H183.271V273.93ZM178.221 277.654C178.217 278.763 178.215 279.318 178.211 280.427C179.011 280.407 179.411 280.396 180.212 280.376C180.216 279.276 180.218 278.725 180.222 277.625C179.421 277.637 179.022 277.643 178.221 277.654Z" fill="white"/>
<path d="M197.176 273.93C197.913 277.995 198.655 282.059 199.399 286.123C199.398 286.815 199.396 287.162 199.395 287.854C197.713 287.898 196.031 287.947 194.348 288.001C194.232 286.871 194.174 286.306 194.058 285.174C193.175 285.198 192.732 285.211 191.848 285.237C191.715 286.382 191.65 286.955 191.516 288.101C189.843 288.166 188.17 288.236 186.497 288.31C186.5 287.595 186.502 287.238 186.505 286.522C187.268 282.325 188.034 278.127 188.804 273.93C191.594 273.93 194.386 273.93 197.176 273.93ZM193.701 281.66C193.552 280.266 193.404 278.872 193.254 277.477C193.034 277.479 192.924 277.48 192.702 277.482C192.543 278.883 192.385 280.286 192.227 281.689C192.816 281.678 193.111 281.672 193.7 281.66H193.701Z" fill="white"/>
<path d="M211.427 273.929C211.427 274.613 211.427 274.954 211.427 275.637C211.114 276.336 210.957 276.686 210.644 277.385C208.994 277.388 207.346 277.393 205.696 277.398C205.692 279.692 205.689 281.985 205.684 284.279C207.597 284.257 209.509 284.244 211.421 284.235C211.421 285.609 211.421 286.297 211.42 287.671C208.499 287.687 205.579 287.722 202.659 287.78C201.461 287.803 200.632 287.108 200.635 286.095C200.644 282.614 200.653 279.135 200.661 275.654C200.664 274.642 201.494 273.928 202.69 273.928C205.603 273.928 208.517 273.928 211.43 273.928L211.427 273.929Z" fill="white"/>
<path d="M219.776 273.929C221.37 273.929 222.965 273.929 224.56 273.929C224.56 274.615 224.561 274.959 224.562 275.646C223.944 277.24 223.326 278.833 222.705 280.428C223.463 282.295 224.219 284.163 224.972 286.03C224.972 286.716 224.973 287.06 224.975 287.748C223.299 287.722 221.624 287.701 219.949 287.685C219.494 285.908 219.039 284.131 218.585 282.353C218.216 282.353 218.032 282.352 217.663 282.35C217.663 284.123 217.665 285.896 217.666 287.669C215.99 287.664 214.315 287.662 212.639 287.667C212.64 283.087 212.642 278.508 212.645 273.929H217.659C217.659 275.59 217.66 277.253 217.662 278.915C218.03 278.915 218.215 278.915 218.583 278.916C218.981 277.253 219.378 275.59 219.776 273.928V273.929Z" fill="white"/>
<path d="M225.986 278.555C225.983 277.393 225.983 276.811 225.98 275.649C225.979 274.641 226.804 273.93 228.001 273.93H236.742C236.744 274.625 236.744 274.971 236.747 275.665C236.437 276.39 236.282 276.752 235.971 277.474C234.321 277.461 232.673 277.448 231.023 277.437C231.023 277.692 231.023 277.82 231.025 278.074C232.487 278.934 233.948 279.797 235.405 280.668C236.512 281.329 236.768 281.962 236.772 283.092C236.776 284.376 236.778 285.018 236.782 286.302C236.785 287.33 235.959 288.027 234.784 287.989C231.858 287.893 228.931 287.818 226.005 287.766C226.002 286.382 226 285.691 225.997 284.307C227.91 284.333 229.822 284.366 231.733 284.405C231.733 284.038 231.731 283.854 231.73 283.487C230.272 282.627 228.812 281.77 227.348 280.92C226.241 280.256 225.987 279.662 225.984 278.555H225.986Z" fill="white"/>
<path d="M238.008 288.102C237.992 283.378 237.975 278.654 237.959 273.93C239.63 273.93 241.302 273.93 242.973 273.93C242.991 278.724 243.01 283.519 243.027 288.313C241.354 288.239 239.681 288.168 238.008 288.102Z" fill="white"/>
<path d="M244.433 288.379C244.415 283.562 244.397 278.747 244.379 273.93H254.43C255.602 273.93 256.434 274.709 256.436 275.813C256.448 279.607 256.458 283.403 256.47 287.197C256.473 288.301 255.649 289.024 254.478 288.947C251.13 288.735 247.783 288.546 244.433 288.379ZM249.433 284.964C250.242 284.999 250.647 285.016 251.455 285.052C251.447 282.587 251.438 280.124 251.429 277.659C250.62 277.647 250.215 277.641 249.405 277.63C249.414 280.074 249.423 282.519 249.431 284.964H249.433Z" fill="white"/>
<path d="M267.823 277.958C268.144 277.15 268.305 276.744 268.627 275.93C268.627 275.129 268.627 274.729 268.627 273.928C265.039 273.928 261.451 273.928 257.863 273.928C257.876 279.01 257.89 284.094 257.903 289.177C261.48 289.434 265.055 289.718 268.627 290.027C268.627 288.417 268.627 287.611 268.627 286.002C266.718 285.876 264.807 285.757 262.896 285.644C262.896 284.788 262.894 284.358 262.893 283.502C264.537 283.584 266.182 283.666 267.826 283.752C267.826 282.149 267.826 281.348 267.826 279.744C266.181 279.694 264.534 279.644 262.889 279.597C262.889 278.9 262.887 278.552 262.886 277.855C264.533 277.889 266.179 277.922 267.826 277.958H267.823Z" fill="white"/>
<path d="M183.81 296.523C183.817 294.438 183.826 292.353 183.833 290.268C185.82 290.156 187.808 290.054 189.795 289.963C189.775 295.603 189.755 301.242 189.734 306.882C187.744 307.068 185.754 307.277 183.768 307.507C183.777 305.283 183.784 303.058 183.793 300.833C182.831 300.923 182.349 300.97 181.389 301.065C181.38 303.31 181.373 305.553 181.364 307.798C179.379 308.047 177.397 308.317 175.418 308.612C175.437 302.676 175.456 296.74 175.475 290.804C177.458 290.662 179.443 290.53 181.426 290.408C181.419 292.512 181.41 294.615 181.403 296.718C182.365 296.637 182.845 296.598 183.807 296.523H183.81Z" fill="white"/>
<path d="M205.885 289.467C205.876 294.932 205.867 300.397 205.859 305.862C201.853 306.009 197.857 306.231 193.859 306.528C192.433 306.64 191.449 305.861 191.454 304.635C191.471 299.719 191.489 294.803 191.505 289.888C193.502 289.803 195.502 289.729 197.501 289.666C197.49 293.817 197.478 297.968 197.465 302.12C198.42 302.067 198.897 302.042 199.852 301.996C199.862 297.862 199.873 293.73 199.884 289.596C201.883 289.542 203.884 289.499 205.885 289.467Z" fill="white"/>
<path d="M217.267 296.959C217.002 295.115 216.735 293.272 216.469 291.428C216.469 290.617 216.469 290.21 216.469 289.399C218.315 289.405 220.16 289.421 222.006 289.444C222.013 294.901 222.02 300.358 222.028 305.815C219.901 305.764 217.776 305.731 215.649 305.718C214.706 303.209 213.763 300.701 212.82 298.191C212.633 298.191 212.54 298.192 212.353 298.193C212.608 300.026 212.864 301.86 213.12 303.692C213.12 304.504 213.12 304.91 213.12 305.721C211.278 305.732 209.437 305.761 207.594 305.811C207.601 300.354 207.608 294.898 207.616 289.441C209.735 289.417 211.855 289.402 213.975 289.396C214.908 291.917 215.841 294.436 216.774 296.956C216.971 296.956 217.07 296.957 217.269 296.959H217.267Z" fill="white"/>
<path d="M223.762 305.869C223.753 300.403 223.744 294.936 223.734 289.471C227.725 289.543 231.715 289.652 235.704 289.799C237.1 289.852 238.089 290.762 238.092 291.99C238.107 296.209 238.121 300.428 238.136 304.649C238.14 305.876 237.156 306.654 235.758 306.544C231.76 306.243 227.765 306.02 223.759 305.871L223.762 305.869ZM229.741 302.004C230.707 302.052 231.19 302.076 232.155 302.131C232.146 299.37 232.139 296.611 232.132 293.85C231.167 293.81 230.685 293.793 229.72 293.76C229.728 296.508 229.735 299.256 229.742 302.004H229.741Z" fill="white"/>
<path d="M239.854 306.895C239.833 301.253 239.813 295.611 239.793 289.969C244.059 290.172 248.323 290.417 252.584 290.706C252.587 291.587 252.588 292.026 252.591 292.907C252.213 293.777 252.023 294.211 251.644 295.075C249.688 294.906 247.729 294.752 245.772 294.612C245.775 295.381 245.776 295.765 245.779 296.534C247.738 296.688 249.695 296.856 251.651 297.039C251.656 298.509 251.661 299.979 251.666 301.448C249.71 301.231 247.754 301.029 245.794 300.846C245.797 301.792 245.8 302.265 245.803 303.211C248.08 303.451 250.354 303.708 252.628 303.983C252.632 305.459 252.638 306.934 252.642 308.409C248.388 307.815 244.128 307.31 239.852 306.894L239.854 306.895Z" fill="white"/>
<path d="M268.122 307.451C267.577 305.984 267.304 305.256 266.757 303.811C267.062 303.776 267.342 303.65 267.578 303.461C268.032 303.098 268.328 302.504 268.328 301.912C268.328 299.41 268.328 296.909 268.328 294.407C268.328 293.015 267.35 291.935 265.965 291.804C261.989 291.436 258.012 291.105 254.031 290.811C254.05 296.748 254.068 302.685 254.087 308.622C256.077 308.918 258.061 309.236 260.043 309.575C260.039 307.675 260.035 305.775 260.03 303.875C260.509 303.943 260.747 303.979 261.226 304.049C261.769 306.054 262.304 308.062 262.836 310.07C264.771 310.424 266.702 310.799 268.627 311.195C268.627 310.243 268.627 309.767 268.627 308.817C268.425 308.268 268.324 307.995 268.122 307.45V307.451ZM262.385 299.596C261.439 299.474 260.966 299.415 260.019 299.3C260.016 297.93 260.014 297.245 260.011 295.876C260.959 295.976 261.432 296.027 262.379 296.133C262.382 297.518 262.382 298.21 262.385 299.596Z" fill="white"/>
<path d="M268.627 314.798C268.627 314.17 268.627 313.856 268.627 313.228C236.187 306.325 202.884 305.701 170.208 311.374C169.665 312.781 169.127 314.192 168.594 315.603C201.574 308.234 235.511 308.307 268.627 314.8V314.798Z" fill="white"/>
<path d="M160.812 292.084V296.895C162.234 296.715 162.945 296.63 164.369 296.462C164.366 299.423 164.364 302.384 164.359 305.346C165.594 303.754 166.846 302.178 168.116 300.614C167.354 302.571 166.604 304.534 165.858 306.498C165.352 307.834 164.85 309.173 164.353 310.512C165.17 310.356 165.578 310.279 166.396 310.129C166.396 310.302 166.396 310.388 166.396 310.56C166.393 312.394 166.39 314.228 166.388 316.064C167.181 313.939 167.982 311.82 168.792 309.701C169.397 308.126 169.699 307.343 170.304 305.792C169.414 305.927 168.969 305.996 168.081 306.136C168.818 304.218 169.564 302.304 170.318 300.394C170.322 298.863 170.325 297.332 170.33 295.801C171.473 295.684 172.045 295.626 173.188 295.516C173.573 294.564 173.764 294.091 174.149 293.148C174.151 292.257 174.153 291.811 174.156 290.922C169.704 291.261 165.257 291.649 160.815 292.083L160.812 292.084Z" fill="white"/>
</g>
</g>
<defs>
<clipPath id="clip0_3211_18927">
<rect width="700" height="394" fill="white"/>
</clipPath>
<clipPath id="clip1_3211_18927">
<rect width="188.104" height="65.9529" fill="white" transform="translate(80.9889 65.3027)"/>
</clipPath>
<clipPath id="clip2_3211_18927">
<rect width="187.638" height="65.386" fill="white" transform="translate(431.211 65.3027)"/>
</clipPath>
<clipPath id="clip3_3211_18927">
<rect width="188.104" height="65.9529" fill="white" transform="translate(431.211 262.303)"/>
</clipPath>
<clipPath id="clip4_3211_18927">
<rect width="187.638" height="65.386" fill="white" transform="translate(80.9889 262.303)"/>
</clipPath>
</defs>
</svg>
