<svg width="700" height="1182" viewBox="0 0 700 1182" fill="none" xmlns="http://www.w3.org/2000/svg">
<rect width="700" height="1182" fill="#3F2E42"/>
<g clip-path="url(#clip0_3211_20227)">
<path d="M460.395 270.172L460.329 271.002C460.47 270.787 460.61 270.567 460.76 270.343C460.637 270.286 460.518 270.229 460.395 270.172Z" fill="#606060"/>
<path d="M398.479 144.228L400.997 140.638L398.791 137.312L395.82 135.225L384.075 151.97L390.091 156.188L393.228 151.711L411.138 164.269L416.384 156.786L398.479 144.228Z" fill="#FAFAFA"/>
<path d="M431.258 141.731L438.047 135.923L435.683 133.163L428.828 129.582C429.633 128.4 429.422 126.55 428.525 125.5L421.064 116.778C419.68 115.161 417.562 114.999 415.945 116.383L402.051 128.264L421.047 150.467L427.989 144.526L422.075 137.61L423.472 136.419L431.258 141.731ZM417.329 132.06L413.775 127.904L416.534 125.544L420.089 129.701L417.329 132.06Z" fill="#FAFAFA"/>
<path d="M459.015 121.797L444.427 100.377L430.678 106.84L437.858 131.741L439.405 135.028L447.639 131.157L445.666 125.581L449.291 123.876L452.288 128.973L460.562 125.084L459.015 121.797ZM443.162 118.687L440.226 110.474L441.132 110.048L445.578 117.549L443.162 118.687Z" fill="#FAFAFA"/>
<path d="M480.577 113.91L470.361 115.826L467.671 101.511L476.49 99.854L477.202 95.939L476.53 92.3711L460.94 95.2975C458.809 95.6973 457.609 97.4549 458 99.5464L462.051 121.125C462.447 123.217 464.2 124.416 466.336 124.016L481.926 121.09L480.577 113.91Z" fill="#FAFAFA"/>
<path d="M507.613 93.1404L498.948 92.5736L496.087 103.018L494.422 102.908L495.112 92.3276L486.03 91.7344L484.131 120.893L493.214 121.486L493.948 110.198L495.613 110.308L497.335 121.754L506.418 122.347L506.655 118.722L503.342 106.669L507.376 96.7654L507.613 93.1404Z" fill="#FAFAFA"/>
<path d="M520.725 96.2631C518.66 95.5952 516.77 96.5575 516.111 98.5831L514.213 104.418C513.492 106.642 513.541 107.977 515.021 109.906L520.936 117.358L520.343 119.186L510.46 115.97L508.202 122.917L523.326 127.834C525.352 128.493 527.246 127.526 527.9 125.505L529.952 119.191C530.677 116.967 530.638 115.596 529.148 113.707L523.243 106.211L523.656 104.941L532.193 107.718L534.702 104.581L535.814 101.167L520.725 96.2631Z" fill="#FAFAFA"/>
<path d="M543.455 105.008L529.385 130.616L537.361 134.997L551.43 109.389L543.455 105.008Z" fill="#FAFAFA"/>
<path d="M573.185 125.879L559.309 114.037L540.34 136.262L554.216 148.103C555.833 149.488 557.951 149.321 559.335 147.699L573.589 130.998C574.969 129.381 574.802 127.263 573.185 125.879ZM554.8 138.999L552.006 136.613L561.462 125.532L564.256 127.918L554.8 138.999Z" fill="#FAFAFA"/>
<path d="M582.439 135.66L558.579 152.524L569.854 168.474L575.821 164.26L569.797 155.741L573.066 153.425L578.247 160.754L584.214 156.536L579.033 149.211L581.692 147.33L586.872 154.655L590.748 153.706L593.714 151.61L582.439 135.66Z" fill="#FAFAFA"/>
<path d="M576.472 180.811L565.157 188.395C567.71 196.208 569.09 204.548 569.09 213.204C569.09 221.86 567.71 230.199 565.157 238.012L576.472 245.596C580.224 235.503 582.272 224.588 582.272 213.204C582.272 201.819 580.224 190.904 576.472 180.811ZM593.274 169.55L582.087 177.046C586.464 188.264 588.863 200.457 588.863 213.204C588.863 225.951 586.464 238.144 582.087 249.362L593.274 256.858C598.925 243.421 602.045 228.67 602.045 213.204C602.045 197.737 598.925 182.986 593.274 169.55ZM609.963 158.367L598.846 165.815C605.143 180.355 608.636 196.379 608.636 213.204C608.636 230.028 605.143 246.053 598.846 260.592L609.963 268.04C617.573 251.317 621.818 232.748 621.818 213.204C621.818 193.659 617.573 175.091 609.963 158.367Z" fill="#CB4848"/>
<path d="M379.154 165.815L368.037 158.367C360.427 175.091 356.182 193.659 356.182 213.204C356.182 232.748 360.427 251.317 368.037 268.04L379.154 260.592C372.857 246.053 369.364 230.028 369.364 213.204C369.364 196.379 372.857 180.355 379.154 165.815ZM395.913 177.046L384.726 169.55C379.075 182.986 375.955 197.737 375.955 213.204C375.955 228.67 379.075 243.421 384.726 256.858L395.913 249.362C391.536 238.144 389.137 225.951 389.137 213.204C389.137 200.457 391.536 188.264 395.913 177.046ZM412.843 188.395L401.528 180.811C397.78 190.904 395.728 201.819 395.728 213.204C395.728 224.588 397.78 235.503 401.528 245.596L412.843 238.012C410.29 230.199 408.91 221.86 408.91 213.204C408.91 204.548 410.29 196.208 412.843 188.395Z" fill="#CB4848"/>
<path d="M410.844 262.504L405.096 267.082L408.506 271.358L391.4 284.988L397.095 292.137L414.201 278.507L416.934 281.934L420.748 280.765L423.586 278.502L410.844 262.504Z" fill="#FAFAFA"/>
<path d="M438.104 289.68L432.071 298.393L429.048 296.302L435.085 287.589L427.607 282.408L410.967 306.426L418.45 311.606L424.891 302.308L427.91 304.4L421.468 313.698L428.951 318.882L445.587 294.861L438.104 289.68Z" fill="#FAFAFA"/>
<path d="M463.22 301.33L456.678 322.24L453.215 321.159L459.758 300.244L451.031 297.516L443.394 321.933C442.757 323.967 443.742 325.848 445.816 326.498L463.225 331.942L471.947 304.058L463.22 301.33Z" fill="#FAFAFA"/>
<path d="M491.465 305.02L491.456 308.649L492.643 318.548H491.891L487.669 305.011L477.98 304.984L477.909 334.209L486.302 334.231L486.311 330.597L485.164 320.741H485.876L490.142 334.239L499.827 334.261L499.897 305.037L491.465 305.02Z" fill="#FAFAFA"/>
<path d="M534.377 322.082L527.856 301.119C527.224 299.089 525.343 298.1 523.309 298.733L505.891 304.15L514.569 332.048L531.987 326.63C534.021 325.997 535.01 324.117 534.377 322.082ZM521.09 322.372L516.761 308.461L520.268 307.371L524.596 321.278L521.09 322.372Z" fill="#FAFAFA"/>
<path d="M560.702 302.253L551.957 307.948L549.774 304.591L557.292 299.696L553.306 293.575L545.784 298.47L544.009 295.741L551.527 290.846L550.727 286.936L548.741 283.891L532.373 294.555L548.324 319.038L564.691 308.374L560.702 302.253Z" fill="#FAFAFA"/>
<path d="M584.003 288.31L589.693 281.425L586.894 279.109L579.525 276.754C580.114 275.453 579.587 273.665 578.528 272.791L569.678 265.475C568.035 264.121 565.922 264.319 564.564 265.962L552.915 280.054L575.439 298.671L581.265 291.623L574.248 285.827L575.421 284.408L584.003 288.31ZM568.619 281.174L564.406 277.69L566.717 274.891L570.931 278.371L568.619 281.174Z" fill="#FAFAFA"/>
<path d="M592.242 109.762C564.665 82.1855 528.001 67 489 67C449.999 67 413.339 82.1855 385.763 109.762C358.186 137.343 343 174.006 343 212.998C343 251.99 358.186 288.657 385.763 316.238C413.339 343.815 450.003 359 489 359C527.997 359 564.665 343.815 592.242 316.238C619.814 288.657 635 251.994 635 212.998C635 174.001 619.814 137.343 592.242 109.762ZM587.58 311.576C561.246 337.909 526.235 352.409 489 352.409C451.765 352.409 416.754 337.909 390.42 311.576C364.091 285.243 349.591 250.237 349.591 212.998C349.591 175.759 364.091 140.757 390.42 114.424C416.749 88.0954 451.761 73.5909 489 73.5909C526.239 73.5909 561.251 88.0954 587.58 114.424C613.909 140.757 628.409 175.763 628.409 212.998C628.409 250.232 613.909 285.243 587.58 311.576Z" fill="#FFD655"/>
<path d="M489 139.76C448.439 139.76 415.554 172.644 415.554 213.205C415.554 249.011 441.171 278.828 475.075 285.336C476.771 285.661 478.489 285.929 480.221 286.131V259.658H469.222L472.004 252.618L476.855 240.32L471.644 246.256V200.062H456.739V169.744H522.768V185.764L522.412 186.674L517.152 200.062H506.853V215.955L499.963 233.412H509.274L506.493 240.452C502.911 249.534 494.831 270.005 490.74 280.353C490.533 280.876 490.336 281.372 490.151 281.843L488.253 286.65C488.499 286.654 488.745 286.654 488.996 286.654C490.626 286.654 492.247 286.601 493.851 286.496C532.149 283.996 562.442 252.139 562.442 213.205C562.442 174.27 529.557 139.76 488.996 139.76H489ZM496.435 279.962C500.714 269.118 507.951 250.791 511.286 242.341L516.849 228.258H507.543L512.011 216.935V205.212H520.672L527.219 188.541L527.927 186.736V164.599H451.598V205.212H466.503V252.557L461.66 264.812H475.08V278.916C444.862 272.492 422.123 245.597 422.123 213.495C422.123 176.612 452.125 146.61 489.009 146.61C525.892 146.61 555.894 176.616 555.894 213.495C555.894 247.86 529.838 276.258 496.443 279.966L496.435 279.962Z" fill="#FFD655"/>
<path d="M501.712 238.557H492.401L501.712 214.97V194.908H513.646L517.623 184.788V174.889H461.889V194.903H476.793V232.586L492.506 214.698C488.754 224.211 480.484 245.157 476.793 254.507H485.371V279.939C489.22 270.202 497.946 248.092 501.712 238.553V238.557Z" fill="#FAFAFA"/>
</g>
<path d="M68.288 206V185.68H60.32V183.44H78.88V185.68H70.944V206H68.288ZM80.1478 198.288V196.144H89.2678V198.288H80.1478ZM94.3473 206V183.44H103.371C105.761 183.44 107.606 183.952 108.907 184.976C110.209 186 110.859 187.451 110.859 189.328C110.859 190.736 110.433 191.909 109.579 192.848C108.747 193.787 107.585 194.405 106.091 194.704V194.256C107.755 194.448 109.057 195.024 109.995 195.984C110.955 196.923 111.435 198.192 111.435 199.792C111.435 201.797 110.763 203.333 109.419 204.4C108.097 205.467 106.219 206 103.787 206H94.3473ZM96.9393 203.856H103.531C105.153 203.856 106.433 203.547 107.371 202.928C108.331 202.288 108.811 201.232 108.811 199.76C108.811 198.267 108.331 197.211 107.371 196.592C106.433 195.952 105.153 195.632 103.531 195.632H96.9393V203.856ZM96.9393 193.52H102.987C104.737 193.52 106.049 193.179 106.923 192.496C107.798 191.813 108.235 190.832 108.235 189.552C108.235 188.229 107.798 187.237 106.923 186.576C106.049 185.893 104.737 185.552 102.987 185.552H96.9393V193.52ZM122.401 206.288C120.865 206.288 119.521 205.957 118.369 205.296C117.239 204.613 116.364 203.653 115.745 202.416C115.127 201.157 114.817 199.675 114.817 197.968C114.817 196.24 115.127 194.757 115.745 193.52C116.364 192.283 117.239 191.333 118.369 190.672C119.521 189.989 120.865 189.648 122.401 189.648C123.959 189.648 125.303 189.989 126.433 190.672C127.585 191.333 128.471 192.283 129.089 193.52C129.729 194.757 130.049 196.24 130.049 197.968C130.049 199.675 129.729 201.157 129.089 202.416C128.471 203.653 127.585 204.613 126.433 205.296C125.303 205.957 123.959 206.288 122.401 206.288ZM122.401 204.176C123.937 204.176 125.153 203.653 126.049 202.608C126.945 201.541 127.393 199.995 127.393 197.968C127.393 195.92 126.935 194.373 126.017 193.328C125.121 192.261 123.916 191.728 122.401 191.728C120.887 191.728 119.681 192.261 118.785 193.328C117.889 194.373 117.441 195.92 117.441 197.968C117.441 199.995 117.889 201.541 118.785 202.608C119.681 203.653 120.887 204.176 122.401 204.176ZM134.091 206V182.448H136.683V206H134.091ZM147.411 206.288C145.833 206.288 144.628 205.84 143.796 204.944C142.964 204.027 142.548 202.651 142.548 200.816V191.952H139.412V189.936H142.548V185.552L145.14 184.816V189.936H149.748V191.952H145.14V200.528C145.14 201.808 145.353 202.725 145.78 203.28C146.228 203.813 146.889 204.08 147.764 204.08C148.169 204.08 148.532 204.048 148.852 203.984C149.172 203.899 149.46 203.803 149.716 203.696V205.872C149.417 206 149.054 206.096 148.628 206.16C148.222 206.245 147.817 206.288 147.411 206.288ZM62.816 246V223.44H70.304C72.8 223.44 74.912 223.877 76.64 224.752C78.368 225.605 79.68 226.875 80.576 228.56C81.472 230.224 81.92 232.272 81.92 234.704C81.92 237.115 81.472 239.163 80.576 240.848C79.68 242.533 78.368 243.813 76.64 244.688C74.912 245.563 72.8 246 70.304 246H62.816ZM65.472 243.728H70.112C73.184 243.728 75.4667 242.981 76.96 241.488C78.4533 239.973 79.2 237.712 79.2 234.704C79.2 231.675 78.4533 229.413 76.96 227.92C75.4667 226.427 73.184 225.68 70.112 225.68H65.472V243.728ZM93.5703 246.288C91.0529 246.288 89.0689 245.563 87.6183 244.112C86.1676 242.64 85.4423 240.603 85.4423 238C85.4423 236.315 85.7623 234.853 86.4023 233.616C87.0423 232.357 87.9383 231.387 89.0903 230.704C90.2423 230 91.5649 229.648 93.0583 229.648C94.5303 229.648 95.7676 229.957 96.7703 230.576C97.7729 231.195 98.5409 232.08 99.0743 233.232C99.6076 234.363 99.8743 235.707 99.8743 237.264V238.224H87.4263V236.592H98.1783L97.6343 237.008C97.6343 235.301 97.2503 233.968 96.4823 233.008C95.7143 232.048 94.5729 231.568 93.0583 231.568C91.4583 231.568 90.2103 232.133 89.3143 233.264C88.4183 234.373 87.9703 235.877 87.9703 237.776V238.064C87.9703 240.069 88.4609 241.595 89.4423 242.64C90.4449 243.664 91.8423 244.176 93.6343 244.176C94.5943 244.176 95.4903 244.037 96.3223 243.76C97.1756 243.461 97.9863 242.981 98.7543 242.32L99.6503 244.144C98.9463 244.827 98.0503 245.36 96.9623 245.744C95.8956 246.107 94.7649 246.288 93.5703 246.288ZM104.673 246V231.952H101.537V229.936H105.377L104.673 230.608V227.92C104.673 226.107 105.131 224.72 106.049 223.76C106.966 222.8 108.278 222.32 109.985 222.32C110.411 222.32 110.849 222.363 111.297 222.448C111.766 222.512 112.15 222.608 112.449 222.736V224.88C112.193 224.773 111.873 224.688 111.489 224.624C111.126 224.539 110.753 224.496 110.369 224.496C109.707 224.496 109.142 224.635 108.673 224.912C108.203 225.168 107.851 225.563 107.617 226.096C107.382 226.629 107.265 227.312 107.265 228.144V230.48L106.849 229.936H111.745V231.952H107.265V246H104.673ZM120.609 246.288C119.179 246.288 117.931 245.957 116.865 245.296C115.798 244.613 114.966 243.653 114.369 242.416C113.793 241.179 113.505 239.696 113.505 237.968C113.505 236.219 113.793 234.725 114.369 233.488C114.966 232.251 115.798 231.301 116.865 230.64C117.931 229.979 119.179 229.648 120.609 229.648C122.059 229.648 123.307 230.021 124.353 230.768C125.419 231.493 126.123 232.485 126.465 233.744H126.081L126.433 229.936H128.929C128.865 230.555 128.801 231.184 128.737 231.824C128.694 232.443 128.673 233.051 128.673 233.648V246H126.081V242.224H126.433C126.091 243.483 125.387 244.475 124.321 245.2C123.254 245.925 122.017 246.288 120.609 246.288ZM121.121 244.176C122.657 244.176 123.873 243.653 124.769 242.608C125.665 241.541 126.113 239.995 126.113 237.968C126.113 235.92 125.665 234.373 124.769 233.328C123.873 232.261 122.657 231.728 121.121 231.728C119.606 231.728 118.39 232.261 117.473 233.328C116.577 234.373 116.129 235.92 116.129 237.968C116.129 239.995 116.577 241.541 117.473 242.608C118.39 243.653 119.606 244.176 121.121 244.176ZM139.348 246.288C137.45 246.288 136.01 245.765 135.028 244.72C134.068 243.675 133.588 242.075 133.588 239.92V229.936H136.18V239.856C136.18 241.328 136.479 242.416 137.076 243.12C137.674 243.803 138.602 244.144 139.86 244.144C141.268 244.144 142.399 243.685 143.252 242.768C144.106 241.851 144.532 240.624 144.532 239.088V229.936H147.124V246H144.596V242.384H145.012C144.564 243.621 143.839 244.581 142.836 245.264C141.855 245.947 140.692 246.288 139.348 246.288ZM152.153 246V222.448H154.745V246H152.153ZM165.474 246.288C163.895 246.288 162.69 245.84 161.858 244.944C161.026 244.027 160.61 242.651 160.61 240.816V231.952H157.474V229.936H160.61V225.552L163.202 224.816V229.936H167.81V231.952H163.202V240.528C163.202 241.808 163.415 242.725 163.842 243.28C164.29 243.813 164.951 244.08 165.826 244.08C166.231 244.08 166.594 244.048 166.914 243.984C167.234 243.899 167.522 243.803 167.778 243.696V245.872C167.479 246 167.117 246.096 166.69 246.16C166.285 246.245 165.879 246.288 165.474 246.288Z" fill="#FAFAFA"/>
<g clip-path="url(#clip1_3211_20227)">
<path d="M459.781 646.545L459.712 647.404C459.858 647.181 460.003 646.954 460.158 646.722C460.031 646.663 459.908 646.604 459.781 646.545Z" fill="#606060"/>
<path d="M395.745 516.292L398.349 512.579L396.067 509.139L392.995 506.98L380.848 524.299L387.069 528.662L390.314 524.031L408.837 537.019L414.263 529.28L395.745 516.292Z" fill="#FAFAFA"/>
<path d="M429.646 513.712L436.668 507.704L434.223 504.85L427.133 501.146C427.965 499.924 427.747 498.011 426.82 496.925L419.103 487.904C417.672 486.232 415.481 486.063 413.809 487.495L399.439 499.783L419.085 522.746L426.265 516.602L420.149 509.449L421.594 508.218L429.646 513.712ZM415.24 503.709L411.564 499.41L414.418 496.97L418.094 501.269L415.24 503.709Z" fill="#FAFAFA"/>
<path d="M458.354 493.094L443.266 470.939L429.047 477.624L436.472 503.378L438.072 506.777L446.588 502.773L444.548 497.006L448.297 495.243L451.396 500.515L459.953 496.493L458.354 493.094ZM441.957 489.876L438.922 481.383L439.858 480.942L444.457 488.699L441.957 489.876Z" fill="#FAFAFA"/>
<path d="M480.653 484.935L470.087 486.916L467.306 472.111L476.427 470.397L477.163 466.348L476.468 462.658L460.344 465.685C458.14 466.098 456.899 467.916 457.304 470.079L461.494 492.397C461.903 494.56 463.716 495.801 465.925 495.387L482.048 492.361L480.653 484.935Z" fill="#FAFAFA"/>
<path d="M508.615 463.454L499.654 462.868L496.695 473.67L494.973 473.557L495.686 462.614L486.293 462L484.33 492.157L493.723 492.77L494.482 481.096L496.204 481.209L497.986 493.048L507.379 493.661L507.625 489.912L504.198 477.447L508.37 467.203L508.615 463.454Z" fill="#FAFAFA"/>
<path d="M522.176 466.684C520.04 465.994 518.086 466.989 517.404 469.084L515.441 475.119C514.696 477.418 514.746 478.8 516.277 480.795L522.394 488.502L521.78 490.393L511.56 487.066L509.224 494.251L524.866 499.336C526.961 500.018 528.92 499.018 529.597 496.928L531.719 490.397C532.469 488.098 532.428 486.68 530.888 484.726L524.78 476.973L525.207 475.66L534.037 478.532L536.632 475.287L537.781 471.756L522.176 466.684Z" fill="#FAFAFA"/>
<path d="M545.684 475.729L531.133 502.214L539.381 506.744L553.933 480.259L545.684 475.729Z" fill="#FAFAFA"/>
<path d="M576.432 497.316L562.081 485.068L542.462 508.054L556.814 520.301C558.486 521.733 560.677 521.56 562.108 519.883L576.85 502.61C578.277 500.938 578.105 498.747 576.432 497.316ZM557.418 510.885L554.528 508.418L564.308 496.957L567.198 499.424L557.418 510.885Z" fill="#FAFAFA"/>
<path d="M586.003 507.432L561.326 524.873L572.987 541.37L579.159 537.011L572.928 528.2L576.309 525.805L581.667 533.385L587.839 529.022L582.481 521.447L585.23 519.502L590.588 527.077L594.596 526.096L597.664 523.928L586.003 507.432Z" fill="#FAFAFA"/>
<path d="M579.831 554.129L568.129 561.973C570.77 570.053 572.197 578.678 572.197 587.631C572.197 596.583 570.77 605.209 568.129 613.289L579.831 621.132C583.712 610.694 585.83 599.405 585.83 587.631C585.83 575.856 583.712 564.568 579.831 554.129ZM597.209 542.482L585.639 550.234C590.165 561.836 592.647 574.447 592.647 587.631C592.647 600.814 590.165 613.425 585.639 625.027L597.209 632.78C603.053 618.883 606.28 603.627 606.28 587.631C606.28 571.634 603.053 556.379 597.209 542.482ZM614.469 530.916L602.972 538.619C609.484 553.656 613.097 570.23 613.097 587.631C613.097 605.031 609.484 621.605 602.972 636.643L614.469 644.345C622.34 627.049 626.73 607.844 626.73 587.631C626.73 567.417 622.34 548.212 614.469 530.916Z" fill="#FFD655"/>
<path d="M375.758 538.619L364.261 530.916C356.39 548.212 352 567.417 352 587.631C352 607.844 356.39 627.049 364.261 644.345L375.758 636.643C369.246 621.605 365.633 605.031 365.633 587.631C365.633 570.23 369.246 553.656 375.758 538.619ZM393.091 550.234L381.521 542.482C375.677 556.379 372.45 571.634 372.45 587.631C372.45 603.627 375.677 618.883 381.521 632.78L393.091 625.027C388.565 613.425 386.083 600.814 386.083 587.631C386.083 574.447 388.565 561.836 393.091 550.234ZM410.601 561.973L398.899 554.129C395.022 564.568 392.9 575.856 392.9 587.631C392.9 599.405 395.022 610.694 398.899 621.132L410.601 613.289C407.96 605.209 406.533 596.583 406.533 587.631C406.533 578.678 407.96 570.053 410.601 561.973Z" fill="#FFD655"/>
<path d="M408.533 638.619L402.589 643.354L406.115 647.776L388.424 661.873L394.313 669.267L412.005 655.17L414.832 658.715L418.776 657.506L421.712 655.165L408.533 638.619Z" fill="#FAFAFA"/>
<path d="M436.727 666.728L430.487 675.74L427.361 673.577L433.605 664.565L425.87 659.207L408.66 684.047L416.399 689.405L423.062 679.789L426.184 681.952L419.521 691.568L427.261 696.93L444.466 672.086L436.727 666.728Z" fill="#FAFAFA"/>
<path d="M462.703 678.775L455.936 700.402L452.355 699.284L459.122 677.652L450.096 674.83L442.198 700.084C441.539 702.188 442.557 704.133 444.702 704.805L462.707 710.436L471.728 681.597L462.703 678.775Z" fill="#FAFAFA"/>
<path d="M491.914 682.591L491.905 686.345L493.132 696.583H492.355L487.988 682.582L477.967 682.555L477.895 712.78L486.575 712.803L486.584 709.044L485.398 698.851H486.134L490.547 712.812L500.562 712.834L500.635 682.609L491.914 682.591Z" fill="#FAFAFA"/>
<path d="M536.296 700.238L529.552 678.556C528.897 676.457 526.952 675.434 524.848 676.089L506.834 681.692L515.809 710.545L533.823 704.942C535.928 704.287 536.95 702.342 536.296 700.238ZM522.553 700.538L518.077 686.15L521.703 685.023L526.18 699.406L522.553 700.538Z" fill="#FAFAFA"/>
<path d="M563.521 679.73L554.478 685.619L552.219 682.147L559.995 677.085L555.873 670.754L548.093 675.817L546.257 672.995L554.033 667.932L553.206 663.888L551.151 660.738L534.223 671.768L550.72 697.089L567.648 686.06L563.521 679.73Z" fill="#FAFAFA"/>
<path d="M587.62 665.31L593.506 658.189L590.611 655.794L582.99 653.358C583.599 652.013 583.053 650.164 581.958 649.259L572.806 641.693C571.106 640.293 568.92 640.498 567.516 642.197L555.469 656.771L578.763 676.026L584.789 668.737L577.532 662.743L578.745 661.275L587.62 665.31ZM571.71 657.93L567.352 654.326L569.743 651.432L574.101 655.031L571.71 657.93Z" fill="#FAFAFA"/>
<path d="M489.365 511.67C447.415 511.67 413.405 545.681 413.405 587.63C413.405 624.663 439.899 655.502 474.964 662.232C476.718 662.568 478.495 662.846 480.285 663.055V635.674H468.91L471.787 628.394L476.804 615.674L471.414 621.814V574.038H456V542.681H524.289V559.25L523.921 560.191L518.481 574.038H507.829V590.475L500.703 608.53H510.333L507.456 615.81C503.753 625.204 495.395 646.376 491.165 657.079C490.951 657.619 490.746 658.133 490.556 658.619L488.592 663.591C488.847 663.595 489.101 663.595 489.36 663.595C491.046 663.595 492.723 663.541 494.382 663.432C533.991 660.846 565.321 627.899 565.321 587.63C565.321 547.362 531.31 511.67 489.36 511.67H489.365ZM497.054 656.674C501.48 645.458 508.965 626.504 512.414 617.765L518.168 603.2H508.543L513.164 591.489V579.364H522.121L528.893 562.122L529.624 560.255V537.36H450.683V579.364H466.097V628.33L461.089 641.005H474.968V655.593C443.716 648.949 420.198 621.132 420.198 587.93C420.198 549.784 451.228 518.755 489.374 518.755C527.52 518.755 558.55 549.789 558.55 587.93C558.55 623.472 531.601 652.843 497.063 656.679L497.054 656.674Z" fill="#FFD655"/>
<path d="M502.508 613.851H492.878L502.508 589.456V568.706H514.85L518.963 558.241V548.002H461.321V568.702H476.736V607.675L492.987 589.175C489.106 599.013 480.553 620.677 476.736 630.347H485.607V656.651C489.588 646.58 498.613 623.712 502.508 613.846V613.851Z" fill="#FAFAFA"/>
</g>
<path d="M68.288 580V559.68H60.32V557.44H78.88V559.68H70.944V580H68.288ZM80.1478 572.288V570.144H89.2678V572.288H80.1478ZM94.3473 580V557.44H103.371C105.761 557.44 107.606 557.952 108.907 558.976C110.209 560 110.859 561.451 110.859 563.328C110.859 564.736 110.433 565.909 109.579 566.848C108.747 567.787 107.585 568.405 106.091 568.704V568.256C107.755 568.448 109.057 569.024 109.995 569.984C110.955 570.923 111.435 572.192 111.435 573.792C111.435 575.797 110.763 577.333 109.419 578.4C108.097 579.467 106.219 580 103.787 580H94.3473ZM96.9393 577.856H103.531C105.153 577.856 106.433 577.547 107.371 576.928C108.331 576.288 108.811 575.232 108.811 573.76C108.811 572.267 108.331 571.211 107.371 570.592C106.433 569.952 105.153 569.632 103.531 569.632H96.9393V577.856ZM96.9393 567.52H102.987C104.737 567.52 106.049 567.179 106.923 566.496C107.798 565.813 108.235 564.832 108.235 563.552C108.235 562.229 107.798 561.237 106.923 560.576C106.049 559.893 104.737 559.552 102.987 559.552H96.9393V567.52ZM122.401 580.288C120.865 580.288 119.521 579.957 118.369 579.296C117.239 578.613 116.364 577.653 115.745 576.416C115.127 575.157 114.817 573.675 114.817 571.968C114.817 570.24 115.127 568.757 115.745 567.52C116.364 566.283 117.239 565.333 118.369 564.672C119.521 563.989 120.865 563.648 122.401 563.648C123.959 563.648 125.303 563.989 126.433 564.672C127.585 565.333 128.471 566.283 129.089 567.52C129.729 568.757 130.049 570.24 130.049 571.968C130.049 573.675 129.729 575.157 129.089 576.416C128.471 577.653 127.585 578.613 126.433 579.296C125.303 579.957 123.959 580.288 122.401 580.288ZM122.401 578.176C123.937 578.176 125.153 577.653 126.049 576.608C126.945 575.541 127.393 573.995 127.393 571.968C127.393 569.92 126.935 568.373 126.017 567.328C125.121 566.261 123.916 565.728 122.401 565.728C120.887 565.728 119.681 566.261 118.785 567.328C117.889 568.373 117.441 569.92 117.441 571.968C117.441 573.995 117.889 575.541 118.785 576.608C119.681 577.653 120.887 578.176 122.401 578.176ZM134.091 580V556.448H136.683V580H134.091ZM147.796 580.288C146.388 580.288 145.15 579.957 144.084 579.296C143.017 578.613 142.185 577.653 141.588 576.416C141.012 575.179 140.724 573.696 140.724 571.968C140.724 570.219 141.012 568.725 141.588 567.488C142.185 566.251 143.017 565.301 144.084 564.64C145.15 563.979 146.388 563.648 147.796 563.648C149.246 563.648 150.494 564.011 151.54 564.736C152.606 565.461 153.321 566.443 153.684 567.68H153.3V556.448H155.892V580H153.332V576.16H153.684C153.342 577.44 152.638 578.453 151.572 579.2C150.505 579.925 149.246 580.288 147.796 580.288ZM148.34 578.176C149.854 578.176 151.07 577.653 151.988 576.608C152.905 575.541 153.364 573.995 153.364 571.968C153.364 569.92 152.905 568.373 151.988 567.328C151.07 566.261 149.854 565.728 148.34 565.728C146.825 565.728 145.609 566.261 144.692 567.328C143.796 568.373 143.348 569.92 143.348 571.968C143.348 573.995 143.796 575.541 144.692 576.608C145.609 577.653 146.825 578.176 148.34 578.176ZM62.816 620V597.44H71.84C74.2293 597.44 76.0747 597.952 77.376 598.976C78.6773 600 79.328 601.451 79.328 603.328C79.328 604.736 78.9013 605.909 78.048 606.848C77.216 607.787 76.0533 608.405 74.56 608.704V608.256C76.224 608.448 77.5253 609.024 78.464 609.984C79.424 610.923 79.904 612.192 79.904 613.792C79.904 615.797 79.232 617.333 77.888 618.4C76.5653 619.467 74.688 620 72.256 620H62.816ZM65.408 617.856H72C73.6213 617.856 74.9013 617.547 75.84 616.928C76.8 616.288 77.28 615.232 77.28 613.76C77.28 612.267 76.8 611.211 75.84 610.592C74.9013 609.952 73.6213 609.632 72 609.632H65.408V617.856ZM65.408 607.52H71.456C73.2053 607.52 74.5173 607.179 75.392 606.496C76.2667 605.813 76.704 604.832 76.704 603.552C76.704 602.229 76.2667 601.237 75.392 600.576C74.5173 599.893 73.2053 599.552 71.456 599.552H65.408V607.52ZM90.87 620.288C89.334 620.288 87.99 619.957 86.838 619.296C85.7073 618.613 84.8327 617.653 84.214 616.416C83.5953 615.157 83.286 613.675 83.286 611.968C83.286 610.24 83.5953 608.757 84.214 607.52C84.8327 606.283 85.7073 605.333 86.838 604.672C87.99 603.989 89.334 603.648 90.87 603.648C92.4273 603.648 93.7713 603.989 94.902 604.672C96.054 605.333 96.9393 606.283 97.558 607.52C98.198 608.757 98.518 610.24 98.518 611.968C98.518 613.675 98.198 615.157 97.558 616.416C96.9393 617.653 96.054 618.613 94.902 619.296C93.7713 619.957 92.4273 620.288 90.87 620.288ZM90.87 618.176C92.406 618.176 93.622 617.653 94.518 616.608C95.414 615.541 95.862 613.995 95.862 611.968C95.862 609.92 95.4033 608.373 94.486 607.328C93.59 606.261 92.3847 605.728 90.87 605.728C89.3553 605.728 88.15 606.261 87.254 607.328C86.358 608.373 85.91 609.92 85.91 611.968C85.91 613.995 86.358 615.541 87.254 616.608C88.15 617.653 89.3553 618.176 90.87 618.176ZM102.495 620V607.808C102.495 607.168 102.474 606.517 102.431 605.856C102.41 605.195 102.367 604.555 102.303 603.936H104.799L105.119 607.84L104.671 607.872C104.885 606.912 105.258 606.123 105.791 605.504C106.325 604.885 106.954 604.427 107.679 604.128C108.405 603.808 109.162 603.648 109.951 603.648C110.271 603.648 110.549 603.659 110.783 603.68C111.039 603.701 111.274 603.755 111.487 603.84L111.455 606.144C111.135 606.037 110.837 605.973 110.559 605.952C110.303 605.909 110.005 605.888 109.663 605.888C108.725 605.888 107.903 606.112 107.199 606.56C106.517 607.008 105.994 607.584 105.631 608.288C105.29 608.992 105.119 609.739 105.119 610.528V620H102.495ZM120.077 620.288C118.669 620.288 117.431 619.957 116.365 619.296C115.298 618.613 114.466 617.653 113.869 616.416C113.293 615.179 113.005 613.696 113.005 611.968C113.005 610.219 113.293 608.725 113.869 607.488C114.466 606.251 115.298 605.301 116.365 604.64C117.431 603.979 118.669 603.648 120.077 603.648C121.527 603.648 122.775 604.011 123.821 604.736C124.887 605.461 125.602 606.443 125.965 607.68H125.581V596.448H128.173V620H125.613V616.16H125.965C125.623 617.44 124.919 618.453 123.853 619.2C122.786 619.925 121.527 620.288 120.077 620.288ZM120.621 618.176C122.135 618.176 123.351 617.653 124.269 616.608C125.186 615.541 125.645 613.995 125.645 611.968C125.645 609.92 125.186 608.373 124.269 607.328C123.351 606.261 122.135 605.728 120.621 605.728C119.106 605.728 117.89 606.261 116.973 607.328C116.077 608.373 115.629 609.92 115.629 611.968C115.629 613.995 116.077 615.541 116.973 616.608C117.89 617.653 119.106 618.176 120.621 618.176ZM140.32 620.288C137.803 620.288 135.819 619.563 134.368 618.112C132.918 616.64 132.192 614.603 132.192 612C132.192 610.315 132.512 608.853 133.152 607.616C133.792 606.357 134.688 605.387 135.84 604.704C136.992 604 138.315 603.648 139.808 603.648C141.28 603.648 142.518 603.957 143.52 604.576C144.523 605.195 145.291 606.08 145.824 607.232C146.358 608.363 146.624 609.707 146.624 611.264V612.224H134.176V610.592H144.928L144.384 611.008C144.384 609.301 144 607.968 143.232 607.008C142.464 606.048 141.323 605.568 139.808 605.568C138.208 605.568 136.96 606.133 136.064 607.264C135.168 608.373 134.72 609.877 134.72 611.776V612.064C134.72 614.069 135.211 615.595 136.192 616.64C137.195 617.664 138.592 618.176 140.384 618.176C141.344 618.176 142.24 618.037 143.072 617.76C143.926 617.461 144.736 616.981 145.504 616.32L146.4 618.144C145.696 618.827 144.8 619.36 143.712 619.744C142.646 620.107 141.515 620.288 140.32 620.288ZM150.527 620V607.808C150.527 607.168 150.505 606.517 150.463 605.856C150.441 605.195 150.399 604.555 150.335 603.936H152.831L153.151 607.84L152.703 607.872C152.916 606.912 153.289 606.123 153.823 605.504C154.356 604.885 154.985 604.427 155.711 604.128C156.436 603.808 157.193 603.648 157.983 603.648C158.303 603.648 158.58 603.659 158.815 603.68C159.071 603.701 159.305 603.755 159.519 603.84L159.487 606.144C159.167 606.037 158.868 605.973 158.591 605.952C158.335 605.909 158.036 605.888 157.695 605.888C156.756 605.888 155.935 606.112 155.231 606.56C154.548 607.008 154.025 607.584 153.663 608.288C153.321 608.992 153.151 609.739 153.151 610.528V620H150.527ZM162.216 620V596.448H164.808V620H162.216ZM176.977 620.288C174.459 620.288 172.475 619.563 171.025 618.112C169.574 616.64 168.849 614.603 168.849 612C168.849 610.315 169.169 608.853 169.809 607.616C170.449 606.357 171.345 605.387 172.497 604.704C173.649 604 174.971 603.648 176.465 603.648C177.937 603.648 179.174 603.957 180.177 604.576C181.179 605.195 181.947 606.08 182.481 607.232C183.014 608.363 183.281 609.707 183.281 611.264V612.224H170.833V610.592H181.585L181.041 611.008C181.041 609.301 180.657 607.968 179.889 607.008C179.121 606.048 177.979 605.568 176.465 605.568C174.865 605.568 173.617 606.133 172.721 607.264C171.825 608.373 171.377 609.877 171.377 611.776V612.064C171.377 614.069 171.867 615.595 172.849 616.64C173.851 617.664 175.249 618.176 177.041 618.176C178.001 618.176 178.897 618.037 179.729 617.76C180.582 617.461 181.393 616.981 182.161 616.32L183.057 618.144C182.353 618.827 181.457 619.36 180.369 619.744C179.302 620.107 178.171 620.288 176.977 620.288ZM192.591 620.288C191.311 620.288 190.116 620.117 189.007 619.776C187.897 619.413 186.98 618.912 186.255 618.272L187.151 616.448C187.94 617.067 188.793 617.525 189.711 617.824C190.649 618.123 191.62 618.272 192.623 618.272C193.903 618.272 194.863 618.048 195.503 617.6C196.164 617.131 196.495 616.491 196.495 615.68C196.495 615.061 196.281 614.571 195.855 614.208C195.449 613.824 194.777 613.525 193.839 613.312L190.863 612.704C189.497 612.405 188.473 611.904 187.791 611.2C187.108 610.475 186.767 609.557 186.767 608.448C186.767 607.509 187.012 606.688 187.503 605.984C187.993 605.259 188.708 604.693 189.647 604.288C190.585 603.861 191.684 603.648 192.943 603.648C194.116 603.648 195.193 603.829 196.175 604.192C197.177 604.533 198.009 605.035 198.671 605.696L197.743 607.488C197.103 606.869 196.367 606.411 195.535 606.112C194.724 605.792 193.881 605.632 193.007 605.632C191.748 605.632 190.799 605.888 190.159 606.4C189.54 606.891 189.231 607.541 189.231 608.352C189.231 608.971 189.423 609.483 189.807 609.888C190.212 610.272 190.831 610.56 191.663 610.752L194.639 611.36C196.089 611.68 197.167 612.181 197.871 612.864C198.596 613.525 198.959 614.421 198.959 615.552C198.959 616.512 198.692 617.355 198.159 618.08C197.625 618.784 196.879 619.328 195.919 619.712C194.98 620.096 193.871 620.288 192.591 620.288ZM208.466 620.288C207.186 620.288 205.991 620.117 204.882 619.776C203.772 619.413 202.855 618.912 202.13 618.272L203.026 616.448C203.815 617.067 204.668 617.525 205.586 617.824C206.524 618.123 207.495 618.272 208.498 618.272C209.778 618.272 210.738 618.048 211.378 617.6C212.039 617.131 212.37 616.491 212.37 615.68C212.37 615.061 212.156 614.571 211.73 614.208C211.324 613.824 210.652 613.525 209.714 613.312L206.738 612.704C205.372 612.405 204.348 611.904 203.666 611.2C202.983 610.475 202.642 609.557 202.642 608.448C202.642 607.509 202.887 606.688 203.378 605.984C203.868 605.259 204.583 604.693 205.522 604.288C206.46 603.861 207.559 603.648 208.818 603.648C209.991 603.648 211.068 603.829 212.05 604.192C213.052 604.533 213.884 605.035 214.546 605.696L213.618 607.488C212.978 606.869 212.242 606.411 211.41 606.112C210.599 605.792 209.756 605.632 208.882 605.632C207.623 605.632 206.674 605.888 206.034 606.4C205.415 606.891 205.106 607.541 205.106 608.352C205.106 608.971 205.298 609.483 205.682 609.888C206.087 610.272 206.706 610.56 207.538 610.752L210.514 611.36C211.964 611.68 213.042 612.181 213.746 612.864C214.471 613.525 214.834 614.421 214.834 615.552C214.834 616.512 214.567 617.355 214.034 618.08C213.5 618.784 212.754 619.328 211.794 619.712C210.855 620.096 209.746 620.288 208.466 620.288Z" fill="#FAFAFA"/>
<g clip-path="url(#clip2_3211_20227)">
<path d="M459.635 919.09V940.768H475.778V981.584L492.798 962.209C488.733 972.513 479.776 995.195 475.778 1005.32H485.069V1032.87C489.238 1022.32 498.69 998.379 502.769 988.047H492.684L502.769 962.499V940.768H515.695L520.002 929.812V919.09H459.635Z" fill="#FAFAFA"/>
<path d="M557.244 882.262L567.486 870.259L570.513 872.844L560.271 884.847L557.244 882.262ZM640 964.998C640 1005.33 624.294 1043.25 595.776 1071.77C567.253 1100.29 529.331 1116 489 1116C448.669 1116 410.747 1100.29 382.224 1071.77C353.706 1043.25 338 1005.33 338 964.998C338 924.663 353.706 886.75 382.224 858.228C410.742 829.71 448.664 814 489 814C529.336 814 567.258 829.71 595.776 858.228C624.294 886.75 640 924.667 640 964.998ZM590.208 881.23L564.364 899.496L576.577 916.772L583.04 912.208L576.515 902.979L580.056 900.471L585.667 908.41L592.13 903.841L586.519 895.907L589.399 893.87L595.01 901.804L599.208 900.776L602.42 898.506L590.208 881.23ZM568.553 965.221C569.2 926.595 538.478 891.243 500.127 886.441C500.127 886.446 500.118 886.446 500.113 886.441C496.434 885.927 492.717 885.675 489 885.67C446.361 884.775 408.553 922.573 409.447 965.221C408.872 1002.42 437.29 1036.8 473.918 1043.34V1016.48H459.383L464.627 1003.21V951.924H448.484V907.934H531.154V931.911L530.392 933.872L523.301 951.924H513.92V964.622L509.08 976.891H519.165C511.155 997.156 500.475 1024.26 492.389 1044.7C533.3 1043.73 568.534 1007.61 568.538 966.73C568.548 966.23 568.553 965.726 568.553 965.221ZM406.511 938.35L394.256 930.136C390.196 941.068 387.973 952.89 387.973 965.221C387.973 977.553 390.196 989.375 394.256 1000.31L406.511 992.092C403.746 983.63 402.251 974.597 402.251 965.221C402.251 955.846 403.746 946.812 406.511 938.35ZM479.496 1010.9V1051.39C480.857 1051.54 482.232 1051.65 483.612 1051.74C491.941 1030.69 502.688 1003.42 510.964 982.469H500.884L508.342 963.56V946.351H519.498L525.195 931.849L525.58 930.864V913.512H454.062V946.351H470.205V996.385L475.85 989.955L470.596 1003.28L467.583 1010.9H479.496ZM571.489 992.092L583.744 1000.31C587.809 989.375 590.027 977.553 590.027 965.221C590.027 952.89 587.809 941.068 583.744 930.136L571.489 938.35C574.254 946.812 575.749 955.846 575.749 965.221C575.749 974.597 574.254 983.63 571.489 992.092ZM565.154 857.809L544.608 881.882L559.638 894.708C561.39 896.207 563.684 896.026 565.183 894.27L580.622 876.18C582.117 874.429 581.936 872.135 580.184 870.635L565.154 857.809ZM547.983 848.029L532.743 875.766L541.381 880.511L556.621 852.774L547.983 848.029ZM509.798 867.428L526.18 872.753C528.374 873.467 530.425 872.42 531.135 870.231L533.357 863.392C534.142 860.984 534.1 859.499 532.486 857.452L526.09 849.333L526.537 847.957L535.784 850.965L538.502 847.567L539.706 843.869L523.363 838.558C521.126 837.834 519.079 838.877 518.365 841.071L516.309 847.391C515.529 849.799 515.581 851.246 517.185 853.335L523.591 861.407L522.948 863.387L512.245 859.903L509.798 867.428ZM483.727 865.234L493.564 865.876L494.359 853.65L496.163 853.769L498.028 866.166L507.866 866.809L508.123 862.883L504.535 849.828L508.904 839.1L509.161 835.174L499.775 834.56L496.677 845.873L494.873 845.754L495.62 834.294L485.783 833.651L483.727 865.234ZM455.423 842.113L459.811 865.486C460.239 867.751 462.138 869.051 464.451 868.617L481.337 865.448L479.876 857.671L468.811 859.746L465.898 844.24L475.45 842.446L476.221 838.206L475.493 834.341L458.607 837.511C456.298 837.944 454.999 839.848 455.423 842.113ZM425.829 850.013L433.606 876.984L435.281 880.544L444.2 876.351L442.063 870.312L445.99 868.465L449.236 873.986L458.197 869.774L456.522 866.214L440.721 843.013L425.829 850.013ZM394.822 873.22L415.397 897.268L422.916 890.834L416.51 883.343L418.024 882.053L426.457 887.807L433.811 881.515L431.25 878.526L423.825 874.647C424.696 873.367 424.468 871.364 423.497 870.226L415.416 860.779C413.916 859.028 411.622 858.851 409.871 860.351L394.822 873.22ZM375.351 898.896L381.867 903.465L385.265 898.615L404.664 912.217L410.347 904.112L390.953 890.51L393.68 886.622L391.29 883.019L388.073 880.758L375.351 898.896ZM370.021 1016.55C363.201 1000.8 359.417 983.445 359.417 965.221C359.417 946.998 363.201 929.641 370.021 913.892L357.98 905.826C349.737 923.939 345.139 944.052 345.139 965.221C345.139 986.391 349.737 1006.5 357.98 1024.62L370.021 1016.55ZM388.173 1004.39C383.433 992.235 380.834 979.028 380.834 965.221C380.834 951.415 383.433 938.208 388.173 926.057L376.056 917.938C369.935 932.492 366.556 948.469 366.556 965.221C366.556 981.974 369.935 997.951 376.056 1012.5L388.173 1004.39ZM389.453 1050.72L407.982 1035.95L410.942 1039.67L415.073 1038.4L418.148 1035.95L404.345 1018.62L398.12 1023.58L401.813 1028.21L383.285 1042.97L389.453 1050.72ZM423.959 1079.69L441.978 1053.67L433.872 1048.06L427.338 1057.49L424.063 1055.23L430.603 1045.79L422.502 1040.18L404.479 1066.19L412.584 1071.81L419.561 1061.73L422.831 1064L415.854 1074.07L423.959 1079.69ZM470.529 1063.63L461.077 1060.67L453.99 1083.32L450.24 1082.15L457.327 1059.5L447.874 1056.54L439.603 1082.99C438.913 1085.19 439.979 1087.23 442.225 1087.93L461.082 1093.83L470.529 1063.63ZM500.803 1064.69L491.67 1064.67L491.66 1068.6L492.946 1079.33H492.132L487.558 1064.66L477.064 1064.63L476.987 1096.29L486.078 1096.31L486.087 1092.37L484.845 1081.7H485.616L490.237 1096.32L500.727 1096.34L500.803 1064.69ZM538.15 1083.15L531.087 1060.44C530.402 1058.25 528.365 1057.18 526.161 1057.86L507.295 1063.73L516.695 1093.95L535.561 1088.08C537.764 1087.39 538.835 1085.36 538.15 1083.15ZM570.985 1068.3L566.663 1061.67L557.192 1067.84L554.827 1064.2L562.97 1058.9L558.653 1052.27L550.505 1057.58L548.582 1054.62L556.726 1049.32L555.859 1045.08L553.708 1041.78L535.98 1053.33L553.256 1079.85L570.985 1068.3ZM598.065 1039.11L595.034 1036.61L587.052 1034.05C587.69 1032.65 587.119 1030.71 585.972 1029.76L576.386 1021.84C574.606 1020.37 572.317 1020.59 570.847 1022.37L558.23 1037.63L582.626 1057.79L588.937 1050.16L581.336 1043.88L582.607 1042.35L591.902 1046.57L598.065 1039.11ZM601.944 1012.5C608.065 997.951 611.444 981.974 611.444 965.221C611.444 948.469 608.065 932.492 601.944 917.938L589.827 926.057C594.567 938.208 597.166 951.415 597.166 965.221C597.166 979.028 594.567 992.235 589.827 1004.39L601.944 1012.5ZM620.02 1024.62C628.263 1006.5 632.861 986.391 632.861 965.221C632.861 944.052 628.263 923.939 620.02 905.826L607.979 913.892C614.799 929.641 618.583 946.998 618.583 965.221C618.583 983.445 614.799 1000.8 607.979 1016.55L620.02 1024.62ZM519.07 1068.4L523.758 1083.47L527.556 1082.28L522.868 1067.22L519.07 1068.4ZM570.675 1035.07L575.239 1038.84L577.743 1035.81L573.179 1032.04L570.675 1035.07ZM407.52 872.829L411.37 877.332L414.359 874.776L410.509 870.274L407.52 872.829ZM441.968 861.612L437.152 853.488L436.171 853.949L439.35 862.844L441.968 861.612Z" fill="#FFD655"/>
</g>
<path d="M68.288 958V937.68H60.32V935.44H78.88V937.68H70.944V958H68.288ZM80.1478 950.288V948.144H89.2678V950.288H80.1478ZM94.3473 958V935.44H103.371C105.761 935.44 107.606 935.952 108.907 936.976C110.209 938 110.859 939.451 110.859 941.328C110.859 942.736 110.433 943.909 109.579 944.848C108.747 945.787 107.585 946.405 106.091 946.704V946.256C107.755 946.448 109.057 947.024 109.995 947.984C110.955 948.923 111.435 950.192 111.435 951.792C111.435 953.797 110.763 955.333 109.419 956.4C108.097 957.467 106.219 958 103.787 958H94.3473ZM96.9393 955.856H103.531C105.153 955.856 106.433 955.547 107.371 954.928C108.331 954.288 108.811 953.232 108.811 951.76C108.811 950.267 108.331 949.211 107.371 948.592C106.433 947.952 105.153 947.632 103.531 947.632H96.9393V955.856ZM96.9393 945.52H102.987C104.737 945.52 106.049 945.179 106.923 944.496C107.798 943.813 108.235 942.832 108.235 941.552C108.235 940.229 107.798 939.237 106.923 938.576C106.049 937.893 104.737 937.552 102.987 937.552H96.9393V945.52ZM122.401 958.288C120.865 958.288 119.521 957.957 118.369 957.296C117.239 956.613 116.364 955.653 115.745 954.416C115.127 953.157 114.817 951.675 114.817 949.968C114.817 948.24 115.127 946.757 115.745 945.52C116.364 944.283 117.239 943.333 118.369 942.672C119.521 941.989 120.865 941.648 122.401 941.648C123.959 941.648 125.303 941.989 126.433 942.672C127.585 943.333 128.471 944.283 129.089 945.52C129.729 946.757 130.049 948.24 130.049 949.968C130.049 951.675 129.729 953.157 129.089 954.416C128.471 955.653 127.585 956.613 126.433 957.296C125.303 957.957 123.959 958.288 122.401 958.288ZM122.401 956.176C123.937 956.176 125.153 955.653 126.049 954.608C126.945 953.541 127.393 951.995 127.393 949.968C127.393 947.92 126.935 946.373 126.017 945.328C125.121 944.261 123.916 943.728 122.401 943.728C120.887 943.728 119.681 944.261 118.785 945.328C117.889 946.373 117.441 947.92 117.441 949.968C117.441 951.995 117.889 953.541 118.785 954.608C119.681 955.653 120.887 956.176 122.401 956.176ZM134.091 958V934.448H136.683V958H134.091ZM147.411 958.288C145.833 958.288 144.628 957.84 143.796 956.944C142.964 956.027 142.548 954.651 142.548 952.816V943.952H139.412V941.936H142.548V937.552L145.14 936.816V941.936H149.748V943.952H145.14V952.528C145.14 953.808 145.353 954.725 145.78 955.28C146.228 955.813 146.889 956.08 147.764 956.08C148.169 956.08 148.532 956.048 148.852 955.984C149.172 955.899 149.46 955.803 149.716 955.696V957.872C149.417 958 149.054 958.096 148.628 958.16C148.222 958.245 147.817 958.288 147.411 958.288ZM62.816 998V975.44H65.472V998H62.816ZM70.8093 998V985.648C70.8093 985.051 70.7773 984.443 70.7133 983.824C70.6706 983.184 70.6173 982.555 70.5533 981.936H73.0493L73.3693 985.456H72.9852C73.4546 984.219 74.2013 983.28 75.2253 982.64C76.2706 981.979 77.4759 981.648 78.8413 981.648C80.7399 981.648 82.1693 982.16 83.1293 983.184C84.1106 984.187 84.6013 985.776 84.6013 987.952V998H82.0093V988.112C82.0093 986.597 81.6999 985.499 81.0813 984.816C80.4839 984.112 79.5453 983.76 78.2653 983.76C76.7719 983.76 75.5879 984.219 74.7133 985.136C73.8386 986.053 73.4013 987.28 73.4013 988.816V998H70.8093ZM94.139 998L87.259 981.936H90.075L95.835 996.08H94.971L100.795 981.936H103.483L96.603 998H94.139ZM113.32 998.288C110.803 998.288 108.819 997.563 107.368 996.112C105.918 994.64 105.192 992.603 105.192 990C105.192 988.315 105.512 986.853 106.152 985.616C106.792 984.357 107.688 983.387 108.84 982.704C109.992 982 111.315 981.648 112.808 981.648C114.28 981.648 115.518 981.957 116.52 982.576C117.523 983.195 118.291 984.08 118.824 985.232C119.358 986.363 119.624 987.707 119.624 989.264V990.224H107.176V988.592H117.928L117.384 989.008C117.384 987.301 117 985.968 116.232 985.008C115.464 984.048 114.323 983.568 112.808 983.568C111.208 983.568 109.96 984.133 109.064 985.264C108.168 986.373 107.72 987.877 107.72 989.776V990.064C107.72 992.069 108.211 993.595 109.192 994.64C110.195 995.664 111.592 996.176 113.384 996.176C114.344 996.176 115.24 996.037 116.072 995.76C116.926 995.461 117.736 994.981 118.504 994.32L119.4 996.144C118.696 996.827 117.8 997.36 116.712 997.744C115.646 998.107 114.515 998.288 113.32 998.288ZM123.527 998V985.808C123.527 985.168 123.505 984.517 123.463 983.856C123.441 983.195 123.399 982.555 123.335 981.936H125.831L126.151 985.84L125.703 985.872C125.916 984.912 126.289 984.123 126.823 983.504C127.356 982.885 127.985 982.427 128.711 982.128C129.436 981.808 130.193 981.648 130.983 981.648C131.303 981.648 131.58 981.659 131.815 981.68C132.071 981.701 132.305 981.755 132.519 981.84L132.487 984.144C132.167 984.037 131.868 983.973 131.591 983.952C131.335 983.909 131.036 983.888 130.695 983.888C129.756 983.888 128.935 984.112 128.231 984.56C127.548 985.008 127.025 985.584 126.663 986.288C126.321 986.992 126.151 987.739 126.151 988.528V998H123.527ZM141.755 998.288C140.177 998.288 138.971 997.84 138.139 996.944C137.307 996.027 136.891 994.651 136.891 992.816V983.952H133.755V981.936H136.891V977.552L139.483 976.816V981.936H144.091V983.952H139.483V992.528C139.483 993.808 139.697 994.725 140.123 995.28C140.571 995.813 141.233 996.08 142.107 996.08C142.513 996.08 142.875 996.048 143.195 995.984C143.515 995.899 143.803 995.803 144.059 995.696V997.872C143.761 998 143.398 998.096 142.971 998.16C142.566 998.245 142.161 998.288 141.755 998.288ZM154.227 998.288C151.709 998.288 149.725 997.563 148.275 996.112C146.824 994.64 146.099 992.603 146.099 990C146.099 988.315 146.419 986.853 147.059 985.616C147.699 984.357 148.595 983.387 149.747 982.704C150.899 982 152.221 981.648 153.715 981.648C155.187 981.648 156.424 981.957 157.427 982.576C158.429 983.195 159.197 984.08 159.731 985.232C160.264 986.363 160.531 987.707 160.531 989.264V990.224H148.083V988.592H158.835L158.291 989.008C158.291 987.301 157.907 985.968 157.139 985.008C156.371 984.048 155.229 983.568 153.715 983.568C152.115 983.568 150.867 984.133 149.971 985.264C149.075 986.373 148.627 987.877 148.627 989.776V990.064C148.627 992.069 149.117 993.595 150.099 994.64C151.101 995.664 152.499 996.176 154.291 996.176C155.251 996.176 156.147 996.037 156.979 995.76C157.832 995.461 158.643 994.981 159.411 994.32L160.307 996.144C159.603 996.827 158.707 997.36 157.619 997.744C156.552 998.107 155.421 998.288 154.227 998.288ZM170.577 998.288C169.169 998.288 167.931 997.957 166.865 997.296C165.798 996.613 164.966 995.653 164.369 994.416C163.793 993.179 163.505 991.696 163.505 989.968C163.505 988.219 163.793 986.725 164.369 985.488C164.966 984.251 165.798 983.301 166.865 982.64C167.931 981.979 169.169 981.648 170.577 981.648C172.027 981.648 173.275 982.011 174.321 982.736C175.387 983.461 176.102 984.443 176.465 985.68H176.081V974.448H178.673V998H176.113V994.16H176.465C176.123 995.44 175.419 996.453 174.353 997.2C173.286 997.925 172.027 998.288 170.577 998.288ZM171.121 996.176C172.635 996.176 173.851 995.653 174.769 994.608C175.686 993.541 176.145 991.995 176.145 989.968C176.145 987.92 175.686 986.373 174.769 985.328C173.851 984.261 172.635 983.728 171.121 983.728C169.606 983.728 168.39 984.261 167.473 985.328C166.577 986.373 166.129 987.92 166.129 989.968C166.129 991.995 166.577 993.541 167.473 994.608C168.39 995.653 169.606 996.176 171.121 996.176Z" fill="#FAFAFA"/>
<defs>
<clipPath id="clip0_3211_20227">
<rect width="292" height="292" fill="white" transform="translate(343 67)"/>
</clipPath>
<clipPath id="clip1_3211_20227">
<rect width="274.73" height="250.835" fill="white" transform="translate(352 462)"/>
</clipPath>
<clipPath id="clip2_3211_20227">
<rect width="302" height="302" fill="white" transform="translate(338 814)"/>
</clipPath>
</defs>
</svg>
