<svg width="700" height="394" viewBox="0 0 700 394" fill="none" xmlns="http://www.w3.org/2000/svg">
<g clip-path="url(#clip0_3211_20035)">
<rect width="700" height="394" fill="#3F2E42"/>
<g clip-path="url(#clip1_3211_20035)">
<path d="M150.791 183.298C150.477 188.27 150.164 193.205 149.857 198.102C153.476 198.788 157.216 199.645 161.148 200.396C161.522 195.189 161.896 189.939 162.277 184.649C158.277 184.231 154.466 183.681 150.791 183.298ZM150.791 183.298C150.477 188.27 150.164 193.205 149.857 198.102C153.476 198.788 157.216 199.645 161.148 200.396C161.522 195.189 161.896 189.939 162.277 184.649C158.277 184.231 154.466 183.681 150.791 183.298ZM150.791 183.298C150.477 188.27 150.164 193.205 149.857 198.102C153.476 198.788 157.216 199.645 161.148 200.396C161.522 195.189 161.896 189.939 162.277 184.649C158.277 184.231 154.466 183.681 150.791 183.298ZM130.592 172.412C129.894 187.14 129.21 201.543 128.537 215.642C131.842 214.188 135.215 213.694 138.926 213.852L138.307 225.606L142.435 226.643L141.16 243.251L141.106 243.926C141.22 243.751 141.334 243.572 141.455 243.39C145.366 237.343 151.09 228.476 155.403 221.804C152.995 221.2 150.652 220.596 148.372 220.07V220.006L148.693 215.274H148.696C153.166 216.261 157.868 217.551 162.836 218.534C171.117 220.16 180.2 220.914 190.305 217.862C192.203 197.912 194.159 177.348 196.171 156.137C168.614 172.212 147.688 159.893 130.592 172.412ZM187.833 215.539C182.95 216.925 177.657 217.419 172.845 217.186C173.262 212.015 173.693 206.808 174.12 201.55C179.235 201.507 184.061 200.042 189.443 198.198L187.833 215.539ZM175.491 184.703C175.028 190.368 174.572 195.982 174.117 201.554C169.65 201.722 165.162 201.207 161.148 200.396C160.788 205.449 160.425 210.46 160.069 215.435C156.144 214.624 152.461 213.694 148.853 212.955C149.166 208.105 149.547 202.951 149.854 198.102C146.456 197.415 142.969 197.051 139.788 197.28C139.535 201.976 139.243 207.008 138.987 211.629C135.824 211.589 132.875 211.836 130.036 212.808C130.243 208.552 130.453 204.267 130.659 199.953C133.584 198.588 136.451 197.397 139.788 197.276C140.045 192.658 140.301 188.016 140.561 183.334C137.177 183.745 134.282 185.2 131.318 186.826L131.952 173.774C134.716 171.923 138.018 170.561 141.313 169.793C141.06 174.339 140.807 178.852 140.561 183.334C143.792 182.827 147.332 182.895 150.787 183.298C151.097 178.402 151.407 173.474 151.72 168.495C155.535 168.306 159.396 168.284 163.559 168.081C163.171 173.417 162.651 179.446 162.277 184.649C166.363 185.132 170.936 185.264 175.491 184.703C175.944 179.203 176.631 172.198 177.101 166.48C182.205 165.393 187.42 163.824 192.923 161.176C192.331 167.487 191.754 173.738 191.177 179.939C185.664 182.291 180.72 184.213 175.491 184.703ZM150.791 183.298C150.477 188.27 150.164 193.205 149.857 198.102C153.476 198.788 157.216 199.645 161.148 200.396C161.522 195.189 161.896 189.939 162.277 184.649C158.277 184.231 154.466 183.681 150.791 183.298ZM150.791 183.298C150.477 188.27 150.164 193.205 149.857 198.102C153.476 198.788 157.216 199.645 161.148 200.396C161.522 195.189 161.896 189.939 162.277 184.649C158.277 184.231 154.466 183.681 150.791 183.298ZM150.791 183.298C150.477 188.27 150.164 193.205 149.857 198.102C153.476 198.788 157.216 199.645 161.148 200.396C161.522 195.189 161.896 189.939 162.277 184.649C158.277 184.231 154.466 183.681 150.791 183.298Z" fill="white"/>
<path d="M141.16 243.25L141.106 243.925C141.22 243.75 141.334 243.572 141.455 243.389C141.356 243.343 141.259 243.296 141.16 243.25Z" fill="#FFD655"/>
<path d="M90.9709 140.815L93.0118 137.895L91.2238 135.19L88.816 133.492L79.2954 147.112L84.1715 150.543L86.7146 146.901L101.232 157.116L105.485 151.029L90.9709 140.815Z" fill="white"/>
<path d="M117.541 138.785L123.044 134.06L121.128 131.815L115.572 128.903C116.224 127.941 116.053 126.437 115.326 125.583L109.278 118.488C108.156 117.173 106.439 117.041 105.129 118.167L93.8665 127.831L109.264 145.89L114.892 141.058L110.097 135.432L111.23 134.464L117.541 138.785ZM106.251 130.918L103.369 127.538L105.606 125.618L108.487 128.999L106.251 130.918Z" fill="white"/>
<path d="M140.041 122.569L128.216 105.146L117.072 110.404L122.891 130.657L124.145 133.33L130.82 130.182L129.221 125.646L132.159 124.26L134.588 128.405L141.295 125.243L140.041 122.569ZM127.191 120.039L124.811 113.359L125.545 113.013L129.149 119.113L127.191 120.039Z" fill="white"/>
<path d="M157.519 116.156L149.238 117.714L147.058 106.07L154.206 104.723L154.783 101.539L154.238 98.6367L141.601 101.017C139.874 101.342 138.901 102.772 139.218 104.473L142.502 122.024C142.823 123.726 144.244 124.701 145.975 124.376L158.612 121.996L157.519 116.156Z" fill="white"/>
<path d="M179.434 99.2608L172.411 98.7998L170.092 107.295L168.742 107.206L169.301 98.5997L161.939 98.1172L160.4 121.834L167.763 122.316L168.357 113.135L169.707 113.224L171.103 122.534L178.466 123.017L178.658 120.068L175.972 110.265L179.242 102.209L179.434 99.2608Z" fill="white"/>
<path d="M190.063 101.802C188.389 101.259 186.857 102.041 186.323 103.689L184.784 108.435C184.2 110.244 184.239 111.33 185.439 112.899L190.234 118.96L189.753 120.447L181.742 117.831L179.912 123.481L192.171 127.48C193.813 128.017 195.348 127.23 195.879 125.586L197.542 120.451C198.13 118.642 198.098 117.527 196.891 115.99L192.104 109.893L192.438 108.86L199.359 111.119L201.393 108.567L202.294 105.79L190.063 101.802Z" fill="white"/>
<path d="M208.488 108.914L197.083 129.743L203.547 133.306L214.952 112.477L208.488 108.914Z" fill="white"/>
<path d="M232.587 125.889L221.339 116.258L205.962 134.335L217.21 143.966C218.521 145.092 220.238 144.956 221.36 143.638L232.914 130.053C234.033 128.738 233.897 127.015 232.587 125.889ZM217.684 136.561L215.419 134.621L223.084 125.607L225.349 127.548L217.684 136.561Z" fill="white"/>
<path d="M240.088 133.846L220.747 147.562L229.887 160.536L234.724 157.108L229.841 150.178L232.49 148.295L236.69 154.256L241.527 150.825L237.327 144.868L239.482 143.338L243.682 149.296L246.823 148.524L249.227 146.819L240.088 133.846Z" fill="white"/>
<path d="M235.251 170.572L226.079 176.74C228.148 183.095 229.267 189.878 229.267 196.919C229.267 203.959 228.148 210.743 226.079 217.097L235.251 223.266C238.292 215.056 239.952 206.179 239.952 196.919C239.952 187.659 238.292 178.781 235.251 170.572ZM248.871 161.412L239.803 167.509C243.35 176.633 245.295 186.551 245.295 196.919C245.295 207.287 243.35 217.204 239.803 226.328L248.871 232.426C253.451 221.497 255.98 209.499 255.98 196.919C255.98 184.339 253.451 172.341 248.871 161.412ZM262.398 152.316L253.387 158.374C258.491 170.2 261.323 183.234 261.323 196.919C261.323 210.603 258.491 223.637 253.387 235.463L262.398 241.521C268.567 227.919 272.008 212.816 272.008 196.919C272.008 181.022 268.567 165.919 262.398 152.316Z" fill="#CB4848"/>
<path d="M75.3062 158.374L66.2949 152.316C60.126 165.919 56.6853 181.022 56.6853 196.919C56.6853 212.816 60.126 227.919 66.2949 241.521L75.3062 235.463C70.2022 223.637 67.3706 210.603 67.3706 196.919C67.3706 183.234 70.2022 170.2 75.3062 158.374ZM88.8908 167.509L79.8225 161.412C75.2421 172.341 72.7132 184.339 72.7132 196.919C72.7132 209.499 75.2421 221.497 79.8225 232.426L88.8908 226.328C85.3432 217.204 83.3985 207.287 83.3985 196.919C83.3985 186.551 85.3432 176.633 88.8908 167.509ZM102.614 176.74L93.4427 170.572C90.4045 178.781 88.7412 187.659 88.7412 196.919C88.7412 206.179 90.4045 215.056 93.4427 223.266L102.614 217.097C100.545 210.743 99.4265 203.959 99.4265 196.919C99.4265 189.878 100.545 183.095 102.614 176.74Z" fill="#CB4848"/>
<path d="M100.994 237.018L96.3349 240.742L99.0989 244.219L85.2329 255.305L89.849 261.12L103.715 250.034L105.93 252.821L109.022 251.871L111.323 250.03L100.994 237.018Z" fill="white"/>
<path d="M123.091 259.122L118.2 266.209L115.75 264.508L120.644 257.421L114.582 253.207L101.093 272.742L107.159 276.956L112.38 269.393L114.827 271.094L109.606 278.657L115.672 282.874L129.156 263.335L123.091 259.122Z" fill="white"/>
<path d="M143.45 268.596L138.146 285.605L135.34 284.725L140.643 267.714L133.57 265.494L127.379 285.354C126.863 287.009 127.661 288.539 129.342 289.068L143.454 293.496L150.524 270.816L143.45 268.596Z" fill="white"/>
<path d="M166.345 271.599L166.338 274.551L167.299 282.603H166.69L163.267 271.592L155.414 271.57L155.357 295.34L162.16 295.358L162.167 292.403L161.237 284.386H161.814L165.273 295.365L173.123 295.383L173.18 271.613L166.345 271.599Z" fill="white"/>
<path d="M201.129 285.476L195.843 268.425C195.33 266.774 193.806 265.97 192.157 266.484L178.038 270.891L185.073 293.582L199.191 289.175C200.84 288.661 201.642 287.131 201.129 285.476ZM190.358 285.712L186.85 274.397L189.692 273.511L193.201 284.822L190.358 285.712Z" fill="white"/>
<path d="M222.468 269.347L215.38 273.979L213.609 271.249L219.704 267.267L216.473 262.289L210.375 266.27L208.936 264.051L215.031 260.07L214.382 256.889L212.772 254.412L199.505 263.086L212.434 283L225.702 274.326L222.468 269.347Z" fill="white"/>
<path d="M241.355 258.006L245.968 252.406L243.699 250.523L237.726 248.607C238.203 247.549 237.776 246.094 236.918 245.383L229.744 239.433C228.412 238.332 226.699 238.493 225.598 239.829L216.156 251.291L234.414 266.434L239.136 260.701L233.448 255.987L234.399 254.833L241.355 258.006ZM228.886 252.202L225.47 249.368L227.344 247.092L230.759 249.922L228.886 252.202Z" fill="white"/>
<path d="M248.034 112.781C225.68 90.3514 195.961 78 164.347 78C132.732 78 103.017 90.3514 80.6595 112.781C58.3095 135.211 46 165.032 46 196.75C46 228.469 58.3095 258.289 80.6631 280.719C103.017 303.149 132.736 315.504 164.347 315.504C195.957 315.504 225.68 303.149 248.034 280.719C270.384 258.289 282.693 228.469 282.693 196.75C282.693 165.032 270.384 135.211 248.034 112.781ZM244.255 276.931C222.909 298.349 194.529 310.143 164.347 310.143C134.164 310.143 105.784 298.349 84.4385 276.931C63.0965 255.512 51.3426 227.039 51.3426 196.75C51.3426 166.461 63.0965 137.992 84.4385 116.573C105.781 95.1583 134.161 83.3609 164.347 83.3609C194.533 83.3609 222.913 95.1583 244.255 116.573C265.597 137.992 277.351 166.465 277.351 196.75C277.351 227.036 265.597 255.512 244.255 276.931Z" fill="#FFD655"/>
<path d="M135.621 218.165C132.116 218.344 128.786 219.23 125.623 221.235C126.371 204.752 127.14 187.847 127.931 170.5C144.515 154.26 165.835 165.789 193.158 150.879C193.738 150.561 194.326 150.232 194.914 149.889C196.043 149.231 197.129 148.563 198.244 147.83C197.941 147.619 197.635 147.412 197.329 147.205C191.637 143.402 185.379 140.59 178.683 138.924C178.02 138.76 177.351 138.606 176.677 138.467C172.628 137.605 168.485 137.184 164.347 137.18C134.666 136.808 108.242 160.436 105.2 190.06C104.944 192.308 104.812 194.598 104.812 196.918C104.605 217.69 116.256 237.911 134.015 248.307C135.137 248.979 136.284 249.605 137.448 250.201C137.569 248.572 137.722 246.542 137.883 244.354C138.253 239.372 138.681 233.568 138.962 229.791L134.969 228.683L135.621 218.165ZM135.194 232.453L134.463 242.257C119.825 232.511 110.154 215.828 110.154 196.918C110.154 166.933 134.467 142.541 164.347 142.541C173.422 142.541 181.985 144.789 189.507 148.763C177.91 154.628 167.599 155.579 157.59 156.504C145.972 157.576 134.994 158.591 125.445 167.941L124.437 168.927L124.373 170.335C123.582 187.687 122.813 204.588 122.065 221.074L121.755 227.914C124.33 226.26 129.032 223.193 131.814 222.043L131.237 231.356L135.194 232.453Z" fill="#FFD655"/>
<path d="M223.874 196.049C223.75 178.727 215.501 161.826 202.415 151.025C202.197 153.223 201.977 155.418 201.759 157.612C199.626 179.12 197.514 200.474 195.498 220.77C182.209 226.435 170.434 224.941 159.926 222.532C157.127 226.728 148.557 239.569 143.521 247.117C142.224 249.054 141.163 250.644 140.493 251.649C147.994 254.958 156.147 256.659 164.347 256.656C166.209 256.656 168.051 256.57 169.871 256.398C170.476 256.341 171.078 256.277 171.68 256.202C201.068 252.971 224.715 226.077 223.874 196.049ZM161.529 226.553C174.59 229.415 186.892 228.826 198.832 223.233L199.042 221.124C200.944 201.964 202.899 182.226 204.915 161.879L205.001 161C213.424 170.585 218.539 183.162 218.539 196.918C218.539 226.899 194.23 251.291 164.347 251.291C158.259 251.291 152.404 250.28 146.937 248.411L161.529 226.553Z" fill="#FFD655"/>
</g>
<g clip-path="url(#clip2_3211_20035)">
<path d="M511.283 242.207L511.229 242.878C511.344 242.704 511.458 242.527 511.579 242.346C511.479 242.299 511.383 242.253 511.283 242.207Z" fill="#606060"/>
<path d="M461.029 140.417L463.072 137.516L461.282 134.827L458.871 133.141L449.338 146.675L454.221 150.084L456.767 146.465L471.304 156.615L475.562 150.567L461.029 140.417Z" fill="#FAFAFA"/>
<path d="M487.634 138.399L493.144 133.704L491.226 131.474L485.662 128.58C486.315 127.625 486.143 126.13 485.416 125.281L479.36 118.232C478.237 116.925 476.518 116.793 475.205 117.912L463.928 127.515L479.346 145.459L484.981 140.658L480.18 135.068L481.315 134.106L487.634 138.399ZM476.329 130.583L473.444 127.223L475.683 125.316L478.568 128.676L476.329 130.583Z" fill="#FAFAFA"/>
<path d="M510.163 122.287L498.323 104.975L487.164 110.199L492.991 130.324L494.246 132.98L500.93 129.851L499.328 125.345L502.271 123.967L504.703 128.086L511.418 124.943L510.163 122.287ZM497.296 119.773L494.913 113.135L495.648 112.791L499.257 118.853L497.296 119.773Z" fill="#FAFAFA"/>
<path d="M527.663 115.914L519.371 117.463L517.189 105.893L524.346 104.554L524.924 101.389L524.379 98.5059L511.725 100.871C509.995 101.194 509.022 102.615 509.339 104.305L512.627 121.745C512.948 123.436 514.371 124.405 516.105 124.082L528.758 121.717L527.663 115.914Z" fill="#FAFAFA"/>
<path d="M549.607 99.1266L542.574 98.6685L540.252 107.11L538.901 107.021L539.461 98.4697L532.089 97.9902L530.548 121.556L537.92 122.036L538.516 112.913L539.867 113.001L541.265 122.253L548.637 122.732L548.83 119.802L546.141 110.061L549.414 102.056L549.607 99.1266Z" fill="#FAFAFA"/>
<path d="M560.249 101.652C558.573 101.113 557.039 101.89 556.504 103.528L554.964 108.244C554.379 110.041 554.418 111.12 555.62 112.679L560.42 118.702L559.939 120.179L551.918 117.58L550.085 123.194L562.36 127.168C564.005 127.701 565.542 126.92 566.073 125.286L567.739 120.183C568.327 118.386 568.295 117.278 567.086 115.751L562.293 109.693L562.628 108.666L569.557 110.911L571.594 108.375L572.496 105.616L560.249 101.652Z" fill="#FAFAFA"/>
<path d="M578.698 108.719L567.279 129.416L573.752 132.956L585.171 112.259L578.698 108.719Z" fill="#FAFAFA"/>
<path d="M602.828 125.586L591.565 116.016L576.169 133.978L587.432 143.549C588.744 144.667 590.463 144.532 591.587 143.222L603.156 129.724C604.276 128.417 604.141 126.705 602.828 125.586ZM587.906 136.19L585.638 134.262L593.313 125.306L595.581 127.234L587.906 136.19Z" fill="#FAFAFA"/>
<path d="M610.339 133.492L590.974 147.122L600.125 160.013L604.968 156.607L600.079 149.722L602.732 147.85L606.937 153.774L611.78 150.364L607.575 144.444L609.733 142.924L613.938 148.844L617.083 148.077L619.49 146.383L610.339 133.492Z" fill="#FAFAFA"/>
<path d="M605.496 169.986L596.312 176.115C598.385 182.429 599.504 189.17 599.504 196.166C599.504 203.162 598.385 209.902 596.312 216.216L605.496 222.346C608.542 214.188 610.204 205.367 610.204 196.166C610.204 186.964 608.542 178.143 605.496 169.986ZM619.134 160.884L610.054 166.942C613.606 176.009 615.553 185.863 615.553 196.166C615.553 206.468 613.606 216.323 610.054 225.389L619.134 231.448C623.72 220.588 626.252 208.666 626.252 196.166C626.252 183.665 623.72 171.743 619.134 160.884ZM632.679 151.846L623.656 157.865C628.767 169.616 631.602 182.568 631.602 196.166C631.602 209.763 628.767 222.715 623.656 234.466L632.679 240.486C638.856 226.969 642.301 211.962 642.301 196.166C642.301 180.37 638.856 165.362 632.679 151.846Z" fill="#CB4848"/>
<path d="M445.344 157.865L436.321 151.846C430.144 165.362 426.699 180.37 426.699 196.166C426.699 211.962 430.144 226.969 436.321 240.486L445.344 234.466C440.234 222.715 437.398 209.763 437.398 196.166C437.398 182.568 440.234 169.616 445.344 157.865ZM458.946 166.942L449.866 160.884C445.28 171.743 442.748 183.665 442.748 196.166C442.748 208.666 445.28 220.588 449.866 231.448L458.946 225.389C455.394 216.323 453.447 206.468 453.447 196.166C453.447 185.863 455.394 176.009 458.946 166.942ZM472.688 176.115L463.504 169.986C460.462 178.143 458.797 186.964 458.797 196.166C458.797 205.367 460.462 214.188 463.504 222.346L472.688 216.216C470.616 209.902 469.496 203.162 469.496 196.166C469.496 189.17 470.616 182.429 472.688 176.115Z" fill="#CB4848"/>
<path d="M471.065 236.01L466.4 239.71L469.168 243.166L455.284 254.182L459.906 259.96L473.79 248.944L476.008 251.714L479.104 250.769L481.407 248.94L471.065 236.01Z" fill="#FAFAFA"/>
<path d="M493.191 257.975L488.294 265.017L485.84 263.327L490.741 256.285L484.671 252.098L471.165 271.509L477.238 275.696L482.467 268.181L484.917 269.872L479.688 277.386L485.762 281.577L499.264 262.162L493.191 257.975Z" fill="#FAFAFA"/>
<path d="M513.576 267.389L508.266 284.29L505.455 283.416L510.766 266.512L503.683 264.307L497.484 284.041C496.967 285.685 497.766 287.205 499.45 287.731L513.58 292.131L520.659 269.594L513.576 267.389Z" fill="#FAFAFA"/>
<path d="M536.501 270.372L536.494 273.306L537.457 281.307H536.847L533.419 270.365L525.556 270.344L525.499 293.963L532.31 293.981L532.317 291.044L531.387 283.079H531.964L535.427 293.988L543.288 294.006L543.345 270.386L536.501 270.372Z" fill="#FAFAFA"/>
<path d="M571.33 284.162L566.038 267.218C565.524 265.578 563.998 264.779 562.346 265.29L548.209 269.669L555.253 292.216L569.39 287.837C571.041 287.326 571.844 285.806 571.33 284.162ZM560.545 284.396L557.032 273.153L559.878 272.272L563.391 283.512L560.545 284.396Z" fill="#FAFAFA"/>
<path d="M592.696 268.136L585.599 272.738L583.826 270.025L589.929 266.069L586.694 261.122L580.588 265.078L579.147 262.873L585.249 258.917L584.6 255.756L582.988 253.295L569.704 261.914L582.65 281.702L595.934 273.083L592.696 268.136Z" fill="#FAFAFA"/>
<path d="M611.609 256.866L616.227 251.302L613.955 249.43L607.974 247.527C608.452 246.475 608.024 245.03 607.165 244.323L599.982 238.411C598.648 237.317 596.933 237.477 595.831 238.805L586.376 250.194L604.658 265.24L609.387 259.544L603.691 254.86L604.643 253.713L611.609 256.866ZM599.123 251.099L595.703 248.283L597.578 246.021L600.999 248.833L599.123 251.099Z" fill="#FAFAFA"/>
<path d="M618.296 112.561C595.913 90.2732 566.155 78 534.5 78C502.845 78 473.091 90.2732 450.708 112.561C428.325 134.852 416 164.484 416 195.998C416 227.512 428.325 257.148 450.708 279.439C473.091 301.727 502.848 314 534.5 314C566.152 314 595.913 301.727 618.296 279.439C640.675 257.148 653 227.516 653 195.998C653 164.481 640.675 134.852 618.296 112.561ZM614.512 275.671C593.138 296.954 564.721 308.673 534.5 308.673C504.279 308.673 475.862 296.954 454.488 275.671C433.119 254.388 421.35 226.095 421.35 195.998C421.35 165.901 433.119 137.612 454.488 116.329C475.858 95.0497 504.275 83.3269 534.5 83.3269C564.725 83.3269 593.142 95.0497 614.512 116.329C635.881 137.612 647.65 165.905 647.65 195.998C647.65 226.092 635.881 254.388 614.512 275.671Z" fill="#FFD655"/>
<path d="M534.5 136.805C501.579 136.805 474.888 163.382 474.888 196.164C474.888 225.104 495.68 249.203 523.198 254.462C524.575 254.725 525.969 254.941 527.374 255.105V233.708H518.448L520.705 228.019L524.642 218.079L520.413 222.877V185.542H508.316V161.039H561.908V173.987L561.619 174.722L557.35 185.542H548.99V198.387L543.398 212.497H550.955L548.698 218.186C545.791 225.526 539.233 242.072 535.912 250.435C535.745 250.857 535.584 251.259 535.434 251.639L533.894 255.524C534.093 255.527 534.293 255.527 534.496 255.527C535.819 255.527 537.135 255.485 538.437 255.4C569.522 253.379 594.108 227.632 594.108 196.164C594.108 164.696 567.418 136.805 534.496 136.805H534.5ZM540.534 250.119C544.008 241.354 549.882 226.542 552.589 219.713L557.104 208.331H549.55L553.177 199.179V189.704H560.206L565.52 176.231L566.094 174.771V156.88H504.143V189.704H516.24V227.969L512.31 237.874H523.202V249.274C498.676 244.082 480.22 222.344 480.22 196.399C480.22 166.589 504.571 142.341 534.507 142.341C564.443 142.341 588.794 166.593 588.794 196.399C588.794 224.173 567.646 247.125 540.541 250.122L540.534 250.119Z" fill="#FFD655"/>
<path d="M544.817 216.655H537.26L544.817 197.592V181.377H554.504L557.731 173.198V165.197H512.495V181.373H524.593V211.829L537.346 197.372C534.3 205.06 527.588 221.989 524.593 229.546H531.554V250.101C534.678 242.232 541.761 224.362 544.817 216.652V216.655Z" fill="#FAFAFA"/>
</g>
<path d="M426.5 116.824L420.845 100.453L409.495 113.536L426.5 116.824ZM270.5 116.824L271.549 117.896C291.388 98.4721 318.544 86.5 348.5 86.5V85V83.5C317.728 83.5 289.827 95.8018 269.451 115.752L270.5 116.824ZM348.5 85V86.5C373.667 86.5 396.855 94.9496 415.39 109.168L416.303 107.977L417.216 106.787C398.176 92.1815 374.35 83.5 348.5 83.5V85Z" fill="white"/>
<path d="M270.5 277L276.155 293.372L287.505 280.289L270.5 277ZM426.5 277L425.451 275.928C405.612 295.352 378.456 307.324 348.5 307.324L348.5 308.824L348.5 310.324C379.272 310.324 407.173 298.022 427.549 278.072L426.5 277ZM348.5 308.824L348.5 307.324C323.333 307.324 300.145 298.875 281.61 284.657L280.697 285.847L279.784 287.037C298.824 301.643 322.65 310.324 348.5 310.324L348.5 308.824Z" fill="white"/>
</g>
<defs>
<clipPath id="clip0_3211_20035">
<rect width="700" height="394" fill="white"/>
</clipPath>
<clipPath id="clip1_3211_20035">
<rect width="236.693" height="237.504" fill="white" transform="translate(46 78)"/>
</clipPath>
<clipPath id="clip2_3211_20035">
<rect width="237" height="236" fill="white" transform="translate(416 78)"/>
</clipPath>
</defs>
</svg>
