<svg width="700" height="554" viewBox="0 0 700 554" fill="none" xmlns="http://www.w3.org/2000/svg">
<rect width="350.222" height="554" fill="#333333"/>
<path d="M175.5 184C124.966 184 84 224.966 84 275.5C84 320.108 115.913 357.256 158.15 365.361C160.263 365.766 162.401 366.101 164.563 366.354V333.375H150.862L154.328 324.608L160.373 309.285L153.879 316.678V259.127H135.311V221.357H217.569V241.315L217.128 242.447L210.576 259.127H197.747V278.925L189.163 300.673H200.763L197.297 309.44C192.834 320.753 182.767 346.257 177.674 359.153C177.417 359.807 177.172 360.424 176.943 361.008L174.576 366.996C174.883 367.004 175.189 367.004 175.5 367.004C177.531 367.004 179.55 366.939 181.549 366.808C229.263 363.693 267 324.007 267 275.5C267 226.993 226.034 184 175.5 184ZM184.762 358.67C190.095 345.162 199.108 322.327 203.264 311.798L210.192 294.256H198.597L204.163 280.147V265.54H214.954L223.108 244.772L223.986 242.52V214.944H128.898V265.54H147.466V324.522L141.433 339.792H158.15V357.362C120.503 349.36 92.1744 315.853 92.1744 275.856C92.1744 229.907 129.552 192.526 175.5 192.526C221.448 192.526 258.826 229.907 258.826 275.856C258.826 318.669 226.365 354.048 184.762 358.67Z" fill="#FAFAFA"/>
<path d="M191.334 307.085H179.735L191.334 277.703V252.709H206.204L211.157 240.104V227.773H141.724V252.709H160.292V299.655L179.866 277.367C175.19 289.22 164.89 315.313 160.292 326.961H170.976V358.645C175.77 346.515 186.642 318.971 191.334 307.085Z" fill="#FAFAFA"/>
<path d="M93.0623 136V119.08H98.9183C100.822 119.08 102.43 119.408 103.742 120.064C105.07 120.72 106.07 121.68 106.742 122.944C107.43 124.192 107.774 125.72 107.774 127.528C107.774 129.32 107.43 130.848 106.742 132.112C106.07 133.376 105.07 134.344 103.742 135.016C102.43 135.672 100.822 136 98.9183 136H93.0623ZM95.5583 133.912H98.7743C100.95 133.912 102.566 133.384 103.622 132.328C104.694 131.272 105.23 129.672 105.23 127.528C105.23 125.384 104.694 123.792 103.622 122.752C102.566 121.696 100.95 121.168 98.7743 121.168H95.5583V133.912ZM115.572 136.216C114.5 136.216 113.564 135.968 112.764 135.472C111.964 134.976 111.34 134.256 110.892 133.312C110.46 132.368 110.244 131.248 110.244 129.952C110.244 128.64 110.46 127.52 110.892 126.592C111.34 125.664 111.964 124.952 112.764 124.456C113.564 123.944 114.5 123.688 115.572 123.688C116.628 123.688 117.548 123.952 118.332 124.48C119.116 125.008 119.636 125.728 119.892 126.64H119.628L119.868 123.904H122.22C122.172 124.4 122.124 124.896 122.076 125.392C122.044 125.872 122.028 126.344 122.028 126.808V136H119.604V133.312H119.868C119.612 134.208 119.084 134.92 118.284 135.448C117.5 135.96 116.596 136.216 115.572 136.216ZM116.172 134.32C117.212 134.32 118.044 133.952 118.668 133.216C119.308 132.48 119.628 131.392 119.628 129.952C119.628 128.512 119.308 127.432 118.668 126.712C118.044 125.976 117.212 125.608 116.172 125.608C115.116 125.608 114.268 125.976 113.628 126.712C113.004 127.432 112.692 128.512 112.692 129.952C112.692 131.392 113.004 132.48 113.628 133.216C114.252 133.952 115.1 134.32 116.172 134.32ZM125.517 136V126.904C125.517 126.408 125.501 125.912 125.469 125.416C125.453 124.904 125.421 124.4 125.373 123.904H127.725L127.989 127.024H127.605C127.765 126.272 128.037 125.648 128.421 125.152C128.805 124.656 129.269 124.288 129.813 124.048C130.373 123.808 130.957 123.688 131.565 123.688C131.821 123.688 132.037 123.704 132.213 123.736C132.389 123.752 132.565 123.784 132.741 123.832L132.717 125.992C132.445 125.88 132.205 125.816 131.997 125.8C131.805 125.768 131.565 125.752 131.277 125.752C130.573 125.752 129.973 125.912 129.477 126.232C128.981 126.536 128.605 126.952 128.349 127.48C128.093 128.008 127.965 128.576 127.965 129.184V136H125.517ZM134.612 136V118.336H137.036V129.184H137.084L142.364 123.904H145.364L138.98 130.264L139.004 129.184L145.892 136H142.82L137.084 130.456H137.036V136H134.612ZM160.864 136.216C158.512 136.216 156.76 135.624 155.608 134.44C154.472 133.256 153.904 131.504 153.904 129.184V119.08H156.4V129.136C156.4 130.768 156.752 132 157.456 132.832C158.176 133.648 159.312 134.056 160.864 134.056C162.336 134.056 163.448 133.648 164.2 132.832C164.952 132 165.328 130.768 165.328 129.136V119.08H167.776V129.184C167.776 131.504 167.192 133.256 166.024 134.44C164.856 135.624 163.136 136.216 160.864 136.216ZM171.648 136V119.08H174.144V136H171.648ZM188.571 136V121.168H182.787V119.08H196.851V121.168H191.067V136H188.571ZM198.971 136V118.336H201.395V126.472H201.059C201.411 125.56 201.979 124.872 202.763 124.408C203.547 123.928 204.451 123.688 205.475 123.688C206.915 123.688 207.987 124.088 208.691 124.888C209.395 125.672 209.747 126.864 209.747 128.464V136H207.323V128.608C207.323 127.568 207.115 126.816 206.699 126.352C206.299 125.872 205.659 125.632 204.779 125.632C203.755 125.632 202.931 125.952 202.307 126.592C201.699 127.216 201.395 128.048 201.395 129.088V136H198.971ZM218.79 136.216C216.838 136.216 215.302 135.664 214.182 134.56C213.062 133.456 212.502 131.928 212.502 129.976C212.502 128.712 212.742 127.608 213.222 126.664C213.718 125.72 214.398 124.992 215.262 124.48C216.142 123.952 217.158 123.688 218.31 123.688C219.446 123.688 220.398 123.928 221.166 124.408C221.934 124.888 222.518 125.568 222.918 126.448C223.318 127.312 223.518 128.336 223.518 129.52V130.288H214.398V128.896H221.862L221.454 129.208C221.454 128.008 221.182 127.08 220.638 126.424C220.11 125.752 219.342 125.416 218.334 125.416C217.214 125.416 216.35 125.808 215.742 126.592C215.134 127.36 214.83 128.424 214.83 129.784V130.024C214.83 131.448 215.174 132.52 215.862 133.24C216.566 133.96 217.558 134.32 218.838 134.32C219.542 134.32 220.198 134.224 220.806 134.032C221.43 133.824 222.022 133.488 222.582 133.024L223.374 134.68C222.814 135.176 222.134 135.56 221.334 135.832C220.534 136.088 219.686 136.216 218.79 136.216ZM226.299 136V126.808C226.299 126.344 226.275 125.872 226.227 125.392C226.195 124.896 226.155 124.4 226.107 123.904H228.459L228.675 126.448H228.387C228.723 125.568 229.235 124.888 229.923 124.408C230.627 123.928 231.467 123.688 232.443 123.688C233.435 123.688 234.243 123.928 234.867 124.408C235.507 124.872 235.947 125.592 236.187 126.568H235.803C236.123 125.688 236.667 124.992 237.435 124.48C238.203 123.952 239.091 123.688 240.099 123.688C241.443 123.688 242.451 124.08 243.123 124.864C243.795 125.648 244.131 126.864 244.131 128.512V136H241.707V128.632C241.707 127.576 241.523 126.816 241.155 126.352C240.803 125.872 240.227 125.632 239.427 125.632C238.499 125.632 237.763 125.952 237.219 126.592C236.675 127.232 236.403 128.096 236.403 129.184V136H233.979V128.632C233.979 127.576 233.795 126.816 233.427 126.352C233.075 125.872 232.499 125.632 231.699 125.632C230.771 125.632 230.043 125.952 229.515 126.592C228.987 127.232 228.723 128.096 228.723 129.184V136H226.299ZM253.196 136.216C251.244 136.216 249.708 135.664 248.588 134.56C247.468 133.456 246.908 131.928 246.908 129.976C246.908 128.712 247.148 127.608 247.628 126.664C248.124 125.72 248.804 124.992 249.668 124.48C250.548 123.952 251.564 123.688 252.716 123.688C253.852 123.688 254.804 123.928 255.572 124.408C256.34 124.888 256.924 125.568 257.324 126.448C257.724 127.312 257.924 128.336 257.924 129.52V130.288H248.804V128.896H256.268L255.86 129.208C255.86 128.008 255.588 127.08 255.044 126.424C254.516 125.752 253.748 125.416 252.74 125.416C251.62 125.416 250.756 125.808 250.148 126.592C249.54 127.36 249.236 128.424 249.236 129.784V130.024C249.236 131.448 249.58 132.52 250.268 133.24C250.972 133.96 251.964 134.32 253.244 134.32C253.948 134.32 254.604 134.224 255.212 134.032C255.836 133.824 256.428 133.488 256.988 133.024L257.78 134.68C257.22 135.176 256.54 135.56 255.74 135.832C254.94 136.088 254.092 136.216 253.196 136.216Z" fill="white"/>
<path d="M75.5428 423V410.31H80.8348C82.2028 410.31 83.2528 410.598 83.9848 411.174C84.7288 411.75 85.1008 412.56 85.1008 413.604C85.1008 414.384 84.8668 415.038 84.3988 415.566C83.9308 416.094 83.2888 416.448 82.4728 416.628V416.358C83.4088 416.478 84.1348 416.808 84.6508 417.348C85.1668 417.888 85.4248 418.602 85.4248 419.49C85.4248 420.618 85.0408 421.488 84.2728 422.1C83.5168 422.7 82.4488 423 81.0688 423H75.5428ZM77.3608 421.542H80.8708C81.7228 421.542 82.3888 421.38 82.8688 421.056C83.3608 420.732 83.6068 420.186 83.6068 419.418C83.6068 418.65 83.3608 418.104 82.8688 417.78C82.3888 417.456 81.7228 417.294 80.8708 417.294H77.3608V421.542ZM77.3608 415.854H80.5468C81.4588 415.854 82.1428 415.68 82.5988 415.332C83.0548 414.984 83.2828 414.474 83.2828 413.802C83.2828 413.13 83.0548 412.62 82.5988 412.272C82.1428 411.924 81.4588 411.75 80.5468 411.75H77.3608V415.854ZM91.1771 423.162C90.3731 423.162 89.6711 422.976 89.0711 422.604C88.4711 422.232 88.0031 421.692 87.6671 420.984C87.3431 420.276 87.1811 419.436 87.1811 418.464C87.1811 417.48 87.3431 416.64 87.6671 415.944C88.0031 415.248 88.4711 414.714 89.0711 414.342C89.6711 413.958 90.3731 413.766 91.1771 413.766C91.9691 413.766 92.6591 413.964 93.2471 414.36C93.8351 414.756 94.2251 415.296 94.4171 415.98H94.2191L94.3991 413.928H96.1631C96.1271 414.3 96.0911 414.672 96.0551 415.044C96.0311 415.404 96.0191 415.758 96.0191 416.106V423H94.2011V420.984H94.3991C94.2071 421.656 93.8111 422.19 93.2111 422.586C92.6231 422.97 91.9451 423.162 91.1771 423.162ZM91.6271 421.74C92.4071 421.74 93.0311 421.464 93.4991 420.912C93.9791 420.36 94.2191 419.544 94.2191 418.464C94.2191 417.384 93.9791 416.574 93.4991 416.034C93.0311 415.482 92.4071 415.206 91.6271 415.206C90.8351 415.206 90.1991 415.482 89.7191 416.034C89.2511 416.574 89.0171 417.384 89.0171 418.464C89.0171 419.544 89.2511 420.36 89.7191 420.912C90.1871 421.464 90.8231 421.74 91.6271 421.74ZM102.65 423.162C101.738 423.162 100.94 422.976 100.256 422.604C99.5838 422.22 99.0618 421.674 98.6898 420.966C98.3298 420.246 98.1498 419.394 98.1498 418.41C98.1498 417.438 98.3358 416.604 98.7078 415.908C99.0798 415.212 99.6018 414.684 100.274 414.324C100.946 413.952 101.738 413.766 102.65 413.766C103.238 413.766 103.808 413.868 104.36 414.072C104.912 414.264 105.368 414.54 105.728 414.9L105.134 416.178C104.798 415.854 104.42 415.614 104 415.458C103.58 415.29 103.172 415.206 102.776 415.206C101.912 415.206 101.234 415.482 100.742 416.034C100.25 416.586 100.004 417.384 100.004 418.428C100.004 419.484 100.25 420.294 100.742 420.858C101.234 421.422 101.912 421.704 102.776 421.704C103.16 421.704 103.562 421.632 103.982 421.488C104.402 421.332 104.786 421.086 105.134 420.75L105.728 422.028C105.356 422.388 104.888 422.67 104.324 422.874C103.772 423.066 103.214 423.162 102.65 423.162ZM107.654 423V409.752H109.472V417.888H109.508L113.468 413.928H115.718L110.93 418.698L110.948 417.888L116.114 423H113.81L109.508 418.842H109.472V423H107.654ZM121.127 427.032C120.311 427.032 119.567 426.936 118.895 426.744C118.235 426.552 117.641 426.264 117.113 425.88L117.563 424.548C117.935 424.8 118.301 424.998 118.661 425.142C119.021 425.298 119.399 425.412 119.795 425.484C120.191 425.556 120.599 425.592 121.019 425.592C121.883 425.592 122.531 425.37 122.963 424.926C123.407 424.494 123.629 423.864 123.629 423.036V420.606H123.809C123.617 421.278 123.221 421.812 122.621 422.208C122.033 422.592 121.349 422.784 120.569 422.784C119.741 422.784 119.021 422.604 118.409 422.244C117.809 421.872 117.341 421.35 117.005 420.678C116.681 419.994 116.519 419.19 116.519 418.266C116.519 417.342 116.681 416.544 117.005 415.872C117.341 415.2 117.809 414.684 118.409 414.324C119.021 413.952 119.741 413.766 120.569 413.766C121.361 413.766 122.045 413.964 122.621 414.36C123.209 414.744 123.599 415.272 123.791 415.944L123.629 415.8L123.791 413.928H125.555C125.507 414.3 125.471 414.672 125.447 415.044C125.423 415.404 125.411 415.758 125.411 416.106V422.82C125.411 424.188 125.045 425.232 124.313 425.952C123.593 426.672 122.531 427.032 121.127 427.032ZM121.001 421.362C121.793 421.362 122.423 421.092 122.891 420.552C123.371 420.012 123.611 419.25 123.611 418.266C123.611 417.282 123.371 416.526 122.891 415.998C122.423 415.47 121.793 415.206 121.001 415.206C120.185 415.206 119.537 415.47 119.057 415.998C118.589 416.526 118.355 417.282 118.355 418.266C118.355 419.25 118.589 420.012 119.057 420.552C119.537 421.092 120.185 421.362 121.001 421.362ZM128.026 423V416.178C128.026 415.806 128.014 415.434 127.99 415.062C127.978 414.678 127.954 414.3 127.918 413.928H129.682L129.88 416.268H129.592C129.712 415.704 129.916 415.236 130.204 414.864C130.492 414.492 130.84 414.216 131.248 414.036C131.668 413.856 132.106 413.766 132.562 413.766C132.754 413.766 132.916 413.778 133.048 413.802C133.18 413.814 133.312 413.838 133.444 413.874L133.426 415.494C133.222 415.41 133.042 415.362 132.886 415.35C132.742 415.326 132.562 415.314 132.346 415.314C131.818 415.314 131.368 415.434 130.996 415.674C130.624 415.902 130.342 416.214 130.15 416.61C129.958 417.006 129.862 417.432 129.862 417.888V423H128.026ZM138.613 423.162C137.713 423.162 136.933 422.976 136.273 422.604C135.613 422.22 135.103 421.68 134.743 420.984C134.383 420.276 134.203 419.436 134.203 418.464C134.203 417.492 134.383 416.658 134.743 415.962C135.103 415.254 135.613 414.714 136.273 414.342C136.933 413.958 137.713 413.766 138.613 413.766C139.513 413.766 140.293 413.958 140.953 414.342C141.625 414.714 142.141 415.254 142.501 415.962C142.873 416.658 143.059 417.492 143.059 418.464C143.059 419.436 142.873 420.276 142.501 420.984C142.141 421.68 141.625 422.22 140.953 422.604C140.293 422.976 139.513 423.162 138.613 423.162ZM138.613 421.74C139.405 421.74 140.035 421.464 140.503 420.912C140.971 420.36 141.205 419.544 141.205 418.464C141.205 417.384 140.971 416.574 140.503 416.034C140.035 415.482 139.405 415.206 138.613 415.206C137.833 415.206 137.209 415.482 136.741 416.034C136.273 416.574 136.039 417.384 136.039 418.464C136.039 419.544 136.267 420.36 136.723 420.912C137.191 421.464 137.821 421.74 138.613 421.74ZM148.406 423.162C147.314 423.162 146.492 422.868 145.94 422.28C145.4 421.68 145.13 420.762 145.13 419.526V413.928H146.948V419.49C146.948 420.246 147.104 420.804 147.416 421.164C147.728 421.524 148.202 421.704 148.838 421.704C149.558 421.704 150.14 421.464 150.584 420.984C151.028 420.504 151.25 419.868 151.25 419.076V413.928H153.068V423H151.304V421.056H151.538C151.286 421.728 150.884 422.25 150.332 422.622C149.78 422.982 149.138 423.162 148.406 423.162ZM155.73 423V416.106C155.73 415.758 155.712 415.404 155.676 415.044C155.652 414.672 155.622 414.3 155.586 413.928H157.35L157.512 415.836H157.296C157.572 415.164 157.998 414.654 158.574 414.306C159.15 413.946 159.816 413.766 160.572 413.766C161.64 413.766 162.444 414.06 162.984 414.648C163.536 415.236 163.812 416.148 163.812 417.384V423H161.994V417.492C161.994 416.688 161.832 416.112 161.508 415.764C161.196 415.404 160.716 415.224 160.068 415.224C159.3 415.224 158.688 415.464 158.232 415.944C157.776 416.412 157.548 417.048 157.548 417.852V423H155.73ZM169.874 423.162C169.082 423.162 168.38 422.976 167.768 422.604C167.168 422.232 166.7 421.692 166.364 420.984C166.04 420.276 165.878 419.436 165.878 418.464C165.878 417.48 166.04 416.64 166.364 415.944C166.7 415.248 167.168 414.714 167.768 414.342C168.38 413.958 169.082 413.766 169.874 413.766C170.654 413.766 171.338 413.964 171.926 414.36C172.526 414.744 172.922 415.272 173.114 415.944H172.898V409.752H174.716V423H172.916V420.948H173.132C172.928 421.632 172.532 422.172 171.944 422.568C171.356 422.964 170.666 423.162 169.874 423.162ZM170.324 421.74C171.104 421.74 171.734 421.464 172.214 420.912C172.694 420.36 172.934 419.544 172.934 418.464C172.934 417.384 172.694 416.574 172.214 416.034C171.734 415.482 171.104 415.206 170.324 415.206C169.532 415.206 168.896 415.482 168.416 416.034C167.948 416.574 167.714 417.384 167.714 418.464C167.714 419.544 167.948 420.36 168.416 420.912C168.896 421.464 169.532 421.74 170.324 421.74ZM185.282 423.162C184.526 423.162 183.83 423.066 183.194 422.874C182.558 422.682 182.03 422.412 181.61 422.064L182.168 420.822C182.612 421.158 183.104 421.41 183.644 421.578C184.184 421.746 184.736 421.83 185.3 421.83C185.96 421.83 186.458 421.716 186.794 421.488C187.13 421.248 187.298 420.924 187.298 420.516C187.298 420.204 187.19 419.952 186.974 419.76C186.77 419.568 186.428 419.424 185.948 419.328L184.22 418.986C183.452 418.818 182.87 418.53 182.474 418.122C182.078 417.714 181.88 417.192 181.88 416.556C181.88 416.016 182.024 415.536 182.312 415.116C182.612 414.696 183.032 414.366 183.572 414.126C184.124 413.886 184.766 413.766 185.498 413.766C186.17 413.766 186.794 413.862 187.37 414.054C187.946 414.246 188.426 414.522 188.81 414.882L188.234 416.088C187.862 415.776 187.442 415.536 186.974 415.368C186.506 415.188 186.032 415.098 185.552 415.098C184.88 415.098 184.382 415.224 184.058 415.476C183.734 415.728 183.572 416.058 183.572 416.466C183.572 416.778 183.668 417.036 183.86 417.24C184.064 417.432 184.382 417.582 184.814 417.69L186.542 418.032C187.358 418.2 187.97 418.476 188.378 418.86C188.786 419.244 188.99 419.76 188.99 420.408C188.99 420.972 188.834 421.464 188.522 421.884C188.21 422.304 187.778 422.622 187.226 422.838C186.674 423.054 186.026 423.162 185.282 423.162ZM194.355 423.162C193.263 423.162 192.441 422.868 191.889 422.28C191.349 421.68 191.079 420.762 191.079 419.526V413.928H192.897V419.49C192.897 420.246 193.053 420.804 193.365 421.164C193.677 421.524 194.151 421.704 194.787 421.704C195.507 421.704 196.089 421.464 196.533 420.984C196.977 420.504 197.199 419.868 197.199 419.076V413.928H199.017V423H197.253V421.056H197.487C197.235 421.728 196.833 422.25 196.281 422.622C195.729 422.982 195.087 423.162 194.355 423.162ZM206.522 423.162C205.73 423.162 205.04 422.964 204.452 422.568C203.864 422.172 203.474 421.632 203.282 420.948H203.48V423H201.68V409.752H203.498V415.944H203.282C203.486 415.272 203.876 414.744 204.452 414.36C205.04 413.964 205.73 413.766 206.522 413.766C207.326 413.766 208.028 413.958 208.628 414.342C209.228 414.714 209.69 415.254 210.014 415.962C210.35 416.658 210.518 417.498 210.518 418.482C210.518 419.454 210.35 420.294 210.014 421.002C209.69 421.698 209.222 422.232 208.61 422.604C208.01 422.976 207.314 423.162 206.522 423.162ZM206.072 421.74C206.852 421.74 207.482 421.47 207.962 420.93C208.442 420.378 208.682 419.562 208.682 418.482C208.682 417.39 208.442 416.574 207.962 416.034C207.482 415.482 206.852 415.206 206.072 415.206C205.28 415.206 204.644 415.482 204.164 416.034C203.696 416.574 203.462 417.384 203.462 418.464C203.462 419.544 203.696 420.36 204.164 420.912C204.644 421.464 205.28 421.74 206.072 421.74ZM216.089 423.162C215.105 423.162 214.361 422.898 213.857 422.37C213.353 421.83 213.101 421.026 213.101 419.958V415.332H211.337V413.928H213.101V411.534L214.919 411.048V413.928H217.439V415.332H214.919V419.796C214.919 420.468 215.039 420.948 215.279 421.236C215.519 421.524 215.867 421.668 216.323 421.668C216.551 421.668 216.749 421.65 216.917 421.614C217.097 421.566 217.259 421.512 217.403 421.452V422.928C217.223 423 217.013 423.054 216.773 423.09C216.533 423.138 216.305 423.162 216.089 423.162ZM219.064 423V416.178C219.064 415.806 219.052 415.434 219.028 415.062C219.016 414.678 218.992 414.3 218.956 413.928H220.72L220.918 416.268H220.63C220.75 415.704 220.954 415.236 221.242 414.864C221.53 414.492 221.878 414.216 222.286 414.036C222.706 413.856 223.144 413.766 223.6 413.766C223.792 413.766 223.954 413.778 224.086 413.802C224.218 413.814 224.35 413.838 224.482 413.874L224.464 415.494C224.26 415.41 224.08 415.362 223.924 415.35C223.78 415.326 223.6 415.314 223.384 415.314C222.856 415.314 222.406 415.434 222.034 415.674C221.662 415.902 221.38 416.214 221.188 416.61C220.996 417.006 220.9 417.432 220.9 417.888V423H219.064ZM229.271 423.162C228.467 423.162 227.765 422.976 227.165 422.604C226.565 422.232 226.097 421.692 225.761 420.984C225.437 420.276 225.275 419.436 225.275 418.464C225.275 417.48 225.437 416.64 225.761 415.944C226.097 415.248 226.565 414.714 227.165 414.342C227.765 413.958 228.467 413.766 229.271 413.766C230.063 413.766 230.753 413.964 231.341 414.36C231.929 414.756 232.319 415.296 232.511 415.98H232.313L232.493 413.928H234.257C234.221 414.3 234.185 414.672 234.149 415.044C234.125 415.404 234.113 415.758 234.113 416.106V423H232.295V420.984H232.493C232.301 421.656 231.905 422.19 231.305 422.586C230.717 422.97 230.039 423.162 229.271 423.162ZM229.721 421.74C230.501 421.74 231.125 421.464 231.593 420.912C232.073 420.36 232.313 419.544 232.313 418.464C232.313 417.384 232.073 416.574 231.593 416.034C231.125 415.482 230.501 415.206 229.721 415.206C228.929 415.206 228.293 415.482 227.813 416.034C227.345 416.574 227.111 417.384 227.111 418.464C227.111 419.544 227.345 420.36 227.813 420.912C228.281 421.464 228.917 421.74 229.721 421.74ZM240.744 423.162C239.832 423.162 239.034 422.976 238.35 422.604C237.678 422.22 237.156 421.674 236.784 420.966C236.424 420.246 236.244 419.394 236.244 418.41C236.244 417.438 236.43 416.604 236.802 415.908C237.174 415.212 237.696 414.684 238.368 414.324C239.04 413.952 239.832 413.766 240.744 413.766C241.332 413.766 241.902 413.868 242.454 414.072C243.006 414.264 243.462 414.54 243.822 414.9L243.228 416.178C242.892 415.854 242.514 415.614 242.094 415.458C241.674 415.29 241.266 415.206 240.87 415.206C240.006 415.206 239.328 415.482 238.836 416.034C238.344 416.586 238.098 417.384 238.098 418.428C238.098 419.484 238.344 420.294 238.836 420.858C239.328 421.422 240.006 421.704 240.87 421.704C241.254 421.704 241.656 421.632 242.076 421.488C242.496 421.332 242.88 421.086 243.228 420.75L243.822 422.028C243.45 422.388 242.982 422.67 242.418 422.874C241.866 423.066 241.308 423.162 240.744 423.162ZM249.294 423.162C248.31 423.162 247.566 422.898 247.062 422.37C246.558 421.83 246.306 421.026 246.306 419.958V415.332H244.542V413.928H246.306V411.534L248.124 411.048V413.928H250.644V415.332H248.124V419.796C248.124 420.468 248.244 420.948 248.484 421.236C248.724 421.524 249.072 421.668 249.528 421.668C249.756 421.668 249.954 421.65 250.122 421.614C250.302 421.566 250.464 421.512 250.608 421.452V422.928C250.428 423 250.218 423.054 249.978 423.09C249.738 423.138 249.51 423.162 249.294 423.162ZM256.411 423.162C254.947 423.162 253.795 422.748 252.955 421.92C252.115 421.092 251.695 419.946 251.695 418.482C251.695 417.534 251.875 416.706 252.235 415.998C252.607 415.29 253.117 414.744 253.765 414.36C254.425 413.964 255.187 413.766 256.051 413.766C256.903 413.766 257.617 413.946 258.193 414.306C258.769 414.666 259.207 415.176 259.507 415.836C259.807 416.484 259.957 417.252 259.957 418.14V418.716H253.117V417.672H258.715L258.409 417.906C258.409 417.006 258.205 416.31 257.797 415.818C257.401 415.314 256.825 415.062 256.069 415.062C255.229 415.062 254.581 415.356 254.125 415.944C253.669 416.52 253.441 417.318 253.441 418.338V418.518C253.441 419.586 253.699 420.39 254.215 420.93C254.743 421.47 255.487 421.74 256.447 421.74C256.975 421.74 257.467 421.668 257.923 421.524C258.391 421.368 258.835 421.116 259.255 420.768L259.849 422.01C259.429 422.382 258.919 422.67 258.319 422.874C257.719 423.066 257.083 423.162 256.411 423.162ZM265.517 423.162C264.725 423.162 264.023 422.976 263.411 422.604C262.811 422.232 262.343 421.692 262.007 420.984C261.683 420.276 261.521 419.436 261.521 418.464C261.521 417.48 261.683 416.64 262.007 415.944C262.343 415.248 262.811 414.714 263.411 414.342C264.023 413.958 264.725 413.766 265.517 413.766C266.297 413.766 266.981 413.964 267.569 414.36C268.169 414.744 268.565 415.272 268.757 415.944H268.541V409.752H270.359V423H268.559V420.948H268.775C268.571 421.632 268.175 422.172 267.587 422.568C266.999 422.964 266.309 423.162 265.517 423.162ZM265.967 421.74C266.747 421.74 267.377 421.464 267.857 420.912C268.337 420.36 268.577 419.544 268.577 418.464C268.577 417.384 268.337 416.574 267.857 416.034C267.377 415.482 266.747 415.206 265.967 415.206C265.175 415.206 264.539 415.482 264.059 416.034C263.591 416.574 263.357 417.384 263.357 418.464C263.357 419.544 263.591 420.36 264.059 420.912C264.539 421.464 265.175 421.74 265.967 421.74ZM273.66 425.214L272.868 424.602C273.216 424.23 273.45 423.888 273.57 423.576C273.702 423.264 273.768 422.94 273.768 422.604L274.164 423H272.742V420.858H274.884V422.316C274.884 422.856 274.794 423.354 274.614 423.81C274.434 424.278 274.116 424.746 273.66 425.214ZM74.013 446.162C73.113 446.162 72.333 445.976 71.673 445.604C71.013 445.22 70.503 444.68 70.143 443.984C69.783 443.276 69.603 442.436 69.603 441.464C69.603 440.492 69.783 439.658 70.143 438.962C70.503 438.254 71.013 437.714 71.673 437.342C72.333 436.958 73.113 436.766 74.013 436.766C74.913 436.766 75.693 436.958 76.353 437.342C77.025 437.714 77.541 438.254 77.901 438.962C78.273 439.658 78.459 440.492 78.459 441.464C78.459 442.436 78.273 443.276 77.901 443.984C77.541 444.68 77.025 445.22 76.353 445.604C75.693 445.976 74.913 446.162 74.013 446.162ZM74.013 444.74C74.805 444.74 75.435 444.464 75.903 443.912C76.371 443.36 76.605 442.544 76.605 441.464C76.605 440.384 76.371 439.574 75.903 439.034C75.435 438.482 74.805 438.206 74.013 438.206C73.233 438.206 72.609 438.482 72.141 439.034C71.673 439.574 71.439 440.384 71.439 441.464C71.439 442.544 71.667 443.36 72.123 443.912C72.591 444.464 73.221 444.74 74.013 444.74ZM83.806 446.162C82.714 446.162 81.892 445.868 81.34 445.28C80.8 444.68 80.53 443.762 80.53 442.526V436.928H82.348V442.49C82.348 443.246 82.504 443.804 82.816 444.164C83.128 444.524 83.602 444.704 84.238 444.704C84.958 444.704 85.54 444.464 85.984 443.984C86.428 443.504 86.65 442.868 86.65 442.076V436.928H88.468V446H86.704V444.056H86.938C86.686 444.728 86.284 445.25 85.732 445.622C85.18 445.982 84.538 446.162 83.806 446.162ZM94.6588 446.162C93.6748 446.162 92.9308 445.898 92.4268 445.37C91.9228 444.83 91.6708 444.026 91.6708 442.958V438.332H89.9068V436.928H91.6708V434.534L93.4888 434.048V436.928H96.0088V438.332H93.4888V442.796C93.4888 443.468 93.6088 443.948 93.8488 444.236C94.0888 444.524 94.4368 444.668 94.8928 444.668C95.1208 444.668 95.3188 444.65 95.4868 444.614C95.6668 444.566 95.8288 444.512 95.9728 444.452V445.928C95.7928 446 95.5828 446.054 95.3428 446.09C95.1028 446.138 94.8748 446.162 94.6588 446.162ZM97.6699 446V432.752H99.4879V446H97.6699ZM102.152 446V436.928H103.97V446H102.152ZM102.008 435.038V433.148H104.114V435.038H102.008ZM106.635 446V439.106C106.635 438.758 106.617 438.404 106.581 438.044C106.557 437.672 106.527 437.3 106.491 436.928H108.255L108.417 438.836H108.201C108.477 438.164 108.903 437.654 109.479 437.306C110.055 436.946 110.721 436.766 111.477 436.766C112.545 436.766 113.349 437.06 113.889 437.648C114.441 438.236 114.717 439.148 114.717 440.384V446H112.899V440.492C112.899 439.688 112.737 439.112 112.413 438.764C112.101 438.404 111.621 438.224 110.973 438.224C110.205 438.224 109.593 438.464 109.137 438.944C108.681 439.412 108.453 440.048 108.453 440.852V446H106.635ZM121.499 446.162C120.035 446.162 118.883 445.748 118.043 444.92C117.203 444.092 116.783 442.946 116.783 441.482C116.783 440.534 116.963 439.706 117.323 438.998C117.695 438.29 118.205 437.744 118.853 437.36C119.513 436.964 120.275 436.766 121.139 436.766C121.991 436.766 122.705 436.946 123.281 437.306C123.857 437.666 124.295 438.176 124.595 438.836C124.895 439.484 125.045 440.252 125.045 441.14V441.716H118.205V440.672H123.803L123.497 440.906C123.497 440.006 123.293 439.31 122.885 438.818C122.489 438.314 121.913 438.062 121.157 438.062C120.317 438.062 119.669 438.356 119.213 438.944C118.757 439.52 118.529 440.318 118.529 441.338V441.518C118.529 442.586 118.787 443.39 119.303 443.93C119.831 444.47 120.575 444.74 121.535 444.74C122.063 444.74 122.555 444.668 123.011 444.524C123.479 444.368 123.923 444.116 124.343 443.768L124.937 445.01C124.517 445.382 124.007 445.67 123.407 445.874C122.807 446.066 122.171 446.162 121.499 446.162ZM136.124 446.162C134.66 446.162 133.508 445.748 132.668 444.92C131.828 444.092 131.408 442.946 131.408 441.482C131.408 440.534 131.588 439.706 131.948 438.998C132.32 438.29 132.83 437.744 133.478 437.36C134.138 436.964 134.9 436.766 135.764 436.766C136.616 436.766 137.33 436.946 137.906 437.306C138.482 437.666 138.92 438.176 139.22 438.836C139.52 439.484 139.67 440.252 139.67 441.14V441.716H132.83V440.672H138.428L138.122 440.906C138.122 440.006 137.918 439.31 137.51 438.818C137.114 438.314 136.538 438.062 135.782 438.062C134.942 438.062 134.294 438.356 133.838 438.944C133.382 439.52 133.154 440.318 133.154 441.338V441.518C133.154 442.586 133.412 443.39 133.928 443.93C134.456 444.47 135.2 444.74 136.16 444.74C136.688 444.74 137.18 444.668 137.636 444.524C138.104 444.368 138.548 444.116 138.968 443.768L139.562 445.01C139.142 445.382 138.632 445.67 138.032 445.874C137.432 446.066 136.796 446.162 136.124 446.162ZM141.756 446V439.106C141.756 438.758 141.738 438.404 141.702 438.044C141.678 437.672 141.648 437.3 141.612 436.928H143.376L143.538 438.836H143.322C143.598 438.164 144.024 437.654 144.6 437.306C145.176 436.946 145.842 436.766 146.598 436.766C147.666 436.766 148.47 437.06 149.01 437.648C149.562 438.236 149.838 439.148 149.838 440.384V446H148.02V440.492C148.02 439.688 147.858 439.112 147.534 438.764C147.222 438.404 146.742 438.224 146.094 438.224C145.326 438.224 144.714 438.464 144.258 438.944C143.802 439.412 143.574 440.048 143.574 440.852V446H141.756ZM156.404 446.162C155.492 446.162 154.694 445.976 154.01 445.604C153.338 445.22 152.816 444.674 152.444 443.966C152.084 443.246 151.904 442.394 151.904 441.41C151.904 440.438 152.09 439.604 152.462 438.908C152.834 438.212 153.356 437.684 154.028 437.324C154.7 436.952 155.492 436.766 156.404 436.766C156.992 436.766 157.562 436.868 158.114 437.072C158.666 437.264 159.122 437.54 159.482 437.9L158.888 439.178C158.552 438.854 158.174 438.614 157.754 438.458C157.334 438.29 156.926 438.206 156.53 438.206C155.666 438.206 154.988 438.482 154.496 439.034C154.004 439.586 153.758 440.384 153.758 441.428C153.758 442.484 154.004 443.294 154.496 443.858C154.988 444.422 155.666 444.704 156.53 444.704C156.914 444.704 157.316 444.632 157.736 444.488C158.156 444.332 158.54 444.086 158.888 443.75L159.482 445.028C159.11 445.388 158.642 445.67 158.078 445.874C157.526 446.066 156.968 446.162 156.404 446.162ZM161.408 446V432.752H163.226V446H161.408ZM169.779 446.162C168.879 446.162 168.099 445.976 167.439 445.604C166.779 445.22 166.269 444.68 165.909 443.984C165.549 443.276 165.369 442.436 165.369 441.464C165.369 440.492 165.549 439.658 165.909 438.962C166.269 438.254 166.779 437.714 167.439 437.342C168.099 436.958 168.879 436.766 169.779 436.766C170.679 436.766 171.459 436.958 172.119 437.342C172.791 437.714 173.307 438.254 173.667 438.962C174.039 439.658 174.225 440.492 174.225 441.464C174.225 442.436 174.039 443.276 173.667 443.984C173.307 444.68 172.791 445.22 172.119 445.604C171.459 445.976 170.679 446.162 169.779 446.162ZM169.779 444.74C170.571 444.74 171.201 444.464 171.669 443.912C172.137 443.36 172.371 442.544 172.371 441.464C172.371 440.384 172.137 439.574 171.669 439.034C171.201 438.482 170.571 438.206 169.779 438.206C168.999 438.206 168.375 438.482 167.907 439.034C167.439 439.574 167.205 440.384 167.205 441.464C167.205 442.544 167.433 443.36 167.889 443.912C168.357 444.464 168.987 444.74 169.779 444.74ZM179.464 446.162C178.708 446.162 178.012 446.066 177.376 445.874C176.74 445.682 176.212 445.412 175.792 445.064L176.35 443.822C176.794 444.158 177.286 444.41 177.826 444.578C178.366 444.746 178.918 444.83 179.482 444.83C180.142 444.83 180.64 444.716 180.976 444.488C181.312 444.248 181.48 443.924 181.48 443.516C181.48 443.204 181.372 442.952 181.156 442.76C180.952 442.568 180.61 442.424 180.13 442.328L178.402 441.986C177.634 441.818 177.052 441.53 176.656 441.122C176.26 440.714 176.062 440.192 176.062 439.556C176.062 439.016 176.206 438.536 176.494 438.116C176.794 437.696 177.214 437.366 177.754 437.126C178.306 436.886 178.948 436.766 179.68 436.766C180.352 436.766 180.976 436.862 181.552 437.054C182.128 437.246 182.608 437.522 182.992 437.882L182.416 439.088C182.044 438.776 181.624 438.536 181.156 438.368C180.688 438.188 180.214 438.098 179.734 438.098C179.062 438.098 178.564 438.224 178.24 438.476C177.916 438.728 177.754 439.058 177.754 439.466C177.754 439.778 177.85 440.036 178.042 440.24C178.246 440.432 178.564 440.582 178.996 440.69L180.724 441.032C181.54 441.2 182.152 441.476 182.56 441.86C182.968 442.244 183.172 442.76 183.172 443.408C183.172 443.972 183.016 444.464 182.704 444.884C182.392 445.304 181.96 445.622 181.408 445.838C180.856 446.054 180.208 446.162 179.464 446.162ZM185.314 446V436.928H187.132V446H185.314ZM185.17 435.038V433.148H187.276V435.038H185.17ZM189.797 446V439.106C189.797 438.758 189.779 438.404 189.743 438.044C189.719 437.672 189.689 437.3 189.653 436.928H191.417L191.579 438.836H191.363C191.639 438.164 192.065 437.654 192.641 437.306C193.217 436.946 193.883 436.766 194.639 436.766C195.707 436.766 196.511 437.06 197.051 437.648C197.603 438.236 197.879 439.148 197.879 440.384V446H196.061V440.492C196.061 439.688 195.899 439.112 195.575 438.764C195.263 438.404 194.783 438.224 194.135 438.224C193.367 438.224 192.755 438.464 192.299 438.944C191.843 439.412 191.615 440.048 191.615 440.852V446H189.797ZM204.553 450.032C203.737 450.032 202.993 449.936 202.321 449.744C201.661 449.552 201.067 449.264 200.539 448.88L200.989 447.548C201.361 447.8 201.727 447.998 202.087 448.142C202.447 448.298 202.825 448.412 203.221 448.484C203.617 448.556 204.025 448.592 204.445 448.592C205.309 448.592 205.957 448.37 206.389 447.926C206.833 447.494 207.055 446.864 207.055 446.036V443.606H207.235C207.043 444.278 206.647 444.812 206.047 445.208C205.459 445.592 204.775 445.784 203.995 445.784C203.167 445.784 202.447 445.604 201.835 445.244C201.235 444.872 200.767 444.35 200.431 443.678C200.107 442.994 199.945 442.19 199.945 441.266C199.945 440.342 200.107 439.544 200.431 438.872C200.767 438.2 201.235 437.684 201.835 437.324C202.447 436.952 203.167 436.766 203.995 436.766C204.787 436.766 205.471 436.964 206.047 437.36C206.635 437.744 207.025 438.272 207.217 438.944L207.055 438.8L207.217 436.928H208.981C208.933 437.3 208.897 437.672 208.873 438.044C208.849 438.404 208.837 438.758 208.837 439.106V445.82C208.837 447.188 208.471 448.232 207.739 448.952C207.019 449.672 205.957 450.032 204.553 450.032ZM204.427 444.362C205.219 444.362 205.849 444.092 206.317 443.552C206.797 443.012 207.037 442.25 207.037 441.266C207.037 440.282 206.797 439.526 206.317 438.998C205.849 438.47 205.219 438.206 204.427 438.206C203.611 438.206 202.963 438.47 202.483 438.998C202.015 439.526 201.781 440.282 201.781 441.266C201.781 442.25 202.015 443.012 202.483 443.552C202.963 444.092 203.611 444.362 204.427 444.362ZM219.815 446.162C218.831 446.162 218.087 445.898 217.583 445.37C217.079 444.83 216.827 444.026 216.827 442.958V438.332H215.063V436.928H216.827V434.534L218.645 434.048V436.928H221.165V438.332H218.645V442.796C218.645 443.468 218.765 443.948 219.005 444.236C219.245 444.524 219.593 444.668 220.049 444.668C220.277 444.668 220.475 444.65 220.643 444.614C220.823 444.566 220.985 444.512 221.129 444.452V445.928C220.949 446 220.739 446.054 220.499 446.09C220.259 446.138 220.031 446.162 219.815 446.162ZM222.826 446V432.752H224.644V438.854H224.392C224.656 438.17 225.082 437.654 225.67 437.306C226.258 436.946 226.936 436.766 227.704 436.766C228.784 436.766 229.588 437.066 230.116 437.666C230.644 438.254 230.908 439.148 230.908 440.348V446H229.09V440.456C229.09 439.676 228.934 439.112 228.622 438.764C228.322 438.404 227.842 438.224 227.182 438.224C226.414 438.224 225.796 438.464 225.328 438.944C224.872 439.412 224.644 440.036 224.644 440.816V446H222.826ZM237.69 446.162C236.226 446.162 235.074 445.748 234.234 444.92C233.394 444.092 232.974 442.946 232.974 441.482C232.974 440.534 233.154 439.706 233.514 438.998C233.886 438.29 234.396 437.744 235.044 437.36C235.704 436.964 236.466 436.766 237.33 436.766C238.182 436.766 238.896 436.946 239.472 437.306C240.048 437.666 240.486 438.176 240.786 438.836C241.086 439.484 241.236 440.252 241.236 441.14V441.716H234.396V440.672H239.994L239.688 440.906C239.688 440.006 239.484 439.31 239.076 438.818C238.68 438.314 238.104 438.062 237.348 438.062C236.508 438.062 235.86 438.356 235.404 438.944C234.948 439.52 234.72 440.318 234.72 441.338V441.518C234.72 442.586 234.978 443.39 235.494 443.93C236.022 444.47 236.766 444.74 237.726 444.74C238.254 444.74 238.746 444.668 239.202 444.524C239.67 444.368 240.114 444.116 240.534 443.768L241.128 445.01C240.708 445.382 240.198 445.67 239.598 445.874C238.998 446.066 238.362 446.162 237.69 446.162ZM248.121 446V436.928H249.939V446H248.121ZM247.977 435.038V433.148H250.083V435.038H247.977ZM256.581 446.162C255.669 446.162 254.871 445.976 254.187 445.604C253.515 445.22 252.993 444.674 252.621 443.966C252.261 443.246 252.081 442.394 252.081 441.41C252.081 440.438 252.267 439.604 252.639 438.908C253.011 438.212 253.533 437.684 254.205 437.324C254.877 436.952 255.669 436.766 256.581 436.766C257.169 436.766 257.739 436.868 258.291 437.072C258.843 437.264 259.299 437.54 259.659 437.9L259.065 439.178C258.729 438.854 258.351 438.614 257.931 438.458C257.511 438.29 257.103 438.206 256.707 438.206C255.843 438.206 255.165 438.482 254.673 439.034C254.181 439.586 253.935 440.384 253.935 441.428C253.935 442.484 254.181 443.294 254.673 443.858C255.165 444.422 255.843 444.704 256.707 444.704C257.091 444.704 257.493 444.632 257.913 444.488C258.333 444.332 258.717 444.086 259.065 443.75L259.659 445.028C259.287 445.388 258.819 445.67 258.255 445.874C257.703 446.066 257.145 446.162 256.581 446.162ZM265.298 446.162C264.398 446.162 263.618 445.976 262.958 445.604C262.298 445.22 261.788 444.68 261.428 443.984C261.068 443.276 260.888 442.436 260.888 441.464C260.888 440.492 261.068 439.658 261.428 438.962C261.788 438.254 262.298 437.714 262.958 437.342C263.618 436.958 264.398 436.766 265.298 436.766C266.198 436.766 266.978 436.958 267.638 437.342C268.31 437.714 268.826 438.254 269.186 438.962C269.558 439.658 269.744 440.492 269.744 441.464C269.744 442.436 269.558 443.276 269.186 443.984C268.826 444.68 268.31 445.22 267.638 445.604C266.978 445.976 266.198 446.162 265.298 446.162ZM265.298 444.74C266.09 444.74 266.72 444.464 267.188 443.912C267.656 443.36 267.89 442.544 267.89 441.464C267.89 440.384 267.656 439.574 267.188 439.034C266.72 438.482 266.09 438.206 265.298 438.206C264.518 438.206 263.894 438.482 263.426 439.034C262.958 439.574 262.724 440.384 262.724 441.464C262.724 442.544 262.952 443.36 263.408 443.912C263.876 444.464 264.506 444.74 265.298 444.74ZM271.869 446V439.106C271.869 438.758 271.851 438.404 271.815 438.044C271.791 437.672 271.761 437.3 271.725 436.928H273.489L273.651 438.836H273.435C273.711 438.164 274.137 437.654 274.713 437.306C275.289 436.946 275.955 436.766 276.711 436.766C277.779 436.766 278.583 437.06 279.123 437.648C279.675 438.236 279.951 439.148 279.951 440.384V446H278.133V440.492C278.133 439.688 277.971 439.112 277.647 438.764C277.335 438.404 276.855 438.224 276.207 438.224C275.439 438.224 274.827 438.464 274.371 438.944C273.915 439.412 273.687 440.048 273.687 440.852V446H271.869Z" fill="white"/>
<path d="M441.902 135V118.08H444.398V132.864H452.702V135H441.902ZM454.928 135V122.904H457.352V135H454.928ZM454.736 120.384V117.864H457.544V120.384H454.736ZM466.353 140.376C465.265 140.376 464.273 140.248 463.377 139.992C462.497 139.736 461.705 139.352 461.001 138.84L461.601 137.064C462.097 137.4 462.585 137.664 463.065 137.856C463.545 138.064 464.049 138.216 464.577 138.312C465.105 138.408 465.649 138.456 466.209 138.456C467.361 138.456 468.225 138.16 468.801 137.568C469.393 136.992 469.689 136.152 469.689 135.048V131.808H469.929C469.673 132.704 469.145 133.416 468.345 133.944C467.561 134.456 466.649 134.712 465.609 134.712C464.505 134.712 463.545 134.472 462.729 133.992C461.929 133.496 461.305 132.8 460.857 131.904C460.425 130.992 460.209 129.92 460.209 128.688C460.209 127.456 460.425 126.392 460.857 125.496C461.305 124.6 461.929 123.912 462.729 123.432C463.545 122.936 464.505 122.688 465.609 122.688C466.665 122.688 467.577 122.952 468.345 123.48C469.129 123.992 469.649 124.696 469.905 125.592L469.689 125.4L469.905 122.904H472.257C472.193 123.4 472.145 123.896 472.113 124.392C472.081 124.872 472.065 125.344 472.065 125.808V134.76C472.065 136.584 471.577 137.976 470.601 138.936C469.641 139.896 468.225 140.376 466.353 140.376ZM466.185 132.816C467.241 132.816 468.081 132.456 468.705 131.736C469.345 131.016 469.665 130 469.665 128.688C469.665 127.376 469.345 126.368 468.705 125.664C468.081 124.96 467.241 124.608 466.185 124.608C465.097 124.608 464.233 124.96 463.593 125.664C462.969 126.368 462.657 127.376 462.657 128.688C462.657 130 462.969 131.016 463.593 131.736C464.233 132.456 465.097 132.816 466.185 132.816ZM475.6 135V117.336H478.024V125.472H477.688C478.04 124.56 478.608 123.872 479.392 123.408C480.176 122.928 481.08 122.688 482.104 122.688C483.544 122.688 484.616 123.088 485.32 123.888C486.024 124.672 486.376 125.864 486.376 127.464V135H483.952V127.608C483.952 126.568 483.744 125.816 483.328 125.352C482.928 124.872 482.288 124.632 481.408 124.632C480.384 124.632 479.56 124.952 478.936 125.592C478.328 126.216 478.024 127.048 478.024 128.088V135H475.6ZM494.531 135.216C493.219 135.216 492.227 134.864 491.555 134.16C490.883 133.44 490.547 132.368 490.547 130.944V124.776H488.195V122.904H490.547V119.712L492.971 119.064V122.904H496.331V124.776H492.971V130.728C492.971 131.624 493.131 132.264 493.451 132.648C493.771 133.032 494.235 133.224 494.843 133.224C495.147 133.224 495.411 133.2 495.635 133.152C495.875 133.088 496.091 133.016 496.283 132.936V134.904C496.043 135 495.763 135.072 495.443 135.12C495.123 135.184 494.819 135.216 494.531 135.216ZM512.024 135.216C509.672 135.216 507.92 134.624 506.768 133.44C505.632 132.256 505.064 130.504 505.064 128.184V118.08H507.56V128.136C507.56 129.768 507.912 131 508.616 131.832C509.336 132.648 510.472 133.056 512.024 133.056C513.496 133.056 514.608 132.648 515.36 131.832C516.112 131 516.488 129.768 516.488 128.136V118.08H518.936V128.184C518.936 130.504 518.352 132.256 517.184 133.44C516.016 134.624 514.296 135.216 512.024 135.216ZM522.808 135V118.08H525.304V135H522.808ZM539.732 135V120.168H533.948V118.08H548.012V120.168H542.228V135H539.732ZM550.131 135V117.336H552.555V125.472H552.219C552.571 124.56 553.139 123.872 553.923 123.408C554.707 122.928 555.611 122.688 556.635 122.688C558.075 122.688 559.147 123.088 559.851 123.888C560.555 124.672 560.907 125.864 560.907 127.464V135H558.483V127.608C558.483 126.568 558.275 125.816 557.859 125.352C557.459 124.872 556.819 124.632 555.939 124.632C554.915 124.632 554.091 124.952 553.467 125.592C552.859 126.216 552.555 127.048 552.555 128.088V135H550.131ZM569.95 135.216C567.998 135.216 566.462 134.664 565.342 133.56C564.222 132.456 563.662 130.928 563.662 128.976C563.662 127.712 563.902 126.608 564.382 125.664C564.878 124.72 565.558 123.992 566.422 123.48C567.302 122.952 568.318 122.688 569.47 122.688C570.606 122.688 571.558 122.928 572.326 123.408C573.094 123.888 573.678 124.568 574.078 125.448C574.478 126.312 574.678 127.336 574.678 128.52V129.288H565.558V127.896H573.022L572.614 128.208C572.614 127.008 572.342 126.08 571.798 125.424C571.27 124.752 570.502 124.416 569.494 124.416C568.374 124.416 567.51 124.808 566.902 125.592C566.294 126.36 565.99 127.424 565.99 128.784V129.024C565.99 130.448 566.334 131.52 567.022 132.24C567.726 132.96 568.718 133.32 569.998 133.32C570.702 133.32 571.358 133.224 571.966 133.032C572.59 132.824 573.182 132.488 573.742 132.024L574.534 133.68C573.974 134.176 573.294 134.56 572.494 134.832C571.694 135.088 570.846 135.216 569.95 135.216ZM577.46 135V125.808C577.46 125.344 577.436 124.872 577.388 124.392C577.356 123.896 577.316 123.4 577.268 122.904H579.62L579.836 125.448H579.548C579.884 124.568 580.396 123.888 581.084 123.408C581.788 122.928 582.628 122.688 583.604 122.688C584.596 122.688 585.404 122.928 586.028 123.408C586.668 123.872 587.108 124.592 587.348 125.568H586.964C587.284 124.688 587.828 123.992 588.596 123.48C589.364 122.952 590.252 122.688 591.26 122.688C592.604 122.688 593.612 123.08 594.284 123.864C594.956 124.648 595.292 125.864 595.292 127.512V135H592.868V127.632C592.868 126.576 592.684 125.816 592.316 125.352C591.964 124.872 591.388 124.632 590.588 124.632C589.66 124.632 588.924 124.952 588.38 125.592C587.836 126.232 587.564 127.096 587.564 128.184V135H585.14V127.632C585.14 126.576 584.956 125.816 584.588 125.352C584.236 124.872 583.66 124.632 582.86 124.632C581.932 124.632 581.204 124.952 580.676 125.592C580.148 126.232 579.884 127.096 579.884 128.184V135H577.46ZM604.356 135.216C602.404 135.216 600.868 134.664 599.748 133.56C598.628 132.456 598.068 130.928 598.068 128.976C598.068 127.712 598.308 126.608 598.788 125.664C599.284 124.72 599.964 123.992 600.828 123.48C601.708 122.952 602.724 122.688 603.876 122.688C605.012 122.688 605.964 122.928 606.732 123.408C607.5 123.888 608.084 124.568 608.484 125.448C608.884 126.312 609.084 127.336 609.084 128.52V129.288H599.964V127.896H607.428L607.02 128.208C607.02 127.008 606.748 126.08 606.204 125.424C605.676 124.752 604.908 124.416 603.9 124.416C602.78 124.416 601.916 124.808 601.308 125.592C600.7 126.36 600.396 127.424 600.396 128.784V129.024C600.396 130.448 600.74 131.52 601.428 132.24C602.132 132.96 603.124 133.32 604.404 133.32C605.108 133.32 605.764 133.224 606.372 133.032C606.996 132.824 607.588 132.488 608.148 132.024L608.94 133.68C608.38 134.176 607.7 134.56 606.9 134.832C606.1 135.088 605.252 135.216 604.356 135.216Z" fill="#333333"/>
<path d="M445.818 416.646C445.818 415.314 446.052 414.162 446.52 413.19C446.988 412.218 447.666 411.468 448.554 410.94C449.454 410.412 450.522 410.148 451.758 410.148C452.982 410.148 454.038 410.412 454.926 410.94C455.814 411.468 456.498 412.218 456.978 413.19C457.47 414.162 457.716 415.308 457.716 416.628C457.716 417.96 457.47 419.118 456.978 420.102C456.498 421.074 455.808 421.83 454.908 422.37C454.02 422.898 452.97 423.162 451.758 423.162C450.522 423.162 449.46 422.898 448.572 422.37C447.684 421.83 447 421.074 446.52 420.102C446.052 419.118 445.818 417.966 445.818 416.646ZM447.78 416.646C447.78 418.182 448.116 419.382 448.788 420.246C449.46 421.11 450.45 421.542 451.758 421.542C453.03 421.542 454.014 421.116 454.71 420.264C455.406 419.4 455.754 418.194 455.754 416.646C455.754 415.098 455.406 413.898 454.71 413.046C454.026 412.194 453.042 411.768 451.758 411.768C450.45 411.768 449.46 412.194 448.788 413.046C448.116 413.898 447.78 415.098 447.78 416.646ZM463.337 423.162C462.245 423.162 461.423 422.868 460.871 422.28C460.331 421.68 460.061 420.762 460.061 419.526V413.928H461.879V419.49C461.879 420.246 462.035 420.804 462.347 421.164C462.659 421.524 463.133 421.704 463.769 421.704C464.489 421.704 465.071 421.464 465.515 420.984C465.959 420.504 466.181 419.868 466.181 419.076V413.928H467.999V423H466.235V421.056H466.469C466.217 421.728 465.815 422.25 465.263 422.622C464.711 422.982 464.069 423.162 463.337 423.162ZM474.19 423.162C473.206 423.162 472.462 422.898 471.958 422.37C471.454 421.83 471.202 421.026 471.202 419.958V415.332H469.438V413.928H471.202V411.534L473.02 411.048V413.928H475.54V415.332H473.02V419.796C473.02 420.468 473.14 420.948 473.38 421.236C473.62 421.524 473.968 421.668 474.424 421.668C474.652 421.668 474.85 421.65 475.018 421.614C475.198 421.566 475.36 421.512 475.504 421.452V422.928C475.324 423 475.114 423.054 474.874 423.09C474.634 423.138 474.406 423.162 474.19 423.162ZM477.201 423V409.752H479.019V423H477.201ZM481.684 423V413.928H483.502V423H481.684ZM481.54 412.038V410.148H483.646V412.038H481.54ZM486.166 423V416.106C486.166 415.758 486.148 415.404 486.112 415.044C486.088 414.672 486.058 414.3 486.022 413.928H487.786L487.948 415.836H487.732C488.008 415.164 488.434 414.654 489.01 414.306C489.586 413.946 490.252 413.766 491.008 413.766C492.076 413.766 492.88 414.06 493.42 414.648C493.972 415.236 494.248 416.148 494.248 417.384V423H492.43V417.492C492.43 416.688 492.268 416.112 491.944 415.764C491.632 415.404 491.152 415.224 490.504 415.224C489.736 415.224 489.124 415.464 488.668 415.944C488.212 416.412 487.984 417.048 487.984 417.852V423H486.166ZM501.03 423.162C499.566 423.162 498.414 422.748 497.574 421.92C496.734 421.092 496.314 419.946 496.314 418.482C496.314 417.534 496.494 416.706 496.854 415.998C497.226 415.29 497.736 414.744 498.384 414.36C499.044 413.964 499.806 413.766 500.67 413.766C501.522 413.766 502.236 413.946 502.812 414.306C503.388 414.666 503.826 415.176 504.126 415.836C504.426 416.484 504.576 417.252 504.576 418.14V418.716H497.736V417.672H503.334L503.028 417.906C503.028 417.006 502.824 416.31 502.416 415.818C502.02 415.314 501.444 415.062 500.688 415.062C499.848 415.062 499.2 415.356 498.744 415.944C498.288 416.52 498.06 417.318 498.06 418.338V418.518C498.06 419.586 498.318 420.39 498.834 420.93C499.362 421.47 500.106 421.74 501.066 421.74C501.594 421.74 502.086 421.668 502.542 421.524C503.01 421.368 503.454 421.116 503.874 420.768L504.468 422.01C504.048 422.382 503.538 422.67 502.938 422.874C502.338 423.066 501.702 423.162 501.03 423.162ZM514.575 423.162C513.819 423.162 513.123 423.066 512.487 422.874C511.851 422.682 511.323 422.412 510.903 422.064L511.461 420.822C511.905 421.158 512.397 421.41 512.937 421.578C513.477 421.746 514.029 421.83 514.593 421.83C515.253 421.83 515.751 421.716 516.087 421.488C516.423 421.248 516.591 420.924 516.591 420.516C516.591 420.204 516.483 419.952 516.267 419.76C516.063 419.568 515.721 419.424 515.241 419.328L513.513 418.986C512.745 418.818 512.163 418.53 511.767 418.122C511.371 417.714 511.173 417.192 511.173 416.556C511.173 416.016 511.317 415.536 511.605 415.116C511.905 414.696 512.325 414.366 512.865 414.126C513.417 413.886 514.059 413.766 514.791 413.766C515.463 413.766 516.087 413.862 516.663 414.054C517.239 414.246 517.719 414.522 518.103 414.882L517.527 416.088C517.155 415.776 516.735 415.536 516.267 415.368C515.799 415.188 515.325 415.098 514.845 415.098C514.173 415.098 513.675 415.224 513.351 415.476C513.027 415.728 512.865 416.058 512.865 416.466C512.865 416.778 512.961 417.036 513.153 417.24C513.357 417.432 513.675 417.582 514.107 417.69L515.835 418.032C516.651 418.2 517.263 418.476 517.671 418.86C518.079 419.244 518.283 419.76 518.283 420.408C518.283 420.972 518.127 421.464 517.815 421.884C517.503 422.304 517.071 422.622 516.519 422.838C515.967 423.054 515.319 423.162 514.575 423.162ZM523.648 423.162C522.556 423.162 521.734 422.868 521.182 422.28C520.642 421.68 520.372 420.762 520.372 419.526V413.928H522.19V419.49C522.19 420.246 522.346 420.804 522.658 421.164C522.97 421.524 523.444 421.704 524.08 421.704C524.8 421.704 525.382 421.464 525.826 420.984C526.27 420.504 526.492 419.868 526.492 419.076V413.928H528.31V423H526.546V421.056H526.78C526.528 421.728 526.126 422.25 525.574 422.622C525.022 422.982 524.38 423.162 523.648 423.162ZM535.815 423.162C535.023 423.162 534.333 422.964 533.745 422.568C533.157 422.172 532.767 421.632 532.575 420.948H532.773V423H530.973V409.752H532.791V415.944H532.575C532.779 415.272 533.169 414.744 533.745 414.36C534.333 413.964 535.023 413.766 535.815 413.766C536.619 413.766 537.321 413.958 537.921 414.342C538.521 414.714 538.983 415.254 539.307 415.962C539.643 416.658 539.811 417.498 539.811 418.482C539.811 419.454 539.643 420.294 539.307 421.002C538.983 421.698 538.515 422.232 537.903 422.604C537.303 422.976 536.607 423.162 535.815 423.162ZM535.365 421.74C536.145 421.74 536.775 421.47 537.255 420.93C537.735 420.378 537.975 419.562 537.975 418.482C537.975 417.39 537.735 416.574 537.255 416.034C536.775 415.482 536.145 415.206 535.365 415.206C534.573 415.206 533.937 415.482 533.457 416.034C532.989 416.574 532.755 417.384 532.755 418.464C532.755 419.544 532.989 420.36 533.457 420.912C533.937 421.464 534.573 421.74 535.365 421.74ZM545.381 423.162C544.397 423.162 543.653 422.898 543.149 422.37C542.645 421.83 542.393 421.026 542.393 419.958V415.332H540.629V413.928H542.393V411.534L544.211 411.048V413.928H546.731V415.332H544.211V419.796C544.211 420.468 544.331 420.948 544.571 421.236C544.811 421.524 545.159 421.668 545.615 421.668C545.843 421.668 546.041 421.65 546.209 421.614C546.389 421.566 546.551 421.512 546.695 421.452V422.928C546.515 423 546.305 423.054 546.065 423.09C545.825 423.138 545.597 423.162 545.381 423.162ZM548.357 423V416.178C548.357 415.806 548.345 415.434 548.321 415.062C548.309 414.678 548.285 414.3 548.249 413.928H550.013L550.211 416.268H549.923C550.043 415.704 550.247 415.236 550.535 414.864C550.823 414.492 551.171 414.216 551.579 414.036C551.999 413.856 552.437 413.766 552.893 413.766C553.085 413.766 553.247 413.778 553.379 413.802C553.511 413.814 553.643 413.838 553.775 413.874L553.757 415.494C553.553 415.41 553.373 415.362 553.217 415.35C553.073 415.326 552.893 415.314 552.677 415.314C552.149 415.314 551.699 415.434 551.327 415.674C550.955 415.902 550.673 416.214 550.481 416.61C550.289 417.006 550.193 417.432 550.193 417.888V423H548.357ZM558.564 423.162C557.76 423.162 557.058 422.976 556.458 422.604C555.858 422.232 555.39 421.692 555.054 420.984C554.73 420.276 554.568 419.436 554.568 418.464C554.568 417.48 554.73 416.64 555.054 415.944C555.39 415.248 555.858 414.714 556.458 414.342C557.058 413.958 557.76 413.766 558.564 413.766C559.356 413.766 560.046 413.964 560.634 414.36C561.222 414.756 561.612 415.296 561.804 415.98H561.606L561.786 413.928H563.55C563.514 414.3 563.478 414.672 563.442 415.044C563.418 415.404 563.406 415.758 563.406 416.106V423H561.588V420.984H561.786C561.594 421.656 561.198 422.19 560.598 422.586C560.01 422.97 559.332 423.162 558.564 423.162ZM559.014 421.74C559.794 421.74 560.418 421.464 560.886 420.912C561.366 420.36 561.606 419.544 561.606 418.464C561.606 417.384 561.366 416.574 560.886 416.034C560.418 415.482 559.794 415.206 559.014 415.206C558.222 415.206 557.586 415.482 557.106 416.034C556.638 416.574 556.404 417.384 556.404 418.464C556.404 419.544 556.638 420.36 557.106 420.912C557.574 421.464 558.21 421.74 559.014 421.74ZM570.037 423.162C569.125 423.162 568.327 422.976 567.643 422.604C566.971 422.22 566.449 421.674 566.077 420.966C565.717 420.246 565.537 419.394 565.537 418.41C565.537 417.438 565.723 416.604 566.095 415.908C566.467 415.212 566.989 414.684 567.661 414.324C568.333 413.952 569.125 413.766 570.037 413.766C570.625 413.766 571.195 413.868 571.747 414.072C572.299 414.264 572.755 414.54 573.115 414.9L572.521 416.178C572.185 415.854 571.807 415.614 571.387 415.458C570.967 415.29 570.559 415.206 570.163 415.206C569.299 415.206 568.621 415.482 568.129 416.034C567.637 416.586 567.391 417.384 567.391 418.428C567.391 419.484 567.637 420.294 568.129 420.858C568.621 421.422 569.299 421.704 570.163 421.704C570.547 421.704 570.949 421.632 571.369 421.488C571.789 421.332 572.173 421.086 572.521 420.75L573.115 422.028C572.743 422.388 572.275 422.67 571.711 422.874C571.159 423.066 570.601 423.162 570.037 423.162ZM578.587 423.162C577.603 423.162 576.859 422.898 576.355 422.37C575.851 421.83 575.599 421.026 575.599 419.958V415.332H573.835V413.928H575.599V411.534L577.417 411.048V413.928H579.937V415.332H577.417V419.796C577.417 420.468 577.537 420.948 577.777 421.236C578.017 421.524 578.365 421.668 578.821 421.668C579.049 421.668 579.247 421.65 579.415 421.614C579.595 421.566 579.757 421.512 579.901 421.452V422.928C579.721 423 579.511 423.054 579.271 423.09C579.031 423.138 578.803 423.162 578.587 423.162ZM585.704 423.162C584.24 423.162 583.088 422.748 582.248 421.92C581.408 421.092 580.988 419.946 580.988 418.482C580.988 417.534 581.168 416.706 581.528 415.998C581.9 415.29 582.41 414.744 583.058 414.36C583.718 413.964 584.48 413.766 585.344 413.766C586.196 413.766 586.91 413.946 587.486 414.306C588.062 414.666 588.5 415.176 588.8 415.836C589.1 416.484 589.25 417.252 589.25 418.14V418.716H582.41V417.672H588.008L587.702 417.906C587.702 417.006 587.498 416.31 587.09 415.818C586.694 415.314 586.118 415.062 585.362 415.062C584.522 415.062 583.874 415.356 583.418 415.944C582.962 416.52 582.734 417.318 582.734 418.338V418.518C582.734 419.586 582.992 420.39 583.508 420.93C584.036 421.47 584.78 421.74 585.74 421.74C586.268 421.74 586.76 421.668 587.216 421.524C587.684 421.368 588.128 421.116 588.548 420.768L589.142 422.01C588.722 422.382 588.212 422.67 587.612 422.874C587.012 423.066 586.376 423.162 585.704 423.162ZM594.81 423.162C594.018 423.162 593.316 422.976 592.704 422.604C592.104 422.232 591.636 421.692 591.3 420.984C590.976 420.276 590.814 419.436 590.814 418.464C590.814 417.48 590.976 416.64 591.3 415.944C591.636 415.248 592.104 414.714 592.704 414.342C593.316 413.958 594.018 413.766 594.81 413.766C595.59 413.766 596.274 413.964 596.862 414.36C597.462 414.744 597.858 415.272 598.05 415.944H597.834V409.752H599.652V423H597.852V420.948H598.068C597.864 421.632 597.468 422.172 596.88 422.568C596.292 422.964 595.602 423.162 594.81 423.162ZM595.26 421.74C596.04 421.74 596.67 421.464 597.15 420.912C597.63 420.36 597.87 419.544 597.87 418.464C597.87 417.384 597.63 416.574 597.15 416.034C596.67 415.482 596.04 415.206 595.26 415.206C594.468 415.206 593.832 415.482 593.352 416.034C592.884 416.574 592.65 417.384 592.65 418.464C592.65 419.544 592.884 420.36 593.352 420.912C593.832 421.464 594.468 421.74 595.26 421.74ZM602.953 425.214L602.161 424.602C602.509 424.23 602.743 423.888 602.863 423.576C602.995 423.264 603.061 422.94 603.061 422.604L603.457 423H602.035V420.858H604.177V422.316C604.177 422.856 604.087 423.354 603.907 423.81C603.727 424.278 603.409 424.746 602.953 425.214ZM434.09 446.162C433.298 446.162 432.608 445.964 432.02 445.568C431.432 445.172 431.042 444.632 430.85 443.948H431.048V446H429.248V432.752H431.066V438.944H430.85C431.054 438.272 431.444 437.744 432.02 437.36C432.608 436.964 433.298 436.766 434.09 436.766C434.894 436.766 435.596 436.958 436.196 437.342C436.796 437.714 437.258 438.254 437.582 438.962C437.918 439.658 438.086 440.498 438.086 441.482C438.086 442.454 437.918 443.294 437.582 444.002C437.258 444.698 436.79 445.232 436.178 445.604C435.578 445.976 434.882 446.162 434.09 446.162ZM433.64 444.74C434.42 444.74 435.05 444.47 435.53 443.93C436.01 443.378 436.25 442.562 436.25 441.482C436.25 440.39 436.01 439.574 435.53 439.034C435.05 438.482 434.42 438.206 433.64 438.206C432.848 438.206 432.212 438.482 431.732 439.034C431.264 439.574 431.03 440.384 431.03 441.464C431.03 442.544 431.264 443.36 431.732 443.912C432.212 444.464 432.848 444.74 433.64 444.74ZM443.691 446.162C442.887 446.162 442.185 445.976 441.585 445.604C440.985 445.232 440.517 444.692 440.181 443.984C439.857 443.276 439.695 442.436 439.695 441.464C439.695 440.48 439.857 439.64 440.181 438.944C440.517 438.248 440.985 437.714 441.585 437.342C442.185 436.958 442.887 436.766 443.691 436.766C444.483 436.766 445.173 436.964 445.761 437.36C446.349 437.756 446.739 438.296 446.931 438.98H446.733L446.913 436.928H448.677C448.641 437.3 448.605 437.672 448.569 438.044C448.545 438.404 448.533 438.758 448.533 439.106V446H446.715V443.984H446.913C446.721 444.656 446.325 445.19 445.725 445.586C445.137 445.97 444.459 446.162 443.691 446.162ZM444.141 444.74C444.921 444.74 445.545 444.464 446.013 443.912C446.493 443.36 446.733 442.544 446.733 441.464C446.733 440.384 446.493 439.574 446.013 439.034C445.545 438.482 444.921 438.206 444.141 438.206C443.349 438.206 442.713 438.482 442.233 439.034C441.765 439.574 441.531 440.384 441.531 441.464C441.531 442.544 441.765 443.36 442.233 443.912C442.701 444.464 443.337 444.74 444.141 444.74ZM455.164 446.162C454.252 446.162 453.454 445.976 452.77 445.604C452.098 445.22 451.576 444.674 451.204 443.966C450.844 443.246 450.664 442.394 450.664 441.41C450.664 440.438 450.85 439.604 451.222 438.908C451.594 438.212 452.116 437.684 452.788 437.324C453.46 436.952 454.252 436.766 455.164 436.766C455.752 436.766 456.322 436.868 456.874 437.072C457.426 437.264 457.882 437.54 458.242 437.9L457.648 439.178C457.312 438.854 456.934 438.614 456.514 438.458C456.094 438.29 455.686 438.206 455.29 438.206C454.426 438.206 453.748 438.482 453.256 439.034C452.764 439.586 452.518 440.384 452.518 441.428C452.518 442.484 452.764 443.294 453.256 443.858C453.748 444.422 454.426 444.704 455.29 444.704C455.674 444.704 456.076 444.632 456.496 444.488C456.916 444.332 457.3 444.086 457.648 443.75L458.242 445.028C457.87 445.388 457.402 445.67 456.838 445.874C456.286 446.066 455.728 446.162 455.164 446.162ZM460.168 446V432.752H461.986V440.888H462.022L465.982 436.928H468.232L463.444 441.698L463.462 440.888L468.628 446H466.324L462.022 441.842H461.986V446H460.168ZM473.641 450.032C472.825 450.032 472.081 449.936 471.409 449.744C470.749 449.552 470.155 449.264 469.627 448.88L470.077 447.548C470.449 447.8 470.815 447.998 471.175 448.142C471.535 448.298 471.913 448.412 472.309 448.484C472.705 448.556 473.113 448.592 473.533 448.592C474.397 448.592 475.045 448.37 475.477 447.926C475.921 447.494 476.143 446.864 476.143 446.036V443.606H476.323C476.131 444.278 475.735 444.812 475.135 445.208C474.547 445.592 473.863 445.784 473.083 445.784C472.255 445.784 471.535 445.604 470.923 445.244C470.323 444.872 469.855 444.35 469.519 443.678C469.195 442.994 469.033 442.19 469.033 441.266C469.033 440.342 469.195 439.544 469.519 438.872C469.855 438.2 470.323 437.684 470.923 437.324C471.535 436.952 472.255 436.766 473.083 436.766C473.875 436.766 474.559 436.964 475.135 437.36C475.723 437.744 476.113 438.272 476.305 438.944L476.143 438.8L476.305 436.928H478.069C478.021 437.3 477.985 437.672 477.961 438.044C477.937 438.404 477.925 438.758 477.925 439.106V445.82C477.925 447.188 477.559 448.232 476.827 448.952C476.107 449.672 475.045 450.032 473.641 450.032ZM473.515 444.362C474.307 444.362 474.937 444.092 475.405 443.552C475.885 443.012 476.125 442.25 476.125 441.266C476.125 440.282 475.885 439.526 475.405 438.998C474.937 438.47 474.307 438.206 473.515 438.206C472.699 438.206 472.051 438.47 471.571 438.998C471.103 439.526 470.869 440.282 470.869 441.266C470.869 442.25 471.103 443.012 471.571 443.552C472.051 444.092 472.699 444.362 473.515 444.362ZM480.54 446V439.178C480.54 438.806 480.528 438.434 480.504 438.062C480.492 437.678 480.468 437.3 480.432 436.928H482.196L482.394 439.268H482.106C482.226 438.704 482.43 438.236 482.718 437.864C483.006 437.492 483.354 437.216 483.762 437.036C484.182 436.856 484.62 436.766 485.076 436.766C485.268 436.766 485.43 436.778 485.562 436.802C485.694 436.814 485.826 436.838 485.958 436.874L485.94 438.494C485.736 438.41 485.556 438.362 485.4 438.35C485.256 438.326 485.076 438.314 484.86 438.314C484.332 438.314 483.882 438.434 483.51 438.674C483.138 438.902 482.856 439.214 482.664 439.61C482.472 440.006 482.376 440.432 482.376 440.888V446H480.54ZM491.126 446.162C490.226 446.162 489.446 445.976 488.786 445.604C488.126 445.22 487.616 444.68 487.256 443.984C486.896 443.276 486.716 442.436 486.716 441.464C486.716 440.492 486.896 439.658 487.256 438.962C487.616 438.254 488.126 437.714 488.786 437.342C489.446 436.958 490.226 436.766 491.126 436.766C492.026 436.766 492.806 436.958 493.466 437.342C494.138 437.714 494.654 438.254 495.014 438.962C495.386 439.658 495.572 440.492 495.572 441.464C495.572 442.436 495.386 443.276 495.014 443.984C494.654 444.68 494.138 445.22 493.466 445.604C492.806 445.976 492.026 446.162 491.126 446.162ZM491.126 444.74C491.918 444.74 492.548 444.464 493.016 443.912C493.484 443.36 493.718 442.544 493.718 441.464C493.718 440.384 493.484 439.574 493.016 439.034C492.548 438.482 491.918 438.206 491.126 438.206C490.346 438.206 489.722 438.482 489.254 439.034C488.786 439.574 488.552 440.384 488.552 441.464C488.552 442.544 488.78 443.36 489.236 443.912C489.704 444.464 490.334 444.74 491.126 444.74ZM500.919 446.162C499.827 446.162 499.005 445.868 498.453 445.28C497.913 444.68 497.643 443.762 497.643 442.526V436.928H499.461V442.49C499.461 443.246 499.617 443.804 499.929 444.164C500.241 444.524 500.715 444.704 501.351 444.704C502.071 444.704 502.653 444.464 503.097 443.984C503.541 443.504 503.763 442.868 503.763 442.076V436.928H505.581V446H503.817V444.056H504.051C503.799 444.728 503.397 445.25 502.845 445.622C502.293 445.982 501.651 446.162 500.919 446.162ZM508.244 446V439.106C508.244 438.758 508.226 438.404 508.19 438.044C508.166 437.672 508.136 437.3 508.1 436.928H509.864L510.026 438.836H509.81C510.086 438.164 510.512 437.654 511.088 437.306C511.664 436.946 512.33 436.766 513.086 436.766C514.154 436.766 514.958 437.06 515.498 437.648C516.05 438.236 516.326 439.148 516.326 440.384V446H514.508V440.492C514.508 439.688 514.346 439.112 514.022 438.764C513.71 438.404 513.23 438.224 512.582 438.224C511.814 438.224 511.202 438.464 510.746 438.944C510.29 439.412 510.062 440.048 510.062 440.852V446H508.244ZM522.388 446.162C521.596 446.162 520.894 445.976 520.282 445.604C519.682 445.232 519.214 444.692 518.878 443.984C518.554 443.276 518.392 442.436 518.392 441.464C518.392 440.48 518.554 439.64 518.878 438.944C519.214 438.248 519.682 437.714 520.282 437.342C520.894 436.958 521.596 436.766 522.388 436.766C523.168 436.766 523.852 436.964 524.44 437.36C525.04 437.744 525.436 438.272 525.628 438.944H525.412V432.752H527.23V446H525.43V443.948H525.646C525.442 444.632 525.046 445.172 524.458 445.568C523.87 445.964 523.18 446.162 522.388 446.162ZM522.838 444.74C523.618 444.74 524.248 444.464 524.728 443.912C525.208 443.36 525.448 442.544 525.448 441.464C525.448 440.384 525.208 439.574 524.728 439.034C524.248 438.482 523.618 438.206 522.838 438.206C522.046 438.206 521.41 438.482 520.93 439.034C520.462 439.574 520.228 440.384 520.228 441.464C520.228 442.544 520.462 443.36 520.93 443.912C521.41 444.464 522.046 444.74 522.838 444.74ZM538.66 446.162C537.748 446.162 536.95 445.976 536.266 445.604C535.594 445.22 535.072 444.674 534.7 443.966C534.34 443.246 534.16 442.394 534.16 441.41C534.16 440.438 534.346 439.604 534.718 438.908C535.09 438.212 535.612 437.684 536.284 437.324C536.956 436.952 537.748 436.766 538.66 436.766C539.248 436.766 539.818 436.868 540.37 437.072C540.922 437.264 541.378 437.54 541.738 437.9L541.144 439.178C540.808 438.854 540.43 438.614 540.01 438.458C539.59 438.29 539.182 438.206 538.786 438.206C537.922 438.206 537.244 438.482 536.752 439.034C536.26 439.586 536.014 440.384 536.014 441.428C536.014 442.484 536.26 443.294 536.752 443.858C537.244 444.422 537.922 444.704 538.786 444.704C539.17 444.704 539.572 444.632 539.992 444.488C540.412 444.332 540.796 444.086 541.144 443.75L541.738 445.028C541.366 445.388 540.898 445.67 540.334 445.874C539.782 446.066 539.224 446.162 538.66 446.162ZM543.664 446V436.928H545.482V446H543.664ZM543.52 435.038V433.148H545.626V435.038H543.52ZM548.11 446V439.178C548.11 438.806 548.098 438.434 548.074 438.062C548.062 437.678 548.038 437.3 548.002 436.928H549.766L549.964 439.268H549.676C549.796 438.704 550 438.236 550.288 437.864C550.576 437.492 550.924 437.216 551.332 437.036C551.752 436.856 552.19 436.766 552.646 436.766C552.838 436.766 553 436.778 553.132 436.802C553.264 436.814 553.396 436.838 553.528 436.874L553.51 438.494C553.306 438.41 553.126 438.362 552.97 438.35C552.826 438.326 552.646 438.314 552.43 438.314C551.902 438.314 551.452 438.434 551.08 438.674C550.708 438.902 550.426 439.214 550.234 439.61C550.042 440.006 549.946 440.432 549.946 440.888V446H548.11ZM558.787 446.162C557.875 446.162 557.077 445.976 556.393 445.604C555.721 445.22 555.199 444.674 554.827 443.966C554.467 443.246 554.287 442.394 554.287 441.41C554.287 440.438 554.473 439.604 554.845 438.908C555.217 438.212 555.739 437.684 556.411 437.324C557.083 436.952 557.875 436.766 558.787 436.766C559.375 436.766 559.945 436.868 560.497 437.072C561.049 437.264 561.505 437.54 561.865 437.9L561.271 439.178C560.935 438.854 560.557 438.614 560.137 438.458C559.717 438.29 559.309 438.206 558.913 438.206C558.049 438.206 557.371 438.482 556.879 439.034C556.387 439.586 556.141 440.384 556.141 441.428C556.141 442.484 556.387 443.294 556.879 443.858C557.371 444.422 558.049 444.704 558.913 444.704C559.297 444.704 559.699 444.632 560.119 444.488C560.539 444.332 560.923 444.086 561.271 443.75L561.865 445.028C561.493 445.388 561.025 445.67 560.461 445.874C559.909 446.066 559.351 446.162 558.787 446.162ZM563.791 446V432.752H565.609V446H563.791ZM572.467 446.162C571.003 446.162 569.851 445.748 569.011 444.92C568.171 444.092 567.751 442.946 567.751 441.482C567.751 440.534 567.931 439.706 568.291 438.998C568.663 438.29 569.173 437.744 569.821 437.36C570.481 436.964 571.243 436.766 572.107 436.766C572.959 436.766 573.673 436.946 574.249 437.306C574.825 437.666 575.263 438.176 575.563 438.836C575.863 439.484 576.013 440.252 576.013 441.14V441.716H569.173V440.672H574.771L574.465 440.906C574.465 440.006 574.261 439.31 573.853 438.818C573.457 438.314 572.881 438.062 572.125 438.062C571.285 438.062 570.637 438.356 570.181 438.944C569.725 439.52 569.497 440.318 569.497 441.338V441.518C569.497 442.586 569.755 443.39 570.271 443.93C570.799 444.47 571.543 444.74 572.503 444.74C573.031 444.74 573.523 444.668 573.979 444.524C574.447 444.368 574.891 444.116 575.311 443.768L575.905 445.01C575.485 445.382 574.975 445.67 574.375 445.874C573.775 446.066 573.139 446.162 572.467 446.162ZM583.438 446V438.332H581.674V436.928H583.942L583.438 437.396V435.956C583.438 434.888 583.702 434.078 584.23 433.526C584.77 432.962 585.55 432.68 586.57 432.68C586.81 432.68 587.068 432.698 587.344 432.734C587.62 432.77 587.854 432.83 588.046 432.914V434.39C587.902 434.33 587.722 434.282 587.506 434.246C587.29 434.198 587.08 434.174 586.876 434.174C586.348 434.174 585.94 434.33 585.652 434.642C585.376 434.942 585.238 435.416 585.238 436.064V437.288L584.968 436.928H590.998V446H589.18V438.332H585.256V446H583.438ZM589.036 435.038V433.148H591.142V435.038H589.036ZM593.656 446V432.752H595.474V446H593.656ZM598.139 446V432.752H599.957V446H598.139ZM606.815 446.162C605.351 446.162 604.199 445.748 603.359 444.92C602.519 444.092 602.099 442.946 602.099 441.482C602.099 440.534 602.279 439.706 602.639 438.998C603.011 438.29 603.521 437.744 604.169 437.36C604.829 436.964 605.591 436.766 606.455 436.766C607.307 436.766 608.021 436.946 608.597 437.306C609.173 437.666 609.611 438.176 609.911 438.836C610.211 439.484 610.361 440.252 610.361 441.14V441.716H603.521V440.672H609.119L608.813 440.906C608.813 440.006 608.609 439.31 608.201 438.818C607.805 438.314 607.229 438.062 606.473 438.062C605.633 438.062 604.985 438.356 604.529 438.944C604.073 439.52 603.845 440.318 603.845 441.338V441.518C603.845 442.586 604.103 443.39 604.619 443.93C605.147 444.47 605.891 444.74 606.851 444.74C607.379 444.74 607.871 444.668 608.327 444.524C608.795 444.368 609.239 444.116 609.659 443.768L610.253 445.01C609.833 445.382 609.323 445.67 608.723 445.874C608.123 446.066 607.487 446.162 606.815 446.162ZM615.921 446.162C615.129 446.162 614.427 445.976 613.815 445.604C613.215 445.232 612.747 444.692 612.411 443.984C612.087 443.276 611.925 442.436 611.925 441.464C611.925 440.48 612.087 439.64 612.411 438.944C612.747 438.248 613.215 437.714 613.815 437.342C614.427 436.958 615.129 436.766 615.921 436.766C616.701 436.766 617.385 436.964 617.973 437.36C618.573 437.744 618.969 438.272 619.161 438.944H618.945V432.752H620.763V446H618.963V443.948H619.179C618.975 444.632 618.579 445.172 617.991 445.568C617.403 445.964 616.713 446.162 615.921 446.162ZM616.371 444.74C617.151 444.74 617.781 444.464 618.261 443.912C618.741 443.36 618.981 442.544 618.981 441.464C618.981 440.384 618.741 439.574 618.261 439.034C617.781 438.482 617.151 438.206 616.371 438.206C615.579 438.206 614.943 438.482 614.463 439.034C613.995 439.574 613.761 440.384 613.761 441.464C613.761 442.544 613.995 443.36 614.463 443.912C614.943 444.464 615.579 444.74 616.371 444.74Z" fill="#333333"/>
<path d="M616.85 276.925C616.85 326.211 578.059 366.44 529.343 368.743L532.37 361.085C537.186 348.89 548.108 321.222 552.818 309.282L559.782 291.662H548.129L553.722 277.483V262.808H564.562L572.754 241.949L573.637 239.682V211.978H478.106V262.808H496.761V322.068L490.704 337.405H507.494V367.199C465.061 359.057 433 321.736 433 276.925C433 226.156 474.156 185 524.925 185C575.694 185 616.85 226.156 616.85 276.925Z" fill="#333333"/>
<path d="M484.553 218.42V256.365H503.208V314.184L509.732 306.756L503.659 322.15L500.177 330.958H513.941V368.197C516.721 368.529 519.538 368.739 522.388 368.817L526.379 358.72C531.195 346.524 542.118 318.853 546.828 306.912L550.31 298.104H538.656L547.279 276.255V256.365H560.168L566.751 239.608L567.194 238.47V218.42H484.553ZM560.752 237.255L555.775 249.918H540.837V275.028L529.183 304.547H540.837C536.123 316.488 525.2 344.159 520.384 356.346V324.515H509.65C514.27 312.813 524.617 286.599 529.315 274.691L509.65 297.082V249.918H490.996V224.867H560.752V237.255Z" fill="#333333"/>
</svg>
