<svg width="700" height="394" viewBox="0 0 700 394" fill="none" xmlns="http://www.w3.org/2000/svg">
<rect width="700" height="394" fill="#3F2E42"/>
<g clip-path="url(#clip0_3223_21780)">
<g clip-path="url(#clip1_3223_21780)">
<path d="M219.411 233.677C198.862 242.406 180.652 240.106 164.402 236.391L132.042 284.713C143.946 290.043 157.141 292.974 170.997 292.983C222.598 294.048 268.059 248.588 266.99 196.994C267.105 167.703 253.522 139.826 230.544 121.693L219.407 233.677H219.411ZM166.881 242.59C187.081 247.004 206.105 246.092 224.566 237.473C227.775 205.285 231.077 172.057 234.447 138.173C234.464 138.194 234.485 138.216 234.506 138.233C249.376 154.269 257.522 175.005 257.522 196.994C258.524 243.365 217.549 284.436 171.24 283.478C161.462 283.478 151.88 281.859 142.732 278.655L166.886 242.594L166.881 242.59Z" fill="#FFD655"/>
<path d="M125.808 245.87L126.818 229.659C121.398 229.936 116.247 231.299 111.356 234.392C112.511 208.991 113.704 182.938 114.927 156.203C141.083 130.674 174.865 149.668 218.337 124.539C221.306 122.848 224.076 121.058 227.016 119.013C210.804 107.314 191.384 101 170.997 101C118.062 101 75 144.057 75 196.989C75 235.01 97.215 267.906 129.328 283.469C130.112 272.558 131.253 257.344 131.982 247.579L125.808 245.87ZM111.079 152.258L109.52 153.779C108.097 184.889 106.733 214.726 105.374 244.686C109.354 242.134 116.627 237.413 120.93 235.636L120.039 249.99L126.158 251.682L124.798 269.929C100.151 254.417 84.4757 226.106 84.6845 196.917C84.5652 148.901 124.257 110.198 171.005 110.471C185.909 110.471 200.242 114.212 212.921 121.259C193.855 131.586 177.068 133.133 160.797 134.632C142.83 136.286 125.855 137.849 111.088 152.258H111.079Z" fill="#FFD655"/>
<path d="M148.833 198.19C154.427 199.247 160.213 200.567 166.293 201.726C166.873 193.699 167.448 185.609 168.04 177.458C161.854 176.815 155.961 175.967 150.277 175.375C149.792 183.035 149.306 190.645 148.833 198.19Z" fill="white"/>
<path d="M147.031 224.657H147.035C153.946 226.178 161.219 228.167 168.901 229.68C181.708 232.185 195.751 233.348 211.379 228.644C214.315 197.9 217.34 166.207 220.45 133.516C177.835 158.291 145.476 139.306 119.034 158.597C117.956 181.297 116.895 203.49 115.855 225.219C120.968 222.978 126.183 222.219 131.922 222.458L130.964 240.574L137.346 242.171L135.374 267.764L135.293 268.804C135.467 268.536 135.646 268.259 135.834 267.977C141.88 258.66 150.733 244.992 157.401 234.711C153.677 233.783 150.051 232.849 146.528 232.04V231.942L147.022 224.648L147.031 224.657ZM207.557 225.061C200.008 227.2 191.823 227.958 184.379 227.601C185.023 219.629 185.692 211.607 186.352 203.503C194.26 203.435 201.725 201.177 210.05 198.335L207.562 225.061H207.557ZM133.26 196.925C132.868 204.163 132.417 211.918 132.02 219.041C127.129 218.982 122.57 219.361 118.178 220.86C118.497 214.299 118.821 207.695 119.14 201.049C123.661 198.944 128.096 197.112 133.256 196.925C133.652 189.81 134.048 182.652 134.453 175.439C129.221 176.074 124.743 178.315 120.159 180.82L121.139 160.706C125.412 157.852 130.521 155.756 135.612 154.571C135.22 161.575 134.828 168.533 134.449 175.439C139.447 174.655 144.922 174.762 150.264 175.384C150.742 167.838 151.223 160.242 151.709 152.569C157.61 152.279 163.579 152.245 170.017 151.93C169.416 160.152 168.611 169.445 168.036 177.463C174.354 178.208 181.427 178.409 188.47 177.544C189.168 169.065 190.234 158.273 190.958 149.458C198.853 147.784 206.914 145.364 215.427 141.283C214.511 151.009 213.62 160.642 212.73 170.199C204.204 173.824 196.556 176.785 188.474 177.54C187.758 186.269 187.051 194.922 186.348 203.507C179.441 203.767 172.501 202.975 166.293 201.722C165.735 209.51 165.177 217.23 164.623 224.899C158.551 223.651 152.859 222.215 147.278 221.078C147.763 213.605 148.351 205.659 148.824 198.186C143.571 197.129 138.177 196.567 133.26 196.921V196.925Z" fill="white"/>
<path d="M309.4 129.953V118.066C320.431 118.066 331.461 118.066 342.492 118.066C342.488 120.286 342.484 121.398 342.475 123.618C341.525 125.897 341.048 127.043 340.098 129.34C337.264 129.391 335.846 129.416 333.012 129.468C332.987 140.783 332.965 152.104 332.94 163.42C328.027 163.794 323.115 164.182 318.202 164.587C318.211 152.977 318.224 141.371 318.232 129.762C314.696 129.834 312.928 129.872 309.396 129.953H309.4Z" fill="#FFD655"/>
<path d="M375.35 118.066C378.793 118.066 381.217 120.248 381.209 123.337C381.187 128.888 381.166 134.44 381.145 139.995C381.136 141.993 379.44 144.281 377.208 144.903C379.057 149.032 379.981 151.085 381.831 155.171C381.822 157.276 381.818 158.328 381.809 160.437C376.99 160.672 372.176 160.923 367.357 161.183C366.041 156.76 364.728 152.338 363.425 147.911C362.236 147.958 361.644 147.984 360.455 148.031C360.438 152.547 360.425 157.063 360.408 161.579C355.483 161.877 350.562 162.193 345.641 162.521C345.683 147.703 345.726 132.889 345.768 118.071H375.35V118.066ZM360.523 129.007C360.51 132.262 360.506 133.894 360.493 137.149C362.841 137.09 364.017 137.06 366.369 137C366.381 133.771 366.386 132.152 366.398 128.922C364.047 128.956 362.875 128.973 360.523 129.007Z" fill="#FFD655"/>
<path d="M416.185 118.066C418.349 130.004 420.526 141.938 422.712 153.872C422.708 155.904 422.703 156.922 422.699 158.955C417.761 159.082 412.823 159.227 407.881 159.385C407.54 156.066 407.369 154.409 407.028 151.085C404.434 151.154 403.134 151.192 400.539 151.269C400.147 154.63 399.956 156.313 399.564 159.679C394.651 159.871 389.739 160.075 384.826 160.292C384.835 158.192 384.839 157.144 384.847 155.043C387.089 142.718 389.338 130.392 391.601 118.066C399.794 118.066 407.991 118.066 416.185 118.066ZM405.98 140.766C405.541 136.672 405.107 132.578 404.668 128.483C404.02 128.488 403.697 128.492 403.045 128.496C402.58 132.612 402.116 136.732 401.651 140.852C403.381 140.818 404.246 140.8 405.976 140.766H405.98Z" fill="#FFD655"/>
<path d="M458.033 118.067C458.033 120.073 458.033 121.075 458.033 123.081C457.112 125.135 456.652 126.162 455.732 128.215C450.887 128.224 446.047 128.237 441.203 128.254C441.19 134.99 441.182 141.721 441.169 148.457C446.784 148.393 452.4 148.355 458.016 148.329C458.016 152.364 458.015 154.383 458.011 158.418C449.435 158.465 440.858 158.567 432.285 158.738C428.766 158.806 426.333 156.765 426.342 153.791C426.367 143.57 426.393 133.353 426.419 123.133C426.427 120.159 428.864 118.062 432.375 118.062C440.93 118.062 449.486 118.062 458.041 118.062L458.033 118.067Z" fill="#FFD655"/>
<path d="M482.548 118.067C487.23 118.067 491.913 118.067 496.595 118.067C496.595 120.082 496.6 121.092 496.604 123.107C494.789 127.789 492.974 132.467 491.15 137.15C493.374 142.633 495.594 148.116 497.805 153.599C497.805 155.615 497.81 156.624 497.814 158.644C492.893 158.567 487.976 158.508 483.055 158.461C481.721 153.242 480.384 148.022 479.05 142.803C477.968 142.803 477.427 142.799 476.344 142.795C476.344 148.001 476.349 153.207 476.353 158.414C471.432 158.397 466.511 158.393 461.59 158.405C461.594 144.959 461.598 131.513 461.607 118.067H476.332C476.332 122.945 476.336 127.828 476.34 132.706C477.422 132.706 477.964 132.706 479.046 132.71C480.213 127.828 481.381 122.945 482.548 118.062V118.067Z" fill="#FFD655"/>
<path d="M500.784 131.649C500.775 128.236 500.775 126.528 500.767 123.115C500.762 120.154 503.187 118.066 506.702 118.066H532.368C532.376 120.107 532.376 121.125 532.385 123.162C531.473 125.292 531.017 126.353 530.105 128.475C525.261 128.436 520.421 128.398 515.577 128.364C515.577 129.114 515.577 129.489 515.581 130.234C519.876 132.761 524.166 135.296 528.444 137.852C531.695 139.795 532.445 141.653 532.457 144.972C532.47 148.742 532.474 150.625 532.487 154.396C532.496 157.417 530.071 159.462 526.62 159.351C518.026 159.07 509.433 158.848 500.839 158.695C500.831 154.63 500.826 152.602 500.818 148.538C506.433 148.614 512.049 148.712 517.66 148.827C517.66 147.749 517.656 147.208 517.652 146.13C513.37 143.604 509.083 141.09 504.784 138.594C501.534 136.642 500.788 134.9 500.779 131.649H500.784Z" fill="#FFD655"/>
<path d="M536.087 159.687C536.04 145.815 535.989 131.943 535.942 118.07C540.851 118.07 545.759 118.07 550.667 118.07C550.718 132.147 550.774 146.228 550.825 160.305C545.912 160.087 541 159.879 536.087 159.687Z" fill="#FFD655"/>
<path d="M554.954 160.497C554.902 146.352 554.847 132.211 554.796 118.066H584.309C587.752 118.066 590.193 120.354 590.202 123.597C590.236 134.738 590.266 145.883 590.3 157.025C590.308 160.267 587.888 162.389 584.45 162.163C574.621 161.541 564.791 160.987 554.954 160.497ZM569.636 150.468C572.013 150.57 573.202 150.621 575.575 150.727C575.55 143.489 575.524 136.255 575.498 129.016C573.121 128.982 571.932 128.965 569.555 128.931C569.58 136.11 569.606 143.289 569.632 150.468H569.636Z" fill="#FFD655"/>
<path d="M623.64 129.902C624.582 127.529 625.054 126.336 626 123.946C626 121.594 626 120.418 626 118.066C615.464 118.066 604.927 118.066 594.391 118.066C594.429 132.991 594.472 147.92 594.51 162.844C605.012 163.599 615.511 164.434 626 165.341C626 160.612 626 158.247 626 153.522C620.393 153.152 614.782 152.802 609.171 152.47C609.171 149.956 609.167 148.695 609.162 146.182C613.99 146.42 618.821 146.663 623.648 146.914C623.648 142.206 623.648 139.855 623.648 135.147C618.817 134.998 613.981 134.853 609.15 134.712C609.15 132.667 609.145 131.645 609.141 129.6C613.977 129.698 618.813 129.796 623.648 129.902H623.64Z" fill="#FFD655"/>
<path d="M376.936 184.416C376.957 178.294 376.982 172.171 377.004 166.049C382.837 165.721 388.674 165.423 394.511 165.154C394.451 181.715 394.391 198.276 394.332 214.836C388.486 215.381 382.645 215.995 376.812 216.672C376.838 210.141 376.859 203.605 376.884 197.074C374.06 197.338 372.645 197.475 369.825 197.756L369.752 217.525C363.924 218.257 358.104 219.05 352.292 219.915C352.347 202.485 352.403 185.055 352.458 167.625C358.282 167.208 364.111 166.82 369.935 166.462C369.914 172.64 369.888 178.813 369.867 184.991C372.692 184.753 374.102 184.638 376.927 184.416H376.936Z" fill="#FFD655"/>
<path d="M441.757 163.697C441.732 179.747 441.706 195.792 441.681 211.841C429.917 212.271 418.183 212.923 406.445 213.797C402.257 214.125 399.368 211.837 399.381 208.237C399.432 193.802 399.483 179.367 399.53 164.933C405.397 164.686 411.268 164.468 417.139 164.281C417.105 176.47 417.071 188.66 417.033 200.853C419.836 200.696 421.238 200.623 424.042 200.487C424.071 188.349 424.105 176.215 424.135 164.076C430.006 163.919 435.882 163.791 441.757 163.697Z" fill="#FFD655"/>
<path d="M475.182 185.694C474.402 180.279 473.618 174.868 472.839 169.453C472.839 167.071 472.839 165.878 472.839 163.497C478.258 163.514 483.678 163.561 489.097 163.629C489.119 179.653 489.14 195.676 489.161 211.7C482.915 211.551 476.678 211.453 470.431 211.415C467.662 204.048 464.893 196.682 462.123 189.311C461.574 189.311 461.301 189.316 460.751 189.32C461.501 194.701 462.251 200.086 463.005 205.467C463.005 207.849 463.005 209.042 463.005 211.423C457.594 211.457 452.187 211.543 446.776 211.687C446.798 195.664 446.819 179.644 446.84 163.62C453.065 163.548 459.29 163.505 465.515 163.488C468.254 170.889 470.994 178.285 473.733 185.686C474.313 185.686 474.603 185.69 475.186 185.694H475.182Z" fill="#FFD655"/>
<path d="M494.252 211.857C494.226 195.808 494.201 179.754 494.171 163.705C505.892 163.918 517.609 164.238 529.321 164.668C533.42 164.826 536.326 167.497 536.334 171.101C536.377 183.491 536.419 195.88 536.462 208.274C536.475 211.879 533.586 214.162 529.479 213.839C517.741 212.957 506.007 212.3 494.243 211.862L494.252 211.857ZM511.81 200.507C514.648 200.648 516.066 200.72 518.9 200.882C518.874 192.775 518.853 184.671 518.832 176.563C515.998 176.448 514.584 176.397 511.75 176.299C511.772 184.369 511.793 192.438 511.814 200.507H511.81Z" fill="#FFD655"/>
<path d="M541.507 214.875C541.447 198.306 541.388 181.741 541.328 165.172C553.854 165.768 566.376 166.488 578.89 167.336C578.899 169.922 578.903 171.213 578.911 173.799C577.799 176.356 577.241 177.63 576.129 180.165C570.386 179.67 564.634 179.219 558.886 178.806C558.895 181.064 558.899 182.193 558.908 184.451C564.659 184.902 570.407 185.397 576.15 185.933C576.163 190.249 576.18 194.565 576.193 198.881C570.45 198.242 564.706 197.65 558.95 197.113C558.959 199.891 558.967 201.28 558.976 204.058C565.665 204.761 572.341 205.515 579.018 206.324C579.031 210.657 579.048 214.99 579.06 219.319C566.568 217.576 554.059 216.094 541.503 214.871L541.507 214.875Z" fill="#FFD655"/>
<path d="M624.517 216.502C622.915 212.195 622.114 210.056 620.508 205.813C621.403 205.711 622.225 205.34 622.919 204.786C624.253 203.721 625.122 201.974 625.122 200.236C625.122 192.891 625.122 185.546 625.122 178.2C625.122 174.11 622.25 170.941 618.182 170.557C606.507 169.475 594.829 168.504 583.138 167.639C583.193 185.073 583.248 202.507 583.304 219.941C589.145 220.81 594.974 221.743 600.794 222.74C600.781 217.159 600.768 211.582 600.755 206C602.161 206.201 602.86 206.307 604.266 206.512C605.86 212.4 607.432 218.296 608.996 224.193C614.675 225.232 620.346 226.331 626 227.495C626 224.7 626 223.302 626 220.512C625.408 218.901 625.109 218.1 624.517 216.498V216.502ZM607.67 193.44C604.893 193.082 603.504 192.908 600.721 192.571C600.713 188.549 600.709 186.538 600.7 182.516C603.482 182.81 604.871 182.959 607.653 183.27C607.662 187.339 607.662 189.372 607.67 193.44Z" fill="#FFD655"/>
<path d="M626 238.077C626 236.232 626 235.312 626 233.467C530.741 213.196 432.946 211.364 336.992 228.022C335.398 232.155 333.818 236.296 332.254 240.442C429.098 218.803 528.755 219.016 626 238.082V238.077Z" fill="#FFD655"/>
<path d="M309.399 171.379V185.507C313.575 184.979 315.663 184.728 319.847 184.233C319.838 192.929 319.829 201.625 319.817 210.321C323.442 205.647 327.119 201.02 330.848 196.427C328.611 202.174 326.408 207.939 324.218 213.703C322.731 217.627 321.257 221.56 319.8 225.492C322.198 225.032 323.396 224.806 325.799 224.367C325.799 224.874 325.799 225.126 325.799 225.633C325.79 231.018 325.782 236.403 325.773 241.793C328.104 235.556 330.456 229.331 332.833 223.111C334.61 218.484 335.496 216.187 337.273 211.633C334.661 212.029 333.353 212.229 330.745 212.643C332.91 207.01 335.1 201.391 337.315 195.779C337.328 191.285 337.336 186.79 337.349 182.295C340.707 181.95 342.385 181.779 345.743 181.456C346.872 178.661 347.434 177.272 348.563 174.502C348.572 171.886 348.576 170.578 348.585 167.967C335.513 168.964 322.454 170.101 309.408 171.375L309.399 171.379Z" fill="#FFD655"/>
<path d="M309.4 264.615V261.028C309.4 259.784 310.277 258.906 311.547 258.906H320.823V261.007L319.992 263.205H314.743V263.985L319.382 267.086C320.554 267.866 320.823 268.624 320.823 269.992V273.873C320.823 275.118 319.945 275.995 318.701 275.995H309.4V271.722H315.475V270.597L310.836 267.521C309.664 266.716 309.396 265.983 309.396 264.615H309.4Z" fill="#FFD655"/>
<path d="M329.795 265.105V258.906H335.117V275.991H329.795V269.374H327.648V275.991H322.326V258.906H327.648V265.105H329.795Z" fill="#FFD655"/>
<path d="M339.012 275.991C337.742 275.991 336.864 275.113 336.864 273.869V261.028C336.864 259.784 337.742 258.906 339.012 258.906H347.529C348.798 258.906 349.676 259.784 349.676 261.028V273.869C349.676 275.113 348.798 275.991 347.529 275.991H339.012ZM342.211 263.201V271.718H344.333V263.201H342.211Z" fill="#FFD655"/>
<path d="M362.13 258.906C363.374 258.906 364.252 259.784 364.252 261.028V267.743C364.252 268.548 363.642 269.451 362.837 269.673L364.52 273.869V275.991H359.296L357.856 270.67H356.783V275.991H351.436V258.906H362.126H362.13ZM356.787 263.201V266.4H358.909V263.201H356.787Z" fill="#FFD655"/>
<path d="M365.551 263.201V258.906H377.511V261.028L376.654 263.201H374.094V275.991H368.747V263.201H365.547H365.551Z" fill="#FFD655"/>
<path d="M389.96 263.201V258.906H401.92V261.028L401.064 263.201H398.503V275.991H393.156V263.201H389.956H389.96Z" fill="#FFD655"/>
<path d="M414.003 258.906C415.247 258.906 416.125 259.784 416.125 261.028V267.743C416.125 268.548 415.515 269.451 414.71 269.673L416.393 273.869V275.991H411.169L409.729 270.67H408.656V275.991H403.309V258.906H413.999H414.003ZM408.656 263.201V266.4H410.778V263.201H408.656Z" fill="#FFD655"/>
<path d="M428.958 258.906L431.348 273.869V275.991H426.001L425.685 272.548H423.342L423.001 275.991H417.68V273.869L420.07 258.906H428.953H428.958ZM425.298 268.279L424.808 263.201H424.224L423.734 268.279H425.298Z" fill="#FFD655"/>
<path d="M444.292 258.906V261.028L443.461 263.201H438.212V271.718H444.288V275.991H435.013C433.743 275.991 432.865 275.113 432.865 273.869V261.028C432.865 259.784 433.743 258.906 435.013 258.906H444.288H444.292Z" fill="#FFD655"/>
<path d="M453.363 258.907H458.442V261.028L456.465 266.959L458.855 273.865V275.987H453.533L452.093 269.37H451.117V275.987H445.796V258.902H451.117V265.101H452.093L453.363 258.902V258.907Z" fill="#FFD655"/>
<path d="M471.794 264.615V261.028C471.794 259.784 472.672 258.906 473.942 258.906H483.217V261.007L482.386 263.205H477.137V263.985L481.777 267.086C482.949 267.866 483.217 268.624 483.217 269.992V273.873C483.217 275.118 482.339 275.995 481.095 275.995H471.794V271.722H477.87V270.597L473.23 267.521C472.058 266.716 471.79 265.983 471.79 264.615H471.794Z" fill="#FFD655"/>
<path d="M484.371 263.201V258.906H496.331V261.028L495.475 263.201H492.914V275.991H487.567V263.201H484.367H484.371Z" fill="#FFD655"/>
<path d="M499.872 275.991C498.602 275.991 497.725 275.113 497.725 273.869V261.028C497.725 259.784 498.602 258.906 499.872 258.906H508.389C509.659 258.906 510.536 259.784 510.536 261.028V273.869C510.536 275.113 509.659 275.991 508.389 275.991H499.872ZM503.067 263.201V271.718H505.189V263.201H503.067Z" fill="#FFD655"/>
<path d="M522.99 258.906C524.234 258.906 525.112 259.784 525.112 261.028V267.743C525.112 268.548 524.503 269.451 523.697 269.673L525.38 273.869V275.991H520.157L518.717 270.67H517.643V275.991H512.296V258.906H522.986H522.99ZM517.643 263.201V266.4H519.765V263.201H517.643Z" fill="#FFD655"/>
<path d="M526.412 261.028V258.906H531.759L533.054 265.544H533.446L534.763 258.906H540.085V261.028L535.909 271.33V275.991H530.588V271.33L526.412 261.028Z" fill="#FFD655"/>
<path d="M541.133 263.201V258.906H553.092V261.028L552.236 263.201H549.671V275.991H544.324V263.201H541.124H541.133Z" fill="#FFD655"/>
<path d="M554.481 275.991V258.906H565.904V261.028L565.047 263.201H559.798V265.105H565.047V269.379H559.798V271.722H565.899V275.995H554.477L554.481 275.991Z" fill="#FFD655"/>
<path d="M567.412 258.906H572.734V271.722H578.102V275.995H567.412V258.911V258.906Z" fill="#FFD655"/>
<path d="M579.491 258.906H584.813V271.722H590.181V275.995H579.491V258.911V258.906Z" fill="#FFD655"/>
<path d="M591.57 275.991V258.906H596.892V275.991H591.57Z" fill="#FFD655"/>
<path d="M607.202 266.814L606.495 261.028V258.907H611.424V275.991H605.762L603.248 268.105H602.835L603.516 273.865V275.987H598.612V258.902H604.275L606.763 266.81H607.202V266.814Z" fill="#FFD655"/>
<path d="M625.902 258.906V261.028L625.046 263.201H618.527V271.718H620.649V265.983H625.996V275.991H615.327C614.057 275.991 613.18 275.113 613.18 273.869V261.028C613.18 259.784 614.057 258.906 615.327 258.906H625.898H625.902Z" fill="#FFD655"/>
</g>
</g>
<defs>
<clipPath id="clip0_3223_21780">
<rect width="551" height="192" fill="white" transform="translate(75 101)"/>
</clipPath>
<clipPath id="clip1_3223_21780">
<rect width="551" height="192" fill="white" transform="translate(75 101)"/>
</clipPath>
</defs>
</svg>
