<svg width="700" height="788" viewBox="0 0 700 788" fill="none" xmlns="http://www.w3.org/2000/svg">
<rect width="700" height="788" fill="#3F2E42"/>
<g clip-path="url(#clip0_3211_19366)">
<path d="M240.596 616.272C224.716 623.001 210.644 621.227 198.086 618.364L173.08 655.612C182.279 659.721 192.476 661.98 203.183 661.987C243.059 662.808 278.19 627.766 277.363 587.995C277.452 565.417 266.956 543.928 249.199 529.951L240.593 616.272H240.596ZM200.003 623.142C215.612 626.544 230.313 625.842 244.58 619.198C247.059 594.386 249.611 568.773 252.215 542.654C252.228 542.671 252.245 542.687 252.261 542.7C263.752 555.062 270.047 571.046 270.047 587.995C270.821 623.74 239.157 655.399 203.371 654.66C195.815 654.66 188.41 653.412 181.341 650.942L200.006 623.145L200.003 623.142Z" fill="#FFD655"/>
<path d="M168.263 625.671L169.043 613.175C164.855 613.388 160.875 614.439 157.095 616.823C157.987 597.243 158.909 577.161 159.854 556.553C180.067 536.874 206.173 551.515 239.766 532.145C242.061 530.841 244.201 529.462 246.473 527.885C233.945 518.867 218.938 514 203.183 514C162.277 514 129 547.19 129 587.992C129 617.299 146.167 642.656 170.983 654.653C171.588 646.243 172.471 634.515 173.034 626.988L168.263 625.671ZM156.881 553.512L155.676 554.684C154.576 578.665 153.523 601.664 152.472 624.758C155.547 622.791 161.168 619.152 164.493 617.782L163.805 628.847L168.533 630.15L167.483 644.216C148.436 632.259 136.323 610.436 136.484 587.936C136.392 550.924 167.065 521.09 203.19 521.301C214.707 521.301 225.783 524.184 235.581 529.616C220.848 537.577 207.875 538.769 195.301 539.925C181.417 541.199 168.299 542.405 156.887 553.512H156.881Z" fill="#FFD655"/>
<path d="M186.056 588.919C190.379 589.733 194.85 590.751 199.548 591.644C199.996 585.457 200.441 579.221 200.898 572.938C196.118 572.442 191.564 571.789 187.172 571.332C186.797 577.237 186.421 583.102 186.056 588.919Z" fill="white"/>
<path d="M184.663 609.319H184.666C190.007 610.491 195.627 612.025 201.563 613.191C211.461 615.122 222.313 616.019 234.39 612.393C236.658 588.694 238.996 564.264 241.399 539.064C208.468 558.162 183.461 543.528 163.028 558.398C162.195 575.896 161.375 593.003 160.572 609.752C164.523 608.025 168.553 607.44 172.988 607.624L172.247 621.588L177.179 622.82L175.655 642.548L175.592 643.349C175.727 643.142 175.865 642.929 176.01 642.712C180.682 635.53 187.524 624.994 192.677 617.069C189.799 616.354 186.997 615.634 184.274 615.01V614.935L184.656 609.312L184.663 609.319ZM231.436 609.631C225.602 611.28 219.277 611.864 213.525 611.588C214.022 605.444 214.539 599.26 215.049 593.013C221.16 592.961 226.929 591.22 233.362 589.029L231.44 609.631H231.436ZM174.022 587.942C173.719 593.522 173.37 599.499 173.064 604.99C169.284 604.944 165.761 605.237 162.366 606.393C162.613 601.335 162.863 596.245 163.11 591.121C166.604 589.499 170.031 588.087 174.018 587.942C174.325 582.458 174.631 576.94 174.944 571.38C170.9 571.87 167.44 573.597 163.897 575.528L164.654 560.024C167.957 557.823 171.905 556.208 175.839 555.295C175.536 560.694 175.233 566.057 174.94 571.38C178.802 570.776 183.033 570.858 187.162 571.338C187.531 565.522 187.903 559.666 188.278 553.751C192.838 553.528 197.451 553.502 202.426 553.259C201.962 559.597 201.34 566.76 200.895 572.94C205.778 573.515 211.243 573.669 216.686 573.003C217.226 566.467 218.049 558.149 218.609 551.354C224.71 550.063 230.939 548.198 237.517 545.051C236.81 552.549 236.121 559.975 235.433 567.341C228.845 570.136 222.935 572.418 216.689 573C216.136 579.729 215.589 586.399 215.046 593.016C209.709 593.217 204.346 592.606 199.548 591.64C199.117 597.644 198.686 603.595 198.258 609.506C193.566 608.544 189.167 607.437 184.854 606.56C185.229 600.8 185.684 594.675 186.049 588.914C181.989 588.1 177.821 587.667 174.022 587.939V587.942Z" fill="white"/>
<path d="M310.137 536.319V527.156C318.661 527.156 327.185 527.156 335.71 527.156C335.706 528.867 335.703 529.724 335.697 531.435C334.962 533.193 334.594 534.076 333.859 535.846C331.67 535.886 330.573 535.905 328.384 535.945C328.364 544.667 328.348 553.393 328.328 562.116C324.532 562.405 320.735 562.704 316.939 563.016C316.946 554.067 316.956 545.121 316.962 536.171C314.229 536.227 312.863 536.257 310.134 536.319H310.137Z" fill="#FFD655"/>
<path d="M361.101 527.156C363.762 527.156 365.635 528.838 365.629 531.219C365.612 535.498 365.596 539.777 365.579 544.06C365.573 545.6 364.262 547.364 362.537 547.843C363.966 551.025 364.68 552.608 366.109 555.758C366.103 557.38 366.099 558.191 366.093 559.817C362.369 559.998 358.648 560.191 354.925 560.392C353.907 556.983 352.893 553.574 351.886 550.162C350.967 550.198 350.509 550.218 349.591 550.254C349.578 553.735 349.568 557.216 349.555 560.697C345.748 560.927 341.946 561.17 338.143 561.423C338.176 550.001 338.209 538.582 338.242 527.16H361.101V527.156ZM349.644 535.59C349.634 538.099 349.63 539.357 349.62 541.866C351.435 541.82 352.343 541.797 354.161 541.751C354.171 539.262 354.174 538.014 354.184 535.524C352.366 535.551 351.461 535.564 349.644 535.59Z" fill="#FFD655"/>
<path d="M392.657 527.156C394.329 536.358 396.012 545.557 397.701 554.756C397.698 556.323 397.694 557.108 397.691 558.674C393.875 558.773 390.059 558.884 386.24 559.006C385.976 556.448 385.845 555.17 385.581 552.608C383.576 552.661 382.572 552.69 380.567 552.75C380.264 555.341 380.116 556.638 379.813 559.232C376.016 559.38 372.22 559.538 368.424 559.705C368.431 558.086 368.434 557.278 368.44 555.659C370.172 546.158 371.911 536.657 373.659 527.156C379.991 527.156 386.325 527.156 392.657 527.156ZM384.771 544.654C384.432 541.498 384.096 538.342 383.757 535.186C383.257 535.189 383.006 535.193 382.503 535.196C382.144 538.368 381.785 541.544 381.426 544.72C382.763 544.694 383.431 544.68 384.768 544.654H384.771Z" fill="#FFD655"/>
<path d="M424.996 527.156C424.996 528.702 424.996 529.474 424.996 531.021C424.284 532.604 423.929 533.396 423.218 534.978C419.474 534.985 415.734 534.995 411.99 535.008C411.98 540.2 411.974 545.389 411.964 550.581C416.303 550.532 420.643 550.503 424.983 550.483C424.983 553.593 424.983 555.15 424.979 558.26C418.351 558.296 411.724 558.375 405.099 558.506C402.379 558.559 400.499 556.986 400.506 554.693C400.526 546.815 400.546 538.939 400.565 531.06C400.572 528.768 402.455 527.152 405.168 527.152C411.78 527.152 418.391 527.152 425.002 527.152L424.996 527.156Z" fill="#FFD655"/>
<path d="M443.941 527.156C447.559 527.156 451.178 527.156 454.796 527.156C454.796 528.709 454.799 529.487 454.803 531.041C453.4 534.65 451.997 538.256 450.588 541.865C452.307 546.092 454.022 550.319 455.731 554.545C455.731 556.099 455.734 556.877 455.738 558.434C451.935 558.375 448.135 558.329 444.332 558.293C443.302 554.27 442.268 550.246 441.238 546.223C440.401 546.223 439.983 546.22 439.147 546.217C439.147 550.23 439.15 554.243 439.153 558.256C435.351 558.243 431.548 558.24 427.745 558.25C427.748 547.885 427.751 537.52 427.758 527.156H439.137C439.137 530.916 439.14 534.68 439.144 538.44C439.98 538.44 440.398 538.44 441.234 538.443C442.136 534.68 443.039 530.916 443.941 527.152V527.156Z" fill="#FFD655"/>
<path d="M458.033 537.626C458.026 534.996 458.026 533.679 458.019 531.048C458.016 528.765 459.89 527.156 462.606 527.156H482.44C482.446 528.729 482.446 529.514 482.453 531.084C481.748 532.726 481.396 533.544 480.692 535.179C476.948 535.15 473.208 535.12 469.464 535.094C469.464 535.672 469.464 535.961 469.467 536.536C472.786 538.483 476.102 540.437 479.407 542.408C481.92 543.905 482.499 545.337 482.509 547.896C482.519 550.802 482.522 552.254 482.532 555.16C482.539 557.489 480.665 559.065 477.998 558.98C471.357 558.763 464.716 558.592 458.075 558.474C458.069 555.341 458.066 553.778 458.059 550.644C462.398 550.704 466.738 550.779 471.074 550.868C471.074 550.037 471.071 549.62 471.068 548.789C467.759 546.841 464.446 544.904 461.124 542.979C458.612 541.475 458.036 540.132 458.029 537.626H458.033Z" fill="#FFD655"/>
<path d="M485.314 559.238C485.278 548.545 485.238 537.851 485.202 527.158C488.995 527.158 492.788 527.158 496.581 527.158C496.621 538.009 496.663 548.863 496.703 559.714C492.907 559.546 489.11 559.386 485.314 559.238Z" fill="#FFD655"/>
<path d="M499.893 559.863C499.854 548.96 499.811 538.06 499.772 527.156H522.579C525.239 527.156 527.126 528.92 527.132 531.419C527.159 540.007 527.182 548.598 527.208 557.186C527.215 559.686 525.344 561.321 522.687 561.147C515.092 560.668 507.496 560.241 499.893 559.863ZM511.239 552.132C513.077 552.211 513.995 552.25 515.829 552.333C515.809 546.753 515.79 541.176 515.77 535.597C513.933 535.57 513.014 535.557 511.177 535.531C511.197 541.065 511.216 546.598 511.236 552.132H511.239Z" fill="#FFD655"/>
<path d="M552.972 536.28C553.7 534.45 554.065 533.531 554.796 531.688C554.796 529.876 554.796 528.969 554.796 527.156C546.654 527.156 538.511 527.156 530.369 527.156C530.399 538.661 530.431 550.168 530.461 561.673C538.577 562.254 546.69 562.898 554.796 563.597C554.796 559.952 554.796 558.129 554.796 554.487C550.463 554.201 546.127 553.932 541.791 553.676C541.791 551.738 541.787 550.766 541.784 548.828C545.514 549.012 549.248 549.199 552.978 549.393C552.978 545.764 552.978 543.951 552.978 540.322C549.245 540.207 545.508 540.096 541.774 539.987C541.774 538.411 541.771 537.623 541.768 536.046C545.505 536.122 549.241 536.197 552.978 536.28H552.972Z" fill="#FFD655"/>
<path d="M362.326 578.299C362.343 573.579 362.362 568.86 362.379 564.141C366.886 563.888 371.397 563.658 375.908 563.451C375.862 576.217 375.816 588.982 375.769 601.748C371.252 602.168 366.738 602.641 362.231 603.163C362.25 598.128 362.267 593.091 362.287 588.056C360.104 588.26 359.011 588.365 356.831 588.581C356.811 593.662 356.795 598.739 356.775 603.82C352.271 604.385 347.773 604.996 343.282 605.662C343.325 592.227 343.368 578.791 343.411 565.356C347.912 565.034 352.416 564.735 356.917 564.459C356.9 569.221 356.88 573.98 356.864 578.742C359.047 578.558 360.137 578.47 362.32 578.299H362.326Z" fill="#FFD655"/>
<path d="M412.418 562.328C412.399 574.699 412.379 587.068 412.359 599.439C403.268 599.771 394.201 600.273 385.13 600.946C381.894 601.199 379.661 599.436 379.671 596.661C379.711 585.534 379.75 574.407 379.786 563.281C384.32 563.09 388.857 562.923 393.394 562.778C393.368 572.174 393.342 581.57 393.312 590.969C395.478 590.848 396.562 590.792 398.728 590.687C398.751 581.33 398.777 571.977 398.801 562.62C403.338 562.499 407.878 562.4 412.418 562.328Z" fill="#FFD655"/>
<path d="M438.248 579.285C437.645 575.111 437.04 570.94 436.437 566.766C436.437 564.93 436.437 564.01 436.437 562.175C440.625 562.188 444.813 562.224 449.001 562.276C449.018 574.628 449.034 586.98 449.051 599.331C444.224 599.216 439.404 599.141 434.577 599.111C432.437 593.433 430.297 587.755 428.156 582.073C427.732 582.073 427.521 582.076 427.096 582.08C427.676 586.228 428.255 590.379 428.838 594.527C428.838 596.362 428.838 597.282 428.838 599.118C424.657 599.144 420.478 599.21 416.297 599.322C416.313 586.97 416.33 574.621 416.346 562.27C421.157 562.214 425.967 562.181 430.777 562.168C432.894 567.873 435.011 573.574 437.129 579.278C437.576 579.278 437.8 579.282 438.251 579.285H438.248Z" fill="#FFD655"/>
<path d="M452.985 599.453C452.965 587.082 452.946 574.707 452.923 562.336C461.98 562.5 471.035 562.746 480.086 563.078C483.253 563.2 485.499 565.259 485.505 568.037C485.538 577.588 485.571 587.138 485.604 596.691C485.614 599.47 483.382 601.23 480.208 600.98C471.137 600.301 462.069 599.795 452.979 599.457L452.985 599.453ZM466.554 590.704C468.746 590.813 469.843 590.869 472.032 590.993C472.013 584.744 471.996 578.497 471.98 572.247C469.79 572.159 468.697 572.119 466.508 572.044C466.524 578.264 466.54 584.484 466.557 590.704H466.554Z" fill="#FFD655"/>
<path d="M489.502 601.778C489.456 589.006 489.41 576.237 489.364 563.465C499.044 563.925 508.721 564.48 518.391 565.133C518.397 567.127 518.401 568.122 518.407 570.115C517.548 572.086 517.117 573.068 516.257 575.022C511.819 574.641 507.374 574.293 502.932 573.974C502.939 575.715 502.942 576.585 502.949 578.326C507.394 578.674 511.835 579.055 516.274 579.468C516.283 582.795 516.297 586.122 516.307 589.449C511.868 588.956 507.43 588.5 502.982 588.086C502.988 590.227 502.995 591.298 503.002 593.439C508.171 593.981 513.33 594.562 518.489 595.186C518.499 598.526 518.513 601.866 518.522 605.203C508.869 603.86 499.202 602.717 489.499 601.774L489.502 601.778Z" fill="#FFD655"/>
<path d="M553.65 603.033C552.412 599.713 551.793 598.064 550.552 594.793C551.243 594.714 551.879 594.429 552.415 594.002C553.446 593.181 554.118 591.834 554.118 590.494C554.118 584.832 554.118 579.17 554.118 573.509C554.118 570.356 551.898 567.912 548.754 567.617C539.733 566.783 530.708 566.034 521.673 565.367C521.716 578.806 521.759 592.245 521.802 605.683C526.316 606.353 530.82 607.073 535.317 607.841C535.308 603.539 535.298 599.24 535.288 594.938C536.374 595.092 536.914 595.174 538.001 595.332C539.232 599.87 540.447 604.416 541.655 608.961C546.044 609.762 550.427 610.61 554.796 611.506C554.796 609.352 554.796 608.275 554.796 606.123C554.338 604.882 554.108 604.265 553.65 603.03V603.033ZM540.632 585.256C538.485 584.98 537.411 584.845 535.261 584.586C535.255 581.486 535.252 579.936 535.245 576.835C537.395 577.062 538.468 577.177 540.618 577.417C540.625 580.553 540.625 582.12 540.632 585.256Z" fill="#FFD655"/>
<path d="M554.796 619.663C554.796 618.241 554.796 617.532 554.796 616.11C481.182 600.484 405.609 599.072 331.459 611.913C330.228 615.098 329.006 618.29 327.798 621.486C402.636 604.806 479.648 604.97 554.796 619.666V619.663Z" fill="#FFD655"/>
<path d="M310.137 568.25V579.14C313.363 578.733 314.977 578.539 318.21 578.158C318.203 584.861 318.197 591.564 318.187 598.267C320.989 594.664 323.83 591.098 326.711 587.557C324.983 591.988 323.28 596.431 321.588 600.874C320.439 603.899 319.3 606.93 318.174 609.962C320.027 609.607 320.953 609.433 322.81 609.095C322.81 609.485 322.81 609.679 322.81 610.07C322.803 614.221 322.796 618.372 322.79 622.527C324.591 617.719 326.408 612.921 328.246 608.126C329.619 604.559 330.303 602.789 331.676 599.278C329.658 599.584 328.647 599.738 326.632 600.057C328.305 595.715 329.997 591.383 331.709 587.058C331.719 583.593 331.726 580.128 331.736 576.664C334.33 576.398 335.627 576.266 338.222 576.017C339.094 573.862 339.529 572.792 340.401 570.657C340.408 568.641 340.411 567.632 340.418 565.619C330.317 566.388 320.225 567.264 310.143 568.246L310.137 568.25Z" fill="#FFD655"/>
<path d="M310.137 640.139V637.393C310.137 636.441 310.812 635.768 311.786 635.768H318.905V637.374L318.269 639.055H314.243V639.653L317.802 642.027C318.701 642.625 318.908 643.203 318.908 644.251V647.223C318.908 648.175 318.233 648.848 317.278 648.848H310.14V645.577H314.806V644.717L311.246 642.362C310.348 641.745 310.14 641.186 310.14 640.139H310.137Z" fill="#FFD655"/>
<path d="M325.714 640.513V635.768H329.796V648.848H325.714V643.784H324.064V648.848H319.981V635.768H324.064V640.513H325.714Z" fill="#FFD655"/>
<path d="M332.707 648.844C331.732 648.844 331.057 648.171 331.057 647.219V637.389C331.057 636.437 331.732 635.764 332.707 635.764H339.246C340.22 635.764 340.895 636.437 340.895 637.389V647.219C340.895 648.171 340.22 648.844 339.246 648.844H332.707ZM335.16 639.054V645.577H336.79V639.054H335.16Z" fill="#FFD655"/>
<path d="M350.365 635.764C351.319 635.764 351.994 636.437 351.994 637.389V642.529C351.994 643.146 351.527 643.836 350.908 644.004L352.202 647.219V648.844H348.195L347.089 644.772H346.265V648.844H342.163V635.764H350.368H350.365ZM346.262 639.054V641.501H347.892V639.054H346.262Z" fill="#FFD655"/>
<path d="M352.92 639.055V635.768H362.099V637.393L361.444 639.055H359.478V648.845H355.376V639.055H352.923H352.92Z" fill="#FFD655"/>
<path d="M371.654 639.055V635.768H380.833V637.393L380.178 639.055H378.213V648.845H374.11V639.055H371.657H371.654Z" fill="#FFD655"/>
<path d="M390.029 635.764C390.984 635.764 391.659 636.437 391.659 637.389V642.529C391.659 643.146 391.192 643.836 390.573 644.004L391.867 647.219V648.844H387.856L386.75 644.772H385.927V648.844H381.824V635.764H390.029ZM385.927 639.054V641.501H387.557V639.054H385.927Z" fill="#FFD655"/>
<path d="M401.438 635.764L403.272 647.219V648.844H399.169L398.926 646.211H397.128L396.865 648.844H392.782V647.219L394.616 635.764H401.435H401.438ZM398.626 642.94L398.251 639.054H397.8L397.424 642.94H398.623H398.626Z" fill="#FFD655"/>
<path d="M413.129 635.764V637.389L412.494 639.051H408.467V645.573H413.133V648.844H406.014C405.04 648.844 404.365 648.171 404.365 647.219V637.389C404.365 636.437 405.04 635.764 406.014 635.764H413.133H413.129Z" fill="#FFD655"/>
<path d="M420.017 635.764H423.912V637.389L422.395 641.931L424.228 647.219V648.844H420.146L419.04 643.78H418.289V648.844H414.206V635.764H418.289V640.509H419.04L420.014 635.764H420.017Z" fill="#FFD655"/>
<path d="M434.162 640.139V637.393C434.162 636.441 434.837 635.768 435.812 635.768H442.93V637.374L442.294 639.055H438.268V639.653L441.827 642.027C442.726 642.625 442.933 643.203 442.933 644.251V647.223C442.933 648.175 442.258 648.848 441.303 648.848H434.165V645.577H438.831V644.717L435.272 642.362C434.373 641.745 434.165 641.186 434.165 640.139H434.162Z" fill="#FFD655"/>
<path d="M443.746 639.055V635.768H452.926V637.393L452.271 639.055H450.305V648.845H446.203V639.055H443.75H443.746Z" fill="#FFD655"/>
<path d="M455.57 648.844C454.595 648.844 453.92 648.171 453.92 647.219V637.389C453.92 636.437 454.595 635.764 455.57 635.764H462.109C463.083 635.764 463.758 636.437 463.758 637.389V647.219C463.758 648.171 463.083 648.844 462.109 648.844H455.57ZM458.023 639.054V645.577H459.653V639.054H458.023Z" fill="#FFD655"/>
<path d="M473.227 635.764C474.182 635.764 474.857 636.437 474.857 637.389V642.529C474.857 643.146 474.39 643.836 473.771 644.004L475.065 647.219V648.844H471.054L469.948 644.772H469.125V648.844H465.023V635.764H473.227ZM469.125 639.054V641.501H470.755V639.054H469.125Z" fill="#FFD655"/>
<path d="M475.782 637.389V635.764H479.885L480.879 640.844H481.179L482.19 635.764H486.272V637.389L483.069 645.275V648.844H478.986V645.275L475.782 637.389Z" fill="#FFD655"/>
<path d="M487.016 639.055V635.768H496.196V637.393L495.541 639.055H493.575V648.845H489.473V639.055H487.02H487.016Z" fill="#FFD655"/>
<path d="M497.187 648.844V635.764H505.955V637.389L505.3 639.051H501.273V640.509H505.3V643.78H501.273V645.573H505.955V648.844H497.187Z" fill="#FFD655"/>
<path d="M507.035 635.764H511.118V645.573H515.24V648.844H507.035V635.764Z" fill="#FFD655"/>
<path d="M516.231 635.764H520.314V645.573H524.436V648.844H516.231V635.764Z" fill="#FFD655"/>
<path d="M525.43 648.844V635.764H534.198V637.389L533.543 639.051H529.516V640.509H533.543V643.78H529.516V645.573H534.198V648.844H525.43Z" fill="#FFD655"/>
<path d="M543.483 635.764C544.438 635.764 545.113 636.437 545.113 637.389V642.529C545.113 643.146 544.645 643.836 544.026 644.004L545.32 647.219V648.844H541.31L540.203 644.772H539.38V648.844H535.278V635.764H543.483ZM539.38 639.054V641.501H541.01V639.054H539.38Z" fill="#FFD655"/>
<path d="M546.235 640.139V637.393C546.235 636.441 546.91 635.768 547.885 635.768H555.003V637.374L554.368 639.055H550.341V639.653L553.9 642.027C554.799 642.625 555.007 643.203 555.007 644.251V647.223C555.007 648.175 554.332 648.848 553.377 648.848H546.239V645.577H550.904V644.717L547.345 642.362C546.446 641.745 546.239 641.186 546.239 640.139H546.235Z" fill="#FFD655"/>
</g>
<g clip-path="url(#clip1_3211_19366)">
<path d="M386.785 198.705C371.42 205.199 357.804 203.488 345.653 200.724L321.456 236.673C330.358 240.64 340.224 242.82 350.585 242.826C389.167 243.62 423.162 209.798 422.364 171.412C422.448 149.619 412.295 128.882 395.114 115.393L386.785 198.705ZM347.506 205.334C362.609 208.619 376.835 207.94 390.639 201.526C393.038 177.579 395.507 152.861 398.025 127.651C398.04 127.665 398.054 127.683 398.069 127.697C409.187 139.627 415.278 155.055 415.278 171.412C416.027 205.912 385.389 236.466 350.762 235.75C343.451 235.75 336.284 234.545 329.444 232.161L347.504 205.334H347.506Z" fill="#FFD655"/>
<path d="M316.793 207.777L317.548 195.717C313.495 195.921 309.644 196.94 305.987 199.238C306.852 180.338 307.742 160.958 308.656 141.069C328.213 122.078 353.473 136.206 385.979 117.51C388.199 116.253 390.269 114.922 392.469 113.4C380.35 104.697 365.826 100 350.585 100C311.003 100 278.804 132.032 278.804 171.413C278.804 199.698 295.415 224.171 319.427 235.748C320.014 227.632 320.87 216.311 321.41 209.046L316.793 207.774V207.777ZM305.782 138.136L304.617 139.266C303.553 162.411 302.533 184.606 301.515 206.897C304.49 204.999 309.928 201.487 313.145 200.164L312.477 210.843L317.054 212.1L316.036 225.676C297.606 214.136 285.884 193.074 286.04 171.359C285.95 135.636 315.628 106.842 350.582 107.047C361.727 107.047 372.443 109.831 381.923 115.074C367.665 122.759 355.112 123.907 342.948 125.023C329.513 126.251 316.819 127.416 305.776 138.136H305.782Z" fill="#FFD655"/>
<path d="M334.012 172.305C338.195 173.093 342.52 174.073 347.067 174.936C347.501 168.965 347.931 162.945 348.374 156.882C343.748 156.402 339.343 155.772 335.09 155.332C334.729 161.033 334.364 166.69 334.012 172.305Z" fill="white"/>
<path d="M332.665 191.995H332.667C337.836 193.125 343.271 194.607 349.018 195.731C358.593 197.595 369.096 198.461 380.781 194.96C382.975 172.089 385.236 148.51 387.563 124.191C355.696 142.622 331.502 128.497 311.731 142.852C310.925 159.738 310.133 176.251 309.355 192.418C313.177 190.75 317.077 190.186 321.37 190.364L320.653 203.842L325.426 205.03L323.951 224.07L323.891 224.844C324.024 224.643 324.154 224.439 324.295 224.229C328.817 217.297 335.437 207.13 340.424 199.479C337.64 198.786 334.931 198.093 332.294 197.491V197.417L332.665 191.992V191.995ZM377.922 192.297C372.276 193.888 366.156 194.451 360.591 194.187C361.074 188.256 361.571 182.288 362.065 176.259C367.98 176.21 373.559 174.531 379.783 172.417L377.922 192.297ZM322.367 171.361C322.075 176.745 321.737 182.515 321.439 187.813C317.782 187.767 314.371 188.052 311.09 189.165C311.33 184.284 311.572 179.371 311.809 174.424C315.192 172.86 318.505 171.493 322.364 171.355C322.662 166.06 322.957 160.739 323.257 155.369C319.346 155.841 315.996 157.509 312.57 159.373L313.304 144.408C316.501 142.286 320.317 140.724 324.128 139.844C323.836 145.055 323.544 150.233 323.257 155.369C326.993 154.788 331.086 154.866 335.081 155.329C335.44 149.715 335.798 144.066 336.16 138.357C340.571 138.141 345.035 138.115 349.851 137.882C349.403 144 348.802 150.911 348.368 156.879C353.092 157.432 358.379 157.584 363.646 156.94C364.17 150.632 364.965 142.602 365.508 136.047C371.411 134.802 377.439 133.001 383.802 129.967C383.12 137.203 382.452 144.371 381.784 151.478C375.41 154.173 369.691 156.379 363.646 156.94C363.112 163.434 362.583 169.871 362.056 176.259C356.89 176.452 351.701 175.862 347.061 174.931C346.645 180.723 346.226 186.47 345.812 192.173C341.274 191.244 337.015 190.177 332.844 189.329C333.205 183.769 333.647 177.858 334 172.299C330.071 171.511 326.039 171.094 322.361 171.355L322.367 171.361Z" fill="white"/>
<path d="M243.182 267.456V259.432C250.667 259.432 258.151 259.432 265.636 259.432C265.633 260.93 265.63 261.681 265.624 263.179C264.98 264.718 264.656 265.492 264.011 267.042C262.089 267.077 261.126 267.094 259.204 267.128C259.186 274.768 259.172 282.41 259.154 290.049C255.821 290.302 252.488 290.564 249.155 290.837C249.161 282.999 249.169 275.164 249.175 267.327C246.776 267.376 245.576 267.402 243.179 267.456H243.182Z" fill="#FFD655"/>
<path d="M287.931 259.43C290.266 259.43 291.911 260.902 291.906 262.988C291.891 266.735 291.877 270.483 291.862 274.234C291.856 275.582 290.706 277.127 289.191 277.547C290.446 280.334 291.073 281.72 292.328 284.479C292.322 285.899 292.319 286.61 292.313 288.034C289.044 288.192 285.777 288.361 282.507 288.537C281.614 285.551 280.724 282.566 279.839 279.577C279.032 279.609 278.63 279.626 277.824 279.658C277.812 282.707 277.804 285.756 277.792 288.804C274.45 289.006 271.111 289.219 267.772 289.44C267.801 279.437 267.83 269.436 267.859 259.433H287.931V259.43ZM277.87 266.813C277.861 269.01 277.859 270.112 277.85 272.309C279.443 272.269 280.241 272.249 281.837 272.209C281.845 270.028 281.848 268.936 281.857 266.755C280.261 266.778 279.466 266.79 277.87 266.813Z" fill="#FFD655"/>
<path d="M315.637 259.43C317.106 267.489 318.583 275.545 320.066 283.601C320.063 284.973 320.06 285.661 320.057 287.033C316.707 287.119 313.356 287.217 310.003 287.323C309.771 285.083 309.656 283.964 309.425 281.72C307.664 281.766 306.782 281.792 305.022 281.844C304.756 284.113 304.626 285.249 304.36 287.522C301.026 287.651 297.693 287.789 294.36 287.936C294.366 286.518 294.369 285.81 294.374 284.392C295.895 276.071 297.421 267.751 298.957 259.43C304.516 259.43 310.078 259.43 315.637 259.43ZM308.713 274.754C308.416 271.99 308.121 269.226 307.823 266.462C307.384 266.465 307.164 266.468 306.722 266.471C306.406 269.249 306.091 272.03 305.776 274.812C306.95 274.789 307.537 274.777 308.71 274.754H308.713Z" fill="#FFD655"/>
<path d="M344.032 259.431C344.032 260.785 344.032 261.461 344.032 262.816C343.407 264.202 343.095 264.895 342.471 266.282C339.184 266.287 335.899 266.296 332.613 266.308C332.604 270.855 332.598 275.399 332.589 279.947C336.4 279.903 340.21 279.878 344.02 279.86C344.02 282.584 344.02 283.947 344.017 286.671C338.198 286.703 332.378 286.772 326.562 286.887C324.174 286.933 322.523 285.555 322.529 283.548C322.546 276.648 322.564 269.75 322.581 262.85C322.587 260.843 324.24 259.428 326.623 259.428C332.427 259.428 338.232 259.428 344.037 259.428L344.032 259.431Z" fill="#FFD655"/>
<path d="M360.666 259.431C363.843 259.431 367.02 259.431 370.197 259.431C370.197 260.791 370.2 261.473 370.203 262.833C368.971 265.994 367.74 269.152 366.503 272.313C368.012 276.015 369.518 279.716 371.018 283.418C371.018 284.779 371.021 285.46 371.024 286.824C367.685 286.772 364.349 286.732 361.01 286.7C360.105 283.177 359.197 279.653 358.292 276.13C357.558 276.13 357.191 276.127 356.457 276.124C356.457 279.639 356.46 283.154 356.463 286.668C353.124 286.657 349.784 286.654 346.445 286.663C346.448 277.585 346.451 268.508 346.457 259.431H356.448C356.448 262.724 356.451 266.02 356.454 269.313C357.188 269.313 357.555 269.313 358.29 269.316C359.082 266.02 359.874 262.724 360.666 259.428V259.431Z" fill="#FFD655"/>
<path d="M373.039 268.599C373.033 266.295 373.033 265.142 373.027 262.838C373.025 260.839 374.67 259.43 377.055 259.43H394.469C394.475 260.807 394.475 261.495 394.481 262.87C393.862 264.308 393.553 265.024 392.934 266.456C389.647 266.43 386.363 266.404 383.076 266.381C383.076 266.888 383.076 267.141 383.079 267.644C385.993 269.35 388.904 271.061 391.807 272.787C394.013 274.098 394.521 275.352 394.53 277.593C394.539 280.138 394.542 281.41 394.55 283.955C394.556 285.994 392.911 287.375 390.57 287.3C384.739 287.11 378.908 286.961 373.077 286.857C373.071 284.113 373.068 282.744 373.062 280C376.872 280.052 380.683 280.118 384.49 280.196C384.49 279.468 384.487 279.103 384.484 278.375C381.579 276.67 378.671 274.973 375.754 273.287C373.548 271.97 373.042 270.794 373.036 268.599H373.039Z" fill="#FFD655"/>
<path d="M396.993 287.524C396.961 278.16 396.927 268.795 396.895 259.43C400.225 259.43 403.555 259.43 406.886 259.43C406.921 268.933 406.958 278.439 406.993 287.941C403.66 287.795 400.326 287.654 396.993 287.524Z" fill="#FFD655"/>
<path d="M409.791 288.074C409.756 278.525 409.719 268.979 409.684 259.43H429.71C432.045 259.43 433.702 260.974 433.708 263.163C433.731 270.684 433.751 278.208 433.774 285.73C433.78 287.918 432.138 289.351 429.805 289.198C423.136 288.778 416.466 288.405 409.791 288.074ZM419.753 281.303C421.366 281.372 422.173 281.407 423.783 281.479C423.766 276.592 423.748 271.708 423.731 266.822C422.118 266.799 421.311 266.787 419.698 266.764C419.716 271.61 419.733 276.457 419.75 281.303H419.753Z" fill="#FFD655"/>
<path d="M456.398 267.418C457.037 265.816 457.358 265.01 458 263.397C458 261.809 458 261.015 458 259.428C450.851 259.428 443.702 259.428 436.552 259.428C436.578 269.503 436.607 279.581 436.633 289.657C443.759 290.166 450.883 290.729 458 291.342C458 288.15 458 286.553 458 283.364C454.196 283.113 450.388 282.877 446.581 282.653C446.581 280.956 446.578 280.105 446.575 278.408C449.851 278.569 453.129 278.733 456.404 278.903C456.404 275.724 456.404 274.137 456.404 270.958C453.126 270.858 449.845 270.76 446.566 270.665C446.566 269.284 446.564 268.594 446.561 267.214C449.842 267.28 453.123 267.346 456.404 267.418H456.398Z" fill="#FFD655"/>
<path d="M289.006 304.218C289.02 300.085 289.038 295.952 289.052 291.819C293.01 291.597 296.97 291.396 300.931 291.215C300.891 302.395 300.85 313.574 300.81 324.754C296.843 325.122 292.88 325.537 288.922 325.994C288.94 321.585 288.954 317.173 288.971 312.763C287.055 312.942 286.095 313.034 284.181 313.224C284.164 317.673 284.149 322.12 284.132 326.569C280.177 327.064 276.228 327.599 272.285 328.183C272.323 316.416 272.36 304.65 272.398 292.883C276.35 292.601 280.304 292.339 284.256 292.098C284.242 296.268 284.224 300.436 284.21 304.606C286.127 304.445 287.084 304.368 289 304.218H289.006Z" fill="#FFD655"/>
<path d="M332.985 290.232C332.968 301.067 332.951 311.899 332.933 322.734C324.952 323.024 316.99 323.464 309.026 324.054C306.184 324.275 304.224 322.731 304.232 320.3C304.267 310.556 304.302 300.811 304.334 291.067C308.314 290.9 312.298 290.753 316.282 290.626C316.259 298.855 316.236 307.084 316.21 315.316C318.112 315.209 319.063 315.16 320.965 315.068C320.985 306.874 321.008 298.683 321.029 290.488C325.012 290.382 328.999 290.296 332.985 290.232Z" fill="#FFD655"/>
<path d="M355.665 305.083C355.136 301.427 354.604 297.774 354.075 294.118C354.075 292.511 354.075 291.705 354.075 290.098C357.752 290.109 361.429 290.141 365.106 290.187C365.121 301.004 365.135 311.822 365.15 322.639C360.912 322.538 356.679 322.472 352.441 322.446C350.562 317.473 348.683 312.5 346.804 307.524C346.431 307.524 346.246 307.527 345.873 307.53C346.382 311.163 346.891 314.798 347.402 318.431C347.402 320.039 347.402 320.844 347.402 322.452C343.731 322.475 340.062 322.533 336.391 322.63C336.405 311.813 336.42 300.998 336.434 290.181C340.658 290.132 344.882 290.103 349.105 290.092C350.964 295.088 352.823 300.081 354.682 305.077C355.075 305.077 355.271 305.08 355.668 305.083H355.665Z" fill="#FFD655"/>
<path d="M368.607 322.745C368.59 311.91 368.573 301.073 368.552 290.238C376.505 290.382 384.455 290.598 392.402 290.888C395.183 290.995 397.155 292.798 397.161 295.231C397.19 303.595 397.219 311.959 397.247 320.326C397.256 322.76 395.296 324.301 392.509 324.083C384.545 323.487 376.583 323.044 368.601 322.748L368.607 322.745ZM380.518 315.083C382.443 315.178 383.406 315.227 385.328 315.336C385.311 309.863 385.296 304.392 385.282 298.919C383.36 298.841 382.4 298.806 380.477 298.74C380.492 304.188 380.506 309.635 380.521 315.083H380.518Z" fill="#FFD655"/>
<path d="M400.67 324.78C400.63 313.595 400.589 302.412 400.549 291.227C409.048 291.629 417.545 292.115 426.035 292.688C426.041 294.434 426.044 295.305 426.05 297.051C425.295 298.777 424.916 299.637 424.162 301.348C420.265 301.014 416.362 300.709 412.462 300.43C412.468 301.955 412.471 302.717 412.477 304.241C416.38 304.546 420.279 304.88 424.176 305.242C424.185 308.156 424.197 311.069 424.205 313.983C420.308 313.552 416.411 313.152 412.506 312.789C412.512 314.665 412.517 315.602 412.523 317.478C417.062 317.952 421.592 318.461 426.122 319.008C426.131 321.933 426.142 324.858 426.151 327.78C417.675 326.604 409.187 325.603 400.667 324.777L400.67 324.78Z" fill="#FFD655"/>
<path d="M456.994 325.882C455.907 322.974 455.364 321.53 454.274 318.665C454.881 318.596 455.439 318.346 455.91 317.972C456.815 317.253 457.405 316.074 457.405 314.9C457.405 309.942 457.405 304.983 457.405 300.025C457.405 297.263 455.456 295.124 452.695 294.865C444.774 294.134 436.85 293.478 428.917 292.895C428.955 304.664 428.993 316.433 429.03 328.203C432.994 328.79 436.948 329.419 440.897 330.092C440.889 326.325 440.88 322.56 440.871 318.792C441.825 318.927 442.3 318.999 443.254 319.137C444.335 323.112 445.401 327.093 446.462 331.073C450.316 331.775 454.164 332.517 458 333.302C458 331.416 458 330.472 458 328.588C457.598 327.501 457.396 326.96 456.994 325.879V325.882ZM445.563 310.31C443.678 310.068 442.736 309.95 440.848 309.723C440.842 307.008 440.84 305.651 440.834 302.935C442.722 303.134 443.664 303.235 445.552 303.444C445.558 306.191 445.558 307.563 445.563 310.31Z" fill="#FFD655"/>
<path d="M458 340.448C458 339.203 458 338.582 458 337.336C393.365 323.651 327.01 322.415 261.904 333.661C260.823 336.45 259.75 339.246 258.689 342.045C324.399 327.436 392.018 327.58 458 340.451V340.448Z" fill="#FFD655"/>
<path d="M243.179 295.417V304.955C246.012 304.598 247.429 304.428 250.268 304.095C250.262 309.965 250.256 315.835 250.248 321.706C252.708 318.55 255.203 315.427 257.732 312.326C256.214 316.206 254.72 320.098 253.234 323.989C252.225 326.638 251.225 329.293 250.236 331.948C251.864 331.637 252.676 331.485 254.306 331.188C254.306 331.531 254.306 331.7 254.306 332.043C254.301 335.678 254.295 339.314 254.289 342.952C255.87 338.741 257.466 334.539 259.079 330.34C260.285 327.216 260.886 325.666 262.092 322.591C260.319 322.859 259.432 322.994 257.663 323.273C259.131 319.471 260.617 315.677 262.121 311.889C262.129 308.855 262.135 305.82 262.144 302.786C264.422 302.553 265.561 302.438 267.839 302.219C268.605 300.333 268.986 299.395 269.753 297.525C269.758 295.759 269.761 294.876 269.767 293.113C260.898 293.786 252.037 294.554 243.185 295.414L243.179 295.417Z" fill="#FFD655"/>
<path d="M243 358.375V355.971C243 355.137 243.593 354.547 244.448 354.547H250.698V355.953L250.141 357.426H246.605V357.949L249.73 360.029C250.519 360.552 250.701 361.059 250.701 361.976V364.579C250.701 365.413 250.109 366.003 249.27 366.003H243V363.138H247.096V362.385L243.971 360.322C243.182 359.782 243 359.293 243 358.375Z" fill="#FFD655"/>
<path d="M256.68 358.703V354.547H260.265V366.003H256.68V361.568H255.231V366.003H251.647V354.547H255.231V358.703H256.68Z" fill="#FFD655"/>
<path d="M262.817 366.001C261.961 366.001 261.369 365.411 261.369 364.577V355.969C261.369 355.135 261.961 354.545 262.817 354.545H268.559C269.414 354.545 270.007 355.135 270.007 355.969V364.577C270.007 365.411 269.414 366.001 268.559 366.001H262.817ZM264.971 357.427V363.139H266.402V357.427H264.971Z" fill="#FFD655"/>
<path d="M278.324 354.547C279.162 354.547 279.755 355.137 279.755 355.971V360.472C279.755 361.013 279.345 361.617 278.801 361.763L279.937 364.579V366.003H276.419L275.448 362.436H274.725V366.003H271.123V354.547H278.327H278.324ZM274.722 357.426V359.569H276.153V357.426H274.722Z" fill="#FFD655"/>
<path d="M280.565 357.426V354.547H288.624V355.971L288.049 357.426H286.323V366H282.721V357.426H280.567H280.565Z" fill="#FFD655"/>
<path d="M297.014 357.426V354.547H305.074V355.971L304.498 357.426H302.772V366H299.17V357.426H297.017H297.014Z" fill="#FFD655"/>
<path d="M313.151 354.547C313.989 354.547 314.582 355.137 314.582 355.971V360.472C314.582 361.013 314.171 361.617 313.628 361.763L314.764 364.579V366.003H311.243L310.272 362.436H309.549V366.003H305.947V354.547H313.151ZM309.549 357.426V359.569H310.98V357.426H309.549Z" fill="#FFD655"/>
<path d="M323.165 354.547L324.775 364.579V366.003H321.173L320.959 363.696H319.381L319.149 366.003H315.565V364.579L317.175 354.547H323.162H323.165ZM320.699 360.828L320.369 357.426H319.973L319.644 360.828H320.696H320.699Z" fill="#FFD655"/>
<path d="M333.434 354.547V355.971L332.876 357.426H329.34V363.138H333.436V366.003H327.186C326.331 366.003 325.738 365.413 325.738 364.579V355.971C325.738 355.137 326.331 354.547 327.186 354.547H333.436H333.434Z" fill="#FFD655"/>
<path d="M339.478 354.547H342.898V355.971L341.566 359.948L343.176 364.579V366.003H339.591L338.62 361.568H337.961V366.003H334.376V354.547H337.961V358.703H338.62L339.475 354.547H339.478Z" fill="#FFD655"/>
<path d="M351.898 358.375V355.971C351.898 355.137 352.49 354.547 353.346 354.547H359.596V355.953L359.038 357.426H355.503V357.949L358.628 360.029C359.417 360.552 359.599 361.059 359.599 361.976V364.579C359.599 365.413 359.007 366.003 358.168 366.003H351.901V363.138H355.997V362.385L352.872 360.322C352.083 359.782 351.901 359.293 351.901 358.375H351.898Z" fill="#FFD655"/>
<path d="M360.316 357.426V354.547H368.376V355.971L367.801 357.426H366.075V366H362.473V357.426H360.319H360.316Z" fill="#FFD655"/>
<path d="M370.694 366.001C369.839 366.001 369.246 365.411 369.246 364.577V355.969C369.246 355.135 369.839 354.545 370.694 354.545H376.436C377.291 354.545 377.884 355.135 377.884 355.969V364.577C377.884 365.411 377.291 366.001 376.436 366.001H370.694ZM372.848 357.427V363.139H374.279V357.427H372.848Z" fill="#FFD655"/>
<path d="M386.201 354.547C387.04 354.547 387.632 355.137 387.632 355.971V360.472C387.632 361.013 387.222 361.617 386.678 361.763L387.814 364.579V366.003H384.293L383.322 362.436H382.599V366.003H378.997V354.547H386.201ZM382.599 357.426V359.569H384.03V357.426H382.599Z" fill="#FFD655"/>
<path d="M388.442 355.971V354.547H392.044L392.917 358.996H393.18L394.067 354.547H397.652V355.971L394.839 362.876V366.003H391.255V362.876L388.442 355.971Z" fill="#FFD655"/>
<path d="M398.306 357.426V354.547H406.365V355.971L405.79 357.426H404.064V366H400.462V357.426H398.308H398.306Z" fill="#FFD655"/>
<path d="M407.236 366.001V354.545H414.934V355.969L414.359 357.424H410.823V358.701H414.359V361.566H410.823V363.136H414.934V366.001H407.236Z" fill="#FFD655"/>
<path d="M415.882 354.547H419.467V363.138H423.086V366.003H415.882V354.547Z" fill="#FFD655"/>
<path d="M423.959 354.547H427.544V363.138H431.164V366.003H423.959V354.547Z" fill="#FFD655"/>
<path d="M432.034 366.001V354.545H439.732V355.969L439.157 357.424H435.621V358.701H439.157V361.566H435.621V363.136H439.732V366.001H432.034Z" fill="#FFD655"/>
<path d="M447.885 354.547C448.723 354.547 449.316 355.137 449.316 355.971V360.472C449.316 361.013 448.905 361.617 448.362 361.763L449.498 364.579V366.003H445.977L445.005 362.436H444.283V366.003H440.681V354.547H447.885ZM444.283 357.426V359.569H445.714V357.426H444.283Z" fill="#FFD655"/>
<path d="M450.302 358.375V355.971C450.302 355.137 450.894 354.547 451.75 354.547H458V355.953L457.442 357.426H453.906V357.949L457.032 360.029C457.821 360.552 458.003 361.059 458.003 361.976V364.579C458.003 365.413 457.41 366.003 456.572 366.003H450.304V363.138H454.401V362.385L451.276 360.322C450.487 359.782 450.304 359.293 450.304 358.375H450.302Z" fill="#FFD655"/>
</g>
<defs>
<clipPath id="clip0_3211_19366">
<rect width="426" height="148" fill="white" transform="translate(129 514)"/>
</clipPath>
<clipPath id="clip1_3211_19366">
<rect width="215" height="266" fill="white" transform="translate(243 100)"/>
</clipPath>
</defs>
</svg>
