<svg width="700" height="545" viewBox="0 0 700 545" fill="none" xmlns="http://www.w3.org/2000/svg">
<rect width="700" height="545" fill="#3F2E42"/>
<path d="M86.92 113.12H71.2V92H130V102.44L125.8 113.12H113.2V176H86.92V113.12ZM162.132 176H135.972V92H162.132V176ZM183.834 113.12H168.114V92H226.914V102.44L222.714 113.12H210.114V176H183.834V113.12ZM232.886 176V92H259.046V155H285.446V176H232.886ZM347.64 176H291.48V92H347.64V102.44L343.44 113.12H317.64V122.48H343.44V143.48H317.64V155H347.64V176Z" fill="white"/>
<g style="mix-blend-mode:overlay" filter="url(#filter0_d_3223_21989)">
<rect x="68" y="415" width="139" height="59" rx="8" fill="white" fill-opacity="0.9" shape-rendering="crispEdges"/>
</g>
<path d="M87.696 256.448C84.5227 256.448 81.7227 256.037 79.296 255.216C76.8693 254.395 74.704 253.2 72.8 251.632L74.256 248.776C75.6 249.821 76.9067 250.68 78.176 251.352C79.4827 252.024 80.9013 252.528 82.432 252.864C83.9627 253.163 85.6987 253.312 87.64 253.312C91.112 253.312 93.7253 252.64 95.48 251.296C97.2347 249.915 98.112 248.104 98.112 245.864C98.112 243.923 97.496 242.448 96.264 241.44C95.0693 240.395 92.96 239.573 89.936 238.976L84.224 237.8C80.6027 237.053 77.896 235.859 76.104 234.216C74.3493 232.573 73.472 230.333 73.472 227.496C73.472 225.181 74.0693 223.165 75.264 221.448C76.4587 219.731 78.12 218.405 80.248 217.472C82.376 216.539 84.84 216.072 87.64 216.072C90.44 216.072 92.9787 216.501 95.256 217.36C97.5707 218.181 99.5493 219.413 101.192 221.056L99.792 223.856C98.0373 222.213 96.1893 221.037 94.248 220.328C92.3067 219.581 90.104 219.208 87.64 219.208C84.392 219.208 81.816 219.955 79.912 221.448C78.008 222.904 77.056 224.883 77.056 227.384C77.056 229.4 77.6533 230.968 78.848 232.088C80.08 233.208 82.0587 234.048 84.784 234.608L90.552 235.784C94.3973 236.568 97.216 237.725 99.008 239.256C100.8 240.749 101.696 242.896 101.696 245.696C101.696 247.824 101.117 249.709 99.96 251.352C98.84 252.957 97.2347 254.208 95.144 255.104C93.0533 256 90.5707 256.448 87.696 256.448ZM118.848 256.448C115.562 256.448 113.061 255.571 111.344 253.816C109.664 252.024 108.824 249.28 108.824 245.584V227.944H112.24V245.36C112.24 248.197 112.818 250.269 113.976 251.576C115.133 252.883 116.906 253.536 119.296 253.536C121.946 253.536 124.074 252.677 125.68 250.96C127.322 249.205 128.144 246.891 128.144 244.016V227.944H131.56V256H128.2V249.392H128.928C128.144 251.669 126.856 253.424 125.064 254.656C123.309 255.851 121.237 256.448 118.848 256.448ZM154.091 256.448C151.477 256.448 149.237 255.795 147.371 254.488C145.541 253.144 144.309 251.296 143.675 248.944H144.291V256H140.875V214.784H144.291V234.888H143.675C144.309 232.573 145.541 230.763 147.371 229.456C149.237 228.112 151.477 227.44 154.091 227.44C156.629 227.44 158.813 228.037 160.643 229.232C162.509 230.389 163.947 232.051 164.955 234.216C166 236.344 166.523 238.939 166.523 242C166.523 244.987 166 247.563 164.955 249.728C163.909 251.893 162.453 253.555 160.587 254.712C158.757 255.869 156.592 256.448 154.091 256.448ZM153.587 253.536C156.461 253.536 158.757 252.565 160.475 250.624C162.192 248.645 163.051 245.771 163.051 242C163.051 238.229 162.192 235.355 160.475 233.376C158.757 231.36 156.461 230.352 153.587 230.352C150.749 230.352 148.472 231.341 146.755 233.32C145.075 235.299 144.235 238.173 144.235 241.944C144.235 245.715 145.075 248.589 146.755 250.568C148.472 252.547 150.749 253.536 153.587 253.536ZM173.961 256V214.784H177.377V234.44H176.704C177.489 232.163 178.814 230.427 180.681 229.232C182.547 228.037 184.713 227.44 187.177 227.44C190.574 227.44 193.075 228.336 194.681 230.128C196.323 231.92 197.145 234.608 197.145 238.192V256H193.729V238.472C193.729 235.635 193.169 233.581 192.049 232.312C190.929 231.043 189.137 230.408 186.673 230.408C183.873 230.408 181.614 231.267 179.897 232.984C178.217 234.701 177.377 236.979 177.377 239.816V256H173.961ZM218.376 256.448C214.12 256.448 210.741 255.179 208.24 252.64C205.776 250.101 204.544 246.573 204.544 242.056C204.544 239.069 205.085 236.493 206.168 234.328C207.288 232.163 208.837 230.483 210.816 229.288C212.794 228.056 215.09 227.44 217.704 227.44C220.205 227.44 222.314 227.981 224.032 229.064C225.749 230.109 227.074 231.621 228.008 233.6C228.941 235.541 229.408 237.856 229.408 240.544V242.112H207.008V239.648H227.28L226.328 240.376C226.328 237.203 225.6 234.72 224.144 232.928C222.688 231.099 220.522 230.184 217.648 230.184C214.586 230.184 212.197 231.248 210.48 233.376C208.762 235.467 207.904 238.248 207.904 241.72V242.112C207.904 245.845 208.818 248.683 210.648 250.624C212.514 252.565 215.109 253.536 218.432 253.536C220.149 253.536 221.754 253.275 223.248 252.752C224.741 252.229 226.178 251.333 227.56 250.064L228.96 252.584C227.765 253.816 226.216 254.768 224.312 255.44C222.408 256.112 220.429 256.448 218.376 256.448ZM247.382 256.448C244.843 256.448 242.64 255.869 240.774 254.712C238.907 253.555 237.47 251.893 236.462 249.728C235.454 247.563 234.95 244.968 234.95 241.944C234.95 238.92 235.454 236.344 236.462 234.216C237.507 232.051 238.963 230.389 240.83 229.232C242.696 228.037 244.88 227.44 247.382 227.44C249.958 227.44 252.179 228.112 254.046 229.456C255.95 230.8 257.2 232.629 257.798 234.944H257.126L257.686 227.944H260.99C260.878 229.027 260.766 230.091 260.654 231.136C260.579 232.181 260.542 233.208 260.542 234.216V256H257.126V249H257.742C257.144 251.315 255.894 253.144 253.99 254.488C252.123 255.795 249.92 256.448 247.382 256.448ZM247.83 253.536C250.704 253.536 252.982 252.547 254.662 250.568C256.342 248.589 257.182 245.715 257.182 241.944C257.182 238.173 256.342 235.299 254.662 233.32C252.982 231.341 250.704 230.352 247.83 230.352C244.955 230.352 242.659 231.341 240.942 233.32C239.262 235.299 238.422 238.173 238.422 241.944C238.422 245.715 239.262 248.589 240.942 250.568C242.659 252.547 244.955 253.536 247.83 253.536ZM280.412 256.448C277.91 256.448 275.726 255.869 273.86 254.712C271.993 253.555 270.556 251.893 269.548 249.728C268.54 247.563 268.036 244.968 268.036 241.944C268.036 238.92 268.54 236.344 269.548 234.216C270.556 232.051 271.993 230.389 273.86 229.232C275.726 228.037 277.91 227.44 280.412 227.44C282.988 227.44 285.209 228.112 287.076 229.456C288.98 230.763 290.249 232.573 290.884 234.888H290.212V214.784H293.628V256H290.268V248.944H290.884C290.249 251.296 288.98 253.144 287.076 254.488C285.209 255.795 282.988 256.448 280.412 256.448ZM280.86 253.536C283.697 253.536 285.974 252.547 287.692 250.568C289.446 248.589 290.324 245.715 290.324 241.944C290.324 238.173 289.446 235.299 287.692 233.32C285.974 231.341 283.697 230.352 280.86 230.352C278.022 230.352 275.745 231.341 274.028 233.32C272.348 235.299 271.508 238.173 271.508 241.944C271.508 245.715 272.348 248.589 274.028 250.568C275.745 252.547 278.022 253.536 280.86 253.536ZM302.914 256V227.944H306.33V256H302.914ZM302.354 221.056V216.8H306.946V221.056H302.354ZM315.656 256V234.216C315.656 233.208 315.618 232.181 315.544 231.136C315.469 230.091 315.357 229.027 315.208 227.944H318.568L319.072 234.384H318.4C319.221 232.144 320.546 230.427 322.376 229.232C324.205 228.037 326.333 227.44 328.76 227.44C332.082 227.44 334.584 228.317 336.264 230.072C337.981 231.827 338.84 234.571 338.84 238.304V256H335.424V238.584C335.424 235.709 334.845 233.637 333.688 232.368C332.53 231.061 330.738 230.408 328.312 230.408C325.474 230.408 323.216 231.267 321.536 232.984C319.893 234.701 319.072 237.016 319.072 239.928V256H315.656ZM360.127 268.488C357.775 268.488 355.572 268.171 353.519 267.536C351.503 266.901 349.692 265.949 348.087 264.68L349.319 262.048C350.513 262.907 351.652 263.579 352.735 264.064C353.855 264.587 355.012 264.96 356.207 265.184C357.401 265.445 358.689 265.576 360.071 265.576C362.908 265.576 365.055 264.811 366.511 263.28C367.967 261.787 368.695 259.621 368.695 256.784V247.88H369.311C368.713 250.232 367.463 252.08 365.559 253.424C363.655 254.731 361.415 255.384 358.839 255.384C356.263 255.384 354.023 254.824 352.119 253.704C350.252 252.547 348.796 250.923 347.751 248.832C346.743 246.704 346.239 244.221 346.239 241.384C346.239 238.547 346.743 236.083 347.751 233.992C348.796 231.901 350.252 230.296 352.119 229.176C354.023 228.019 356.263 227.44 358.839 227.44C361.415 227.44 363.655 228.112 365.559 229.456C367.463 230.763 368.713 232.611 369.311 235L368.695 234.384L369.199 227.944H372.559C372.409 229.027 372.297 230.091 372.223 231.136C372.148 232.181 372.111 233.208 372.111 234.216V256.28C372.111 260.312 371.084 263.355 369.031 265.408C367.015 267.461 364.047 268.488 360.127 268.488ZM359.231 252.472C362.143 252.472 364.439 251.501 366.119 249.56C367.836 247.619 368.695 244.893 368.695 241.384C368.695 237.912 367.836 235.205 366.119 233.264C364.439 231.323 362.143 230.352 359.231 230.352C356.319 230.352 354.004 231.323 352.287 233.264C350.569 235.205 349.711 237.912 349.711 241.384C349.711 244.893 350.569 247.619 352.287 249.56C354.004 251.501 356.319 252.472 359.231 252.472Z" fill="white"/>
<path d="M72.816 351V328.44H81.84C84.2293 328.44 86.0747 328.952 87.376 329.976C88.6773 331 89.328 332.451 89.328 334.328C89.328 335.736 88.9013 336.909 88.048 337.848C87.216 338.787 86.0533 339.405 84.56 339.704V339.256C86.224 339.448 87.5253 340.024 88.464 340.984C89.424 341.923 89.904 343.192 89.904 344.792C89.904 346.797 89.232 348.333 87.888 349.4C86.5653 350.467 84.688 351 82.256 351H72.816ZM75.408 348.856H82C83.6213 348.856 84.9013 348.547 85.84 347.928C86.8 347.288 87.28 346.232 87.28 344.76C87.28 343.267 86.8 342.211 85.84 341.592C84.9013 340.952 83.6213 340.632 82 340.632H75.408V348.856ZM75.408 338.52H81.456C83.2053 338.52 84.5173 338.179 85.392 337.496C86.2667 336.813 86.704 335.832 86.704 334.552C86.704 333.229 86.2667 332.237 85.392 331.576C84.5173 330.893 83.2053 330.552 81.456 330.552H75.408V338.52ZM100.87 351.288C99.334 351.288 97.99 350.957 96.838 350.296C95.7073 349.613 94.8327 348.653 94.214 347.416C93.5953 346.157 93.286 344.675 93.286 342.968C93.286 341.24 93.5953 339.757 94.214 338.52C94.8327 337.283 95.7073 336.333 96.838 335.672C97.99 334.989 99.334 334.648 100.87 334.648C102.427 334.648 103.771 334.989 104.902 335.672C106.054 336.333 106.939 337.283 107.558 338.52C108.198 339.757 108.518 341.24 108.518 342.968C108.518 344.675 108.198 346.157 107.558 347.416C106.939 348.653 106.054 349.613 104.902 350.296C103.771 350.957 102.427 351.288 100.87 351.288ZM100.87 349.176C102.406 349.176 103.622 348.653 104.518 347.608C105.414 346.541 105.862 344.995 105.862 342.968C105.862 340.92 105.403 339.373 104.486 338.328C103.59 337.261 102.385 336.728 100.87 336.728C99.3553 336.728 98.15 337.261 97.254 338.328C96.358 339.373 95.91 340.92 95.91 342.968C95.91 344.995 96.358 346.541 97.254 347.608C98.15 348.653 99.3553 349.176 100.87 349.176ZM118.639 351.288C117.231 351.288 115.994 350.957 114.927 350.296C113.861 349.613 113.029 348.653 112.431 347.416C111.855 346.179 111.567 344.696 111.567 342.968C111.567 341.219 111.855 339.725 112.431 338.488C113.029 337.251 113.861 336.301 114.927 335.64C115.994 334.979 117.231 334.648 118.639 334.648C120.09 334.648 121.338 335.011 122.383 335.736C123.45 336.461 124.165 337.443 124.527 338.68H124.143V327.448H126.735V351H124.175V347.16H124.527C124.186 348.44 123.482 349.453 122.415 350.2C121.349 350.925 120.09 351.288 118.639 351.288ZM119.183 349.176C120.698 349.176 121.914 348.653 122.831 347.608C123.749 346.541 124.207 344.995 124.207 342.968C124.207 340.92 123.749 339.373 122.831 338.328C121.914 337.261 120.698 336.728 119.183 336.728C117.669 336.728 116.453 337.261 115.535 338.328C114.639 339.373 114.191 340.92 114.191 342.968C114.191 344.995 114.639 346.541 115.535 347.608C116.453 348.653 117.669 349.176 119.183 349.176ZM131.107 358.264L130.499 356.12C131.501 355.885 132.333 355.608 132.995 355.288C133.677 354.989 134.243 354.584 134.691 354.072C135.139 353.56 135.523 352.92 135.843 352.152L136.675 350.264L136.611 351.352L129.603 334.936H132.419L138.211 349.048H137.379L143.107 334.936H145.827L138.403 352.344C137.976 353.368 137.507 354.221 136.995 354.904C136.483 355.608 135.928 356.173 135.331 356.6C134.755 357.048 134.115 357.4 133.411 357.656C132.707 357.912 131.939 358.115 131.107 358.264ZM162.786 351.288C161.208 351.288 160.003 350.84 159.171 349.944C158.339 349.027 157.923 347.651 157.923 345.816V336.952H154.787V334.936H157.923V330.552L160.515 329.816V334.936H165.123V336.952H160.515V345.528C160.515 346.808 160.728 347.725 161.155 348.28C161.603 348.813 162.264 349.08 163.139 349.08C163.544 349.08 163.907 349.048 164.227 348.984C164.547 348.899 164.835 348.803 165.091 348.696V350.872C164.792 351 164.429 351.096 164.003 351.16C163.597 351.245 163.192 351.288 162.786 351.288ZM175.258 351.288C172.74 351.288 170.756 350.563 169.306 349.112C167.855 347.64 167.13 345.603 167.13 343C167.13 341.315 167.45 339.853 168.09 338.616C168.73 337.357 169.626 336.387 170.778 335.704C171.93 335 173.252 334.648 174.746 334.648C176.218 334.648 177.455 334.957 178.458 335.576C179.46 336.195 180.228 337.08 180.762 338.232C181.295 339.363 181.562 340.707 181.562 342.264V343.224H169.114V341.592H179.866L179.322 342.008C179.322 340.301 178.938 338.968 178.17 338.008C177.402 337.048 176.26 336.568 174.746 336.568C173.146 336.568 171.898 337.133 171.002 338.264C170.106 339.373 169.658 340.877 169.658 342.776V343.064C169.658 345.069 170.148 346.595 171.13 347.64C172.132 348.664 173.53 349.176 175.322 349.176C176.282 349.176 177.178 349.037 178.01 348.76C178.863 348.461 179.674 347.981 180.442 347.32L181.338 349.144C180.634 349.827 179.738 350.36 178.65 350.744C177.583 351.107 176.452 351.288 175.258 351.288ZM183.227 351L190.427 342.072V343.352L183.611 334.936H186.747L191.899 341.496H190.971L196.091 334.936H199.195L192.475 343.32V342.136L199.611 351H196.443L190.939 343.992H191.899L186.331 351H183.227ZM208.224 351.288C206.645 351.288 205.44 350.84 204.608 349.944C203.776 349.027 203.36 347.651 203.36 345.816V336.952H200.224V334.936H203.36V330.552L205.952 329.816V334.936H210.56V336.952H205.952V345.528C205.952 346.808 206.165 347.725 206.592 348.28C207.04 348.813 207.701 349.08 208.576 349.08C208.981 349.08 209.344 349.048 209.664 348.984C209.984 348.899 210.272 348.803 210.528 348.696V350.872C210.229 351 209.867 351.096 209.44 351.16C209.035 351.245 208.629 351.288 208.224 351.288Z" fill="white"/>
<path d="M95.324 454V434.26H103.556C105.684 434.26 107.317 434.708 108.456 435.604C109.613 436.5 110.192 437.76 110.192 439.384C110.192 440.597 109.828 441.615 109.1 442.436C108.372 443.257 107.373 443.808 106.104 444.088V443.668C107.56 443.855 108.689 444.368 109.492 445.208C110.295 446.048 110.696 447.159 110.696 448.54C110.696 450.295 110.099 451.648 108.904 452.6C107.728 453.533 106.067 454 103.92 454H95.324ZM98.152 451.732H103.612C104.937 451.732 105.973 451.48 106.72 450.976C107.485 450.472 107.868 449.623 107.868 448.428C107.868 447.233 107.485 446.384 106.72 445.88C105.973 445.376 104.937 445.124 103.612 445.124H98.152V451.732ZM98.152 442.884H103.108C104.527 442.884 105.591 442.613 106.3 442.072C107.009 441.531 107.364 440.737 107.364 439.692C107.364 438.647 107.009 437.853 106.3 437.312C105.591 436.771 104.527 436.5 103.108 436.5H98.152V442.884ZM119.252 454.252C117.553 454.252 116.275 453.795 115.416 452.88C114.576 451.947 114.156 450.519 114.156 448.596V439.888H116.984V448.54C116.984 449.716 117.227 450.584 117.712 451.144C118.197 451.704 118.935 451.984 119.924 451.984C121.044 451.984 121.949 451.611 122.64 450.864C123.331 450.117 123.676 449.128 123.676 447.896V439.888H126.504V454H123.76V450.976H124.124C123.732 452.021 123.107 452.833 122.248 453.412C121.389 453.972 120.391 454.252 119.252 454.252ZM136.134 454.252C134.604 454.252 133.446 453.841 132.662 453.02C131.878 452.18 131.486 450.929 131.486 449.268V442.072H128.742V439.888H131.486V436.164L134.314 435.408V439.888H138.234V442.072H134.314V449.016C134.314 450.061 134.501 450.808 134.874 451.256C135.248 451.704 135.789 451.928 136.498 451.928C136.853 451.928 137.161 451.9 137.422 451.844C137.702 451.769 137.954 451.685 138.178 451.592V453.888C137.898 454 137.572 454.084 137.198 454.14C136.825 454.215 136.47 454.252 136.134 454.252ZM145.759 454.252C144.229 454.252 143.071 453.841 142.287 453.02C141.503 452.18 141.111 450.929 141.111 449.268V442.072H138.367V439.888H141.111V436.164L143.939 435.408V439.888H147.859V442.072H143.939V449.016C143.939 450.061 144.126 450.808 144.499 451.256C144.873 451.704 145.414 451.928 146.123 451.928C146.478 451.928 146.786 451.9 147.047 451.844C147.327 451.769 147.579 451.685 147.803 451.592V453.888C147.523 454 147.197 454.084 146.823 454.14C146.45 454.215 146.095 454.252 145.759 454.252ZM156.354 454.252C154.954 454.252 153.741 453.963 152.714 453.384C151.688 452.787 150.894 451.947 150.334 450.864C149.774 449.763 149.494 448.456 149.494 446.944C149.494 445.432 149.774 444.135 150.334 443.052C150.894 441.951 151.688 441.111 152.714 440.532C153.741 439.935 154.954 439.636 156.354 439.636C157.754 439.636 158.968 439.935 159.994 440.532C161.04 441.111 161.842 441.951 162.402 443.052C162.981 444.135 163.27 445.432 163.27 446.944C163.27 448.456 162.981 449.763 162.402 450.864C161.842 451.947 161.04 452.787 159.994 453.384C158.968 453.963 157.754 454.252 156.354 454.252ZM156.354 452.04C157.586 452.04 158.566 451.611 159.294 450.752C160.022 449.893 160.386 448.624 160.386 446.944C160.386 445.264 160.022 444.004 159.294 443.164C158.566 442.305 157.586 441.876 156.354 441.876C155.141 441.876 154.17 442.305 153.442 443.164C152.714 444.004 152.35 445.264 152.35 446.944C152.35 448.624 152.705 449.893 153.414 450.752C154.142 451.611 155.122 452.04 156.354 452.04ZM166.576 454V443.276C166.576 442.735 166.548 442.184 166.492 441.624C166.455 441.045 166.408 440.467 166.352 439.888H169.096L169.348 442.856H169.012C169.441 441.811 170.104 441.017 171 440.476C171.896 439.916 172.932 439.636 174.108 439.636C175.769 439.636 177.02 440.093 177.86 441.008C178.719 441.923 179.148 443.341 179.148 445.264V454H176.32V445.432C176.32 444.181 176.068 443.285 175.564 442.744C175.079 442.184 174.332 441.904 173.324 441.904C172.129 441.904 171.177 442.277 170.468 443.024C169.759 443.752 169.404 444.741 169.404 445.992V454H166.576Z" fill="white"/>
<path d="M512.333 131C512.333 132.473 513.527 133.667 515 133.667C516.473 133.667 517.667 132.473 517.667 131C517.667 129.527 516.473 128.333 515 128.333C513.527 128.333 512.333 129.527 512.333 131ZM366 131V131.5H368.483V131V130.5H366V131ZM373.45 131V131.5H378.417V131V130.5H373.45V131ZM383.383 131V131.5H388.35V131V130.5H383.383V131ZM393.317 131V131.5H398.283V131V130.5H393.317V131ZM403.25 131V131.5H408.217V131V130.5H403.25V131ZM413.183 131V131.5H418.15V131V130.5H413.183V131ZM423.117 131V131.5H428.083V131V130.5H423.117V131ZM433.05 131V131.5H438.017V131V130.5H433.05V131ZM442.983 131V131.5H447.95V131V130.5H442.983V131ZM452.917 131V131.5H457.883V131V130.5H452.917V131ZM462.85 131V131.5H467.817V131V130.5H462.85V131ZM472.783 131V131.5H477.75V131V130.5H472.783V131ZM482.717 131V131.5H487.683V131V130.5H482.717V131ZM492.65 131V131.5H497.617V131V130.5H492.65V131ZM502.583 131V131.5H507.55V131V130.5H502.583V131ZM512.517 131V131.5H515V131V130.5H512.517V131Z" fill="#FFD655"/>
<path d="M512.333 235C512.333 236.473 513.527 237.667 515 237.667C516.473 237.667 517.667 236.473 517.667 235C517.667 233.527 516.473 232.333 515 232.333C513.527 232.333 512.333 233.527 512.333 235ZM394 235L394 235.5L396.521 235.5L396.521 235L396.521 234.5L394 234.5L394 235ZM401.562 235L401.562 235.5L406.604 235.5L406.604 235L406.604 234.5L401.563 234.5L401.562 235ZM411.646 235L411.646 235.5L416.687 235.5L416.687 235L416.687 234.5L411.646 234.5L411.646 235ZM421.729 235L421.729 235.5L426.771 235.5L426.771 235L426.771 234.5L421.729 234.5L421.729 235ZM431.812 235L431.812 235.5L436.854 235.5L436.854 235L436.854 234.5L431.813 234.5L431.812 235ZM441.896 235L441.896 235.5L446.938 235.5L446.938 235L446.938 234.5L441.896 234.5L441.896 235ZM451.979 235L451.979 235.5L457.021 235.5L457.021 235L457.021 234.5L451.979 234.5L451.979 235ZM462.063 235L462.063 235.5L467.104 235.5L467.104 235L467.104 234.5L462.063 234.5L462.063 235ZM472.146 235L472.146 235.5L477.187 235.5L477.188 235L477.188 234.5L472.146 234.5L472.146 235ZM482.229 235L482.229 235.5L487.271 235.5L487.271 235L487.271 234.5L482.229 234.5L482.229 235ZM492.312 235L492.312 235.5L497.354 235.5L497.354 235L497.354 234.5L492.312 234.5L492.312 235ZM502.396 235L502.396 235.5L507.437 235.5L507.437 235L507.437 234.5L502.396 234.5L502.396 235ZM512.479 235L512.479 235.5L515 235.5L515 235L515 234.5L512.479 234.5L512.479 235Z" fill="#FFD655"/>
<path d="M512.333 339C512.333 340.473 513.527 341.667 515 341.667C516.473 341.667 517.667 340.473 517.667 339C517.667 337.527 516.473 336.333 515 336.333C513.527 336.333 512.333 337.527 512.333 339ZM231 339L231 339.5L233.536 339.5L233.536 339L233.536 338.5L231 338.5L231 339ZM238.607 339L238.607 339.5L243.679 339.5L243.679 339L243.679 338.5L238.607 338.5L238.607 339ZM248.75 339L248.75 339.5L253.821 339.5L253.821 339L253.821 338.5L248.75 338.5L248.75 339ZM258.893 339L258.893 339.5L263.964 339.5L263.964 339L263.964 338.5L258.893 338.5L258.893 339ZM269.036 339L269.036 339.5L274.107 339.5L274.107 339L274.107 338.5L269.036 338.5L269.036 339ZM279.179 339L279.179 339.5L284.25 339.5L284.25 339L284.25 338.5L279.179 338.5L279.179 339ZM289.321 339L289.321 339.5L294.393 339.5L294.393 339L294.393 338.5L289.321 338.5L289.321 339ZM299.464 339L299.464 339.5L304.536 339.5L304.536 339L304.536 338.5L299.464 338.5L299.464 339ZM309.607 339L309.607 339.5L314.679 339.5L314.679 339L314.679 338.5L309.607 338.5L309.607 339ZM319.75 339L319.75 339.5L324.821 339.5L324.821 339L324.821 338.5L319.75 338.5L319.75 339ZM329.893 339L329.893 339.5L334.964 339.5L334.964 339L334.964 338.5L329.893 338.5L329.893 339ZM340.036 339L340.036 339.5L345.107 339.5L345.107 339L345.107 338.5L340.036 338.5L340.036 339ZM350.179 339L350.179 339.5L355.25 339.5L355.25 339L355.25 338.5L350.179 338.5L350.179 339ZM360.321 339L360.321 339.5L365.393 339.5L365.393 339L365.393 338.5L360.321 338.5L360.321 339ZM370.464 339L370.464 339.5L375.536 339.5L375.536 339L375.536 338.5L370.464 338.5L370.464 339ZM380.607 339L380.607 339.5L385.679 339.5L385.679 339L385.679 338.5L380.607 338.5L380.607 339ZM390.75 339L390.75 339.5L395.821 339.5L395.821 339L395.821 338.5L390.75 338.5L390.75 339ZM400.893 339L400.893 339.5L405.964 339.5L405.964 339L405.964 338.5L400.893 338.5L400.893 339ZM411.036 339L411.036 339.5L416.107 339.5L416.107 339L416.107 338.5L411.036 338.5L411.036 339ZM421.179 339L421.179 339.5L426.25 339.5L426.25 339L426.25 338.5L421.179 338.5L421.179 339ZM431.321 339L431.321 339.5L436.393 339.5L436.393 339L436.393 338.5L431.321 338.5L431.321 339ZM441.464 339L441.464 339.5L446.536 339.5L446.536 339L446.536 338.5L441.464 338.5L441.464 339ZM451.607 339L451.607 339.5L456.679 339.5L456.679 339L456.679 338.5L451.607 338.5L451.607 339ZM461.75 339L461.75 339.5L466.821 339.5L466.821 339L466.821 338.5L461.75 338.5L461.75 339ZM471.893 339L471.893 339.5L476.964 339.5L476.964 339L476.964 338.5L471.893 338.5L471.893 339ZM482.036 339L482.036 339.5L487.107 339.5L487.107 339L487.107 338.5L482.036 338.5L482.036 339ZM492.179 339L492.179 339.5L497.25 339.5L497.25 339L497.25 338.5L492.179 338.5L492.179 339ZM502.321 339L502.321 339.5L507.393 339.5L507.393 339L507.393 338.5L502.321 338.5L502.321 339ZM512.464 339L512.464 339.5L515 339.5L515 339L515 338.5L512.464 338.5L512.464 339Z" fill="#FFD655"/>
<path d="M527.672 127L530.36 110.08H534.2L537.776 122.488H536.984L544.472 110.08H548.336L545.648 127H541.64L543.272 116.632H544.328L537.872 127H535.4L532.208 116.632H533.312L531.656 127H527.672ZM554.979 127.264C553.539 127.264 552.339 126.992 551.379 126.448C550.419 125.888 549.739 125.104 549.339 124.096C548.939 123.072 548.843 121.864 549.051 120.472C549.259 119.16 549.699 118.064 550.371 117.184C551.043 116.304 551.883 115.648 552.891 115.216C553.915 114.768 555.051 114.544 556.299 114.544C557.755 114.544 558.955 114.824 559.899 115.384C560.843 115.928 561.515 116.704 561.915 117.712C562.315 118.72 562.403 119.928 562.179 121.336C561.971 122.648 561.531 123.744 560.859 124.624C560.203 125.504 559.371 126.168 558.363 126.616C557.355 127.048 556.227 127.264 554.979 127.264ZM555.219 124.096C555.891 124.096 556.467 123.856 556.947 123.376C557.427 122.88 557.755 122.12 557.931 121.096C558.123 119.864 558.035 118.992 557.667 118.48C557.299 117.968 556.755 117.712 556.035 117.712C555.347 117.712 554.763 117.952 554.283 118.432C553.819 118.912 553.499 119.672 553.323 120.712C553.131 121.928 553.211 122.8 553.563 123.328C553.931 123.84 554.483 124.096 555.219 124.096ZM563.383 127L566.191 109.336H570.463L567.655 127H563.383ZM576.706 127.264C575.266 127.264 574.066 126.992 573.105 126.448C572.146 125.888 571.466 125.104 571.066 124.096C570.666 123.072 570.57 121.864 570.778 120.472C570.986 119.16 571.426 118.064 572.098 117.184C572.77 116.304 573.61 115.648 574.618 115.216C575.642 114.768 576.778 114.544 578.026 114.544C579.482 114.544 580.682 114.824 581.626 115.384C582.57 115.928 583.242 116.704 583.642 117.712C584.042 118.72 584.13 119.928 583.906 121.336C583.698 122.648 583.258 123.744 582.586 124.624C581.93 125.504 581.098 126.168 580.09 126.616C579.082 127.048 577.954 127.264 576.706 127.264ZM576.946 124.096C577.618 124.096 578.194 123.856 578.674 123.376C579.154 122.88 579.482 122.12 579.658 121.096C579.85 119.864 579.762 118.992 579.394 118.48C579.026 117.968 578.482 117.712 577.762 117.712C577.074 117.712 576.49 117.952 576.01 118.432C575.546 118.912 575.226 119.672 575.05 120.712C574.858 121.928 574.938 122.8 575.29 123.328C575.658 123.84 576.21 124.096 576.946 124.096ZM591.233 127.264C589.473 127.264 588.225 126.832 587.489 125.968C586.769 125.088 586.529 123.856 586.769 122.272L587.465 117.952H585.185L585.689 114.808H587.969L588.425 111.928L592.865 110.92L592.241 114.808H595.217L594.713 117.952H591.737L591.089 122.104C590.977 122.776 591.065 123.24 591.353 123.496C591.657 123.736 592.041 123.856 592.505 123.856C592.761 123.856 592.977 123.84 593.153 123.808C593.345 123.76 593.569 123.696 593.825 123.616L593.297 126.904C592.929 127.048 592.569 127.144 592.217 127.192C591.881 127.24 591.553 127.264 591.233 127.264ZM528.152 153L530.84 136.08H537.56C539.432 136.08 540.792 136.52 541.64 137.4C542.504 138.28 542.808 139.512 542.552 141.096C542.408 142.024 542.064 142.824 541.52 143.496C540.976 144.168 540.28 144.68 539.432 145.032C538.584 145.368 537.648 145.536 536.624 145.536L536.768 145.224H537.224C537.88 145.224 538.432 145.392 538.88 145.728C539.328 146.048 539.664 146.576 539.888 147.312L541.64 153H539.552L537.872 147.408C537.664 146.688 537.312 146.224 536.816 146.016C536.32 145.792 535.664 145.68 534.848 145.68H531.296L530.144 153H528.152ZM531.536 144.12H536.384C537.6 144.12 538.56 143.848 539.264 143.304C539.984 142.76 540.424 141.992 540.584 141C540.76 139.912 540.552 139.096 539.96 138.552C539.384 137.992 538.464 137.712 537.2 137.712H532.544L531.536 144.12ZM549.911 153.216C548.583 153.216 547.479 152.952 546.599 152.424C545.735 151.88 545.127 151.112 544.775 150.12C544.423 149.112 544.351 147.936 544.559 146.592C544.767 145.36 545.151 144.312 545.711 143.448C546.287 142.568 547.015 141.896 547.895 141.432C548.791 140.968 549.807 140.736 550.943 140.736C552.047 140.736 552.959 140.976 553.679 141.456C554.415 141.936 554.927 142.608 555.215 143.472C555.519 144.32 555.583 145.312 555.407 146.448L555.311 147.144H545.975L546.167 145.92H554.231L553.799 146.256C553.991 144.944 553.839 143.936 553.343 143.232C552.847 142.528 552.015 142.176 550.847 142.176C549.999 142.176 549.271 142.368 548.663 142.752C548.055 143.12 547.567 143.632 547.199 144.288C546.831 144.928 546.583 145.656 546.455 146.472L546.383 147.048C546.175 148.52 546.383 149.656 547.007 150.456C547.647 151.24 548.679 151.632 550.103 151.632C550.807 151.632 551.495 151.528 552.167 151.32C552.839 151.096 553.463 150.736 554.039 150.24L554.711 151.608C554.071 152.12 553.335 152.52 552.503 152.808C551.671 153.08 550.807 153.216 549.911 153.216ZM561.886 158.352C560.862 158.352 559.934 158.224 559.102 157.968C558.27 157.712 557.542 157.32 556.918 156.792L557.614 155.328C558.046 155.68 558.486 155.96 558.934 156.168C559.382 156.376 559.854 156.528 560.35 156.624C560.846 156.736 561.382 156.792 561.958 156.792C563.174 156.792 564.126 156.48 564.814 155.856C565.502 155.232 565.942 154.344 566.134 153.192L566.686 149.664H566.95C566.566 150.608 565.95 151.352 565.102 151.896C564.27 152.44 563.31 152.712 562.222 152.712C561.118 152.712 560.182 152.456 559.414 151.944C558.662 151.416 558.126 150.68 557.806 149.736C557.502 148.792 557.446 147.688 557.638 146.424C557.942 144.584 558.646 143.176 559.75 142.2C560.87 141.224 562.23 140.736 563.83 140.736C564.934 140.736 565.846 141.008 566.566 141.552C567.286 142.096 567.71 142.848 567.838 143.808L567.646 143.568L568.294 140.952H570.166C570.038 141.416 569.918 141.888 569.806 142.368C569.694 142.832 569.606 143.288 569.542 143.736L568.078 152.928C567.806 154.72 567.15 156.072 566.11 156.984C565.07 157.896 563.662 158.352 561.886 158.352ZM562.678 151.152C563.846 151.152 564.822 150.768 565.606 150C566.406 149.216 566.91 148.128 567.118 146.736C567.342 145.312 567.174 144.216 566.614 143.448C566.054 142.68 565.198 142.296 564.046 142.296C562.878 142.296 561.894 142.68 561.094 143.448C560.294 144.216 559.782 145.304 559.558 146.712C559.334 148.12 559.502 149.216 560.062 150C560.638 150.768 561.51 151.152 562.678 151.152ZM576.227 153.216C574.819 153.216 573.779 152.816 573.107 152.016C572.435 151.216 572.227 149.976 572.483 148.296L573.635 140.952H575.579L574.427 148.2C574.251 149.4 574.355 150.272 574.739 150.816C575.123 151.344 575.795 151.608 576.755 151.608C577.843 151.608 578.739 151.264 579.443 150.576C580.147 149.872 580.587 148.944 580.763 147.792L581.843 140.952H583.787L581.891 153H579.995L580.403 150.288H580.763C580.315 151.216 579.691 151.936 578.891 152.448C578.107 152.96 577.219 153.216 576.227 153.216ZM585.663 153L588.471 135.336H590.415L587.607 153H585.663ZM596.133 153.216C595.029 153.216 594.101 152.96 593.349 152.448C592.597 151.92 592.069 151.168 591.765 150.192C591.461 149.216 591.413 148.04 591.621 146.664C591.941 144.728 592.661 143.256 593.781 142.248C594.901 141.24 596.245 140.736 597.813 140.736C598.869 140.736 599.757 141.008 600.477 141.552C601.197 142.096 601.637 142.832 601.797 143.76L601.533 143.808L602.229 140.952H604.101C603.989 141.416 603.869 141.888 603.741 142.368C603.629 142.832 603.541 143.288 603.477 143.736L602.013 153H600.069L600.525 150.12H600.885C600.469 151.08 599.853 151.84 599.037 152.4C598.237 152.944 597.269 153.216 596.133 153.216ZM596.661 151.632C597.765 151.632 598.717 151.24 599.517 150.456C600.317 149.672 600.837 148.528 601.077 147.024C601.333 145.456 601.173 144.28 600.597 143.496C600.021 142.696 599.149 142.296 597.981 142.296C596.861 142.296 595.901 142.688 595.101 143.472C594.317 144.256 593.805 145.4 593.565 146.904C593.325 148.472 593.485 149.656 594.045 150.456C594.605 151.24 595.477 151.632 596.661 151.632ZM605.724 153L607.188 143.856C607.268 143.376 607.332 142.888 607.38 142.392C607.428 141.896 607.46 141.416 607.476 140.952H609.372L609.18 143.88L608.796 143.904C609.068 143.184 609.428 142.592 609.876 142.128C610.34 141.664 610.868 141.32 611.46 141.096C612.052 140.856 612.652 140.736 613.26 140.736C613.468 140.736 613.66 140.744 613.836 140.76C614.028 140.776 614.212 140.808 614.388 140.856L614.052 142.608C613.86 142.528 613.66 142.48 613.452 142.464C613.26 142.432 613.036 142.416 612.78 142.416C612.06 142.416 611.42 142.568 610.86 142.872C610.3 143.176 609.844 143.592 609.492 144.12C609.14 144.648 608.916 145.24 608.82 145.896L607.692 153H605.724Z" fill="#FFD655"/>
<path d="M527.672 231L530.36 214.08H534.2L537.776 226.488H536.984L544.472 214.08H548.336L545.648 231H541.64L543.272 220.632H544.328L537.872 231H535.4L532.208 220.632H533.312L531.656 231H527.672ZM553.227 231.264C551.691 231.264 550.587 230.816 549.915 229.92C549.243 229.008 549.035 227.712 549.291 226.032L550.443 218.808H554.715L553.563 226.056C553.451 226.712 553.515 227.2 553.755 227.52C553.995 227.84 554.403 228 554.979 228C555.635 228 556.163 227.784 556.563 227.352C556.963 226.904 557.219 226.32 557.331 225.6L558.411 218.808H562.683L560.739 231H556.587L556.923 228.816H557.283C556.819 229.6 556.251 230.208 555.579 230.64C554.907 231.056 554.123 231.264 553.227 231.264ZM563.407 231L566.215 213.336H570.487L567.679 231H563.407ZM570.321 231L572.265 218.808H576.537L574.593 231H570.321ZM572.433 217.08L573.033 213.24H577.521L576.897 217.08H572.433ZM582.179 231.264C581.091 231.264 580.099 231.16 579.203 230.952C578.323 230.728 577.603 230.432 577.043 230.064L578.147 227.28C578.739 227.6 579.403 227.864 580.139 228.072C580.891 228.28 581.635 228.384 582.371 228.384C582.979 228.384 583.435 228.296 583.739 228.12C584.043 227.944 584.219 227.704 584.267 227.4C584.315 227.144 584.259 226.936 584.099 226.776C583.939 226.616 583.691 226.504 583.355 226.44L581.123 226.104C579.971 225.928 579.155 225.52 578.675 224.88C578.195 224.224 578.035 223.392 578.195 222.384C578.323 221.552 578.651 220.848 579.179 220.272C579.707 219.696 580.387 219.264 581.219 218.976C582.051 218.688 582.971 218.544 583.979 218.544C584.891 218.544 585.747 218.64 586.547 218.832C587.347 219.008 588.027 219.304 588.587 219.72L587.387 222.408C586.939 222.12 586.395 221.88 585.755 221.688C585.131 221.496 584.539 221.4 583.979 221.4C583.323 221.4 582.835 221.496 582.515 221.688C582.195 221.88 582.011 222.128 581.963 222.432C581.931 222.656 581.979 222.856 582.107 223.032C582.235 223.208 582.467 223.32 582.803 223.368L585.059 223.728C586.227 223.904 587.051 224.304 587.531 224.928C588.027 225.536 588.195 226.36 588.035 227.4C587.891 228.264 587.547 228.984 587.003 229.56C586.475 230.136 585.795 230.568 584.963 230.856C584.131 231.128 583.203 231.264 582.179 231.264ZM589.376 231L592.184 213.336H596.456L595.256 220.944H594.872C595.352 220.144 595.976 219.544 596.744 219.144C597.512 218.744 598.36 218.544 599.288 218.544C600.728 218.544 601.76 218.984 602.384 219.864C603.008 220.744 603.176 222.096 602.888 223.92L601.76 231H597.488L598.616 223.896C598.728 223.144 598.664 222.608 598.424 222.288C598.184 221.968 597.8 221.808 597.272 221.808C596.584 221.808 596.016 222.024 595.568 222.456C595.136 222.888 594.864 223.456 594.752 224.16L593.648 231H589.376ZM528.152 257L530.84 240.08H532.832L530.408 255.272H538.976L538.688 257H528.152ZM541.014 257L542.91 244.952H544.854L542.958 257H541.014ZM543.126 242.216L543.486 240.032H545.862L545.502 242.216H543.126ZM551.269 262.352C550.245 262.352 549.317 262.224 548.485 261.968C547.653 261.712 546.925 261.32 546.301 260.792L546.997 259.328C547.429 259.68 547.869 259.96 548.317 260.168C548.765 260.376 549.237 260.528 549.733 260.624C550.229 260.736 550.765 260.792 551.341 260.792C552.557 260.792 553.509 260.48 554.197 259.856C554.885 259.232 555.325 258.344 555.517 257.192L556.069 253.664H556.333C555.949 254.608 555.333 255.352 554.485 255.896C553.653 256.44 552.693 256.712 551.605 256.712C550.501 256.712 549.565 256.456 548.797 255.944C548.045 255.416 547.509 254.68 547.189 253.736C546.885 252.792 546.829 251.688 547.021 250.424C547.325 248.584 548.029 247.176 549.133 246.2C550.253 245.224 551.613 244.736 553.213 244.736C554.317 244.736 555.229 245.008 555.949 245.552C556.669 246.096 557.093 246.848 557.221 247.808L557.029 247.568L557.677 244.952H559.549C559.421 245.416 559.301 245.888 559.189 246.368C559.077 246.832 558.989 247.288 558.925 247.736L557.461 256.928C557.189 258.72 556.533 260.072 555.493 260.984C554.453 261.896 553.045 262.352 551.269 262.352ZM552.061 255.152C553.229 255.152 554.205 254.768 554.989 254C555.789 253.216 556.293 252.128 556.501 250.736C556.725 249.312 556.557 248.216 555.997 247.448C555.437 246.68 554.581 246.296 553.429 246.296C552.261 246.296 551.277 246.68 550.477 247.448C549.677 248.216 549.165 249.304 548.941 250.712C548.717 252.12 548.885 253.216 549.445 254C550.021 254.768 550.893 255.152 552.061 255.152ZM561.194 257L564.002 239.336H565.946L564.602 247.616H564.266C564.746 246.672 565.402 245.96 566.234 245.48C567.082 244.984 568.042 244.736 569.114 244.736C570.602 244.736 571.634 245.16 572.21 246.008C572.786 246.84 572.946 248.056 572.69 249.656L571.538 257H569.594L570.746 249.68C570.938 248.48 570.842 247.624 570.458 247.112C570.074 246.584 569.394 246.32 568.418 246.32C567.282 246.32 566.346 246.664 565.61 247.352C564.874 248.04 564.418 248.944 564.242 250.064L563.138 257H561.194ZM579.696 257.216C578.4 257.216 577.488 256.872 576.96 256.184C576.448 255.496 576.296 254.472 576.504 253.112L577.536 246.464H575.184L575.424 244.952H577.8L578.328 241.664L580.344 241.112L579.744 244.952H583.2L582.936 246.464H579.48L578.496 252.872C578.336 253.816 578.384 254.504 578.64 254.936C578.912 255.352 579.376 255.56 580.032 255.56C580.336 255.56 580.608 255.536 580.848 255.488C581.088 255.424 581.312 255.352 581.52 255.272L581.28 256.904C581.024 257 580.768 257.072 580.512 257.12C580.256 257.184 579.984 257.216 579.696 257.216Z" fill="#FFD655"/>
<path d="M527.672 335L530.36 318.08H534.2L537.776 330.488H536.984L544.472 318.08H548.336L545.648 335H541.64L543.272 324.632H544.328L537.872 335H535.4L532.208 324.632H533.312L531.656 335H527.672ZM553.227 335.264C551.691 335.264 550.587 334.816 549.915 333.92C549.243 333.008 549.035 331.712 549.291 330.032L550.443 322.808H554.715L553.563 330.056C553.451 330.712 553.515 331.2 553.755 331.52C553.995 331.84 554.403 332 554.979 332C555.635 332 556.163 331.784 556.563 331.352C556.963 330.904 557.219 330.32 557.331 329.6L558.411 322.808H562.683L560.739 335H556.587L556.923 332.816H557.283C556.819 333.6 556.251 334.208 555.579 334.64C554.907 335.056 554.123 335.264 553.227 335.264ZM563.407 335L566.215 317.336H570.487L567.679 335H563.407ZM570.321 335L572.265 322.808H576.537L574.593 335H570.321ZM572.433 321.08L573.033 317.24H577.521L576.897 321.08H572.433ZM582.179 335.264C581.091 335.264 580.099 335.16 579.203 334.952C578.323 334.728 577.603 334.432 577.043 334.064L578.147 331.28C578.739 331.6 579.403 331.864 580.139 332.072C580.891 332.28 581.635 332.384 582.371 332.384C582.979 332.384 583.435 332.296 583.739 332.12C584.043 331.944 584.219 331.704 584.267 331.4C584.315 331.144 584.259 330.936 584.099 330.776C583.939 330.616 583.691 330.504 583.355 330.44L581.123 330.104C579.971 329.928 579.155 329.52 578.675 328.88C578.195 328.224 578.035 327.392 578.195 326.384C578.323 325.552 578.651 324.848 579.179 324.272C579.707 323.696 580.387 323.264 581.219 322.976C582.051 322.688 582.971 322.544 583.979 322.544C584.891 322.544 585.747 322.64 586.547 322.832C587.347 323.008 588.027 323.304 588.587 323.72L587.387 326.408C586.939 326.12 586.395 325.88 585.755 325.688C585.131 325.496 584.539 325.4 583.979 325.4C583.323 325.4 582.835 325.496 582.515 325.688C582.195 325.88 582.011 326.128 581.963 326.432C581.931 326.656 581.979 326.856 582.107 327.032C582.235 327.208 582.467 327.32 582.803 327.368L585.059 327.728C586.227 327.904 587.051 328.304 587.531 328.928C588.027 329.536 588.195 330.36 588.035 331.4C587.891 332.264 587.547 332.984 587.003 333.56C586.475 334.136 585.795 334.568 584.963 334.856C584.131 335.128 583.203 335.264 582.179 335.264ZM589.376 335L592.184 317.336H596.456L595.256 324.944H594.872C595.352 324.144 595.976 323.544 596.744 323.144C597.512 322.744 598.36 322.544 599.288 322.544C600.728 322.544 601.76 322.984 602.384 323.864C603.008 324.744 603.176 326.096 602.888 327.92L601.76 335H597.488L598.616 327.896C598.728 327.144 598.664 326.608 598.424 326.288C598.184 325.968 597.8 325.808 597.272 325.808C596.584 325.808 596.016 326.024 595.568 326.456C595.136 326.888 594.864 327.456 594.752 328.16L593.648 335H589.376ZM528.152 361L530.84 344.08H537.56C539.432 344.08 540.792 344.52 541.64 345.4C542.504 346.28 542.808 347.512 542.552 349.096C542.408 350.024 542.064 350.824 541.52 351.496C540.976 352.168 540.28 352.68 539.432 353.032C538.584 353.368 537.648 353.536 536.624 353.536L536.768 353.224H537.224C537.88 353.224 538.432 353.392 538.88 353.728C539.328 354.048 539.664 354.576 539.888 355.312L541.64 361H539.552L537.872 355.408C537.664 354.688 537.312 354.224 536.816 354.016C536.32 353.792 535.664 353.68 534.848 353.68H531.296L530.144 361H528.152ZM531.536 352.12H536.384C537.6 352.12 538.56 351.848 539.264 351.304C539.984 350.76 540.424 349.992 540.584 349C540.76 347.912 540.552 347.096 539.96 346.552C539.384 345.992 538.464 345.712 537.2 345.712H532.544L531.536 352.12ZM549.911 361.216C548.583 361.216 547.479 360.952 546.599 360.424C545.735 359.88 545.127 359.112 544.775 358.12C544.423 357.112 544.351 355.936 544.559 354.592C544.767 353.36 545.151 352.312 545.711 351.448C546.287 350.568 547.015 349.896 547.895 349.432C548.791 348.968 549.807 348.736 550.943 348.736C552.047 348.736 552.959 348.976 553.679 349.456C554.415 349.936 554.927 350.608 555.215 351.472C555.519 352.32 555.583 353.312 555.407 354.448L555.311 355.144H545.975L546.167 353.92H554.231L553.799 354.256C553.991 352.944 553.839 351.936 553.343 351.232C552.847 350.528 552.015 350.176 550.847 350.176C549.999 350.176 549.271 350.368 548.663 350.752C548.055 351.12 547.567 351.632 547.199 352.288C546.831 352.928 546.583 353.656 546.455 354.472L546.383 355.048C546.175 356.52 546.383 357.656 547.007 358.456C547.647 359.24 548.679 359.632 550.103 359.632C550.807 359.632 551.495 359.528 552.167 359.32C552.839 359.096 553.463 358.736 554.039 358.24L554.711 359.608C554.071 360.12 553.335 360.52 552.503 360.808C551.671 361.08 550.807 361.216 549.911 361.216ZM561.886 366.352C560.862 366.352 559.934 366.224 559.102 365.968C558.27 365.712 557.542 365.32 556.918 364.792L557.614 363.328C558.046 363.68 558.486 363.96 558.934 364.168C559.382 364.376 559.854 364.528 560.35 364.624C560.846 364.736 561.382 364.792 561.958 364.792C563.174 364.792 564.126 364.48 564.814 363.856C565.502 363.232 565.942 362.344 566.134 361.192L566.686 357.664H566.95C566.566 358.608 565.95 359.352 565.102 359.896C564.27 360.44 563.31 360.712 562.222 360.712C561.118 360.712 560.182 360.456 559.414 359.944C558.662 359.416 558.126 358.68 557.806 357.736C557.502 356.792 557.446 355.688 557.638 354.424C557.942 352.584 558.646 351.176 559.75 350.2C560.87 349.224 562.23 348.736 563.83 348.736C564.934 348.736 565.846 349.008 566.566 349.552C567.286 350.096 567.71 350.848 567.838 351.808L567.646 351.568L568.294 348.952H570.166C570.038 349.416 569.918 349.888 569.806 350.368C569.694 350.832 569.606 351.288 569.542 351.736L568.078 360.928C567.806 362.72 567.15 364.072 566.11 364.984C565.07 365.896 563.662 366.352 561.886 366.352ZM562.678 359.152C563.846 359.152 564.822 358.768 565.606 358C566.406 357.216 566.91 356.128 567.118 354.736C567.342 353.312 567.174 352.216 566.614 351.448C566.054 350.68 565.198 350.296 564.046 350.296C562.878 350.296 561.894 350.68 561.094 351.448C560.294 352.216 559.782 353.304 559.558 354.712C559.334 356.12 559.502 357.216 560.062 358C560.638 358.768 561.51 359.152 562.678 359.152ZM576.227 361.216C574.819 361.216 573.779 360.816 573.107 360.016C572.435 359.216 572.227 357.976 572.483 356.296L573.635 348.952H575.579L574.427 356.2C574.251 357.4 574.355 358.272 574.739 358.816C575.123 359.344 575.795 359.608 576.755 359.608C577.843 359.608 578.739 359.264 579.443 358.576C580.147 357.872 580.587 356.944 580.763 355.792L581.843 348.952H583.787L581.891 361H579.995L580.403 358.288H580.763C580.315 359.216 579.691 359.936 578.891 360.448C578.107 360.96 577.219 361.216 576.227 361.216ZM585.663 361L588.471 343.336H590.415L587.607 361H585.663ZM596.133 361.216C595.029 361.216 594.101 360.96 593.349 360.448C592.597 359.92 592.069 359.168 591.765 358.192C591.461 357.216 591.413 356.04 591.621 354.664C591.941 352.728 592.661 351.256 593.781 350.248C594.901 349.24 596.245 348.736 597.813 348.736C598.869 348.736 599.757 349.008 600.477 349.552C601.197 350.096 601.637 350.832 601.797 351.76L601.533 351.808L602.229 348.952H604.101C603.989 349.416 603.869 349.888 603.741 350.368C603.629 350.832 603.541 351.288 603.477 351.736L602.013 361H600.069L600.525 358.12H600.885C600.469 359.08 599.853 359.84 599.037 360.4C598.237 360.944 597.269 361.216 596.133 361.216ZM596.661 359.632C597.765 359.632 598.717 359.24 599.517 358.456C600.317 357.672 600.837 356.528 601.077 355.024C601.333 353.456 601.173 352.28 600.597 351.496C600.021 350.696 599.149 350.296 597.981 350.296C596.861 350.296 595.901 350.688 595.101 351.472C594.317 352.256 593.805 353.4 593.565 354.904C593.325 356.472 593.485 357.656 594.045 358.456C594.605 359.24 595.477 359.632 596.661 359.632ZM605.724 361L607.188 351.856C607.268 351.376 607.332 350.888 607.38 350.392C607.428 349.896 607.46 349.416 607.476 348.952H609.372L609.18 351.88L608.796 351.904C609.068 351.184 609.428 350.592 609.876 350.128C610.34 349.664 610.868 349.32 611.46 349.096C612.052 348.856 612.652 348.736 613.26 348.736C613.468 348.736 613.66 348.744 613.836 348.76C614.028 348.776 614.212 348.808 614.388 348.856L614.052 350.608C613.86 350.528 613.66 350.48 613.452 350.464C613.26 350.432 613.036 350.416 612.78 350.416C612.06 350.416 611.42 350.568 610.86 350.872C610.3 351.176 609.844 351.592 609.492 352.12C609.14 352.648 608.916 353.24 608.82 353.896L607.692 361H605.724Z" fill="#FFD655"/>
<path d="M512.333 444C512.333 445.473 513.527 446.667 515 446.667C516.473 446.667 517.667 445.473 517.667 444C517.667 442.527 516.473 441.333 515 441.333C513.527 441.333 512.333 442.527 512.333 444ZM231 444L231 444.5L233.536 444.5L233.536 444L233.536 443.5L231 443.5L231 444ZM238.607 444L238.607 444.5L243.679 444.5L243.679 444L243.679 443.5L238.607 443.5L238.607 444ZM248.75 444L248.75 444.5L253.821 444.5L253.821 444L253.821 443.5L248.75 443.5L248.75 444ZM258.893 444L258.893 444.5L263.964 444.5L263.964 444L263.964 443.5L258.893 443.5L258.893 444ZM269.036 444L269.036 444.5L274.107 444.5L274.107 444L274.107 443.5L269.036 443.5L269.036 444ZM279.179 444L279.179 444.5L284.25 444.5L284.25 444L284.25 443.5L279.179 443.5L279.179 444ZM289.321 444L289.321 444.5L294.393 444.5L294.393 444L294.393 443.5L289.321 443.5L289.321 444ZM299.464 444L299.464 444.5L304.536 444.5L304.536 444L304.536 443.5L299.464 443.5L299.464 444ZM309.607 444L309.607 444.5L314.679 444.5L314.679 444L314.679 443.5L309.607 443.5L309.607 444ZM319.75 444L319.75 444.5L324.821 444.5L324.821 444L324.821 443.5L319.75 443.5L319.75 444ZM329.893 444L329.893 444.5L334.964 444.5L334.964 444L334.964 443.5L329.893 443.5L329.893 444ZM340.036 444L340.036 444.5L345.107 444.5L345.107 444L345.107 443.5L340.036 443.5L340.036 444ZM350.179 444L350.179 444.5L355.25 444.5L355.25 444L355.25 443.5L350.179 443.5L350.179 444ZM360.321 444L360.321 444.5L365.393 444.5L365.393 444L365.393 443.5L360.321 443.5L360.321 444ZM370.464 444L370.464 444.5L375.536 444.5L375.536 444L375.536 443.5L370.464 443.5L370.464 444ZM380.607 444L380.607 444.5L385.679 444.5L385.679 444L385.679 443.5L380.607 443.5L380.607 444ZM390.75 444L390.75 444.5L395.821 444.5L395.821 444L395.821 443.5L390.75 443.5L390.75 444ZM400.893 444L400.893 444.5L405.964 444.5L405.964 444L405.964 443.5L400.893 443.5L400.893 444ZM411.036 444L411.036 444.5L416.107 444.5L416.107 444L416.107 443.5L411.036 443.5L411.036 444ZM421.179 444L421.179 444.5L426.25 444.5L426.25 444L426.25 443.5L421.179 443.5L421.179 444ZM431.321 444L431.321 444.5L436.393 444.5L436.393 444L436.393 443.5L431.321 443.5L431.321 444ZM441.464 444L441.464 444.5L446.536 444.5L446.536 444L446.536 443.5L441.464 443.5L441.464 444ZM451.607 444L451.607 444.5L456.679 444.5L456.679 444L456.679 443.5L451.607 443.5L451.607 444ZM461.75 444L461.75 444.5L466.821 444.5L466.821 444L466.821 443.5L461.75 443.5L461.75 444ZM471.893 444L471.893 444.5L476.964 444.5L476.964 444L476.964 443.5L471.893 443.5L471.893 444ZM482.036 444L482.036 444.5L487.107 444.5L487.107 444L487.107 443.5L482.036 443.5L482.036 444ZM492.179 444L492.179 444.5L497.25 444.5L497.25 444L497.25 443.5L492.179 443.5L492.179 444ZM502.321 444L502.321 444.5L507.393 444.5L507.393 444L507.393 443.5L502.321 443.5L502.321 444ZM512.464 444L512.464 444.5L515 444.5L515 444L515 443.5L512.464 443.5L512.464 444Z" fill="#FFD655"/>
<path d="M527.672 440L530.36 423.08H534.2L537.776 435.488H536.984L544.472 423.08H548.336L545.648 440H541.64L543.272 429.632H544.328L537.872 440H535.4L532.208 429.632H533.312L531.656 440H527.672ZM553.227 440.264C551.691 440.264 550.587 439.816 549.915 438.92C549.243 438.008 549.035 436.712 549.291 435.032L550.443 427.808H554.715L553.563 435.056C553.451 435.712 553.515 436.2 553.755 436.52C553.995 436.84 554.403 437 554.979 437C555.635 437 556.163 436.784 556.563 436.352C556.963 435.904 557.219 435.32 557.331 434.6L558.411 427.808H562.683L560.739 440H556.587L556.923 437.816H557.283C556.819 438.6 556.251 439.208 555.579 439.64C554.907 440.056 554.123 440.264 553.227 440.264ZM563.407 440L566.215 422.336H570.487L567.679 440H563.407ZM570.321 440L572.265 427.808H576.537L574.593 440H570.321ZM572.433 426.08L573.033 422.24H577.521L576.897 426.08H572.433ZM582.179 440.264C581.091 440.264 580.099 440.16 579.203 439.952C578.323 439.728 577.603 439.432 577.043 439.064L578.147 436.28C578.739 436.6 579.403 436.864 580.139 437.072C580.891 437.28 581.635 437.384 582.371 437.384C582.979 437.384 583.435 437.296 583.739 437.12C584.043 436.944 584.219 436.704 584.267 436.4C584.315 436.144 584.259 435.936 584.099 435.776C583.939 435.616 583.691 435.504 583.355 435.44L581.123 435.104C579.971 434.928 579.155 434.52 578.675 433.88C578.195 433.224 578.035 432.392 578.195 431.384C578.323 430.552 578.651 429.848 579.179 429.272C579.707 428.696 580.387 428.264 581.219 427.976C582.051 427.688 582.971 427.544 583.979 427.544C584.891 427.544 585.747 427.64 586.547 427.832C587.347 428.008 588.027 428.304 588.587 428.72L587.387 431.408C586.939 431.12 586.395 430.88 585.755 430.688C585.131 430.496 584.539 430.4 583.979 430.4C583.323 430.4 582.835 430.496 582.515 430.688C582.195 430.88 582.011 431.128 581.963 431.432C581.931 431.656 581.979 431.856 582.107 432.032C582.235 432.208 582.467 432.32 582.803 432.368L585.059 432.728C586.227 432.904 587.051 433.304 587.531 433.928C588.027 434.536 588.195 435.36 588.035 436.4C587.891 437.264 587.547 437.984 587.003 438.56C586.475 439.136 585.795 439.568 584.963 439.856C584.131 440.128 583.203 440.264 582.179 440.264ZM589.376 440L592.184 422.336H596.456L595.256 429.944H594.872C595.352 429.144 595.976 428.544 596.744 428.144C597.512 427.744 598.36 427.544 599.288 427.544C600.728 427.544 601.76 427.984 602.384 428.864C603.008 429.744 603.176 431.096 602.888 432.92L601.76 440H597.488L598.616 432.896C598.728 432.144 598.664 431.608 598.424 431.288C598.184 430.968 597.8 430.808 597.272 430.808C596.584 430.808 596.016 431.024 595.568 431.456C595.136 431.888 594.864 432.456 594.752 433.16L593.648 440H589.376ZM533.84 466.216C532.496 466.216 531.296 466.056 530.24 465.736C529.2 465.4 528.328 464.976 527.624 464.464L528.44 462.88C529.208 463.376 530.016 463.768 530.864 464.056C531.728 464.328 532.76 464.464 533.96 464.464C535.352 464.464 536.432 464.208 537.2 463.696C537.968 463.168 538.424 462.48 538.568 461.632C538.696 460.848 538.552 460.224 538.136 459.76C537.72 459.28 536.944 458.968 535.808 458.824L533.552 458.464C531.984 458.24 530.856 457.712 530.168 456.88C529.496 456.032 529.264 454.96 529.472 453.664C529.616 452.704 529.984 451.872 530.576 451.168C531.184 450.448 531.984 449.888 532.976 449.488C533.968 449.072 535.104 448.864 536.384 448.864C537.536 448.864 538.576 449.032 539.504 449.368C540.448 449.688 541.216 450.112 541.808 450.64L541.016 452.224C540.392 451.696 539.688 451.296 538.904 451.024C538.12 450.752 537.216 450.616 536.192 450.616C534.848 450.616 533.76 450.896 532.928 451.456C532.096 452.016 531.6 452.768 531.44 453.712C531.312 454.544 531.456 455.216 531.872 455.728C532.288 456.24 533.072 456.576 534.224 456.736L536.48 457.072C538.064 457.296 539.184 457.792 539.84 458.56C540.512 459.328 540.744 460.376 540.536 461.704C540.408 462.552 540.048 463.32 539.456 464.008C538.88 464.696 538.112 465.24 537.152 465.64C536.208 466.024 535.104 466.216 533.84 466.216ZM548.505 466.216C547.177 466.216 546.073 465.952 545.193 465.424C544.329 464.88 543.721 464.112 543.369 463.12C543.017 462.112 542.945 460.936 543.153 459.592C543.361 458.36 543.745 457.312 544.305 456.448C544.881 455.568 545.609 454.896 546.489 454.432C547.385 453.968 548.401 453.736 549.537 453.736C550.641 453.736 551.553 453.976 552.273 454.456C553.009 454.936 553.521 455.608 553.809 456.472C554.113 457.32 554.177 458.312 554.001 459.448L553.905 460.144H544.569L544.761 458.92H552.825L552.393 459.256C552.585 457.944 552.433 456.936 551.937 456.232C551.441 455.528 550.609 455.176 549.441 455.176C548.593 455.176 547.865 455.368 547.257 455.752C546.649 456.12 546.161 456.632 545.793 457.288C545.425 457.928 545.177 458.656 545.049 459.472L544.977 460.048C544.769 461.52 544.977 462.656 545.601 463.456C546.241 464.24 547.273 464.632 548.697 464.632C549.401 464.632 550.089 464.528 550.761 464.32C551.433 464.096 552.057 463.736 552.633 463.24L553.305 464.608C552.665 465.12 551.929 465.52 551.097 465.808C550.265 466.08 549.401 466.216 548.505 466.216ZM555.944 466L557.408 456.736C557.472 456.288 557.52 455.832 557.552 455.368C557.6 454.888 557.632 454.416 557.648 453.952H559.544L559.352 456.592H559.016C559.48 455.648 560.088 454.936 560.84 454.456C561.608 453.976 562.488 453.736 563.48 453.736C564.472 453.736 565.264 453.984 565.856 454.48C566.448 454.976 566.76 455.712 566.792 456.688H566.456C566.888 455.808 567.52 455.096 568.352 454.552C569.184 454.008 570.104 453.736 571.112 453.736C572.456 453.736 573.416 454.136 573.992 454.936C574.584 455.72 574.744 456.976 574.472 458.704L573.32 466H571.376L572.552 458.584C572.728 457.448 572.648 456.624 572.312 456.112C571.992 455.584 571.384 455.32 570.488 455.32C569.48 455.32 568.64 455.672 567.968 456.376C567.296 457.064 566.864 457.992 566.672 459.16L565.592 466H563.648L564.824 458.584C565 457.448 564.928 456.624 564.608 456.112C564.288 455.584 563.672 455.32 562.76 455.32C561.752 455.32 560.912 455.672 560.24 456.376C559.584 457.064 559.16 457.992 558.968 459.16L557.888 466H555.944ZM577.014 466L578.91 453.952H580.854L578.958 466H577.014ZM579.126 451.216L579.486 449.032H581.862L581.502 451.216H579.126ZM588.853 466.216C587.781 466.216 586.885 465.944 586.165 465.4C585.461 464.856 585.029 464.112 584.869 463.168L585.109 463.12L584.653 466H582.733L585.541 448.336H587.485L586.141 456.76L585.781 456.808C586.197 455.864 586.805 455.12 587.605 454.576C588.421 454.016 589.397 453.736 590.533 453.736C591.653 453.736 592.581 454 593.317 454.528C594.069 455.04 594.597 455.784 594.901 456.76C595.205 457.72 595.245 458.888 595.021 460.264C594.717 462.2 594.005 463.68 592.885 464.704C591.765 465.712 590.421 466.216 588.853 466.216ZM588.685 464.632C589.805 464.632 590.757 464.24 591.541 463.456C592.325 462.672 592.837 461.528 593.077 460.024C593.333 458.456 593.181 457.28 592.621 456.496C592.061 455.696 591.189 455.296 590.005 455.296C588.901 455.296 587.949 455.688 587.149 456.472C586.349 457.256 585.829 458.4 585.589 459.904C585.349 461.472 585.509 462.656 586.069 463.456C586.645 464.24 587.517 464.632 588.685 464.632ZM602.236 466.216C601.036 466.216 600.036 465.96 599.236 465.448C598.436 464.936 597.868 464.192 597.532 463.216C597.212 462.24 597.156 461.056 597.364 459.664C597.572 458.384 597.972 457.304 598.564 456.424C599.172 455.528 599.924 454.856 600.82 454.408C601.716 453.96 602.724 453.736 603.844 453.736C605.06 453.736 606.06 453.992 606.844 454.504C607.644 455.016 608.204 455.76 608.523 456.736C608.86 457.696 608.916 458.872 608.692 460.264C608.484 461.544 608.076 462.632 607.468 463.528C606.876 464.408 606.132 465.08 605.236 465.544C604.356 465.992 603.356 466.216 602.236 466.216ZM602.38 464.632C603.484 464.632 604.428 464.24 605.212 463.456C606.012 462.672 606.532 461.528 606.772 460.024C607.028 458.456 606.868 457.28 606.292 456.496C605.716 455.696 604.852 455.296 603.7 455.296C602.58 455.296 601.628 455.688 600.844 456.472C600.06 457.256 599.548 458.4 599.308 459.904C599.068 461.472 599.22 462.656 599.764 463.456C600.324 464.24 601.196 464.632 602.38 464.632ZM610.834 466L613.642 448.336H615.586L612.778 466H610.834ZM621.305 466.216C620.201 466.216 619.273 465.96 618.521 465.448C617.769 464.92 617.241 464.168 616.937 463.192C616.633 462.216 616.585 461.04 616.793 459.664C617.113 457.728 617.833 456.256 618.953 455.248C620.073 454.24 621.417 453.736 622.985 453.736C624.041 453.736 624.929 454.008 625.649 454.552C626.369 455.096 626.809 455.832 626.969 456.76H626.705L628.049 448.336H629.993L627.185 466H625.265L625.721 463.12H626.057C625.641 464.08 625.025 464.84 624.209 465.4C623.409 465.944 622.441 466.216 621.305 466.216ZM621.833 464.632C622.937 464.632 623.889 464.24 624.689 463.456C625.489 462.672 626.009 461.528 626.249 460.024C626.505 458.456 626.345 457.28 625.769 456.496C625.193 455.696 624.321 455.296 623.153 455.296C622.033 455.296 621.073 455.688 620.273 456.472C619.489 457.256 618.977 458.4 618.737 459.904C618.497 461.472 618.657 462.656 619.217 463.456C619.777 464.24 620.649 464.632 621.833 464.632Z" fill="#FFD655"/>
<defs>
<filter id="filter0_d_3223_21989" x="48" y="399" width="179" height="99" filterUnits="userSpaceOnUse" color-interpolation-filters="sRGB">
<feFlood flood-opacity="0" result="BackgroundImageFix"/>
<feColorMatrix in="SourceAlpha" type="matrix" values="0 0 0 0 0 0 0 0 0 0 0 0 0 0 0 0 0 0 127 0" result="hardAlpha"/>
<feMorphology radius="8" operator="dilate" in="SourceAlpha" result="effect1_dropShadow_3223_21989"/>
<feOffset dy="4"/>
<feGaussianBlur stdDeviation="6"/>
<feComposite in2="hardAlpha" operator="out"/>
<feColorMatrix type="matrix" values="0 0 0 0 0 0 0 0 0 0 0 0 0 0 0 0 0 0 0.1 0"/>
<feBlend mode="normal" in2="BackgroundImageFix" result="effect1_dropShadow_3223_21989"/>
<feBlend mode="normal" in="SourceGraphic" in2="effect1_dropShadow_3223_21989" result="shape"/>
</filter>
</defs>
</svg>
