<svg width="700" height="394" viewBox="0 0 700 394" fill="none" xmlns="http://www.w3.org/2000/svg">
<rect width="700" height="394" fill="#3F2E42"/>
<path d="M103.92 97.12H88.2V76H147V86.44L142.8 97.12H130.2V160H103.92V97.12ZM179.132 160H152.972V76H179.132V160ZM200.834 97.12H185.114V76H243.914V86.44L239.714 97.12H227.114V160H200.834V97.12ZM249.886 160V76H276.046V139H302.446V160H249.886ZM364.64 160H308.48V76H364.64V86.44L360.44 97.12H334.64V106.48H360.44V127.48H334.64V139H364.64V160Z" fill="white"/>
<path d="M104.976 232.504C101.803 232.504 98.928 232.112 96.352 231.328C93.776 230.507 91.536 229.349 89.632 227.856L91.592 223.264C92.8613 224.235 94.168 225.037 95.512 225.672C96.8933 226.307 98.3493 226.792 99.88 227.128C101.448 227.427 103.147 227.576 104.976 227.576C108.112 227.576 110.408 227.016 111.864 225.896C113.357 224.776 114.104 223.301 114.104 221.472C114.104 219.904 113.581 218.691 112.536 217.832C111.528 216.973 109.736 216.283 107.16 215.76L101.056 214.528C97.4347 213.781 94.728 212.568 92.936 210.888C91.1813 209.171 90.304 206.837 90.304 203.888C90.304 201.499 90.9387 199.408 92.208 197.616C93.4773 195.824 95.232 194.443 97.472 193.472C99.7493 192.501 102.4 192.016 105.424 192.016C108.224 192.016 110.8 192.427 113.152 193.248C115.504 194.032 117.483 195.208 119.088 196.776L117.184 201.2C115.504 199.744 113.712 198.68 111.808 198.008C109.904 197.299 107.739 196.944 105.312 196.944C102.437 196.944 100.179 197.541 98.536 198.736C96.9307 199.931 96.128 201.555 96.128 203.608C96.128 205.251 96.632 206.539 97.64 207.472C98.6853 208.405 100.403 209.115 102.792 209.6L108.896 210.776C112.667 211.56 115.448 212.773 117.24 214.416C119.032 216.021 119.928 218.243 119.928 221.08C119.928 223.357 119.312 225.355 118.08 227.072C116.885 228.789 115.168 230.133 112.928 231.104C110.688 232.037 108.037 232.504 104.976 232.504ZM136.606 232.504C133.208 232.504 130.651 231.589 128.934 229.76C127.254 227.893 126.414 225.037 126.414 221.192V203.776H132.07V221.08C132.07 223.432 132.555 225.168 133.526 226.288C134.496 227.408 135.971 227.968 137.95 227.968C140.19 227.968 142 227.221 143.382 225.728C144.763 224.235 145.454 222.256 145.454 219.792V203.776H151.11V232H145.622V225.952H146.35C145.566 228.043 144.315 229.667 142.598 230.824C140.88 231.944 138.883 232.504 136.606 232.504ZM174.458 232.504C171.994 232.504 169.847 231.888 168.018 230.656C166.189 229.424 164.975 227.744 164.378 225.616H164.994V232H159.394V190.784H165.05V210.048H164.378C165.013 207.957 166.226 206.315 168.018 205.12C169.847 203.888 171.994 203.272 174.458 203.272C176.959 203.272 179.143 203.869 181.01 205.064C182.877 206.221 184.314 207.901 185.322 210.104C186.367 212.269 186.89 214.883 186.89 217.944C186.89 220.968 186.367 223.581 185.322 225.784C184.314 227.949 182.858 229.611 180.954 230.768C179.087 231.925 176.922 232.504 174.458 232.504ZM173.058 228.08C175.485 228.08 177.445 227.24 178.938 225.56C180.431 223.843 181.178 221.304 181.178 217.944C181.178 214.547 180.431 212.008 178.938 210.328C177.445 208.611 175.485 207.752 173.058 207.752C170.594 207.752 168.615 208.611 167.122 210.328C165.666 212.008 164.938 214.528 164.938 217.888C164.938 221.248 165.666 223.787 167.122 225.504C168.615 227.221 170.594 228.08 173.058 228.08ZM193.519 232V190.784H199.175V209.768H198.391C199.212 207.64 200.538 206.035 202.367 204.952C204.196 203.832 206.306 203.272 208.695 203.272C212.055 203.272 214.556 204.205 216.199 206.072C217.842 207.901 218.663 210.683 218.663 214.416V232H213.007V214.752C213.007 212.325 212.522 210.571 211.551 209.488C210.618 208.368 209.124 207.808 207.071 207.808C204.682 207.808 202.759 208.555 201.303 210.048C199.884 211.504 199.175 213.445 199.175 215.872V232H193.519ZM239.762 232.504C235.208 232.504 231.624 231.216 229.01 228.64C226.397 226.064 225.09 222.499 225.09 217.944C225.09 214.995 225.65 212.419 226.77 210.216C227.928 208.013 229.514 206.315 231.53 205.12C233.584 203.888 235.954 203.272 238.642 203.272C241.293 203.272 243.514 203.832 245.306 204.952C247.098 206.072 248.461 207.659 249.394 209.712C250.328 211.728 250.794 214.117 250.794 216.88V218.672H229.514V215.424H246.93L245.978 216.152C245.978 213.352 245.344 211.187 244.074 209.656C242.842 208.088 241.05 207.304 238.698 207.304C236.085 207.304 234.069 208.219 232.65 210.048C231.232 211.84 230.522 214.323 230.522 217.496V218.056C230.522 221.379 231.325 223.88 232.93 225.56C234.573 227.24 236.888 228.08 239.874 228.08C241.517 228.08 243.048 227.856 244.466 227.408C245.922 226.923 247.304 226.139 248.61 225.056L250.458 228.92C249.152 230.077 247.565 230.973 245.698 231.608C243.832 232.205 241.853 232.504 239.762 232.504ZM268.093 232.504C265.591 232.504 263.407 231.925 261.541 230.768C259.674 229.611 258.218 227.931 257.173 225.728C256.165 223.525 255.661 220.912 255.661 217.888C255.661 214.827 256.165 212.213 257.173 210.048C258.218 207.883 259.674 206.221 261.541 205.064C263.407 203.869 265.591 203.272 268.093 203.272C270.557 203.272 272.703 203.888 274.533 205.12C276.362 206.352 277.575 208.032 278.173 210.16H277.557L278.117 203.776H283.605C283.493 204.933 283.381 206.091 283.269 207.248C283.194 208.368 283.157 209.469 283.157 210.552V232H277.501V225.728H278.117C277.519 227.819 276.287 229.48 274.421 230.712C272.591 231.907 270.482 232.504 268.093 232.504ZM269.493 228.08C271.919 228.08 273.861 227.221 275.317 225.504C276.81 223.787 277.557 221.248 277.557 217.888C277.557 214.528 276.81 212.008 275.317 210.328C273.861 208.611 271.919 207.752 269.493 207.752C267.029 207.752 265.05 208.611 263.557 210.328C262.101 212.008 261.373 214.528 261.373 217.888C261.373 221.248 262.101 223.787 263.557 225.504C265.013 227.221 266.991 228.08 269.493 228.08ZM302.218 232.504C299.754 232.504 297.57 231.925 295.666 230.768C293.799 229.611 292.343 227.931 291.298 225.728C290.29 223.525 289.786 220.912 289.786 217.888C289.786 214.827 290.29 212.213 291.298 210.048C292.343 207.883 293.799 206.221 295.666 205.064C297.57 203.869 299.754 203.272 302.218 203.272C304.644 203.272 306.772 203.888 308.602 205.12C310.468 206.315 311.7 207.957 312.298 210.048H311.626V190.784H317.282V232H311.682V225.616H312.354C311.719 227.744 310.487 229.424 308.658 230.656C306.828 231.888 304.682 232.504 302.218 232.504ZM303.618 228.08C306.044 228.08 308.004 227.221 309.498 225.504C310.991 223.787 311.738 221.248 311.738 217.888C311.738 214.528 310.991 212.008 309.498 210.328C308.004 208.611 306.044 207.752 303.618 207.752C301.154 207.752 299.175 208.611 297.682 210.328C296.226 212.008 295.498 214.528 295.498 217.888C295.498 221.248 296.226 223.787 297.682 225.504C299.175 227.221 301.154 228.08 303.618 228.08ZM325.535 232V203.776H331.191V232H325.535ZM325.087 197.896V192.016H331.639V197.896H325.087ZM339.48 232V210.552C339.48 209.469 339.424 208.368 339.312 207.248C339.237 206.091 339.144 204.933 339.032 203.776H344.52L345.024 209.712H344.352C345.211 207.621 346.536 206.035 348.328 204.952C350.12 203.832 352.192 203.272 354.544 203.272C357.867 203.272 360.368 204.187 362.048 206.016C363.765 207.845 364.624 210.683 364.624 214.528V232H358.968V214.864C358.968 212.363 358.464 210.571 357.456 209.488C356.485 208.368 354.992 207.808 352.976 207.808C350.587 207.808 348.683 208.555 347.264 210.048C345.845 211.504 345.136 213.483 345.136 215.984V232H339.48ZM385.387 244.544C382.849 244.544 380.534 244.245 378.443 243.648C376.39 243.051 374.542 242.155 372.899 240.96L374.299 236.816C375.457 237.6 376.595 238.216 377.715 238.664C378.835 239.149 380.011 239.504 381.243 239.728C382.475 239.952 383.745 240.064 385.051 240.064C387.739 240.064 389.755 239.373 391.099 237.992C392.481 236.648 393.171 234.688 393.171 232.112V224.552H393.731C393.134 226.643 391.902 228.304 390.035 229.536C388.206 230.731 386.078 231.328 383.651 231.328C381.075 231.328 378.835 230.768 376.931 229.648C375.065 228.491 373.609 226.867 372.563 224.776C371.555 222.648 371.051 220.147 371.051 217.272C371.051 214.397 371.555 211.915 372.563 209.824C373.609 207.733 375.065 206.128 376.931 205.008C378.835 203.851 381.075 203.272 383.651 203.272C386.115 203.272 388.243 203.888 390.035 205.12C391.865 206.315 393.078 207.957 393.675 210.048L393.171 209.6L393.675 203.776H399.163C399.014 204.933 398.902 206.091 398.827 207.248C398.753 208.368 398.715 209.469 398.715 210.552V231.44C398.715 235.696 397.577 238.944 395.299 241.184C393.059 243.424 389.755 244.544 385.387 244.544ZM384.995 226.904C387.459 226.904 389.419 226.064 390.875 224.384C392.369 222.704 393.115 220.333 393.115 217.272C393.115 214.211 392.369 211.859 390.875 210.216C389.419 208.573 387.459 207.752 384.995 207.752C382.457 207.752 380.441 208.573 378.947 210.216C377.491 211.859 376.763 214.211 376.763 217.272C376.763 220.333 377.491 222.704 378.947 224.384C380.441 226.064 382.457 226.904 384.995 226.904Z" fill="white"/>
<path d="M89.816 328V305.44H98.84C101.229 305.44 103.075 305.952 104.376 306.976C105.677 308 106.328 309.451 106.328 311.328C106.328 312.736 105.901 313.909 105.048 314.848C104.216 315.787 103.053 316.405 101.56 316.704V316.256C103.224 316.448 104.525 317.024 105.464 317.984C106.424 318.923 106.904 320.192 106.904 321.792C106.904 323.797 106.232 325.333 104.888 326.4C103.565 327.467 101.688 328 99.256 328H89.816ZM92.408 325.856H99C100.621 325.856 101.901 325.547 102.84 324.928C103.8 324.288 104.28 323.232 104.28 321.76C104.28 320.267 103.8 319.211 102.84 318.592C101.901 317.952 100.621 317.632 99 317.632H92.408V325.856ZM92.408 315.52H98.456C100.205 315.52 101.517 315.179 102.392 314.496C103.267 313.813 103.704 312.832 103.704 311.552C103.704 310.229 103.267 309.237 102.392 308.576C101.517 307.893 100.205 307.552 98.456 307.552H92.408V315.52ZM117.87 328.288C116.334 328.288 114.99 327.957 113.838 327.296C112.707 326.613 111.833 325.653 111.214 324.416C110.595 323.157 110.286 321.675 110.286 319.968C110.286 318.24 110.595 316.757 111.214 315.52C111.833 314.283 112.707 313.333 113.838 312.672C114.99 311.989 116.334 311.648 117.87 311.648C119.427 311.648 120.771 311.989 121.902 312.672C123.054 313.333 123.939 314.283 124.558 315.52C125.198 316.757 125.518 318.24 125.518 319.968C125.518 321.675 125.198 323.157 124.558 324.416C123.939 325.653 123.054 326.613 121.902 327.296C120.771 327.957 119.427 328.288 117.87 328.288ZM117.87 326.176C119.406 326.176 120.622 325.653 121.518 324.608C122.414 323.541 122.862 321.995 122.862 319.968C122.862 317.92 122.403 316.373 121.486 315.328C120.59 314.261 119.385 313.728 117.87 313.728C116.355 313.728 115.15 314.261 114.254 315.328C113.358 316.373 112.91 317.92 112.91 319.968C112.91 321.995 113.358 323.541 114.254 324.608C115.15 325.653 116.355 326.176 117.87 326.176ZM135.639 328.288C134.231 328.288 132.994 327.957 131.927 327.296C130.861 326.613 130.029 325.653 129.431 324.416C128.855 323.179 128.567 321.696 128.567 319.968C128.567 318.219 128.855 316.725 129.431 315.488C130.029 314.251 130.861 313.301 131.927 312.64C132.994 311.979 134.231 311.648 135.639 311.648C137.09 311.648 138.338 312.011 139.383 312.736C140.45 313.461 141.165 314.443 141.527 315.68H141.143V304.448H143.735V328H141.175V324.16H141.527C141.186 325.44 140.482 326.453 139.415 327.2C138.349 327.925 137.09 328.288 135.639 328.288ZM136.183 326.176C137.698 326.176 138.914 325.653 139.831 324.608C140.749 323.541 141.207 321.995 141.207 319.968C141.207 317.92 140.749 316.373 139.831 315.328C138.914 314.261 137.698 313.728 136.183 313.728C134.669 313.728 133.453 314.261 132.535 315.328C131.639 316.373 131.191 317.92 131.191 319.968C131.191 321.995 131.639 323.541 132.535 324.608C133.453 325.653 134.669 326.176 136.183 326.176ZM148.107 335.264L147.499 333.12C148.501 332.885 149.333 332.608 149.995 332.288C150.677 331.989 151.243 331.584 151.691 331.072C152.139 330.56 152.523 329.92 152.843 329.152L153.675 327.264L153.611 328.352L146.603 311.936H149.419L155.211 326.048H154.379L160.107 311.936H162.827L155.403 329.344C154.976 330.368 154.507 331.221 153.995 331.904C153.483 332.608 152.928 333.173 152.331 333.6C151.755 334.048 151.115 334.4 150.411 334.656C149.707 334.912 148.939 335.115 148.107 335.264ZM179.786 328.288C178.208 328.288 177.003 327.84 176.171 326.944C175.339 326.027 174.923 324.651 174.923 322.816V313.952H171.787V311.936H174.923V307.552L177.515 306.816V311.936H182.123V313.952H177.515V322.528C177.515 323.808 177.728 324.725 178.155 325.28C178.603 325.813 179.264 326.08 180.139 326.08C180.544 326.08 180.907 326.048 181.227 325.984C181.547 325.899 181.835 325.803 182.091 325.696V327.872C181.792 328 181.429 328.096 181.003 328.16C180.597 328.245 180.192 328.288 179.786 328.288ZM192.258 328.288C189.74 328.288 187.756 327.563 186.306 326.112C184.855 324.64 184.13 322.603 184.13 320C184.13 318.315 184.45 316.853 185.09 315.616C185.73 314.357 186.626 313.387 187.778 312.704C188.93 312 190.252 311.648 191.746 311.648C193.218 311.648 194.455 311.957 195.458 312.576C196.46 313.195 197.228 314.08 197.762 315.232C198.295 316.363 198.562 317.707 198.562 319.264V320.224H186.114V318.592H196.866L196.322 319.008C196.322 317.301 195.938 315.968 195.17 315.008C194.402 314.048 193.26 313.568 191.746 313.568C190.146 313.568 188.898 314.133 188.002 315.264C187.106 316.373 186.658 317.877 186.658 319.776V320.064C186.658 322.069 187.148 323.595 188.13 324.64C189.132 325.664 190.53 326.176 192.322 326.176C193.282 326.176 194.178 326.037 195.01 325.76C195.863 325.461 196.674 324.981 197.442 324.32L198.338 326.144C197.634 326.827 196.738 327.36 195.65 327.744C194.583 328.107 193.452 328.288 192.258 328.288ZM200.227 328L207.427 319.072V320.352L200.611 311.936H203.747L208.899 318.496H207.971L213.091 311.936H216.195L209.475 320.32V319.136L216.611 328H213.443L207.939 320.992H208.899L203.331 328H200.227ZM225.224 328.288C223.645 328.288 222.44 327.84 221.608 326.944C220.776 326.027 220.36 324.651 220.36 322.816V313.952H217.224V311.936H220.36V307.552L222.952 306.816V311.936H227.56V313.952H222.952V322.528C222.952 323.808 223.165 324.725 223.592 325.28C224.04 325.813 224.701 326.08 225.576 326.08C225.981 326.08 226.344 326.048 226.664 325.984C226.984 325.899 227.272 325.803 227.528 325.696V327.872C227.229 328 226.867 328.096 226.44 328.16C226.035 328.245 225.629 328.288 225.224 328.288Z" fill="white"/>
<path d="M529.333 122.5C529.333 123.973 530.527 125.167 532 125.167C533.473 125.167 534.667 123.973 534.667 122.5C534.667 121.027 533.473 119.833 532 119.833C530.527 119.833 529.333 121.027 529.333 122.5ZM383 122.5V123H385.483V122.5V122H383V122.5ZM390.45 122.5V123H395.417V122.5V122H390.45V122.5ZM400.383 122.5V123H405.35V122.5V122H400.383V122.5ZM410.317 122.5V123H415.283V122.5V122H410.317V122.5ZM420.25 122.5V123H425.217V122.5V122H420.25V122.5ZM430.183 122.5V123H435.15V122.5V122H430.183V122.5ZM440.117 122.5V123H445.083V122.5V122H440.117V122.5ZM450.05 122.5V123H455.017V122.5V122H450.05V122.5ZM459.983 122.5V123H464.95V122.5V122H459.983V122.5ZM469.917 122.5V123H474.883V122.5V122H469.917V122.5ZM479.85 122.5V123H484.817V122.5V122H479.85V122.5ZM489.783 122.5V123H494.75V122.5V122H489.783V122.5ZM499.717 122.5V123H504.683V122.5V122H499.717V122.5ZM509.65 122.5V123H514.617V122.5V122H509.65V122.5ZM519.583 122.5V123H524.55V122.5V122H519.583V122.5ZM529.517 122.5V123H532V122.5V122H529.517V122.5Z" fill="#FFD655"/>
<path d="M529.333 211C529.333 212.473 530.527 213.667 532 213.667C533.473 213.667 534.667 212.473 534.667 211C534.667 209.527 533.473 208.333 532 208.333C530.527 208.333 529.333 209.527 529.333 211ZM411 211L411 211.5L413.521 211.5L413.521 211L413.521 210.5L411 210.5L411 211ZM418.563 211L418.563 211.5L423.604 211.5L423.604 211L423.604 210.5L418.563 210.5L418.563 211ZM428.646 211L428.646 211.5L433.687 211.5L433.687 211L433.687 210.5L428.646 210.5L428.646 211ZM438.729 211L438.729 211.5L443.771 211.5L443.771 211L443.771 210.5L438.729 210.5L438.729 211ZM448.813 211L448.813 211.5L453.854 211.5L453.854 211L453.854 210.5L448.813 210.5L448.813 211ZM458.896 211L458.896 211.5L463.938 211.5L463.938 211L463.938 210.5L458.896 210.5L458.896 211ZM468.979 211L468.979 211.5L474.021 211.5L474.021 211L474.021 210.5L468.979 210.5L468.979 211ZM479.063 211L479.063 211.5L484.104 211.5L484.104 211L484.104 210.5L479.063 210.5L479.063 211ZM489.146 211L489.146 211.5L494.188 211.5L494.188 211L494.188 210.5L489.146 210.5L489.146 211ZM499.229 211L499.229 211.5L504.271 211.5L504.271 211L504.271 210.5L499.229 210.5L499.229 211ZM509.312 211L509.312 211.5L514.354 211.5L514.354 211L514.354 210.5L509.312 210.5L509.312 211ZM519.396 211L519.396 211.5L524.437 211.5L524.437 211L524.437 210.5L519.396 210.5L519.396 211ZM529.479 211L529.479 211.5L532 211.5L532 211L532 210.5L529.479 210.5L529.479 211Z" fill="#FFD655"/>
<path d="M529.333 316C529.333 317.473 530.527 318.667 532 318.667C533.473 318.667 534.667 317.473 534.667 316C534.667 314.527 533.473 313.333 532 313.333C530.527 313.333 529.333 314.527 529.333 316ZM248 316L248 316.5L250.536 316.5L250.536 316L250.536 315.5L248 315.5L248 316ZM255.607 316L255.607 316.5L260.679 316.5L260.679 316L260.679 315.5L255.607 315.5L255.607 316ZM265.75 316L265.75 316.5L270.821 316.5L270.821 316L270.821 315.5L265.75 315.5L265.75 316ZM275.893 316L275.893 316.5L280.964 316.5L280.964 316L280.964 315.5L275.893 315.5L275.893 316ZM286.036 316L286.036 316.5L291.107 316.5L291.107 316L291.107 315.5L286.036 315.5L286.036 316ZM296.179 316L296.179 316.5L301.25 316.5L301.25 316L301.25 315.5L296.179 315.5L296.179 316ZM306.321 316L306.321 316.5L311.393 316.5L311.393 316L311.393 315.5L306.321 315.5L306.321 316ZM316.464 316L316.464 316.5L321.536 316.5L321.536 316L321.536 315.5L316.464 315.5L316.464 316ZM326.607 316L326.607 316.5L331.679 316.5L331.679 316L331.679 315.5L326.607 315.5L326.607 316ZM336.75 316L336.75 316.5L341.821 316.5L341.821 316L341.821 315.5L336.75 315.5L336.75 316ZM346.893 316L346.893 316.5L351.964 316.5L351.964 316L351.964 315.5L346.893 315.5L346.893 316ZM357.036 316L357.036 316.5L362.107 316.5L362.107 316L362.107 315.5L357.036 315.5L357.036 316ZM367.179 316L367.179 316.5L372.25 316.5L372.25 316L372.25 315.5L367.179 315.5L367.179 316ZM377.321 316L377.321 316.5L382.393 316.5L382.393 316L382.393 315.5L377.321 315.5L377.321 316ZM387.464 316L387.464 316.5L392.536 316.5L392.536 316L392.536 315.5L387.464 315.5L387.464 316ZM397.607 316L397.607 316.5L402.679 316.5L402.679 316L402.679 315.5L397.607 315.5L397.607 316ZM407.75 316L407.75 316.5L412.821 316.5L412.821 316L412.821 315.5L407.75 315.5L407.75 316ZM417.893 316L417.893 316.5L422.964 316.5L422.964 316L422.964 315.5L417.893 315.5L417.893 316ZM428.036 316L428.036 316.5L433.107 316.5L433.107 316L433.107 315.5L428.036 315.5L428.036 316ZM438.179 316L438.179 316.5L443.25 316.5L443.25 316L443.25 315.5L438.179 315.5L438.179 316ZM448.321 316L448.321 316.5L453.393 316.5L453.393 316L453.393 315.5L448.321 315.5L448.321 316ZM458.464 316L458.464 316.5L463.536 316.5L463.536 316L463.536 315.5L458.464 315.5L458.464 316ZM468.607 316L468.607 316.5L473.679 316.5L473.679 316L473.679 315.5L468.607 315.5L468.607 316ZM478.75 316L478.75 316.5L483.821 316.5L483.821 316L483.821 315.5L478.75 315.5L478.75 316ZM488.893 316L488.893 316.5L493.964 316.5L493.964 316L493.964 315.5L488.893 315.5L488.893 316ZM499.036 316L499.036 316.5L504.107 316.5L504.107 316L504.107 315.5L499.036 315.5L499.036 316ZM509.179 316L509.179 316.5L514.25 316.5L514.25 316L514.25 315.5L509.179 315.5L509.179 316ZM519.321 316L519.321 316.5L524.393 316.5L524.393 316L524.393 315.5L519.321 315.5L519.321 316ZM529.464 316L529.464 316.5L532 316.5L532 316L532 315.5L529.464 315.5L529.464 316Z" fill="#FFD655"/>
<path d="M541.176 131L543.864 114.08H545.592L549.96 129.416H549.24L558.48 114.08H560.208L557.52 131H555.696L557.976 116.648H558.744L550.008 131H548.736L544.56 116.648H545.256L542.976 131H541.176ZM566.65 131.216C565.45 131.216 564.45 130.96 563.65 130.448C562.85 129.936 562.282 129.192 561.946 128.216C561.626 127.24 561.57 126.056 561.778 124.664C561.986 123.384 562.386 122.304 562.978 121.424C563.586 120.528 564.338 119.856 565.234 119.408C566.13 118.96 567.138 118.736 568.258 118.736C569.474 118.736 570.474 118.992 571.258 119.504C572.058 120.016 572.618 120.76 572.938 121.736C573.274 122.696 573.33 123.872 573.106 125.264C572.898 126.544 572.49 127.632 571.882 128.528C571.29 129.408 570.546 130.08 569.65 130.544C568.77 130.992 567.77 131.216 566.65 131.216ZM566.794 129.632C567.898 129.632 568.842 129.24 569.626 128.456C570.426 127.672 570.946 126.528 571.186 125.024C571.442 123.456 571.282 122.28 570.706 121.496C570.13 120.696 569.266 120.296 568.114 120.296C566.994 120.296 566.042 120.688 565.258 121.472C564.474 122.256 563.962 123.4 563.722 124.904C563.482 126.472 563.634 127.656 564.178 128.456C564.738 129.24 565.61 129.632 566.794 129.632ZM575.249 131L578.057 113.336H580.001L577.193 131H575.249ZM586.079 131.216C584.879 131.216 583.879 130.96 583.079 130.448C582.279 129.936 581.711 129.192 581.375 128.216C581.055 127.24 580.999 126.056 581.207 124.664C581.415 123.384 581.815 122.304 582.407 121.424C583.015 120.528 583.767 119.856 584.663 119.408C585.559 118.96 586.567 118.736 587.687 118.736C588.903 118.736 589.903 118.992 590.687 119.504C591.487 120.016 592.047 120.76 592.367 121.736C592.703 122.696 592.759 123.872 592.535 125.264C592.327 126.544 591.919 127.632 591.311 128.528C590.719 129.408 589.975 130.08 589.079 130.544C588.199 130.992 587.199 131.216 586.079 131.216ZM586.223 129.632C587.327 129.632 588.271 129.24 589.055 128.456C589.855 127.672 590.375 126.528 590.615 125.024C590.871 123.456 590.711 122.28 590.135 121.496C589.559 120.696 588.695 120.296 587.543 120.296C586.423 120.296 585.471 120.688 584.687 121.472C583.903 122.256 583.391 123.4 583.151 124.904C582.911 126.472 583.063 127.656 583.607 128.456C584.167 129.24 585.039 129.632 586.223 129.632ZM599.001 131.216C597.705 131.216 596.793 130.872 596.265 130.184C595.753 129.496 595.601 128.472 595.809 127.112L596.841 120.464H594.489L594.729 118.952H597.105L597.633 115.664L599.649 115.112L599.049 118.952H602.505L602.241 120.464H598.785L597.801 126.872C597.641 127.816 597.689 128.504 597.945 128.936C598.217 129.352 598.681 129.56 599.337 129.56C599.641 129.56 599.913 129.536 600.153 129.488C600.393 129.424 600.617 129.352 600.825 129.272L600.585 130.904C600.329 131 600.073 131.072 599.817 131.12C599.561 131.184 599.289 131.216 599.001 131.216Z" fill="#FFD655"/>
<path d="M541.176 220L543.864 203.08H545.592L549.96 218.416H549.24L558.48 203.08H560.208L557.52 220H555.696L557.976 205.648H558.744L550.008 220H548.736L544.56 205.648H545.256L542.976 220H541.176ZM565.954 220.216C564.546 220.216 563.506 219.816 562.834 219.016C562.162 218.216 561.954 216.976 562.21 215.296L563.362 207.952H565.306L564.154 215.2C563.978 216.4 564.082 217.272 564.466 217.816C564.85 218.344 565.522 218.608 566.482 218.608C567.57 218.608 568.466 218.264 569.17 217.576C569.874 216.872 570.314 215.944 570.49 214.792L571.57 207.952H573.514L571.618 220H569.722L570.13 217.288H570.49C570.042 218.216 569.418 218.936 568.618 219.448C567.834 219.96 566.946 220.216 565.954 220.216ZM575.389 220L578.197 202.336H580.141L577.333 220H575.389ZM581.108 220L583.004 207.952H584.948L583.052 220H581.108ZM583.22 205.216L583.58 203.032H585.956L585.596 205.216H583.22ZM591.003 220.216C590.091 220.216 589.235 220.096 588.435 219.856C587.635 219.6 587.003 219.264 586.539 218.848L587.235 217.48C587.763 217.864 588.355 218.168 589.011 218.392C589.683 218.6 590.387 218.704 591.123 218.704C592.051 218.704 592.787 218.536 593.331 218.2C593.875 217.864 594.195 217.408 594.291 216.832C594.371 216.336 594.267 215.928 593.979 215.608C593.707 215.272 593.235 215.048 592.563 214.936L590.835 214.672C589.651 214.48 588.827 214.064 588.363 213.424C587.899 212.784 587.739 212 587.883 211.072C587.995 210.368 588.275 209.768 588.723 209.272C589.187 208.776 589.771 208.4 590.475 208.144C591.179 207.872 591.955 207.736 592.803 207.736C593.683 207.736 594.475 207.856 595.179 208.096C595.899 208.32 596.467 208.624 596.883 209.008L596.139 210.352C595.723 210 595.219 209.728 594.627 209.536C594.051 209.328 593.443 209.224 592.803 209.224C591.891 209.224 591.171 209.408 590.643 209.776C590.115 210.144 589.803 210.608 589.707 211.168C589.627 211.68 589.707 212.112 589.947 212.464C590.187 212.8 590.619 213.016 591.243 213.112L593.019 213.424C594.235 213.632 595.083 214.032 595.563 214.624C596.059 215.2 596.235 215.944 596.091 216.856C595.995 217.544 595.715 218.144 595.251 218.656C594.803 219.152 594.219 219.536 593.499 219.808C592.779 220.08 591.947 220.216 591.003 220.216ZM598.733 220L601.541 202.336H603.485L602.141 210.616H601.805C602.285 209.672 602.941 208.96 603.773 208.48C604.621 207.984 605.581 207.736 606.653 207.736C608.141 207.736 609.173 208.16 609.749 209.008C610.325 209.84 610.485 211.056 610.229 212.656L609.077 220H607.133L608.285 212.68C608.477 211.48 608.381 210.624 607.997 210.112C607.613 209.584 606.933 209.32 605.957 209.32C604.821 209.32 603.885 209.664 603.149 210.352C602.413 211.04 601.957 211.944 601.781 213.064L600.677 220H598.733Z" fill="#FFD655"/>
<path d="M541.176 320L543.864 303.08H545.592L549.96 318.416H549.24L558.48 303.08H560.208L557.52 320H555.696L557.976 305.648H558.744L550.008 320H548.736L544.56 305.648H545.256L542.976 320H541.176ZM565.954 320.216C564.546 320.216 563.506 319.816 562.834 319.016C562.162 318.216 561.954 316.976 562.21 315.296L563.362 307.952H565.306L564.154 315.2C563.978 316.4 564.082 317.272 564.466 317.816C564.85 318.344 565.522 318.608 566.482 318.608C567.57 318.608 568.466 318.264 569.17 317.576C569.874 316.872 570.314 315.944 570.49 314.792L571.57 307.952H573.514L571.618 320H569.722L570.13 317.288H570.49C570.042 318.216 569.418 318.936 568.618 319.448C567.834 319.96 566.946 320.216 565.954 320.216ZM575.389 320L578.197 302.336H580.141L577.333 320H575.389ZM581.108 320L583.004 307.952H584.948L583.052 320H581.108ZM583.22 305.216L583.58 303.032H585.956L585.596 305.216H583.22ZM591.003 320.216C590.091 320.216 589.235 320.096 588.435 319.856C587.635 319.6 587.003 319.264 586.539 318.848L587.235 317.48C587.763 317.864 588.355 318.168 589.011 318.392C589.683 318.6 590.387 318.704 591.123 318.704C592.051 318.704 592.787 318.536 593.331 318.2C593.875 317.864 594.195 317.408 594.291 316.832C594.371 316.336 594.267 315.928 593.979 315.608C593.707 315.272 593.235 315.048 592.563 314.936L590.835 314.672C589.651 314.48 588.827 314.064 588.363 313.424C587.899 312.784 587.739 312 587.883 311.072C587.995 310.368 588.275 309.768 588.723 309.272C589.187 308.776 589.771 308.4 590.475 308.144C591.179 307.872 591.955 307.736 592.803 307.736C593.683 307.736 594.475 307.856 595.179 308.096C595.899 308.32 596.467 308.624 596.883 309.008L596.139 310.352C595.723 310 595.219 309.728 594.627 309.536C594.051 309.328 593.443 309.224 592.803 309.224C591.891 309.224 591.171 309.408 590.643 309.776C590.115 310.144 589.803 310.608 589.707 311.168C589.627 311.68 589.707 312.112 589.947 312.464C590.187 312.8 590.619 313.016 591.243 313.112L593.019 313.424C594.235 313.632 595.083 314.032 595.563 314.624C596.059 315.2 596.235 315.944 596.091 316.856C595.995 317.544 595.715 318.144 595.251 318.656C594.803 319.152 594.219 319.536 593.499 319.808C592.779 320.08 591.947 320.216 591.003 320.216ZM598.733 320L601.541 302.336H603.485L602.141 310.616H601.805C602.285 309.672 602.941 308.96 603.773 308.48C604.621 307.984 605.581 307.736 606.653 307.736C608.141 307.736 609.173 308.16 609.749 309.008C610.325 309.84 610.485 311.056 610.229 312.656L609.077 320H607.133L608.285 312.68C608.477 311.48 608.381 310.624 607.997 310.112C607.613 309.584 606.933 309.32 605.957 309.32C604.821 309.32 603.885 309.664 603.149 310.352C602.413 311.04 601.957 311.944 601.781 313.064L600.677 320H598.733Z" fill="#FFD655"/>
</svg>
