<svg width="700" height="554" viewBox="0 0 700 554" fill="none" xmlns="http://www.w3.org/2000/svg">
<rect width="700" height="554" fill="#3F2E42"/>
<path d="M46.5 194C46.5 181.02 56.9906 170.5 69.9277 170.5C73.1136 170.5 77.4962 171.957 82.334 174.203C87.1527 176.441 92.3548 179.429 97.1543 182.424C101.952 185.417 106.339 188.413 109.527 190.659C111.121 191.782 112.415 192.717 113.31 193.372C113.655 193.625 113.94 193.836 114.161 194C113.94 194.164 113.655 194.375 113.31 194.628C112.415 195.283 111.121 196.218 109.527 197.341C106.339 199.587 101.952 202.583 97.1543 205.576C92.3548 208.571 87.1527 211.559 82.334 213.797C77.4963 216.043 73.1136 217.5 69.9277 217.5C56.9906 217.5 46.5 206.98 46.5 194Z" fill="#D9D9D9" fill-opacity="0.2" stroke="white"/>
<path d="M277.169 186.734C280.251 203.647 283.347 220.56 286.461 237.473C286.455 240.354 286.448 241.797 286.442 244.677C279.41 244.858 272.378 245.064 265.346 245.283C264.862 240.585 264.618 238.229 264.134 233.525C260.436 233.625 258.59 233.675 254.892 233.787C254.339 238.548 254.057 240.935 253.504 245.702C246.51 245.977 239.515 246.264 232.521 246.576C232.534 243.602 232.54 242.115 232.546 239.141C235.736 221.672 238.944 204.203 242.165 186.741C253.837 186.741 265.503 186.741 277.175 186.741L277.169 186.734ZM262.64 218.905C262.018 213.1 261.397 207.302 260.775 201.498C259.852 201.504 259.387 201.511 258.464 201.517C257.805 207.352 257.14 213.188 256.48 219.023C258.942 218.973 260.179 218.948 262.64 218.905Z" fill="#FFD655"/>
<path d="M447.917 245.708C447.848 226.052 447.779 206.39 447.71 186.734C454.698 186.734 461.686 186.734 468.674 186.734C468.75 206.684 468.825 226.633 468.894 246.583C461.9 246.27 454.905 245.983 447.911 245.708H447.917Z" fill="#FFD655"/>
<path d="M474.778 246.864C474.702 226.821 474.627 206.778 474.552 186.734H516.581C521.485 186.734 524.957 189.977 524.969 194.569L525.108 241.94C525.12 246.533 521.673 249.538 516.776 249.226C502.781 248.345 488.779 247.557 474.771 246.864H474.778ZM495.686 232.65C499.07 232.794 500.759 232.869 504.143 233.019C504.105 222.766 504.074 212.507 504.036 202.254C500.652 202.204 498.957 202.179 495.573 202.129C495.61 212.301 495.648 222.478 495.686 232.65Z" fill="#FFD655"/>
<path d="M572.594 203.504C573.937 200.142 574.609 198.455 575.953 195.063C575.953 191.733 575.953 190.064 575.953 186.734C560.947 186.734 545.947 186.734 530.941 186.734C530.997 207.883 531.054 229.039 531.11 250.188C546.066 251.256 561.016 252.437 575.953 253.73C575.953 247.033 575.953 243.677 575.953 236.98C567.966 236.455 559.973 235.955 551.987 235.486C551.987 231.919 551.981 230.138 551.974 226.577C558.85 226.914 565.725 227.258 572.6 227.614C572.6 220.941 572.6 217.605 572.6 210.939C565.718 210.726 558.837 210.52 551.949 210.32C551.949 207.421 551.943 205.972 551.937 203.073C558.824 203.21 565.712 203.354 572.594 203.497V203.504Z" fill="#FFD655"/>
<path d="M455.635 323.915C455.553 300.435 455.465 276.962 455.384 253.482C473.221 254.326 491.053 255.351 508.872 256.55C508.884 260.211 508.891 262.042 508.903 265.709C507.321 269.333 506.524 271.133 504.941 274.731C496.76 274.032 488.573 273.394 480.385 272.807C480.398 276.006 480.404 277.605 480.417 280.804C488.604 281.442 496.792 282.148 504.973 282.91C504.992 289.027 505.017 295.137 505.035 301.254C496.861 300.348 488.673 299.51 480.486 298.748L480.524 308.589C490.048 309.582 499.56 310.65 509.066 311.8L509.129 330.219C491.342 327.751 473.523 325.651 455.647 323.915H455.635Z" fill="#FFD655"/>
<path d="M125.106 203.579V186.734C140.815 186.734 156.524 186.734 172.234 186.734C172.227 189.883 172.221 191.458 172.215 194.6C170.859 197.831 170.181 199.455 168.831 202.71C164.793 202.779 162.778 202.816 158.741 202.891C158.709 218.93 158.672 234.968 158.64 251.006C151.646 251.537 144.651 252.087 137.657 252.656C137.67 236.205 137.688 219.754 137.701 203.31C132.665 203.416 130.148 203.466 125.119 203.579H125.106Z" fill="#FFD655"/>
<path d="M219.023 186.739C223.927 186.739 227.38 189.832 227.361 194.205C227.33 202.071 227.305 209.944 227.273 217.81C227.261 220.64 224.844 223.889 221.667 224.764C224.297 230.612 225.616 233.523 228.247 239.309C228.234 242.295 228.228 243.788 228.222 246.769C221.359 247.1 214.503 247.456 207.64 247.824C205.763 241.558 203.898 235.291 202.04 229.018C200.351 229.087 199.503 229.118 197.808 229.187C197.783 235.585 197.764 241.989 197.739 248.387C190.725 248.812 183.718 249.255 176.705 249.718C176.768 228.718 176.824 207.726 176.887 186.727H219.011L219.023 186.739ZM197.908 202.24C197.889 206.857 197.883 209.163 197.87 213.78C201.217 213.692 202.887 213.649 206.234 213.567C206.252 208.988 206.259 206.701 206.278 202.121C202.931 202.171 201.255 202.19 197.914 202.24H197.908Z" fill="#FFD655"/>
<path d="M336.761 186.734C336.761 189.577 336.761 191.002 336.761 193.844C335.449 196.756 334.796 198.205 333.484 201.117C326.59 201.129 319.689 201.148 312.795 201.173C312.783 210.714 312.764 220.26 312.745 229.801C320.744 229.713 328.743 229.651 336.736 229.62C336.736 235.337 336.736 238.198 336.73 243.915C324.518 243.977 312.306 244.127 300.094 244.371C295.083 244.471 291.617 241.578 291.63 237.367C291.668 222.885 291.699 208.402 291.737 193.919C291.749 189.708 295.215 186.734 300.219 186.734C312.4 186.734 324.587 186.734 336.767 186.734H336.761Z" fill="#FFD655"/>
<path d="M371.676 186.734C378.344 186.734 385.012 186.734 391.68 186.734C391.68 189.59 391.686 191.02 391.692 193.876C389.106 200.511 386.519 207.14 383.932 213.775C387.096 221.541 390.255 229.314 393.413 237.086C393.413 239.947 393.419 241.372 393.425 244.233C386.418 244.127 379.411 244.04 372.404 243.971C370.502 236.574 368.599 229.182 366.697 221.785C365.159 221.785 364.386 221.779 362.842 221.772C362.842 229.151 362.848 236.53 362.854 243.909C355.847 243.884 348.84 243.877 341.833 243.896C341.84 224.84 341.846 205.79 341.852 186.734H362.817C362.817 193.651 362.823 200.567 362.829 207.484C364.368 207.484 365.14 207.484 366.678 207.49C368.342 200.573 370.006 193.657 371.663 186.734H371.676Z" fill="#FFD655"/>
<path d="M397.645 205.99C397.632 201.154 397.632 198.736 397.62 193.9C397.613 189.708 401.067 186.746 406.071 186.746H442.619C442.631 189.633 442.631 191.082 442.644 193.969C441.344 196.986 440.698 198.492 439.398 201.497C432.504 201.441 425.604 201.385 418.71 201.341C418.71 202.403 418.71 202.934 418.716 203.996C424.831 207.576 430.941 211.169 437.037 214.793C441.664 217.548 442.732 220.178 442.751 224.883C442.77 230.225 442.776 232.893 442.795 238.235C442.807 242.521 439.354 245.414 434.438 245.257C422.201 244.864 409.964 244.545 397.726 244.326C397.714 238.572 397.708 235.692 397.695 229.931C405.688 230.038 413.687 230.175 421.679 230.344C421.679 228.813 421.673 228.051 421.667 226.526C415.57 222.946 409.461 219.385 403.346 215.842C398.718 213.075 397.657 210.607 397.645 206.002V205.99Z" fill="#FFD655"/>
<path d="M221.284 280.756C221.315 272.078 221.346 263.399 221.378 254.727C229.684 254.259 237.997 253.84 246.31 253.459C246.229 276.926 246.141 300.393 246.059 323.86C237.734 324.635 229.421 325.503 221.114 326.465C221.152 317.206 221.183 307.953 221.221 298.694C217.196 299.068 215.187 299.262 211.169 299.662L211.068 327.671C202.768 328.708 194.48 329.833 186.205 331.057L186.443 256.964C194.737 256.37 203.031 255.821 211.332 255.315C211.3 264.068 211.269 272.821 211.238 281.568C215.256 281.231 217.271 281.068 221.296 280.756H221.284Z" fill="#FFD655"/>
<path d="M313.586 251.396C313.549 274.139 313.511 296.881 313.473 319.617C296.722 320.229 280.014 321.148 263.294 322.385C257.33 322.847 253.217 319.611 253.236 314.506C253.305 294.051 253.38 273.595 253.449 253.146C261.806 252.796 270.163 252.484 278.526 252.227C278.476 269.503 278.426 286.778 278.376 304.053C282.369 303.829 284.366 303.729 288.359 303.535L288.491 251.94C296.854 251.715 305.217 251.534 313.586 251.403V251.396Z" fill="#FFD655"/>
<path d="M361.184 282.566C360.072 274.894 358.961 267.221 357.85 259.549C357.85 256.169 357.85 254.482 357.85 251.108C365.566 251.133 373.289 251.196 381.005 251.296C381.037 274 381.068 296.711 381.1 319.416C372.209 319.204 363.318 319.066 354.428 319.01C350.485 308.57 346.542 298.13 342.599 287.689C341.82 287.689 341.425 287.696 340.646 287.702C341.713 295.331 342.781 302.953 343.854 310.582C343.854 313.955 343.854 315.649 343.854 319.022C336.151 319.066 328.447 319.191 320.743 319.397C320.774 296.693 320.805 273.988 320.831 251.283C329.696 251.183 338.555 251.121 347.421 251.096C351.32 261.58 355.225 272.064 359.124 282.554C359.953 282.554 360.361 282.56 361.19 282.566H361.184Z" fill="#FFD655"/>
<path d="M388.345 319.639C388.308 296.897 388.27 274.148 388.232 251.406C404.921 251.706 421.604 252.162 438.292 252.768C444.131 252.993 448.263 256.773 448.282 261.884C448.344 279.44 448.401 297.003 448.464 314.56C448.483 319.664 444.37 322.907 438.518 322.444C421.804 321.195 405.097 320.264 388.345 319.639ZM413.341 303.557C417.378 303.751 419.4 303.857 423.437 304.088C423.406 292.598 423.368 281.115 423.336 269.625C419.306 269.463 417.284 269.388 413.253 269.25C413.284 280.684 413.309 292.124 413.341 303.557Z" fill="#FFD655"/>
<path d="M573.842 326.224C571.563 320.12 570.42 317.09 568.134 311.079C569.409 310.935 570.577 310.411 571.569 309.623C573.471 308.111 574.702 305.637 574.702 303.169C574.702 292.76 574.702 282.351 574.702 271.943C574.702 266.151 570.614 261.659 564.813 261.109C548.193 259.578 531.561 258.197 514.91 256.973C514.992 281.677 515.067 306.387 515.149 331.091C523.468 332.322 531.768 333.64 540.056 335.058C540.037 327.149 540.019 319.245 540.006 311.335C542.009 311.623 543.007 311.766 545.004 312.06C547.27 320.407 549.512 328.761 551.741 337.114C559.828 338.582 567.902 340.144 575.951 341.794C575.951 337.833 575.951 335.858 575.951 331.897C575.11 329.617 574.683 328.479 573.842 326.211V326.224ZM549.857 293.541C545.902 293.035 543.924 292.792 539.962 292.311C539.949 286.613 539.943 283.763 539.931 278.065C543.892 278.484 545.87 278.696 549.832 279.134C549.845 284.901 549.845 287.781 549.857 293.548V293.541Z" fill="#FFD655"/>
<path d="M575.953 356.798C575.953 354.186 575.953 352.874 575.953 350.263C440.302 321.541 301.041 318.942 164.399 342.547C162.126 348.407 159.878 354.274 157.655 360.147C295.566 329.482 437.477 329.782 575.959 356.798H575.953Z" fill="#FFD655"/>
<path d="M125.106 262.28V282.298C131.052 281.554 134.028 281.192 139.98 280.492C139.968 292.813 139.955 305.14 139.942 317.461C145.104 310.838 150.34 304.278 155.652 297.774C152.468 305.921 149.329 314.087 146.215 322.253C144.099 327.813 142.002 333.38 139.924 338.96C143.339 338.31 145.047 337.991 148.463 337.366C148.463 338.085 148.463 338.441 148.463 339.16C148.45 346.794 148.437 354.423 148.425 362.058C151.746 353.217 155.093 344.395 158.477 335.58C161.001 329.026 162.269 325.77 164.8 319.316C161.076 319.872 159.218 320.16 155.501 320.747C158.584 312.769 161.698 304.803 164.856 296.849C164.869 290.482 164.888 284.11 164.9 277.743C169.678 277.249 172.07 277.012 176.855 276.556C178.462 272.595 179.266 270.627 180.873 266.703C180.886 262.998 180.892 261.142 180.904 257.438C162.288 258.85 143.697 260.461 125.112 262.273L125.106 262.28Z" fill="#FFD655"/>
<path d="M64.664 201V198.432H68.552V186.672H70.04L65.048 189.648V186.72L69.44 184.08H71.648V198.432H75.296V201H64.664Z" fill="white"/>
<path d="M659.5 198C659.5 210.98 649.009 221.5 636.072 221.5C632.886 221.5 628.504 220.043 623.666 217.797C618.847 215.559 613.645 212.571 608.846 209.576C604.048 206.583 599.661 203.587 596.473 201.341C594.879 200.218 593.585 199.283 592.69 198.628C592.345 198.375 592.06 198.164 591.839 198C592.06 197.836 592.345 197.625 592.69 197.372C593.585 196.717 594.879 195.782 596.473 194.659C599.661 192.413 604.048 189.417 608.846 186.424C613.645 183.429 618.847 180.441 623.666 178.203C628.504 175.957 632.886 174.5 636.072 174.5C649.009 174.5 659.5 185.02 659.5 198Z" fill="#D9D9D9" fill-opacity="0.2" stroke="white"/>
<path d="M636.32 204.24C635.584 204.24 634.848 204.16 634.112 204C633.392 203.84 632.712 203.616 632.072 203.328C631.448 203.04 630.912 202.696 630.464 202.296L631.472 199.968C632.224 200.528 632.992 200.952 633.776 201.24C634.576 201.512 635.408 201.648 636.272 201.648C637.312 201.648 638.12 201.392 638.696 200.88C639.288 200.352 639.584 199.648 639.584 198.768C639.584 197.872 639.304 197.152 638.744 196.608C638.184 196.048 637.416 195.768 636.44 195.768C635.752 195.768 635.12 195.904 634.544 196.176C633.984 196.432 633.48 196.832 633.032 197.376H630.992V187.08H641.504V189.624H633.92V195H633.176C633.592 194.44 634.144 194.008 634.832 193.704C635.536 193.4 636.32 193.248 637.184 193.248C638.272 193.248 639.216 193.472 640.016 193.92C640.816 194.368 641.44 195 641.888 195.816C642.336 196.616 642.56 197.56 642.56 198.648C642.56 199.752 642.304 200.728 641.792 201.576C641.296 202.408 640.576 203.064 639.632 203.544C638.704 204.008 637.6 204.24 636.32 204.24Z" fill="white"/>
<path d="M647.5 355C647.5 367.98 637.009 378.5 624.072 378.5C620.886 378.5 616.504 377.043 611.666 374.797C606.847 372.559 601.645 369.571 596.846 366.576C592.048 363.583 587.661 360.587 584.473 358.341C582.879 357.218 581.585 356.283 580.69 355.628C580.345 355.375 580.06 355.164 579.839 355C580.06 354.836 580.345 354.625 580.69 354.372C581.585 353.717 582.879 352.782 584.473 351.659C587.661 349.413 592.048 346.417 596.846 343.424C601.645 340.429 606.847 337.441 611.666 335.203C616.504 332.957 620.886 331.5 624.072 331.5C637.009 331.5 647.5 342.02 647.5 355Z" fill="#D9D9D9" fill-opacity="0.2" stroke="white"/>
<path d="M625.544 360V356.688H617.984V354.528L626.024 343.08H628.52V354.336H630.944V356.688H628.52V360H625.544ZM625.544 354.336V346.728H626.12L620.288 355.056V354.336H625.544Z" fill="white"/>
<path d="M361 421.5C348.02 421.5 337.5 411.009 337.5 398.072C337.5 394.886 338.957 390.504 341.203 385.666C343.441 380.847 346.429 375.645 349.424 370.846C352.417 366.048 355.413 361.661 357.659 358.473C358.782 356.879 359.717 355.585 360.372 354.69C360.625 354.345 360.836 354.06 361 353.839C361.164 354.06 361.375 354.345 361.628 354.69C362.283 355.585 363.218 356.879 364.341 358.473C366.587 361.661 369.583 366.048 372.576 370.846C375.571 375.645 378.559 380.847 380.797 385.666C383.043 390.504 384.5 394.886 384.5 398.072C384.5 411.009 373.98 421.5 361 421.5Z" fill="#D9D9D9" fill-opacity="0.2" stroke="white"/>
<path d="M360.741 406.24C359.573 406.24 358.453 406.072 357.381 405.736C356.309 405.384 355.429 404.904 354.741 404.296L355.749 401.968C356.501 402.544 357.277 402.968 358.077 403.24C358.893 403.512 359.749 403.648 360.645 403.648C361.733 403.648 362.557 403.432 363.117 403C363.677 402.568 363.957 401.936 363.957 401.104C363.957 400.304 363.677 399.704 363.117 399.304C362.573 398.888 361.773 398.68 360.717 398.68H357.981V396.208H360.453C361.365 396.208 362.093 395.984 362.637 395.536C363.181 395.088 363.453 394.472 363.453 393.688C363.453 392.952 363.197 392.392 362.685 392.008C362.189 391.624 361.469 391.432 360.525 391.432C358.829 391.432 357.333 392.008 356.037 393.16L355.029 390.856C355.717 390.216 356.565 389.72 357.573 389.368C358.597 389.016 359.669 388.84 360.789 388.84C362.549 388.84 363.925 389.24 364.917 390.04C365.925 390.824 366.429 391.92 366.429 393.328C366.429 394.336 366.141 395.208 365.565 395.944C365.005 396.664 364.229 397.144 363.237 397.384V397.096C364.405 397.288 365.309 397.768 365.949 398.536C366.605 399.288 366.933 400.232 366.933 401.368C366.933 402.872 366.381 404.064 365.277 404.944C364.173 405.808 362.661 406.24 360.741 406.24Z" fill="white"/>
<path d="M66.5 338C66.5 325.02 76.9906 314.5 89.9277 314.5C93.1136 314.5 97.4962 315.957 102.334 318.203C107.153 320.441 112.355 323.429 117.154 326.424C121.952 329.417 126.339 332.413 129.527 334.659C131.121 335.782 132.415 336.717 133.31 337.372C133.655 337.625 133.94 337.836 134.161 338C133.94 338.164 133.655 338.375 133.31 338.628C132.415 339.283 131.121 340.218 129.527 341.341C126.339 343.587 121.952 346.583 117.154 349.576C112.355 352.571 107.153 355.559 102.334 357.797C97.4963 360.043 93.1136 361.5 89.9277 361.5C76.9906 361.5 66.5 350.98 66.5 338Z" fill="#D9D9D9" fill-opacity="0.2" stroke="white"/>
<path d="M586.5 194L658 123.5" stroke="white" stroke-dasharray="5 5"/>
<path d="M557.5 194L560.5 82" stroke="white" stroke-dasharray="5 5"/>
<path d="M83.872 345V342.72L89.488 336.864C90.192 336.128 90.712 335.448 91.048 334.824C91.384 334.2 91.552 333.56 91.552 332.904C91.552 332.088 91.296 331.472 90.784 331.056C90.272 330.64 89.528 330.432 88.552 330.432C87.768 330.432 87.016 330.576 86.296 330.864C85.576 331.136 84.872 331.568 84.184 332.16L83.176 329.856C83.864 329.248 84.712 328.76 85.72 328.392C86.744 328.024 87.816 327.84 88.936 327.84C90.76 327.84 92.16 328.248 93.136 329.064C94.112 329.88 94.6 331.048 94.6 332.568C94.6 333.624 94.352 334.632 93.856 335.592C93.36 336.536 92.592 337.528 91.552 338.568L86.872 343.248V342.432H95.272V345H83.872Z" fill="white"/>
<mask id="mask0_3211_20955" style="mask-type:alpha" maskUnits="userSpaceOnUse" x="560" y="23" width="117" height="117">
<circle cx="618.5" cy="81.5" r="58.5" fill="#D9D9D9"/>
</mask>
<g mask="url(#mask0_3211_20955)">
<path d="M629.09 119.578C634.254 106.634 636.836 100.137 642 87.0726C642 74.2483 642 67.8242 642 55C584.325 55 526.675 55 469 55C469.217 136.445 469.434 217.913 469.652 299.358C527.133 303.472 584.591 308.02 642 313C642 287.207 642 274.287 642 248.494C611.305 246.473 580.585 244.548 549.889 242.744C549.889 229.005 549.865 222.148 549.841 208.433C576.265 209.733 602.689 211.056 629.114 212.427C629.114 186.731 629.114 173.883 629.114 148.21C602.665 147.392 576.217 146.598 549.745 145.828C549.745 134.664 549.72 129.082 549.696 117.918C576.169 118.447 602.641 119.001 629.09 119.554V119.578Z" fill="#FFD655"/>
</g>
<circle cx="618.5" cy="81.5" r="58" stroke="white"/>
<circle cx="572" cy="194" r="14.5" stroke="white"/>
</svg>
