<?xml version="1.0" encoding="UTF-8"?>
<svg id="Layer_2" data-name="Layer 2" xmlns="http://www.w3.org/2000/svg" viewBox="0 0 539.77 217.48">
  <defs>
    <style>
      .cls-1 {
        fill: #1c403a;
      }

      .cls-1, .cls-2 {
        fill-rule: evenodd;
      }

      .cls-3, .cls-4 {
        fill: #fff;
      }

      .cls-5 {
        fill: #f9f9f9;
      }

      .cls-6 {
        fill: #1aad91;
      }

      .cls-4 {
        font-family: Akrobat-Black, Akrobat;
        font-size: 32px;
        font-weight: 800;
      }

      .cls-2 {
        fill: none;
        stroke: #1aad91;
        stroke-linejoin: round;
        stroke-width: 3px;
      }
    </style>
  </defs>
  <g id="svg">
    <g>
      <g id="MN">
        <path class="cls-1" d="M496.02,21.11l-2.59,1.93-5.74,2.77s-.09.05-.14.08l-3.3,2.33c-.08.06-.15.13-.21.21l-8.57,10.99-7.6,7.98-2.23,2.53c-.18.2-.27.48-.25.75l1.02,11.15-5.84,5.3c-.15.14-.26.32-.3.53l-1.17,5.43c-.07.35.04.71.3.95l3.04,2.78-.93,12.91c-.03.34.12.67.39.87l3.59,2.72c.15.11.34.18.52.2l2.1.17,7.06,4.28,4.57,4.76c.08.08.17.14.27.19l5.48,2.79,1.16,6.4-3.75.38-47.72,3.98-19.13,1.07-3.84.23-.16-3.55-4.85-34.17c-.02-.13-.06-.25-.13-.37l-2.22-3.75,3.57-5.89c.04-.07.07-.14.1-.21l.09-.29c.07-.18.07-.38.02-.57l-.37-1.38-.47-4.39c-.02-.1-.04-.2-.08-.29l-2.16-5.08-.58-8.57s0-.08-.01-.13l-1.94-9.87-4.08-24.84s0-.08-.02-.11l-1.61-5.73,14.41-.57,11.84-.88c.54-.04.95-.5.92-1.05l-.31-6.08,2.5.71.29,1.98c.01.08.03.15.06.22l3.5,8.74c.13.33.43.57.78.62l9.84,1.39,1.02,1.56c.26.41.79.57,1.23.37l6.32-2.73h3.71l2.98.95-.19.22c-.2.23-.28.54-.22.84.06.3.25.56.53.7l3.59,1.84c.16.08.35.12.53.11l4.82-.35,1.52,1.83c.1.13.23.22.38.29l6.7,2.81c.24.1.52.11.76.01l7.67-3.13.99,1.19c.22.26.56.4.9.35l8.91-1.21,2.1,1.6c.18.14.4.2.63.2Z"/>
        <path class="cls-3" d="M487.74,113l-.99.1c.02.2.09.39.22.54l.34.41.53-.05c.21-.02.39-.11.54-.23l-.64-.77Z"/>
      </g>
      <g id="OR">
        <path class="cls-1" d="M110.24,73.94l9.97-13.03,4.33-10.87-2.67-2.9c-.23-.26-.37-.59-.39-.94l-.04-.79-.71-.15-26.8-6.1-.99.46c-.27.13-.58.17-.88.12l-5.13-.84-10.57,1.14c-.12.02-.24.02-.36,0l-6.52-.86-6.9-.1c-.63-.01-1.2-.42-1.4-1.02l-.27-.82-13.78-1.27c-.2-.02-.39-.08-.57-.17l-5.24-2.82c-.32-.17-.57-.46-.7-.8l-.68-1.84c-.07-.21-.1-.43-.09-.64l.53-6.63-2.22-2.41c-.43.23-.95.23-1.39.01l-4.31-2.25-2.33.7c-.36.11-.76.08-1.1-.09l-.26-.13-1.59,6.52c-.04.14-.09.27-.16.4l-1.31,2.24-5.93,14.43-1.72,7.93c-.14.64-.67,1.12-1.33,1.18h-.17s-5.28,12.58-5.28,12.58c-.03.08-.08.17-.13.24l-3.78,5.73c-.11.15-.23.29-.38.39l-1.07.76-3.19,6.22-.66,6.89c0,.11-.03.23-.07.33l-2,6.02,1.01,4.66,14.56,4.4,41.51,11.44,6.47,1.64,24.54,5.82,14.87,3.27.1-.53,9.12-37.84-2.42-5.76c-.11-.24-.14-.5-.11-.76l.29-2.42c.03-.27.13-.52.3-.74Z"/>
      </g>
      <g id="WI">
        <path class="cls-1" d="M539.68,125.59c-.03-.09-.04-.18-.04-.26v-4.31l-2.5-4.63c-.06-.12-.1-.24-.11-.37l-.68-6.11c-.01-.1-.01-.2.01-.29l1.23-6.64-.66-5.09c-.02-.16,0-.32.05-.47l2.14-5.97-.51-.63c-.16-.18-.24-.42-.23-.66l.19-6.02c.01-.08.02-.16.04-.23l1.11-4.02-.63-.67-1.76.6-1.38,3.64c-.09.22-.24.4-.44.51l-3.69,2.14c-.34.2-.77.17-1.09-.06-.32-.24-.47-.64-.38-1.03l1.16-5.14c.03-.14.09-.27.18-.39l3.13-4.14.14-1.37-4.25-4.24c-.18-.19-.29-.44-.29-.71v-6.12l-4.63-3.77-6.86-.47c-.06,0-.13-.01-.19-.03l-7.38-1.94-15.95-4.86c-.07-.02-.14-.05-.2-.09l-2.51-1.41c-.16.07-.35.1-.53.08l-4.61-.64-1.35.8c-.32.19-.73.18-1.04-.02-.32-.2-.5-.57-.46-.94l.5-5.27-6.33,3.25c-.09.04-.19.08-.3.09l-9.66,1.55-1.5,1.69,1.03,11.22c.03.31-.09.62-.32.83l-5.98,5.41-.97,4.56,2.97,2.72c.23.21.35.5.32.81l-.93,12.85,2.93,2.22,2.04.17c.15.01.3.06.43.14l7.38,4.46c.08.05.14.1.2.17l4.55,4.73,5.77,2.93c.27.14.47.41.53.71l1.35,7.48s.01.06.01.09c.01.03.01.06.01.09v.12l2.59,3.12c.21.26.28.6.19.92l-.72,2.4.9,5.27,2.63,3.6,5.14,2.7c.12.07.23.16.31.27l20.17-2.31,7.85-.97,11.97-1.69-.09-.36Z"/>
        <path class="cls-3" d="M487.37,104.86l1.35,7.48s.01.06.01.09c.01-.03,0-.06,0-.09l-1.36-7.48ZM486.75,113.1c.02.2.09.39.22.54l.34.41.53-.05c.21-.02.39-.11.54-.23l-.64-.77-.99.1Z"/>
      </g>
      <path class="cls-2" d="M455.45,83.76s26.1-5.31,44.62,3.41c21.8,10.28,25.51,33.05,25.51,33.05"/>
      <g>
        <circle class="cls-5" cx="455.45" cy="83.76" r="6.04"/>
        <path class="cls-6" d="M455.45,78.72c2.78,0,5.04,2.26,5.04,5.04s-2.26,5.04-5.04,5.04-5.04-2.26-5.04-5.04,2.26-5.04,5.04-5.04M455.45,76.72c-3.88,0-7.04,3.16-7.04,7.04s3.16,7.04,7.04,7.04,7.04-3.16,7.04-7.04-3.16-7.04-7.04-7.04h0Z"/>
      </g>
      <path class="cls-2" d="M39.88,26.2c65.91,272.22,508.3,202.14,485.69,94.03"/>
      <text class="cls-4" transform="translate(433.86 87.18)"><tspan x="0" y="0">1</tspan></text>
      <g>
        <path class="cls-5" d="M39.88,32.24c-3.33,0-6.04-2.71-6.04-6.04s2.71-6.04,6.04-6.04,6.04,2.71,6.04,6.04-2.71,6.04-6.04,6.04Z"/>
        <path class="cls-6" d="M39.88,21.16c2.78,0,5.04,2.26,5.04,5.04s-2.26,5.04-5.04,5.04-5.04-2.26-5.04-5.04,2.26-5.04,5.04-5.04M39.88,19.16c-3.88,0-7.04,3.16-7.04,7.04s3.16,7.04,7.04,7.04,7.04-3.16,7.04-7.04-3.16-7.04-7.04-7.04h0Z"/>
      </g>
      <g>
        <circle class="cls-5" cx="525.57" cy="120.23" r="6.04"/>
        <path class="cls-6" d="M525.57,115.19c2.78,0,5.04,2.26,5.04,5.04s-2.26,5.04-5.04,5.04-5.04-2.26-5.04-5.04,2.26-5.04,5.04-5.04M525.57,113.19c-3.88,0-7.04,3.16-7.04,7.04s3.16,7.04,7.04,7.04,7.04-3.16,7.04-7.04-3.16-7.04-7.04-7.04h0Z"/>
      </g>
      <text class="cls-4" transform="translate(501 125.27)"><tspan x="0" y="0">2</tspan></text>
      <text class="cls-4" transform="translate(24.32 58.93)"><tspan x="0" y="0">3</tspan></text>
    </g>
  </g>
</svg>