<?xml version="1.0" encoding="UTF-8"?>
<svg id="Layer_2" data-name="Layer 2" xmlns="http://www.w3.org/2000/svg" viewBox="0 0 72.76 8.78">
  <g id="Layer_1-2" data-name="Layer 1">
    <g>
      <path d="M67.82,5.21h.13l2.33,3.44h2.48l-2.61-3.56c.22-.05.44-.11.63-.21.45-.21.8-.51,1.05-.89s.38-.82.38-1.33-.12-.94-.37-1.32-.59-.67-1.03-.89c-.44-.22-.94-.32-1.52-.32h-3.62v8.51h2.15v-3.44ZM67.82,1.74h1.18c.35,0,.62.09.81.27.19.18.28.41.28.7s-.09.53-.28.7c-.19.17-.46.26-.81.26h-1.18v-1.93Z"/>
      <polygon points="60.15 8.65 64.31 8.65 64.31 6.84 60.15 6.84 60.15 5.2 63.88 5.2 63.88 3.43 60.15 3.43 60.15 1.96 64.24 1.96 64.24 .14 60.15 .14 59.71 .14 58 .14 58 8.65 59.71 8.65 60.15 8.65"/>
      <path d="M6.76,1.32c-.41-.38-.89-.67-1.44-.87-.55-.2-1.16-.31-1.81-.31H0v8.51h3.53c.65,0,1.25-.1,1.79-.31.55-.2,1.03-.49,1.43-.87s.73-.82.95-1.34c.23-.52.34-1.1.34-1.74s-.11-1.21-.34-1.73c-.23-.52-.55-.97-.95-1.34ZM5.57,5.71c-.19.36-.47.64-.82.82-.36.18-.77.28-1.25.28h-1.34V1.99h1.34c.48,0,.9.09,1.25.28.35.18.63.45.82.81.2.36.29.79.29,1.3s-.1.96-.29,1.33Z"/>
      <path d="M25.05,6.69c-.3.12-.66.19-1.06.19-.34,0-.66-.06-.94-.17-.28-.12-.53-.28-.74-.5-.21-.22-.37-.48-.49-.79-.12-.3-.17-.64-.17-1.02s.06-.72.17-1.02c.12-.3.28-.57.49-.79s.45-.39.74-.5c.28-.11.6-.17.94-.17.4,0,.75.06,1.04.19s.54.3.74.53l1.44-1.44c-.41-.38-.88-.67-1.42-.88s-1.14-.32-1.81-.32-1.23.11-1.78.34-1.03.53-1.44.92c-.41.39-.73.85-.96,1.39-.23.53-.34,1.11-.34,1.75s.11,1.2.34,1.74c.23.54.55,1,.96,1.4s.89.7,1.45.92c.55.22,1.15.33,1.8.33.7,0,1.32-.1,1.84-.31.52-.21.99-.5,1.41-.88l-1.44-1.44c-.22.23-.48.41-.78.53Z"/>
      <path d="M18.09,4.26c-.24-.2-.49-.36-.77-.49s-.56-.24-.85-.34c-.28-.1-.54-.19-.78-.28s-.43-.2-.57-.32c-.14-.12-.22-.28-.22-.47s.08-.34.25-.44.4-.16.7-.16c.31,0,.6.06.86.19.26.13.52.32.78.58l1.37-1.36c-.34-.37-.76-.66-1.28-.86-.52-.21-1.09-.31-1.7-.31s-1.16.1-1.62.31-.83.5-1.09.89c-.26.38-.39.85-.39,1.39,0,.42.07.78.22,1.07.14.29.33.53.57.72s.5.35.78.49c.28.13.57.24.85.34.28.09.54.19.78.29.24.1.43.22.57.35.14.13.22.3.22.5,0,.22-.1.39-.29.51-.2.12-.47.19-.83.19-.42,0-.8-.08-1.14-.25-.34-.16-.65-.4-.95-.71l-1.36,1.37c.43.46.91.8,1.43,1.02.52.22,1.14.32,1.85.32,1.07,0,1.91-.23,2.5-.7s.89-1.12.89-1.97c0-.43-.07-.8-.22-1.1-.14-.3-.33-.56-.57-.76Z"/>
      <rect x="9.17" y=".14" width="2.15" height="8.51"/>
      <rect x="43.8" y=".14" width="2.15" height="8.51"/>
      <polygon points="54.29 8.65 56.41 8.65 56.41 .14 54.87 .14 51.98 4.52 49.08 .14 47.53 .14 47.53 8.65 49.67 8.65 49.67 4.3 51.28 6.73 52.67 6.73 54.29 4.3 54.29 8.65"/>
      <path d="M37.69.14l-3.3,8.51h2.2l.52-1.49h3.16l.51,1.49h2.24L39.77.14h-2.08ZM37.71,5.46l1-2.84.98,2.84h-1.98Z"/>
      <polygon points="30.21 .14 28.06 .14 28.06 8.65 29.76 8.65 30.21 8.65 33.87 8.65 33.87 6.8 30.21 6.8 30.21 .14"/>
    </g>
    <g>
      <path d="M67.82,5.21h.13l2.33,3.44h2.48l-2.61-3.56c.22-.05.44-.11.63-.21.45-.21.8-.51,1.05-.89s.38-.82.38-1.33-.12-.94-.37-1.32-.59-.67-1.03-.89c-.44-.22-.94-.32-1.52-.32h-3.62v8.51h2.15v-3.44ZM67.82,1.74h1.18c.35,0,.62.09.81.27.19.18.28.41.28.7s-.09.53-.28.7c-.19.17-.46.26-.81.26h-1.18v-1.93Z"/>
      <polygon points="60.15 8.65 64.31 8.65 64.31 6.84 60.15 6.84 60.15 5.2 63.88 5.2 63.88 3.43 60.15 3.43 60.15 1.96 64.24 1.96 64.24 .14 60.15 .14 59.71 .14 58 .14 58 8.65 59.71 8.65 60.15 8.65"/>
      <path d="M6.76,1.32c-.41-.38-.89-.67-1.44-.87-.55-.2-1.16-.31-1.81-.31H0v8.51h3.53c.65,0,1.25-.1,1.79-.31.55-.2,1.03-.49,1.43-.87s.73-.82.95-1.34c.23-.52.34-1.1.34-1.74s-.11-1.21-.34-1.73c-.23-.52-.55-.97-.95-1.34ZM5.57,5.71c-.19.36-.47.64-.82.82-.36.18-.77.28-1.25.28h-1.34V1.99h1.34c.48,0,.9.09,1.25.28.35.18.63.45.82.81.2.36.29.79.29,1.3s-.1.96-.29,1.33Z"/>
      <path d="M25.05,6.69c-.3.12-.66.19-1.06.19-.34,0-.66-.06-.94-.17-.28-.12-.53-.28-.74-.5-.21-.22-.37-.48-.49-.79-.12-.3-.17-.64-.17-1.02s.06-.72.17-1.02c.12-.3.28-.57.49-.79s.45-.39.74-.5c.28-.11.6-.17.94-.17.4,0,.75.06,1.04.19s.54.3.74.53l1.44-1.44c-.41-.38-.88-.67-1.42-.88s-1.14-.32-1.81-.32-1.23.11-1.78.34-1.03.53-1.44.92c-.41.39-.73.85-.96,1.39-.23.53-.34,1.11-.34,1.75s.11,1.2.34,1.74c.23.54.55,1,.96,1.4s.89.7,1.45.92c.55.22,1.15.33,1.8.33.7,0,1.32-.1,1.84-.31.52-.21.99-.5,1.41-.88l-1.44-1.44c-.22.23-.48.41-.78.53Z"/>
      <path d="M18.09,4.26c-.24-.2-.49-.36-.77-.49s-.56-.24-.85-.34c-.28-.1-.54-.19-.78-.28s-.43-.2-.57-.32c-.14-.12-.22-.28-.22-.47s.08-.34.25-.44.4-.16.7-.16c.31,0,.6.06.86.19.26.13.52.32.78.58l1.37-1.36c-.34-.37-.76-.66-1.28-.86-.52-.21-1.09-.31-1.7-.31s-1.16.1-1.62.31-.83.5-1.09.89c-.26.38-.39.85-.39,1.39,0,.42.07.78.22,1.07.14.29.33.53.57.72s.5.35.78.49c.28.13.57.24.85.34.28.09.54.19.78.29.24.1.43.22.57.35.14.13.22.3.22.5,0,.22-.1.39-.29.51-.2.12-.47.19-.83.19-.42,0-.8-.08-1.14-.25-.34-.16-.65-.4-.95-.71l-1.36,1.37c.43.46.91.8,1.43,1.02.52.22,1.14.32,1.85.32,1.07,0,1.91-.23,2.5-.7s.89-1.12.89-1.97c0-.43-.07-.8-.22-1.1-.14-.3-.33-.56-.57-.76Z"/>
      <rect x="9.17" y=".14" width="2.15" height="8.51"/>
      <rect x="43.8" y=".14" width="2.15" height="8.51"/>
      <polygon points="54.29 8.65 56.41 8.65 56.41 .14 54.87 .14 51.98 4.52 49.08 .14 47.53 .14 47.53 8.65 49.67 8.65 49.67 4.3 51.28 6.73 52.67 6.73 54.29 4.3 54.29 8.65"/>
      <path d="M37.69.14l-3.3,8.51h2.2l.52-1.49h3.16l.51,1.49h2.24L39.77.14h-2.08ZM37.71,5.46l1-2.84.98,2.84h-1.98Z"/>
      <polygon points="30.21 .14 28.06 .14 28.06 8.65 29.76 8.65 30.21 8.65 33.87 8.65 33.87 6.8 30.21 6.8 30.21 .14"/>
    </g>
  </g>
</svg>