<svg width="227" height="118" viewBox="0 0 227 118" fill="none" xmlns="http://www.w3.org/2000/svg">
<path d="M66 0C68.2091 0 70 1.79086 70 4V37C70 39.2091 68.2091 41 66 41H4C1.79086 41 0 39.2091 0 37V4C5.79839e-07 1.79086 1.79086 1.20798e-08 4 0H66ZM50.2773 15.7383C48.9935 15.7383 47.8743 16.0228 46.9199 16.5908C45.9711 17.159 45.2346 17.9517 44.7119 18.9688C44.1892 19.9858 43.9287 21.1681 43.9287 22.5146C43.9288 23.8951 44.1892 25.0913 44.7119 26.1025C45.2346 27.1082 45.9794 27.8864 46.9453 28.4375C47.9169 28.983 49.0763 29.2559 50.4229 29.2559C51.5021 29.2558 52.4536 29.0911 53.2773 28.7617C54.1069 28.4265 54.7829 27.9599 55.3057 27.3633C55.8341 26.761 56.184 26.0568 56.3545 25.25L52.9961 25.0283C52.8711 25.3577 52.6897 25.6361 52.4512 25.8633C52.2125 26.0906 51.9251 26.2614 51.5898 26.375C51.2548 26.4885 50.8856 26.5459 50.4824 26.5459C49.8745 26.5459 49.3485 26.4178 48.9053 26.1621C48.4622 25.9064 48.1183 25.5428 47.874 25.0713C47.6354 24.5997 47.5166 24.0393 47.5166 23.3916V23.3838H56.4307V22.3867C56.4307 21.2731 56.2744 20.3012 55.9619 19.4717C55.6494 18.6365 55.2119 17.9427 54.6494 17.3916C54.0927 16.8407 53.4393 16.4289 52.6895 16.1562C51.9452 15.8779 51.1409 15.7383 50.2773 15.7383ZM12.8525 11.5459V14.5879H18.1963V29H21.8438V14.5879H27.1875V11.5459H12.8525ZM29.4805 11.5459V29H33.1104V21.4316C33.1161 20.8692 33.2244 20.3889 33.4346 19.9912C33.6505 19.5879 33.9463 19.2815 34.3213 19.0713C34.7019 18.8611 35.1395 18.7559 35.6338 18.7559C36.3723 18.7559 36.9464 18.9799 37.3555 19.4287C37.7702 19.8776 37.9744 20.5057 37.9688 21.3125V29H41.5996V20.665C41.6053 19.6423 41.4178 18.7642 41.0371 18.0312C40.6621 17.2927 40.1339 16.727 39.4521 16.335C38.7761 15.9373 37.9832 15.7383 37.0742 15.7383C36.0799 15.7383 35.2528 15.9602 34.5938 16.4033C33.9347 16.8408 33.4576 17.4461 33.1621 18.2188H33.0088V11.5459H29.4805ZM50.3369 18.4492C50.8652 18.4492 51.3289 18.565 51.7266 18.7979C52.13 19.0251 52.4456 19.3407 52.6729 19.7441C52.9001 20.1475 53.0137 20.6111 53.0137 21.1338H47.5215C47.5434 20.6637 47.6627 20.2346 47.8828 19.8467C48.1214 19.4206 48.4507 19.082 48.8711 18.832C49.2971 18.5764 49.786 18.4493 50.3369 18.4492Z" fill="#EFEDE7"/>
<path d="M18.5625 102.355H0V49.9915H18.7159C23.983 49.9915 28.517 51.0398 32.3182 53.1364C36.1193 55.2159 39.0426 58.2074 41.0881 62.1108C43.1506 66.0142 44.1818 70.6847 44.1818 76.1222C44.1818 81.5767 43.1506 86.2642 41.0881 90.1847C39.0426 94.1051 36.1023 97.1136 32.267 99.2102C28.4489 101.307 23.8807 102.355 18.5625 102.355ZM11.071 92.8693H18.1023C21.375 92.8693 24.1278 92.2898 26.3608 91.1307C28.6108 89.9545 30.2983 88.1392 31.4233 85.6847C32.5653 83.2131 33.1364 80.0256 33.1364 76.1222C33.1364 72.2528 32.5653 69.0909 31.4233 66.6364C30.2983 64.1818 28.6193 62.375 26.3864 61.2159C24.1534 60.0568 21.4006 59.4773 18.1278 59.4773H11.071V92.8693Z" fill="#EFEDE7"/>
<path d="M67.916 103.122C63.8762 103.122 60.3989 102.304 57.4842 100.668C54.5864 99.0142 52.3535 96.679 50.7853 93.6619C49.2171 90.6278 48.433 87.0398 48.433 82.8977C48.433 78.858 49.2171 75.3125 50.7853 72.2614C52.3535 69.2102 54.5609 66.8324 57.4075 65.1278C60.2711 63.4233 63.6291 62.571 67.4813 62.571C70.0722 62.571 72.4842 62.9886 74.7171 63.8239C76.9671 64.642 78.9274 65.8778 80.5978 67.5313C82.2853 69.1847 83.5978 71.2642 84.5353 73.7699C85.4728 76.2585 85.9416 79.1733 85.9416 82.5142V85.5057H52.7796V78.7557H75.6887C75.6887 77.1875 75.3478 75.7983 74.666 74.5881C73.9842 73.3778 73.0382 72.4318 71.8279 71.75C70.6347 71.0511 69.2455 70.7017 67.6603 70.7017C66.0069 70.7017 64.541 71.0852 63.2626 71.8523C62.0012 72.6023 61.0126 73.6165 60.2967 74.8949C59.5808 76.1563 59.2143 77.5625 59.1972 79.1136V85.5313C59.1972 87.4744 59.5552 89.1534 60.2711 90.5682C61.0041 91.983 62.0353 93.0739 63.3649 93.8409C64.6944 94.608 66.2711 94.9915 68.095 94.9915C69.3052 94.9915 70.4132 94.821 71.4188 94.4801C72.4245 94.1392 73.2853 93.6278 74.0012 92.946C74.7171 92.2642 75.2626 91.429 75.6376 90.4403L85.7114 91.1051C85.2001 93.5256 84.1518 95.6392 82.5666 97.446C80.9984 99.2358 78.97 100.634 76.4813 101.639C74.0097 102.628 71.1546 103.122 67.916 103.122Z" fill="#EFEDE7"/>
<path d="M123.566 74.2813L113.594 74.8949C113.424 74.0426 113.057 73.2756 112.495 72.5938C111.932 71.8949 111.191 71.3409 110.27 70.9318C109.367 70.5057 108.284 70.2926 107.023 70.2926C105.336 70.2926 103.912 70.6506 102.753 71.3665C101.594 72.0653 101.015 73.0028 101.015 74.179C101.015 75.1165 101.39 75.9091 102.14 76.5568C102.89 77.2045 104.176 77.7244 106 78.1165L113.108 79.5483C116.926 80.3324 119.773 81.5938 121.648 83.3324C123.523 85.071 124.461 87.3551 124.461 90.1847C124.461 92.7585 123.702 95.017 122.185 96.9602C120.685 98.9034 118.622 100.42 115.997 101.511C113.39 102.585 110.381 103.122 106.972 103.122C101.773 103.122 97.631 102.04 94.5458 99.875C91.4776 97.6932 89.6793 94.7273 89.1509 90.9773L99.864 90.4148C100.188 92 100.972 93.2102 102.216 94.0455C103.461 94.8636 105.054 95.2727 106.997 95.2727C108.907 95.2727 110.441 94.9063 111.6 94.1733C112.776 93.4233 113.372 92.4602 113.39 91.2841C113.372 90.2955 112.955 89.4858 112.137 88.8551C111.318 88.2074 110.057 87.7131 108.353 87.3722L101.551 86.017C97.7162 85.25 94.8611 83.9205 92.9861 82.0284C91.1282 80.1364 90.1992 77.7244 90.1992 74.7926C90.1992 72.2699 90.881 70.0966 92.2446 68.2727C93.6253 66.4489 95.56 65.0426 98.0486 64.054C100.554 63.0653 103.486 62.571 106.844 62.571C111.804 62.571 115.708 63.6193 118.554 65.7159C121.418 67.8125 123.088 70.6676 123.566 74.2813Z" fill="#EFEDE7"/>
<path d="M129.159 102.355V63.0824H140.051V102.355H129.159ZM134.631 58.0199C133.011 58.0199 131.622 57.483 130.463 56.4091C129.321 55.3182 128.75 54.0142 128.75 52.4972C128.75 50.9972 129.321 49.7102 130.463 48.6364C131.622 47.5455 133.011 47 134.631 47C136.25 47 137.631 47.5455 138.773 48.6364C139.932 49.7102 140.511 50.9972 140.511 52.4972C140.511 54.0142 139.932 55.3182 138.773 56.4091C137.631 57.483 136.25 58.0199 134.631 58.0199Z" fill="#EFEDE7"/>
<path d="M164.31 117.901C160.781 117.901 157.756 117.415 155.233 116.443C152.727 115.489 150.733 114.185 149.25 112.531C147.767 110.878 146.804 109.02 146.361 106.957L156.435 105.602C156.741 106.386 157.227 107.119 157.892 107.801C158.557 108.483 159.435 109.028 160.525 109.438C161.633 109.864 162.98 110.077 164.565 110.077C166.935 110.077 168.886 109.497 170.42 108.338C171.972 107.196 172.747 105.278 172.747 102.585V95.4006H172.287C171.81 96.4915 171.094 97.5227 170.139 98.4943C169.185 99.4659 167.957 100.259 166.457 100.872C164.957 101.486 163.168 101.793 161.088 101.793C158.139 101.793 155.454 101.111 153.034 99.7472C150.631 98.3665 148.713 96.2614 147.281 93.4318C145.866 90.5852 145.159 86.9886 145.159 82.642C145.159 78.1932 145.883 74.4773 147.332 71.4943C148.781 68.5114 150.707 66.2784 153.111 64.7955C155.531 63.3125 158.182 62.571 161.062 62.571C163.261 62.571 165.102 62.946 166.585 63.696C168.068 64.429 169.261 65.3494 170.165 66.4574C171.085 67.5483 171.793 68.6222 172.287 69.679H172.696V63.0824H183.511V102.739C183.511 106.08 182.693 108.875 181.057 111.125C179.42 113.375 177.153 115.062 174.256 116.188C171.375 117.33 168.06 117.901 164.31 117.901ZM164.54 93.6108C166.295 93.6108 167.778 93.1761 168.989 92.3068C170.216 91.4205 171.153 90.1591 171.801 88.5227C172.466 86.8693 172.798 84.892 172.798 82.5909C172.798 80.2898 172.474 78.2955 171.827 76.608C171.179 74.9034 170.241 73.5824 169.014 72.6449C167.787 71.7074 166.295 71.2386 164.54 71.2386C162.75 71.2386 161.241 71.7244 160.014 72.696C158.787 73.6506 157.858 74.9801 157.227 76.6847C156.597 78.3892 156.281 80.358 156.281 82.5909C156.281 84.858 156.597 86.8182 157.227 88.4716C157.875 90.108 158.804 91.3778 160.014 92.2813C161.241 93.1676 162.75 93.6108 164.54 93.6108Z" fill="#EFEDE7"/>
<path d="M200.911 79.6506V102.355H190.019V63.0824H200.4V70.0114H200.86C201.729 67.7273 203.187 65.9205 205.232 64.5909C207.277 63.2443 209.758 62.571 212.672 62.571C215.4 62.571 217.777 63.1676 219.806 64.3608C221.834 65.554 223.411 67.2585 224.536 69.4744C225.661 71.6733 226.223 74.2983 226.223 77.3494V102.355H215.331V79.2926C215.348 76.8892 214.735 75.0142 213.49 73.6676C212.246 72.304 210.533 71.6222 208.351 71.6222C206.885 71.6222 205.59 71.9375 204.465 72.5682C203.357 73.1989 202.488 74.1193 201.857 75.3295C201.243 76.5227 200.928 77.9631 200.911 79.6506Z" fill="#EFEDE7"/>
</svg>
