<svg width="70" height="41" viewBox="0 0 70 41" fill="none" xmlns="http://www.w3.org/2000/svg">
<path d="M64 0C67.3137 0 70 2.68629 70 6V35C70 38.3137 67.3137 41 64 41H6C2.68629 41 0 38.3137 0 35V6C0 2.68629 2.68629 8.85852e-08 6 0H64ZM50.2773 15.7383C48.9935 15.7383 47.8743 16.0228 46.9199 16.5908C45.9711 17.159 45.2346 17.9517 44.7119 18.9688C44.1892 19.9858 43.9287 21.1681 43.9287 22.5146C43.9288 23.8951 44.1892 25.0913 44.7119 26.1025C45.2346 27.1082 45.9794 27.8864 46.9453 28.4375C47.9169 28.983 49.0763 29.2559 50.4229 29.2559C51.5021 29.2558 52.4536 29.0911 53.2773 28.7617C54.1069 28.4265 54.7829 27.9599 55.3057 27.3633C55.8341 26.761 56.184 26.0568 56.3545 25.25L52.9961 25.0283C52.8711 25.3577 52.6897 25.6361 52.4512 25.8633C52.2125 26.0906 51.9251 26.2614 51.5898 26.375C51.2548 26.4885 50.8856 26.5459 50.4824 26.5459C49.8745 26.5459 49.3485 26.4178 48.9053 26.1621C48.4622 25.9064 48.1183 25.5428 47.874 25.0713C47.6354 24.5997 47.5166 24.0393 47.5166 23.3916V23.3838H56.4307V22.3867C56.4307 21.2731 56.2744 20.3012 55.9619 19.4717C55.6494 18.6365 55.2119 17.9427 54.6494 17.3916C54.0927 16.8407 53.4393 16.4289 52.6895 16.1562C51.9452 15.8779 51.1409 15.7383 50.2773 15.7383ZM12.8525 11.5459V14.5879H18.1963V29H21.8438V14.5879H27.1875V11.5459H12.8525ZM29.4805 11.5459V29H33.1104V21.4316C33.1161 20.8692 33.2244 20.3889 33.4346 19.9912C33.6505 19.5879 33.9463 19.2815 34.3213 19.0713C34.7019 18.8611 35.1395 18.7559 35.6338 18.7559C36.3723 18.7559 36.9464 18.9799 37.3555 19.4287C37.7702 19.8776 37.9744 20.5057 37.9688 21.3125V29H41.5996V20.665C41.6053 19.6423 41.4178 18.7642 41.0371 18.0312C40.6621 17.2927 40.1339 16.727 39.4521 16.335C38.7761 15.9373 37.9832 15.7383 37.0742 15.7383C36.0799 15.7383 35.2528 15.9602 34.5938 16.4033C33.9347 16.8408 33.4576 17.4461 33.1621 18.2188H33.0088V11.5459H29.4805ZM50.3369 18.4492C50.8652 18.4492 51.3289 18.565 51.7266 18.7979C52.13 19.0251 52.4456 19.3407 52.6729 19.7441C52.9001 20.1475 53.0137 20.6111 53.0137 21.1338H47.5215C47.5434 20.6637 47.6627 20.2346 47.8828 19.8467C48.1214 19.4206 48.4507 19.082 48.8711 18.832C49.2971 18.5764 49.786 18.4493 50.3369 18.4492Z" fill="#EFEDE7"/>
</svg>
