<svg width="231" height="116" viewBox="0 0 231 116" fill="none" xmlns="http://www.w3.org/2000/svg">
<path d="M50.7062 18.4492C51.2346 18.4492 51.6982 18.565 52.0959 18.7979C52.4993 19.0251 52.8149 19.3407 53.0422 19.7441C53.2694 20.1475 53.383 20.6111 53.383 21.1338H47.8908C47.9127 20.6637 48.032 20.2346 48.2521 19.8467C48.4907 19.4206 48.82 19.082 49.2404 18.832C49.6664 18.5764 50.1553 18.4493 50.7062 18.4492Z" fill="#EFEDE7"/>
<path fill-rule="evenodd" clip-rule="evenodd" d="M64.3693 0C67.683 0 70.3693 2.68629 70.3693 6V35C70.3693 38.3137 67.683 41 64.3693 41H6.36932C3.05561 41 0.369318 38.3137 0.369318 35V6C0.369318 2.68629 3.05561 8.85852e-08 6.36932 0H64.3693ZM50.6467 15.7383C49.3628 15.7383 48.2437 16.0228 47.2892 16.5908C46.3404 17.159 45.604 17.9517 45.0812 18.9688C44.5586 19.9858 44.298 21.1681 44.298 22.5146C44.2981 23.8951 44.5586 25.0913 45.0812 26.1025C45.604 27.1082 46.3487 27.8864 47.3146 28.4375C48.2862 28.983 49.4456 29.2559 50.7922 29.2559C51.8714 29.2558 52.823 29.0911 53.6467 28.7617C54.4762 28.4265 55.1523 27.9599 55.675 27.3633C56.2034 26.761 56.5534 26.0568 56.7238 25.25L53.3654 25.0283C53.2405 25.3577 53.059 25.6361 52.8205 25.8633C52.5819 26.0906 52.2944 26.2614 51.9592 26.375C51.6241 26.4885 51.255 26.5459 50.8517 26.5459C50.2438 26.5459 49.7178 26.4178 49.2746 26.1621C48.8315 25.9064 48.4876 25.5428 48.2433 25.0713C48.0047 24.5997 47.8859 24.0393 47.8859 23.3916V23.3838H56.8V22.3867C56.8 21.2731 56.6437 20.3012 56.3312 19.4717C56.0187 18.6365 55.5812 17.9427 55.0187 17.3916C54.462 16.8407 53.8086 16.4289 53.0588 16.1562C52.3145 15.8779 51.5102 15.7383 50.6467 15.7383ZM13.2219 11.5459V14.5879H18.5656V29H22.2131V14.5879H27.5568V11.5459H13.2219ZM29.8498 11.5459V29H33.4797V21.4316C33.4854 20.8692 33.5937 20.3889 33.8039 19.9912C34.0198 19.5879 34.3157 19.2815 34.6906 19.0713C35.0713 18.8611 35.5088 18.7559 36.0031 18.7559C36.7416 18.7559 37.3157 18.9799 37.7248 19.4287C38.1395 19.8776 38.3438 20.5057 38.3381 21.3125V29H41.9689V20.665C41.9746 19.6423 41.7871 18.7642 41.4064 18.0312C41.0315 17.2927 40.5032 16.727 39.8215 16.335C39.1454 15.9373 38.3525 15.7383 37.4435 15.7383C36.4492 15.7383 35.6222 15.9602 34.9631 16.4033C34.304 16.8408 33.8269 17.4461 33.5314 18.2188H33.3781V11.5459H29.8498Z" fill="#EFEDE7"/>
<path d="M49.0398 74.8182C49.0398 80.5284 47.9574 85.3864 45.7926 89.392C43.6449 93.3977 40.7131 96.4574 36.9972 98.571C33.2983 100.668 29.1392 101.716 24.5199 101.716C19.8665 101.716 15.6903 100.659 11.9915 98.5455C8.29261 96.4318 5.36932 93.3722 3.22159 89.3665C1.07386 85.3608 0 80.5114 0 74.8182C0 69.108 1.07386 64.25 3.22159 60.2443C5.36932 56.2386 8.29261 53.1875 11.9915 51.0909C15.6903 48.9773 19.8665 47.9205 24.5199 47.9205C29.1392 47.9205 33.2983 48.9773 36.9972 51.0909C40.7131 53.1875 43.6449 56.2386 45.7926 60.2443C47.9574 64.25 49.0398 69.108 49.0398 74.8182ZM37.8153 74.8182C37.8153 71.1193 37.2614 68 36.1534 65.4602C35.0625 62.9205 33.5199 60.9943 31.5256 59.6818C29.5313 58.3693 27.196 57.7131 24.5199 57.7131C21.8438 57.7131 19.5085 58.3693 17.5142 59.6818C15.5199 60.9943 13.9688 62.9205 12.8608 65.4602C11.7699 68 11.2244 71.1193 11.2244 74.8182C11.2244 78.517 11.7699 81.6364 12.8608 84.1761C13.9688 86.7159 15.5199 88.642 17.5142 89.9545C19.5085 91.267 21.8438 91.9233 24.5199 91.9233C27.196 91.9233 29.5313 91.267 31.5256 89.9545C33.5199 88.642 35.0625 86.7159 36.1534 84.1761C37.2614 81.6364 37.8153 78.517 37.8153 74.8182Z" fill="#EFEDE7"/>
<path d="M80.0609 84.2784V61.7273H90.9529V101H80.4955V93.8665H80.0864C79.2001 96.1676 77.7257 98.017 75.6632 99.4148C73.6177 100.812 71.1205 101.511 68.1717 101.511C65.5467 101.511 63.237 100.915 61.2427 99.7216C59.2484 98.5284 57.6887 96.8324 56.5637 94.6335C55.4558 92.4347 54.8933 89.8011 54.8762 86.733V61.7273H65.7683V84.7898C65.7853 87.108 66.4075 88.9403 67.6347 90.2869C68.862 91.6335 70.5069 92.3068 72.5694 92.3068C73.8819 92.3068 75.1092 92.0085 76.2512 91.4119C77.3933 90.7983 78.3137 89.8949 79.0126 88.7017C79.7285 87.5085 80.0779 86.0341 80.0609 84.2784Z" fill="#EFEDE7"/>
<path d="M118.394 61.7273V69.9091H94.7439V61.7273H118.394ZM100.113 52.3182H111.005V88.9318C111.005 89.9375 111.159 90.7216 111.466 91.2841C111.772 91.8295 112.198 92.2131 112.744 92.4347C113.306 92.6563 113.954 92.767 114.687 92.767C115.198 92.767 115.71 92.7244 116.221 92.6392C116.733 92.5369 117.125 92.4602 117.397 92.4091L119.11 100.514C118.565 100.685 117.798 100.881 116.809 101.102C115.821 101.341 114.619 101.486 113.204 101.537C110.579 101.639 108.278 101.29 106.301 100.489C104.341 99.6875 102.815 98.4432 101.724 96.7557C100.633 95.0682 100.096 92.9375 100.113 90.3636V52.3182Z" fill="#EFEDE7"/>
<path d="M123.33 115.727V61.7273H134.068V68.3239H134.554C135.031 67.267 135.722 66.1932 136.625 65.1023C137.546 63.9943 138.739 63.0739 140.205 62.3409C141.688 61.5909 143.529 61.2159 145.727 61.2159C148.591 61.2159 151.233 61.9659 153.654 63.4659C156.074 64.9489 158.009 67.1903 159.457 70.1903C160.906 73.1733 161.631 76.9148 161.631 81.4148C161.631 85.7955 160.923 89.4943 159.509 92.5114C158.111 95.5114 156.202 97.7869 153.781 99.3381C151.378 100.872 148.685 101.639 145.702 101.639C143.588 101.639 141.79 101.29 140.307 100.591C138.841 99.892 137.639 99.0142 136.702 97.9574C135.764 96.8835 135.048 95.8011 134.554 94.7102H134.222V115.727H123.33ZM133.992 81.3636C133.992 83.6989 134.315 85.7358 134.963 87.4744C135.611 89.2131 136.548 90.5682 137.776 91.5398C139.003 92.4943 140.494 92.9716 142.25 92.9716C144.023 92.9716 145.523 92.4858 146.75 91.5142C147.977 90.5256 148.906 89.1619 149.537 87.4233C150.185 85.6676 150.509 83.6477 150.509 81.3636C150.509 79.0966 150.193 77.1023 149.563 75.3807C148.932 73.6591 148.003 72.3125 146.776 71.3409C145.548 70.3693 144.04 69.8835 142.25 69.8835C140.477 69.8835 138.977 70.3523 137.75 71.2898C136.54 72.2273 135.611 73.5568 134.963 75.2784C134.315 77 133.992 79.0284 133.992 81.3636Z" fill="#EFEDE7"/>
<path d="M191.917 84.2784V61.7273H202.809V101H192.351V93.8665H191.942C191.056 96.1676 189.582 98.017 187.519 99.4148C185.474 100.812 182.976 101.511 180.028 101.511C177.403 101.511 175.093 100.915 173.099 99.7216C171.104 98.5284 169.545 96.8324 168.42 94.6335C167.312 92.4347 166.749 89.8011 166.732 86.733V61.7273H177.624V84.7898C177.641 87.108 178.263 88.9403 179.491 90.2869C180.718 91.6335 182.363 92.3068 184.425 92.3068C185.738 92.3068 186.965 92.0085 188.107 91.4119C189.249 90.7983 190.17 89.8949 190.869 88.7017C191.584 87.5085 191.934 86.0341 191.917 84.2784Z" fill="#EFEDE7"/>
<path d="M230.25 61.7273V69.9091H206.6V61.7273H230.25ZM211.969 52.3182H222.861V88.9318C222.861 89.9375 223.015 90.7216 223.321 91.2841C223.628 91.8295 224.054 92.2131 224.6 92.4347C225.162 92.6563 225.81 92.767 226.543 92.767C227.054 92.767 227.566 92.7244 228.077 92.6392C228.588 92.5369 228.981 92.4602 229.253 92.4091L230.966 100.514C230.421 100.685 229.654 100.881 228.665 101.102C227.677 101.341 226.475 101.486 225.06 101.537C222.435 101.639 220.134 101.29 218.157 100.489C216.196 99.6875 214.671 98.4432 213.58 96.7557C212.489 95.0682 211.952 92.9375 211.969 90.3636V52.3182Z" fill="#EFEDE7"/>
</svg>
