<svg width="162" height="117" viewBox="0 0 162 117" fill="none" xmlns="http://www.w3.org/2000/svg">
<path d="M50.3369 18.4492C50.8652 18.4492 51.3289 18.565 51.7266 18.7979C52.13 19.0251 52.4456 19.3407 52.6729 19.7441C52.9001 20.1475 53.0137 20.6111 53.0137 21.1338H47.5215C47.5434 20.6637 47.6627 20.2346 47.8828 19.8467C48.1214 19.4206 48.4507 19.082 48.8711 18.832C49.2971 18.5764 49.786 18.4493 50.3369 18.4492Z" fill="#EFEDE7"/>
<path fill-rule="evenodd" clip-rule="evenodd" d="M64 0C67.3137 0 70 2.68629 70 6V35C70 38.3137 67.3137 41 64 41H6C2.68629 41 0 38.3137 0 35V6C0 2.68629 2.68629 8.85852e-08 6 0H64ZM50.2773 15.7383C48.9935 15.7383 47.8743 16.0228 46.9199 16.5908C45.9711 17.159 45.2346 17.9517 44.7119 18.9688C44.1892 19.9858 43.9287 21.1681 43.9287 22.5146C43.9288 23.8951 44.1892 25.0913 44.7119 26.1025C45.2346 27.1082 45.9794 27.8864 46.9453 28.4375C47.9169 28.983 49.0763 29.2559 50.4229 29.2559C51.5021 29.2558 52.4536 29.0911 53.2773 28.7617C54.1069 28.4265 54.7829 27.9599 55.3057 27.3633C55.8341 26.761 56.184 26.0568 56.3545 25.25L52.9961 25.0283C52.8711 25.3577 52.6897 25.6361 52.4512 25.8633C52.2125 26.0906 51.9251 26.2614 51.5898 26.375C51.2548 26.4885 50.8856 26.5459 50.4824 26.5459C49.8745 26.5459 49.3485 26.4178 48.9053 26.1621C48.4622 25.9064 48.1183 25.5428 47.874 25.0713C47.6354 24.5997 47.5166 24.0393 47.5166 23.3916V23.3838H56.4307V22.3867C56.4307 21.2731 56.2744 20.3012 55.9619 19.4717C55.6494 18.6365 55.2119 17.9427 54.6494 17.3916C54.0927 16.8407 53.4393 16.4289 52.6895 16.1562C51.9452 15.8779 51.1409 15.7383 50.2773 15.7383ZM12.8525 11.5459V14.5879H18.1963V29H21.8438V14.5879H27.1875V11.5459H12.8525ZM29.4805 11.5459V29H33.1104V21.4316C33.1161 20.8692 33.2244 20.3889 33.4346 19.9912C33.6505 19.5879 33.9463 19.2815 34.3213 19.0713C34.7019 18.8611 35.1395 18.7559 35.6338 18.7559C36.3723 18.7559 36.9464 18.9799 37.3555 19.4287C37.7702 19.8776 37.9744 20.5057 37.9688 21.3125V29H41.5996V20.665C41.6053 19.6423 41.4178 18.7642 41.0371 18.0312C40.6621 17.2927 40.1339 16.727 39.4521 16.335C38.7761 15.9373 37.9832 15.7383 37.0742 15.7383C36.0799 15.7383 35.2528 15.9602 34.5938 16.4033C33.9347 16.8408 33.4576 17.4461 33.1621 18.2188H33.0088V11.5459H29.4805Z" fill="#EFEDE7"/>
<path d="M0.551136 101V48.6364H11.6222V91.8722H34.071V101H0.551136Z" fill="#EFEDE7"/>
<path d="M56.7825 101.767C52.8109 101.767 49.3762 100.923 46.4785 99.2358C43.5978 97.5312 41.3734 95.1619 39.8052 92.1278C38.237 89.0767 37.4529 85.5398 37.4529 81.517C37.4529 77.4602 38.237 73.9148 39.8052 70.8807C41.3734 67.8295 43.5978 65.4602 46.4785 63.7727C49.3762 62.0682 52.8109 61.2159 56.7825 61.2159C60.7541 61.2159 64.1802 62.0682 67.0609 63.7727C69.9586 65.4602 72.1916 67.8295 73.7597 70.8807C75.3279 73.9148 76.112 77.4602 76.112 81.517C76.112 85.5398 75.3279 89.0767 73.7597 92.1278C72.1916 95.1619 69.9586 97.5312 67.0609 99.2358C64.1802 100.923 60.7541 101.767 56.7825 101.767ZM56.8336 93.3295C58.6404 93.3295 60.1489 92.8182 61.3592 91.7955C62.5694 90.7557 63.4813 89.3409 64.095 87.5511C64.7257 85.7614 65.041 83.7244 65.041 81.4403C65.041 79.1562 64.7257 77.1193 64.095 75.3295C63.4813 73.5398 62.5694 72.125 61.3592 71.0852C60.1489 70.0455 58.6404 69.5256 56.8336 69.5256C55.0097 69.5256 53.4757 70.0455 52.2313 71.0852C51.0041 72.125 50.0751 73.5398 49.4444 75.3295C48.8308 77.1193 48.5239 79.1562 48.5239 81.4403C48.5239 83.7244 48.8308 85.7614 49.4444 87.5511C50.0751 89.3409 51.0041 90.7557 52.2313 91.7955C53.4757 92.8182 55.0097 93.3295 56.8336 93.3295Z" fill="#EFEDE7"/>
<path d="M98.7276 116.545C95.1992 116.545 92.1736 116.06 89.6509 115.088C87.1452 114.134 85.1509 112.83 83.6679 111.176C82.185 109.523 81.2219 107.665 80.7787 105.602L90.8526 104.247C91.1594 105.031 91.6452 105.764 92.31 106.446C92.9747 107.128 93.8526 107.673 94.9435 108.082C96.0515 108.509 97.398 108.722 98.9833 108.722C101.353 108.722 103.304 108.142 104.838 106.983C106.39 105.841 107.165 103.923 107.165 101.23V94.0455H106.705C106.228 95.1364 105.512 96.1676 104.557 97.1392C103.603 98.1108 102.375 98.9034 100.875 99.517C99.3753 100.131 97.5855 100.438 95.506 100.438C92.5571 100.438 89.8725 99.7557 87.452 98.392C85.0486 97.0114 83.131 94.9063 81.6992 92.0767C80.2844 89.2301 79.577 85.6335 79.577 81.2869C79.577 76.8381 80.3014 73.1222 81.7503 70.1392C83.1992 67.1563 85.1253 64.9233 87.5287 63.4403C89.9492 61.9574 92.5997 61.2159 95.4804 61.2159C97.6793 61.2159 99.5202 61.5909 101.003 62.3409C102.486 63.0739 103.679 63.9943 104.583 65.1023C105.503 66.1932 106.211 67.267 106.705 68.3239H107.114V61.7273H117.929V101.384C117.929 104.724 117.111 107.52 115.475 109.77C113.838 112.02 111.571 113.707 108.674 114.832C105.793 115.974 102.478 116.545 98.7276 116.545ZM98.9577 92.2557C100.713 92.2557 102.196 91.821 103.407 90.9517C104.634 90.0653 105.571 88.804 106.219 87.1676C106.884 85.5142 107.216 83.5369 107.216 81.2358C107.216 78.9347 106.892 76.9403 106.245 75.2528C105.597 73.5483 104.659 72.2273 103.432 71.2898C102.205 70.3523 100.713 69.8835 98.9577 69.8835C97.1679 69.8835 95.6594 70.3693 94.4321 71.3409C93.2049 72.2955 92.2759 73.625 91.6452 75.3295C91.0145 77.0341 90.6992 79.0028 90.6992 81.2358C90.6992 83.5028 91.0145 85.4631 91.6452 87.1165C92.2929 88.7528 93.2219 90.0227 94.4321 90.9261C95.6594 91.8125 97.1679 92.2557 98.9577 92.2557Z" fill="#EFEDE7"/>
<path d="M142.181 101.767C138.21 101.767 134.775 100.923 131.877 99.2358C128.997 97.5312 126.772 95.1619 125.204 92.1278C123.636 89.0767 122.852 85.5398 122.852 81.517C122.852 77.4602 123.636 73.9148 125.204 70.8807C126.772 67.8295 128.997 65.4602 131.877 63.7727C134.775 62.0682 138.21 61.2159 142.181 61.2159C146.153 61.2159 149.579 62.0682 152.46 63.7727C155.357 65.4602 157.59 67.8295 159.158 70.8807C160.727 73.9148 161.511 77.4602 161.511 81.517C161.511 85.5398 160.727 89.0767 159.158 92.1278C157.59 95.1619 155.357 97.5312 152.46 99.2358C149.579 100.923 146.153 101.767 142.181 101.767ZM142.232 93.3295C144.039 93.3295 145.548 92.8182 146.758 91.7955C147.968 90.7557 148.88 89.3409 149.494 87.5511C150.124 85.7614 150.44 83.7244 150.44 81.4403C150.44 79.1562 150.124 77.1193 149.494 75.3295C148.88 73.5398 147.968 72.125 146.758 71.0852C145.548 70.0455 144.039 69.5256 142.232 69.5256C140.408 69.5256 138.874 70.0455 137.63 71.0852C136.403 72.125 135.474 73.5398 134.843 75.3295C134.23 77.1193 133.923 79.1562 133.923 81.4403C133.923 83.7244 134.23 85.7614 134.843 87.5511C135.474 89.3409 136.403 90.7557 137.63 91.7955C138.874 92.8182 140.408 93.3295 142.232 93.3295Z" fill="#EFEDE7"/>
</svg>
