<?xml version="1.0" encoding="UTF-8"?>
<svg id="Layer_2" data-name="Layer 2" xmlns="http://www.w3.org/2000/svg" viewBox="0 0 47.59 31.92">
  <defs>
    <style>
      .cls-1 {
        fill: #231f20;
      }
    </style>
  </defs>
  <g id="Layer_1-2" data-name="Layer 1">
    <g>
      <g>
        <path class="cls-1" d="M40.47,19.12l-2.59-2.6c-.46-.45-1.18.25-.71.71l1.72,1.72h-1.2c-1.77,0-3.39.35-4.8,1-3.56,1.63-5.8,5.13-5.8,9.6v2.37h1v-2.37c0-5.65,3.95-9.6,9.6-9.6h1.2l-1.72,1.72c-.46.45.25,1.17.71.7l2.6-2.6c.2-.2.22-.42-.01-.65Z"/>
        <path class="cls-1" d="M44.08,20.1v-.69c0-.18.01-.34.03-.47.02-.13.06-.24.11-.35.05-.1.12-.2.21-.3.09-.1.19-.21.32-.34l.96-.97c.21-.21.31-.48.31-.81s-.11-.59-.32-.79c-.21-.2-.48-.31-.8-.31-.35,0-.63.12-.86.36-.22.24-.35.52-.39.87l-1.59-.12c.05-.4.15-.75.31-1.06s.36-.57.62-.79c.25-.22.55-.38.88-.49.33-.11.7-.17,1.1-.17.37,0,.72.05,1.04.16.32.11.6.26.83.47.24.2.42.46.55.76s.2.65.2,1.04c0,.27-.04.51-.11.72-.07.21-.17.4-.3.57-.12.17-.27.34-.43.5-.16.16-.33.32-.52.5-.12.11-.22.2-.3.29s-.15.17-.21.26c-.05.09-.09.19-.12.3s-.04.25-.04.4v.47h-1.49ZM43.83,21.83c0-.27.1-.49.29-.69s.43-.29.7-.29.5.09.7.27c.2.18.3.41.3.67s-.1.49-.29.68c-.2.19-.43.29-.7.29-.13,0-.26-.02-.38-.07-.12-.05-.23-.12-.32-.2s-.16-.18-.22-.3c-.05-.12-.08-.24-.08-.37Z"/>
      </g>
      <g>
        <path class="cls-1" d="M7.12,19.12l2.59-2.6c.46-.45,1.18.25.71.71l-1.72,1.72h1.2c1.77,0,3.39.35,4.8,1,3.56,1.63,5.8,5.13,5.8,9.6v2.37h-1v-2.37c0-5.65-3.95-9.6-9.6-9.6h-1.2s1.72,1.72,1.72,1.72c.46.45-.25,1.17-.71.7l-2.6-2.6c-.2-.2-.22-.42.01-.65Z"/>
        <path class="cls-1" d="M2.02,20.1v-.69c0-.18.01-.34.03-.47.02-.13.06-.24.11-.35.05-.1.12-.2.21-.3.09-.1.19-.21.32-.34l.96-.97c.21-.21.31-.48.31-.81s-.11-.59-.32-.79c-.21-.2-.48-.31-.8-.31-.35,0-.63.12-.86.36-.22.24-.35.52-.39.87l-1.59-.12c.05-.4.15-.75.31-1.06s.36-.57.62-.79c.25-.22.55-.38.88-.49.33-.11.7-.17,1.1-.17.37,0,.72.05,1.04.16.32.11.6.26.83.47.24.2.42.46.55.76s.2.65.2,1.04c0,.27-.04.51-.11.72-.07.21-.17.4-.3.57-.12.17-.27.34-.43.5-.16.16-.33.32-.52.5-.12.11-.22.2-.3.29s-.15.17-.21.26c-.05.09-.09.19-.12.3s-.04.25-.04.4v.47h-1.49ZM1.77,21.83c0-.27.1-.49.29-.69s.43-.29.7-.29.5.09.7.27c.2.18.3.41.3.67s-.1.49-.29.68c-.2.19-.43.29-.7.29-.13,0-.26-.02-.38-.07-.12-.05-.23-.12-.32-.2s-.16-.18-.22-.3c-.05-.12-.08-.24-.08-.37Z"/>
      </g>
      <g>
        <path class="cls-1" d="M26.72,14.16l-2.6-2.6c-.2-.2-.42-.22-.65.01l-2.6,2.59c-.45.46.25,1.18.71.71l1.72-1.72v18.76h1v-12.77s0,0,0,0v-6l1.72,1.72c.45.46,1.17-.25.7-.71Z"/>
        <path class="cls-1" d="M23.05,6.44v-.69c0-.18.01-.34.03-.47.02-.13.06-.24.11-.35.05-.1.12-.2.21-.3.09-.1.19-.21.32-.34l.96-.97c.21-.21.31-.48.31-.81s-.11-.59-.32-.79c-.21-.2-.48-.31-.8-.31-.35,0-.63.12-.86.36-.22.24-.35.52-.39.87l-1.59-.12c.05-.4.15-.75.31-1.06s.36-.57.62-.79c.25-.22.55-.38.88-.49.33-.11.7-.17,1.1-.17.37,0,.72.05,1.04.16.32.11.6.26.83.47.24.2.42.46.55.76s.2.65.2,1.04c0,.27-.04.51-.11.72-.07.21-.17.4-.3.57-.12.17-.27.34-.43.5-.16.16-.33.32-.52.5-.12.11-.22.2-.3.29s-.15.17-.21.26c-.05.09-.09.19-.12.3s-.04.25-.04.4v.47h-1.49ZM22.8,8.17c0-.27.1-.49.29-.69s.43-.29.7-.29.5.09.7.27c.2.18.3.41.3.67s-.1.49-.29.68c-.2.19-.43.29-.7.29-.13,0-.26-.02-.38-.07-.12-.05-.23-.12-.32-.2s-.16-.18-.22-.3c-.05-.12-.08-.24-.08-.37Z"/>
      </g>
    </g>
  </g>
</svg>