<?xml version="1.0" encoding="UTF-8"?>
<svg id="Layer_2" data-name="Layer 2" xmlns="http://www.w3.org/2000/svg" viewBox="0 0 47.61 26.71">
  <defs>
    <style>
      .cls-1 {
        fill: #231f20;
      }
    </style>
  </defs>
  <g id="Layer_1-2" data-name="Layer 1">
    <g>
      <path class="cls-1" d="M39.69,26.71c-.51,0-.99-.2-1.34-.56l-6.79-6.79c-.58-.58-.72-1.46-.35-2.19l.03-.06-1.51-1.51-.07.06c-1.63,1.42-3.71,2.2-5.85,2.2-4.92,0-8.93-4-8.93-8.93S18.89,0,23.81,0s8.93,4,8.93,8.93c0,2.14-.78,4.22-2.2,5.85l-.06.07,1.51,1.51.06-.03c.27-.13.56-.2.86-.2.5,0,.98.2,1.33.55l6.79,6.79c.36.36.56.84.56,1.34s-.2.98-.56,1.34-.84.56-1.34.56ZM23.81,1.05c-4.34,0-7.88,3.53-7.88,7.88s3.53,7.88,7.88,7.88,7.88-3.53,7.88-7.88-3.53-7.88-7.88-7.88Z"/>
      <path class="cls-1" d="M24.16,3.02c-.14-.26-.56-.26-.7,0l-4.91,8.9c-.07.12-.07.28,0,.4s.21.2.35.2h9.82c.14,0,.27-.08.34-.2.08-.12.08-.28.01-.4l-4.91-8.9ZM23.06,5.91h1.5l-.24,3.15h-1.02l-.24-3.15ZM24.35,10.9c-.14.15-.32.23-.54.23s-.4-.08-.54-.23c-.15-.15-.22-.33-.22-.54s.07-.41.22-.56c.14-.15.32-.22.54-.22s.4.07.54.22c.15.15.22.34.22.56s-.07.39-.22.54Z"/>
      <path class="cls-1" d="M2.83,11.75c-1.56,0-2.83-1.27-2.83-2.83s1.27-2.82,2.83-2.82c1.37,0,2.56,1.01,2.77,2.35v.08h7.83c0,.13,0,.26,0,.39,0,.23,0,.44.02.66h-7.88l-.02.07c-.33,1.23-1.45,2.1-2.72,2.1ZM2.83,7.13c-.99,0-1.8.8-1.8,1.79s.81,1.8,1.8,1.8c.68,0,1.29-.38,1.59-1,.13-.23.2-.5.2-.8,0-.17-.03-.35-.09-.52-.22-.75-.92-1.27-1.7-1.27Z"/>
      <path class="cls-1" d="M44.79,11.89c-1.32,0-2.49-.94-2.76-2.23l-.02-.08h-7.85c.01-.22.02-.44.02-.66,0-.13,0-.26,0-.39h7.84l.02-.08c.29-1.29,1.45-2.22,2.76-2.22,1.55,0,2.82,1.27,2.82,2.83s-1.27,2.83-2.82,2.83ZM44.79,7.26c-.74,0-1.4.44-1.67,1.13-.08.2-.13.43-.13.67s.04.46.13.66c.27.69.93,1.14,1.67,1.14.99,0,1.8-.81,1.8-1.8s-.81-1.8-1.8-1.8Z"/>
    </g>
  </g>
</svg>