<?xml version="1.0" encoding="UTF-8"?>
<svg id="Layer_2" data-name="Layer 2" xmlns="http://www.w3.org/2000/svg" viewBox="0 0 61.14 42.82">
  <defs>
    <style>
      .cls-1 {
        fill: #231f20;
      }
    </style>
  </defs>
  <g id="Layer_1-2" data-name="Layer 1">
    <g>
      <path class="cls-1" d="M60.52,0H28.38c-.34,0-.62.28-.62.62v19.81h1.25V1.25h30.89v30.89h-19.63v1.25h20.25c.35,0,.62-.27.62-.62V.62c0-.34-.28-.62-.62-.62Z"/>
      <path class="cls-1" d="M38.38,40.82c-.28,0-.5.22-.5.5v.5h-.5c-.28,0-.5.22-.5.5s.22.5.5.5h1c.28,0,.5-.22.5-.5v-1c0-.28-.22-.5-.5-.5Z"/>
      <path class="cls-1" d="M34.38,41.82h-2c-.28,0-.5.22-.5.5s.22.5.5.5h2c.28,0,.5-.22.5-.5s-.22-.5-.5-.5Z"/>
      <path class="cls-1" d="M24.38,41.82h-2c-.28,0-.5.22-.5.5s.22.5.5.5h2c.28,0,.5-.22.5-.5s-.22-.5-.5-.5Z"/>
      <path class="cls-1" d="M29.38,41.82h-2c-.28,0-.5.22-.5.5s.22.5.5.5h2c.28,0,.5-.22.5-.5s-.22-.5-.5-.5Z"/>
      <path class="cls-1" d="M19.38,41.82h-.5v-.5c0-.28-.22-.5-.5-.5s-.5.22-.5.5v1c0,.28.22.5.5.5h1c.28,0,.5-.22.5-.5s-.22-.5-.5-.5Z"/>
      <path class="cls-1" d="M18.88,26.32c0-.28-.22-.5-.5-.5s-.5.22-.5.5v2c0,.28.22.5.5.5s.5-.22.5-.5v-2Z"/>
      <path class="cls-1" d="M18.88,31.32c0-.28-.22-.5-.5-.5s-.5.22-.5.5v2c0,.28.22.5.5.5s.5-.22.5-.5v-2Z"/>
      <path class="cls-1" d="M18.38,35.82c-.28,0-.5.22-.5.5v2c0,.28.22.5.5.5s.5-.22.5-.5v-2c0-.28-.22-.5-.5-.5Z"/>
      <path class="cls-1" d="M27.38,22.82h2c.28,0,.5-.22.5-.5s-.22-.5-.5-.5h-2c-.28,0-.5.22-.5.5s.22.5.5.5Z"/>
      <path class="cls-1" d="M34.38,22.82c.28,0,.5-.22.5-.5s-.22-.5-.5-.5h-2c-.28,0-.5.22-.5.5s.22.5.5.5h2Z"/>
      <path class="cls-1" d="M21.88,22.32c0,.28.22.5.5.5h2c.28,0,.5-.22.5-.5s-.22-.5-.5-.5h-2c-.28,0-.5.22-.5.5Z"/>
      <path class="cls-1" d="M38.38,25.82c-.28,0-.5.22-.5.5v2c0,.28.22.5.5.5s.5-.22.5-.5v-2c0-.28-.22-.5-.5-.5Z"/>
      <path class="cls-1" d="M38.38,30.82c-.28,0-.5.22-.5.5v2c0,.28.22.5.5.5s.5-.22.5-.5v-2c0-.28-.22-.5-.5-.5Z"/>
      <path class="cls-1" d="M38.38,35.82c-.28,0-.5.22-.5.5v2c0,.28.22.5.5.5s.5-.22.5-.5v-2c0-.28-.22-.5-.5-.5Z"/>
      <path class="cls-1" d="M45.27,16.44v4.62c0,.82-1.26.81-1.25,0,0,0,0-3.04,0-3.04l-12.28,12.28c-.25-.35-.55-.65-.89-.89l12.28-12.28h-3.04c-.82.02-.81-1.25,0-1.25,0,0,4.6,0,4.6,0,.4,0,.58.22.58.56Z"/>
      <path class="cls-1" d="M11.49,16.44v4.62c0,.82,1.26.81,1.25,0,0,0,0-3.04,0-3.04l12.28,12.28c.25-.35.55-.65.89-.89l-12.28-12.28h3.04c.82.02.81-1.25,0-1.25,0,0-4.6,0-4.6,0-.4,0-.58.22-.58.56Z"/>
      <path class="cls-1" d="M1.18,5.57h21.65v14.72h1.18V4.98c0-.32-.26-.59-.59-.59H.59c-.32,0-.59.26-.59.59v22.83c0,.32.26.59.59.59h15.75v-1.18H1.18V5.57Z"/>
      <path class="cls-1" d="M28.38,29.84c-1.61,0-2.92,1.31-2.92,2.93s1.31,2.92,2.92,2.92,2.93-1.31,2.93-2.92-1.31-2.93-2.93-2.93ZM30.07,32.77c0,.94-.76,1.7-1.7,1.7s-1.7-.76-1.7-1.7.76-1.7,1.7-1.7,1.7.76,1.7,1.7Z"/>
    </g>
  </g>
</svg>