<svg width="100" height="100" viewBox="0 0 100 100" fill="none" xmlns="http://www.w3.org/2000/svg">
<path d="M50.1143 0C77.6653 0.000222682 99.9998 22.3347 100 49.8857V50.1143C99.9998 77.6653 77.6653 99.9998 50.1143 100H49.8857C22.3347 99.9998 0.000210284 77.6653 0 50.1143V49.8857C0.000210312 22.3347 22.3347 0.000222654 49.8857 0H50.1143ZM22.9795 77.7383H34.8242V40.251H22.9795V77.7383ZM63.9004 39.751C61.4725 39.751 59.2895 40.2234 57.3486 41.1729C55.4078 42.1223 53.8624 43.4114 52.7168 45.0439V40.1465H41.4004V77.0762H52.7168V57.0225C52.7168 54.5527 53.3581 52.6329 54.6367 51.2666C55.9155 49.8967 57.6397 49.2139 59.7979 49.2139C61.9558 49.2139 63.6793 49.9003 64.958 51.2666C66.2367 52.6329 66.8779 54.5526 66.8779 57.0225V77.0762H78.1279V55.502C78.1279 50.6042 76.8379 46.7578 74.2559 43.9551V43.9512C71.6774 41.1521 68.2234 39.751 63.9004 39.751ZM28.9385 22.2578C26.8611 22.2579 25.1659 22.8711 23.8486 24.0938C22.5349 25.3199 21.876 26.8995 21.876 28.7002C21.876 30.501 22.5313 32.0146 23.8486 33.2373C25.1659 34.4599 26.9067 35.0732 28.9385 35.0732C30.9705 35.0732 32.6417 34.46 33.959 33.2373C35.2728 32.0146 35.9316 30.5465 35.9316 28.7002C35.9316 26.854 35.2762 25.3164 33.959 24.0938C32.6452 22.871 31.016 22.2578 28.9385 22.2578Z" fill="#EFEDE7"/>
</svg>
