<svg width="100" height="100" viewBox="0 0 100 100" fill="none" xmlns="http://www.w3.org/2000/svg">
<path d="M50.1138 0H49.8862C22.3348 0 0 22.3348 0 49.8861V50.1139C0 77.6652 22.3348 100 49.8862 100H50.1138C77.6652 100 100 77.6652 100 50.1139V49.8861C100 22.3348 77.6652 0 50.1138 0Z" fill="#383D38"/>
<path d="M23.8482 33.2375C22.5309 32.0148 21.8758 30.5013 21.8758 28.7005C21.8758 26.8997 22.5344 25.3196 23.8482 24.0934C25.1655 22.8707 26.8612 22.2576 28.9388 22.2576C31.0164 22.2576 32.6455 22.8707 33.9593 24.0934C35.2766 25.3161 35.9317 26.8541 35.9317 28.7005C35.9317 30.5468 35.2731 32.0148 33.9593 33.2375C32.642 34.4602 30.9708 35.0733 28.9388 35.0733C26.9068 35.0733 25.1655 34.4602 23.8482 33.2375ZM34.8247 40.2515V77.7388H22.9794V40.2515H34.8247Z" fill="#FEFFFC"/>
<path d="M74.2563 43.9547C76.8384 46.7575 78.1277 50.6043 78.1277 55.5022V77.0766H66.8781V57.0227C66.8781 54.5527 66.2369 52.6328 64.9582 51.2664C63.6794 49.9001 61.9557 49.2134 59.7975 49.2134C57.6394 49.2134 55.9156 49.8966 54.6368 51.2664C53.358 52.6328 52.7169 54.5527 52.7169 57.0227V77.0766H41.4007V40.1464H52.7169V45.0442C53.8626 43.4116 55.4077 42.1224 57.3486 41.1729C59.2895 40.2235 61.4722 39.7505 63.9001 39.7505C68.2234 39.7505 71.6778 41.1519 74.2563 43.9512V43.9547Z" fill="#FEFFFC"/>
</svg>
