<?xml version="1.0" encoding="UTF-8"?>
<svg id="Layer_2" data-name="Layer 2" xmlns="http://www.w3.org/2000/svg" xmlns:xlink="http://www.w3.org/1999/xlink" viewBox="0 0 81.01 77.46">
  <defs>
    <style>
      .cls-1 {
        fill: #fff;
      }

      .cls-1, .cls-2 {
        fill-rule: evenodd;
      }

      .cls-2 {
        fill: url(#linear-gradient);
      }
    </style>
    <linearGradient id="linear-gradient" x1="42.79" y1="20.64" x2="36.62" y2="67.05" gradientUnits="userSpaceOnUse">
      <stop offset=".19" stop-color="#1c403a" stop-opacity="0"/>
      <stop offset="1" stop-color="#1c403a" stop-opacity=".2"/>
    </linearGradient>
  </defs>
  <g id="color_gradient" data-name="color gradient">
    <g id="Group-4-Copy-10">
      <path class="cls-1" d="M77.83,4.69c-2.56-3.03-6.32-4.69-10.6-4.69-.89,0-1.81.07-2.72.22l-29.37,4.7-1.33,7.93-.84,4.79-15.87,2.54-1.85,11.02-11.03,1.76L0,58.14l11.02-1.76-.75,4.49c-.76,4.53.28,8.76,2.93,11.89,2.56,3.03,6.32,4.69,10.6,4.69.89,0,1.8-.07,2.72-.22l29.73-4.75c8.86-1.42,16.66-9.15,18.14-17.98l1.64-9.74-7.49,1.2,3.77-22.43,7.48-1.2.97-5.75c.76-4.53-.28-8.76-2.94-11.89ZM77.8,16.09l-.61,3.62-23.65,3.78-.86,4.76,16.23-2.59-3.19,18.96-16.13,2.57-.84,4.98,23.62-3.78-.95,5.62c-1.26,7.5-8.14,14.32-15.66,15.52l-29.73,4.75c-.76.12-1.52.18-2.25.18-3.38,0-6.33-1.29-8.31-3.63-2.07-2.45-2.88-5.81-2.26-9.46l1.45-8.61-11.02,1.76,3.17-18.94,11.03-1.76,1.85-11.02,15.86-2.54,1.2-6.9.98-5.82,27.24-4.36c.76-.12,1.52-.18,2.25-.18,3.38,0,6.33,1.29,8.31,3.63,2.07,2.45,2.88,5.81,2.27,9.46Z"/>
      <path id="Combined-Shape-Copy-40" class="cls-1" d="M50.25,31.68l15.01-2.4-2.14,12.71-16.13,2.57h0s-12.77,2.05-12.77,2.05h0s-3.13.49-3.13.49l-4.03,23.97-1.49.24c-6.23,1-10.43-3.23-9.39-9.45l2.14-12.73-11.02,1.76,2.12-12.69,11.03-1.76,1.85-11.03,12.77-2.04-1.85,11.03,3.13-.5,13.89-2.22ZM36.66,31.4l3.06-17.52.62-3.71,25.11-4.02c6.23-1,10.43,3.23,9.39,9.45l-.25,1.5-23.62,3.78-1.54,8.49-12.77,2.04ZM46.52,47.35l-1.42,8.44,23.62-3.78-.25,1.5c-1.04,6.21-6.94,12.06-13.17,13.05l-25.11,4.02.45-2.7,3.11-18.48,12.77-2.04Z"/>
      <path class="cls-2" d="M23.79,69.76c-2,0-3.63-.68-4.72-1.97-1.17-1.38-1.6-3.38-1.22-5.64l2.53-15.06-11.02,1.76,1.53-9.16,11.03-1.76,1.85-11.02,9.23-1.48-1.85,11.02,32.04-5.12-1.54,9.17-16.1,2.57h0s-9.34,1.5-9.34,1.5l-2.27.35-4.33.69-4.03,23.97-.29.05c-.51.08-1.02.12-1.51.12ZM35.22,50.88l9.23-1.48-1.42,8.44,23.58-3.77c-1.29,5.22-6.32,9.97-11.59,10.81l-22.77,3.64,2.97-17.65ZM41.39,14.17l.42-2.52,23.91-3.82c.51-.08,1.02-.12,1.51-.12,2,0,3.63.68,4.72,1.97,1.17,1.38,1.6,3.38,1.22,5.64l-.05.29-23.6,3.77-1.54,8.49-9.23,1.48,2.65-15.18Z"/>
    </g>
  </g>
</svg>