<svg width="70" height="22" viewBox="0 0 70 22" fill="none" xmlns="http://www.w3.org/2000/svg">
<path d="M5.112 17.088V0H9.912V17.088H5.112ZM0 4.08V0H15.048V4.08H0Z" fill="black"/>
<path d="M16.6123 17.088V0H21.4123V17.088H16.6123ZM20.5243 17.088V13.008H28.5163V17.088H20.5243Z" fill="black"/>
<path d="M29.7707 20.064L31.6427 16.56L32.9387 16.2C32.7947 16.472 32.6267 16.704 32.4347 16.896C32.2427 17.072 32.0267 17.16 31.7867 17.16C31.2427 17.16 30.7387 16.936 30.2747 16.488C29.8267 16.024 29.6027 15.448 29.6027 14.76C29.6027 14.024 29.8507 13.392 30.3467 12.864C30.8427 12.336 31.4667 12.072 32.2187 12.072C32.9227 12.072 33.5307 12.336 34.0427 12.864C34.5707 13.376 34.8347 14.008 34.8347 14.76C34.8347 15.064 34.7787 15.416 34.6667 15.816C34.5547 16.216 34.3227 16.736 33.9707 17.376L31.8827 21.216L29.7707 20.064ZM32.2427 10.584C31.4907 10.584 30.8667 10.328 30.3707 9.816C29.8747 9.304 29.6267 8.68 29.6267 7.944C29.6267 7.192 29.8747 6.56 30.3707 6.048C30.8667 5.536 31.4907 5.28 32.2427 5.28C32.9947 5.28 33.6107 5.536 34.0907 6.048C34.5867 6.56 34.8347 7.192 34.8347 7.944C34.8347 8.68 34.5867 9.304 34.0907 9.816C33.6107 10.328 32.9947 10.584 32.2427 10.584Z" fill="black"/>
<path d="M40.0671 17.088V13.008H44.0511C44.9471 13.008 45.7231 12.848 46.3791 12.528C47.0351 12.192 47.5391 11.688 47.8911 11.016C48.2431 10.344 48.4191 9.512 48.4191 8.52C48.4191 7.528 48.2351 6.704 47.8671 6.048C47.5151 5.392 47.0111 4.904 46.3551 4.584C45.7151 4.248 44.9471 4.08 44.0511 4.08H39.8271V0H44.0511C45.3951 0 46.6271 0.2 47.7471 0.599999C48.8831 0.999999 49.8671 1.576 50.6991 2.328C51.5311 3.08 52.1711 3.984 52.6191 5.04C53.0831 6.08 53.3151 7.248 53.3151 8.544C53.3151 9.84 53.0831 11.016 52.6191 12.072C52.1711 13.112 51.5311 14.008 50.6991 14.76C49.8671 15.512 48.8911 16.088 47.7711 16.488C46.6511 16.888 45.4271 17.088 44.0991 17.088H40.0671ZM36.8511 17.088V0H41.6511V17.088H36.8511Z" fill="black"/>
<path d="M58.9209 10.272V6.96H61.8249C62.4809 6.96 62.9769 6.8 63.3129 6.48C63.6649 6.16 63.8409 5.736 63.8409 5.208C63.8409 4.68 63.6649 4.256 63.3129 3.936C62.9769 3.616 62.4809 3.456 61.8249 3.456H58.9209V0H62.5929C63.7769 0 64.8169 0.216 65.7129 0.647999C66.6089 1.08 67.3129 1.68 67.8249 2.448C68.3369 3.216 68.5929 4.112 68.5929 5.136C68.5929 6.16 68.3289 7.056 67.8009 7.824C67.2889 8.592 66.5689 9.192 65.6409 9.624C64.7129 10.056 63.6169 10.272 62.3529 10.272H58.9209ZM55.0329 17.088V0H59.8329V17.088H55.0329ZM64.2489 17.088L59.5929 9.792L63.9129 8.856L69.6969 17.088H64.2489Z" fill="black"/>
</svg>
