<svg width="100" height="100" viewBox="0 0 100 100" fill="none" xmlns="http://www.w3.org/2000/svg">
<path d="M50 0C77.6142 0 100 22.3858 100 50C100 77.6142 77.6142 100 50 100C22.3858 100 0 77.6142 0 50C0 22.3858 22.3858 2.26779e-05 50 0ZM49.793 27.6787C43.7709 27.6857 37.7486 27.6893 31.7266 27.6963C29.2109 27.6963 26.7652 27.5036 24.4287 28.5928C22.4227 29.5274 20.8523 31.3053 19.9072 33.2832C18.5968 36.0342 18.3231 39.1508 18.165 42.1934C17.8734 47.734 17.9051 53.2891 18.2529 58.8262C18.5094 62.8665 19.1589 67.3319 22.2822 69.9072C25.0508 72.1875 28.9581 72.3002 32.5488 72.3037C43.9464 72.3143 55.3479 72.324 66.749 72.3311C68.2104 72.3346 69.7351 72.3071 71.2246 72.1455C74.1547 71.8293 76.9478 70.9894 78.8311 68.8184C80.7318 66.6295 81.2207 63.5828 81.5088 60.6982C82.2115 53.6995 82.2046 46.6339 81.4844 39.6387C81.0909 35.8407 80.2442 31.642 77.1279 29.4355C74.7142 27.7245 71.5409 27.6615 68.5791 27.665C62.3182 27.665 56.0538 27.6752 49.793 27.6787ZM60.1924 49.9961L43.2012 59.8096V40.1865L60.1924 49.9961Z" fill="#EFEDE7"/>
</svg>
