<svg width="100" height="100" viewBox="0 0 100 100" fill="none" xmlns="http://www.w3.org/2000/svg">
<path d="M100 50C100 22.3858 77.6143 0 50 0C22.3858 0 0 22.3858 0 50C0 77.6142 22.3858 100 50 100C77.6143 100 100 77.6142 100 50Z" fill="#383D38"/>
<path d="M81.4841 39.6388C81.0906 35.8407 80.2439 31.6422 77.1275 29.4357C74.7137 27.7247 71.5411 27.6614 68.5792 27.6649C62.3182 27.6649 56.0537 27.6755 49.7928 27.679C43.7707 27.686 37.7486 27.6895 31.7266 27.6965C29.2109 27.6965 26.7655 27.5033 24.4291 28.5925C22.4229 29.5271 20.8524 31.3049 19.9073 33.2829C18.5968 36.034 18.3227 39.1504 18.1646 42.1931C17.873 47.7338 17.9046 53.2885 18.2524 58.8258C18.5089 62.8662 19.1589 67.3318 22.2824 69.9072C25.051 72.1874 28.9579 72.2999 32.5487 72.3034C43.9463 72.3139 55.3475 72.3245 66.7487 72.3315C68.2103 72.335 69.7352 72.3069 71.2249 72.1453C74.1551 71.8291 76.9482 70.9893 78.8315 68.818C80.7322 66.6291 81.2207 63.583 81.5088 60.6984C82.2114 53.6996 82.2044 46.6341 81.4841 39.6388ZM43.2015 59.8095V40.1869L60.1926 49.9964L43.2015 59.8095Z" fill="white"/>
</svg>
